<svg xmlns="http://www.w3.org/2000/svg" xmlns:xlink="http://www.w3.org/1999/xlink" width="460.714" height="682.765" viewBox="0 0 460.714 682.765">
  <defs>
    <style>
      .cls-1 {
        fill: #fff;
      }

      .cls-2 {
        fill: url(#linear-gradient);
      }

      .cls-3 {
        clip-path: url(#clip-path);
      }

      .cls-4 {
        fill: #922ac7;
      }

      .cls-5 {
        fill: url(#linear-gradient-2);
      }

      .cls-6 {
        clip-path: url(#clip-path-2);
      }

      .cls-7 {
        fill: #7b83eb;
        opacity: 0.2;
        mix-blend-mode: multiply;
        isolation: isolate;
      }

      .cls-8 {
        fill: rgba(255,255,255,0.5);
      }

      .cls-9 {
        filter: url(#Rectangle_101590);
      }
    </style>
    <linearGradient id="linear-gradient" x1="1.179" y1="0.113" x2="-0.483" y2="1.06" gradientUnits="objectBoundingBox">
      <stop offset="0" stop-color="#bf126a"/>
      <stop offset="1" stop-color="#1515b8"/>
    </linearGradient>
    <clipPath id="clip-path">
      <path id="Tracé_267307" data-name="Tracé 267307" class="cls-1" d="M21.4,0H439.319c11.816,0,21.4,10.011,21.4,22.361V660.4c0,12.35-9.579,22.361-21.4,22.361H21.4C9.579,682.765,0,672.754,0,660.4V22.361C0,10.011,9.579,0,21.4,0Z" transform="translate(0 0)"/>
    </clipPath>
    <filter id="Rectangle_101590" x="-13.503" y="-10.103" width="488" height="680" filterUnits="userSpaceOnUse">
      <feOffset dy="3" input="SourceAlpha"/>
      <feGaussianBlur stdDeviation="4.5" result="blur"/>
      <feFlood flood-opacity="0.29"/>
      <feComposite operator="in" in2="blur"/>
      <feComposite in="SourceGraphic"/>
    </filter>
    <linearGradient id="linear-gradient-2" x1="0.897" y1="0.017" x2="0" y2="0.955" gradientUnits="objectBoundingBox">
      <stop offset="0" stop-color="#48ffff"/>
      <stop offset="0.35" stop-color="#43aefc"/>
      <stop offset="0.598" stop-color="#4088fa"/>
      <stop offset="1" stop-color="#8502f6"/>
    </linearGradient>
    <clipPath id="clip-path-2">
      <rect id="Rectangle_101592" data-name="Rectangle 101592" class="cls-2" width="523.474" height="968.052"/>
    </clipPath>
  </defs>
  <g id="Groupe_de_masques_134" data-name="Groupe de masques 134" class="cls-3">
    <g class="cls-9" transform="matrix(1, 0, 0, 1, 0, 0)">
      <rect id="Rectangle_101590-2" data-name="Rectangle 101590" class="cls-4" width="461" height="653" rx="15" transform="translate(0 0.4)"/>
    </g>
    <rect id="Rectangle_101591" data-name="Rectangle 101591" class="cls-5" width="461.891" height="787.76" transform="translate(-0.49 -36.774)"/>
    <g id="Groupe_140201" data-name="Groupe 140201" transform="translate(-19.953 -56.895) rotate(3)">
      <g id="Groupe_140200" data-name="Groupe 140200" transform="translate(0 0)">
        <g id="Groupe_140198" data-name="Groupe 140198">
          <g id="Groupe_140197" data-name="Groupe 140197" class="cls-6">
            <path id="Tracé_267254" data-name="Tracé 267254" class="cls-7" d="M50.127,836.4c6.292-76.208,39.84-146.206,91.46-190.822,27.127-23.445,60.62-40.35,96.247-36.729,37.764,3.841,73.147,30.292,100.762,62.532s49.026,70.412,72.624,106.469c76.96,117.59,179.334,214.474,293.86,278.1,46.364,25.759,95.267,46.318,145.117,52.5,119.393,14.816,234.693-60.72,284.514-179.05,25.714-61.076,35.084-133.849,18.561-203.2-9.778-41.04-30.7-82.707-64.374-102.186-50.842-29.406-108.98,2.954-143.207,48.457s-55.166,103.708-93.017,145.249c-67.679,74.284-180.416,80.357-274.079,35.991s-170.16-131.37-230.664-226.171c-39.862-62.461-74.823-131.441-85.728-205.4-4.773-32.376-4.563-66.375,7.728-94.228s38.747-47.973,67.1-43.217c36.134,6.063,62.549,48.867,70.4,89.92s2.52,82.372,4.162,123.713c2.752,69.29,26.576,140.674,70.308,193.144S589.844,775.3,649.143,767s110.578-58.948,120.44-126.063c5.22-35.505-.679-73.382-11.989-108.769-20.446-63.978-58.937-121.917-107.93-162.462-39.567-32.744-85.014-53.931-125.527-85s-77.865-76.848-83.394-130.413c-5.036-48.778,19.285-95.428,56.1-116.115S580.684,21.415,620.273,43.7c17.566,9.887,34.271,23.628,45.306,42.305,23.377,39.56,16.176,89.172,14.715,134.648-1.963,61.212,10.9,129.1,51.634,173.7,40.994,44.878,107.36,64.394,126.744,124.2,5.693,17.568,6.168,36.235,10.13,54.247s12.977,37.021,28.206,44.028c22.716,10.45,44.669-11.231,54.676-34.758,31.69-74.49,2.733-171.186-42.658-244.429S802.881,204.1,758.644,130.009c-25.183-42.18-47.167-91.115-86.407-114.955-41.791-25.39-90.31-14.266-132.5,1.234C318.852,97.445,92.988,201.631,0,442.758" transform="translate(-315.83 -229.657)"/>
          </g>
        </g>
        <g id="Groupe_140199" data-name="Groupe 140199" transform="translate(24.371 33.105)">
          <path id="Tracé_267255" data-name="Tracé 267255" class="cls-8" d="M10.541,5.707a5.5,5.5,0,0,1-5.27,5.707A5.5,5.5,0,0,1,0,5.707,5.5,5.5,0,0,1,5.27,0,5.5,5.5,0,0,1,10.541,5.707Z" transform="translate(96.015 514.296)"/>
          <path id="Tracé_267256" data-name="Tracé 267256" class="cls-8" d="M10.541,5.707a5.5,5.5,0,0,1-5.27,5.707A5.5,5.5,0,0,1,0,5.707,5.5,5.5,0,0,1,5.27,0,5.5,5.5,0,0,1,10.541,5.707Z" transform="translate(374.25 826.954)"/>
          <path id="Tracé_267257" data-name="Tracé 267257" class="cls-8" d="M10.541,5.707a5.5,5.5,0,0,1-5.27,5.707A5.5,5.5,0,0,1,0,5.707,5.5,5.5,0,0,1,5.27,0,5.5,5.5,0,0,1,10.541,5.707Z" transform="translate(43.792 0)"/>
          <path id="Tracé_267258" data-name="Tracé 267258" class="cls-8" d="M10.541,5.707a5.5,5.5,0,0,1-5.27,5.707A5.5,5.5,0,0,1,0,5.707,5.5,5.5,0,0,1,5.27,0,5.5,5.5,0,0,1,10.541,5.707Z" transform="translate(423.257 648.819)"/>
          <path id="Tracé_267259" data-name="Tracé 267259" class="cls-8" d="M10.538,5.707a5.5,5.5,0,0,1-5.27,5.707A5.5,5.5,0,0,1,0,5.707,5.5,5.5,0,0,1,5.268,0,5.5,5.5,0,0,1,10.538,5.707Z" transform="translate(331.025 237.818)"/>
          <path id="Tracé_267260" data-name="Tracé 267260" class="cls-8" d="M10.541,5.707a5.5,5.5,0,0,1-5.27,5.707A5.5,5.5,0,0,1,0,5.707,5.5,5.5,0,0,1,5.27,0,5.5,5.5,0,0,1,10.541,5.707Z" transform="translate(420.816 88.231)"/>
          <path id="Tracé_267261" data-name="Tracé 267261" class="cls-8" d="M10.541,5.707a5.5,5.5,0,0,1-5.27,5.707A5.5,5.5,0,0,1,0,5.707,5.5,5.5,0,0,1,5.27,0,5.5,5.5,0,0,1,10.541,5.707Z" transform="translate(29.517 588.699)"/>
          <path id="Tracé_267262" data-name="Tracé 267262" class="cls-8" d="M2.163,1.171A1.13,1.13,0,0,1,1.082,2.342,1.129,1.129,0,0,1,0,1.171,1.129,1.129,0,0,1,1.082,0,1.13,1.13,0,0,1,2.163,1.171Z" transform="translate(12.68 502.254)"/>
          <path id="Tracé_267263" data-name="Tracé 267263" class="cls-8" d="M2.163,1.171A1.127,1.127,0,0,1,1.082,2.342,1.129,1.129,0,0,1,0,1.171,1.13,1.13,0,0,1,1.082,0,1.129,1.129,0,0,1,2.163,1.171Z" transform="translate(21.881 214.464)"/>
          <path id="Tracé_267264" data-name="Tracé 267264" class="cls-8" d="M2.163,1.171A1.127,1.127,0,0,1,1.082,2.342,1.129,1.129,0,0,1,0,1.171,1.13,1.13,0,0,1,1.082,0,1.129,1.129,0,0,1,2.163,1.171Z" transform="translate(239.476 9.903)"/>
          <path id="Tracé_267265" data-name="Tracé 267265" class="cls-8" d="M2.163,1.171A1.131,1.131,0,0,1,1.082,2.342,1.13,1.13,0,0,1,0,1.171,1.129,1.129,0,0,1,1.082,0,1.129,1.129,0,0,1,2.163,1.171Z" transform="translate(301.436 254.541)"/>
          <path id="Tracé_267266" data-name="Tracé 267266" class="cls-8" d="M2.163,1.171A1.129,1.129,0,0,1,1.082,2.342,1.129,1.129,0,0,1,0,1.171,1.13,1.13,0,0,1,1.082,0,1.13,1.13,0,0,1,2.163,1.171Z" transform="translate(302.517 858.681)"/>
          <ellipse id="Ellipse_282" data-name="Ellipse 282" class="cls-8" cx="1.081" cy="1.171" rx="1.081" ry="1.171" transform="translate(217.176 618.391)"/>
          <path id="Tracé_267267" data-name="Tracé 267267" class="cls-8" d="M2.163,1.171A1.13,1.13,0,0,1,1.082,2.343,1.129,1.129,0,0,1,0,1.171,1.127,1.127,0,0,1,1.082,0,1.129,1.129,0,0,1,2.163,1.171Z" transform="translate(53.947 427.814)"/>
          <path id="Tracé_267268" data-name="Tracé 267268" class="cls-8" d="M2.163,1.171A1.13,1.13,0,0,1,1.082,2.342,1.129,1.129,0,0,1,0,1.171,1.127,1.127,0,0,1,1.082,0,1.129,1.129,0,0,1,2.163,1.171Z" transform="translate(425.005 211.821)"/>
          <path id="Tracé_267269" data-name="Tracé 267269" class="cls-8" d="M2.163,1.171A1.13,1.13,0,0,1,1.082,2.342,1.129,1.129,0,0,1,0,1.171,1.127,1.127,0,0,1,1.082,0,1.129,1.129,0,0,1,2.163,1.171Z" transform="translate(383.709 0.761)"/>
          <path id="Tracé_267270" data-name="Tracé 267270" class="cls-8" d="M2.163,1.171A1.13,1.13,0,0,1,1.082,2.342,1.13,1.13,0,0,1,0,1.171,1.129,1.129,0,0,1,1.082,0,1.129,1.129,0,0,1,2.163,1.171Z" transform="translate(33.706 98.474)"/>
          <path id="Tracé_267271" data-name="Tracé 267271" class="cls-8" d="M2.163,1.171A1.129,1.129,0,0,1,1.082,2.342,1.127,1.127,0,0,1,0,1.171,1.129,1.129,0,0,1,1.082,0,1.13,1.13,0,0,1,2.163,1.171Z" transform="translate(12.68 266.491)"/>
          <ellipse id="Ellipse_283" data-name="Ellipse 283" class="cls-8" cx="1.081" cy="1.171" rx="1.081" ry="1.171" transform="translate(100.204 15.194)"/>
          <path id="Tracé_267272" data-name="Tracé 267272" class="cls-8" d="M2.163,1.171A1.129,1.129,0,0,1,1.082,2.342,1.127,1.127,0,0,1,0,1.171,1.129,1.129,0,0,1,1.082,0,1.13,1.13,0,0,1,2.163,1.171Z" transform="translate(332.152 284.559)"/>
          <path id="Tracé_267273" data-name="Tracé 267273" class="cls-8" d="M2.163,1.171A1.129,1.129,0,0,1,1.082,2.342,1.127,1.127,0,0,1,0,1.171,1.129,1.129,0,0,1,1.082,0,1.13,1.13,0,0,1,2.163,1.171Z" transform="translate(13.761 613.706)"/>
          <path id="Tracé_267274" data-name="Tracé 267274" class="cls-8" d="M2.163,1.171A1.13,1.13,0,0,1,1.082,2.342,1.13,1.13,0,0,1,0,1.171,1.13,1.13,0,0,1,1.082,0,1.13,1.13,0,0,1,2.163,1.171Z" transform="translate(304.68 826.575)"/>
          <path id="Tracé_267275" data-name="Tracé 267275" class="cls-8" d="M2.163,1.171A1.13,1.13,0,0,1,1.082,2.343,1.129,1.129,0,0,1,0,1.171,1.127,1.127,0,0,1,1.082,0,1.129,1.129,0,0,1,2.163,1.171Z" transform="translate(313.683 273.799)"/>
          <path id="Tracé_267276" data-name="Tracé 267276" class="cls-8" d="M2.163,1.171A1.129,1.129,0,0,1,1.082,2.343,1.13,1.13,0,0,1,0,1.171,1.13,1.13,0,0,1,1.082,0,1.129,1.129,0,0,1,2.163,1.171Z" transform="translate(445.398 626.558)"/>
          <path id="Tracé_267277" data-name="Tracé 267277" class="cls-8" d="M2.163,1.171A1.129,1.129,0,0,1,1.082,2.343,1.131,1.131,0,0,1,0,1.171,1.131,1.131,0,0,1,1.082,0,1.129,1.129,0,0,1,2.163,1.171Z" transform="translate(235.203 616.048)"/>
          <path id="Tracé_267278" data-name="Tracé 267278" class="cls-8" d="M2.163,1.171A1.13,1.13,0,0,1,1.082,2.342,1.13,1.13,0,0,1,0,1.171,1.13,1.13,0,0,1,1.082,0,1.13,1.13,0,0,1,2.163,1.171Z" transform="translate(475.132 391.069)"/>
          <path id="Tracé_267279" data-name="Tracé 267279" class="cls-8" d="M2.163,1.171A1.13,1.13,0,0,1,1.082,2.342,1.131,1.131,0,0,1,0,1.171,1.129,1.129,0,0,1,1.082,0,1.129,1.129,0,0,1,2.163,1.171Z" transform="translate(396.862 751.737)"/>
          <path id="Tracé_267280" data-name="Tracé 267280" class="cls-8" d="M2.163,1.171A1.13,1.13,0,0,1,1.082,2.342,1.13,1.13,0,0,1,0,1.171,1.13,1.13,0,0,1,1.082,0,1.13,1.13,0,0,1,2.163,1.171Z" transform="translate(461.769 816.332)"/>
          <path id="Tracé_267281" data-name="Tracé 267281" class="cls-8" d="M2.115.826A1.191,1.191,0,0,1,1.4,2.29,1.07,1.07,0,0,1,.048,1.517,1.192,1.192,0,0,1,.763.053,1.068,1.068,0,0,1,2.115.826Z" transform="translate(0 458.435)"/>
          <path id="Tracé_267282" data-name="Tracé 267282" class="cls-8" d="M2.115.825A1.191,1.191,0,0,1,1.4,2.289,1.066,1.066,0,0,1,.049,1.518,1.19,1.19,0,0,1,.761.054,1.068,1.068,0,0,1,2.115.825Z" transform="translate(465.294 265.322)"/>
          <path id="Tracé_267283" data-name="Tracé 267283" class="cls-8" d="M2.115.825A1.191,1.191,0,0,1,1.4,2.289,1.068,1.068,0,0,1,.049,1.518,1.191,1.191,0,0,1,.761.054,1.068,1.068,0,0,1,2.115.825Z" transform="translate(402.265 30.626)"/>
          <path id="Tracé_267284" data-name="Tracé 267284" class="cls-8" d="M4.884,2.643A2.55,2.55,0,0,1,2.441,5.289,2.548,2.548,0,0,1,0,2.643,2.548,2.548,0,0,1,2.441,0,2.55,2.55,0,0,1,4.884,2.643Z" transform="translate(49.063 446.694)"/>
          <path id="Tracé_267285" data-name="Tracé 267285" class="cls-8" d="M4.886,2.646A2.55,2.55,0,0,1,2.443,5.291,2.55,2.55,0,0,1,0,2.646,2.55,2.55,0,0,1,2.443,0,2.55,2.55,0,0,1,4.886,2.646Z" transform="translate(461.489 113.671)"/>
          <path id="Tracé_267286" data-name="Tracé 267286" class="cls-8" d="M4.884,2.646A2.55,2.55,0,0,1,2.441,5.291,2.55,2.55,0,0,1,0,2.646,2.55,2.55,0,0,1,2.441,0,2.55,2.55,0,0,1,4.884,2.646Z" transform="translate(273.594 836.744)"/>
          <path id="Tracé_267287" data-name="Tracé 267287" class="cls-8" d="M4.886,2.646A2.55,2.55,0,0,1,2.443,5.289,2.55,2.55,0,0,1,0,2.646,2.55,2.55,0,0,1,2.443,0,2.55,2.55,0,0,1,4.886,2.646Z" transform="translate(311.24 307.955)"/>
          <path id="Tracé_267288" data-name="Tracé 267288" class="cls-8" d="M4.884,2.646A2.55,2.55,0,0,1,2.441,5.291,2.548,2.548,0,0,1,0,2.646,2.548,2.548,0,0,1,2.441,0,2.55,2.55,0,0,1,4.884,2.646Z" transform="translate(426.086 739.701)"/>
          <path id="Tracé_267289" data-name="Tracé 267289" class="cls-8" d="M4.884,2.646A2.55,2.55,0,0,1,2.441,5.291,2.55,2.55,0,0,1,0,2.646,2.55,2.55,0,0,1,2.441,0,2.55,2.55,0,0,1,4.884,2.646Z" transform="translate(379.52 699.346)"/>
          <path id="Tracé_267290" data-name="Tracé 267290" class="cls-8" d="M4.884,2.643A2.55,2.55,0,0,1,2.443,5.289,2.55,2.55,0,0,1,0,2.643,2.548,2.548,0,0,1,2.443,0,2.547,2.547,0,0,1,4.884,2.643Z" transform="translate(453.58 333.256)"/>
          <path id="Tracé_267291" data-name="Tracé 267291" class="cls-8" d="M4.884,2.646A2.548,2.548,0,0,1,2.441,5.289,2.547,2.547,0,0,1,0,2.646,2.55,2.55,0,0,1,2.441,0,2.55,2.55,0,0,1,4.884,2.646Z" transform="translate(214.734 444.049)"/>
          <path id="Tracé_267292" data-name="Tracé 267292" class="cls-8" d="M4.884,2.646A2.55,2.55,0,0,1,2.441,5.289,2.548,2.548,0,0,1,0,2.646,2.548,2.548,0,0,1,2.441,0,2.55,2.55,0,0,1,4.884,2.646Z" transform="translate(217.178 254.816)"/>
          <path id="Tracé_267293" data-name="Tracé 267293" class="cls-8" d="M4.886,2.646A2.548,2.548,0,0,1,2.443,5.289,2.548,2.548,0,0,1,0,2.646,2.55,2.55,0,0,1,2.443,0,2.55,2.55,0,0,1,4.886,2.646Z" transform="translate(300.074 216.806)"/>
          <path id="Tracé_267294" data-name="Tracé 267294" class="cls-8" d="M4.884,2.643A2.55,2.55,0,0,1,2.441,5.289,2.548,2.548,0,0,1,0,2.643,2.548,2.548,0,0,1,2.441,0,2.55,2.55,0,0,1,4.884,2.643Z" transform="translate(175.186 283.087)"/>
          <path id="Tracé_267295" data-name="Tracé 267295" class="cls-8" d="M4.884,2.643A2.55,2.55,0,0,1,2.443,5.289,2.55,2.55,0,0,1,0,2.643,2.55,2.55,0,0,1,2.443,0,2.549,2.549,0,0,1,4.884,2.643Z" transform="translate(219.619 551.6)"/>
          <path id="Tracé_267296" data-name="Tracé 267296" class="cls-8" d="M4.884,2.643A2.55,2.55,0,0,1,2.441,5.289,2.548,2.548,0,0,1,0,2.643,2.548,2.548,0,0,1,2.441,0,2.55,2.55,0,0,1,4.884,2.643Z" transform="translate(8.877 428.985)"/>
          <path id="Tracé_267297" data-name="Tracé 267297" class="cls-8" d="M4.884,2.646A2.55,2.55,0,0,1,2.441,5.291,2.55,2.55,0,0,1,0,2.646,2.55,2.55,0,0,1,2.441,0,2.55,2.55,0,0,1,4.884,2.646Z" transform="translate(445.121 11.074)"/>
          <path id="Tracé_267298" data-name="Tracé 267298" class="cls-8" d="M4.884,2.646A2.55,2.55,0,0,1,2.441,5.291,2.55,2.55,0,0,1,0,2.646,2.55,2.55,0,0,1,2.441,0,2.55,2.55,0,0,1,4.884,2.646Z" transform="translate(106.556 37.503)"/>
          <path id="Tracé_267299" data-name="Tracé 267299" class="cls-8" d="M4.884,2.646A2.55,2.55,0,0,1,2.441,5.291,2.55,2.55,0,0,1,0,2.646,2.55,2.55,0,0,1,2.441,0,2.55,2.55,0,0,1,4.884,2.646Z" transform="translate(6.434 70.08)"/>
          <path id="Tracé_267300" data-name="Tracé 267300" class="cls-8" d="M4.884,2.646A2.55,2.55,0,0,1,2.443,5.291,2.55,2.55,0,0,1,0,2.646,2.55,2.55,0,0,1,2.443,0,2.55,2.55,0,0,1,4.884,2.646Z" transform="translate(46.62 269.678)"/>
          <path id="Tracé_267301" data-name="Tracé 267301" class="cls-8" d="M4.884,2.646A2.55,2.55,0,0,1,2.443,5.291,2.55,2.55,0,0,1,0,2.646,2.55,2.55,0,0,1,2.443,0,2.55,2.55,0,0,1,4.884,2.646Z" transform="translate(177.627 64.221)"/>
          <path id="Tracé_267302" data-name="Tracé 267302" class="cls-8" d="M4.886,2.646A2.55,2.55,0,0,1,2.443,5.289,2.55,2.55,0,0,1,0,2.646,2.55,2.55,0,0,1,2.443,0,2.55,2.55,0,0,1,4.886,2.646Z" transform="translate(287.071 273.495)"/>
          <path id="Tracé_267303" data-name="Tracé 267303" class="cls-8" d="M10.468,22.674h0c0-6.261-4.686-11.336-10.468-11.336H0C5.782,11.338,10.468,6.261,10.468,0h0c0,6.261,4.689,11.338,10.471,11.338h0C15.157,11.338,10.468,16.413,10.468,22.674Z" transform="translate(80.347 391.943)"/>
          <path id="Tracé_267304" data-name="Tracé 267304" class="cls-8" d="M10.468,22.674h0c0-6.261-4.686-11.338-10.468-11.338H0C5.782,11.336,10.468,6.259,10.468,0h0c0,6.259,4.689,11.336,10.471,11.336h0C15.157,11.336,10.468,16.413,10.468,22.674Z" transform="translate(268.575 164.235)"/>
          <path id="Tracé_267305" data-name="Tracé 267305" class="cls-8" d="M10.471,22.674h0c0-6.261-4.689-11.338-10.471-11.338H0C5.782,11.336,10.471,6.261,10.471,0h0c0,6.261,4.686,11.336,10.468,11.336h0C15.157,11.336,10.471,16.413,10.471,22.674Z" transform="translate(219.619 719.672)"/>
          <path id="Tracé_267306" data-name="Tracé 267306" class="cls-8" d="M10.471,22.674h0c0-6.261-4.688-11.338-10.471-11.338H0C5.782,11.336,10.471,6.261,10.471,0h0c0,6.261,4.686,11.336,10.468,11.336h0C15.157,11.336,10.471,16.413,10.471,22.674Z" transform="translate(420.5 50.051)"/>
        </g>
      </g>
    </g>
  </g>
</svg>
