<svg id="_ÎÓÈ_1" data-name="—ÎÓÈ_1" xmlns="http://www.w3.org/2000/svg" viewBox="0 0 560.17 591.48"><defs><style>.cls-1{fill:#198080;}.cls-2{fill:#74c264;}.cls-3{fill:#d3d782;}.cls-4{fill:#fff;}.cls-5{fill:#4bb337;}</style></defs><polygon class="cls-1" points="322.95 198.22 210.46 198.22 135.55 272.46 266.71 399.45 397.87 272.46 322.95 198.22"/><polygon class="cls-1" points="322.91 198.22 294.47 198.22 331.47 272.39 397.82 272.46 322.91 198.22"/><polygon class="cls-2" points="397.87 272.46 135.55 272.46 266.71 399.45 397.87 272.46"/><polygon class="cls-1" points="210.46 198.22 135.55 272.46 201.91 272.39 238.9 198.22 210.46 198.22"/><polygon class="cls-1" points="266.71 399.62 201.91 272.39 135.55 272.63 266.71 399.62"/><polygon class="cls-1" points="266.67 399.62 331.47 272.39 397.82 272.63 266.67 399.62"/><polygon class="cls-3" points="331.47 272.39 266.67 198.19 201.91 272.39 331.47 272.39"/><polygon class="cls-4" points="331.47 272.39 201.91 272.39 216.38 256.73 331.47 272.39"/><polygon class="cls-5" points="322.91 198.22 331.47 272.39 397.82 272.63 322.91 198.22 322.91 198.22"/><polygon class="cls-5" points="210.46 198.22 201.91 272.39 135.55 272.63 210.46 198.22"/><polygon class="cls-4" points="266.67 198.19 266.67 198.19 201.91 272.39 266.67 399.62 218.73 260.49 266.67 198.19"/><path class="cls-4" d="M135.55,272.63c2-.37,83.29-15.1,83.29-15.1l-16.93,14.86Z"/><polygon class="cls-4" points="388.56 264.01 397.82 272.63 331.47 272.39 388.56 264.01"/></svg>