<svg id="_ÎÓÈ_1" data-name="—ÎÓÈ_1" xmlns="http://www.w3.org/2000/svg" viewBox="0 0 560.17 591.48"><defs><style>.cls-1{fill:#ff9a14;}.cls-2{fill:#ffc673;}.cls-3{fill:#d48014;}.cls-4{fill:#ffbc26;}.cls-5{fill:#fff;}</style></defs><path class="cls-1" d="M225.61,168c8.3-16.82,21.89-16.82,30.19,0L275,207c8.3,16.82,30.28,32.79,48.84,35.49l43,6.25c18.57,2.7,22.76,15.62,9.33,28.71l-31.11,30.32c-13.43,13.1-21.82,38.94-18.65,57.42L333.77,408c3.17,18.49-7.82,26.47-24.42,17.74L270.9,405.53c-16.61-8.73-43.78-8.73-60.38,0l-38.45,20.21c-16.61,8.73-27.6.75-24.42-17.74L155,365.18c3.17-18.48-5.23-44.32-18.66-57.42l-31.11-30.32c-13.43-13.09-9.23-26,9.33-28.71l43-6.25c18.56-2.7,40.55-18.67,48.85-35.49Z"/><path class="cls-2" d="M150.92,395.82l27.26-18.07C189.88,370,202.07,362,216,359.92c23.91-3.65,49.88,10.46,71.66-.07,19.44-9.4,25.52-33.41,36-52.27a101.36,101.36,0,0,1,47.71-43.26l-26.18,30.57c-11.56,13.5-23.43,27.56-28.43,44.62-4.93,16.81-4.52,38.2-19.68,47-11.36,6.6-25.56,2.15-38.5-.14a109.21,109.21,0,0,0-67,9.63c-6.79,3.37-13.34,7.49-20.71,9.26s-16.06.66-21-5.08Z"/><path class="cls-3" d="M372.05,249.89c-1.86,9.14-7,18.35-13.42,25.22-12.3,13.24-28.73,23.61-35.64,40.32-4.15,10-4.32,21.17-6.27,31.84s-6.48,21.9-16,27.06c-13.53,7.31-29.74-.55-44.61-4.44a84.93,84.93,0,0,0-57.53,5.45c-10.1,4.82-19.28,11.66-29.93,15.1a36.21,36.21,0,0,1-18.17,1.17L147.65,408c-3.18,18.49,7.81,26.47,24.42,17.74l38.45-20.21c16.6-8.73,43.77-8.73,60.38,0l38.45,20.21c16.6,8.73,27.59.75,24.42-17.74l-7.34-42.82c-3.17-18.48,5.22-44.33,18.65-57.42l31.11-30.32C388.26,265.68,386.06,254.09,372.05,249.89Z"/><path class="cls-4" d="M108.55,275.43c28-13.29,67.82-.28,87.62-24.13,9.79-11.79,10.17-27.88,9.85-43.64-8.54,16.57-30.16,32.16-48.48,34.82l-43,6.25c-18.53,2.69-22.74,15.58-9.38,28.65A24.57,24.57,0,0,1,108.55,275.43Z"/><path class="cls-4" d="M307.42,237.13C293.8,230.5,280.94,219,275,207L255.8,168c-3-6.09-6.7-9.94-10.58-11.62.28.57.55,1.13.8,1.7,7,15.95,6,34.15,9.94,51.1s16.36,34.71,33.76,34.42C296.19,243.54,302.09,240.89,307.42,237.13Z"/><ellipse class="cls-5" cx="215.77" cy="248.39" rx="16.13" ry="19.07"/><ellipse class="cls-5" cx="284.71" cy="351.06" rx="7.33" ry="8.8"/></svg>