<svg id="_ÎÓÈ_1" data-name="—ÎÓÈ_1" xmlns="http://www.w3.org/2000/svg" viewBox="0 0 560.17 591.48"><defs><style>.cls-1{fill:#cc86d7;}.cls-2{fill:#bb5ed7;}.cls-3{fill:#8051d6;}.cls-4{fill:#8036a4;}.cls-5{fill:#fff;}</style></defs><polygon class="cls-1" points="410.79 269.39 279.67 420.04 148.55 269.39 279.67 169.61 410.79 269.39"/><polygon class="cls-2" points="410.79 269.39 148.55 269.39 279.67 420.04 410.79 269.39"/><polygon class="cls-3" points="279.67 169.61 202.02 269.33 148.55 269.39 279.67 169.61"/><polygon class="cls-4" points="279.67 420.18 202.02 269.33 148.55 269.52 279.67 420.18"/><polygon class="cls-3" points="279.64 169.61 357.29 269.33 410.76 269.39 279.64 169.61"/><polygon class="cls-4" points="279.64 420.18 357.29 269.33 410.76 269.52 279.64 420.18"/><polygon class="cls-5" points="279.64 169.61 217.36 269.17 279.64 420.18 202.02 269.33 279.64 169.61"/><polygon class="cls-5" points="357.29 269.33 206.58 267.93 218.88 257.68 357.29 269.33"/></svg>