<svg id="_ÎÓÈ_1" data-name="—ÎÓÈ_1" xmlns="http://www.w3.org/2000/svg" viewBox="0 0 560.17 591.48"><defs><style>.cls-1{fill:#ff2031;}.cls-2{fill:#ff4f60;}.cls-3{fill:#d5394c;}.cls-4{fill:#d68196;}.cls-5{fill:#ba123b;}.cls-6{fill:#fff;}</style></defs><rect class="cls-1" x="192.8" y="202.47" width="185.75" height="185.75" transform="translate(-125.22 298.45) rotate(-46.39)"/><rect class="cls-2" x="192.8" y="243.54" width="185.75" height="103.62" transform="translate(-125.22 298.45) rotate(-46.39)"/><polygon class="cls-3" points="282.5 164.04 396.75 181.33 416.98 292.17 282.5 164.04"/><polygon class="cls-4" points="396.75 181.33 312.23 192.37 387.25 263.85 396.75 181.33"/><polygon class="cls-5" points="154.36 298.53 177.15 411.82 288.85 426.66 154.36 298.53"/><polygon class="cls-1" points="177.15 411.82 184.09 326.86 259.11 398.33 177.15 411.82"/><polygon class="cls-6" points="396.75 181.33 318.36 199.88 188.2 332.24 177.15 411.82 184.09 326.86 312.23 192.37 396.75 181.33"/><polygon class="cls-6" points="325.61 196.27 387.25 263.85 318.36 199.88 325.61 196.27"/><polygon class="cls-6" points="194.76 323.51 259.11 398.33 188.2 332.24 194.76 323.51"/></svg>