<svg id="_ÎÓÈ_1" data-name="—ÎÓÈ_1" xmlns="http://www.w3.org/2000/svg" viewBox="0 0 556.55 556.55"><defs><style>.cls-1{fill:#d42680;}.cls-2{fill:#ff5e89;}.cls-3{fill:#a1146d;}.cls-4{fill:#ff80a6;}.cls-5{fill:#fff;}</style></defs><path class="cls-1" d="M246.28,158.89c9.57-17.49,25.22-17.49,34.78,0l19.49,35.63c9.56,17.48,31.69,39.61,49.17,49.17l35.63,19.49c17.49,9.56,17.49,25.21,0,34.77l-35.63,19.49c-17.48,9.56-39.61,31.69-49.17,49.18l-19.49,35.63c-9.56,17.48-25.21,17.48-34.78,0L226.8,366.62c-9.56-17.49-31.69-39.62-49.18-49.18L142,298c-17.48-9.56-17.48-25.21,0-34.77l35.63-19.49c17.49-9.56,39.62-31.69,49.18-49.17Z"/><path class="cls-2" d="M132.53,289.13c18.08-5,37.93-.12,53.71,10s27.92,25.11,37.84,41c6,9.57,11.84,20.15,22,25.09,18.27,8.88,39.77-5.33,51.36-22s19-37,35.21-49.29c13.92-10.54,35.55-14.28,47.07-27.41,2.86-1.31,3.68,1.92,4,5.05s-1.32,6.1-3.06,8.72c-24.61,37.06-73.8,53.78-93.89,93.48-3.44,6.79-6.41,14.65-13.19,18.12a20.16,20.16,0,0,1-12.32,1.49c-20.18-3.23-31.36-24.25-43-41a159.32,159.32,0,0,0-78.39-59.14Z"/><path class="cls-3" d="M385.35,263.18l-2.69-1.47c-.41.87-.85,1.73-1.33,2.56-6.43,11.14-17.44,18.78-28.45,25.43S330.29,302.54,321.57,312c-11.68,12.66-17,29.81-26.47,44.22s-26.65,26.78-43,21.28c-9.72-3.28-16.4-12-22.5-20.24-14.13-19.11-28.68-38.42-47.88-52.43-14.91-10.88-33.22-18.2-51.43-18.16,1.92,4.14,5.78,8.07,11.68,11.29l35.63,19.49c17.49,9.56,39.62,31.69,49.18,49.18l19.49,35.63c9.56,17.48,25.21,17.48,34.77,0l19.49-35.63c9.56-17.49,31.69-39.62,49.17-49.18L385.35,298C402.84,288.39,402.84,272.74,385.35,263.18Z"/><path class="cls-4" d="M327.74,227.39c-11.11-10.14-21.44-22.34-27.19-32.87l-19.49-35.63a34,34,0,0,0-4.8-6.77c3.2,7.4,4.55,16.5,5.93,24.49,2.76,16.08,9.24,32.36,22.05,42.45A40,40,0,0,0,327.74,227.39Z"/><path class="cls-4" d="M177.62,243.69,142,263.18c-6.51,3.56-10.59,8-12.25,12.59A290.76,290.76,0,0,1,183.1,253.5c17.21-5.23,36.81-10.26,45.73-25.88,6-10.57,5.53-23.54,4.37-35.66-.25-2.58-.51-5.19-.74-7.8l-5.66,10.36C217.24,212,195.11,234.13,177.62,243.69Z"/><circle class="cls-5" cx="242.35" cy="228.14" r="18.54" transform="translate(-90.34 238.19) rotate(-45)"/><path class="cls-5" d="M298.32,344.35c0,3.26-2.34,5.9-5.21,5.9s-5.21-2.64-5.21-5.9,2.33-5.9,5.21-5.9S298.32,341.09,298.32,344.35Z"/></svg>