<svg xmlns="http://www.w3.org/2000/svg" xmlns:xlink="http://www.w3.org/1999/xlink" viewBox="0 0 375 812"><defs><style>.cls-1,.cls-2{fill:none;}.cls-2{clip-rule:evenodd;}.cls-3,.cls-7{isolation:isolate;}.cls-4{fill:url(#Nouvelle_nuance_de_dégradé_1);}.cls-5{clip-path:url(#clip-path);}.cls-6{clip-path:url(#clip-path-2);}.cls-7{fill:#bca2f8;opacity:0.37;}.cls-8{opacity:0.3;}.cls-50,.cls-9{fill:#fff;}.cls-10{clip-path:url(#clip-path-4);}.cls-11{clip-path:url(#clip-path-5);}.cls-12{clip-path:url(#clip-path-7);}.cls-13{opacity:0.92;}.cls-13,.cls-33,.cls-40{mix-blend-mode:screen;}.cls-14{clip-path:url(#clip-path-10);}.cls-15{clip-path:url(#clip-path-11);}.cls-16{fill:url(#Dégradé_sans_nom_90);}.cls-17{clip-path:url(#clip-path-12);}.cls-18{fill:url(#Dégradé_sans_nom_89);}.cls-19{opacity:0.4;}.cls-106,.cls-119,.cls-136,.cls-167,.cls-19,.cls-23,.cls-96{mix-blend-mode:multiply;}.cls-20{clip-path:url(#clip-path-14);}.cls-21{clip-path:url(#clip-path-15);}.cls-22{fill:url(#Dégradé_sans_nom_28);}.cls-23{opacity:0.3;}.cls-24{clip-path:url(#clip-path-16);}.cls-25{clip-path:url(#clip-path-17);}.cls-26{fill:url(#Dégradé_sans_nom_88);}.cls-27{clip-path:url(#clip-path-18);}.cls-28{clip-path:url(#clip-path-19);}.cls-29{fill:url(#Dégradé_sans_nom_88-2);}.cls-30{clip-path:url(#clip-path-20);}.cls-31{clip-path:url(#clip-path-21);}.cls-32{fill:url(#Dégradé_sans_nom_88-3);}.cls-34{clip-path:url(#clip-path-22);}.cls-35{clip-path:url(#clip-path-23);}.cls-36{fill:url(#Dégradé_sans_nom_49);}.cls-37{clip-path:url(#clip-path-24);}.cls-38{clip-path:url(#clip-path-25);}.cls-39{fill:url(#Dégradé_sans_nom_87);}.cls-40,.cls-96{opacity:0.5;}.cls-41{clip-path:url(#clip-path-26);}.cls-42{clip-path:url(#clip-path-27);}.cls-43{fill:url(#Dégradé_sans_nom_11);}.cls-44{clip-path:url(#clip-path-28);}.cls-45{clip-path:url(#clip-path-29);}.cls-46{fill:url(#Dégradé_sans_nom_11-2);}.cls-47{clip-path:url(#clip-path-30);}.cls-48{clip-path:url(#clip-path-31);}.cls-49{fill:url(#Dégradé_sans_nom_11-3);}.cls-50,.cls-51{fill-rule:evenodd;}.cls-51{fill:#ff9aff;}.cls-52{clip-path:url(#clip-path-32);}.cls-53{clip-path:url(#clip-path-33);}.cls-54{fill:url(#Dégradé_sans_nom_86);}.cls-55{clip-path:url(#clip-path-34);}.cls-56{clip-path:url(#clip-path-35);}.cls-57{fill:url(#Dégradé_sans_nom_86-2);}.cls-58{clip-path:url(#clip-path-36);}.cls-59{clip-path:url(#clip-path-37);}.cls-60{fill:url(#Dégradé_sans_nom_83);}.cls-61{clip-path:url(#clip-path-38);}.cls-62{clip-path:url(#clip-path-39);}.cls-63{fill:url(#Dégradé_sans_nom_83-2);}.cls-64{clip-path:url(#clip-path-40);}.cls-65{clip-path:url(#clip-path-41);}.cls-66{fill:url(#Dégradé_sans_nom_86-3);}.cls-67{clip-path:url(#clip-path-42);}.cls-68{clip-path:url(#clip-path-43);}.cls-69{fill:url(#Dégradé_sans_nom_83-3);}.cls-70{clip-path:url(#clip-path-44);}.cls-71{clip-path:url(#clip-path-45);}.cls-72{fill:url(#Dégradé_sans_nom_85);}.cls-73{clip-path:url(#clip-path-46);}.cls-74{clip-path:url(#clip-path-47);}.cls-75{fill:url(#Dégradé_sans_nom_83-4);}.cls-76{clip-path:url(#clip-path-48);}.cls-77{clip-path:url(#clip-path-49);}.cls-78{fill:url(#Dégradé_sans_nom_84);}.cls-79{clip-path:url(#clip-path-50);}.cls-80{clip-path:url(#clip-path-51);}.cls-81{fill:url(#Dégradé_sans_nom_83-5);}.cls-82{clip-path:url(#clip-path-52);}.cls-83{clip-path:url(#clip-path-53);}.cls-84{fill:url(#Dégradé_sans_nom_84-2);}.cls-85{clip-path:url(#clip-path-54);}.cls-86{clip-path:url(#clip-path-55);}.cls-87{fill:url(#Dégradé_sans_nom_83-6);}.cls-88{clip-path:url(#clip-path-57);}.cls-89{clip-path:url(#clip-path-59);}.cls-90{fill:url(#Dégradé_sans_nom_91);}.cls-91{clip-path:url(#clip-path-60);}.cls-92{fill:url(#Dégradé_sans_nom_91-2);}.cls-93{clip-path:url(#clip-path-62);}.cls-94{clip-path:url(#clip-path-63);}.cls-95{fill:url(#Dégradé_sans_nom_51);}.cls-97{clip-path:url(#clip-path-64);}.cls-98{clip-path:url(#clip-path-65);}.cls-99{fill:url(#Dégradé_sans_nom_51-2);}.cls-100{clip-path:url(#clip-path-66);}.cls-101{clip-path:url(#clip-path-67);}.cls-102{fill:url(#Dégradé_sans_nom_101);}.cls-103{clip-path:url(#clip-path-68);}.cls-104{clip-path:url(#clip-path-69);}.cls-105{fill:url(#Dégradé_sans_nom_100);}.cls-106{opacity:0.76;}.cls-107{clip-path:url(#clip-path-70);}.cls-108{clip-path:url(#clip-path-71);}.cls-109{fill:url(#Dégradé_sans_nom_51-3);}.cls-110{clip-path:url(#clip-path-72);}.cls-111{clip-path:url(#clip-path-73);}.cls-112{fill:url(#Dégradé_sans_nom_51-4);}.cls-113{clip-path:url(#clip-path-74);}.cls-114{clip-path:url(#clip-path-75);}.cls-115{fill:url(#Dégradé_sans_nom_51-5);}.cls-116{clip-path:url(#clip-path-76);}.cls-117{clip-path:url(#clip-path-77);}.cls-118{fill:url(#Dégradé_sans_nom_51-6);}.cls-119{opacity:0.79;}.cls-120{clip-path:url(#clip-path-78);}.cls-121{clip-path:url(#clip-path-79);}.cls-122{fill:url(#Dégradé_sans_nom_51-7);}.cls-123{clip-path:url(#clip-path-80);}.cls-124{fill:url(#Dégradé_sans_nom_99);}.cls-125{clip-path:url(#clip-path-81);}.cls-126{fill:url(#Dégradé_sans_nom_98);}.cls-127{clip-path:url(#clip-path-83);}.cls-128{clip-path:url(#clip-path-84);}.cls-129{fill:url(#Dégradé_sans_nom_11-4);}.cls-130{clip-path:url(#clip-path-85);}.cls-131{clip-path:url(#clip-path-86);}.cls-132{fill:url(#Dégradé_sans_nom_94);}.cls-133{clip-path:url(#clip-path-87);}.cls-134{clip-path:url(#clip-path-88);}.cls-135{fill:url(#Dégradé_sans_nom_97);}.cls-136{opacity:0.2;}.cls-137{clip-path:url(#clip-path-89);}.cls-138{clip-path:url(#clip-path-90);}.cls-139{fill:url(#Dégradé_sans_nom_51-8);}.cls-140{clip-path:url(#clip-path-91);}.cls-141{clip-path:url(#clip-path-92);}.cls-142{fill:url(#Dégradé_sans_nom_96);}.cls-143{clip-path:url(#clip-path-93);}.cls-144{fill:url(#Dégradé_sans_nom_95);}.cls-145{clip-path:url(#clip-path-95);}.cls-146{clip-path:url(#clip-path-96);}.cls-147{fill:url(#Dégradé_sans_nom_51-9);}.cls-148{clip-path:url(#clip-path-97);}.cls-149{clip-path:url(#clip-path-98);}.cls-150{fill:url(#Dégradé_sans_nom_94-2);}.cls-151{clip-path:url(#clip-path-99);}.cls-152{fill:url(#Dégradé_sans_nom_93);}.cls-153{clip-path:url(#clip-path-101);}.cls-154{clip-path:url(#clip-path-102);}.cls-155{fill:url(#Dégradé_sans_nom_94-3);}.cls-156{clip-path:url(#clip-path-103);}.cls-157{fill:url(#Dégradé_sans_nom_93-2);}.cls-158{clip-path:url(#clip-path-106);}.cls-159{clip-path:url(#clip-path-107);}.cls-160{fill:url(#Dégradé_sans_nom_92);}.cls-161{clip-path:url(#clip-path-108);}.cls-162{fill:url(#Dégradé_sans_nom_91-3);}.cls-163{clip-path:url(#clip-path-109);}.cls-164{clip-path:url(#clip-path-111);}.cls-165{fill:url(#Dégradé_sans_nom_68);}.cls-166{clip-path:url(#clip-path-112);}.cls-168{clip-path:url(#clip-path-113);}.cls-169{clip-path:url(#clip-path-114);}.cls-170{fill:url(#Dégradé_sans_nom_66);}.cls-171{clip-path:url(#clip-path-116);}.cls-172{clip-path:url(#clip-path-117);}.cls-173{fill:url(#Dégradé_sans_nom_68-2);}.cls-174{clip-path:url(#clip-path-118);}.cls-175{fill:url(#Dégradé_sans_nom_104);}.cls-176{fill:#ff387a;}.cls-177{fill:#ff8b8d;}.cls-178{clip-path:url(#clip-path-120);}.cls-179{fill:url(#Dégradé_sans_nom_103);}.cls-180{fill:#a1ffff;}.cls-181{mix-blend-mode:color-dodge;}.cls-182{clip-path:url(#clip-path-122);}.cls-183{clip-path:url(#clip-path-123);}.cls-184{fill:url(#Dégradé_sans_nom_102);}.cls-185{clip-path:url(#clip-path-124);}.cls-186{clip-path:url(#clip-path-125);}.cls-187{fill:url(#Dégradé_sans_nom_102-2);}.cls-188{clip-path:url(#clip-path-126);}.cls-189{clip-path:url(#clip-path-127);}.cls-190{fill:url(#Dégradé_sans_nom_102-3);}.cls-191{clip-path:url(#clip-path-128);}.cls-192{clip-path:url(#clip-path-129);}.cls-193{fill:url(#Dégradé_sans_nom_102-4);}.cls-194{clip-path:url(#clip-path-130);}.cls-195{clip-path:url(#clip-path-131);}.cls-196{fill:url(#Dégradé_sans_nom_102-5);}.cls-197{clip-path:url(#clip-path-132);}.cls-198{clip-path:url(#clip-path-133);}.cls-199{fill:url(#Dégradé_sans_nom_102-6);}.cls-200{mix-blend-mode:soft-light;}.cls-201{clip-path:url(#clip-path-134);}.cls-202{fill:#bd95d4;}</style><linearGradient id="Nouvelle_nuance_de_dégradé_1" x1="-1.5" y1="0.7" x2="376.5" y2="811.3" gradientUnits="userSpaceOnUse"><stop offset="0" stop-color="#4551f5"/><stop offset="0" stop-color="#4a50f5"/><stop offset="0.06" stop-color="#524ef6"/><stop offset="0.7" stop-color="#9c3dfc"/><stop offset="1" stop-color="#ba36ff"/><stop offset="1" stop-color="#4551f5"/></linearGradient><clipPath id="clip-path"><rect class="cls-1" width="375" height="812"/></clipPath><clipPath id="clip-path-2"><rect class="cls-1" x="-1353.12" y="-430.84" width="2654.91" height="1522.91" transform="translate(-7.86 -0.52) rotate(-1.36)"/></clipPath><clipPath id="clip-path-4"><rect class="cls-1" x="-426.2" width="375" height="812"/></clipPath><clipPath id="clip-path-5"><rect class="cls-1" x="-1779.32" y="-430.84" width="2654.91" height="1522.91" transform="translate(-7.98 -10.65) rotate(-1.36)"/></clipPath><clipPath id="clip-path-7"><rect class="cls-1" x="-2.21" y="586.84" width="230.2" height="230.2"/></clipPath><clipPath id="clip-path-10"><rect class="cls-1" x="27.81" y="616.86" width="170.16" height="170.16"/></clipPath><clipPath id="clip-path-11"><path class="cls-2" d="M112.89,787a85,85,0,0,1-85.08-85.09,87.37,87.37,0,0,1,.72-11.15,81.1,81.1,0,0,1,1.91-9.89,84.8,84.8,0,0,1,17.24-33.57,84.46,84.46,0,0,1,47.57-28.63s0,0,.07,0a86.26,86.26,0,0,1,17.57-1.81A85.08,85.08,0,0,1,198,701.93c0,1.87-.05,3.7-.18,5.54a84.69,84.69,0,0,1-6.43,27.38c-.63,1.49-1.29,2.95-2,4.4a84,84,0,0,1-11.14,17.15c-1.45,1.76-3,3.47-4.59,5.1-.57.6-1.17,1.17-1.76,1.74a84.74,84.74,0,0,1-59,23.78"/></clipPath><radialGradient id="Dégradé_sans_nom_90" cx="-328.83" cy="248.44" r="1.85" gradientTransform="matrix(0, 46.03, 46.03, 0, -11322.87, 15837.68)" gradientUnits="userSpaceOnUse"><stop offset="0"/><stop offset="0.89"/><stop offset="0.9" stop-color="#000506"/><stop offset="0.92" stop-color="#001216"/><stop offset="0.94" stop-color="#002932"/><stop offset="0.96" stop-color="#004858"/><stop offset="0.98" stop-color="#006f88"/><stop offset="1" stop-color="#008bab"/></radialGradient><clipPath id="clip-path-12"><path class="cls-1" d="M169.73,646.67a79.45,79.45,0,0,0-73.21-22.32h-.07A78.85,78.85,0,0,0,52.12,651a77.72,77.72,0,0,0-7.83,11.17,78.74,78.74,0,0,0-8.24,20.11,76.19,76.19,0,0,0-1.77,9.22,81.07,81.07,0,0,0-.67,10.39,79.27,79.27,0,0,0,134.25,57.13c.55-.53,1.1-1.07,1.64-1.62,1.49-1.52,2.93-3.11,4.28-4.75a78.66,78.66,0,0,0,10.38-16c.65-1.36,1.27-2.71,1.86-4.1a79.45,79.45,0,0,0,6-25.52c.11-1.71.16-3.42.16-5.16a79,79,0,0,0-22.44-55.26"/></clipPath><radialGradient id="Dégradé_sans_nom_89" cx="-332.98" cy="251.04" r="1.85" gradientTransform="matrix(0, 62.92, 62.92, 0, -15659.55, 21630.18)" gradientUnits="userSpaceOnUse"><stop offset="0" stop-color="#00cec0"/><stop offset="0.01" stop-color="#00cec0"/><stop offset="0.26" stop-color="#00ccc0"/><stop offset="0.38" stop-color="#00c4c1"/><stop offset="0.48" stop-color="#00b7c2"/><stop offset="0.56" stop-color="#00a4c4"/><stop offset="0.64" stop-color="#008cc6"/><stop offset="0.71" stop-color="#006ec8"/><stop offset="0.72" stop-color="#0068c9"/><stop offset="0.74" stop-color="#0767cb"/><stop offset="0.78" stop-color="#1a66cf"/><stop offset="0.83" stop-color="#3a63d6"/><stop offset="0.88" stop-color="#6660e0"/><stop offset="0.93" stop-color="#9e5bed"/><stop offset="0.99" stop-color="#e255fc"/><stop offset="1" stop-color="#f154ff"/></radialGradient><clipPath id="clip-path-14"><rect class="cls-1" x="33.61" y="640.3" width="144.39" height="140.92"/></clipPath><clipPath id="clip-path-15"><path class="cls-2" d="M112.89,781.22a79.21,79.21,0,0,1-79.28-79.29,81.07,81.07,0,0,1,.67-10.39,78.63,78.63,0,0,1,10-29.34c.67,2.63,1.57,5.21,2.24,7.85,1.62,6.31,3.46,12.33,4.18,18.81.31,2.6,1.33,6.63,4.46,6.75.88,0,1.12-.16,1.6.4s.29,1.32.45,2.07c.41,1.85,2.31,3.32,3.65,4.48a70.11,70.11,0,0,1,6.25,6.18c3.73,4.26,5.45,9.88,10.8,12.61a19.72,19.72,0,0,0,4.56,1.17,6.22,6.22,0,0,1,3.86,3.28c1.09,1.9,1.47,4,3,5.69s3.52,2.39,5.48,3c3.25,1,6.53.87,9.85,1.32a48.62,48.62,0,0,0,5,.78c1.62.09,2.89-.58,4.42-1.12,2.58-.9,5.24-2.11,7.73-3.21a7.36,7.36,0,0,0,2.41-1.81c1-1.1,2.17-2.07,3.17-3.2.71-.78,1.16-1.77,1.88-2.54.57-.6,1.34-1.1,1.94-1.66a14.75,14.75,0,0,0,2.95-3.36c1.74-3.14,4.9-5,5.54-8.68.77-4.48,5.55-8.14,3.86-12.91-1.08-3.06-2.26-6.07-3.08-9.28-.52-2.06-.47-4.41-1.23-6.35a10.07,10.07,0,0,0-2.5-3.39c-1.47-1.34-3.46-1.86-5.07-3-1.21-.84-2.38-1.39-3.66-2.11-2.58-1.41-5-1.26-7.84-1.26a42.8,42.8,0,0,0-4.67,0,8.69,8.69,0,0,0-4.61,2.21c-.85.67-2.33,1.14-3,2-.35.43-.25.83-.45,1.3a7.33,7.33,0,0,1-1.19,1.77,17.77,17.77,0,0,0-3.59,6.71,17.79,17.79,0,0,1-1.06,3.77,10.86,10.86,0,0,0-.85,3.36,9.34,9.34,0,0,0,2.29,7,15.5,15.5,0,0,0,3.16,3.21,4.94,4.94,0,0,1,1.64,1.64,2.9,2.9,0,0,1,.57,1.71c-.07.51-.74,1-.4,1.61s1.78.75,2.22.91c.81.32,1.8.54,2.56.91,1.37.63,1,1.71,1.08,3a3.15,3.15,0,0,0,.87,2.62,3.75,3.75,0,0,0,3.16,0c1.11-.61,2.18-2.18,3.08-3.05a14.64,14.64,0,0,1,2.29-1.78c1.59-1,4.45-1.45,4.94-3.62a14.24,14.24,0,0,0,0-2.92,10.84,10.84,0,0,1,.47-2.72,21,21,0,0,0,.84-4.51,13.28,13.28,0,0,0-1.32-5.45c-.32-.77-.17-1.41-.41-2.11a5.23,5.23,0,0,0-2.93-2.33,3.72,3.72,0,0,0-4.28,2.11c-.23.57-.33,1.89-.8,2.31-.62.55-1.43.08-2.13-.2-1.79-.7-3.93-.33-4.26,1.89-.22,1.51.75,3,1.33,4.24.54,1.06.68,2.79,2.07,2.79-.66-.08-.41-1.19-.41-1.73a3.53,3.53,0,0,1,.72-2.64,3.87,3.87,0,0,1,2.25-1.25,7.77,7.77,0,0,0,1.28-.66c.27-.18.64-.77.92-.87,1.59-.6,2.34,4.27,2.44,5.21.24,2-1.22,3.45-2.76,4.62-.7.52-1.67,1.53-2.52,1.49a12.2,12.2,0,0,1-3-1c-.8-.33-1.57-.58-2.32-.85-1-.33-1.16-.83-1.68-1.69a15.5,15.5,0,0,0-1.87-2.17,5.76,5.76,0,0,1-1-2.78c-.37-1.51.43-2.85.33-4.37-.07-1.26-.78-2.34-.87-3.58-.17-2.61.15-4.94,3-5.84a2.11,2.11,0,0,1,2.53.67c.82.78,1.56.51,2.53.11a17.09,17.09,0,0,1,3.39-1.2c1.21-.2,2.58.52,3.8.72,1,.18,2.44-.32,3.42,0s1.72,2.05,2.3,2.77a19,19,0,0,1,1.63,3.33c.7,1.34.48,2.28.71,3.65.21,1.12,1.08,1.72,1.48,2.73a10.61,10.61,0,0,1,.2,3.82,6.71,6.71,0,0,1-1,3.18c-.55,1.1-1.41,2.07-1.56,3.36-.17,1.49.12,3,.05,4.5s-.85,2-1.62,3.11a9.85,9.85,0,0,1-2.63,3c-.6.44-1.34.66-1.91,1.09a6.42,6.42,0,0,1-1.79,1.14,25.8,25.8,0,0,1-3.15,1.25,5.43,5.43,0,0,1-1.91.35c-.89-.08-1.65-.45-2.56-.46a12,12,0,0,1-5.38-1.68c-1.79-.9-3.68-1.65-5.5-2.49-1.24-.57-3.7-.69-4-2.36a8.07,8.07,0,0,0-.45-2.56c-.45-.87-1.46-1-2.09-1.68s-.41-1.47-.41-2.34a9,9,0,0,0-.73-3.71c-.62-1.46-2.09-2.44-2.83-3.9a18.53,18.53,0,0,1-1.42-3.82c-.24-.92,0-1.82-.29-2.76-.63-2.14-2-3.93-2.81-6a13.48,13.48,0,0,1-.82-5.39,9.23,9.23,0,0,1,.57-2c.32-1.07.32-2.19.6-3.3.22-.87.54-1.7.84-2.54s1-1.41,1.32-2.21c.89-1.86.79-3.65,2.16-5.35a72.3,72.3,0,0,0,5.19-6.3,8,8,0,0,1,2.36-2.21,20.61,20.61,0,0,0,2-1.82,12.44,12.44,0,0,1,3.56-2.06c2.09-.87,4-1.91,6.12-2.64,3.07-1,5.88-2.38,9.09-3,2.66-.46,5,.12,7.6.22a9.47,9.47,0,0,0,1.92,0,5.39,5.39,0,0,0,2.36-1.68,25.61,25.61,0,0,1,7.69-5,15.63,15.63,0,0,1,9.82-.75c2.84.9,4.41,2.66,6.14,5a49.4,49.4,0,0,1,4.24,7.32,31.26,31.26,0,0,1,1.83,3.42c.46,1.24.68,2.69,1,4a8.07,8.07,0,0,0,1.12,3.07,37.71,37.71,0,0,0,2.37,3.09c1,1.15,2.11,2.08,2.51,3.6.56,2.09,1.19,4.28,1.63,6.41.55,2.62-.17,5.85-.46,8.47a75.48,75.48,0,0,0-.31,7.83c0,2.21.35,4.3.43,6.49,0,.81-.08,1.64,0,2.45a20.58,20.58,0,0,0,1,3.84c.64,2.45,1.82,4.74,2.61,7.13.62,1.86.55,3.63.87,5.54a55.46,55.46,0,0,1,1.09,6.11c.06,1.79.75,3.68-.22,5.29-1.84,3-5,4.89-6.78,7.85a68.42,68.42,0,0,0-4.57,10c-.45,1.15.09,2.46-.31,3.51-.2.54-1,1.09-1.49,1.47.38.55.93.39,1.52.41.83,0,1.47.43,2.34.45a19.46,19.46,0,0,0,3.15,0,17.08,17.08,0,0,1,2.44-.79c-1.35,1.64-2.79,3.23-4.28,4.75a79,79,0,0,1-56.61,23.78"/></clipPath><radialGradient id="Dégradé_sans_nom_28" cx="-325.85" cy="246.61" r="1.85" gradientTransform="matrix(0, 38.59, 38.59, 0, -9411.33, 13285.88)" gradientUnits="userSpaceOnUse"><stop offset="0" stop-color="#1372b3"/><stop offset="1" stop-color="#fff"/></radialGradient><clipPath id="clip-path-16"><rect class="cls-1" x="78.68" y="647.84" width="15.75" height="21.57"/></clipPath><clipPath id="clip-path-17"><path class="cls-2" d="M88.9,649.09a25.09,25.09,0,0,0-5.3-.82c.11.45-.95,1.14-1.17,1.65-.41.93-.29,1.85-.91,2.72s-1.63,1.68-1.91,2.58a7.79,7.79,0,0,0,0,2,17.87,17.87,0,0,1-.32,3.72,15.71,15.71,0,0,0-.57,4.35,6.74,6.74,0,0,0,1.15,3c.6.73,2.4,1,3.33,1.09,2.89.16,5.62-2,7.33-4.14.89-1.13.89-2.41,1.54-3.67a21.2,21.2,0,0,0,1.66-4.45,13.06,13.06,0,0,0,.72-3.31,16.83,16.83,0,0,0-.89-3.05,4.21,4.21,0,0,0-1.25-2.57c-.92-.71-2.29-.39-3.4.88"/></clipPath><linearGradient id="Dégradé_sans_nom_88" x1="-287.16" y1="220.74" x2="-285.31" y2="220.74" gradientTransform="matrix(0, 11.67, 11.67, 0, -2489.24, 3998.63)" gradientUnits="userSpaceOnUse"><stop offset="0" stop-color="#b8c2ff"/><stop offset="1" stop-color="#7d72b3"/></linearGradient><clipPath id="clip-path-18"><rect class="cls-1" x="72" y="667.98" width="6.75" height="4.44"/></clipPath><clipPath id="clip-path-19"><path class="cls-2" d="M78.75,671.5c-.59-.51-4.67-5.19-6.28-2.88a8.55,8.55,0,0,0-.39,1.28c-.18.71-.07.84.3,1.42a2.71,2.71,0,0,0,3.16,1,8.58,8.58,0,0,0,1.27-.42c.44-.21.57-.7,1.1-.81Z"/></clipPath><linearGradient id="Dégradé_sans_nom_88-2" x1="-65.43" y1="76.95" x2="-63.58" y2="76.95" gradientTransform="matrix(0, 2.4, 2.4, 0, -109.68, 825.31)" xlink:href="#Dégradé_sans_nom_88"/><clipPath id="clip-path-20"><rect class="cls-1" x="175.5" y="686.66" width="9.93" height="22.34"/></clipPath><clipPath id="clip-path-21"><path class="cls-2" d="M181.48,698.55c.43.86,2.07,3.55,2.22,5.06.05.49-.1,1.18-.1,1.71,0,1.14.21,2.13-.72,3a1.77,1.77,0,0,1-2.22.47c-1.11-.66-1.93-2.37-2.55-3.45-1.46-2.53-2.86-5.88-2.57-8.91.22-2.4,2-4.58,3.1-6.64.82-1.54,2.36-4.36,4.22-2.48a9.24,9.24,0,0,1,2.43,6c0,1,.38,3.28-.19,4s-3.33-.08-3.19,1.67Z"/></clipPath><linearGradient id="Dégradé_sans_nom_88-3" x1="-287.62" y1="225.57" x2="-285.77" y2="225.57" gradientTransform="matrix(0, 12.08, 12.08, 0, -2545.27, 4162.21)" xlink:href="#Dégradé_sans_nom_88"/><clipPath id="clip-path-22"><rect class="cls-1" x="123.92" y="621.36" width="73.16" height="157.19"/></clipPath><clipPath id="clip-path-23"><path class="cls-2" d="M129.05,621.45c-16.16,1.21,10,39,21.63,75.66,13.65,43-16.16,75.57-14.54,80.33,2.54,7.45,61.69-23.15,60.93-72.14-.85-55.19-41.94-85.79-68-83.85"/></clipPath><linearGradient id="Dégradé_sans_nom_49" x1="-332.56" y1="260.33" x2="-330.72" y2="260.33" gradientTransform="matrix(-66.88, 0, 0, 66.88, -22032.05, -16709.67)" gradientUnits="userSpaceOnUse"><stop offset="0" stop-color="#b3ffe8"/><stop offset="0.02" stop-color="#b3ffe8"/><stop offset="0.21" stop-color="#83bbaa"/><stop offset="0.43" stop-color="#55796e"/><stop offset="0.62" stop-color="#30453f"/><stop offset="0.78" stop-color="#161f1d"/><stop offset="0.92" stop-color="#060808"/><stop offset="1"/></linearGradient><clipPath id="clip-path-24"><rect class="cls-1" x="31.01" y="664.79" width="80.49" height="115.42"/></clipPath><clipPath id="clip-path-25"><path class="cls-2" d="M40,664.79s-13.11,37.62,6.76,73.56,64.7,41.85,64.7,41.85S58.78,775.79,42,741.1,30.32,680.43,40,664.79"/></clipPath><radialGradient id="Dégradé_sans_nom_87" cx="-317.8" cy="240.96" r="1.85" gradientTransform="matrix(0, 27.06, 27.06, 0, -6473.12, 9335.3)" gradientUnits="userSpaceOnUse"><stop offset="0" stop-color="#97e5d9"/><stop offset="0.36" stop-color="#61938c"/><stop offset="1"/></radialGradient><clipPath id="clip-path-26"><rect class="cls-1" x="82.49" y="617.69" width="81.84" height="156.87"/></clipPath><clipPath id="clip-path-27"><path class="cls-2" d="M101,617.69l-12.32,2.67s-8.65,14.77-5.47,49,19.94,42.41,29.7,55.79,17.44,39.32,25,46.08,22.79,1,22.79,1l3.6-2.6s-13,4.8-22.59-1-14-31.29-26.21-45.24-21.64-42.24-21.81-66.36S101,617.69,101,617.69"/></clipPath><linearGradient id="Dégradé_sans_nom_11" x1="-353.43" y1="242.06" x2="-351.58" y2="242.06" gradientTransform="matrix(44.28, 0, 0, -44.28, 15731.68, 11415.76)" gradientUnits="userSpaceOnUse"><stop offset="0" stop-color="#bdffe8"/><stop offset="0.2" stop-color="#8bbcab"/><stop offset="0.41" stop-color="#5a7a6f"/><stop offset="0.61" stop-color="#33453f"/><stop offset="0.78" stop-color="#17201d"/><stop offset="0.91" stop-color="#060808"/><stop offset="1"/></linearGradient><clipPath id="clip-path-28"><rect class="cls-1" x="57.81" y="629.07" width="76.71" height="156.39"/></clipPath><clipPath id="clip-path-29"><path class="cls-2" d="M68.94,629.07,61,634.5s-7.22,24.63,0,61.63S89.09,761,101,774s28.53,11.38,28.53,11.38l5-1.16s-17.31-2.33-33.54-16.77S70,729,64,694.33s5-65.26,5-65.26"/></clipPath><linearGradient id="Dégradé_sans_nom_11-2" x1="-354.35" y1="240.92" x2="-352.51" y2="240.92" gradientTransform="matrix(41.5, 0, 0, -41.5, 14762.99, 10706.05)" xlink:href="#Dégradé_sans_nom_11"/><clipPath id="clip-path-30"><rect class="cls-1" x="132.69" y="622.66" width="50.71" height="133.74"/></clipPath><clipPath id="clip-path-31"><path class="cls-2" d="M143.78,622.66S127.3,671,134.52,708.34s31.37,47.35,43.71,48.06l5.16-6.85a49.89,49.89,0,0,1-39.75-23.5c-15-23.66-6.07-84.23,6.8-100.46Z"/></clipPath><linearGradient id="Dégradé_sans_nom_11-3" x1="-358.56" y1="232.75" x2="-356.72" y2="232.75" gradientTransform="matrix(27.43, 0, 0, -27.43, 9969.22, 7074.62)" xlink:href="#Dégradé_sans_nom_11"/><clipPath id="clip-path-32"><rect class="cls-1" x="153.03" y="726.05" width="51.19" height="53.38"/></clipPath><clipPath id="clip-path-33"><path class="cls-2" d="M194.48,726.05s17.88,22.09,5.18,40.41C185.43,787,153,777,153,777s22.32-42.45,41.45-50.91"/></clipPath><radialGradient id="Dégradé_sans_nom_86" cx="-293.65" cy="230.17" r="1.85" gradientTransform="matrix(0, 14.15, 14.15, 0, -3077.21, 4906.65)" gradientUnits="userSpaceOnUse"><stop offset="0"/><stop offset="0.77"/><stop offset="0.79" stop-color="#060106"/><stop offset="0.8" stop-color="#170416"/><stop offset="0.82" stop-color="#320a31"/><stop offset="0.84" stop-color="#581157"/><stop offset="0.86" stop-color="#891b88"/><stop offset="0.89" stop-color="#c527c2"/><stop offset="0.91" stop-color="#ff32fc"/><stop offset="0.92" stop-color="#fb33fb"/><stop offset="0.93" stop-color="#ee38f7"/><stop offset="0.94" stop-color="#d93ff0"/><stop offset="0.95" stop-color="#bc49e7"/><stop offset="0.97" stop-color="#9657db"/><stop offset="0.98" stop-color="#6767cc"/><stop offset="0.99" stop-color="#327abb"/><stop offset="1" stop-color="#008bab"/></radialGradient><clipPath id="clip-path-34"><rect class="cls-1" x="13.51" y="645.07" width="38.5" height="54.83"/></clipPath><clipPath id="clip-path-35"><path class="cls-2" d="M49.63,645.07s-25,2.77-34.09,21.57c-8.47,17.53,12.3,33.26,12.3,33.26S61,696.13,49.63,645.07"/></clipPath><radialGradient id="Dégradé_sans_nom_86-2" cx="-293.76" cy="223.99" r="1.85" gradientTransform="matrix(0, 13.45, 13.45, 0, -2973.43, 4624.7)" xlink:href="#Dégradé_sans_nom_86"/><clipPath id="clip-path-36"><rect class="cls-1" x="182.54" y="730.26" width="19.95" height="45.3"/></clipPath><clipPath id="clip-path-37"><path class="cls-2" d="M195.23,730.26c-4.53,3.53-5.71,15-7.19,29.18s-5.5,16.12-5.5,16.12,16.7-4.5,19.45-18.24-6.76-27.06-6.76-27.06"/></clipPath><linearGradient id="Dégradé_sans_nom_83" x1="-309.62" y1="266.92" x2="-307.77" y2="266.92" gradientTransform="matrix(-22.51, 0, 0, 22.51, -6758.65, -5255.57)" gradientUnits="userSpaceOnUse"><stop offset="0" stop-color="#54ffe8"/><stop offset="0.02" stop-color="#54ffe8"/><stop offset="0.21" stop-color="#3ebbaa"/><stop offset="0.43" stop-color="#28796e"/><stop offset="0.62" stop-color="#17453f"/><stop offset="0.78" stop-color="#0a1f1d"/><stop offset="0.92" stop-color="#030808"/><stop offset="1"/></linearGradient><clipPath id="clip-path-38"><rect class="cls-1" x="29.56" y="646.63" width="20.96" height="51.08"/></clipPath><clipPath id="clip-path-39"><path class="cls-2" d="M47.89,646.63s-15.22,2.25-18,8.38S41.23,664.79,41.54,680c.18,8.47-9.72,17.76-9.72,17.76s27.06-9.1,16.07-51.08"/></clipPath><linearGradient id="Dégradé_sans_nom_83-2" x1="-313.53" y1="262.81" x2="-311.68" y2="262.81" gradientTransform="matrix(-26.04, 0, 0, 26.04, -8100.44, -6172.31)" xlink:href="#Dégradé_sans_nom_83"/><clipPath id="clip-path-40"><rect class="cls-1" x="129.14" y="775.56" width="25.32" height="18.83"/></clipPath><clipPath id="clip-path-41"><path class="cls-2" d="M152,775.66s6.32,10.76-1.14,16.31c-10.59,7.89-21.68-6-21.68-6A24.89,24.89,0,0,1,152,775.66"/></clipPath><radialGradient id="Dégradé_sans_nom_86-3" cx="-226.76" cy="171.91" r="1.85" gradientTransform="matrix(0, 5.32, 6.38, 0, -954.04, 1992.74)" xlink:href="#Dégradé_sans_nom_86"/><clipPath id="clip-path-42"><rect class="cls-1" x="141.32" y="775.73" width="11.71" height="17.04"/></clipPath><clipPath id="clip-path-43"><path class="cls-2" d="M151.89,776.62c-1.27-4.26-3.8,8-5.92,12.26s-4.65,3.8-4.65,3.8,16.07,2.33,10.57-16.06"/></clipPath><linearGradient id="Dégradé_sans_nom_83-3" x1="-267.18" y1="277.3" x2="-265.33" y2="277.3" gradientTransform="matrix(-10.4, 0, 0, 10.4, -2623.01, -2101.14)" xlink:href="#Dégradé_sans_nom_83"/><clipPath id="clip-path-44"><rect class="cls-1" x="193.58" y="711.89" width="8.89" height="13.93"/></clipPath><clipPath id="clip-path-45"><path class="cls-2" d="M197.08,711.89s5.34,3,5.39,7.35c.07,6.21-8.29,6.58-8.29,6.58s-2.55-6.6,2.9-13.93"/></clipPath><radialGradient id="Dégradé_sans_nom_85" cx="-367.14" cy="20.95" r="1.85" gradientTransform="matrix(0, 2.77, 3.32, 0, 127.34, 1737.35)" gradientUnits="userSpaceOnUse"><stop offset="0"/><stop offset="0.42"/><stop offset="0.49" stop-color="#000506"/><stop offset="0.59" stop-color="#001216"/><stop offset="0.69" stop-color="#002932"/><stop offset="0.8" stop-color="#004858"/><stop offset="0.92" stop-color="#006f88"/><stop offset="1" stop-color="#008bab"/></radialGradient><clipPath id="clip-path-46"><rect class="cls-1" x="198.03" y="713.7" width="4" height="9.2"/></clipPath><clipPath id="clip-path-47"><path class="cls-2" d="M198.6,713.88c-1.69-1.23.87,4.08,1.29,6.27s-.64,2.75-.64,2.75,6.66-3.73-.65-9"/></clipPath><linearGradient id="Dégradé_sans_nom_83-4" x1="-195.31" y1="196.03" x2="-193.46" y2="196.03" gradientTransform="matrix(-4.89, 0, 0, 4.89, -750.22, -241.12)" xlink:href="#Dégradé_sans_nom_83"/><clipPath id="clip-path-48"><rect class="cls-1" x="175.07" y="607.59" width="40.25" height="40.25"/></clipPath><clipPath id="clip-path-49"><path class="cls-2" d="M195.2,647.84a20.13,20.13,0,1,1,20.12-20.12,20.12,20.12,0,0,1-20.12,20.12"/></clipPath><radialGradient id="Dégradé_sans_nom_84" cx="-287.91" cy="225.01" r="1.85" gradientTransform="matrix(0, 11.65, 11.65, 0, -2423.94, 3979.2)" gradientUnits="userSpaceOnUse"><stop offset="0"/><stop offset="0.77"/><stop offset="0.79" stop-color="#000506"/><stop offset="0.8" stop-color="#001216"/><stop offset="0.82" stop-color="#002932"/><stop offset="0.84" stop-color="#004858"/><stop offset="0.86" stop-color="#006f88"/><stop offset="0.87" stop-color="#008bab"/><stop offset="0.98" stop-color="#ff32fc"/><stop offset="1" stop-color="#ff32fc"/></radialGradient><clipPath id="clip-path-50"><rect class="cls-1" x="192.81" y="608.95" width="21.47" height="34.43"/></clipPath><clipPath id="clip-path-51"><path class="cls-2" d="M194.88,609.09s-5.76,3.4,1.92,14.06,11.8,15.59,9.79,20.24c0,0,11.94-10.25,6-23.51-5.76-13-17.76-10.79-17.76-10.79"/></clipPath><linearGradient id="Dégradé_sans_nom_83-5" x1="-309.24" y1="237.37" x2="-307.39" y2="237.37" gradientTransform="matrix(0, 18.63, 18.63, 0, -4218.2, 6369.8)" xlink:href="#Dégradé_sans_nom_83"/><clipPath id="clip-path-52"><rect class="cls-1" x="10.27" y="733.99" width="18.74" height="18.74"/></clipPath><clipPath id="clip-path-53"><path class="cls-2" d="M19.64,752.73A9.37,9.37,0,1,1,29,743.36a9.36,9.36,0,0,1-9.37,9.37"/></clipPath><radialGradient id="Dégradé_sans_nom_84-2" cx="-214.02" cy="172.8" r="1.85" gradientTransform="matrix(0, 5.42, 5.42, 0, -916.83, 1903.27)" xlink:href="#Dégradé_sans_nom_84"/><clipPath id="clip-path-54"><rect class="cls-1" x="18.53" y="734.62" width="10" height="16.04"/></clipPath><clipPath id="clip-path-55"><path class="cls-2" d="M19.49,734.69s-2.68,1.58.9,6.55,5.49,7.25,4.56,9.42c0,0,5.55-4.77,2.81-10.95s-8.27-5-8.27-5"/></clipPath><linearGradient id="Dégradé_sans_nom_83-6" x1="-263.06" y1="204.74" x2="-261.21" y2="204.74" gradientTransform="matrix(0, 8.68, 8.68, 0, -1752.62, 3016.85)" xlink:href="#Dégradé_sans_nom_83"/><clipPath id="clip-path-57"><rect class="cls-1" x="267.79" y="53.17" width="146.97" height="145.23"/></clipPath><clipPath id="clip-path-59"><path class="cls-1" d="M293.28,128.35a48.9,48.9,0,1,0,48.9-48.9,48.9,48.9,0,0,0-48.9,48.9"/></clipPath><radialGradient id="Dégradé_sans_nom_91" cx="-334.89" cy="258.49" r="1.12" gradientTransform="matrix(69.94, 0, 0, -69.94, 23734.71, 18184.86)" gradientUnits="userSpaceOnUse"><stop offset="0" stop-color="#ffffe2"/><stop offset="0.01" stop-color="#ffffe2"/><stop offset="0.27" stop-color="#fffde3"/><stop offset="0.4" stop-color="#fef5e6"/><stop offset="0.5" stop-color="#fce8eb"/><stop offset="0.58" stop-color="#f9d5f2"/><stop offset="0.66" stop-color="#f6bdfc"/><stop offset="0.71" stop-color="#efb7fc"/><stop offset="0.79" stop-color="#dca7fd"/><stop offset="0.88" stop-color="#bc8bfe"/><stop offset="0.98" stop-color="#9066ff"/><stop offset="0.98" stop-color="#8c63ff"/><stop offset="1" stop-color="#8c63ff"/></radialGradient><clipPath id="clip-path-60"><path class="cls-1" d="M321.81,53.17c0,.07,1.51,4.48-11.17,13.22s-22.07,20.89-20.37,30.83-.44,23,0,36.79c.36,11.23,4.85,27.89,17.23,34.5s19.85,10.48,36.32,9.65,28.72-11.49,28.72-11.49,14.8-7,21.3-30.12-.38-29.9-5.08-36.73c-6.82-9.92-18.07-16.33-27.44-18.64-8.09-2-16-6.16-30.78-3-11.62,2.45-12.6,4.81-17.69,1.3s-1.63-8.9,5.64-15S321.88,53.25,321.81,53.17Z"/></clipPath><radialGradient id="Dégradé_sans_nom_91-2" cx="-336.22" cy="258.37" r="1.12" gradientTransform="matrix(82.41, 0, 0, -82.41, 28018.19, 21378.15)" xlink:href="#Dégradé_sans_nom_91"/><clipPath id="clip-path-62"><rect class="cls-1" x="297.77" y="61.96" width="20.53" height="35.84"/></clipPath><clipPath id="clip-path-63"><path class="cls-2" d="M318.3,62c-.76.78-3.53,3.63-6.23,5.88-.52.44-1,.85-1.52,1.22-3.54,2.66-5.73,4.49-7.21,8.17s-4.52,6.43-3.66,12.67,0,7.9,0,7.9h-1.19c-1.29-3.65-.64-8.72.33-14.14C300.54,74.11,307.05,69,315,64.43A16.66,16.66,0,0,0,318.3,62"/></clipPath><linearGradient id="Dégradé_sans_nom_51" x1="-327.97" y1="247.9" x2="-326.85" y2="247.9" gradientTransform="matrix(33.54, 0, 0, -33.54, 11290.72, 8395.36)" gradientUnits="userSpaceOnUse"><stop offset="0" stop-color="#b8c2ff"/><stop offset="1" stop-color="#a94ab3"/></linearGradient><clipPath id="clip-path-64"><rect class="cls-1" x="321.61" y="53.17" width="0.25" height="3.02"/></clipPath><clipPath id="clip-path-65"><path class="cls-2" d="M321.61,56.18a17.56,17.56,0,0,0,.21-3,8.59,8.59,0,0,1-.21,3"/></clipPath><linearGradient id="Dégradé_sans_nom_51-2" x1="2381.64" y1="587.9" x2="2382.76" y2="587.9" gradientTransform="matrix(0.23, 0, 0, -0.23, -217.92, 187.86)" xlink:href="#Dégradé_sans_nom_51"/><clipPath id="clip-path-66"><rect class="cls-1" x="297.77" y="56.18" width="91.94" height="110.47"/></clipPath><clipPath id="clip-path-67"><path class="cls-2" d="M388.14,135.82c-2.89,17.11-9.47,25.43-13.09,28.84a13.83,13.83,0,0,1-2.51,2,41.58,41.58,0,0,0,5.79-14.29,1.32,1.32,0,0,0,0-.18,41.73,41.73,0,0,0-.32-17.77c-4.3-18.43-11.88-25.9-28.41-30.67-10.87-3.14-34.9,1.1-44.08-.49a10.5,10.5,0,0,1-4.25-1.63,7.67,7.67,0,0,1-2.82-3.82c-1.29-3.65-.64-8.72.33-14.14C300.54,74.11,307.05,69,315,64.43A16.66,16.66,0,0,0,318.3,62a2,2,0,0,1,.19-.2,11.58,11.58,0,0,0,3.12-5.58c-1,6.52-5.42,8.58-9.54,11.66-.52.39-1,.79-1.52,1.22a16,16,0,0,0-1.35,1.27l0,0A13.79,13.79,0,0,0,307.8,72c-.11.13-.2.27-.3.41-5,7.35-6.76,16.59,1.73,16.77,19.09.42,30.86-12.48,45.19-4.22s15.42,6.43,24.47,12.29,13.36,14.34,9.25,38.59"/></clipPath><linearGradient id="Dégradé_sans_nom_101" x1="-336.19" y1="258.34" x2="-335.07" y2="258.34" gradientTransform="matrix(81.87, 0, 0, -81.87, 27820.22, 21260.43)" gradientUnits="userSpaceOnUse"><stop offset="0" stop-color="#b8c2ff"/><stop offset="1" stop-color="#8931b3"/></linearGradient><clipPath id="clip-path-68"><rect class="cls-1" x="294.14" y="66.41" width="77.6" height="105.18"/></clipPath><clipPath id="clip-path-69"><path class="cls-2" d="M371.42,167.57l-2.42,1.6-3.54,2.32c-6,.77-12.39-3.23-18.76-4.82S330,163,323.19,152.17s-6.12-22.59-11.14-27.37-9.18-6.49-13.43-14.88-6-18.18-2.86-27.24A21.52,21.52,0,0,1,298.92,77a49,49,0,0,1,11.69-10.56c-.57.47-9.74,8.09-12,11.74s-2.12,14.32,0,20.57,2,10.53,19.05,14,25.83-2.58,41.51,14,12.23,40.93,12.23,40.93"/></clipPath><linearGradient id="Dégradé_sans_nom_100" x1="-334.81" y1="258.48" x2="-333.69" y2="258.48" gradientTransform="matrix(69.1, 0, 0, -69.1, 23428.43, 17979.28)" gradientUnits="userSpaceOnUse"><stop offset="0" stop-color="#b8c2ff"/><stop offset="1" stop-color="#5f4ab3"/></linearGradient><clipPath id="clip-path-70"><rect class="cls-1" x="290.26" y="92.48" width="0.01" height="1.19"/></clipPath><clipPath id="clip-path-71"><path class="cls-2" d="M290.27,93.67c0-.42,0-.82,0-1.19,0,.21,0,.6,0,1.19"/></clipPath><linearGradient id="Dégradé_sans_nom_51-3" x1="45950.31" y1="5584.08" x2="45951.43" y2="5584.08" gradientTransform="matrix(0.01, 0, 0, -0.01, -319.14, 167.13)" xlink:href="#Dégradé_sans_nom_51"/><clipPath id="clip-path-72"><rect class="cls-1" x="290.26" y="92.31" height="0.17"/></clipPath><clipPath id="clip-path-73"><path class="cls-2" d="M290.26,92.31v0"/></clipPath><linearGradient id="Dégradé_sans_nom_51-4" x1="290.26" y1="92.4" x2="290.26" y2="92.4" gradientTransform="matrix(0, 0, 0, 0, -323.21, 163.47)" xlink:href="#Dégradé_sans_nom_51"/><clipPath id="clip-path-74"><rect class="cls-1" x="290.28" y="94.05" width="71.04" height="82.46"/></clipPath><clipPath id="clip-path-75"><path class="cls-2" d="M361.32,173.63a23.5,23.5,0,0,1-8.66,2.5c-8.85,1.08-20.64-.26-28.7-2.4-11.24-3-23.95-11-28.58-24.93s1.12-23.76-2.1-35c-.58-2.06-1.06-4.08-1.44-6a84.91,84.91,0,0,1-1.56-13.71,70.45,70.45,0,0,0,7,24.93c4.4,8.38,6,12.86,8.08,25.42,1.71,10.34,2.27,16.52,18.13,25.95,10.91,6.49,37.88,3.28,37.88,3.28"/></clipPath><linearGradient id="Dégradé_sans_nom_51-5" x1="-333.99" y1="258.54" x2="-332.87" y2="258.54" gradientTransform="matrix(63.25, 0, 0, -63.25, 21417, 16489.38)" xlink:href="#Dégradé_sans_nom_51"/><clipPath id="clip-path-76"><rect class="cls-1" x="295.36" y="66.41" width="76.38" height="102.75"/></clipPath><clipPath id="clip-path-77"><path class="cls-2" d="M371.42,167.57l-2.42,1.6-.09-.08c-1.05-.9-6.24-5.58-13.77-16.37-8.44-12.12-7.33-11.75-18.72-20.21s-18.62-12.22-28.66-18.37c-.24-.14-.48-.3-.72-.45a2.07,2.07,0,0,0-.24-.17c-7.88-5.24-10.81-12.78-11.34-20.62a40.21,40.21,0,0,1-.08-4.11c.11-4,1.71-8.24,3.54-11.82a49,49,0,0,1,11.69-10.56c-.57.47-9.74,8.09-12,11.74-1.3,2.1-1.8,6.34-1.63,10.76V89a36.37,36.37,0,0,0,1.64,9.69c2.12,6.24,2,10.53,19.05,14s25.83-2.58,41.51,14,12.23,40.93,12.23,40.93"/></clipPath><linearGradient id="Dégradé_sans_nom_51-6" x1="-334.67" y1="258.5" x2="-333.54" y2="258.5" gradientTransform="matrix(68.01, 0, 0, -68.01, 23056.14, 17698.47)" xlink:href="#Dégradé_sans_nom_51"/><clipPath id="clip-path-78"><rect class="cls-1" x="290.4" y="78.15" width="75.06" height="95.6"/></clipPath><clipPath id="clip-path-79"><path class="cls-2" d="M298.62,78.15s-8.2,7.79-8.22,17.3S300.66,119,305.74,127c5.2,8.16,4.18,24.53,10.09,32.19s10.05,9.43,23.52,12.37,22,2.07,22,2.07l4.14-2.14a58.85,58.85,0,0,1-11-4.82c-5.52-3.18-13.6-5.14-22.9-10.77s-9.89-13.13-15.36-24-17.7-16.47-20.8-30.54-1.1-17.56,3.26-23.26"/></clipPath><linearGradient id="Dégradé_sans_nom_51-7" x1="-334.52" y1="258.5" x2="-333.39" y2="258.5" gradientTransform="matrix(66.84, 0, 0, -66.84, 22649.24, 17404.19)" xlink:href="#Dégradé_sans_nom_51"/><clipPath id="clip-path-80"><path class="cls-1" d="M296.71,83.35a50.31,50.31,0,0,0,0,11.88A26.23,26.23,0,0,0,303,108c3.55,3.61,13.28,5.27,19.1,6.37a37.54,37.54,0,0,0,7.33.32c4.33-.07,8.89-.14,12.44,1.88,5.7,3.25,13.41,3.92,17.82,9.92s6.15,7.1,8.23,13.59,1.69,8.33,3.22,12,.29,15.53.29,15.53l1.12-.9s3.06-12.68-.8-19.46-3.73-8.82-4.65-11.94-5-12.67-12.67-15.43-9-7.53-16.9-8.27-23,0-30.22-2.2-5.36-7.27-7.62-11.57a21,21,0,0,1-1.91-13.9c1-4.22,5.57-11,5.57-11s-6.06,5.34-6.63,10.48"/></clipPath><linearGradient id="Dégradé_sans_nom_99" x1="-348.4" y1="253.3" x2="-347.27" y2="253.3" gradientTransform="matrix(0, -99.47, -99.47, 0, 25531.41, -34477.61)" gradientUnits="userSpaceOnUse"><stop offset="0" stop-color="#d894ff"/><stop offset="0.01" stop-color="#d894ff"/><stop offset="0.01" stop-color="#d894ff"/><stop offset="0.12" stop-color="#e4b5ff"/><stop offset="0.25" stop-color="#eed0ff"/><stop offset="0.39" stop-color="#f5e5ff"/><stop offset="0.54" stop-color="#fbf4ff"/><stop offset="0.72" stop-color="#fefcff"/><stop offset="1" stop-color="#fff"/></linearGradient><clipPath id="clip-path-81"><path class="cls-1" d="M294.72,98.26a27.3,27.3,0,0,0,3,9.75s5,8.58,7.63,11a81.08,81.08,0,0,1,7.17,7.36c2.14,2.52,3.66,5.6,5.18,10.81a51.44,51.44,0,0,0,7.59,15.07c2.57,3.18,6.37,5.26,14,7.78a65.65,65.65,0,0,1,17.07,8.75c3.31,2.32,9.09,2.73,9.09,2.73-3.19-.91-9.45-3.59-12.27-6.53s-6.74-3.31-9.49-4.16-3.37-1.72-5.57-3.19-5.76-1.53-9.06-4a20.19,20.19,0,0,1-8.21-12.19c-1.27-6-3.67-11.63-5.63-13.71s-7.49-6.47-9.31-9.95-4.65-6.46-8.69-13.32a24.3,24.3,0,0,1-2.78-8.61q.12,1.17.27,2.4m-.27-2.4a73.09,73.09,0,0,1-.34-8.75,42.29,42.29,0,0,0,.34,8.75"/></clipPath><linearGradient id="Dégradé_sans_nom_98" x1="-342.87" y1="249.27" x2="-341.75" y2="249.27" gradientTransform="matrix(0, -75.14, -75.14, 0, 19060.14, -25592.28)" gradientUnits="userSpaceOnUse"><stop offset="0" stop-color="#bb6dff"/><stop offset="0.01" stop-color="#bb6dff"/><stop offset="0.11" stop-color="#cd94ff"/><stop offset="0.21" stop-color="#dcb5ff"/><stop offset="0.32" stop-color="#e9d0ff"/><stop offset="0.45" stop-color="#f3e5ff"/><stop offset="0.58" stop-color="#faf4ff"/><stop offset="0.75" stop-color="#fefcff"/><stop offset="1" stop-color="#fff"/></linearGradient><clipPath id="clip-path-83"><rect class="cls-1" x="296.66" y="105.45" width="59.94" height="62.11"/></clipPath><clipPath id="clip-path-84"><path class="cls-2" d="M296.66,105.45a57.73,57.73,0,0,0,14.22,12.34c9.19,5.72,13.15,6.83,17.05,18s4.26,12.49,11.79,18,16.87,13.75,16.87,13.75-17.44-7.88-23.65-10.83-10.67-6-14-18.53-15.92-24.53-22.31-32.76"/></clipPath><linearGradient id="Dégradé_sans_nom_11-4" x1="-303.9" y1="232.66" x2="-302.77" y2="232.66" gradientTransform="matrix(13.22, 0, 0, -13.22, 4335.06, 3213.21)" xlink:href="#Dégradé_sans_nom_11"/><clipPath id="clip-path-85"><rect class="cls-1" x="295.46" y="92.9" width="73.54" height="76.26"/></clipPath><clipPath id="clip-path-86"><path class="cls-2" d="M369,169.17l-.09-.08c-1.05-.9-7-3.46-14.49-14.26-8.44-12.12-12.25-9.87-23.64-18.32s-13-16.22-23-22.37c-.24-.14-.48-.3-.72-.45a2.07,2.07,0,0,0-.24-.17c-7.88-5.24-10.81-12.78-11.34-20.62.3,1.78,1.31,7.2,2.9,10.47,1.93,4,6.71,8.94,11.12,10.77s12.11,3.92,14.57,6.13,5.3,6,9.51,8.57,10.21,1.86,16.32,5.57,3.9,9,6.71,13.16,1,.49,3.09,4.66,1.72,2.7,3.67,6.61S369,169.17,369,169.17"/></clipPath><linearGradient id="Dégradé_sans_nom_94" x1="-342.78" y1="248.39" x2="-341.66" y2="248.39" gradientTransform="matrix(0, -67.91, -67.91, 0, 17199.8, -23108.3)" gradientUnits="userSpaceOnUse"><stop offset="0" stop-color="#a94ab3"/><stop offset="1" stop-color="#fff"/></linearGradient><clipPath id="clip-path-87"><rect class="cls-1" x="301.39" y="103.57" width="73.86" height="51.26"/></clipPath><clipPath id="clip-path-88"><path class="cls-2" d="M301.39,103.57s4.63,4.88,18.58,3.5S340.78,106,348,108s17.3,8.07,19.42,11.84,5,5.78,6.23,11.75.93,11,1.48,13.14-2.11,10.1-2.11,10.1-3.95-18.46-13-27.64-14.7-12.86-28.66-14.24-26.7,1.44-30-9.38"/></clipPath><linearGradient id="Dégradé_sans_nom_97" x1="-329.91" y1="248.88" x2="-328.78" y2="248.88" gradientTransform="matrix(38.24, 0, 0, -38.24, 12939.26, 9646.11)" gradientUnits="userSpaceOnUse"><stop offset="0" stop-color="#fff"/><stop offset="0.2" stop-color="#bbb"/><stop offset="0.42" stop-color="#797979"/><stop offset="0.61" stop-color="#454545"/><stop offset="0.78" stop-color="#1f1f1f"/><stop offset="0.91" stop-color="#080808"/><stop offset="1"/></linearGradient><clipPath id="clip-path-89"><rect class="cls-1" x="300.99" y="71.97" width="88.72" height="92.87"/></clipPath><clipPath id="clip-path-90"><path class="cls-2" d="M388.14,135.82c-2.89,17.11-9.47,25.43-13.09,28.84l-.43.18,5.63-8.94s1.59-5.39,2.81-10.41,2-4.17,4.66-11.08.36-11.08-.73-15.41-2.33-6.08-6.13-8-6.48-2.69-11.86-9.43-6.51-7.35-11.89-12.74-8.82-4.52-13.84-3.85-16.64,4.6-22.83,8c-4.9,2.66-11.7,4.84-15.15,1.28s-5.12-6-3.91-11.26c.87-3.72,4.42-8.48,6.42-10.94-.11.13-.2.27-.3.41-5,7.35-6.76,16.59,1.73,16.77,19.09.42,30.86-12.48,45.19-4.22s15.42,6.43,24.47,12.29,13.36,14.34,9.25,38.59"/></clipPath><linearGradient id="Dégradé_sans_nom_51-8" x1="-333.43" y1="251.07" x2="-332.31" y2="251.07" gradientTransform="matrix(51.48, 0, 0, -51.48, 17493.12, 13042.97)" xlink:href="#Dégradé_sans_nom_51"/><clipPath id="clip-path-91"><rect class="cls-1" x="301.31" y="98.58" width="78.3" height="53.6"/></clipPath><clipPath id="clip-path-92"><path class="cls-2" d="M378.37,152.18c1-5-.34-9.81-1.91-16.54a41.68,41.68,0,0,0-37.81-32.07c-11.3-.65-23.44,2.61-32.62,1-1.76-.3-3.62-2.21-4.72-3a.77.77,0,0,1,0-.15,37.38,37.38,0,0,0,16.47-.06c8.94-2.08,11.93-3.2,15.75-2.72,6.91.88,17.31,2.55,21.24,3.43s8.61,3.21,10.67,6,2.31,3.8,6.28,6.87,6.8,11.38,7.65,20.44a57.48,57.48,0,0,1-1,16.73"/></clipPath><linearGradient id="Dégradé_sans_nom_96" x1="-331.24" y1="249.76" x2="-330.11" y2="249.76" gradientTransform="matrix(42.34, 0, 0, -42.34, 14348.4, 10699.61)" gradientUnits="userSpaceOnUse"><stop offset="0" stop-color="#fff"/><stop offset="1" stop-color="#a94ab3"/></linearGradient><clipPath id="clip-path-93"><path class="cls-1" d="M337.24,82.09c-3,1.56-17.27,6.8-24.69,7s-9.2-4.69-9.2-4.69c-.2,3.3,2.67,4.94,5.61,6s10.64-.21,16.52-2.3,15-5.6,21.4-5.14a29.17,29.17,0,0,1,15.42,6.26c3.95,2.94,5.43,4.67,12.75,6.87s11.52,9,13,15.37.73,20.13-1.21,25.09-2.71,5.57-5.08,14a47.7,47.7,0,0,1-6.73,14.2c1.53-1,8.51-9,9.83-12.48s1.18-7.27,2.18-11,2.62-6.21,4-9.39,1.91-9.68,1.54-14-3.31-14-8.73-18.52S373,93.89,369,92.13s-6.32-4.8-9-6.45-10.36-2.78-12.77-3.59a18.67,18.67,0,0,0-5.58-.91,9.83,9.83,0,0,0-4.43.91"/></clipPath><linearGradient id="Dégradé_sans_nom_95" x1="-338.54" y1="261.53" x2="-337.41" y2="261.53" gradientTransform="matrix(0, 93.7, 93.7, 0, -24157.8, 31785.89)" gradientUnits="userSpaceOnUse"><stop offset="0" stop-color="#fff"/><stop offset="0.28" stop-color="#fefcff"/><stop offset="0.46" stop-color="#fbf4ff"/><stop offset="0.61" stop-color="#f5e5ff"/><stop offset="0.75" stop-color="#eed0ff"/><stop offset="0.88" stop-color="#e4b5ff"/><stop offset="0.99" stop-color="#d894ff"/><stop offset="0.99" stop-color="#d894ff"/><stop offset="1" stop-color="#d894ff"/></linearGradient><clipPath id="clip-path-95"><rect class="cls-1" x="306.03" y="62.91" width="90.79" height="99.76"/></clipPath><clipPath id="clip-path-96"><path class="cls-2" d="M378.22,162.68s7.54-4.6,10.54-18.78,7.72-20.57,6.06-29.2-4.27-12.49-9.55-16.9S377.52,93.21,369,89s-26-11.37-35.45-7.8-17,7.67-23.58,4.5-3.68-10.81,0-13.7,10.11-9.07,10.11-9.07-10.48,8-11.77,12.71.19,7.48,5.33,8.4,19.51-8.07,28.54-6.79,19.58,8.45,28.76,10.65,11.3,3.31,17.8,9.92,9.35,16.85,7.54,26.12-4.9,28.88-18.06,38.76"/></clipPath><linearGradient id="Dégradé_sans_nom_51-9" x1="-336.08" y1="258.35" x2="-334.96" y2="258.35" gradientTransform="matrix(80.84, 0, 0, -80.84, 27476.2, 20998.4)" xlink:href="#Dégradé_sans_nom_51"/><clipPath id="clip-path-97"><rect class="cls-1" x="300.84" y="118.41" width="45.24" height="54.31"/></clipPath><clipPath id="clip-path-98"><path class="cls-2" d="M346.09,172.67a101.17,101.17,0,0,1-14.45-5.1c-6.74-3.1-10.29-4.69-11.76-9.22s.13-2.57-3.18-8.08-1.84-5.39-3.67-11.15-1.84-7.77-3.19-9.82-5.38-7.71-5.38-7.71l-3.61-3.18a139.37,139.37,0,0,1,7.65,16.8c3.06,8.44,2.61,15.21,5,20.45s8.56,10.28,16.22,14,16.35,3.06,16.35,3.06"/></clipPath><linearGradient id="Dégradé_sans_nom_94-2" x1="-342.42" y1="244.73" x2="-341.3" y2="244.73" gradientTransform="matrix(0, -48.36, -48.36, 0, 12157.67, -16385.51)" xlink:href="#Dégradé_sans_nom_94"/><clipPath id="clip-path-99"><path class="cls-1" d="M355.51,173.71c3.48.07,5.81-.08,5.81-.08l-5.81.08M299.22,117c1.77,2.9,6.1,9.39,6.81,13.48s3.45,7.44,3.81,13.72,2.08,10.53,5.51,15.91,10.47,7.6,14.39,9.55,11.78,4.08,15.61,4.14c2.48,0,6.69,0,10.16,0a66.29,66.29,0,0,1-16.16-2.15c-10-2.87-20.24-7.53-24-13.82s-3.43-10.53-3.79-14.09-3.19-10-4.6-14.35-1.89-6.09-4.71-9.16S294,107.75,294,107.75s3.44,6.31,5.2,9.2"/></clipPath><linearGradient id="Dégradé_sans_nom_93" x1="-354.08" y1="256.41" x2="-352.95" y2="256.41" gradientTransform="matrix(-59.93, 0, 0, 59.93, -20857.8, -15225.36)" gradientUnits="userSpaceOnUse"><stop offset="0" stop-color="#a636ff"/><stop offset="0.01" stop-color="#a636ff"/><stop offset="0.43" stop-color="#cf92ff"/><stop offset="0.82" stop-color="#f1e0ff"/><stop offset="1" stop-color="#fff"/></linearGradient><clipPath id="clip-path-101"><rect class="cls-1" x="291.84" y="107.75" width="60.82" height="68.76"/></clipPath><clipPath id="clip-path-102"><path class="cls-2" d="M352.66,176.12h0c-8.85,1.08-20.64-.26-28.7-2.4-11.24-3-23.95-11-28.58-24.93s1.12-23.76-2.1-35c-.58-2.06-1.06-4.08-1.44-6l3.25,7.38a52.81,52.81,0,0,1,1.57,7.78c.28,3.26,1.06,5.92,1.11,10.08s-1,4.25-1.11,10.65c-.07,4.54,2.37,7.6,5.32,11.64s2.35,6.49,7.45,9.37,10.82,6.79,20.31,9.11,22.92,2.35,22.92,2.35"/></clipPath><linearGradient id="Dégradé_sans_nom_94-3" x1="-342.7" y1="247.42" x2="-341.57" y2="247.42" gradientTransform="matrix(0, -61.22, -61.22, 0, 15469.99, -20804.74)" xlink:href="#Dégradé_sans_nom_94"/><clipPath id="clip-path-103"><path class="cls-1" d="M341.43,177.15a42.43,42.43,0,0,0,6.39-.4,76.27,76.27,0,0,1-12.07-.73,24.26,24.26,0,0,0,5.68,1.13m6.39-.4a26.56,26.56,0,0,0,7.56-1.06s-3.77.62-7.56,1.06m-14.53-1.17c.58.14,1.43.29,2.46.44-.49-.12-1.05-.23-1.73-.33l-.73-.11h0m-39.54-59.86c.66,2.61-.25,9-.41,10.23s-.52,5.58-.64,8.52a55.58,55.58,0,0,0,.58,8.76c.34,2.87,3.83,11.08,4.49,12.73a48.51,48.51,0,0,0,3.22,5.39,21.12,21.12,0,0,0,6.77,5.88c2.88,1.59,12.43,5.48,12.43,5.48s.43.58,2.82,1.44c2.21.79,7.05,1,10.28,1.43-3.42-.8-18.8-2.87-29.12-12.9-10-9.71-10.67-25.64-10.66-27.4a24,24,0,0,1,1.21-7.73c1-2.45.43-5.26.64-7.83s-3-9.56-3-9.56l1.4,5.56"/></clipPath><linearGradient id="Dégradé_sans_nom_93-2" x1="-354.77" y1="256.34" x2="-353.64" y2="256.34" gradientTransform="matrix(-56.12, 0, 0, 56.12, -19555.38, -14243.04)" xlink:href="#Dégradé_sans_nom_93"/><clipPath id="clip-path-106"><rect class="cls-1" x="267.79" y="85.02" width="135.89" height="78.98"/></clipPath><clipPath id="clip-path-107"><path class="cls-1" d="M284.1,164c-7.91,0-13.42-1.89-15.42-5.88-3.64-7.27,4-19,21-32.26l.3.38c-16.56,12.88-24.38,24.72-20.91,31.66,5.61,11.21,40.08,5.35,76.83-13.05s62.11-42.47,56.51-53.67c-2.74-5.46-12.38-7.05-27.17-4.49l-.08-.47c15-2.61,24.84-.93,27.68,4.74,5.72,11.44-19.72,35.81-56.72,54.33C322.05,157.35,298.89,164,284.1,164"/></clipPath><linearGradient id="Dégradé_sans_nom_92" x1="-338.81" y1="257.53" x2="-337.69" y2="257.53" gradientTransform="matrix(125.77, 0, 0, -125.77, 42876.97, 32515)" gradientUnits="userSpaceOnUse"><stop offset="0" stop-color="#e2f9ff"/><stop offset="1" stop-color="#fff"/></linearGradient><clipPath id="clip-path-108"><path class="cls-1" d="M269.33,161a11.73,11.73,0,1,0,11.72-11.73A11.72,11.72,0,0,0,269.33,161"/></clipPath><radialGradient id="Dégradé_sans_nom_91-3" cx="-307.21" cy="261.3" r="1.12" gradientTransform="matrix(16.78, 0, 0, -16.78, 5427.25, 4538.89)" xlink:href="#Dégradé_sans_nom_91"/><clipPath id="clip-path-109"><rect class="cls-1" x="268.56" y="605.29" width="124.29" height="61.65"/></clipPath><clipPath id="clip-path-111"><path class="cls-1" d="M324.57,607.26c-18.69,5.12-31.05,19.43-29.42,25.38s17,2.65,35.7-2.47S364.71,621,363.08,615c-1.24-4.5-11.91-9.56-25.12-9.56a50.89,50.89,0,0,0-13.39,1.78"/></clipPath><radialGradient id="Dégradé_sans_nom_68" cx="-325.29" cy="236.24" r="1" gradientTransform="matrix(26.19, 0, 0, -26.19, 8847.84, 6805.56)" gradientUnits="userSpaceOnUse"><stop offset="0" stop-color="#d0cdea"/><stop offset="1" stop-color="#7d75da"/></radialGradient><clipPath id="clip-path-112"><rect class="cls-1" x="268.56" y="605.29" width="124.29" height="61.65"/></clipPath><clipPath id="clip-path-113"><rect class="cls-1" x="293.23" y="605.29" width="71.73" height="28.46"/></clipPath><clipPath id="clip-path-114"><path class="cls-1" d="M325.91,612.85c-33,9.06-57.28,26.46-57.35,33.31v.06a2.06,2.06,0,0,0,.09.62,2.94,2.94,0,0,0,2.12,1.88c7.36,2.53,32.25-3.58,61.77-11.67,34.2-9.38,62-16.87,60.23-23.16a2.39,2.39,0,0,0-.25-.6c-1.95-3.35-12.35-5.95-27-5.95a152.67,152.67,0,0,0-39.62,5.51"/></clipPath><radialGradient id="Dégradé_sans_nom_66" cx="-333.28" cy="245.47" r="1" gradientTransform="matrix(46.26, 0, 0, -46.26, 15748.76, 11980.4)" gradientUnits="userSpaceOnUse"><stop offset="0" stop-color="#fafafd"/><stop offset="1" stop-color="#c3bfee"/></radialGradient><clipPath id="clip-path-116"><rect class="cls-1" x="268.56" y="607.34" width="123.96" height="41.38"/></clipPath><clipPath id="clip-path-117"><path class="cls-1" d="M327.75,619.56c-34.2,9.38-60.45,22.35-59,27.59s30.32,1.88,64.53-7.5S394,618.43,392.58,613.2c-.51-1.85-4.48-2.77-10.93-2.77-11.78,0-31.8,3.07-53.9,9.13"/></clipPath><radialGradient id="Dégradé_sans_nom_68-2" cx="-332.94" cy="245.64" r="1" gradientTransform="matrix(46, 0, 0, -46, 15645.19, 11928.54)" xlink:href="#Dégradé_sans_nom_68"/><clipPath id="clip-path-118"><path class="cls-1" d="M328.25,621.38c-34.21,9.38-60.77,21.22-59.33,26.46s30.32,1.88,64.52-7.5,60.77-21.22,59.33-26.45c-.46-1.68-3.73-2.48-9.09-2.47-11.38,0-32.18,3.59-55.43,10"/></clipPath><radialGradient id="Dégradé_sans_nom_104" cx="-333.2" cy="221.77" r="1" gradientTransform="matrix(45.93, 0, 0, -15.58, 15635.81, 4086.96)" gradientUnits="userSpaceOnUse"><stop offset="0" stop-color="#7c42b8"/><stop offset="0.63" stop-color="#272a95"/><stop offset="0.98" stop-color="#270579"/><stop offset="1" stop-color="#270579"/></radialGradient><clipPath id="clip-path-120"><path class="cls-1" d="M333,630.56c-20.66,5.66-36.74,12.71-35.91,15.75s19.13,7.15,39.79,1.48,35.86-19,35-22c-.25-.94-2.09-1.38-5.12-1.38-6.77,0-19.51,2.23-33.79,6.14"/></clipPath><radialGradient id="Dégradé_sans_nom_103" cx="-327.13" cy="217.88" r="1" gradientTransform="matrix(29.1, 0, 0, -14.05, 9855.5, 3694.08)" gradientUnits="userSpaceOnUse"><stop offset="0" stop-color="#ffc268"/><stop offset="0.25" stop-color="#ffc66b"/><stop offset="0.51" stop-color="#ffd373"/><stop offset="0.78" stop-color="#ffe881"/><stop offset="1" stop-color="#ffff90"/></radialGradient><clipPath id="clip-path-122"><rect class="cls-1" x="299.55" y="628.69" width="13.59" height="6.99"/></clipPath><clipPath id="clip-path-123"><path class="cls-1" d="M305.53,629.22c3.73-1,7.11-.52,7.56,1.12s-2.2,3.79-5.93,4.81-7.11.52-7.56-1.12,2.21-3.79,5.93-4.81"/></clipPath><radialGradient id="Dégradé_sans_nom_102" cx="-524.72" cy="188.56" r="1" gradientTransform="matrix(0, -3.08, -7, 0, 1625.44, -981.63)" gradientUnits="userSpaceOnUse"><stop offset="0" stop-color="#2720f6"/><stop offset="0.08" stop-color="#211bd0"/><stop offset="0.22" stop-color="#18149a"/><stop offset="0.36" stop-color="#110e6b"/><stop offset="0.49" stop-color="#0b0944"/><stop offset="0.62" stop-color="#060526"/><stop offset="0.75" stop-color="#030211"/><stop offset="0.88" stop-color="#010104"/><stop offset="1"/></radialGradient><clipPath id="clip-path-124"><rect class="cls-1" x="323.7" y="621.11" width="13.59" height="6.99"/></clipPath><clipPath id="clip-path-125"><path class="cls-1" d="M329.68,621.64c3.72-1,7.11-.52,7.56,1.11s-2.21,3.8-5.94,4.82-7.11.52-7.56-1.12,2.21-3.79,5.94-4.81"/></clipPath><radialGradient id="Dégradé_sans_nom_102-2" cx="-524.72" cy="188.56" r="1" gradientTransform="matrix(0, -3.08, -7, 0, 1649.58, -989.21)" xlink:href="#Dégradé_sans_nom_102"/><clipPath id="clip-path-126"><rect class="cls-1" x="348.02" y="615.4" width="13.59" height="6.99"/></clipPath><clipPath id="clip-path-127"><path class="cls-1" d="M354,615.93c3.73-1,7.12-.52,7.56,1.12s-2.2,3.79-5.93,4.81-7.11.53-7.56-1.11,2.21-3.8,5.93-4.82"/></clipPath><radialGradient id="Dégradé_sans_nom_102-3" cx="-524.72" cy="188.56" r="1" gradientTransform="matrix(0, -3.08, -7, 0, 1673.92, -994.92)" xlink:href="#Dégradé_sans_nom_102"/><clipPath id="clip-path-128"><rect class="cls-1" x="369.68" y="613.27" width="13.59" height="6.99"/></clipPath><clipPath id="clip-path-129"><path class="cls-1" d="M375.67,613.8c3.72-1,7.11-.52,7.56,1.12s-2.21,3.79-5.94,4.81-7.11.52-7.56-1.12,2.21-3.79,5.94-4.81"/></clipPath><radialGradient id="Dégradé_sans_nom_102-4" cx="-524.72" cy="188.56" r="1" gradientTransform="matrix(0, -3.08, -7, 0, 1695.58, -997.06)" xlink:href="#Dégradé_sans_nom_102"/><clipPath id="clip-path-130"><rect class="cls-1" x="279.49" y="638.86" width="13.59" height="6.99"/></clipPath><clipPath id="clip-path-131"><path class="cls-1" d="M285.47,639.39c3.73-1,7.11-.52,7.56,1.12s-2.21,3.79-5.93,4.81-7.11.53-7.56-1.11,2.21-3.8,5.93-4.82"/></clipPath><radialGradient id="Dégradé_sans_nom_102-5" cx="-524.72" cy="188.56" r="1" gradientTransform="matrix(0, -3.08, -7, 0, 1605.39, -971.46)" xlink:href="#Dégradé_sans_nom_102"/><clipPath id="clip-path-132"><rect class="cls-1" x="368.69" y="622.01" width="8.96" height="4.61"/></clipPath><clipPath id="clip-path-133"><path class="cls-1" d="M372.63,622.36c2.46-.67,4.69-.34,5,.74s-1.46,2.5-3.92,3.17-4.69.35-5-.73,1.45-2.5,3.91-3.18"/></clipPath><radialGradient id="Dégradé_sans_nom_102-6" cx="-618.19" cy="152.97" r="1" gradientTransform="matrix(0, -2.03, -4.61, 0, 1078.85, -629.53)" xlink:href="#Dégradé_sans_nom_102"/><clipPath id="clip-path-134"><rect class="cls-1" x="311.49" y="613.46" width="35.86" height="11.01"/></clipPath></defs><g class="cls-3"><g id="Calque_1" data-name="Calque 1"><rect class="cls-4" width="375" height="812"/><g class="cls-5"><g class="cls-6"><g id="Groupe_50218" data-name="Groupe 50218"><path id="Tracé_96043" data-name="Tracé 96043" class="cls-7" d="M620.51,2617.59c-337.75-21.5-651.06-171.54-854.14-409-106.71-124.8-185.21-280.16-173.17-447.68C-394,1583.33-281,1414.55-141.48,1281.61S164.46,1044.2,321.28,929.7C832.76,556.29,1249.82,65.82,1518.45-478.16c108.75-220.22,194.22-451.81,216-686.33,52.2-561.68-294.72-1094.67-823.6-1316C637.88-2594.67,315-2631,10.13-2546.16c-180.41,50.18-362.36,152.71-444.75,312.75-124.38,241.61,25.22,511,230.28,666.75s464.81,247.9,652.76,421.11c336.07,309.71,375.5,838,189.74,1282.05s-562,812.11-974.54,1105.93c-271.8,193.57-573,364.84-898.83,423.78-142.65,25.8-293,28.39-417.6-26.35s-216.48-176.73-198.62-310.24c22.79-170.16,209.15-298.59,389.83-339.75s364-20.49,546.67-32.54c306.14-20.19,619.18-139.47,846.36-350.15S290.07,92,246.77-185.36s-273-512.58-571-551.79c-157.6-20.76-324.46,10.9-479.7,67.68C-1084.56-566.82-1336.51-380.15-1510.37-146c-140.4,189.07-229,404.51-361.94,597.84s-331.18,373.38-567.47,405c-215.16,28.76-424.19-80.44-519.78-251S-3043,214.2-2948.88,26.13c41.77-83.45,100.68-163.27,182.05-217,172.36-113.83,392.57-85.26,593.86-83.19,270.94,2.77,569.73-64.69,762.44-260.5,193.91-197,272.82-510.45,535.18-607.67,77.06-28.56,159.56-32.75,238.78-53.23s162.28-64.78,191.57-137c43.68-107.67-54.65-208.38-159.81-252.85-333-140.84-757.4,5.17-1076.26,225.82s-578.79,512-901.53,727.34c-183.74,122.58-397.71,230.86-498.76,417.46-107.64,198.72-53,425.18,20.22,621.47,383.56,1027.75,869.53,2076.43,1946.31,2487.33"/></g></g></g><g class="cls-5"><g class="cls-8"><path id="Tracé_76685" data-name="Tracé 76685" class="cls-9" d="M353.05,287.79a5.47,5.47,0,1,1,5.46,5.9A5.76,5.76,0,0,1,353.05,287.79Z"/><path id="Tracé_76688" data-name="Tracé 76688" class="cls-9" d="M14.72,148.71a5.47,5.47,0,1,1,5.44,5.9A5.68,5.68,0,0,1,14.72,148.71Z"/><path id="Tracé_76689" data-name="Tracé 76689" class="cls-9" d="M110.08,573.64a5.47,5.47,0,1,1,5.46,5.9A5.68,5.68,0,0,1,110.08,573.64Z"/><path id="Tracé_76690" data-name="Tracé 76690" class="cls-9" d="M17.24,728.3a5.47,5.47,0,1,1,5.45,5.9A5.76,5.76,0,0,1,17.24,728.3Z"/><path id="Tracé_76695" data-name="Tracé 76695" class="cls-9" d="M149.33,561a1.15,1.15,0,0,1,2.25-.52,1.51,1.51,0,0,1,0,.52,1.15,1.15,0,0,1-2.25.51A1.1,1.1,0,0,1,149.33,561Z"/><ellipse id="Ellipse_246" data-name="Ellipse 246" class="cls-9" cx="237.57" cy="184.86" rx="1.12" ry="1.21"/><path id="Tracé_76698" data-name="Tracé 76698" class="cls-9" d="M21.58,605.21a1.15,1.15,0,1,1,2.23-.56,1.06,1.06,0,0,1,0,.56,1.15,1.15,0,0,1-1.08,1.22h-.07a1.15,1.15,0,0,1-1.08-1.22Z"/><ellipse id="Ellipse_247" data-name="Ellipse 247" class="cls-9" cx="358.51" cy="808.5" rx="1.12" ry="1.21"/><path id="Tracé_76702" data-name="Tracé 76702" class="cls-9" d="M117.57,530a1.19,1.19,0,1,1,0,.07Z"/><path id="Tracé_76705" data-name="Tracé 76705" class="cls-9" d="M136.67,541.14a1.12,1.12,0,1,1,1.15,1.2h-.06a1.15,1.15,0,0,1-1.09-1.2Z"/><path id="Tracé_76706" data-name="Tracé 76706" class="cls-9" d="M.51,176.41a1.14,1.14,0,0,1,1.21-1.08,1.14,1.14,0,0,1,1.08,1.21,1.15,1.15,0,0,1-2.3-.06A.15.15,0,0,1,.51,176.41Z"/><path id="Tracé_76707" data-name="Tracé 76707" class="cls-9" d="M217.81,187.28a1.15,1.15,0,1,1,1.15,1.15A1.15,1.15,0,0,1,217.81,187.28Z"/><path id="Tracé_76709" data-name="Tracé 76709" class="cls-9" d="M50.67,47a1.15,1.15,0,0,1,2.24-.51,1.1,1.1,0,0,1,0,.51,1.15,1.15,0,1,1-2.24,0Z"/><path id="Tracé_76713" data-name="Tracé 76713" class="cls-9" d="M45.14,792.9a1.21,1.21,0,0,1,.73-1.5,1.14,1.14,0,0,1,1.38.73h0a1.25,1.25,0,0,1-.73,1.52,1.15,1.15,0,0,1-1.38-.73Z"/><path id="Tracé_76717" data-name="Tracé 76717" class="cls-9" d="M136.38,504.29A2.53,2.53,0,1,1,138.9,507a2.62,2.62,0,0,1-2.52-2.72Z"/><path id="Tracé_76718" data-name="Tracé 76718" class="cls-9" d="M17.65,57.91a2.53,2.53,0,1,1,2.51,2.73A2.63,2.63,0,0,1,17.65,57.91Z"/><path id="Tracé_76719" data-name="Tracé 76719" class="cls-9" d="M65.79,99.58a2.53,2.53,0,1,1,2.53,2.72A2.62,2.62,0,0,1,65.79,99.58Z"/><path id="Tracé_76721" data-name="Tracé 76721" class="cls-9" d="M236.16,363.58a2.53,2.53,0,1,1,2.53,2.74A2.64,2.64,0,0,1,236.16,363.58Z"/><path id="Tracé_76722" data-name="Tracé 76722" class="cls-9" d="M233.64,559.23a2.53,2.53,0,1,1,2.52,2.74,2.62,2.62,0,0,1-2.52-2.72Z"/><path id="Tracé_76723" data-name="Tracé 76723" class="cls-9" d="M147.93,598.54a2.53,2.53,0,1,1,2.52,2.72A2.63,2.63,0,0,1,147.93,598.54Z"/><path id="Tracé_76724" data-name="Tracé 76724" class="cls-9" d="M277.05,530a2.53,2.53,0,1,1,2.52,2.74,2.63,2.63,0,0,1-2.52-2.72Z"/><path id="Tracé_76725" data-name="Tracé 76725" class="cls-9" d="M231.11,252.38a2.53,2.53,0,1,1,2.52,2.74,2.61,2.61,0,0,1-2.52-2.72Z"/><path id="Tracé_76727" data-name="Tracé 76727" class="cls-9" d="M-2,811.24a2.54,2.54,0,0,1,2.68-2.38A2.54,2.54,0,0,1,3,811.54a2.53,2.53,0,0,1-2.51,2.38A2.65,2.65,0,0,1-2,811.24Z"/><path id="Tracé_76728" data-name="Tracé 76728" class="cls-9" d="M348,783.92a2.53,2.53,0,1,1,2.53,2.73A2.66,2.66,0,0,1,348,783.92Z"/><path id="Tracé_76731" data-name="Tracé 76731" class="cls-9" d="M274.52,756.29A2.53,2.53,0,1,1,277,759,2.65,2.65,0,0,1,274.52,756.29Z"/><path id="Tracé_76732" data-name="Tracé 76732" class="cls-9" d="M161.37,539.92a2.54,2.54,0,1,1,2.53,2.73A2.63,2.63,0,0,1,161.37,539.92Z"/><path id="Tracé_76733" data-name="Tracé 76733" class="cls-9" d="M369.33,396.75h0c0,6.47,4.84,11.72,10.82,11.72h0c-6,0-10.82,5.25-10.82,11.72h0c0-6.47-4.84-11.72-10.82-11.72h0C364.49,408.47,369.33,403.26,369.33,396.75Z"/><path id="Tracé_76734" data-name="Tracé 76734" class="cls-9" d="M174.72,632.17h0c0,6.47,4.84,11.72,10.82,11.72h0c-6,0-10.82,5.25-10.82,11.72h0c0-6.47-4.84-11.72-10.82-11.72h0C169.88,643.9,174.72,638.65,174.72,632.17Z"/><path id="Tracé_76735" data-name="Tracé 76735" class="cls-9" d="M225.33,57.91h0c0,6.47,4.85,11.72,10.83,11.72h0c-6,0-10.83,5.25-10.83,11.73h0c0-6.48-4.84-11.73-10.82-11.73h0C220.49,69.67,225.33,64.38,225.33,57.91Z"/><path id="Tracé_76736" data-name="Tracé 76736" class="cls-9" d="M17.65,750.24h0c0,6.46,4.84,11.72,10.82,11.72h0c-6,0-10.82,5.25-10.82,11.72h0c0-6.47-4.85-11.72-10.83-11.72h0C12.8,762,17.65,756.7,17.65,750.24Z"/></g></g><g class="cls-10"><g class="cls-11"><g id="Groupe_50218-2" data-name="Groupe 50218"><path id="Tracé_96043-2" data-name="Tracé 96043" class="cls-7" d="M194.31,2617.59c-337.75-21.5-651.06-171.54-854.14-409C-766.54,2083.78-845,1928.42-833,1760.9c12.77-177.57,125.81-346.35,265.32-479.29S-261.75,1044.2-104.92,929.7C406.56,556.29,823.62,65.82,1092.25-478.16c108.75-220.22,194.22-451.81,216-686.33,52.2-561.68-294.72-1094.67-823.6-1316-273-114.22-595.88-150.52-900.74-65.71-180.41,50.18-362.36,152.71-444.75,312.75-124.38,241.61,25.22,511,230.28,666.75s464.81,247.9,652.76,421.11C358.29-835.84,397.72-307.58,212,136.5s-562,812.11-974.54,1105.93c-271.8,193.57-573,364.84-898.83,423.78-142.66,25.8-293,28.39-417.6-26.35s-216.48-176.73-198.62-310.24c22.79-170.16,209.15-298.59,389.83-339.75s364-20.49,546.67-32.54C-1035,937.14-721.95,817.86-494.77,607.18S-136.13,92-179.43-185.36s-273-512.58-571-551.79c-157.6-20.76-324.46,10.9-479.7,67.68C-1510.76-566.82-1762.71-380.15-1936.57-146-2077,43-2165.6,258.47-2298.51,451.8s-331.19,373.38-567.47,405c-215.16,28.76-424.19-80.44-519.78-251s-83.47-391.58,10.68-579.65c41.77-83.45,100.68-163.27,182-217,172.36-113.83,392.57-85.26,593.86-83.19,270.94,2.77,569.72-64.69,762.44-260.5,193.91-197,272.82-510.45,535.17-607.67,77.07-28.56,159.57-32.75,238.79-53.23s162.28-64.78,191.57-137c43.68-107.67-54.65-208.38-159.81-252.85-333-140.84-757.4,5.17-1076.26,225.82s-578.79,512-901.53,727.34c-183.74,122.58-397.71,230.86-498.76,417.46-107.64,198.72-53,425.18,20.22,621.47C-3103.78,1434.57-2617.81,2483.25-1541,2894.15"/></g></g></g><g class="cls-10"><g class="cls-8"><path id="Tracé_76691" data-name="Tracé 76691" class="cls-9" d="M-4.39,210.86a5.46,5.46,0,1,1,5.45,5.9A5.74,5.74,0,0,1-4.39,210.86Z"/><path id="Tracé_76692" data-name="Tracé 76692" class="cls-9" d="M21.68,304.93a1.16,1.16,0,0,1,1.21-1.09A1.15,1.15,0,1,1,21.68,305Z"/><path id="Tracé_76693" data-name="Tracé 76693" class="cls-9" d="M12.17,602.48a1.18,1.18,0,1,1,0,.06Z"/><path id="Tracé_76700" data-name="Tracé 76700" class="cls-9" d="M-.08,722.4a1.15,1.15,0,0,1,2.3,0,1.15,1.15,0,0,1-2.3,0Z"/><path id="Tracé_76701" data-name="Tracé 76701" class="cls-9" d="M21.68,548.68a1.19,1.19,0,1,1,0,.07Z"/><path id="Tracé_76703" data-name="Tracé 76703" class="cls-9" d="M20.56,189.7a1.15,1.15,0,1,1,1.15,1.15A1.15,1.15,0,0,1,20.56,189.7Z"/><path id="Tracé_76711" data-name="Tracé 76711" class="cls-9" d="M34.84,350.59a1.23,1.23,0,0,1,.74-1.51,1.16,1.16,0,0,1,1.38.74v.06a1.23,1.23,0,0,1-.74,1.51,1.16,1.16,0,0,1-1.38-.73Z"/><path id="Tracé_76726" data-name="Tracé 76726" class="cls-9" d="M22.8,379.1a2.53,2.53,0,1,1,2.52,2.74A2.64,2.64,0,0,1,22.8,379.1Z"/><path id="Tracé_76729" data-name="Tracé 76729" class="cls-9" d="M25.32,750.24A2.53,2.53,0,1,1,27.85,753,2.65,2.65,0,0,1,25.32,750.24Z"/></g></g><g id="Soap_Planet" data-name="Soap Planet"><g class="cls-12"><g class="cls-12"><g class="cls-12"><g class="cls-13"><g class="cls-14"><g class="cls-15"><rect class="cls-16" x="27.81" y="616.86" width="170.16" height="170.16"/></g></g></g></g><g class="cls-17"><rect class="cls-18" x="33.61" y="622.66" width="158.56" height="158.57"/></g><g class="cls-12"><g class="cls-19"><g class="cls-20"><g class="cls-21"><rect class="cls-22" x="33.61" y="639.83" width="144.84" height="141.39"/></g></g></g><g class="cls-23"><g class="cls-24"><g class="cls-25"><rect class="cls-26" x="78.57" y="647.5" width="15.89" height="22.06"/></g></g></g><g class="cls-23"><g class="cls-27"><g class="cls-28"><rect class="cls-29" x="71.9" y="666.31" width="6.85" height="6.28"/></g></g></g><g class="cls-23"><g class="cls-30"><g class="cls-31"><rect class="cls-32" x="175.25" y="685.41" width="10.42" height="23.84"/></g></g></g><g class="cls-33"><g class="cls-34"><g class="cls-35"><rect class="cls-36" x="66.12" y="614.49" width="178.48" height="175.42" transform="translate(-461.21 331.97) rotate(-46.54)"/></g></g></g><g class="cls-33"><g class="cls-37"><g class="cls-38"><rect class="cls-39" x="25.15" y="664.79" width="86.36" height="115.42"/></g></g></g><g class="cls-40"><g class="cls-41"><g class="cls-42"><rect class="cls-43" x="80.01" y="617.69" width="84.32" height="160.34"/></g></g></g><g class="cls-40"><g class="cls-44"><g class="cls-45"><rect class="cls-46" x="53.8" y="629.07" width="80.71" height="157.95"/></g></g></g><g class="cls-40"><g class="cls-47"><g class="cls-48"><rect class="cls-49" x="127.3" y="622.66" width="56.1" height="133.74"/></g></g></g><path class="cls-50" d="M114.58,628c-3,.54,1.19,7.28,11.29,12.31s30.89,6,32.7,3.38-23.36-19.43-44-15.69"/><path class="cls-50" d="M36.4,720.2c-1.18-1.06-2.61,2.83-1.43,8.6s7.48,14.66,9.14,14.56.48-15.89-7.71-23.16"/><path class="cls-50" d="M110.25,628.41c-.66-3.5-7.46-3.41-10.39-1.17s-1.53,5.06,4.44,5.23c3.68.12,6.48-1.17,6-4.06"/><path class="cls-51" d="M60.73,766.46s18.87,14.59,42.49,17.76c0,0-22.51,1.66-42.49-17.76"/><g class="cls-13"><g class="cls-52"><g class="cls-53"><rect class="cls-54" x="153.03" y="726.05" width="59.33" height="60.97"/></g></g></g><g class="cls-13"><g class="cls-55"><g class="cls-56"><rect class="cls-57" x="7.07" y="645.07" width="53.95" height="54.83"/></g></g></g><g class="cls-33"><g class="cls-58"><g class="cls-59"><rect class="cls-60" x="169.56" y="729.28" width="48.15" height="47.27" transform="translate(-486.08 375.62) rotate(-46.54)"/></g></g></g><g class="cls-33"><g class="cls-61"><g class="cls-62"><rect class="cls-63" x="13.58" y="643.09" width="58.89" height="58.15" transform="translate(-474.49 241.08) rotate(-46.54)"/></g></g></g><path class="cls-51" d="M16.39,670.2a31.22,31.22,0,0,0,4.44,19.33s-10.72-6.21-4.44-19.33"/><path class="cls-51" d="M158.67,774.57a44.59,44.59,0,0,0,19.33,2.2s-11.93,5.9-19.33-2.2"/><path class="cls-50" d="M195.7,731c-1.36-1.54-1.1,10.18,1.38,13.88s3.9,5.19,5.41,4.23-1.87-12.53-6.79-18.11"/><path class="cls-50" d="M202.35,750.44c.91-.14.66,3.42-.22,3.35s-1.5-3.08.22-3.35"/><path class="cls-50" d="M44.73,648.06c.68-2.31-10.36,1.08-14.07,6,0,0,12.08.72,14.07-6"/><g class="cls-13"><g class="cls-64"><g class="cls-65"><rect class="cls-66" x="126.8" y="771.62" width="33.83" height="31" transform="translate(-161.65 47.55) rotate(-12.09)"/></g></g></g><g class="cls-33"><g class="cls-67"><g class="cls-68"><rect class="cls-69" x="135.61" y="770.06" width="27.49" height="27.24" transform="translate(-522.25 353.08) rotate(-46.54)"/></g></g></g><path class="cls-51" d="M131.5,785s1.77,3.78,7.86,6.53c0,0-6.53,1-7.86-6.53"/><path class="cls-50" d="M151.66,778.31c-1.46-1.13-1.23,5.34.29,5.91s1.47-4.54-.29-5.91"/><path class="cls-50" d="M148.26,775.56s-10,.11-15.58,6.13c0,0,9.55-5.2,15.58-6.13"/><path class="cls-50" d="M131.5,782.83s-2.13,1.41-2,2.57c0,0,2.33-1.46,2-2.57"/><g class="cls-13"><g class="cls-70"><g class="cls-71"><rect class="cls-72" x="188.51" y="711.04" width="17.16" height="15.62" transform="translate(-539.93 607.49) rotate(-66.08)"/></g></g></g><g class="cls-33"><g class="cls-73"><g class="cls-74"><rect class="cls-75" x="195.84" y="712.76" width="11.13" height="10.03" transform="translate(-533.54 842.72) rotate(-83.97)"/></g></g></g><path class="cls-51" d="M194.47,724.66a7.41,7.41,0,0,0,4.66-1.19s-1.41,2.77-4.66,1.19"/><path class="cls-50" d="M199,714.58c-.87,0,1.06,2.34,1.79,2.12s-.75-2.12-1.79-2.12"/><path class="cls-50" d="M195.43,714.51s-2.63,5-1.89,8.79c0,0,.57-6.23,1.89-8.79"/><path class="cls-50" d="M193.65,724.06s-.05,1.21.43,1.47c0,0,.09-1.29-.43-1.47"/><path class="cls-50" d="M189.65,728.83s-.77,3.35-5.42,4.34a6.89,6.89,0,0,1,5.42-4.34"/><path class="cls-50" d="M49.63,645.07A68.45,68.45,0,0,1,52,656.63c1,7.26,0,11.35,0,11.35S50.74,652,49.63,645.07"/><path class="cls-50" d="M47.72,684.89S40.65,694,35.85,697.11c0,0,6.21-.94,11.87-12.22"/><path class="cls-50" d="M188.22,667.12a15.12,15.12,0,0,1,4.4,7.51,28.53,28.53,0,0,1,1,7.16s-6-8.61-5.4-14.67"/><path class="cls-50" d="M51.75,670.2s1.26,2.87-.52,3.89c0,0-1-3.11.52-3.89"/><path class="cls-51" d="M21.57,691s2.29,0,3.49,3.8c0,0-3,.33-3.49-3.8"/><g class="cls-13"><g class="cls-76"><g class="cls-77"><rect class="cls-78" x="175.07" y="607.59" width="40.25" height="40.25"/></g></g></g><g class="cls-33"><g class="cls-79"><g class="cls-80"><rect class="cls-81" x="189.12" y="606.91" width="29.41" height="36.48"/></g></g></g><path class="cls-51" d="M178,634.78s4.41,9.19,14.17,11.1c0,0-11.16,1.89-14.17-11.1"/><path class="cls-50" d="M199.13,609.06s9.31,1.2,12.53,10.44c0,0-12.65-4-12.53-10.44"/><path class="cls-50" d="M212.11,619.89c.49-1,1.93,3.08,1.81,5.35,0,0-2.5-4-1.81-5.35"/><path class="cls-50" d="M176.41,625.27s3.81,4.75,1.59,9.51c0,0-2.93-3-1.59-9.51"/><g class="cls-13"><g class="cls-82"><g class="cls-83"><rect class="cls-84" x="10.27" y="733.99" width="18.74" height="18.74"/></g></g></g><g class="cls-33"><g class="cls-85"><g class="cls-86"><rect class="cls-87" x="16.81" y="733.67" width="13.69" height="16.99"/></g></g></g><path class="cls-51" d="M11.63,746.65a10.12,10.12,0,0,0,6.6,5.17s-5.2.88-6.6-5.17"/><path class="cls-50" d="M21.47,734.68a7.54,7.54,0,0,1,5.84,4.86s-5.89-1.85-5.84-4.86"/><path class="cls-50" d="M27.51,739.72c.23-.46.9,1.43.85,2.49,0,0-1.16-1.87-.85-2.49"/><path class="cls-50" d="M10.89,742.22s1.77,2.22.74,4.43c0,0-1.36-1.4-.74-4.43"/></g></g></g></g><g class="cls-5"><g id="Sugar_Planet" data-name="Sugar Planet"><g class="cls-88"><g class="cls-88"><g class="cls-89"><rect class="cls-90" x="293.28" y="79.45" width="97.79" height="97.8"/></g><g class="cls-91"><rect class="cls-92" x="288.57" y="53.17" width="111.76" height="125.82"/></g><g class="cls-88"><g class="cls-23"><g class="cls-93"><g class="cls-94"><rect class="cls-95" x="288.4" y="59.26" width="38.69" height="41.23" transform="translate(16.06 206.4) rotate(-38)"/></g></g></g><g class="cls-96"><g class="cls-97"><g class="cls-98"><rect class="cls-99" x="321.61" y="53.17" width="0.41" height="3.02"/></g></g></g><g class="cls-96"><g class="cls-100"><g class="cls-101"><rect class="cls-102" x="297.2" y="56.18" width="95.06" height="110.47"/></g></g></g><g class="cls-23"><g class="cls-103"><g class="cls-104"><rect class="cls-105" x="292.58" y="66.41" width="82.28" height="105.85"/></g></g></g><g class="cls-106"><g class="cls-107"><g class="cls-108"><rect class="cls-109" x="290.26" y="92.48" width="0.02" height="1.19"/></g></g></g><g class="cls-106"><g class="cls-110"><g class="cls-111"><rect class="cls-112" x="290.26" y="92.31" height="0.17"/></g></g></g><g class="cls-106"><g class="cls-113"><g class="cls-114"><rect class="cls-115" x="290.28" y="94.05" width="71.04" height="83.16"/></g></g></g><g class="cls-96"><g class="cls-116"><g class="cls-117"><rect class="cls-118" x="295.34" y="66.41" width="79.52" height="102.76"/></g></g></g><g class="cls-119"><g class="cls-120"><g class="cls-121"><rect class="cls-122" x="290.37" y="78.15" width="75.08" height="96.36"/></g></g></g></g><g class="cls-123"><rect class="cls-124" x="274.21" y="60.24" width="123.32" height="119.96" transform="translate(41.19 321.28) rotate(-54)"/></g><g class="cls-125"><rect class="cls-126" x="293.76" y="87.11" width="71.7" height="84.38"/></g><g class="cls-88"><g class="cls-40"><g class="cls-127"><g class="cls-128"><rect class="cls-129" x="283.89" y="93.59" width="85.47" height="85.85" transform="translate(-14.8 230.03) rotate(-38)"/></g></g></g><g class="cls-96"><g class="cls-130"><g class="cls-131"><rect class="cls-132" x="295.46" y="92.9" width="73.54" height="76.26"/></g></g></g><g class="cls-33"><g class="cls-133"><g class="cls-134"><rect class="cls-135" x="293.49" y="86.12" width="90.14" height="86.16" transform="translate(-7.77 235.82) rotate(-38)"/></g></g></g><g class="cls-136"><g class="cls-137"><g class="cls-138"><rect class="cls-139" x="281.34" y="53.47" width="129.74" height="129.87" transform="translate(0.49 238.25) rotate(-38)"/></g></g></g><g class="cls-23"><g class="cls-140"><g class="cls-141"><rect class="cls-142" x="293.06" y="79.65" width="95.37" height="91.08" transform="translate(-4.84 236.32) rotate(-38)"/></g></g></g></g><g class="cls-143"><rect class="cls-144" x="288.87" y="62.71" width="118.39" height="120.42" transform="translate(59.38 352.96) rotate(-58)"/></g><g class="cls-88"><g class="cls-96"><g class="cls-145"><g class="cls-146"><rect class="cls-147" x="303.34" y="62.91" width="94.75" height="99.76"/></g></g></g><g class="cls-96"><g class="cls-148"><g class="cls-149"><rect class="cls-150" x="300.85" y="118.41" width="45.24" height="54.88"/></g></g></g></g><g class="cls-151"><rect class="cls-152" x="294.02" y="107.75" width="67.3" height="66.04"/></g><g class="cls-88"><g class="cls-96"><g class="cls-153"><g class="cls-154"><rect class="cls-155" x="290.75" y="107.76" width="61.91" height="69.46"/></g></g></g></g><g class="cls-156"><rect class="cls-157" x="292.35" y="110.16" width="63.03" height="67.08"/></g><g class="cls-88"><path class="cls-50" d="M308.83,122.36a64.79,64.79,0,0,1,6.4,5.38c4.65,4.22,5.63,13.71,5.63,13.71v2.63s-4-9.38-6-13a72,72,0,0,0-6.05-8.68"/><path class="cls-50" d="M311.56,143.66s-1.51-.47-3-5.9-2-7.59-2.8-10.76a21,21,0,0,0-2.4-5.59s.56,1.17,4.69,9.62,3.53,12.63,3.53,12.63"/><path class="cls-50" d="M293.63,132.53S292,131,293.34,126s1.93-7.54,1.93-7.54.19,4.28.19,7.54a15.89,15.89,0,0,1-1.83,6.58"/><path class="cls-50" d="M332.23,114.63a33.71,33.71,0,0,1,11.47,3.78c5.39,3.08,8.57,4.55,13.24,7.54a31.31,31.31,0,0,1,7.7,7.27s-5.53-8.71-9.26-10.86-5.13-2.22-9.29-4.57-8.32-3.21-13.86-3.16"/></g><g class="cls-88"><g class="cls-33"><g class="cls-158"><g class="cls-159"><rect class="cls-160" x="261.15" y="76.69" width="151.35" height="99.34" transform="translate(-10.89 34.09) rotate(-5.7)"/></g></g></g></g><g class="cls-161"><rect class="cls-162" x="269.33" y="149.26" width="23.46" height="23.46"/></g></g></g></g><g id="Classic_Spacepship" data-name="Classic Spacepship"><g class="cls-163"><g class="cls-163"><g class="cls-164"><rect class="cls-165" x="290.41" y="596.65" width="77.42" height="50.77" transform="translate(-152.76 109.16) rotate(-15.33)"/></g><g class="cls-166"><g class="cls-167"><g class="cls-168"><path class="cls-9" d="M324.92,608.56c19-5.2,37.27.85,40,6.63a2.84,2.84,0,0,0-.1-.64c-1.64-6-20.62-12.68-40.29-7.29s-32.83,19.92-31.2,25.87a3,3,0,0,0,.24.61c-.55-6.32,12.36-20,31.31-25.18"/></g></g></g><g class="cls-169"><rect class="cls-170" x="265" y="591.47" width="133.06" height="75.65" transform="translate(-154.59 110.05) rotate(-15.33)"/></g><g class="cls-166"><g class="cls-167"><g class="cls-171"><path class="cls-9" d="M392.52,613.29,378,610.52s-22.8-4.8-51.8,3.33-37.63,19.37-37.63,19.37l-17.78,15.5a2.94,2.94,0,0,1-2.12-1.88c-1.73-6.29,23.06-24.61,57.26-34,33.11-9.07,63.15-5.51,66.61.44"/></g></g></g><g class="cls-172"><rect class="cls-173" x="264.1" y="595.72" width="133.11" height="71.36" transform="translate(-142.92 98.74) rotate(-14)"/></g><g class="cls-174"><rect class="cls-175" x="264.23" y="595.4" width="133.23" height="73.68" transform="translate(-155.39 109.98) rotate(-15.33)"/></g><g class="cls-166"><path class="cls-176" d="M370.65,624.62c.9,3.27-15.67,10.65-37,16.5s-39.34,7.94-40.24,4.67,15.67-10.65,37-16.49,39.33-7.94,40.23-4.68"/><path class="cls-177" d="M316.37,635.3,315.05,634a231.67,231.67,0,0,1,35-9.27l-.15,1.67Z"/></g><g class="cls-178"><rect class="cls-179" x="293.77" y="614.82" width="81.44" height="48.23" transform="translate(-157.03 111.18) rotate(-15.33)"/></g><g class="cls-166"><path class="cls-180" d="M335.54,623.22c.14.49-2,1.51-4.8,2.28s-5.16,1-5.3.49,2-1.52,4.81-2.28,5.16-1,5.29-.49"/><path class="cls-180" d="M358.15,618c.14.5-1.24,1.31-3.09,1.81s-3.44.52-3.58,0,1.25-1.3,3.09-1.81,3.45-.51,3.58,0"/><path class="cls-180" d="M379,616c.14.5-1,1.25-2.61,1.68s-3,.38-3.1-.11,1-1.25,2.61-1.68,3-.38,3.1.11"/><path class="cls-180" d="M290.29,641.41c.13.5-1,1.25-2.61,1.68s-3,.39-3.11-.11,1-1.25,2.61-1.68,3-.38,3.11.11"/><g class="cls-181"><g class="cls-182"><g class="cls-183"><rect class="cls-184" x="298.35" y="626.44" width="15.99" height="11.5" transform="translate(-156.23 103.48) rotate(-15.33)"/></g></g></g><g class="cls-181"><g class="cls-185"><g class="cls-186"><rect class="cls-187" x="322.5" y="618.85" width="15.99" height="11.5" transform="translate(-153.37 109.59) rotate(-15.33)"/></g></g></g><g class="cls-181"><g class="cls-188"><g class="cls-189"><rect class="cls-190" x="346.82" y="613.15" width="15.99" height="11.5" transform="translate(-150.99 115.82) rotate(-15.33)"/></g></g></g><g class="cls-181"><g class="cls-191"><g class="cls-192"><rect class="cls-193" x="368.49" y="611.02" width="15.99" height="11.5" transform="matrix(0.96, -0.26, 0.26, 0.96, -149.66, 121.47)"/></g></g></g><g class="cls-181"><g class="cls-194"><g class="cls-195"><rect class="cls-196" x="278.29" y="636.61" width="15.99" height="11.5" transform="translate(-159.63 98.54) rotate(-15.33)"/></g></g></g><g class="cls-181"><g class="cls-197"><g class="cls-198"><rect class="cls-199" x="367.9" y="620.53" width="10.54" height="7.58" transform="matrix(0.96, -0.26, 0.26, 0.96, -151.77, 120.87)"/></g></g></g><path class="cls-180" d="M309.81,631.24c.14.49-1.3,1.32-3.22,1.84s-3.57.55-3.7,0,1.3-1.32,3.21-1.84,3.57-.55,3.71,0"/><g class="cls-200"><g class="cls-201"><path class="cls-202" d="M311.49,624.47s4.3-5.88,13.72-9.16c11.09-3.86,22.14-.49,22.14-.49a283.17,283.17,0,0,0-35.86,9.65"/></g></g></g></g></g></g></g></g></g></svg>