<svg id="_ÎÓÈ_1" data-name="—ÎÓÈ_1" xmlns="http://www.w3.org/2000/svg" viewBox="0 0 474 490"><defs><style>.cls-1{fill:#f90;}.cls-2{fill:#a66300;}.cls-3{fill:#ffc673;}.cls-4{fill:#ced2c8;}.cls-5{fill:#d48014;}</style></defs><path class="cls-1" d="M171.91,173.82c-30.2,0-54.68,22.13-54.68,49.43s24.48,49.43,54.68,49.43,54.67-22.13,54.67-49.43S202.1,173.82,171.91,173.82Zm0,83.13c-20.59,0-37.28-15.09-37.28-33.7s16.69-33.71,37.28-33.71,37.28,15.09,37.28,33.71S192.5,257,171.91,257Z"/><path class="cls-1" d="M341.18,173.82c-30.2,0-54.68,22.13-54.68,49.43s24.48,49.43,54.68,49.43,54.67-22.13,54.67-49.43S371.37,173.82,341.18,173.82Zm0,83.13c-20.59,0-37.28-15.09-37.28-33.7s16.69-33.71,37.28-33.71,37.27,15.09,37.27,33.71S361.76,257,341.18,257Z"/><path class="cls-2" d="M317.32,355.89c-9.48-9.72-33.06-16.61-60.66-16.61s-51.18,6.89-60.67,16.61h-4.47v9.51c0,14.42,29.16,26.11,65.14,26.11s65.13-11.69,65.13-26.11v-9.51Z"/><ellipse class="cls-3" cx="256.66" cy="355.89" rx="65.13" ry="26.11"/><ellipse class="cls-1" cx="256.66" cy="355.89" rx="52.11" ry="18.6"/><rect class="cls-1" x="239.06" y="292.45" width="34.2" height="70.88"/><path class="cls-1" d="M150.23,147.79c7.94,73.92,39.69,144.87,39.69,144.87,5.17,11.66,29.25,24.78,65.42,24.78s59.07-13.12,66.57-24.61c16.87-22.33,38.68-145,38.68-145Z"/><path class="cls-4" d="M325.62,177.69s-36.3,20.17-123,14.79c0,0-12.77,17.48,8.74,94.79,0,0-23.53-78.65-30.92-96.8s-24.87-30.25-24.87-30.25Z"/><path class="cls-5" d="M333.57,147.79l-.58,1.58c-13.75,40.81-28.17,82.16-53.25,117.17-13.62,19-30.94,36.06-50.79,48.32a131.3,131.3,0,0,0,26.39,2.58c36.17,0,59.07-13.12,66.57-24.61,16.87-22.33,38.68-145,38.68-145Z"/><ellipse class="cls-3" cx="255.41" cy="147.79" rx="105.18" ry="42.17"/><ellipse class="cls-4" cx="255.41" cy="145.55" rx="84.16" ry="32.29"/><ellipse class="cls-2" cx="255.41" cy="150.24" rx="84.16" ry="27.59"/><polygon class="cls-5" points="256.53 199.81 268 223.04 293.63 226.76 275.08 244.85 279.46 270.38 256.53 258.32 233.6 270.38 237.98 244.85 219.43 226.76 245.07 223.04 256.53 199.81"/><polygon class="cls-2" points="219.43 226.76 240.58 244.18 235.85 266.71 256.56 255.81 275.82 267.8 272.92 244.18 293.63 226.76 275.08 244.85 279.46 270.38 256.53 258.32 233.6 270.38 237.98 244.85 219.43 226.76"/><path class="cls-2" d="M268,223l-11.47-23.23L245.07,223l-25.64,3.72,6.69,6.53c8-1.23,21.3-6.06,21.3-6.06l9.11-19.08Z"/><path class="cls-4" d="M134.46,200a3.75,3.75,0,1,1-3.75-3.75A3.74,3.74,0,0,1,134.46,200Z"/><path class="cls-4" d="M384.62,200a3.75,3.75,0,1,1-3.75-3.75A3.74,3.74,0,0,1,384.62,200Z"/></svg>