<svg xmlns="http://www.w3.org/2000/svg" xmlns:xlink="http://www.w3.org/1999/xlink" viewBox="0 0 124.98 159.46"><defs><style>.cls-1,.cls-2{fill:none;}.cls-2{clip-rule:evenodd;}.cls-3{isolation:isolate;}.cls-4{clip-path:url(#clip-path);}.cls-5{clip-path:url(#clip-path-3);}.cls-6{fill:url(#Dégradé_sans_nom_28);}.cls-7{clip-path:url(#clip-path-4);}.cls-8{fill:url(#Dégradé_sans_nom_15);}.cls-9{clip-path:url(#clip-path-5);}.cls-10{fill:url(#Dégradé_sans_nom_23);}.cls-11{fill:#b5fffd;}.cls-100,.cls-101,.cls-102,.cls-103,.cls-104,.cls-105,.cls-106,.cls-107,.cls-108,.cls-109,.cls-11,.cls-110,.cls-111,.cls-112,.cls-113,.cls-114,.cls-115,.cls-116,.cls-117,.cls-118,.cls-119,.cls-12,.cls-120,.cls-121,.cls-122,.cls-123,.cls-124,.cls-125,.cls-126,.cls-127,.cls-128,.cls-129,.cls-130,.cls-131,.cls-132,.cls-133,.cls-134,.cls-135,.cls-136,.cls-137,.cls-138,.cls-139,.cls-140,.cls-141,.cls-142,.cls-143,.cls-144,.cls-145,.cls-146,.cls-147,.cls-148,.cls-149,.cls-150,.cls-151,.cls-152,.cls-153,.cls-154,.cls-155,.cls-156,.cls-157,.cls-158,.cls-159,.cls-160,.cls-161,.cls-162,.cls-23,.cls-24,.cls-38,.cls-43,.cls-44,.cls-45,.cls-46,.cls-47,.cls-48,.cls-49,.cls-50,.cls-51,.cls-52,.cls-53,.cls-54,.cls-55,.cls-56,.cls-57,.cls-58,.cls-59,.cls-60,.cls-61,.cls-62,.cls-63,.cls-64,.cls-65,.cls-66,.cls-67,.cls-68,.cls-69,.cls-70,.cls-71,.cls-72,.cls-73,.cls-74,.cls-75,.cls-76,.cls-77,.cls-78,.cls-79,.cls-80,.cls-81,.cls-82,.cls-83,.cls-84,.cls-85,.cls-86,.cls-87,.cls-88,.cls-89,.cls-90,.cls-91,.cls-92,.cls-93,.cls-94,.cls-95,.cls-96,.cls-97,.cls-98,.cls-99{fill-rule:evenodd;}.cls-12{fill:#d2fffe;}.cls-13{clip-path:url(#clip-path-7);}.cls-14{fill:url(#Dégradé_sans_nom_16);}.cls-15{clip-path:url(#clip-path-8);}.cls-16{fill:url(#Dégradé_sans_nom_27);}.cls-17{clip-path:url(#clip-path-9);}.cls-18{fill:url(#Dégradé_sans_nom_26);}.cls-19{clip-path:url(#clip-path-10);}.cls-20{fill:url(#Dégradé_sans_nom_7);}.cls-21{clip-path:url(#clip-path-11);}.cls-22{fill:url(#Dégradé_sans_nom_8);}.cls-23{fill:#a5e3fe;}.cls-24{fill:#6db6fe;}.cls-25{clip-path:url(#clip-path-13);}.cls-26{fill:url(#Dégradé_sans_nom_25);}.cls-27{opacity:0.2;}.cls-27,.cls-34,.cls-39{mix-blend-mode:screen;}.cls-28{clip-path:url(#clip-path-15);}.cls-29{clip-path:url(#clip-path-16);}.cls-30{fill:url(#Dégradé_sans_nom_24);}.cls-31{clip-path:url(#clip-path-17);}.cls-32{clip-path:url(#clip-path-18);}.cls-33{fill:url(#Dégradé_sans_nom_12);}.cls-34{opacity:0.41;}.cls-35{clip-path:url(#clip-path-19);}.cls-36{clip-path:url(#clip-path-20);}.cls-37{fill:url(#Dégradé_sans_nom_12-2);}.cls-38{fill:#abd4f8;}.cls-39{opacity:0.5;}.cls-40{clip-path:url(#clip-path-21);}.cls-41{clip-path:url(#clip-path-22);}.cls-42,.cls-43{fill:#fff;}.cls-44{fill:#fafafa;}.cls-45{fill:#f5f5f5;}.cls-46{fill:#f0f0f0;}.cls-47{fill:#ececec;}.cls-48{fill:#e7e7e7;}.cls-49{fill:#e2e2e2;}.cls-50{fill:#dedede;}.cls-51{fill:#d9d9d9;}.cls-52{fill:#d5d5d5;}.cls-53{fill:#d1d1d1;}.cls-54{fill:#cdcdcd;}.cls-55{fill:#c8c8c8;}.cls-56{fill:#c4c4c4;}.cls-57{fill:silver;}.cls-58{fill:#bcbcbc;}.cls-59{fill:#b8b8b8;}.cls-60{fill:#b5b5b5;}.cls-61{fill:#b1b1b1;}.cls-62{fill:#adadad;}.cls-63{fill:#aaa;}.cls-64{fill:#a6a6a6;}.cls-65{fill:#a2a2a2;}.cls-66{fill:#9f9f9f;}.cls-67{fill:#9c9c9c;}.cls-68{fill:#989898;}.cls-69{fill:#959595;}.cls-70{fill:#929292;}.cls-71{fill:#8f8f8f;}.cls-72{fill:#8b8b8b;}.cls-73{fill:#888;}.cls-74{fill:#858585;}.cls-75{fill:#828282;}.cls-76{fill:gray;}.cls-77{fill:#7d7d7d;}.cls-78{fill:#7a7a7a;}.cls-79{fill:#777;}.cls-80{fill:#747474;}.cls-81{fill:#727272;}.cls-82{fill:#6f6f6f;}.cls-83{fill:#6d6d6d;}.cls-84{fill:#6a6a6a;}.cls-85{fill:#686868;}.cls-86{fill:#656565;}.cls-87{fill:#636363;}.cls-88{fill:#616161;}.cls-89{fill:#5e5e5e;}.cls-90{fill:#5c5c5c;}.cls-91{fill:#5a5a5a;}.cls-92{fill:#585858;}.cls-93{fill:#565656;}.cls-94{fill:#545454;}.cls-95{fill:#525252;}.cls-96{fill:#505050;}.cls-97{fill:#4e4e4e;}.cls-98{fill:#4c4c4c;}.cls-99{fill:#4a4a4a;}.cls-100{fill:#484848;}.cls-101{fill:#464646;}.cls-102{fill:#444;}.cls-103{fill:#434343;}.cls-104{fill:#414141;}.cls-105{fill:#3f3f3f;}.cls-106{fill:#3e3e3e;}.cls-107{fill:#3c3c3c;}.cls-108{fill:#3b3b3b;}.cls-109{fill:#393939;}.cls-110{fill:#383838;}.cls-111{fill:#363636;}.cls-112{fill:#353535;}.cls-113{fill:#333;}.cls-114{fill:#323232;}.cls-115{fill:#313131;}.cls-116{fill:#2f2f2f;}.cls-117{fill:#2e2e2e;}.cls-118{fill:#2d2d2d;}.cls-119{fill:#2b2b2b;}.cls-120{fill:#2a2a2a;}.cls-121{fill:#292929;}.cls-122{fill:#282828;}.cls-123{fill:#272727;}.cls-124{fill:#262626;}.cls-125{fill:#252525;}.cls-126{fill:#242424;}.cls-127{fill:#232323;}.cls-128{fill:#222;}.cls-129{fill:#212121;}.cls-130{fill:#202020;}.cls-131{fill:#1f1f1f;}.cls-132{fill:#1e1e1e;}.cls-133{fill:#1d1d1d;}.cls-134{fill:#1c1c1c;}.cls-135{fill:#1b1b1b;}.cls-136{fill:#1a1a1a;}.cls-137{fill:#191919;}.cls-138{fill:#181818;}.cls-139{fill:#171717;}.cls-140{fill:#161616;}.cls-141{fill:#151515;}.cls-142{fill:#141414;}.cls-143{fill:#131313;}.cls-144{fill:#121212;}.cls-145{fill:#111;}.cls-146{fill:#101010;}.cls-147{fill:#0f0f0f;}.cls-148{fill:#0e0e0e;}.cls-149{fill:#0d0d0d;}.cls-150{fill:#0c0c0c;}.cls-151{fill:#0b0b0b;}.cls-152{fill:#0a0a0a;}.cls-153{fill:#090909;}.cls-154{fill:#080808;}.cls-155{fill:#070707;}.cls-156{fill:#060606;}.cls-157{fill:#050505;}.cls-158{fill:#040404;}.cls-159{fill:#030303;}.cls-160{fill:#020202;}.cls-161{fill:#010101;}.cls-163{clip-path:url(#clip-path-23);}.cls-164{fill:url(#Dégradé_sans_nom_13);}.cls-165{clip-path:url(#clip-path-24);}.cls-166{fill:url(#Dégradé_sans_nom_23-2);}.cls-167{clip-path:url(#clip-path-25);}.cls-168{fill:url(#Dégradé_sans_nom_15-2);}.cls-169{clip-path:url(#clip-path-26);}.cls-170{fill:url(#Dégradé_sans_nom_16-2);}.cls-171{clip-path:url(#clip-path-28);}.cls-172{clip-path:url(#clip-path-29);}</style><clipPath id="clip-path"><rect class="cls-1" x="30.46" y="18.53" width="64.06" height="122.39"/></clipPath><clipPath id="clip-path-3"><path class="cls-1" d="M62.26,18.53C53,23.45,40.46,38.67,40.46,38.67c-7.88,18-10,42.6-10,42.6l3.1,23.45,14.75,24.06,5.34,4.62L69,126.46c7.6-24.17,9.87-54.58,9.87-54.58s-.38-10.43-6-27.82A166.44,166.44,0,0,0,62.26,18.53Z"/></clipPath><radialGradient id="Dégradé_sans_nom_28" cx="-478.3" cy="-654.98" r="1" gradientTransform="matrix(128.85, 0, 0, -128.85, 61700.85, -84370.64)" gradientUnits="userSpaceOnUse"><stop offset="0" stop-color="#95ecfc"/><stop offset="0.01" stop-color="#95ecfc"/><stop offset="0.06" stop-color="#93e5fc"/><stop offset="0.14" stop-color="#8dd2fc"/><stop offset="0.23" stop-color="#83b2fd"/><stop offset="0.33" stop-color="#7686fe"/><stop offset="0.44" stop-color="#654eff"/><stop offset="0.49" stop-color="#5e37ff"/><stop offset="0.99" stop-color="#5e9aff"/><stop offset="1" stop-color="#5e9aff"/></radialGradient><clipPath id="clip-path-4"><path class="cls-1" d="M62.26,18.53a91.75,91.75,0,0,0-21.8,20.14l9.4,25.24,1.81.76,14.52-2.12,4.88-23.84S67.6,27.18,62.26,18.53Z"/></clipPath><radialGradient id="Dégradé_sans_nom_15" cx="-459.64" cy="-685.4" r="1" gradientTransform="matrix(21.97, 0, 0, -21.97, 10153.66, -15013.18)" gradientUnits="userSpaceOnUse"><stop offset="0" stop-color="#5e9fff"/><stop offset="0.01" stop-color="#5e9fff"/><stop offset="0.12" stop-color="#61a4ff"/><stop offset="0.64" stop-color="#6cb7fd"/><stop offset="0.99" stop-color="#70befc"/><stop offset="1" stop-color="#70befc"/></radialGradient><clipPath id="clip-path-5"><path class="cls-1" d="M31.38,73.7,38,81.82,49.86,63.91l-9.4-25.24a191.24,191.24,0,0,0-9.08,35"/></clipPath><radialGradient id="Dégradé_sans_nom_23" cx="-456.29" cy="-691.41" r="1" gradientTransform="matrix(18.92, 0, 0, -18.92, 8675.53, -13023.09)" gradientUnits="userSpaceOnUse"><stop offset="0" stop-color="#4ac2ff"/><stop offset="0.01" stop-color="#4ac2ff"/><stop offset="0.21" stop-color="#61d3fe"/><stop offset="0.53" stop-color="#80ebfd"/><stop offset="0.8" stop-color="#93fafc"/><stop offset="0.99" stop-color="#9afffc"/><stop offset="1" stop-color="#9afffc"/></radialGradient><clipPath id="clip-path-7"><path class="cls-1" d="M55.55,87.13,69,126.46S80.29,94,78.7,67.87L66.19,62.55Z"/></clipPath><radialGradient id="Dégradé_sans_nom_16" cx="-468.01" cy="-670.37" r="1" gradientTransform="matrix(36.74, 0, 0, -36.74, 17260.35, -24517.4)" gradientUnits="userSpaceOnUse"><stop offset="0" stop-color="#4f6dfb"/><stop offset="0.01" stop-color="#4f6dfb"/><stop offset="0.21" stop-color="#4b66f4"/><stop offset="0.51" stop-color="#4153e1"/><stop offset="0.86" stop-color="#3133c3"/><stop offset="0.9" stop-color="#2f2fbf"/><stop offset="1" stop-color="#2f2fbf"/></radialGradient><clipPath id="clip-path-8"><polygon class="cls-1" points="33.56 104.72 36.69 104.97 35.16 91.66 30.46 81.27 33.56 104.72"/></clipPath><radialGradient id="Dégradé_sans_nom_27" cx="-427.67" cy="-742.82" r="1" gradientTransform="matrix(8.66, 0, 0, -8.66, 3738.14, -6341.34)" gradientUnits="userSpaceOnUse"><stop offset="0" stop-color="#4a93ff"/><stop offset="0.01" stop-color="#4a93ff"/><stop offset="0.36" stop-color="#62a0fe"/><stop offset="0.73" stop-color="#75aafc"/><stop offset="0.99" stop-color="#7caefc"/><stop offset="1" stop-color="#7caefc"/></radialGradient><clipPath id="clip-path-9"><polygon class="cls-1" points="48.31 128.78 53.65 133.4 36.69 104.97 33.56 104.72 48.31 128.78"/></clipPath><radialGradient id="Dégradé_sans_nom_26" cx="-443.52" cy="-714.35" r="1" gradientTransform="matrix(12.38, 0, 0, -12.38, 5534.12, -8724.19)" gradientUnits="userSpaceOnUse"><stop offset="0" stop-color="#4a93ff"/><stop offset="0.01" stop-color="#4a93ff"/><stop offset="0.1" stop-color="#4e91ff"/><stop offset="0.63" stop-color="#618afd"/><stop offset="0.99" stop-color="#6887fc"/><stop offset="1" stop-color="#6887fc"/></radialGradient><clipPath id="clip-path-10"><polygon class="cls-1" points="46.03 69.67 37.95 81.82 35.16 91.66 36.69 104.97 53.65 133.4 68.98 126.46 51.67 65.19 46.03 69.67"/></clipPath><radialGradient id="Dégradé_sans_nom_7" cx="-471.47" cy="-664.15" r="1" gradientTransform="matrix(50.9, 0, 0, -50.9, 24060.31, -33680.89)" gradientUnits="userSpaceOnUse"><stop offset="0" stop-color="#40a5fe"/><stop offset="0.01" stop-color="#40a5fe"/><stop offset="0.18" stop-color="#3f9efc"/><stop offset="0.42" stop-color="#3b8bf6"/><stop offset="0.7" stop-color="#356bed"/><stop offset="0.95" stop-color="#2f4ae3"/><stop offset="1" stop-color="#2f4ae3"/></radialGradient><clipPath id="clip-path-11"><path class="cls-1" d="M66.19,62.55,78.7,67.87c-1.06-10.82-7.63-29.16-7.63-29.16Z"/></clipPath><radialGradient id="Dégradé_sans_nom_8" cx="-434.91" cy="-718.35" r="1" gradientTransform="matrix(11.22, 0, 0, -11.22, 4951.21, -8004.99)" gradientUnits="userSpaceOnUse"><stop offset="0" stop-color="#4a77ff"/><stop offset="0.01" stop-color="#4a77ff"/><stop offset="0.58" stop-color="#4989fd"/><stop offset="0.99" stop-color="#4890fc"/><stop offset="1" stop-color="#4890fc"/></radialGradient><clipPath id="clip-path-13"><polygon class="cls-1" points="51.67 65.19 56.98 83.97 66.52 62.28 51.67 65.19"/></clipPath><radialGradient id="Dégradé_sans_nom_25" cx="-425.49" cy="-732.9" r="1" gradientTransform="matrix(9.29, 0, 0, -9.29, 4013.96, -6739.04)" gradientUnits="userSpaceOnUse"><stop offset="0" stop-color="#4a65ff"/><stop offset="0.2" stop-color="#4a65ff"/><stop offset="0.5" stop-color="#5280fd"/><stop offset="0.79" stop-color="#5793fc"/><stop offset="0.99" stop-color="#599afc"/><stop offset="1" stop-color="#599afc"/></radialGradient><clipPath id="clip-path-15"><rect class="cls-1" x="35.16" y="65.19" width="33.82" height="68.21"/></clipPath><clipPath id="clip-path-16"><path class="cls-2" d="M51.67,65.19,46,69.67,38,81.82l-2.79,9.84L36.68,105l17,28.43L69,126.46Zm4.09,62.53c-3.5-.48-11.1-11.44-14-17.71s-4.61-16-5.12-18.19S45,71.93,49.86,73.12,67.92,122.7,67.2,125.49c0,0-7.93,2.7-11.44,2.23"/></clipPath><radialGradient id="Dégradé_sans_nom_24" cx="-461.48" cy="-677.32" r="1" gradientTransform="matrix(26.92, 0, 0, -26.92, 12474.88, -18134)" gradientUnits="userSpaceOnUse"><stop offset="0" stop-color="#fff"/><stop offset="1" stop-color="#3856ff"/></radialGradient><clipPath id="clip-path-17"><rect class="cls-1" x="56.98" y="62.96" width="21.72" height="63.5"/></clipPath><clipPath id="clip-path-18"><path class="cls-2" d="M58.37,84c-.31,1.39,9.21,35.48,10.06,36.75s3.21-2.87,3.21-2.87L69,126.46,57,84l8.8-21L78.7,67.87v8.62s-1-7.71-1.72-8.62-7.85-2.29-9.14-1.62S59.37,79.39,58.37,84"/></clipPath><linearGradient id="Dégradé_sans_nom_12" x1="-456.93" y1="-684.34" x2="-455.93" y2="-684.34" gradientTransform="matrix(21.72, 0, 0, -21.72, 9980.97, -14768.3)" xlink:href="#Dégradé_sans_nom_24"/><clipPath id="clip-path-19"><rect class="cls-1" x="41.21" y="18.53" width="29.86" height="46.13"/></clipPath><clipPath id="clip-path-20"><path class="cls-2" d="M41.21,40.67S49.38,61.3,52.07,62.74s11.27-.15,13-4.49,5.09-17.91,4.45-21.92-7.23-17.8-7.23-17.8a83.38,83.38,0,0,1,8.81,20.18L66.19,61.53,51.67,64.67l-3.74-5.94Z"/></clipPath><linearGradient id="Dégradé_sans_nom_12-2" x1="-463.35" y1="-674.43" x2="-462.35" y2="-674.43" gradientTransform="matrix(29.86, 0, 0, -29.86, 13878.51, -20099.5)" xlink:href="#Dégradé_sans_nom_24"/><clipPath id="clip-path-21"><rect class="cls-1" x="22.47" y="10.68" width="64.38" height="130.59"/></clipPath><clipPath id="clip-path-22"><path class="cls-2" d="M53.65,133.4l-5.34-4.62L33.56,104.72l-3.1-23.45s2.12-24.58,10-42.61c0,0,12.51-15.21,21.8-20.13A166.44,166.44,0,0,1,72.89,44.06c5.58,17.39,6,27.82,6,27.82S76.58,102.29,69,126.46Z"/></clipPath><clipPath id="clip-path-23"><polygon class="cls-1" points="78.4 121.5 77.11 133.78 86.02 140.93 94.52 133.15 93.03 111.25 78.4 121.5"/></clipPath><radialGradient id="Dégradé_sans_nom_13" cx="-450.05" cy="-676.34" r="1" gradientTransform="matrix(0, 22.62, 22.62, 0, 15378.01, 10306.06)" gradientUnits="userSpaceOnUse"><stop offset="0" stop-color="#4fb1fb"/><stop offset="0.01" stop-color="#4fb1fb"/><stop offset="0.11" stop-color="#4997ef"/><stop offset="0.27" stop-color="#3f72de"/><stop offset="0.43" stop-color="#3855d0"/><stop offset="0.59" stop-color="#3340c7"/><stop offset="0.75" stop-color="#3033c1"/><stop offset="0.9" stop-color="#2f2fbf"/><stop offset="1" stop-color="#2f2fbf"/></radialGradient><clipPath id="clip-path-24"><polygon class="cls-1" points="78.4 121.5 84.52 127.82 89.7 125.82 93.03 111.25 78.4 121.5"/></clipPath><radialGradient id="Dégradé_sans_nom_23-2" cx="-401.81" cy="-721.29" r="1" gradientTransform="matrix(0, 8.74, 8.74, 0, 6393.25, 3632.88)" xlink:href="#Dégradé_sans_nom_23"/><clipPath id="clip-path-25"><polygon class="cls-1" points="89.7 125.82 94.52 133.15 93.03 111.25 89.7 125.82"/></clipPath><radialGradient id="Dégradé_sans_nom_15-2" cx="-402.81" cy="-720.35" r="1" gradientTransform="matrix(0, 8.86, 8.86, 0, 6472.46, 3691.89)" xlink:href="#Dégradé_sans_nom_15"/><clipPath id="clip-path-26"><polygon class="cls-1" points="84.52 127.82 83.76 138.1 86.02 140.93 94.52 133.15 89.7 125.82 84.52 127.82"/></clipPath><radialGradient id="Dégradé_sans_nom_16-2" cx="-390.59" cy="-731.75" r="1" gradientTransform="matrix(0, 7.65, 7.65, 0, 5687.95, 3122.23)" xlink:href="#Dégradé_sans_nom_16"/><clipPath id="clip-path-28"><rect class="cls-1" x="77.11" y="111.25" width="21.52" height="29.67"/></clipPath><clipPath id="clip-path-29"><polygon class="cls-2" points="77.11 133.78 78.4 121.5 93.03 111.25 94.52 133.15 86.02 140.93 77.11 133.78"/></clipPath></defs><g class="cls-3"><g id="tree"><g id="Rough_Diamond" data-name="Rough Diamond"><g class="cls-4"><g class="cls-4"><g class="cls-5"><rect class="cls-6" x="15.83" y="14.13" width="77.66" height="123.67" transform="translate(-18.51 17.62) rotate(-15.69)"/></g><g class="cls-7"><rect class="cls-8" x="38.96" y="17.57" width="33.62" height="48.07" transform="matrix(1, -0.07, 0.07, 1, -2.65, 3.81)"/></g><g class="cls-9"><rect class="cls-10" x="29.96" y="38.1" width="21.31" height="44.29" transform="translate(-3.92 2.84) rotate(-3.82)"/></g><g class="cls-4"><polygon class="cls-11" points="37.95 81.82 37.95 81.82 35.16 91.66 30.46 81.27 31.92 69.2 37.95 81.82"/><polygon class="cls-12" points="47.93 58.73 46.03 69.67 51.67 64.67 47.93 58.73"/></g><g class="cls-13"><rect class="cls-14" x="53.45" y="61.8" width="28.94" height="65.42" transform="translate(-6.14 4.73) rotate(-3.82)"/></g><g class="cls-15"><rect class="cls-16" x="29.68" y="81.09" width="7.79" height="24.06" transform="translate(-6.13 2.44) rotate(-3.82)"/></g><g class="cls-17"><rect class="cls-18" x="32.62" y="104.09" width="21.95" height="29.95" transform="translate(-7.83 3.17) rotate(-3.82)"/></g><g class="cls-19"><rect class="cls-20" x="32.93" y="64.14" width="38.29" height="70.32" transform="translate(-6.5 3.69) rotate(-3.82)"/></g><g class="cls-21"><rect class="cls-22" x="66.19" y="38.71" width="12.51" height="29.16"/></g><g class="cls-4"><path class="cls-12" d="M62.26,18.54s-18.72,12.71-21,22.13l6.72,18.06s-7.21-16.51-8-16.51S32,69.67,32,69.67s2.3-19.67,8.46-31c0,0,10.13-14.85,21.8-20.13"/><path class="cls-23" d="M51.67,64.67s13.69-2.34,14-2.61,5.4-23.35,5.4-23.35-4.58,23.14-4.55,23.57,12.12,5,12.12,5l.06.56S67.16,63.07,65.78,63s-14.11,2.23-14.11,2.23L46,70.32s-7.42,11.29-7.41,11.5-3.46,9.84-3.46,9.84L38,81.82,46,69.67Z"/><path class="cls-24" d="M36.68,105s16.15,26.64,17,27.35S69,126.46,69,126.46L53.65,133.4,36.12,104.92l-2.56-.2s2.12-.08,2.36-.43-.76-12.63-.76-12.63Z"/></g><g class="cls-25"><rect class="cls-26" x="51.67" y="62.28" width="14.85" height="21.69"/></g><g class="cls-4"><g class="cls-27"><g class="cls-28"><g class="cls-29"><rect class="cls-30" x="35.16" y="65.19" width="33.82" height="68.21"/></g></g></g><g class="cls-27"><g class="cls-31"><g class="cls-32"><rect class="cls-33" x="56.98" y="62.96" width="21.72" height="63.5"/></g></g></g><g class="cls-34"><g class="cls-35"><g class="cls-36"><rect class="cls-37" x="41.21" y="18.53" width="29.86" height="46.13"/></g></g></g><path class="cls-38" d="M60.76,123.79a.67.67,0,0,1-1.34,0,.67.67,0,1,1,1.34,0"/><path class="cls-38" d="M55.32,130a.66.66,0,0,1-.66.67.67.67,0,0,1,0-1.34.66.66,0,0,1,.66.67"/><path class="cls-38" d="M66.86,107.12a.67.67,0,1,1-.67-.67.67.67,0,0,1,.67.67"/><path class="cls-38" d="M58.31,129.3a.66.66,0,0,1-.66.67.67.67,0,1,1,0-1.34.66.66,0,0,1,.66.67"/><path class="cls-38" d="M52.54,123.12a.47.47,0,1,1-.47-.47.47.47,0,0,1,.47.47"/><path class="cls-38" d="M59.43,116.74a.33.33,0,0,1-.33.33.32.32,0,0,1-.33-.33.33.33,0,0,1,.33-.33.33.33,0,0,1,.33.33"/><path class="cls-38" d="M50.19,103.25a.33.33,0,0,1-.33.33.33.33,0,0,1-.33-.33.32.32,0,0,1,.33-.33.33.33,0,0,1,.33.33"/><path class="cls-38" d="M56.47,120.72a.33.33,0,0,1-.33.33.33.33,0,1,1,0-.66.33.33,0,0,1,.33.33"/><path class="cls-38" d="M67.19,88.18a.33.33,0,0,1-.33.33.33.33,0,0,1-.33-.33.32.32,0,0,1,.33-.33.33.33,0,0,1,.33.33"/><path class="cls-38" d="M52.87,126.46a.33.33,0,0,1-.33.33.33.33,0,0,1,0-.66.33.33,0,0,1,.33.33"/><g class="cls-39"><g class="cls-40"><g class="cls-41"><rect class="cls-42" x="30.46" y="18.53" width="48.39" height="114.87"/><path class="cls-43" d="M79.85,17.54v88.33h5.67Q77.42,116.49,69.14,126q-4.12,4.77-8.24,9.24v-.88H29.46V59.18H24.33a401.54,401.54,0,0,1,32.83-38q4.1-4.16,8.12-8v4.37Z"/><path class="cls-44" d="M79.85,17.54v88.24H85.4c-5.38,7-10.84,13.76-16.31,20.09q-4.11,4.75-8.22,9.21v-.68H29.46V59.27h-5a400.88,400.88,0,0,1,32.7-37.89q4.08-4.14,8.09-7.94v4.1Z"/><path class="cls-45" d="M79.85,17.54v88.15h5.43c-5.36,7-10.8,13.7-16.25,20q-4.09,4.74-8.18,9.17v-.47H29.46v-75H24.57A401.69,401.69,0,0,1,57.14,21.62q4.06-4.11,8.06-7.91v3.83Z"/><path class="cls-46" d="M79.85,17.54V105.6h5.31c-5.33,7-10.75,13.65-16.18,19.93q-4.08,4.71-8.15,9.13v-.26H29.46V59.45H24.69A398.3,398.3,0,0,1,57.13,21.86q4-4.09,8-7.87v3.55Z"/><path class="cls-47" d="M79.85,17.54v88H85c-5.31,7-10.71,13.59-16.12,19.85q-4.07,4.7-8.12,9.1v-.06H29.46V59.54H24.81A396.42,396.42,0,0,1,57.13,22.1q4-4.08,8-7.84v3.28Z"/><path class="cls-48" d="M79.85,17.54v87.88h5.07c-5.29,6.93-10.67,13.54-16.06,19.77q-4,4.68-8.08,9.06-2,2.19-4,4.31V134.4H29.46V59.63H24.93A395.77,395.77,0,0,1,57.12,22.34q4-4.07,8-7.81v3Z"/><path class="cls-49" d="M79.85,17.54v87.78h5c-5.27,6.91-10.62,13.49-16,19.7q-4,4.65-8.05,9-2,2.19-4,4.29V134.4H29.46V59.72H25.05A395.12,395.12,0,0,1,57.11,22.58q4-4,7.93-7.78v2.74Z"/><path class="cls-50" d="M79.85,17.54v87.69h4.83c-5.25,6.88-10.58,13.44-15.93,19.62q-4,4.64-8,9c-1.33,1.44-2.67,2.87-4,4.27V134.4H29.46V59.82H25.17a390.86,390.86,0,0,1,31.93-37q4-4,7.9-7.76v2.47Z"/><path class="cls-51" d="M79.85,17.54v87.6h4.71C79.33,112,74,118.52,68.7,124.68q-4,4.62-8,8.95-2,2.16-4,4.25V134.4H29.46V59.91H25.29a388.75,388.75,0,0,1,31.8-36.84q4-4,7.87-7.72v2.19Z"/><path class="cls-52" d="M79.85,17.54v87.51h4.59c-5.21,6.82-10.5,13.32-15.8,19.46-2.65,3.06-5.3,6-8,8.91q-2,2.16-4,4.24V134.4H29.46V60H25.41A389.55,389.55,0,0,1,57.08,23.31q3.95-4,7.84-7.69v1.92Z"/><path class="cls-53" d="M79.85,17.54V105h4.47c-5.19,6.79-10.45,13.27-15.74,19.38q-4,4.57-7.92,8.88c-1.32,1.43-2.63,2.83-3.95,4.21v-3H29.46V60.09H25.53A387.63,387.63,0,0,1,57.07,23.55q3.93-4,7.81-7.66v1.65Z"/><path class="cls-54" d="M79.85,17.54v87.33H84.2a385.75,385.75,0,0,1-31.42,36.39V134.4H29.46V60.18H25.65A385.71,385.71,0,0,1,57.06,23.79q3.91-4,7.78-7.63v1.38Z"/><path class="cls-55" d="M79.85,17.54v87.24h4.23A385.09,385.09,0,0,1,52.79,141V134.4H29.46V60.27H25.77A383.63,383.63,0,0,1,57.06,24c2.59-2.64,5.18-5.17,7.74-7.6v1.11Z"/><path class="cls-56" d="M79.85,17.54v87.14H84a382.09,382.09,0,0,1-31.16,36.1V134.4H29.46v-74H25.89a380.64,380.64,0,0,1,31.16-36.1c2.58-2.63,5.16-5.15,7.7-7.56v.83Z"/><path class="cls-57" d="M79.85,17.54v87.05h4a381.43,381.43,0,0,1-31,35.95V134.4H29.46V60.46H26A381.43,381.43,0,0,1,57,24.51c2.57-2.62,5.14-5.13,7.67-7.53v.56Z"/><path class="cls-58" d="M79.85,17.54v87h3.87a379.51,379.51,0,0,1-30.9,35.8v-5.9H29.46V60.55H26.13A379.51,379.51,0,0,1,57,24.75c2.56-2.6,5.11-5.11,7.64-7.5v.29Z"/><path class="cls-59" d="M79.85,17.54v86.87H83.6a380.32,380.32,0,0,1-30.77,35.65V134.4H29.46V60.64H26.25A377.39,377.39,0,0,1,57,25C62.13,19.8,67.18,15,72.11,10.7v6.84Z"/><path class="cls-60" d="M79.85,17.54v86.78h3.63a376.93,376.93,0,0,1-30.64,35.5V134.4H29.46V60.73H26.37A376.93,376.93,0,0,1,57,25.23C62.1,20.06,67.13,15.31,72,11v6.54Z"/><path class="cls-61" d="M79.85,17.54v86.69h3.51a373.6,373.6,0,0,1-30.52,35.35V134.4H29.46V60.82h-3A375,375,0,0,1,57,25.47c5.07-5.14,10.08-9.88,15-14.17v6.24Z"/><path class="cls-62" d="M79.85,17.54v86.59h3.39a373.31,373.31,0,0,1-30.39,35.21V134.4H29.46V60.92H26.61A374.73,374.73,0,0,1,57,25.71c5-5.12,10-9.84,14.9-14.11v5.94Z"/><path class="cls-63" d="M79.85,17.54V104h3.27A371.39,371.39,0,0,1,52.86,139.1v-4.7H29.46V61H26.73A371.39,371.39,0,0,1,57,26c5-5.1,10-9.8,14.83-14v5.64Z"/><path class="cls-64" d="M79.85,17.54V104H83a370.75,370.75,0,0,1-30.13,34.9V134.4H29.46V61.1H26.85A367.85,367.85,0,0,1,57,26.2c5-5.09,10-9.77,14.77-14v5.34Z"/><path class="cls-65" d="M79.85,17.54v86.32h3a367.38,367.38,0,0,1-30,34.75V134.4H29.46V61.19H27A367.38,367.38,0,0,1,57,26.44c5-5.06,9.9-9.72,14.71-13.93v5Z"/><path class="cls-66" d="M79.85,17.54v86.23h2.91a365.46,365.46,0,0,1-29.87,34.6v-4H29.46V61.28H27.09A366.72,366.72,0,0,1,57,26.68c5-5,9.86-9.68,14.65-13.87v4.73Z"/><path class="cls-67" d="M79.85,17.54v86.14h2.79A366.26,366.26,0,0,1,52.9,138.13V134.4H29.46v-73H27.21A366.26,366.26,0,0,1,57,26.92c4.94-5,9.82-9.64,14.58-13.81v4.43Z"/><path class="cls-68" d="M79.85,17.54v86.05h2.67a365.61,365.61,0,0,1-29.61,34.3V134.4H29.46V61.47H27.33A363.06,363.06,0,0,1,56.94,27.16c4.92-5,9.78-9.6,14.52-13.75v4.13Z"/><path class="cls-69" d="M79.85,17.54v85.95H82.4a361.18,361.18,0,0,1-29.49,34.16V134.4H29.46V61.56h-2A361.14,361.14,0,0,1,56.93,27.4c4.9-5,9.74-9.55,14.46-13.69v3.83Z"/><path class="cls-70" d="M79.85,17.54V103.4h2.43a359.26,359.26,0,0,1-29.36,34v-3H29.46V61.65H27.57a360.67,360.67,0,0,1,29.35-34c4.88-4.95,9.7-9.51,14.4-13.63v3.53Z"/><path class="cls-71" d="M79.85,17.54v85.77h2.31a358.6,358.6,0,0,1-29.23,33.86V134.4H29.46V61.74H27.69A358.6,358.6,0,0,1,56.92,27.88c4.85-4.93,9.65-9.47,14.33-13.57v3.23Z"/><path class="cls-72" d="M79.85,17.54v85.68H82a359.41,359.41,0,0,1-29.1,33.71V134.4H29.46V61.83H27.81a356.68,356.68,0,0,1,29.1-33.71c4.83-4.91,9.6-9.43,14.27-13.51v2.93Z"/><path class="cls-73" d="M79.85,17.54v85.59h2.07a354.76,354.76,0,0,1-29,33.56V134.4H29.46V61.92H27.93a354.76,354.76,0,0,1,29-33.56c4.81-4.88,9.56-9.38,14.2-13.45v2.63Z"/><path class="cls-74" d="M79.85,17.54V103h2A355.57,355.57,0,0,1,53,136.45v-2H29.46V62H28.05A354.1,354.1,0,0,1,56.89,28.6c4.79-4.86,9.52-9.34,14.14-13.39v2.33Z"/><path class="cls-75" d="M79.85,17.54v85.4h1.83A353.82,353.82,0,0,1,53,136.21V134.4H29.46V62.11H28.17A353.82,353.82,0,0,1,56.88,28.84C61.65,24,66.36,19.54,71,15.51v2Z"/><path class="cls-76" d="M79.85,17.54v85.31h1.71A350.64,350.64,0,0,1,53,136V134.4H29.46V62.2H28.29A350.44,350.44,0,0,1,56.87,29.08c4.75-4.82,9.44-9.26,14-13.27v1.73Z"/><path class="cls-77" d="M79.85,17.54v85.22h1.59a348.58,348.58,0,0,1-28.46,33V134.4H29.46V62.29H28.41a350,350,0,0,1,28.45-33c4.73-4.79,9.4-9.21,14-13.21v1.43Z"/><path class="cls-78" d="M79.85,17.54v85.13h1.47A346.47,346.47,0,0,1,53,135.48V134.4H29.46v-72h-.93A347.88,347.88,0,0,1,56.85,29.57c4.71-4.78,9.36-9.18,13.89-13.16v1.13Z"/><path class="cls-79" d="M79.85,17.54v85H81.2A347.27,347.27,0,0,1,53,135.24v-.84H29.46V62.47h-.81a345.81,345.81,0,0,1,28.2-32.66c4.68-4.76,9.31-9.14,13.82-13.1v.83Z"/><path class="cls-80" d="M79.85,17.54v84.95h1.23A344.08,344.08,0,0,1,53,135v-.6H29.46V62.56h-.69A344.08,344.08,0,0,1,56.84,30.05q7-7.11,13.76-13v.53Z"/><path class="cls-81" d="M79.85,17.54v84.85H81A342.34,342.34,0,0,1,53,134.76v-.36H29.46V62.66h-.57A340.9,340.9,0,0,1,56.83,30.29q7-7.07,13.7-13v.23Z"/><path class="cls-82" d="M79.85,17.54V102.3h1A341.68,341.68,0,0,1,53,134.52v-.12H29.46V62.75H29A341.68,341.68,0,0,1,56.82,30.53q6.93-7,13.64-12.92,3.33-2.92,6.59-5.54v5.47Z"/><path class="cls-83" d="M79.85,17.54v84.67h.87A339.76,339.76,0,0,1,53,134.28c-2.3,2.33-4.59,4.58-6.85,6.72v-6.6H29.46V62.84h-.33A339.76,339.76,0,0,1,56.81,30.77c4.6-4.67,9.14-9,13.57-12.86Q73.71,15,76.94,12.4v5.14Z"/><path class="cls-84" d="M79.85,17.54v84.58h.75A339.3,339.3,0,0,1,53.05,134c-2.29,2.32-4.57,4.56-6.82,6.69V134.4H29.46V62.93h-.21A337.84,337.84,0,0,1,56.8,31c4.58-4.65,9.1-8.93,13.51-12.79q3.31-2.91,6.53-5.5v4.82Z"/><path class="cls-85" d="M79.85,17.54V102h.63A337.23,337.23,0,0,1,53.05,133.8c-2.27,2.31-4.54,4.53-6.78,6.66V134.4H29.46V63h-.09A337.19,337.19,0,0,1,56.79,31.25c4.56-4.62,9.06-8.88,13.45-12.74,2.2-1.92,4.36-3.74,6.5-5.46v4.49Z"/><path class="cls-86" d="M79.85,17.54v84.4h.51a335.11,335.11,0,0,1-27.3,31.62c-2.26,2.3-4.52,4.51-6.75,6.62V134.4H29.46V71.92H23q3.15-4.4,6.52-8.81A336.54,336.54,0,0,1,56.78,31.49c4.53-4.6,9-8.84,13.39-12.67q3.27-2.88,6.47-5.44v4.16Z"/><path class="cls-87" d="M79.85,17.54v84.31h.39a333.39,333.39,0,0,1-27.17,31.47c-2.25,2.29-4.5,4.49-6.72,6.59V134.4H29.46V72H23.12q3.14-4.36,6.49-8.77A334.81,334.81,0,0,1,56.77,31.73c4.52-4.58,9-8.8,13.33-12.61,2.17-1.91,4.32-3.72,6.43-5.42v3.84Z"/><path class="cls-88" d="M79.85,17.54v84.21h.27a331.65,331.65,0,0,1-27,31.33c-2.24,2.28-4.48,4.47-6.69,6.56V134.4H29.46V72H23.28c2.07-2.9,4.23-5.81,6.45-8.72A331.65,331.65,0,0,1,56.77,32c4.48-4.56,8.92-8.76,13.25-12.55q3.26-2.85,6.41-5.39v3.51Z"/><path class="cls-89" d="M79.85,17.54v84.12H80a332.46,332.46,0,0,1-26.91,31.18q-3.35,3.41-6.66,6.53v-5h-17V72.07h-6c2.06-2.89,4.21-5.78,6.42-8.68A329.54,329.54,0,0,1,56.76,32.21C61.22,27.68,65.64,23.5,70,19.72q3.24-2.84,6.38-5.36v3.18Z"/><path class="cls-90" d="M79.85,17.54v84h0a329.07,329.07,0,0,1-26.78,31c-2.22,2.25-4.44,4.42-6.63,6.5v-4.7h-17V72.12H23.58c2.06-2.87,4.19-5.76,6.39-8.64a329.07,329.07,0,0,1,26.78-31c4.44-4.51,8.84-8.67,13.13-12.43,2.15-1.88,4.26-3.66,6.35-5.34v2.86Z"/><path class="cls-91" d="M79.85,17.54V92.88h6.27q-3.08,4.29-6.36,8.6a325.72,325.72,0,0,1-26.65,30.87q-3.31,3.38-6.6,6.48V134.4h-17V72.17H23.73q3.07-4.29,6.36-8.6A327.15,327.15,0,0,1,56.74,32.69c4.42-4.49,8.8-8.63,13.07-12.37,2.13-1.87,4.24-3.64,6.31-5.31v2.53Z"/><path class="cls-92" d="M79.85,17.54V92.83H86q-3.06,4.28-6.33,8.56a326.51,326.51,0,0,1-26.52,30.72q-3.32,3.36-6.56,6.44V134.4H29.46V72.22H23.88q3.06-4.27,6.33-8.56c17.44-22.85,36-41.42,51.89-53Z"/><path class="cls-93" d="M79.85,17.54V92.78h6q-3,4.25-6.3,8.52a323.18,323.18,0,0,1-26.4,30.57q-3.28,3.34-6.52,6.41V134.4H29.46V72.27H24q3-4.24,6.3-8.52C47.68,41,66.15,22.53,82,11Z"/><path class="cls-94" d="M79.85,17.54V92.73h5.82q-3,4.23-6.27,8.47a321.44,321.44,0,0,1-26.27,30.43Q49.86,135,46.64,138V134.4H29.46V72.32H24.18q3-4.23,6.27-8.47c17.27-22.63,35.64-41,51.39-52.48Z"/><path class="cls-95" d="M79.85,17.54V92.68h5.67c-2,2.8-4.09,5.62-6.24,8.43a319.52,319.52,0,0,1-26.14,30.28q-3.26,3.31-6.46,6.35V134.4H29.46v-62H24.33c2-2.8,4.09-5.62,6.24-8.43C47.75,41.42,66,23.11,81.71,11.72Z"/><path class="cls-96" d="M79.85,17.54V92.63h5.52q-3,4.19-6.21,8.39a318.86,318.86,0,0,1-26,30.13q-3.24,3.28-6.43,6.32V134.4H29.46v-62h-5q3-4.19,6.21-8.39c17.1-22.41,35.29-40.62,50.88-52Z"/><path class="cls-97" d="M79.85,17.54v75h5.37q-3,4.17-6.18,8.35a318.39,318.39,0,0,1-25.88,30q-3.22,3.27-6.4,6.28V134.4H29.46V72.47H24.63q3-4.17,6.18-8.35c17-22.3,35.12-40.42,50.63-51.7Z"/><path class="cls-98" d="M79.85,17.54v75h5.21q-3,4.14-6.14,8.31a316.47,316.47,0,0,1-25.75,29.83q-3.21,3.26-6.37,6.25V134.4H29.46V72.52H24.78c2-2.76,4-5.54,6.15-8.31C47.86,42,65.87,24,81.31,12.77Z"/><path class="cls-99" d="M79.85,17.54V92.48h5.06q-3,4.13-6.11,8.27a315.82,315.82,0,0,1-25.62,29.68q-3.19,3.24-6.34,6.22V134.4H29.46V72.57H24.93q3-4.12,6.12-8.27c16.84-22.07,34.77-40,50.13-51.18Z"/><path class="cls-100" d="M79.85,17.54V92.43h4.91q-2.94,4.11-6.08,8.22a312.81,312.81,0,0,1-25.49,29.54q-3.18,3.23-6.31,6.19v-2H29.46V72.62H25.08q2.94-4.09,6.09-8.23c16.76-22,34.59-39.81,49.88-50.92Z"/><path class="cls-101" d="M79.85,17.54V92.38h4.76q-2.92,4.08-6,8.18A312.16,312.16,0,0,1,53.2,130q-3.16,3.21-6.28,6.16V134.4H29.46V72.67H25.23q2.93-4.08,6.06-8.18C48,42.64,65.71,24.87,80.91,13.81Z"/><path class="cls-102" d="M79.85,17.54V92.33h4.61q-2.91,4.07-6,8.14A310.27,310.27,0,0,1,53.2,129.71q-3.14,3.19-6.24,6.12V134.4H29.46V72.72H25.39q2.91-4.06,6-8.14C48,42.84,65.65,25.16,80.78,14.16Z"/><path class="cls-103" d="M79.85,17.54V92.28h4.46c-1.93,2.69-3.93,5.4-6,8.1a306.9,306.9,0,0,1-25.11,29.09C49,133.7,44.92,137.6,40.9,141.13V134.4H29.46V72.77H25.54c1.93-2.69,3.92-5.4,6-8.1C48,43,65.6,25.46,80.65,14.51Z"/><path class="cls-104" d="M79.85,17.54V92.23h4.31q-2.88,4-6,8.06a307.7,307.7,0,0,1-25,28.94C49.08,133.44,45,137.32,41,140.82V134.4H29.46V72.82H25.69q2.88-4,6-8.06c16.42-21.52,33.89-39,48.87-49.9Z"/><path class="cls-105" d="M79.85,17.54V92.18H84q-2.87,4-5.93,8A305.6,305.6,0,0,1,53.23,129c-4.12,4.2-8.21,8.06-12.18,11.54V134.4H29.46V72.87H25.84q2.86-4,5.93-8C48.11,43.44,65.49,26,80.39,15.21Z"/><path class="cls-106" d="M79.85,17.54V92.13h4q-2.85,4-5.9,8a303.68,303.68,0,0,1-24.72,28.63c-4.1,4.17-8.16,8-12.12,11.48V134.4H29.46V72.92H26q2.85-4,5.9-8C48.14,43.65,65.43,26.33,80.25,15.56Z"/><path class="cls-107" d="M79.85,17.54V92.08h3.86q-2.83,4-5.87,7.93A300.68,300.68,0,0,1,53.25,128.5c-4.08,4.15-8.12,8-12.06,11.42V134.4H29.46V73H26.14Q29,69,32,65C48.18,43.85,65.38,26.63,80.12,15.91Z"/><path class="cls-108" d="M79.85,17.54V92h3.71c-1.88,2.62-3.83,5.26-5.84,7.89a300,300,0,0,1-24.46,28.34c-4.06,4.13-8.08,7.93-12,11.36V134.4H29.46V73H26.29c1.88-2.62,3.83-5.26,5.84-7.89C48.21,44.05,65.32,26.92,80,16.26Z"/><path class="cls-109" d="M79.85,17.54V92h3.56q-2.8,3.92-5.81,7.85A300.83,300.83,0,0,1,53.27,128c-4,4.11-8,7.89-11.94,11.3V134.4H29.46V73.07h-3q2.8-3.91,5.81-7.85c16-21,33-38,47.61-48.62Z"/><path class="cls-110" d="M79.85,17.54V91.93h3.41q-2.79,3.9-5.78,7.81a296.22,296.22,0,0,1-24.21,28c-4,4.08-8,7.84-11.87,11.24V134.4H29.46V73.12H26.59q2.79-3.9,5.78-7.81C48.28,44.46,65.22,27.51,79.73,17v.59Z"/><path class="cls-111" d="M79.85,17.54V91.88h3.26c-1.86,2.58-3.77,5.18-5.75,7.77a295.56,295.56,0,0,1-24.08,27.89c-4,4.06-8,7.8-11.8,11.18V134.4h-12V73.17H26.74q2.78-3.87,5.75-7.77c15.83-20.74,32.67-37.6,47.1-48.1v.24Z"/><path class="cls-112" d="M79.85,17.54V91.83H83q-2.76,3.86-5.71,7.73A294.91,294.91,0,0,1,53.29,127.3c-4,4-7.91,7.76-11.74,11.12v-4H29.46V73.22H26.89q2.76-3.85,5.72-7.73c15.74-20.63,32.5-37.4,46.85-47.84,1.8-1.3,3.55-2.51,5.27-3.61Z"/><path class="cls-113" d="M79.85,17.54V91.78h3q-2.74,3.84-5.68,7.68a291.9,291.9,0,0,1-23.82,27.6c-3.95,4-7.86,7.72-11.68,11.06V134.4H29.46V73.27H27c1.83-2.55,3.73-5.12,5.69-7.68C48.39,45.06,65.05,28.38,79.33,18c1.79-1.3,3.53-2.5,5.24-3.59Z"/><path class="cls-114" d="M79.85,17.54V91.73h2.8Q79.92,95.54,77,99.37a291.44,291.44,0,0,1-23.69,27.45c-3.93,4-7.82,7.67-11.62,11V134.4H29.46V73.32H27.19q2.74-3.81,5.66-7.64C48.42,45.27,65,28.68,79.2,18.35q2.65-1.94,5.21-3.58Z"/><path class="cls-115" d="M79.85,17.54V91.68H82.5q-2.72,3.79-5.62,7.6a290.79,290.79,0,0,1-23.56,27.3c-3.91,4-7.78,7.63-11.56,10.94V134.4H29.46v-61H27.34q2.73-3.8,5.63-7.6c15.49-20.3,32-36.8,46.1-47.07,1.76-1.29,3.49-2.47,5.18-3.56Z"/><path class="cls-116" d="M79.85,17.54V91.63h2.5c-1.8,2.51-3.66,5-5.59,7.56a288.67,288.67,0,0,1-23.43,27.15c-3.89,3.95-7.74,7.59-11.49,10.88V134.4H29.46v-61h-2c1.8-2.51,3.66-5,5.59-7.56,15.4-20.19,31.8-36.6,45.84-46.81q2.64-1.92,5.16-3.54Z"/><path class="cls-117" d="M79.85,17.54v74H82.2q-2.69,3.75-5.56,7.52a287,287,0,0,1-23.3,27c-3.87,3.93-7.7,7.55-11.43,10.82V134.4H29.46V80.94h-7c3.32-5,6.91-10,10.74-15C48.53,45.87,64.83,29.55,78.8,19.4c1.75-1.27,3.46-2.45,5.13-3.52Z"/><path class="cls-118" d="M79.85,17.54v74h2.2Q79.38,95.26,76.52,99a284.87,284.87,0,0,1-23.18,26.85c-3.84,3.9-7.65,7.5-11.36,10.76V134.4H29.46V81H22.65C26,76,29.52,71,33.33,66c15.23-20,31.45-36.19,45.34-46.3,1.74-1.26,3.44-2.43,5.1-3.49Z"/><path class="cls-119" d="M79.85,17.54V91.48H81.9q-2.66,3.7-5.5,7.44a284.23,284.23,0,0,1-23.05,26.69c-3.82,3.89-7.61,7.47-11.3,10.71V134.4H29.46V81H22.82c3.29-4.9,6.84-9.86,10.63-14.82,15.15-19.86,31.27-36,45.09-46q2.59-1.87,5.07-3.47Z"/><path class="cls-120" d="M79.85,17.54V84.08h7C83.58,89,80.05,93.89,76.28,98.82a279.78,279.78,0,0,1-22.92,26.55c-3.8,3.87-7.57,7.43-11.24,10.65V134.4H29.46V81H23c3.27-4.87,6.8-9.81,10.57-14.74,15.07-19.75,31.1-35.8,44.84-45.79,1.71-1.25,3.4-2.4,5-3.46Z"/><path class="cls-121" d="M79.85,17.54V84.07h6.81q-4.87,7.28-10.5,14.66a277.86,277.86,0,0,1-22.79,26.4c-3.78,3.85-7.52,7.39-11.17,10.59V134.4H29.46V81H23.18q4.88-7.28,10.51-14.66c15-19.64,30.92-35.6,44.59-45.53,1.7-1.24,3.38-2.39,5-3.44Z"/><path class="cls-122" d="M79.85,17.54V84.06h6.63c-3.23,4.82-6.71,9.7-10.44,14.58a278.65,278.65,0,0,1-22.66,26.25c-3.76,3.82-7.48,7.34-11.11,10.53v-1H29.46V81h-6.1c3.23-4.81,6.72-9.69,10.45-14.57C48.71,46.89,64.56,31,78.14,21.14q2.55-1.86,5-3.42H79.85Z"/><path class="cls-123" d="M79.85,17.54V84.06h6.46c-3.22,4.79-6.69,9.64-10.39,14.49a276.73,276.73,0,0,1-22.53,26.1c-3.74,3.8-7.44,7.3-11,10.47v-.72H29.46V81H23.54c3.21-4.79,6.68-9.64,10.39-14.49C48.74,47.09,64.5,31.31,78,21.49q2.53-1.84,4.95-3.4H79.85Z"/><path class="cls-124" d="M79.85,17.54V84.05h6.28c-3.2,4.76-6.65,9.58-10.33,14.41a274.81,274.81,0,0,1-22.4,26c-3.72,3.78-7.4,7.26-11,10.4v-.41H29.46V81H23.72c3.2-4.76,6.64-9.58,10.33-14.41,14.73-19.3,30.4-35,43.83-44.75Q80.4,20,82.8,18.46h-3Z"/><path class="cls-125" d="M79.85,17.54V84H86c-3.18,4.73-6.61,9.53-10.27,14.33a274.15,274.15,0,0,1-22.27,25.8c-3.7,3.76-7.36,7.22-10.93,10.34v-.11h-13V81H23.9c3.18-4.73,6.61-9.53,10.27-14.33C48.81,47.49,64.39,31.89,77.75,22.19q2.5-1.83,4.89-3.36H79.85Z"/><path class="cls-126" d="M79.85,17.54V84h5.92Q81,91.1,75.56,98.27a271,271,0,0,1-22.15,25.66c-3.67,3.73-7.31,7.17-10.85,10.28q-2.67,2.34-5.25,4.42V134.4H29.46V81H24.08Q28.82,74,34.29,66.78C48.85,47.7,64.34,32.19,77.62,22.53c1.65-1.2,3.28-2.32,4.86-3.34H79.85Z"/><path class="cls-127" d="M79.85,17.54V84h5.74c-3.14,4.68-6.53,9.42-10.15,14.16a270.53,270.53,0,0,1-22,25.51c-3.65,3.71-7.27,7.13-10.79,10.22q-2.66,2.33-5.22,4.39v-3.9H29.46V81h-5.2c3.14-4.68,6.53-9.42,10.15-14.16,14.47-19,29.87-34.39,43.07-44,1.65-1.2,3.27-2.31,4.84-3.32H79.85Z"/><path class="cls-128" d="M79.85,17.54V84h5.56c-3.12,4.66-6.49,9.37-10.09,14.08a268.61,268.61,0,0,1-21.89,25.36c-3.63,3.69-7.23,7.09-10.73,10.16q-2.62,2.31-5.19,4.36V134.4h-8V81h-5c3.12-4.65,6.49-9.37,10.09-14.08C48.92,48.1,64.23,32.77,77.35,23.23a89.83,89.83,0,0,1,9.38-6Z"/><path class="cls-129" d="M79.85,17.54V84h5.38c-3.1,4.63-6.45,9.31-10,14a268,268,0,0,1-21.76,25.21c-3.61,3.67-7.18,7-10.67,10.1q-2.61,2.3-5.15,4.34V134.4H29.46V81.05H24.62c3.1-4.63,6.45-9.31,10-14,14.3-18.74,29.52-34,42.57-43.47a89.51,89.51,0,0,1,9.33-6h-6.7Z"/><path class="cls-130" d="M79.85,17.54V84h5.2c-3.08,4.59-6.41,9.25-10,13.91-14.22,18.63-29.35,33.78-42.32,43.21V134.4h-3.3V81.06H24.8c3.08-4.6,6.41-9.26,10-13.92C49,48.51,64.12,33.36,77.09,23.93a86.74,86.74,0,0,1,9.27-6H79.85Z"/><path class="cls-131" d="M79.85,17.54V84h5c-3.06,4.57-6.38,9.2-9.91,13.83-14.14,18.52-29.18,33.58-42.07,43V134.4H29.46V81.06H25c3.06-4.57,6.37-9.2,9.91-13.83C49,48.71,64.07,33.65,77,24.28a87.35,87.35,0,0,1,9.21-5.93H79.85Z"/><path class="cls-132" d="M79.85,17.54V84h4.84c-3,4.54-6.34,9.14-9.85,13.74-14.05,18.42-29,33.39-41.82,42.7v-6H29.46V81.07h-4.3c3-4.54,6.33-9.14,9.85-13.74,14.05-18.42,29-33.39,41.81-42.7A88.13,88.13,0,0,1,86,18.73H79.85Z"/><path class="cls-133" d="M79.85,17.54V84h4.66c-3,4.51-6.3,9.09-9.79,13.66-14,18.31-28.83,33.18-41.56,42.44V134.4h-3.7V81.08H25.34c3-4.51,6.3-9.09,9.79-13.66C49.09,49.11,64,34.24,76.69,25a87,87,0,0,1,9.11-5.86h-6Z"/><path class="cls-134" d="M79.85,17.54V84h4.48c-3,4.49-6.26,9-9.73,13.58-13.88,18.19-28.65,33-41.31,42.19V134.4H29.46V81.09H25.51c3-4.49,6.27-9,9.74-13.58,13.88-18.19,28.65-33,41.31-42.19a86.37,86.37,0,0,1,9-5.82H79.85Z"/><path class="cls-135" d="M79.85,17.54V84h4.3c-3,4.46-6.22,9-9.67,13.5C60.68,115.53,46,130.23,33.42,139.38v-5h-4V81.1H25.69c3-4.46,6.23-9,9.68-13.5,13.8-18.08,28.48-32.78,41.06-41.93a86.84,86.84,0,0,1,9-5.78H79.85Z"/><path class="cls-136" d="M79.85,17.54v66.4H84c-3,4.44-6.18,8.93-9.61,13.42-13.71,18-28.3,32.58-40.81,41.67V134.4H29.46V81.11H25.87c3-4.44,6.19-8.93,9.62-13.42C49.2,49.72,63.79,35.11,76.3,26a84.87,84.87,0,0,1,8.94-5.75H79.85Z"/><path class="cls-136" d="M79.85,17.85V83.93h3.94c-3,4.41-6.14,8.87-9.55,13.34-13.63,17.85-28.13,32.37-40.56,41.41V134.4H29.46V81.12H26.05c3-4.41,6.15-8.87,9.56-13.34C49.24,49.92,63.74,35.41,76.16,26.37a84.81,84.81,0,0,1,8.89-5.71h-5.2Z"/><path class="cls-137" d="M79.85,18.26V83.93h3.77c-2.94,4.37-6.11,8.81-9.5,13.25-13.54,17.74-28,32.17-40.31,41.15V134.4H29.46V81.13H26.23c2.94-4.38,6.11-8.82,9.5-13.26C49.27,50.13,63.68,35.7,76,26.72A85.47,85.47,0,0,1,84.86,21h-5Z"/><path class="cls-138" d="M79.85,18.66V83.92h3.59c-2.92,4.35-6.07,8.76-9.44,13.16-13.46,17.64-27.78,32-40,40.9V134.4H29.46V81.13H26.41c2.92-4.35,6.07-8.75,9.44-13.16C49.31,50.33,63.63,36,75.9,27.07a85.14,85.14,0,0,1,8.78-5.65H79.85Z"/><path class="cls-139" d="M79.85,19.06V83.91h3.41c-2.9,4.32-6,8.7-9.38,13.08-13.37,17.53-27.61,31.78-39.8,40.64V134.4H29.46V81.14H26.59c2.9-4.32,6-8.7,9.38-13.08,13.37-17.53,27.6-31.78,39.8-40.64a82.33,82.33,0,0,1,8.72-5.61H79.85Z"/><path class="cls-139" d="M79.85,19.46V83.9h3.23c-2.88,4.3-6,8.65-9.32,13-13.29,17.42-27.43,31.57-39.55,40.38V134.4H29.46V81.15H26.77c2.88-4.3,6-8.65,9.32-13C49.38,50.73,63.52,36.58,75.64,27.77a81.36,81.36,0,0,1,8.66-5.58H79.85Z"/><path class="cls-140" d="M79.85,19.86v64H82.9c-2.87,4.27-6,8.59-9.26,12.92-13.21,17.3-27.26,31.37-39.3,40.12V134.4H29.46V81.16H27c2.86-4.27,6-8.59,9.26-12.92,13.2-17.3,27.25-31.37,39.29-40.13a84.4,84.4,0,0,1,8.61-5.53H79.85Z"/><path class="cls-141" d="M79.85,20.26V83.88h2.87c-2.85,4.24-5.92,8.54-9.2,12.84-13.12,17.19-27.08,31.17-39,39.87V134.4h-5V81.17H27.13c2.84-4.24,5.92-8.54,9.2-12.84,13.12-17.19,27.08-31.17,39-39.87A81.35,81.35,0,0,1,83.93,23H79.85Z"/><path class="cls-142" d="M79.85,20.67v63.2h2.69c-2.83,4.22-5.88,8.49-9.14,12.76-13,17.08-26.91,31-38.79,39.61V134.4H29.46V81.18H27.31c2.82-4.22,5.88-8.49,9.14-12.76,13-17.08,26.9-31,38.79-39.61a80.18,80.18,0,0,1,8.5-5.46H79.85Z"/><path class="cls-142" d="M79.85,21.07V83.86h2.51c-2.81,4.19-5.84,8.43-9.08,12.67-13,17-26.73,30.77-38.54,39.36V134.4H29.46V81.19h-2c2.81-4.19,5.84-8.43,9.08-12.67,13-17,26.73-30.77,38.54-39.36a79.21,79.21,0,0,1,8.44-5.43h-3.7Z"/><path class="cls-143" d="M79.85,21.47V83.85h2.33c-2.79,4.16-5.8,8.38-9,12.59C60.29,113.3,46.6,127,34.87,135.54V134.4H29.46V81.19H27.67c2.79-4.16,5.8-8.37,9-12.58C49.55,51.75,63.24,38,75,29.51a80.49,80.49,0,0,1,8.39-5.4H79.85Z"/><path class="cls-143" d="M79.85,21.87v62H82c-2.77,4.13-5.76,8.31-9,12.5-12.78,16.75-26.38,30.37-38,38.84v-.79H29.46V81.2H27.85c2.77-4.13,5.76-8.31,9-12.5C49.59,52,63.19,38.33,74.85,29.86a77.73,77.73,0,0,1,8.33-5.36H79.85Z"/><path class="cls-144" d="M79.85,22.27V83.84h2c-2.75,4.1-5.72,8.26-8.9,12.42-12.7,16.64-26.21,30.16-37.79,38.58v-.44H29.46V81.21H28c2.76-4.1,5.73-8.26,8.91-12.42,12.69-16.64,26.2-30.16,37.78-38.58A79.44,79.44,0,0,1,83,24.88H79.85Z"/><path class="cls-145" d="M79.85,22.67V83.83h1.79C78.91,87.91,76,92,72.8,96.17c-12.61,16.52-26,30-37.53,38.32v-.09H29.46V81.22H28.2c2.74-4.08,5.69-8.21,8.85-12.34,12.61-16.53,26-30,37.53-38.32a78.27,78.27,0,0,1,8.22-5.29h-3Z"/><path class="cls-145" d="M79.85,23.08V83.82h1.61c-2.71,4.05-5.65,8.15-8.78,12.26-12.53,16.41-25.86,29.76-37.28,38.06a77.94,77.94,0,0,1-8.17,5.26l2.23-5V81.23H28.38c2.72-4,5.65-8.15,8.79-12.26C49.7,52.56,63,39.21,74.45,30.91a77.94,77.94,0,0,1,8.17-5.26H79.85Z"/><path class="cls-146" d="M79.85,23.48V83.81h1.43c-2.69,4-5.61,8.1-8.72,12.17-12.44,16.31-25.68,29.57-37,37.82A76.59,76.59,0,0,1,27.42,139l2-4.61V81.24h-.9q4.05-6,8.73-12.18C49.73,52.76,63,39.5,74.32,31.25A75.58,75.58,0,0,1,82.43,26H79.85Z"/><path class="cls-146" d="M79.85,23.88V83.8H81.1c-2.68,4-5.57,8-8.66,12.09-12.36,16.2-25.51,29.36-36.78,37.56a77.29,77.29,0,0,1-8.06,5.18l1.86-4.23V81.25h-.72q4-6,8.67-12.09C49.77,53,62.92,39.8,74.19,31.6a76.18,76.18,0,0,1,8-5.18H79.85Z"/><path class="cls-147" d="M79.85,24.28V83.79h1.08c-2.67,4-5.54,8-8.61,12C60.05,111.89,47,125,35.79,133.1a76.89,76.89,0,0,1-8,5.15l1.67-3.85V81.26h-.54c2.66-4,5.54-8,8.61-12C49.8,53.16,62.86,40.09,74.05,32a77,77,0,0,1,8-5.15H79.85Z"/><path class="cls-147" d="M79.85,24.68V83.79h.9c-2.65,3.94-5.5,7.93-8.55,11.92-12.19,16-25.16,29-36.27,37A76.84,76.84,0,0,1,28,137.86l1.48-3.46V81.26H29.1c2.64-3.94,5.5-7.93,8.55-11.92,12.19-16,25.16-29,36.27-37a75.79,75.79,0,0,1,8-5.11h-2Z"/><path class="cls-148" d="M79.85,25.08v58.7h.72c-2.63,3.91-5.46,7.87-8.49,11.84-12.1,15.86-25,28.76-36,36.78a75.85,75.85,0,0,1-7.89,5.08l1.29-3.08V81.27h-.18c2.63-3.91,5.46-7.87,8.49-11.84,12.1-15.86,25-28.76,36-36.78a74.81,74.81,0,0,1,7.89-5.08H79.85Z"/><path class="cls-148" d="M79.85,25.49V83.77h.54C77.78,87.65,75,91.59,72,95.53c-12,15.75-24.81,28.55-35.77,36.52a75.33,75.33,0,0,1-7.84,5l1.11-2.69V81.28h0c2.61-3.88,5.42-7.82,8.43-11.76C49.91,53.77,62.7,41,73.66,33a75.26,75.26,0,0,1,7.83-5H79.85Z"/><path class="cls-149" d="M79.85,25.89V83.76h.36c-2.59,3.86-5.39,7.77-8.37,11.68C59.9,111.07,47.2,123.79,36.32,131.7a74.34,74.34,0,0,1-7.78,5l.92-2.31V92.67H22.51A223.38,223.38,0,0,1,38,69.61C49.94,54,62.64,41.26,73.53,33.35a73.31,73.31,0,0,1,7.78-5H79.85Z"/><path class="cls-149" d="M79.85,26.29V83.75H80c-2.57,3.83-5.35,7.71-8.31,11.59-11.85,15.53-24.46,28.16-35.27,36a73.17,73.17,0,0,1-7.72,5l.73-1.92V92.6H22.74A221.76,221.76,0,0,1,38.13,69.71C50,54.18,62.59,41.55,73.39,33.7a71.67,71.67,0,0,1,7.73-5H79.85Z"/><path class="cls-150" d="M79.85,26.69V78.08h3.67q-1.76,2.81-3.67,5.66c-2.55,3.8-5.31,7.66-8.25,11.51-11.77,15.42-24.29,28-35,35.76a73.77,73.77,0,0,1-7.68,4.93l.55-1.54V92.53H23A220.23,220.23,0,0,1,38.25,69.8C50,54.38,62.53,41.84,73.26,34a72.66,72.66,0,0,1,7.67-4.93H79.85Z"/><path class="cls-150" d="M79.85,27.09v45.5h6.8A219.23,219.23,0,0,1,71.48,95.16c-11.68,15.31-24.11,27.75-34.76,35.5a74.45,74.45,0,0,1-7.62,4.9l.36-1.16V92.46H23.2A217.63,217.63,0,0,1,38.37,69.89c11.68-15.31,24.11-27.75,34.76-35.5a72.33,72.33,0,0,1,7.62-4.9h-.9Z"/><path class="cls-151" d="M79.85,27.49V72.66h6.57A217.7,217.7,0,0,1,71.36,95.07c-11.6,15.2-23.94,27.55-34.51,35.24-5.29,3.84-10.13,6.52-14.23,7.8l6.84-3.71v-42h-6A216.1,216.1,0,0,1,38.49,70C50.08,54.78,62.42,42.43,73,34.74a72.19,72.19,0,0,1,7.56-4.86h-.71Z"/><path class="cls-151" d="M79.85,27.9V72.73h6.34A216.17,216.17,0,0,1,71.24,95C59.73,110.06,47.48,122.33,37,130c-5.25,3.82-10.06,6.47-14.12,7.75l6.6-3.31V92.31h-5.8a214.48,214.48,0,0,1,15-22.24C50.12,55,62.37,42.72,72.87,35.09a71.21,71.21,0,0,1,7.5-4.83h-.52Z"/><path class="cls-151" d="M79.85,28.3V72.81H86A214.56,214.56,0,0,1,71.12,94.89c-11.43,15-23.59,27.14-34,34.72-5.21,3.79-10,6.43-14,7.69l6.36-2.9V92.24H23.89A213,213,0,0,1,38.73,70.16c11.42-15,23.58-27.14,34-34.72,5.21-3.79,10-6.43,14-7.69h-6.9Z"/><path class="cls-152" d="M79.85,28.7V72.88h5.88A213,213,0,0,1,71,94.8c-11.34,14.86-23.41,26.94-33.75,34.46-5.18,3.76-9.92,6.38-13.92,7.64l6.13-2.5V92.17H24.12A210.27,210.27,0,0,1,38.85,70.26C50.19,55.39,62.26,43.31,72.6,35.79c5.17-3.76,9.91-6.38,13.92-7.64H79.85Z"/><path class="cls-152" d="M79.85,29.1V73H85.5A209.26,209.26,0,0,1,70.88,94.7c-11.26,14.76-23.24,26.75-33.5,34.21-5.14,3.73-9.84,6.34-13.81,7.58l5.89-2.09V92.1H24.35A209.26,209.26,0,0,1,39,70.35C50.23,55.59,62.2,43.6,72.47,36.14c5.13-3.74,9.84-6.34,13.81-7.58H79.85Z"/><path class="cls-153" d="M79.85,29.5V73h5.42A207.73,207.73,0,0,1,70.76,94.61c-11.17,14.64-23.06,26.55-33.25,34-5.1,3.7-9.76,6.28-13.71,7.52l5.66-1.69V92H24.58A207.73,207.73,0,0,1,39.09,70.44C50.26,55.8,62.15,43.89,72.34,36.49,77.43,32.78,82.1,30.2,86,29H79.85Z"/><path class="cls-153" d="M79.85,29.9V73.09H85a206.2,206.2,0,0,1-14.4,21.43c-11.09,14.53-22.89,26.34-33,33.7-5,3.67-9.69,6.23-13.6,7.46l5.42-1.28V92H24.81a206.2,206.2,0,0,1,14.4-21.43C50.3,56,62.09,44.19,72.21,36.83c5.05-3.67,9.69-6.23,13.6-7.46h-6Z"/><path class="cls-153" d="M79.85,30.31V73.17h5A206.18,206.18,0,0,1,70.52,94.43c-11,14.42-22.71,26.14-32.75,33.44-5,3.64-9.61,6.19-13.5,7.4l5.19-.87V91.88H25A204.58,204.58,0,0,1,39.33,70.62C50.33,56.2,62,44.48,72.07,37.18c5-3.65,9.62-6.19,13.5-7.4H79.85Z"/><path class="cls-154" d="M79.85,30.71V73.24h4.73A204.65,204.65,0,0,1,70.4,94.34c-10.92,14.31-22.54,25.94-32.5,33.18-5,3.62-9.54,6.14-13.39,7.35l4.95-.47V91.81H25.27a204.65,204.65,0,0,1,14.18-21.1C50.37,56.4,62,44.77,71.94,37.53c5-3.62,9.54-6.14,13.4-7.35H79.85Z"/><path class="cls-154" d="M79.85,31.11v42.2h4.5A203.12,203.12,0,0,1,70.28,94.25C59.45,108.44,47.92,120,38,127.17c-4.94,3.59-9.47,6.09-13.29,7.29l4.71-.06V91.74h-4A202,202,0,0,1,39.57,70.8C50.4,56.61,61.93,45.06,71.81,37.88c4.94-3.59,9.47-6.09,13.29-7.29H79.85Z"/><path class="cls-154" d="M79.85,31.51V73.38h4.27a200.43,200.43,0,0,1-14,20.77c-10.75,14.09-22.19,25.54-32,32.67-4.9,3.56-9.4,6.05-13.19,7.24h4.48V91.67H25.73a200.43,200.43,0,0,1,14-20.77c10.75-14.09,22.19-25.54,32-32.67,4.9-3.56,9.39-6,13.19-7.24h-5Z"/><path class="cls-155" d="M79.85,31.91V73.45h4A200.51,200.51,0,0,1,70,94.06C59.37,108,48,119.4,38.3,126.47a48,48,0,0,1-13.08,7.18h4.24V91.6H26A198.9,198.9,0,0,1,39.81,71c10.66-14,22-25.34,31.74-32.41A48,48,0,0,1,84.63,31.4H79.85Z"/><path class="cls-155" d="M79.85,32.31V73.53h3.81A198.89,198.89,0,0,1,69.92,94c-10.58,13.87-21.84,25.14-31.49,32.15a47.79,47.79,0,0,1-13,7.13h4V91.52H26.19A197.28,197.28,0,0,1,39.93,71.08C50.51,57.21,61.77,45.94,71.41,38.93a48.08,48.08,0,0,1,13-7.13H79.85Z"/><path class="cls-155" d="M79.85,32.72V73.6h3.58A197.36,197.36,0,0,1,69.8,93.88c-10.5,13.75-21.66,24.93-31.24,31.89a47.25,47.25,0,0,1-12.87,7.07h3.77V91.45h-3A195.75,195.75,0,0,1,40.05,71.17C50.54,57.42,61.71,46.23,71.28,39.28c4.79-3.48,9.17-5.91,12.88-7.07H79.85Z"/><path class="cls-155" d="M79.85,33.12V73.67H83.2A194.75,194.75,0,0,1,69.68,93.79c-10.41,13.64-21.49,24.73-31,31.64a46.85,46.85,0,0,1-12.78,7h3.54V91.38H26.65A193.16,193.16,0,0,1,40.17,71.26c10.41-13.64,21.49-24.73,31-31.64a47,47,0,0,1,12.77-7H79.85Z"/><path class="cls-156" d="M79.85,33.52V73.74H83a193.22,193.22,0,0,1-13.41,20c-10.33,13.53-21.31,24.53-30.73,31.38a46.93,46.93,0,0,1-12.67,7h3.3V91.31H26.88a191.62,191.62,0,0,1,13.41-20C50.61,57.82,61.6,46.82,71,40A46.51,46.51,0,0,1,83.69,33H79.85Z"/><path class="cls-156" d="M79.85,33.92v39.9h2.89a192.68,192.68,0,0,1-13.3,19.79C59.2,107,48.3,117.94,39,124.73a46.25,46.25,0,0,1-12.56,6.89h3.06V91.24H27.11a189,189,0,0,1,13.3-19.79C50.65,58,61.55,47.11,70.89,40.32a46.25,46.25,0,0,1,12.56-6.89h-3.6Z"/><path class="cls-156" d="M79.85,34.32V73.89h2.66A188.92,188.92,0,0,1,69.32,93.51c-10.16,13.31-21,24.13-30.23,30.87a45.8,45.8,0,0,1-12.46,6.84h2.83V91.16H27.34A188.92,188.92,0,0,1,40.53,71.54c10.15-13.31,21-24.13,30.23-30.87a45.8,45.8,0,0,1,12.46-6.84H79.85Z"/><path class="cls-156" d="M79.85,34.72V74h2.43A187.38,187.38,0,0,1,69.2,93.42c-10.07,13.2-20.79,23.93-30,30.61a45.27,45.27,0,0,1-12.35,6.78h2.59V91.09H27.57A187.38,187.38,0,0,1,40.65,71.63C50.72,58.43,61.44,47.7,70.62,41A45.45,45.45,0,0,1,83,34.24H79.85Z"/><path class="cls-157" d="M79.85,35.13V74h2.2a184.79,184.79,0,0,1-13,19.3c-10,13.09-20.62,23.73-29.72,30.35A44.93,44.93,0,0,1,27.1,130.4h2.36V91H27.8a185.85,185.85,0,0,1,13-19.3C50.76,58.63,61.38,48,70.49,41.37a45,45,0,0,1,12.25-6.72H79.85Z"/><path class="cls-157" d="M79.85,35.53V74.1h2A184.85,184.85,0,0,1,69,93.24c-9.9,13-20.44,23.53-29.47,30.09A44.74,44.74,0,0,1,27.34,130h2.12V91H28A183.26,183.26,0,0,1,40.89,71.81c9.9-13,20.44-23.53,29.47-30.09a44.45,44.45,0,0,1,12.15-6.67H79.85Z"/><path class="cls-157" d="M79.85,35.93V74.17h1.74a183.32,183.32,0,0,1-12.75,19C59,106,48.57,116.47,39.62,123a44.06,44.06,0,0,1-12,6.61h1.88V90.87h-1.2A184.31,184.31,0,0,1,41,71.9C50.83,59,61.27,48.58,70.23,42.07a43.91,43.91,0,0,1,12-6.61H79.85Z"/><path class="cls-157" d="M79.85,36.33V74.25h1.51A181.7,181.7,0,0,1,68.72,93.06c-9.73,12.75-20.09,23.12-29,29.58a44.09,44.09,0,0,1-11.94,6.55h1.65V90.8h-1A180.55,180.55,0,0,1,41.13,72c9.73-12.76,20.09-23.13,29-29.58A43.74,43.74,0,0,1,82,35.86H79.85Z"/><path class="cls-157" d="M79.85,36.73V74.32h1.28A179,179,0,0,1,68.6,93C59,105.61,48.68,115.89,39.88,122.29a43.55,43.55,0,0,1-11.83,6.49h1.41v-38h-.74A179,179,0,0,1,41.25,72.09C50.9,59.44,61.16,49.16,70,42.76A43.59,43.59,0,0,1,81.8,36.27h-2Z"/><path class="cls-158" d="M79.85,37.13V74.39H80.9A180.17,180.17,0,0,1,68.48,92.87C58.92,105.41,48.74,115.6,40,121.94a43.28,43.28,0,0,1-11.74,6.44h1.18V90.66H29A177.49,177.49,0,0,1,41.37,72.18c9.56-12.54,19.74-22.73,28.46-29.07a43.25,43.25,0,0,1,11.73-6.44H79.85Z"/><path class="cls-158" d="M79.85,37.54V74.46h.82A177.55,177.55,0,0,1,68.36,92.78c-9.48,12.42-19.57,22.52-28.21,28.81A42.88,42.88,0,0,1,28.52,128h.94V90.59h-.28A177.55,177.55,0,0,1,41.49,72.27C51,59.85,61.05,49.75,69.7,43.46a42.73,42.73,0,0,1,11.63-6.38H79.85Z"/><path class="cls-158" d="M79.85,37.94V74.53h.59a176,176,0,0,1-12.2,18.16C58.85,105,48.85,115,40.28,121.24a42.36,42.36,0,0,1-11.53,6.32h.71v-37h-.05a175.4,175.4,0,0,1,12.2-18.15C51,60.05,61,50,69.57,43.81a42.47,42.47,0,0,1,11.52-6.32H79.85Z"/><path class="cls-158" d="M79.85,38.34V74.61h.36a174.4,174.4,0,0,1-12.09,18c-9.31,12.2-19.22,22.12-27.71,28.29A41.89,41.89,0,0,1,29,127.16h.47V98.88H25.13c1.32-2.71,2.82-5.54,4.51-8.44a172.81,172.81,0,0,1,12.09-18C51,60.25,61,50.33,69.44,44.16a41.75,41.75,0,0,1,11.42-6.27h-1Z"/><path class="cls-158" d="M79.85,38.74V74.68H80A172.87,172.87,0,0,1,68,92.51c-9.23,12.09-19,21.92-27.46,28a41.49,41.49,0,0,1-11.31,6.21h.23v-28H25.4c1.3-2.69,2.8-5.49,4.47-8.36a171.28,171.28,0,0,1,12-17.83c9.22-12.09,19-21.91,27.45-28A41.67,41.67,0,0,1,80.62,38.3h-.77Z"/><path class="cls-159" d="M79.85,39.14V66.47h4.33c-1.3,2.66-2.78,5.44-4.43,8.28A170.19,170.19,0,0,1,67.88,92.41c-9.14,12-18.87,21.72-27.2,27.78a41.49,41.49,0,0,1-11.22,6.16h0V98.58H25.67c1.29-2.66,2.77-5.44,4.43-8.28A168.61,168.61,0,0,1,42,72.64c9.14-12,18.87-21.72,27.2-27.78A41.22,41.22,0,0,1,80.39,38.7h-.54Z"/><path class="cls-159" d="M79.85,39.54V66.62h4.06q-1.93,4-4.39,8.2a167.59,167.59,0,0,1-11.76,17.5c-9.06,11.87-18.69,21.52-26.95,27.53a40.89,40.89,0,0,1-11.11,6.09,12.7,12.7,0,0,1-4.32.67h4.08V106H22.65C26.26,96.44,33,84.6,42.09,72.73S60.78,51.21,69,45.21a40.54,40.54,0,0,1,11.11-6.1h-.3Z"/><path class="cls-159" d="M79.85,40V66.77h3.79c-1.27,2.61-2.73,5.33-4.35,8.12A166.06,166.06,0,0,1,67.64,92.23c-9,11.76-18.52,21.32-26.7,27.27a40.72,40.72,0,0,1-11,6,12.39,12.39,0,0,1-4.28.65h3.81V105.77H23c3.58-9.46,10.28-21.19,19.26-32.95S60.73,51.5,68.91,45.55a40.83,40.83,0,0,1,11-6h-.06Z"/><path class="cls-159" d="M79.85,40.35V59.5h6.74c-3.54,9.37-10.18,21-19.07,32.64C49.74,115.43,29.69,130,22.74,124.7h6.72V105.55H23.25c3.55-9.37,10.19-21,19.08-32.64s18.34-21.12,26.45-27a40,40,0,0,1,10.9-6,12.18,12.18,0,0,1,4.24-.65H79.85Z"/><path class="cls-159" d="M79.85,40.75v19h6.44C82.78,69,76.21,80.51,67.4,92.05,49.79,115.12,29.93,129.56,23,124.3h6.42v-19h-5.9C27.07,96.05,33.64,84.54,42.45,73c17.6-23.07,37.46-37.51,44.36-32.25Z"/><path class="cls-159" d="M79.85,41.15V59.94H86c-3.48,9.19-10,20.59-18.71,32-17.44,22.85-37.11,37.15-43.93,31.94h6.11V105.11h-5.6c3.48-9.19,10-20.59,18.71-32C60,50.24,79.67,35.94,86.5,41.15Z"/><path class="cls-159" d="M79.85,41.55V60.16h5.84c-3.45,9.1-9.89,20.39-18.53,31.7-17.27,22.63-36.75,36.8-43.51,31.64h5.81V104.89h-5.3c3.44-9.1,9.89-20.39,18.53-31.7C60,50.56,79.43,36.39,86.19,41.55Z"/><path class="cls-160" d="M79.85,42V60.38h5.54C82,69.39,75.59,80.57,67,91.77,49.94,114.18,30.65,128.2,24,123.1h5.5V104.67h-5c3.41-9,9.8-20.19,18.35-31.39C59.91,50.87,79.19,36.85,85.89,42Z"/><path class="cls-160" d="M79.85,42.36V60.6h5.23c-3.37,8.92-9.69,20-18.16,31.08-16.93,22.19-36,36.07-42.65,31h5.19V104.45h-4.7c3.38-8.92,9.7-20,18.17-31.08,16.93-22.19,36-36.07,42.65-31Z"/><path class="cls-160" d="M79.85,42.76V60.82h4.93c-3.34,8.83-9.6,19.79-18,30.77-16.76,22-35.67,35.71-42.23,30.7h4.89V104.23h-4.4c3.35-8.83,9.6-19.79,18-30.77,16.76-22,35.66-35.71,42.22-30.7Z"/><path class="cls-160" d="M79.85,43.16V61h4.63c-3.31,8.75-9.5,19.6-17.8,30.47-16.59,21.74-35.31,35.35-41.8,30.39h4.58V104H25.37c3.31-8.75,9.5-19.6,17.8-30.47C59.76,51.81,78.47,38.2,85,43.16Z"/><path class="cls-160" d="M79.85,43.56V61.25h4.33c-3.28,8.66-9.41,19.4-17.62,30.16-16.42,21.52-34.94,35-41.37,30.08h4.27V103.8H25.67c3.27-8.66,9.4-19.4,17.62-30.16,16.42-21.52,34.94-35,41.37-30.08Z"/><path class="cls-160" d="M79.85,44V61.47h4C80.64,70,74.57,80.67,66.44,91.32c-16.25,21.29-34.58,34.62-40.95,29.77h4V103.58H26c3.24-8.57,9.31-19.2,17.44-29.85C59.66,52.44,78,39.11,84.35,44Z"/><path class="cls-160" d="M79.85,44.36V61.69h3.73c-3.21,8.48-9.22,19-17.26,29.53C50.24,112.3,32.1,125.49,25.8,120.69h3.66V103.36H26.27c3.21-8.48,9.21-19,17.26-29.53C59.61,52.75,77.75,39.56,84.05,44.36Z"/><path class="cls-160" d="M79.85,44.77V61.91h3.42C80.1,70.3,74.16,80.7,66.2,91.13,50.29,112,32.34,125,26.11,120.28h3.35V103.14H26.57c3.18-8.39,9.12-18.8,17.08-29.22C59.56,53.06,77.51,40,83.74,44.77Z"/><path class="cls-160" d="M79.85,45.17v17H83c-3.14,8.3-9,18.6-16.89,28.91-15.74,20.63-33.5,33.55-39.67,28.84h3.05v-17H26.87c3.14-8.3,9-18.59,16.9-28.91,15.74-20.63,33.5-33.54,39.66-28.84Z"/><path class="cls-160" d="M79.85,45.57V62.35h2.82C79.57,70.56,73.75,80.74,66,91c-15.57,20.41-33.14,33.18-39.24,28.53h2.74V102.7H27.18c3.1-8.21,8.92-18.39,16.71-28.6C59.46,53.69,77,40.92,83.13,45.57Z"/><path class="cls-161" d="M79.85,46v16.6h2.52c-3.07,8.12-8.82,18.19-16.53,28.29C50.43,111,33.06,123.68,27,119.08h2.43v-16.6h-2C30.55,94.36,36.3,84.29,44,74.19,59.41,54,76.79,41.37,82.82,46Z"/><path class="cls-161" d="M79.85,46.37V62.79h2.22c-3,8-8.73,18-16.35,28-15.24,20-32.42,32.46-38.39,27.91h2.13V102.26H27.78c3-8,8.73-18,16.35-28,15.23-20,32.42-32.46,38.38-27.91Z"/><path class="cls-161" d="M79.85,46.77V63h1.92C78.76,71,73.14,80.8,65.6,90.67c-15.07,19.75-32.06,32.11-38,27.61h1.82V102H28.08c3-7.94,8.63-17.79,16.17-27.66,15.06-19.75,32.06-32.11,38-27.61Z"/><path class="cls-161" d="M79.85,47.18v16h1.62c-3,7.85-8.54,17.59-16,27.35C50.58,110.1,33.78,122.32,28,117.87h1.51V101.82H28.38c3-7.85,8.54-17.59,16-27.35C59.26,54.94,76.07,42.73,81.9,47.18Z"/><path class="cls-161" d="M79.85,47.58V63.45h1.31c-2.93,7.76-8.43,17.39-15.8,27-14.73,19.3-31.34,31.38-37.11,27s1.51-23.61,16.24-42.91,31.34-31.38,37.1-27Z"/><path class="cls-161" d="M79.85,48V63.67h1C78,71.34,72.52,80.86,65.24,90.4c-14.56,19.08-31,31-36.68,26.67S30,93.73,44.61,74.65s31-31,36.68-26.67Z"/><path class="cls-161" d="M81,48.38c5.63,4.3-1.47,23.07-15.86,41.93S34.5,121,28.87,116.67,30.33,93.6,44.73,74.74,75.35,44.08,81,48.38"/><path class="cls-161" d="M80.67,48.78C86.24,53,79.22,71.58,65,90.22s-30.26,30.29-35.83,26.05,1.45-22.8,15.68-41.44,30.26-30.29,35.82-26"/><path class="cls-161" d="M80.37,49.18c5.5,4.2-1.44,22.53-15.49,40.94S35,120.06,29.48,115.87,30.91,93.34,45,74.92,74.87,45,80.37,49.18"/><path class="cls-161" d="M80.06,49.59C85.5,53.73,78.64,71.84,64.76,90s-29.54,29.58-35,25.43S31.2,93.21,45.09,75s29.54-29.58,35-25.43"/><path class="cls-161" d="M79.75,50c5.37,4.09-1.39,22-15.11,39.95s-29.18,29.22-34.55,25.12,1.4-22,15.12-39.95S74.39,45.89,79.75,50"/><path class="cls-161" d="M79.45,50.39c5.3,4-1.38,21.71-14.93,39.46S35.7,118.7,30.4,114.66,31.78,93,45.32,75.2,74.15,46.34,79.45,50.39"/><path class="cls-161" d="M79.14,50.79c5.24,4-1.36,21.44-14.74,39s-28.46,28.49-33.69,24.5,1.36-21.44,14.74-39S73.91,46.8,79.14,50.79"/><path class="cls-161" d="M78.83,51.19c5.17,4-1.34,21.17-14.55,38.48S36.18,117.8,31,113.86s1.35-21.17,14.55-38.48S73.67,47.25,78.83,51.19"/><path class="cls-161" d="M78.53,51.59c5.1,3.9-1.33,20.9-14.37,38s-27.74,27.78-32.84,23.88,1.33-20.89,14.37-38S73.43,47.7,78.53,51.59"/><path class="cls-161" d="M78.22,52c5,3.84-1.31,20.62-14.18,37.48S36.66,116.9,31.62,113.05,32.94,92.43,45.8,75.57,73.19,48.15,78.22,52"/><path class="cls-161" d="M77.92,52.4c5,3.79-1.3,20.35-14,37s-27,27.05-32,23.26,1.3-20.35,14-37,27-27,32-23.26"/><path class="cls-161" d="M77.61,52.8c4.9,3.74-1.28,20.08-13.81,36.5s-26.66,26.69-31.56,23,1.28-20.09,13.81-36.5,26.66-26.69,31.56-23"/><path class="cls-162" d="M77.3,53.2C82.14,56.89,76,73,63.68,89.21s-26.3,26.33-31.14,22.64S33.8,92,46.16,75.84,72.46,49.51,77.3,53.2"/><path class="cls-162" d="M77,53.6c4.77,3.64-1.25,19.54-13.44,35.52s-25.94,26-30.71,22.33S34.1,91.91,46.29,75.93,72.22,50,77,53.6"/><path class="cls-162" d="M76.69,54c4.7,3.59-1.23,19.27-13.25,35s-25.58,25.61-30.28,22,1.22-19.27,13.25-35S72,50.41,76.69,54"/><path class="cls-162" d="M76.38,54.41C81,58,75.17,73.41,63.32,88.93S38.1,114.18,33.46,110.64s1.21-19,13.06-34.52S71.74,50.87,76.38,54.41"/><path class="cls-162" d="M76.08,54.81c4.57,3.49-1.2,18.73-12.88,34s-24.86,24.89-29.43,21.4,1.19-18.73,12.87-34S71.5,51.32,76.08,54.81"/><path class="cls-162" d="M75.77,55.21c4.51,3.44-1.17,18.46-12.69,33.54s-24.5,24.53-29,21.09S35.25,91.38,46.77,76.3s24.49-24.53,29-21.09"/><path class="cls-162" d="M75.46,55.61C79.9,59,74.31,73.8,63,88.66s-24.14,24.17-28.58,20.78,1.16-18.19,12.5-33S71,52.22,75.46,55.61"/><path class="cls-162" d="M75.16,56C79.53,59.35,74,73.93,62.84,88.57S39.06,112.37,34.69,109,35.83,91.12,47,76.48,70.78,52.68,75.16,56"/><path class="cls-162" d="M74.85,56.42c4.31,3.28-1.12,17.64-12.13,32.06S39.3,111.92,35,108.64,36.12,91,47.12,76.57,70.54,53.13,74.85,56.42"/><path class="cls-162" d="M74.54,56.82c4.24,3.23-1.1,17.37-11.94,31.56s-23.06,23.09-27.3,19.85,1.11-17.37,12-31.56,23-23.09,27.29-19.85"/><path class="cls-162" d="M74.24,57.22c4.17,3.18-1.09,17.1-11.76,31.07S39.78,111,35.61,107.83s1.09-17.1,11.75-31.07S70.06,54,74.24,57.22"/><path class="cls-162" d="M73.93,57.62C78,60.76,72.86,74.45,62.36,88.2S40,110.56,35.92,107.43,37,90.6,47.48,76.85,69.82,54.48,73.93,57.62"/><path class="cls-162" d="M73.62,58c4,3.09-1.05,16.56-11.38,30.09s-22,22-26,18.92S37.28,90.47,47.6,76.94s22-22,26-18.92"/><path class="cls-162" d="M73.32,58.42c4,3-1,16.29-11.2,29.6s-21.61,21.64-25.59,18.61,1-16.29,11.19-29.6,21.62-21.64,25.6-18.61"/><path class="cls-162" d="M73,58.83c3.91,3-1,16-11,29.1s-21.25,21.28-25.16,18.29,1-16,11-29.1S69.1,55.84,73,58.83"/><path class="cls-162" d="M72.7,59.23c3.85,2.93-1,15.74-10.82,28.61s-20.89,20.92-24.74,18,1-15.74,10.82-28.61,20.9-20.92,24.74-18"/><path class="cls-162" d="M72.4,59.63c3.77,2.88-1,15.47-10.64,28.11S41.23,108.3,37.45,105.42s1-15.47,10.64-28.11S68.62,56.75,72.4,59.63"/><path class="cls-162" d="M72.09,60c3.71,2.83-1,15.2-10.45,27.62S41.47,107.85,37.76,105s1-15.2,10.44-27.62S68.38,57.2,72.09,60"/><path class="cls-162" d="M71.78,60.43c3.65,2.78-1,14.93-10.26,27.13S41.71,107.4,38.06,104.62,39,89.69,48.32,77.49,68.14,57.65,71.78,60.43"/><path class="cls-162" d="M71.48,60.83c3.58,2.73-.93,14.66-10.08,26.64S42,107,38.37,104.22s.93-14.66,10.07-26.64,19.46-19.48,23-16.75"/><path class="cls-162" d="M71.17,61.24c3.51,2.68-.91,14.38-9.89,26.14s-19.09,19.11-22.6,16.43.91-14.38,9.89-26.14,19.09-19.12,22.6-16.43"/><path class="cls-162" d="M70.86,61.64c3.45,2.63-.89,14.11-9.7,25.65S42.43,106,39,103.41s.9-14.11,9.7-25.65S67.42,59,70.86,61.64"/><path class="cls-162" d="M70.56,62c3.38,2.58-.88,13.84-9.52,25.15S42.67,105.59,39.29,103s.88-13.84,9.51-25.16S67.18,59.46,70.56,62"/><path class="cls-162" d="M70.25,62.44C73.56,65,69.39,76,60.92,87.1s-18,18-21.32,15.51S40.46,89,48.92,78s18-18,21.33-15.51"/><path class="cls-162" d="M69.94,62.84c3.25,2.48-.84,13.3-9.14,24.17s-17.65,17.68-20.9,15.2S40.75,88.91,49,78s17.66-17.68,20.9-15.2"/><path class="cls-162" d="M69.64,63.24c3.18,2.43-.83,13-9,23.68s-17.29,17.31-20.47,14.89.83-13,8.95-23.68,17.3-17.31,20.48-14.89"/><path class="cls-162" d="M69.33,63.65c3.12,2.37-.81,12.75-8.77,23.18s-16.93,17-20,14.57.81-12.75,8.76-23.18,16.94-16.95,20-14.57"/><path class="cls-162" d="M69,64.05c3,2.32-.8,12.48-8.59,22.69S43.87,103.33,40.82,101s.8-12.48,8.58-22.69S66,61.72,69,64.05"/><path class="cls-162" d="M68.72,64.45c3,2.27-.78,12.21-8.4,22.2S44.11,102.88,41.13,100.6s.78-12.21,8.39-22.2,16.22-16.23,19.2-14"/><path class="cls-162" d="M68.41,64.85c2.92,2.23-.76,11.94-8.21,21.7S44.35,102.42,41.43,100.2s.76-11.94,8.21-21.7S65.5,62.62,68.41,64.85"/><path class="cls-162" d="M68.11,65.25c2.85,2.18-.75,11.67-8,21.21S44.59,102,41.74,99.8s.74-11.67,8-21.21,15.5-15.51,18.35-13.34"/><path class="cls-162" d="M67.8,65.65c2.78,2.13-.73,11.4-7.84,20.72s-15.13,15.15-17.91,13,.72-11.4,7.83-20.72S65,63.53,67.8,65.65"/><path class="cls-162" d="M67.49,66.06c2.72,2.07-.71,11.12-7.65,20.22S45.07,101.07,42.35,99,43.06,87.87,50,78.77,64.78,64,67.49,66.06"/><path class="cls-162" d="M67.19,66.46c2.65,2-.7,10.85-7.47,19.73s-14.41,14.43-17.06,12.4.69-10.85,7.46-19.73,14.42-14.42,17.07-12.4"/><path class="cls-162" d="M66.88,66.86c2.58,2-.67,10.58-7.28,19.24S45.55,100.16,43,98.19,43.64,87.61,50.24,79,64.3,64.89,66.88,66.86"/><path class="cls-162" d="M66.57,67.26c2.52,1.92-.65,10.31-7.09,18.74S45.79,99.71,43.27,97.79,43.93,87.48,50.36,79s13.69-13.7,16.21-11.78"/><path class="cls-162" d="M66.27,67.66c2.45,1.87-.64,10-6.91,18.25S46,99.26,43.58,97.39s.64-10,6.9-18.25S63.81,65.79,66.27,67.66"/><path class="cls-162" d="M66,68.06c2.38,1.82-.62,9.78-6.72,17.76s-13,13-15.35,11.17.62-9.78,6.71-17.76,13-13,15.36-11.17"/><path class="cls-162" d="M65.65,68.47c2.32,1.77-.6,9.49-6.53,17.26S46.51,98.35,44.19,96.58s.61-9.5,6.53-17.26S63.33,66.69,65.65,68.47"/><path class="cls-162" d="M65.35,68.87c2.25,1.72-.59,9.23-6.35,16.77S46.75,97.9,44.5,96.18s.59-9.23,6.34-16.77S63.09,67.15,65.35,68.87"/><path class="cls-162" d="M65,69.27c2.19,1.67-.57,9-6.16,16.28S47,97.45,44.81,95.78s.57-9,6.15-16.28S62.85,67.6,65,69.27"/><path class="cls-162" d="M64.73,69.67c2.12,1.62-.55,8.69-6,15.79S47.23,97,45.11,95.38s.56-8.69,6-15.78,11.53-11.55,13.65-9.93"/><path class="cls-162" d="M64.43,70.07c2,1.57-.54,8.42-5.79,15.29S47.47,96.55,45.42,95,46,86.56,51.2,79.69s11.17-11.18,13.23-9.62"/><path class="cls-162" d="M64.12,70.47c2,1.52-.52,8.15-5.6,14.8S47.71,96.09,45.73,94.58s.52-8.15,5.59-14.8S62.13,69,64.12,70.47"/><path class="cls-162" d="M63.81,70.88c1.92,1.46-.5,7.87-5.41,14.3S48,95.64,46,94.17s.5-7.87,5.41-14.3,10.45-10.46,12.37-9"/><path class="cls-162" d="M63.51,71.28c1.85,1.41-.49,7.6-5.23,13.81S48.2,95.19,46.34,93.77s.48-7.6,5.22-13.81,10.09-10.1,11.95-8.68"/><path class="cls-162" d="M63.2,71.68C65,73,62.73,79,58.16,85s-9.72,9.74-11.51,8.37.46-7.33,5-13.32,9.73-9.74,11.52-8.37"/><path class="cls-162" d="M62.89,72.08c1.73,1.32-.45,7.06-4.85,12.83S48.68,94.28,47,93s.45-7.06,4.85-12.83,9.37-9.37,11.09-8.06"/><path class="cls-162" d="M62.59,72.48c1.65,1.27-.43,6.79-4.67,12.33s-9,9-10.66,7.76.43-6.79,4.66-12.33,9-9,10.67-7.76"/><path class="cls-162" d="M62.28,72.88c1.59,1.22-.41,6.52-4.48,11.84s-8.64,8.66-10.23,7.44S48,85.65,52,80.33s8.65-8.66,10.24-7.45"/><path class="cls-162" d="M62,73.29c1.53,1.16-.39,6.24-4.29,11.34s-8.28,8.3-9.81,7.13.4-6.24,4.29-11.34,8.29-8.3,9.81-7.13"/><path class="cls-162" d="M61.67,73.69c1.46,1.11-.38,6-4.11,10.85s-7.92,7.93-9.38,6.82.38-6,4.1-10.85,7.93-7.93,9.39-6.82"/><path class="cls-162" d="M61.36,74.09c1.39,1.06-.36,5.7-3.92,10.36S49.88,92,48.49,91s.36-5.7,3.91-10.36,7.57-7.57,9-6.51"/><path class="cls-162" d="M61.05,74.49c1.33,1-.34,5.43-3.73,9.87s-7.2,7.21-8.53,6.2.35-5.43,3.73-9.87,7.21-7.21,8.53-6.2"/><path class="cls-162" d="M60.75,74.89c1.26,1-.33,5.16-3.55,9.37s-6.84,6.86-8.1,5.9.33-5.16,3.54-9.37,6.85-6.86,8.11-5.9"/><path class="cls-162" d="M60.44,75.29c1.19.92-.31,4.89-3.36,8.88s-6.48,6.5-7.67,5.59.31-4.89,3.35-8.88,6.49-6.5,7.68-5.59"/><path class="cls-162" d="M60.13,75.7c1.13.86-.29,4.61-3.17,8.38s-6.12,6.13-7.25,5.27S50,84.74,52.88,81,59,74.84,60.13,75.7"/><path class="cls-162" d="M59.83,76.1c1.06.81-.28,4.34-3,7.89S51.08,89.76,50,89s.27-4.34,3-7.89,5.77-5.77,6.83-5"/><path class="cls-162" d="M59.52,76.5c1,.76-.26,4.07-2.8,7.4s-5.4,5.41-6.4,4.65.26-4.07,2.8-7.4,5.41-5.41,6.4-4.65"/><path class="cls-162" d="M59.22,76.9c.92.71-.25,3.8-2.62,6.91s-5,5-6,4.34.24-3.8,2.61-6.91,5-5,6-4.34"/><path class="cls-162" d="M58.91,77.3c.86.66-.23,3.53-2.43,6.41s-4.68,4.69-5.54,4,.22-3.53,2.42-6.42,4.69-4.68,5.55-4"/><path class="cls-162" d="M58.6,77.7c.8.61-.21,3.26-2.24,5.92S52,88,51.25,87.35s.2-3.26,2.23-5.92,4.33-4.33,5.12-3.73"/><path class="cls-162" d="M58.3,78.11c.72.55-.19,3-2.06,5.42s-4,4-4.69,3.41.19-3,2.05-5.42,4-4,4.7-3.41"/><path class="cls-162" d="M58,78.51c.66.5-.17,2.71-1.87,4.93s-3.6,3.61-4.26,3.1.17-2.71,1.86-4.93S57.33,78,58,78.51"/><path class="cls-162" d="M57.68,78.91c.6.45-.15,2.44-1.68,4.44s-3.24,3.25-3.84,2.79.16-2.44,1.68-4.44,3.25-3.25,3.84-2.79"/><path class="cls-162" d="M57.38,79.31c.53.41-.14,2.17-1.5,4S53,86.14,52.47,85.74s.14-2.17,1.49-3.95,2.89-2.88,3.42-2.48"/><path class="cls-162" d="M57.07,79.71c.46.36-.12,1.9-1.31,3.46s-2.52,2.52-3,2.17.12-1.9,1.3-3.46,2.53-2.52,3-2.17"/><path class="cls-162" d="M56.76,80.11c.4.31-.1,1.63-1.12,3s-2.16,2.17-2.56,1.86.11-1.62,1.12-3,2.17-2.17,2.56-1.87"/><path class="cls-162" d="M56.46,80.52c.33.25-.09,1.35-.94,2.46s-1.8,1.81-2.13,1.55.09-1.35.93-2.46,1.8-1.81,2.14-1.55"/><path class="cls-162" d="M56.15,80.92c.26.2-.07,1.08-.75,2S54,84.33,53.7,84.13s.07-1.08.74-2,1.44-1.44,1.71-1.24"/><path class="cls-162" d="M55.84,81.32c.2.15-.05.81-.56,1.48s-1.08,1.08-1.28.93,0-.81.56-1.48,1.08-1.08,1.28-.93"/><path class="cls-162" d="M55.54,81.72c.13.1,0,.54-.38,1s-.72.72-.85.62,0-.55.37-1,.72-.72.86-.62"/><path class="cls-162" d="M55.23,82.12c.07,0,0,.27-.19.5s-.36.36-.42.31,0-.27.18-.5.36-.36.43-.31"/></g></g></g></g><g class="cls-163"><rect class="cls-164" x="69.31" y="114.04" width="33.02" height="24.11" transform="translate(-57.38 178.61) rotate(-75.9)"/></g><g class="cls-165"><rect class="cls-166" x="75.9" y="110.42" width="19.63" height="18.22" transform="translate(-51.1 173.55) rotate(-75.9)"/></g><g class="cls-167"><rect class="cls-168" x="80.91" y="117.2" width="22.41" height="10.01" transform="translate(-48.85 181.77) rotate(-75.9)"/></g><g class="cls-169"><rect class="cls-170" x="80.5" y="126.31" width="17.28" height="14.12" transform="translate(-61.93 187.34) rotate(-75.9)"/></g><g class="cls-4"><g class="cls-39"><g class="cls-171"><g class="cls-172"><rect class="cls-42" x="77.11" y="111.25" width="17.41" height="29.67"/><path class="cls-43" d="M94.19,113.94c4.54,1.88,5.81,9.25,2.83,16.46s-9.08,11.54-13.63,9.66-5.8-9.25-2.82-16.46,9.08-11.54,13.62-9.66"/><path class="cls-44" d="M94.17,114c4.53,1.87,5.79,9.21,2.82,16.4s-9,11.49-13.57,9.62-5.79-9.21-2.82-16.4,9-11.49,13.57-9.62"/><path class="cls-45" d="M94.15,114c4.51,1.87,5.76,9.18,2.81,16.33s-9,11.45-13.52,9.58-5.77-9.17-2.81-16.33,9-11.44,13.52-9.58"/><path class="cls-46" d="M94.13,114.09c4.49,1.86,5.74,9.14,2.79,16.27s-9,11.4-13.46,9.54-5.74-9.14-2.8-16.26,9-11.4,13.47-9.55"/><path class="cls-47" d="M94.11,114.14c4.47,1.85,5.72,9.11,2.78,16.21S88,141.7,83.48,139.85s-5.72-9.1-2.78-16.2,8.94-11.35,13.41-9.51"/><path class="cls-48" d="M94.09,114.2c4.45,1.84,5.69,9.06,2.77,16.13S88,141.64,83.5,139.8s-5.7-9.06-2.77-16.14,8.9-11.31,13.36-9.46"/><path class="cls-49" d="M94.06,114.25c4.44,1.83,5.68,9,2.77,16.07S88,141.58,83.52,139.75s-5.67-9-2.76-16.07,8.87-11.27,13.3-9.43"/><path class="cls-50" d="M94,114.3c4.42,1.82,5.65,9,2.75,16S88,141.53,83.54,139.7s-5.65-9-2.75-16S89.62,112.47,94,114.3"/><path class="cls-51" d="M94,114.35c4.4,1.82,5.63,9,2.74,15.94s-8.79,11.18-13.2,9.36-5.62-9-2.73-16,8.79-11.17,13.19-9.35"/><path class="cls-52" d="M94,114.4c4.38,1.81,5.61,8.92,2.73,15.88S88,141.41,83.59,139.6s-5.61-8.93-2.73-15.88S89.62,112.59,94,114.4"/><path class="cls-53" d="M94,114.45c4.37,1.81,5.58,8.89,2.72,15.82S88,141.35,83.61,139.55s-5.59-8.89-2.72-15.82,8.73-11.08,13.09-9.28"/><path class="cls-54" d="M94,114.5c4.35,1.8,5.56,8.85,2.7,15.75s-8.69,11-13,9.24-5.56-8.84-2.71-15.75,8.69-11,13-9.24"/><path class="cls-55" d="M93.94,114.55c4.33,1.79,5.53,8.82,2.69,15.69s-8.65,11-13,9.2-5.54-8.81-2.7-15.68,8.66-11,13-9.21"/><path class="cls-56" d="M93.92,114.61c4.31,1.78,5.51,8.77,2.68,15.62S88,141.17,83.67,139.39s-5.51-8.77-2.68-15.62,8.61-11,12.93-9.16"/><path class="cls-57" d="M93.9,114.66c4.29,1.77,5.49,8.74,2.67,15.55S88,141.12,83.69,139.34,78.2,130.6,81,123.78s8.58-10.9,12.88-9.12"/><path class="cls-58" d="M93.87,114.71c4.28,1.77,5.47,8.7,2.67,15.49S88,141.06,83.71,139.29s-5.47-8.7-2.66-15.49,8.55-10.86,12.82-9.09"/><path class="cls-59" d="M93.85,114.76c4.26,1.76,5.45,8.67,2.65,15.43S88,141,83.73,139.24s-5.44-8.67-2.65-15.43,8.51-10.81,12.77-9"/><path class="cls-60" d="M93.83,114.81c4.24,1.75,5.42,8.63,2.64,15.36s-8.48,10.77-12.72,9-5.42-8.63-2.64-15.37,8.48-10.76,12.72-9"/><path class="cls-61" d="M93.81,114.86c4.22,1.75,5.4,8.6,2.63,15.3s-8.44,10.72-12.66,9-5.4-8.59-2.63-15.29,8.44-10.72,12.66-9"/><path class="cls-62" d="M93.79,114.91c4.2,1.74,5.38,8.56,2.62,15.24S88,140.82,83.8,139.08s-5.38-8.55-2.62-15.23,8.4-10.67,12.61-8.94"/><path class="cls-63" d="M93.77,115c4.19,1.74,5.35,8.53,2.6,15.17S88,140.76,83.82,139s-5.36-8.52-2.61-15.17,8.37-10.63,12.56-8.9"/><path class="cls-64" d="M93.75,115c4.17,1.72,5.33,8.48,2.59,15.1S88,140.7,83.84,139s-5.33-8.48-2.6-15.1,8.34-10.59,12.51-8.86"/><path class="cls-65" d="M93.73,115.07c4.15,1.71,5.3,8.45,2.58,15s-8.3,10.54-12.45,8.82-5.31-8.45-2.58-15,8.29-10.54,12.45-8.82"/><path class="cls-66" d="M93.7,115.12c4.14,1.71,5.29,8.41,2.58,15s-8.26,10.5-12.4,8.79-5.28-8.41-2.57-15,8.26-10.49,12.39-8.78"/><path class="cls-67" d="M93.68,115.17c4.12,1.7,5.27,8.38,2.57,14.91S88,140.53,83.9,138.83s-5.26-8.38-2.56-14.91,8.23-10.45,12.34-8.75"/><path class="cls-68" d="M93.66,115.22c4.1,1.69,5.24,8.34,2.55,14.85s-8.19,10.4-12.29,8.71-5.24-8.34-2.55-14.85,8.19-10.4,12.29-8.71"/><path class="cls-69" d="M93.64,115.27c4.08,1.69,5.22,8.31,2.54,14.78S88,140.41,84,138.73s-5.22-8.31-2.54-14.79,8.15-10.36,12.23-8.67"/><path class="cls-70" d="M93.62,115.32c4.06,1.68,5.19,8.27,2.53,14.72S88,140.35,84,138.67s-5.2-8.26-2.53-14.71,8.12-10.32,12.18-8.64"/><path class="cls-71" d="M93.6,115.37c4,1.68,5.17,8.24,2.52,14.66S88,140.3,84,138.62s-5.17-8.23-2.52-14.65,8.08-10.27,12.13-8.6"/><path class="cls-72" d="M93.58,115.42c4,1.67,5.15,8.2,2.5,14.59S88,140.24,84,138.57,78.86,130.38,81.5,124s8-10.22,12.08-8.56"/><path class="cls-73" d="M93.56,115.48c4,1.65,5.12,8.16,2.49,14.52s-8,10.18-12,8.52-5.13-8.16-2.5-14.52,8-10.18,12-8.52"/><path class="cls-74" d="M93.54,115.53c4,1.65,5.1,8.12,2.48,14.46s-8,10.13-12,8.48S79,130.35,81.57,124s8-10.13,12-8.48"/><path class="cls-75" d="M93.51,115.58c4,1.64,5.08,8.09,2.48,14.39s-7.94,10.09-11.92,8.45S79,130.33,81.6,124s7.94-10.08,11.91-8.44"/><path class="cls-76" d="M93.49,115.63c4,1.64,5.06,8.05,2.46,14.33s-7.9,10-11.86,8.41-5-8.05-2.46-14.33,7.91-10,11.86-8.41"/><path class="cls-77" d="M93.47,115.68c3.94,1.63,5,8,2.45,14.27s-7.87,10-11.81,8.37-5-8-2.45-14.27,7.87-10,11.81-8.37"/><path class="cls-78" d="M93.45,115.73c3.92,1.62,5,8,2.44,14.2s-7.84,9.95-11.75,8.33-5-8-2.44-14.2,7.83-10,11.75-8.33"/><path class="cls-79" d="M93.43,115.78c3.9,1.62,5,8,2.43,14.14s-7.8,9.91-11.7,8.29-5-7.94-2.43-14.13,7.8-9.91,11.7-8.3"/><path class="cls-80" d="M93.41,115.84c3.88,1.6,5,7.9,2.42,14.07s-7.77,9.86-11.65,8.25-5-7.9-2.42-14.07,7.76-9.86,11.65-8.25"/><path class="cls-81" d="M93.39,115.89c3.86,1.59,4.94,7.86,2.4,14s-7.72,9.82-11.59,8.22-4.94-7.87-2.41-14,7.73-9.81,11.6-8.21"/><path class="cls-82" d="M93.37,115.94c3.84,1.59,4.92,7.83,2.39,13.94s-7.69,9.77-11.54,8.18-4.92-7.83-2.4-13.94,7.7-9.77,11.55-8.18"/><path class="cls-83" d="M93.34,116c3.84,1.58,4.9,7.8,2.39,13.88s-7.66,9.72-11.49,8.14-4.9-7.8-2.38-13.88,7.65-9.72,11.48-8.14"/><path class="cls-84" d="M93.32,116c3.82,1.58,4.88,7.76,2.38,13.81s-7.62,9.68-11.44,8.11-4.87-7.76-2.37-13.82,7.62-9.68,11.43-8.1"/><path class="cls-85" d="M93.3,116.09c3.8,1.57,4.86,7.73,2.36,13.75s-7.58,9.63-11.38,8.07-4.85-7.73-2.36-13.75,7.59-9.64,11.38-8.07"/><path class="cls-86" d="M93.28,116.14c3.78,1.56,4.83,7.69,2.35,13.69s-7.55,9.59-11.33,8-4.82-7.68-2.35-13.68,7.55-9.59,11.33-8"/><path class="cls-87" d="M93.26,116.19c3.76,1.56,4.81,7.65,2.34,13.62s-7.51,9.55-11.27,8-4.81-7.65-2.34-13.62,7.51-9.54,11.27-8"/><path class="cls-88" d="M93.24,116.24c3.74,1.55,4.78,7.62,2.33,13.56s-7.48,9.5-11.22,7.95S79.56,130.14,82,124.2s7.48-9.5,11.22-8"/><path class="cls-89" d="M93.22,116.3c3.72,1.54,4.76,7.58,2.32,13.49s-7.45,9.45-11.17,7.91-4.76-7.58-2.32-13.49,7.44-9.45,11.17-7.91"/><path class="cls-90" d="M93.2,116.35c3.7,1.53,4.74,7.54,2.3,13.42s-7.4,9.41-11.11,7.88-4.74-7.54-2.31-13.43,7.41-9.41,11.12-7.87"/><path class="cls-91" d="M93.18,116.4c3.68,1.52,4.71,7.51,2.29,13.36s-7.37,9.36-11.06,7.84-4.71-7.51-2.29-13.36,7.37-9.37,11.06-7.84"/><path class="cls-92" d="M93.15,116.45c3.67,1.52,4.7,7.47,2.29,13.3s-7.34,9.32-11,7.8-4.69-7.47-2.28-13.3,7.33-9.32,11-7.8"/><path class="cls-93" d="M93.13,116.5c3.66,1.51,4.67,7.44,2.28,13.23s-7.3,9.28-11,7.77-4.67-7.44-2.27-13.23,7.3-9.28,10.95-7.77"/><path class="cls-94" d="M93.11,116.55c3.64,1.5,4.65,7.4,2.26,13.17s-7.26,9.23-10.9,7.73-4.64-7.4-2.26-13.17,7.27-9.23,10.9-7.73"/><path class="cls-95" d="M93.09,116.6c3.62,1.5,4.63,7.36,2.25,13.11s-7.23,9.18-10.84,7.68-4.63-7.36-2.26-13.1,7.23-9.18,10.85-7.69"/><path class="cls-96" d="M93.07,116.65c3.6,1.49,4.6,7.33,2.24,13s-7.19,9.14-10.79,7.65-4.61-7.32-2.24-13,7.19-9.13,10.79-7.65"/><path class="cls-97" d="M93.05,116.71c3.58,1.48,4.58,7.28,2.23,13s-7.16,9.09-10.74,7.61-4.58-7.29-2.23-13,7.16-9.09,10.74-7.61"/><path class="cls-98" d="M93,116.76c3.56,1.47,4.55,7.25,2.22,12.91s-7.13,9-10.69,7.57S80,130,82.34,124.33s7.12-9,10.69-7.57"/><path class="cls-99" d="M93,116.81c3.54,1.46,4.53,7.21,2.2,12.84s-7.08,9-10.63,7.54-4.53-7.22-2.21-12.85,7.09-9,10.64-7.53"/><path class="cls-100" d="M93,116.86c3.52,1.46,4.51,7.18,2.19,12.78s-7.05,9-10.58,7.5-4.51-7.18-2.19-12.78,7-9,10.58-7.5"/><path class="cls-101" d="M93,116.91c3.51,1.45,4.49,7.15,2.19,12.72s-7,8.91-10.53,7.46-4.49-7.15-2.18-12.72,7-8.91,10.52-7.46"/><path class="cls-102" d="M92.94,117c3.49,1.45,4.47,7.11,2.18,12.65s-7,8.87-10.48,7.43-4.46-7.11-2.17-12.65,7-8.87,10.47-7.43"/><path class="cls-103" d="M92.92,117c3.48,1.44,4.44,7.07,2.16,12.59s-6.94,8.82-10.42,7.38-4.44-7.07-2.16-12.58,7-8.82,10.42-7.39"/><path class="cls-104" d="M92.9,117.06c3.46,1.43,4.42,7,2.15,12.53s-6.91,8.77-10.36,7.34-4.42-7-2.15-12.52,6.9-8.78,10.36-7.35"/><path class="cls-105" d="M92.88,117.12c3.44,1.42,4.4,7,2.14,12.45s-6.87,8.73-10.31,7.31-4.4-7-2.14-12.45,6.87-8.74,10.31-7.31"/><path class="cls-106" d="M92.86,117.17c3.42,1.41,4.37,7,2.13,12.39s-6.84,8.69-10.26,7.27-4.38-7-2.13-12.39,6.84-8.69,10.26-7.27"/><path class="cls-107" d="M92.84,117.22c3.4,1.4,4.35,6.92,2.11,12.33s-6.8,8.64-10.2,7.23-4.35-6.93-2.12-12.33,6.8-8.64,10.21-7.23"/><path class="cls-108" d="M92.82,117.27c3.38,1.4,4.32,6.89,2.1,12.26s-6.76,8.6-10.15,7.2-4.33-6.89-2.11-12.27,6.77-8.59,10.16-7.19"/><path class="cls-109" d="M92.79,117.32c3.37,1.39,4.31,6.85,2.1,12.2s-6.73,8.55-10.1,7.16-4.3-6.86-2.09-12.2,6.73-8.55,10.09-7.16"/><path class="cls-110" d="M92.77,117.37c3.35,1.39,4.29,6.82,2.09,12.14s-6.7,8.5-10,7.12-4.28-6.82-2.08-12.14,6.69-8.5,10-7.12"/><path class="cls-111" d="M92.75,117.42c3.33,1.38,4.26,6.78,2.08,12.07s-6.66,8.46-10,7.08-4.26-6.78-2.07-12.06,6.66-8.46,10-7.09"/><path class="cls-112" d="M92.73,117.47c3.31,1.37,4.24,6.75,2.06,12s-6.62,8.41-9.93,7-4.24-6.74-2.07-12,6.63-8.42,9.94-7"/><path class="cls-113" d="M92.71,117.52c3.3,1.37,4.21,6.71,2.05,12s-6.59,8.37-9.88,7-4.22-6.71-2.06-11.94,6.59-8.37,9.89-7"/><path class="cls-114" d="M92.69,117.58c3.28,1.35,4.19,6.67,2,11.87s-6.55,8.33-9.83,7-4.19-6.67-2-11.87,6.55-8.33,9.83-7"/><path class="cls-115" d="M92.67,117.63c3.26,1.35,4.17,6.63,2,11.81s-6.52,8.28-9.78,6.93-4.17-6.64-2-11.81,6.52-8.28,9.78-6.93"/><path class="cls-116" d="M92.65,117.68c3.24,1.34,4.14,6.6,2,11.75s-6.49,8.23-9.73,6.89-4.15-6.6-2-11.75,6.48-8.23,9.73-6.89"/><path class="cls-117" d="M92.63,117.73c3.22,1.33,4.12,6.56,2,11.68s-6.44,8.19-9.67,6.86-4.12-6.57-2-11.69,6.45-8.18,9.68-6.85"/><path class="cls-118" d="M92.6,117.78c3.21,1.33,4.1,6.53,2,11.62s-6.41,8.14-9.62,6.82-4.1-6.53-2-11.62,6.41-8.14,9.61-6.82"/><path class="cls-119" d="M92.58,117.83c3.19,1.32,4.08,6.49,2,11.56s-6.38,8.09-9.57,6.78-4.07-6.5-2-11.56,6.37-8.1,9.56-6.78"/><path class="cls-120" d="M92.56,117.88c3.17,1.31,4.06,6.46,2,11.49s-6.34,8-9.52,6.74-4-6.45-2-11.49,6.34-8.05,9.51-6.74"/><path class="cls-121" d="M92.54,117.93c3.15,1.31,4,6.42,2,11.43s-6.3,8-9.45,6.7-4-6.42-2-11.42,6.31-8,9.46-6.71"/><path class="cls-122" d="M92.52,118c3.14,1.29,4,6.38,2,11.36s-6.27,8-9.4,6.66-4-6.38-1.95-11.36,6.26-8,9.4-6.66"/><path class="cls-123" d="M92.5,118c3.12,1.29,4,6.34,1.94,11.29s-6.23,7.92-9.35,6.63-4-6.35-1.94-11.29,6.23-7.92,9.35-6.63"/><path class="cls-124" d="M92.48,118.09c3.1,1.28,4,6.31,1.93,11.23s-6.2,7.87-9.3,6.59-4-6.31-1.93-11.23,6.2-7.87,9.3-6.59"/><path class="cls-125" d="M92.46,118.14c3.08,1.27,3.94,6.27,1.91,11.17s-6.16,7.82-9.24,6.55-3.94-6.28-1.92-11.17,6.16-7.82,9.25-6.55"/><path class="cls-126" d="M92.43,118.19c3.07,1.27,3.92,6.24,1.91,11.1s-6.12,7.78-9.19,6.52-3.92-6.24-1.91-11.1,6.13-7.79,9.19-6.52"/><path class="cls-127" d="M92.41,118.24c3,1.26,3.9,6.2,1.9,11s-6.09,7.73-9.14,6.48-3.89-6.2-1.89-11,6.09-7.74,9.13-6.48"/><path class="cls-128" d="M92.39,118.29c3,1.26,3.88,6.17,1.89,11s-6.06,7.69-9.09,6.43-3.87-6.16-1.88-11,6-7.69,9.08-6.44"/><path class="cls-129" d="M92.37,118.34c3,1.25,3.85,6.13,1.88,10.91s-6,7.65-9,6.4-3.85-6.13-1.88-10.91,6-7.64,9-6.4"/><path class="cls-130" d="M92.35,118.4c3,1.23,3.83,6.09,1.86,10.84s-6,7.6-9,6.36-3.83-6.09-1.87-10.84,6-7.6,9-6.36"/><path class="cls-131" d="M92.33,118.45c3,1.23,3.8,6,1.85,10.78s-6,7.55-8.92,6.32-3.81-6.06-1.85-10.78,5.94-7.55,8.92-6.32"/><path class="cls-132" d="M92.31,118.5c3,1.22,3.78,6,1.84,10.71s-5.91,7.51-8.87,6.29-3.78-6-1.84-10.72,5.91-7.5,8.87-6.28"/><path class="cls-133" d="M92.29,118.55c2.94,1.21,3.76,6,1.83,10.65s-5.88,7.46-8.82,6.25-3.76-6-1.83-10.65,5.88-7.47,8.82-6.25"/><path class="cls-134" d="M92.27,118.6c2.92,1.21,3.73,6,1.81,10.59s-5.84,7.41-8.76,6.21-3.73-6-1.82-10.59,5.84-7.42,8.77-6.21"/><path class="cls-135" d="M92.24,118.65c2.91,1.2,3.72,5.91,1.81,10.52s-5.8,7.38-8.71,6.18-3.71-5.92-1.81-10.53,5.81-7.37,8.71-6.17"/><path class="cls-136" d="M92.22,118.7c2.89,1.2,3.69,5.88,1.8,10.46s-5.77,7.33-8.66,6.14-3.69-5.88-1.79-10.46,5.77-7.33,8.65-6.14"/><path class="cls-136" d="M92.2,118.75c2.87,1.19,3.67,5.84,1.79,10.4s-5.74,7.28-8.61,6.09-3.66-5.84-1.78-10.39,5.73-7.28,8.6-6.1"/><path class="cls-137" d="M92.18,118.8C95,120,95.83,124.61,94,129.13s-5.69,7.24-8.54,6.06-3.65-5.8-1.78-10.33,5.7-7.23,8.55-6.06"/><path class="cls-138" d="M92.16,118.86c2.83,1.17,3.62,5.76,1.76,10.26s-5.66,7.19-8.49,6-3.62-5.76-1.77-10.26,5.67-7.2,8.5-6"/><path class="cls-139" d="M92.14,118.91c2.81,1.16,3.6,5.73,1.75,10.2s-5.63,7.14-8.44,6-3.6-5.73-1.75-10.2,5.62-7.15,8.44-6"/><path class="cls-139" d="M92.12,119c2.79,1.16,3.57,5.69,1.74,10.13s-5.59,7.1-8.39,5.95-3.58-5.69-1.74-10.14,5.59-7.1,8.39-5.94"/><path class="cls-140" d="M92.1,119c2.77,1.15,3.55,5.66,1.73,10.07s-5.56,7.06-8.34,5.91-3.55-5.66-1.73-10.07,5.56-7.06,8.34-5.91"/><path class="cls-141" d="M92.07,119.06c2.77,1.14,3.54,5.62,1.72,10s-5.52,7-8.28,5.87-3.53-5.62-1.72-10,5.52-7,8.28-5.87"/><path class="cls-142" d="M92.05,119.11c2.75,1.14,3.51,5.59,1.71,9.94s-5.48,7-8.23,5.83-3.51-5.58-1.71-9.94,5.49-7,8.23-5.83"/><path class="cls-142" d="M92,119.16c2.73,1.13,3.49,5.55,1.7,9.88s-5.45,6.92-8.18,5.79-3.48-5.54-1.69-9.87,5.45-6.92,8.17-5.8"/><path class="cls-143" d="M92,119.21c2.71,1.12,3.46,5.52,1.69,9.82s-5.42,6.87-8.13,5.75-3.46-5.51-1.68-9.81,5.41-6.88,8.12-5.76"/><path class="cls-143" d="M92,119.27c2.69,1.11,3.44,5.47,1.67,9.74s-5.37,6.83-8.06,5.72-3.44-5.48-1.68-9.75,5.38-6.83,8.07-5.71"/><path class="cls-144" d="M92,119.32c2.67,1.1,3.42,5.44,1.66,9.68s-5.34,6.79-8,5.68S82.2,129.24,84,125s5.35-6.79,8-5.68"/><path class="cls-145" d="M92,119.37c2.65,1.1,3.39,5.4,1.65,9.62s-5.31,6.74-8,5.64-3.4-5.4-1.65-9.62,5.3-6.74,8-5.64"/><path class="cls-145" d="M91.93,119.42c2.63,1.09,3.37,5.37,1.64,9.55s-5.27,6.7-7.91,5.61S82.29,129.21,84,125s5.27-6.69,7.91-5.6"/><path class="cls-146" d="M91.91,119.47c2.61,1.08,3.34,5.33,1.63,9.49s-5.24,6.65-7.86,5.57-3.35-5.33-1.63-9.49,5.24-6.65,7.86-5.57"/><path class="cls-146" d="M91.88,119.52c2.61,1.08,3.33,5.3,1.62,9.43s-5.2,6.6-7.8,5.53-3.32-5.3-1.62-9.43,5.2-6.6,7.8-5.53"/><path class="cls-147" d="M91.86,119.57c2.59,1.07,3.31,5.26,1.61,9.36s-5.16,6.56-7.75,5.49-3.3-5.25-1.6-9.36,5.16-6.55,7.74-5.49"/><path class="cls-147" d="M91.84,119.62c2.57,1.07,3.28,5.23,1.6,9.3s-5.13,6.51-7.7,5.45-3.28-5.22-1.59-9.29,5.13-6.52,7.69-5.46"/><path class="cls-148" d="M91.82,119.68c2.55,1,3.26,5.18,1.59,9.22s-5.1,6.47-7.64,5.42-3.26-5.18-1.59-9.23,5.09-6.47,7.64-5.41"/><path class="cls-148" d="M91.8,119.73c2.53,1,3.23,5.15,1.57,9.16s-5.05,6.43-7.58,5.38-3.24-5.15-1.58-9.17,5.06-6.42,7.59-5.37"/><path class="cls-149" d="M91.78,119.78c2.51,1,3.21,5.11,1.56,9.1s-5,6.38-7.53,5.34-3.21-5.11-1.57-9.1,5-6.38,7.54-5.34"/><path class="cls-149" d="M91.76,119.83c2.49,1,3.19,5.08,1.55,9s-5,6.33-7.48,5.3-3.19-5.08-1.55-9,5-6.33,7.48-5.3"/><path class="cls-150" d="M91.74,119.88c2.47,1,3.16,5,1.54,9s-5,6.29-7.43,5.27-3.17-5-1.54-9,5-6.29,7.43-5.27"/><path class="cls-150" d="M91.71,119.93c2.46,1,3.15,5,1.54,8.91s-4.92,6.24-7.38,5.23-3.14-5-1.53-8.91,4.92-6.25,7.37-5.23"/><path class="cls-151" d="M91.69,120c2.44,1,3.12,5,1.52,8.85S88.33,135,85.89,134s-3.12-5-1.52-8.84,4.88-6.2,7.32-5.19"/><path class="cls-151" d="M91.67,120c2.43,1,3.1,4.94,1.51,8.78S88.34,135,85.91,134s-3.09-4.93-1.5-8.78S89.25,119,91.67,120"/><path class="cls-151" d="M91.65,120.09c2.41,1,3.08,4.89,1.5,8.71s-4.81,6.11-7.21,5.11-3.08-4.89-1.5-8.71,4.81-6.11,7.21-5.11"/><path class="cls-152" d="M91.63,120.14c2.39,1,3.05,4.86,1.49,8.64s-4.78,6.07-7.16,5.08-3.06-4.86-1.49-8.65,4.77-6.06,7.16-5.07"/><path class="cls-152" d="M91.61,120.19c2.37,1,3,4.82,1.47,8.58s-4.73,6-7.1,5-3-4.82-1.48-8.59,4.74-6,7.11-5"/><path class="cls-153" d="M91.59,120.24c2.35,1,3,4.79,1.46,8.52s-4.7,6-7,5-3-4.79-1.47-8.52,4.71-6,7.06-5"/><path class="cls-153" d="M91.57,120.29c2.33,1,3,4.75,1.45,8.46s-4.67,5.92-7,5-3-4.75-1.45-8.46,4.66-5.92,7-5"/><path class="cls-153" d="M91.55,120.34c2.31,1,3,4.72,1.44,8.39s-4.63,5.88-6.95,4.92-3-4.71-1.44-8.39,4.63-5.88,7-4.92"/><path class="cls-154" d="M91.52,120.39c2.3,1,2.94,4.68,1.44,8.33s-4.6,5.83-6.9,4.88-2.94-4.67-1.43-8.32,4.6-5.84,6.89-4.89"/><path class="cls-154" d="M91.5,120.44c2.28,1,2.92,4.65,1.42,8.27s-4.56,5.79-6.84,4.84-2.91-4.64-1.42-8.26,4.56-5.79,6.84-4.85"/><path class="cls-154" d="M91.48,120.5c2.26.93,2.9,4.6,1.41,8.19s-4.52,5.75-6.79,4.81-2.89-4.6-1.4-8.19,4.52-5.75,6.78-4.81"/><path class="cls-155" d="M91.46,120.55c2.25.93,2.87,4.57,1.4,8.13s-4.49,5.7-6.73,4.77-2.88-4.57-1.4-8.13,4.49-5.7,6.73-4.77"/><path class="cls-155" d="M91.44,120.6c2.23.92,2.85,4.53,1.39,8.07s-4.46,5.65-6.68,4.73-2.85-4.53-1.39-8.07,4.45-5.65,6.68-4.73"/><path class="cls-155" d="M91.42,120.65c2.21.91,2.82,4.5,1.37,8s-4.41,5.61-6.62,4.7-2.83-4.5-1.38-8,4.42-5.6,6.63-4.69"/><path class="cls-155" d="M91.4,120.7c2.19.91,2.8,4.46,1.36,7.94s-4.38,5.56-6.57,4.66-2.8-4.46-1.36-7.94,4.38-5.57,6.57-4.66"/><path class="cls-156" d="M91.38,120.75c2.17.9,2.78,4.43,1.35,7.88s-4.35,5.52-6.52,4.62-2.78-4.43-1.35-7.88,4.34-5.52,6.52-4.62"/><path class="cls-156" d="M91.35,120.8c2.16.89,2.76,4.39,1.35,7.81s-4.31,5.48-6.47,4.59-2.76-4.39-1.34-7.82,4.31-5.47,6.46-4.58"/><path class="cls-156" d="M91.33,120.85c2.14.89,2.74,4.36,1.33,7.75s-4.27,5.43-6.41,4.54-2.73-4.35-1.33-7.74,4.28-5.43,6.41-4.55"/><path class="cls-156" d="M91.31,120.9c2.12.88,2.71,4.32,1.32,7.69s-4.24,5.38-6.36,4.5-2.71-4.31-1.32-7.68,4.24-5.38,6.36-4.51"/><path class="cls-157" d="M91.29,121c2.1.87,2.69,4.28,1.31,7.61s-4.2,5.34-6.3,4.47-2.69-4.28-1.31-7.61,4.2-5.34,6.3-4.47"/><path class="cls-157" d="M91.27,121c2.08.86,2.67,4.24,1.3,7.55s-4.17,5.29-6.25,4.43-2.67-4.24-1.3-7.55,4.17-5.29,6.25-4.43"/><path class="cls-157" d="M91.25,121.06c2.07.85,2.64,4.2,1.29,7.49s-4.14,5.24-6.2,4.39-2.65-4.21-1.29-7.49,4.13-5.25,6.2-4.39"/><path class="cls-157" d="M91.23,121.11c2,.85,2.62,4.17,1.27,7.42s-4.09,5.2-6.14,4.36-2.62-4.17-1.28-7.43,4.1-5.2,6.15-4.35"/><path class="cls-157" d="M91.21,121.16c2,.84,2.59,4.14,1.26,7.36s-4.06,5.16-6.09,4.32-2.6-4.14-1.26-7.36,4.06-5.16,6.09-4.32"/><path class="cls-158" d="M91.19,121.21c2,.83,2.57,4.1,1.25,7.3s-4,5.11-6,4.28-2.57-4.1-1.25-7.3,4-5.11,6-4.28"/><path class="cls-158" d="M91.16,121.26c2,.83,2.56,4.06,1.25,7.23s-4,5.07-6,4.24-2.55-4.06-1.24-7.23,4-5.06,6-4.24"/><path class="cls-158" d="M91.14,121.31c2,.82,2.53,4,1.23,7.17s-4,5-5.93,4.2-2.53-4-1.23-7.16,4-5,5.93-4.21"/><path class="cls-158" d="M91.12,121.37c2,.81,2.51,4,1.22,7.1s-3.92,5-5.88,4.16-2.5-4-1.22-7.1,3.92-5,5.88-4.16"/><path class="cls-158" d="M91.1,121.42c1.94.8,2.48,4,1.21,7s-3.88,4.93-5.82,4.13-2.49-4-1.21-7,3.88-4.94,5.82-4.13"/><path class="cls-159" d="M91.08,121.47c1.92.79,2.46,3.91,1.2,7s-3.85,4.88-5.77,4.09-2.46-3.92-1.2-7,3.85-4.89,5.77-4.09"/><path class="cls-159" d="M91.06,121.52c1.91.79,2.44,3.88,1.19,6.91s-3.82,4.84-5.72,4-2.44-3.88-1.19-6.91,3.81-4.84,5.72-4"/><path class="cls-159" d="M91,121.57c1.89.78,2.41,3.84,1.17,6.84s-3.77,4.8-5.66,4-2.42-3.85-1.18-6.84,3.78-4.8,5.67-4"/><path class="cls-159" d="M91,121.62c1.87.77,2.39,3.81,1.16,6.78s-3.74,4.75-5.61,4-2.39-3.81-1.16-6.78,3.74-4.75,5.61-4"/><path class="cls-159" d="M91,121.67c1.86.77,2.37,3.77,1.16,6.72s-3.71,4.7-5.56,3.93-2.37-3.77-1.15-6.71,3.7-4.7,5.55-3.94"/><path class="cls-159" d="M91,121.72c1.84.76,2.35,3.74,1.15,6.65s-3.67,4.66-5.51,3.9-2.34-3.73-1.14-6.65,3.67-4.66,5.5-3.9"/><path class="cls-159" d="M91,121.78c1.82.75,2.33,3.69,1.13,6.58s-3.63,4.61-5.45,3.86-2.32-3.7-1.13-6.58S89.14,121,91,121.78"/><path class="cls-160" d="M90.93,121.83c1.8.74,2.3,3.66,1.12,6.52s-3.6,4.57-5.39,3.82-2.31-3.66-1.12-6.52,3.59-4.57,5.39-3.82"/><path class="cls-160" d="M90.91,121.88c1.78.73,2.28,3.62,1.11,6.45s-3.56,4.53-5.34,3.79-2.28-3.63-1.11-6.45,3.56-4.53,5.34-3.79"/><path class="cls-160" d="M90.89,121.93c1.76.73,2.25,3.59,1.1,6.39s-3.53,4.48-5.29,3.75-2.26-3.59-1.1-6.39,3.52-4.48,5.29-3.75"/><path class="cls-160" d="M90.87,122c1.74.72,2.23,3.55,1.08,6.33s-3.49,4.43-5.23,3.71-2.23-3.56-1.09-6.33,3.49-4.43,5.24-3.71"/><path class="cls-160" d="M90.85,122c1.72.72,2.21,3.52,1.07,6.26s-3.45,4.39-5.18,3.68-2.21-3.52-1.08-6.26,3.46-4.39,5.19-3.68"/><path class="cls-160" d="M90.83,122.08c1.71.71,2.18,3.48,1.06,6.2s-3.42,4.34-5.13,3.64-2.19-3.49-1.06-6.2,3.42-4.34,5.13-3.64"/><path class="cls-160" d="M90.8,122.13c1.7.7,2.17,3.45,1.06,6.14s-3.39,4.29-5.08,3.59-2.16-3.44-1-6.13,3.38-4.3,5.07-3.6"/><path class="cls-160" d="M90.78,122.18c1.68.7,2.14,3.41,1,6.07s-3.35,4.25-5,3.56-2.14-3.41-1-6.06,3.35-4.26,5-3.57"/><path class="cls-160" d="M90.76,122.24c1.66.68,2.12,3.37,1,6s-3.31,4.21-5,3.52-2.11-3.37-1-6,3.31-4.21,5-3.52"/><path class="cls-160" d="M90.74,122.29c1.64.68,2.1,3.33,1,5.94s-3.28,4.16-4.92,3.48-2.09-3.34-1-5.94,3.28-4.16,4.92-3.48"/><path class="cls-161" d="M90.72,122.34c1.62.67,2.07,3.3,1,5.87s-3.24,4.12-4.86,3.45-2.08-3.3-1-5.87,3.24-4.12,4.86-3.45"/><path class="cls-161" d="M90.7,122.39c1.6.66,2,3.26,1,5.81s-3.21,4.07-4.81,3.41-2-3.27-1-5.81,3.2-4.07,4.81-3.41"/><path class="cls-161" d="M90.68,122.44c1.58.66,2,3.23,1,5.75s-3.17,4-4.75,3.37-2-3.23-1-5.75,3.17-4,4.76-3.37"/><path class="cls-161" d="M90.66,122.49c1.56.65,2,3.19,1,5.68s-3.13,4-4.7,3.34-2-3.2-1-5.68,3.14-4,4.71-3.34"/><path class="cls-161" d="M90.63,122.54c1.55.65,2,3.16,1,5.62s-3.1,3.94-4.65,3.29-2-3.15-1-5.61,3.09-3.94,4.64-3.3"/><path class="cls-161" d="M90.61,122.59c1.54.64,2,3.12,1,5.56S88.5,132,87,131.4s-2-3.12-1-5.55,3.06-3.89,4.59-3.26"/><path class="cls-161" d="M90.59,122.65c1.52.62,1.94,3.08.94,5.48s-3,3.85-4.54,3.22-1.93-3.08-.94-5.48,3-3.85,4.54-3.22"/><path class="cls-161" d="M90.57,122.7c1.5.62,1.92,3,.93,5.42s-3,3.8-4.49,3.18-1.91-3.05-.93-5.42,3-3.8,4.49-3.18"/><path class="cls-161" d="M90.55,122.75c1.48.61,1.89,3,.92,5.36s-3,3.75-4.43,3.14-1.89-3-.92-5.36,2.95-3.75,4.43-3.14"/><path class="cls-161" d="M90.53,122.8c1.46.6,1.87,3,.91,5.29s-2.92,3.71-4.38,3.11-1.87-3-.91-5.3,2.92-3.71,4.38-3.1"/><path class="cls-161" d="M90.51,122.85c1.44.6,1.84,2.94.9,5.23s-2.89,3.66-4.33,3.07-1.85-2.94-.9-5.23,2.89-3.67,4.33-3.07"/><path class="cls-161" d="M90.49,122.9c1.42.59,1.82,2.9.88,5.17s-2.84,3.61-4.27,3-1.82-2.91-.89-5.17,2.85-3.62,4.28-3"/><path class="cls-161" d="M90.47,123c1.4.59,1.8,2.87.87,5.1s-2.81,3.58-4.22,3-1.8-2.86-.88-5.09,2.82-3.58,4.23-3"/><path class="cls-161" d="M90.44,123c1.39.58,1.78,2.83.87,5s-2.78,3.53-4.17,3-1.78-2.83-.86-5,2.77-3.53,4.16-3"/><path class="cls-161" d="M90.42,123.06c1.38.56,1.76,2.79.86,5s-2.75,3.48-4.12,2.91-1.75-2.79-.85-5,2.74-3.48,4.11-2.91"/><path class="cls-161" d="M90.4,123.11c1.36.56,1.73,2.75.85,4.9s-2.71,3.44-4.07,2.88-1.73-2.76-.84-4.9,2.71-3.44,4.06-2.88"/><path class="cls-161" d="M90.38,123.16c1.34.55,1.71,2.72.83,4.84s-2.67,3.39-4,2.84-1.71-2.72-.84-4.84,2.68-3.39,4-2.84"/><path class="cls-161" d="M90.36,123.21c1.32.54,1.69,2.68.82,4.78s-2.63,3.34-4,2.8-1.69-2.68-.82-4.78,2.63-3.35,4-2.8"/><path class="cls-162" d="M90.34,123.26c1.3.54,1.66,2.65.81,4.71s-2.6,3.3-3.9,2.77-1.67-2.65-.81-4.72,2.6-3.3,3.9-2.76"/><path class="cls-162" d="M90.32,123.31c1.28.53,1.64,2.61.8,4.65s-2.57,3.26-3.85,2.73-1.64-2.62-.8-4.65,2.56-3.26,3.85-2.73"/><path class="cls-162" d="M90.3,123.36c1.26.53,1.61,2.58.78,4.59s-2.52,3.21-3.79,2.68-1.62-2.57-.79-4.58,2.53-3.21,3.8-2.69"/><path class="cls-162" d="M90.28,123.41c1.24.52,1.59,2.54.77,4.52s-2.49,3.17-3.74,2.65-1.59-2.53-.77-4.52,2.49-3.16,3.74-2.65"/><path class="cls-162" d="M90.25,123.46c1.23.51,1.58,2.51.77,4.46s-2.46,3.12-3.69,2.61-1.57-2.5-.76-4.45S89,123,90.25,123.46"/><path class="cls-162" d="M90.23,123.52c1.21.5,1.55,2.46.76,4.39s-2.42,3.07-3.64,2.57-1.55-2.47-.75-4.39S89,123,90.23,123.52"/><path class="cls-162" d="M90.21,123.57c1.2.49,1.53,2.43.74,4.32s-2.38,3-3.58,2.54-1.52-2.43-.74-4.33,2.39-3,3.58-2.53"/><path class="cls-162" d="M90.19,123.62c1.18.48,1.5,2.39.73,4.26s-2.35,3-3.52,2.5-1.51-2.39-.74-4.26,2.35-3,3.53-2.5"/><path class="cls-162" d="M90.17,123.67c1.16.48,1.48,2.36.72,4.2s-2.31,2.94-3.47,2.46-1.48-2.36-.72-4.2,2.31-2.94,3.47-2.46"/><path class="cls-162" d="M90.15,123.72c1.14.47,1.46,2.32.71,4.13s-2.28,2.9-3.42,2.43S86,128,86.73,126.14s2.28-2.89,3.42-2.42"/><path class="cls-162" d="M90.13,123.77c1.12.47,1.43,2.29.7,4.07s-2.25,2.85-3.37,2.38-1.44-2.28-.7-4.06,2.24-2.85,3.37-2.39"/><path class="cls-162" d="M90.11,123.82c1.1.46,1.41,2.25.68,4s-2.21,2.8-3.31,2.34-1.41-2.24-.69-4,2.21-2.8,3.32-2.35"/><path class="cls-162" d="M90.08,123.88c1.09.44,1.39,2.21.68,3.93s-2.17,2.76-3.26,2.31-1.39-2.21-.67-3.93,2.17-2.76,3.25-2.31"/><path class="cls-162" d="M90.06,123.93c1.07.44,1.37,2.17.67,3.87s-2.14,2.71-3.21,2.27-1.36-2.17-.66-3.87,2.13-2.72,3.2-2.27"/><path class="cls-162" d="M90,124c1,.43,1.35,2.14.66,3.81s-2.1,2.66-3.16,2.23-1.34-2.14-.65-3.81S89,123.54,90,124"/><path class="cls-162" d="M90,124c1,.43,1.32,2.1.64,3.74s-2.06,2.63-3.09,2.2-1.33-2.1-.65-3.75S89,123.6,90,124"/><path class="cls-162" d="M90,124.08c1,.42,1.3,2.07.63,3.68s-2,2.58-3,2.16-1.3-2.07-.64-3.68,2-2.58,3-2.16"/><path class="cls-162" d="M90,124.13c1,.41,1.27,2,.62,3.62s-2,2.53-3,2.12-1.28-2-.62-3.62,2-2.53,3-2.12"/><path class="cls-162" d="M90,124.18c1,.41,1.25,2,.61,3.55s-2,2.49-2.94,2.09-1.25-2-.61-3.56,2-2.48,2.94-2.08"/><path class="cls-162" d="M89.94,124.23c1,.4,1.23,2,.6,3.49s-1.93,2.44-2.89,2-1.23-1.95-.6-3.48,1.92-2.44,2.89-2"/><path class="cls-162" d="M89.92,124.28c.94.4,1.2,1.93.58,3.43s-1.88,2.39-2.83,2-1.21-1.92-.59-3.42,1.89-2.4,2.84-2"/><path class="cls-162" d="M89.89,124.34c.93.38,1.19,1.88.58,3.35s-1.85,2.35-2.78,2-1.18-1.88-.57-3.35,1.85-2.36,2.77-2"/><path class="cls-162" d="M89.87,124.39c.91.37,1.16,1.85.57,3.29s-1.82,2.31-2.73,1.93-1.16-1.85-.56-3.29S89,124,89.87,124.39"/><path class="cls-162" d="M89.85,124.44c.89.37,1.14,1.81.56,3.23s-1.78,2.26-2.68,1.89-1.13-1.81-.55-3.23,1.78-2.26,2.67-1.89"/><path class="cls-162" d="M89.83,124.49c.87.36,1.12,1.78.54,3.16s-1.74,2.22-2.61,1.86-1.12-1.78-.55-3.17,1.75-2.21,2.62-1.85"/><path class="cls-162" d="M89.81,124.54c.85.35,1.09,1.74.53,3.1s-1.71,2.17-2.56,1.82-1.1-1.74-.53-3.1,1.7-2.17,2.56-1.82"/><path class="cls-162" d="M89.79,124.59c.84.35,1.07,1.71.52,3s-1.67,2.13-2.51,1.78-1.07-1.7-.52-3,1.67-2.13,2.51-1.78"/><path class="cls-162" d="M89.77,124.64c.82.34,1,1.67.51,3s-1.64,2.08-2.46,1.74-1-1.66-.51-3,1.64-2.08,2.46-1.74"/><path class="cls-162" d="M89.75,124.69c.8.34,1,1.64.49,2.91s-1.6,2-2.4,1.7-1-1.63-.5-2.9,1.6-2,2.41-1.71"/><path class="cls-162" d="M89.72,124.75c.79.32,1,1.59.49,2.84s-1.56,2-2.35,1.66-1-1.59-.49-2.84,1.57-2,2.35-1.66"/><path class="cls-162" d="M89.7,124.8c.77.31,1,1.56.48,2.77s-1.53,2-2.3,1.63-1-1.56-.47-2.77,1.53-2,2.29-1.63"/><path class="cls-162" d="M89.68,124.85c.75.31,1,1.52.47,2.71s-1.5,1.9-2.25,1.59-1-1.52-.46-2.71,1.49-1.9,2.24-1.59"/><path class="cls-162" d="M89.66,124.9c.73.3.94,1.49.46,2.64s-1.46,1.86-2.19,1.56-.94-1.49-.46-2.65,1.46-1.85,2.19-1.55"/><path class="cls-162" d="M89.64,125c.71.3.91,1.45.44,2.58s-1.42,1.81-2.13,1.52-.91-1.45-.45-2.58,1.43-1.81,2.14-1.52"/><path class="cls-162" d="M89.62,125c.69.29.89,1.42.43,2.52S88.66,129.28,88,129s-.89-1.42-.44-2.52,1.39-1.77,2.09-1.48"/><path class="cls-162" d="M89.6,125.05c.67.28.86,1.38.42,2.45s-1.35,1.72-2,1.44-.87-1.37-.42-2.45,1.35-1.72,2-1.44"/><path class="cls-162" d="M89.58,125.1c.66.28.84,1.35.41,2.39s-1.32,1.68-2,1.4-.84-1.34-.41-2.39,1.32-1.67,2-1.4"/><path class="cls-162" d="M89.56,125.16c.64.26.82,1.3.39,2.32s-1.28,1.63-1.92,1.36-.82-1.3-.4-2.32,1.28-1.63,1.93-1.36"/><path class="cls-162" d="M89.53,125.21c.63.25.8,1.27.39,2.26s-1.24,1.58-1.87,1.32-.79-1.27-.39-2.26,1.25-1.58,1.87-1.32"/><path class="cls-162" d="M89.51,125.26c.61.25.78,1.23.38,2.19s-1.21,1.54-1.82,1.29-.77-1.23-.37-2.2,1.21-1.53,1.81-1.28"/><path class="cls-162" d="M89.49,125.31c.59.24.75,1.19.37,2.13s-1.18,1.49-1.77,1.25-.75-1.2-.36-2.13,1.17-1.49,1.76-1.25"/><path class="cls-162" d="M89.47,125.36c.57.24.73,1.16.36,2.07s-1.14,1.44-1.71,1.21-.73-1.16-.36-2.07,1.14-1.45,1.71-1.21"/><path class="cls-162" d="M89.45,125.41c.55.23.71,1.13.34,2s-1.1,1.4-1.65,1.18-.71-1.13-.35-2,1.11-1.41,1.66-1.18"/><path class="cls-162" d="M89.43,125.46c.53.22.68,1.09.33,1.94s-1.07,1.36-1.6,1.14-.69-1.09-.33-1.94,1.06-1.36,1.6-1.14"/><path class="cls-162" d="M89.41,125.51c.51.22.66,1.06.32,1.88s-1,1.31-1.55,1.09-.66-1-.32-1.87,1-1.31,1.55-1.1"/><path class="cls-162" d="M89.39,125.56c.49.21.63,1,.31,1.81s-1,1.27-1.5,1.06-.64-1-.31-1.8,1-1.27,1.5-1.07"/><path class="cls-162" d="M89.36,125.62c.49.19.62,1,.3,1.74s-1,1.22-1.44,1-.61-1-.3-1.74,1-1.22,1.44-1"/><path class="cls-162" d="M89.34,125.67c.47.19.6.94.29,1.68s-.92,1.17-1.39,1-.59-.94-.29-1.68.93-1.17,1.39-1"/><path class="cls-162" d="M89.32,125.72c.45.18.57.9.28,1.61s-.89,1.13-1.34,1-.57-.91-.27-1.62.89-1.13,1.33-.94"/><path class="cls-162" d="M89.3,125.77c.43.18.55.87.27,1.55s-.86,1.08-1.28.91-.55-.87-.27-1.55.85-1.09,1.28-.91"/><path class="cls-162" d="M89.28,125.82c.41.17.52.84.25,1.49s-.81,1-1.22.87-.53-.84-.26-1.49.82-1,1.23-.87"/><path class="cls-162" d="M89.26,125.87c.39.16.5.8.24,1.42s-.78,1-1.17.84-.5-.8-.25-1.42.79-1,1.18-.84"/><path class="cls-162" d="M89.24,125.92c.37.16.48.76.23,1.36s-.75.95-1.12.79-.48-.76-.23-1.35.74-1,1.12-.8"/><path class="cls-162" d="M89.22,126c.35.15.45.73.22,1.3s-.71.9-1.07.75-.46-.72-.22-1.29.71-.9,1.07-.76"/><path class="cls-162" d="M89.2,126c.33.14.43.68.21,1.22s-.68.86-1,.72-.43-.69-.21-1.22.68-.86,1-.72"/><path class="cls-162" d="M89.17,126.08c.33.13.41.65.2,1.16s-.64.81-1,.68-.41-.65-.2-1.16.64-.82,1-.68"/><path class="cls-162" d="M89.15,126.13c.31.12.39.61.19,1.1s-.6.76-.91.64-.38-.62-.18-1.1.6-.77.9-.64"/><path class="cls-162" d="M89.13,126.18c.29.12.37.58.18,1s-.57.73-.86.61-.36-.58-.17-1,.57-.72.85-.6"/><path class="cls-162" d="M89.11,126.23c.27.11.34.54.17,1s-.54.68-.8.57-.35-.55-.17-1,.53-.68.8-.57"/><path class="cls-162" d="M89.09,126.28c.25.11.32.51.15.91s-.49.63-.74.53-.32-.51-.16-.91.5-.63.75-.53"/><path class="cls-162" d="M89.07,126.33c.23.1.29.48.14.84s-.46.59-.69.49-.3-.47-.15-.83.47-.59.7-.5"/><path class="cls-162" d="M89.05,126.38c.21.09.27.44.13.78s-.43.54-.64.45-.27-.43-.13-.77.42-.54.64-.46"/><path class="cls-162" d="M89,126.44c.19.08.25.39.12.71s-.39.49-.59.41-.25-.4-.12-.71.39-.5.59-.41"/><path class="cls-162" d="M89,126.49c.17.07.22.36.11.64s-.36.45-.54.38-.23-.36-.11-.64.36-.46.54-.38"/><path class="cls-162" d="M89,126.54c.16.06.21.32.1.58s-.32.41-.48.34-.2-.33-.1-.58.32-.41.48-.34"/><path class="cls-162" d="M89,126.59c.15.06.18.29.09.52s-.28.36-.43.3-.18-.29-.08-.52.28-.36.42-.3"/><path class="cls-162" d="M88.94,126.64c.13,0,.16.25.08.45s-.25.32-.37.27-.16-.26-.08-.45.25-.32.37-.27"/><path class="cls-162" d="M88.92,126.69c.11,0,.14.22.07.39s-.22.27-.32.23-.14-.22-.07-.39.21-.27.32-.23"/><path class="cls-162" d="M88.9,126.74c.09,0,.11.18,0,.33s-.17.22-.26.19-.12-.19-.06-.33.18-.22.27-.19"/><path class="cls-162" d="M88.88,126.79c.07,0,.09.15,0,.26s-.14.18-.21.15-.09-.14,0-.25.15-.18.22-.16"/><path class="cls-162" d="M88.86,126.84s.06.11,0,.2-.11.13-.16.11-.07-.11,0-.19.1-.14.16-.12"/><path class="cls-162" d="M88.84,126.9s0,.07,0,.13-.07.09-.11.07,0-.07,0-.13.07-.09.11-.07"/><path class="cls-162" d="M88.81,127a0,0,0,0,1,0,.06s0,0-.06,0,0,0,0-.06,0,0,0,0"/></g></g></g></g></g></g></g></g></g></svg>