<svg id="_ÎÓÈ_1" data-name="—ÎÓÈ_1" xmlns="http://www.w3.org/2000/svg" xmlns:xlink="http://www.w3.org/1999/xlink" viewBox="0 0 524 591"><defs><style>.cls-1{fill:none;}.cls-2{fill:url(#Dégradé_sans_nom_12);}.cls-3{clip-path:url(#clip-path);}.cls-4{fill:#020421;}.cls-4,.cls-5{opacity:0.2;isolation:isolate;}.cls-6{fill:url(#Dégradé_sans_nom_5);}.cls-7{clip-path:url(#clip-path-2);}.cls-8{fill:url(#Dégradé_sans_nom_5-2);}.cls-9{clip-path:url(#clip-path-3);}</style><linearGradient id="Dégradé_sans_nom_12" x1="-1513.8" y1="-1491.02" x2="-1507.25" y2="-1480.88" gradientTransform="matrix(35.96, -34.76, -34.09, -35.27, 3960.4, -104494.28)" gradientUnits="userSpaceOnUse"><stop offset="0" stop-color="#3e2c46"/><stop offset="1" stop-color="#735287"/></linearGradient><clipPath id="clip-path"><path class="cls-1" d="M227.83,537.66c37.7,14.35,79.34-3,115.89-20.07a99.17,99.17,0,0,0,28-17.12,90.23,90.23,0,0,0,16.47-24.64,516.07,516.07,0,0,0,22-49.66,120.82,120.82,0,0,0,10.2-46c-.81-27.34-17.62-51.25-33.79-73.31-6.64-9.06-13.74-18.52-24-23.11-11.36-5.08-24.44-3.25-36.87-3.63-28.94-.83-56.82-13.91-85.72-12.4-49.34,2.59-89.63,55.26-79.24,103.55,2.43,11.31,7.16,22.1,8.55,33.59,3.56,29.09-12,37.79,1.56,69.65C182.3,501.22,199.59,526.91,227.83,537.66Z"/></clipPath><linearGradient id="Dégradé_sans_nom_5" x1="-1457.84" y1="-1641.76" x2="-1446.26" y2="-1623.14" gradientTransform="matrix(-28.21, 0, 0, 26.71, -40810.23, 43874.09)" gradientUnits="userSpaceOnUse"><stop offset="0" stop-color="#3e2c46"/><stop offset="1" stop-color="#5d4682"/></linearGradient><clipPath id="clip-path-2"><path class="cls-1" d="M324.57,151.26a51.1,51.1,0,0,0,9.19-39.13C329.38,93,311.43,80.53,294.86,70a110,110,0,0,0-27.39-14,37,37,0,0,0-29.83,2.74,106.45,106.45,0,0,0-16.37,16.09A261.57,261.57,0,0,1,193.38,95.3c-9.21,7-17.62,16.49-18.71,28-1,10.42,4.18,20.33,6.09,30.62.85,4.56,1.06,9.25,2.27,13.73,5.67,21,29.79,30.2,50.71,36.24a23,23,0,0,0,12,1.23c7.2-1.9,10.6-9.86,15.52-15.46,10.43-11.84,21-5.48,33.31-9.38C305.87,176.74,318.24,160.63,324.57,151.26Z"/></clipPath><linearGradient id="Dégradé_sans_nom_5-2" x1="-1393.15" y1="-1733.32" x2="-1367.17" y2="-1696.03" gradientTransform="matrix(-12.58, 0, 0, 13.35, -17050.82, 23259.67)" xlink:href="#Dégradé_sans_nom_5"/><clipPath id="clip-path-3"><path class="cls-1" d="M474.69,187.83a12,12,0,0,0-2.07-14.67,137.85,137.85,0,0,0-20.16-20.61c-6.88-5.88-14.9-11.65-23.93-11.34a26.07,26.07,0,0,0-22.43,20.33,58.9,58.9,0,0,0,2.61,31.93,34.63,34.63,0,0,0,4.08,9.45c5.15,7.55,14.74,10.41,23.6,12.75C457.66,221.29,467.09,206.4,474.69,187.83Z"/></clipPath></defs><g id="Groupe_34929" data-name="Groupe 34929"><path id="Tracé_52871" data-name="Tracé 52871" class="cls-2" d="M227.83,537.66c37.7,14.35,79.34-3,115.89-20.07a99.17,99.17,0,0,0,28-17.12,90.23,90.23,0,0,0,16.47-24.64,516.07,516.07,0,0,0,22-49.66,120.82,120.82,0,0,0,10.2-46c-.81-27.34-17.62-51.25-33.79-73.31-6.64-9.06-13.74-18.52-24-23.11-11.36-5.08-24.44-3.25-36.87-3.63-28.94-.83-56.82-13.91-85.72-12.4-49.34,2.59-89.63,55.26-79.24,103.55,2.43,11.31,7.16,22.1,8.55,33.59,3.56,29.09-12,37.79,1.56,69.65C182.3,501.22,199.59,526.91,227.83,537.66Z"/><g class="cls-3"><g id="Groupe_34928" data-name="Groupe 34928"><path id="Tracé_52872" data-name="Tracé 52872" class="cls-4" d="M128.05,404.74a80.91,80.91,0,0,1,32.88,30.41,340.31,340.31,0,0,1,20.77,40.32A19.81,19.81,0,0,0,189,485a20.27,20.27,0,0,0,14.25.26l22.67-5.15a50.89,50.89,0,0,0,15.69-5.44c9.13-5.67,13.67-16.28,18.24-26s10.63-20,20.87-23.38c17.62-5.78,36.39,12.22,54.17,6.93a33.55,33.55,0,0,0,12.59-7.73c12.31-11.11,20.45-26.17,32.3-37.77a8.7,8.7,0,0,1,4.42-2.76A9.23,9.23,0,0,1,390,385.7q29.22,16.92,56.69,36.63a27.23,27.23,0,0,1,11.39,12.72,25.36,25.36,0,0,1-2.11,16.5c-11.05,28.41-30.58,52.64-51,75.27a262.73,262.73,0,0,1-55.09,49.08,110.59,110.59,0,0,1-70.4,17.89A127.53,127.53,0,0,1,227,572.52,253.32,253.32,0,0,1,129.53,454"/><path id="Tracé_52873" data-name="Tracé 52873" class="cls-4" d="M137.3,381.18c17.7,8.13,29.66,24.74,42.38,39.48a23.84,23.84,0,0,0,8.07,6.83c7.33,3.17,15.52-1.21,22.27-5.45l25.1-15.74A10.43,10.43,0,0,0,242,393.23a10.79,10.79,0,0,0-1.05-2.32l-8-22.08a12.91,12.91,0,0,0-3.18-5.6c-2.9-2.52-7.23-2-11.08-1.86-16,.48-30.5-9-45.91-13.52a21.78,21.78,0,0,0-12.12-.83c-10,3-12.33,16.06-19.38,23.8"/><path id="Tracé_52874" data-name="Tracé 52874" class="cls-4" d="M259.89,346.05a170.24,170.24,0,0,0,35.82-17.23l-15.31-23c-5.24-7.86-11.43-16.39-20.72-18.17-10.39-2-21.22,4.93-30.57,8.53-9.13,3.51-17.89,8.88-17.37,19.94C212.81,337.91,241.46,352.39,259.89,346.05Z"/><path id="Tracé_52875" data-name="Tracé 52875" class="cls-5" d="M296.76,369.93a8.15,8.15,0,0,0,3.56-5.74,7.3,7.3,0,0,0-.48-2.81,13.16,13.16,0,0,0-16.45-7.14c-5.69,2.05-13.61,11.57-8.62,17.69C279.18,377.33,292.23,373.39,296.76,369.93Z"/><path id="Tracé_52876" data-name="Tracé 52876" class="cls-4" d="M316.75,282.56c2.32,11.26,2.74,22.82,4.8,34.13a118.21,118.21,0,0,0,6.24,21.9,13.5,13.5,0,0,0,2.52,4.52,16.38,16.38,0,0,0,9.44,3.5,170.82,170.82,0,0,1,28.08,9.13,62.2,62.2,0,0,0,28.93,4.73,26.82,26.82,0,0,0,22.45-16.75,37.11,37.11,0,0,0,1.09-13,55.24,55.24,0,0,0-2.74-17,61.2,61.2,0,0,0-11.68-17.66q-16.22-19.11-33.4-37.39a62.42,62.42,0,0,0-25.29-18.83c-9.72-3-32.94-2.15-40.36,6.23-4,4.58-1.34,9.31,1.05,14A85.86,85.86,0,0,1,316.75,282.56Z"/><path id="Tracé_52877" data-name="Tracé 52877" class="cls-4" d="M314.14,403c-.75,4.12-.88,9.43,2.87,11.25a9.6,9.6,0,0,0,8.15-1.21,158.82,158.82,0,0,0,25.9-16,15.21,15.21,0,0,0,6.67-8.51,14.34,14.34,0,0,0-2.17-8.95,71.79,71.79,0,0,0-12.71-17.4,5.06,5.06,0,0,0-2.66-1.68,4.86,4.86,0,0,0-2.85.78C319.39,370.7,317.34,384.79,314.14,403Z"/><path id="Tracé_52878" data-name="Tracé 52878" class="cls-5" d="M433,433.59c-26.37.79-45.86,24.93-70.86,33.36-21,7.1-44.5,2.55-65.84,8.68a41.24,41.24,0,0,0-19.05,10.74,72.93,72.93,0,0,0-11,18.89,159,159,0,0,1-19.59,31c-7.59,9.4-17.2,18.4-29.18,19.93-4.05.51-9.23.85-10.53,4.72a80.32,80.32,0,0,0,43.59,20.17,98.82,98.82,0,0,0,51.21-8.59,207.67,207.67,0,0,0,44.39-27.85c33.24-26,63.41-57.23,81.23-95.47"/></g></g></g><g id="Groupe_34931" data-name="Groupe 34931"><path id="Tracé_52880" data-name="Tracé 52880" class="cls-6" d="M324.57,151.26a51.1,51.1,0,0,0,9.19-39.13C329.38,93,311.43,80.53,294.86,70a110,110,0,0,0-27.39-14,37,37,0,0,0-29.83,2.74,106.45,106.45,0,0,0-16.37,16.09A261.57,261.57,0,0,1,193.38,95.3c-9.21,7-17.62,16.49-18.71,28-1,10.42,4.18,20.33,6.09,30.62.85,4.56,1.06,9.25,2.27,13.73,5.67,21,29.79,30.2,50.71,36.24a23,23,0,0,0,12,1.23c7.2-1.9,10.6-9.86,15.52-15.46,10.43-11.84,21-5.48,33.31-9.38C305.87,176.74,318.24,160.63,324.57,151.26Z"/><g class="cls-7"><g id="Groupe_34930" data-name="Groupe 34930"><path id="Tracé_52881" data-name="Tracé 52881" class="cls-5" d="M298.41,216.75l14.49-48.24a55,55,0,0,0,3.46-23.9c-2.22-14.49-15.18-24.52-27.13-33a17,17,0,0,0-7.79-3.72c-6.61-.68-11.46,6.23-13.19,12.64s-2.15,13.61-6.59,18.56A14.15,14.15,0,0,1,238,124.38c2.92-7.37,11.84-15,6.8-21.09a9,9,0,0,0-4-2.56c-12-4.43-25.22,6.16-28.49,18.49s.49,25.31,4.22,37.51L173.74,205q-14.56-39.69-27.14-80A54.08,54.08,0,0,1,143,100.77c2.46-15.32,16.91-25.39,30.44-32.94A470.09,470.09,0,0,1,284.4,23.31c11.85-3.07,25-5.56,35.88.06a51.31,51.31,0,0,1,16.37,16A118,118,0,0,1,356.5,74.15c6.81,22,1.35,46-7.74,67.09s-21.73,40.6-30.29,61.95"/><path id="Tracé_52882" data-name="Tracé 52882" class="cls-5" d="M262.48,165.56a4.2,4.2,0,0,0,1.7-2.9,4.15,4.15,0,0,0-1.9-2.78c-5.16-4.25-12.48-8.66-18-4.88a16.6,16.6,0,0,0-4.72,6.42,242.93,242.93,0,0,1-24.15,33.15c-5.52,7.34-9.86,8.77.41,12.22C237.15,214,251.12,176.6,262.48,165.56Z"/></g></g></g><g id="Groupe_34933" data-name="Groupe 34933"><path id="Tracé_52884" data-name="Tracé 52884" class="cls-8" d="M474.69,187.83a12,12,0,0,0-2.07-14.67,137.85,137.85,0,0,0-20.16-20.61c-6.88-5.88-14.9-11.65-23.93-11.34a26.07,26.07,0,0,0-22.43,20.33,58.9,58.9,0,0,0,2.61,31.93,34.63,34.63,0,0,0,4.08,9.45c5.15,7.55,14.74,10.41,23.6,12.75C457.66,221.29,467.09,206.4,474.69,187.83Z"/><g class="cls-9"><g id="Groupe_34932" data-name="Groupe 34932"><path id="Tracé_52885" data-name="Tracé 52885" class="cls-5" d="M452.2,263.83a122.22,122.22,0,0,0,14.41-38.19,44.09,44.09,0,0,0,.2-20.21,53.77,53.77,0,0,0-11.49-18.79,32.46,32.46,0,0,0-17.58-13.36c-14.38-2.59-25.25,14.09-39.7,16.45a8.77,8.77,0,0,1-5.85-.7,10,10,0,0,1-3.36-4.11,60.07,60.07,0,0,1-6.95-30.73,17,17,0,0,1,2.58-9.4,18.63,18.63,0,0,1,8.15-5.42,184,184,0,0,1,30.62-9.87,42,42,0,0,1,20.35-.86,35.22,35.22,0,0,1,16.1,10.84,69.4,69.4,0,0,1,11,75.32"/></g></g></g></svg>