<svg xmlns="http://www.w3.org/2000/svg" xmlns:xlink="http://www.w3.org/1999/xlink" viewBox="0 0 159.46 204.53"><defs><style>.cls-1{fill:none;}.cls-2{isolation:isolate;}.cls-3{fill:url(#_ÂÁ_Ï_ÌÌ_È_ËÂÌÚ_14);}.cls-4{clip-path:url(#clip-path);}.cls-5{fill:#270579;}.cls-6{fill:#27067a;}.cls-7{fill:#27077b;}.cls-8{fill:#27087b;}.cls-9{fill:#27097c;}.cls-10{fill:#270a7d;}.cls-11{fill:#270b7e;}.cls-12{fill:#270c7e;}.cls-13{fill:#270d7f;}.cls-14{fill:#270e80;}.cls-15{fill:#270f81;}.cls-16{fill:#271082;}.cls-17{fill:#271182;}.cls-18{fill:#271283;}.cls-19{fill:#271384;}.cls-20{fill:#271485;}.cls-21{fill:#271585;}.cls-22{fill:#271686;}.cls-23{fill:#271887;}.cls-24{fill:#271988;}.cls-25{fill:#271a89;}.cls-26{fill:#271b89;}.cls-27{fill:#271c8a;}.cls-28{fill:#271d8b;}.cls-29{fill:#271e8c;}.cls-30{fill:#271f8c;}.cls-31{fill:#27208d;}.cls-32{fill:#27218e;}.cls-33{fill:#27228f;}.cls-34{fill:#272390;}.cls-35{fill:#272490;}.cls-36{fill:#272591;}.cls-37{fill:#272692;}.cls-38{fill:#272793;}.cls-39{fill:#272893;}.cls-40{fill:#272994;}.cls-41{fill:#272a95;}.cls-42{fill:#282a95;}.cls-43{fill:#292b96;}.cls-44{fill:#2a2b96;}.cls-45{fill:#2b2b97;}.cls-46{fill:#2c2b97;}.cls-47{fill:#2d2c98;}.cls-48{fill:#2e2c98;}.cls-49{fill:#2f2c98;}.cls-50{fill:#302d99;}.cls-51{fill:#312d99;}.cls-52{fill:#322d9a;}.cls-53{fill:#332d9a;}.cls-54{fill:#342e9a;}.cls-55{fill:#352e9b;}.cls-56{fill:#362e9b;}.cls-57{fill:#372f9c;}.cls-58{fill:#382f9c;}.cls-59{fill:#392f9d;}.cls-60{fill:#3a2f9d;}.cls-61{fill:#3b309d;}.cls-62{fill:#3c309e;}.cls-63{fill:#3d309e;}.cls-64{fill:#3e319f;}.cls-65{fill:#3f319f;}.cls-66{fill:#40319f;}.cls-67{fill:#4131a0;}.cls-68{fill:#4232a0;}.cls-69{fill:#4332a1;}.cls-70{fill:#4432a1;}.cls-71{fill:#4533a2;}.cls-72{fill:#4633a2;}.cls-73{fill:#4733a2;}.cls-74{fill:#4833a3;}.cls-75{fill:#4934a3;}.cls-76{fill:#4a34a4;}.cls-77{fill:#4b34a4;}.cls-78{fill:#4c35a4;}.cls-79{fill:#4d35a5;}.cls-80{fill:#4e35a5;}.cls-81{fill:#4f35a6;}.cls-82{fill:#5036a6;}.cls-83{fill:#5236a7;}.cls-84{fill:#5336a7;}.cls-85{fill:#5437a7;}.cls-86{fill:#5537a8;}.cls-87{fill:#5637a8;}.cls-88{fill:#5737a9;}.cls-89{fill:#5838a9;}.cls-90{fill:#5938a9;}.cls-91{fill:#5a38aa;}.cls-92{fill:#5b39aa;}.cls-93{fill:#5c39ab;}.cls-94{fill:#5d39ab;}.cls-95{fill:#5e39ac;}.cls-96{fill:#5f3aac;}.cls-97{fill:#603aac;}.cls-98{fill:#613aad;}.cls-99{fill:#623bad;}.cls-100{fill:#633bae;}.cls-101{fill:#643bae;}.cls-102{fill:#653bae;}.cls-103{fill:#663caf;}.cls-104{fill:#673caf;}.cls-105{fill:#683cb0;}.cls-106{fill:#693db0;}.cls-107{fill:#6a3db1;}.cls-108{fill:#6b3db1;}.cls-109{fill:#6c3db1;}.cls-110{fill:#6d3eb2;}.cls-111{fill:#6e3eb2;}.cls-112{fill:#6f3eb3;}.cls-113{fill:#703fb3;}.cls-114{fill:#713fb3;}.cls-115{fill:#723fb4;}.cls-116{fill:#733fb4;}.cls-117{fill:#7440b5;}.cls-118{fill:#7540b5;}.cls-119{fill:#7640b6;}.cls-120{fill:#7741b6;}.cls-121{fill:#7841b6;}.cls-122{fill:#7941b7;}.cls-123{fill:#7a41b7;}.cls-124{fill:#7b42b8;}.cls-125{fill:#7c42b8;}.cls-126{fill:url(#_ÂÁ_Ï_ÌÌ_È_ËÂÌÚ_22);}.cls-127{fill:url(#_ÂÁ_Ï_ÌÌ_È_ËÂÌÚ_14-2);}.cls-128{fill:url(#_ÂÁ_Ï_ÌÌ_È_ËÂÌÚ_166);}.cls-129,.cls-134,.cls-136,.cls-159,.cls-163,.cls-167,.cls-175,.cls-176,.cls-178,.cls-179,.cls-185{opacity:0.5;}.cls-129,.cls-136,.cls-169,.cls-171,.cls-172,.cls-173,.cls-174,.cls-175,.cls-178,.cls-179,.cls-185{mix-blend-mode:screen;}.cls-129{fill:url(#_ÂÁ_Ï_ÌÌ_È_ËÂÌÚ_120);}.cls-130{clip-path:url(#clip-path-2);}.cls-131{fill:url(#_ÂÁ_Ï_ÌÌ_È_ËÂÌÚ_3);}.cls-132{fill:url(#_ÂÁ_Ï_ÌÌ_È_ËÂÌÚ_2);}.cls-133{fill:url(#_ÂÁ_Ï_ÌÌ_È_ËÂÌÚ_22-2);}.cls-134,.cls-158,.cls-159,.cls-161,.cls-163,.cls-165,.cls-167,.cls-170,.cls-176{mix-blend-mode:multiply;}.cls-134{fill:url(#_ÂÁ_Ï_ÌÌ_È_ËÂÌÚ_108);}.cls-135{fill:url(#_ÂÁ_Ï_ÌÌ_È_ËÂÌÚ_26);}.cls-136{fill:url(#_ÂÁ_Ï_ÌÌ_È_ËÂÌÚ_167);}.cls-137{fill:url(#_ÂÁ_Ï_ÌÌ_È_ËÂÌÚ_31);}.cls-138{fill:url(#_ÂÁ_Ï_ÌÌ_È_ËÂÌÚ_2-2);}.cls-139{fill:url(#_ÂÁ_Ï_ÌÌ_È_ËÂÌÚ_22-3);}.cls-140{fill:url(#_ÂÁ_Ï_ÌÌ_È_ËÂÌÚ_2-3);}.cls-141{fill:url(#_ÂÁ_Ï_ÌÌ_È_ËÂÌÚ_22-4);}.cls-142{fill:url(#_ÂÁ_Ï_ÌÌ_È_ËÂÌÚ_2-4);}.cls-143{fill:url(#_ÂÁ_Ï_ÌÌ_È_ËÂÌÚ_22-5);}.cls-144{fill:url(#_ÂÁ_Ï_ÌÌ_È_ËÂÌÚ_2-5);}.cls-145{fill:url(#_ÂÁ_Ï_ÌÌ_È_ËÂÌÚ_22-6);}.cls-146{fill:url(#_ÂÁ_Ï_ÌÌ_È_ËÂÌÚ_2-6);}.cls-147{fill:url(#_ÂÁ_Ï_ÌÌ_È_ËÂÌÚ_22-7);}.cls-148{fill:url(#_ÂÁ_Ï_ÌÌ_È_ËÂÌÚ_2-7);}.cls-149{fill:url(#_ÂÁ_Ï_ÌÌ_È_ËÂÌÚ_22-8);}.cls-150{fill:url(#_ÂÁ_Ï_ÌÌ_È_ËÂÌÚ_2-8);}.cls-151{fill:url(#_ÂÁ_Ï_ÌÌ_È_ËÂÌÚ_22-9);}.cls-152{fill:url(#_ÂÁ_Ï_ÌÌ_È_ËÂÌÚ_2-9);}.cls-153{fill:url(#_ÂÁ_Ï_ÌÌ_È_ËÂÌÚ_22-10);}.cls-154{fill:url(#_ÂÁ_Ï_ÌÌ_È_ËÂÌÚ_2-10);}.cls-155{fill:url(#_ÂÁ_Ï_ÌÌ_È_ËÂÌÚ_96);}.cls-156{fill:url(#_ÂÁ_Ï_ÌÌ_È_ËÂÌÚ_95);}.cls-157{fill:url(#_ÂÁ_Ï_ÌÌ_È_ËÂÌÚ_86);}.cls-158,.cls-161,.cls-165,.cls-170{opacity:0.2;}.cls-158{fill:url(#_ÂÁ_Ï_ÌÌ_È_ËÂÌÚ_79);}.cls-159{fill:url(#_ÂÁ_Ï_ÌÌ_È_ËÂÌÚ_108-2);}.cls-160{fill:url(#_ÂÁ_Ï_ÌÌ_È_ËÂÌÚ_144);}.cls-161{fill:url(#_ÂÁ_Ï_ÌÌ_È_ËÂÌÚ_108-3);}.cls-162{fill:url(#_ÂÁ_Ï_ÌÌ_È_ËÂÌÚ_65);}.cls-163{fill:url(#_ÂÁ_Ï_ÌÌ_È_ËÂÌÚ_108-4);}.cls-164{fill:url(#_ÂÁ_Ï_ÌÌ_È_ËÂÌÚ_149);}.cls-165{fill:url(#_ÂÁ_Ï_ÌÌ_È_ËÂÌÚ_108-5);}.cls-166{fill:url(#_ÂÁ_Ï_ÌÌ_È_ËÂÌÚ_144-2);}.cls-167{fill:url(#_ÂÁ_Ï_ÌÌ_È_ËÂÌÚ_108-6);}.cls-168{fill:url(#_ÂÁ_Ï_ÌÌ_È_ËÂÌÚ_65-2);}.cls-169{fill:url(#_ÂÁ_Ï_ÌÌ_È_ËÂÌÚ_167-2);}.cls-170{fill:url(#_ÂÁ_Ï_ÌÌ_È_ËÂÌÚ_81);}.cls-171{fill:url(#_ÂÁ_Ï_ÌÌ_È_ËÂÌÚ_120-2);}.cls-172{fill:url(#_ÂÁ_Ï_ÌÌ_È_ËÂÌÚ_344);}.cls-173{fill:url(#_ÂÁ_Ï_ÌÌ_È_ËÂÌÚ_344-2);}.cls-174{fill:url(#_ÂÁ_Ï_ÌÌ_È_ËÂÌÚ_344-3);}.cls-175{fill:url(#_ÂÁ_Ï_ÌÌ_È_ËÂÌÚ_120-3);}.cls-176{fill:url(#_ÂÁ_Ï_ÌÌ_È_ËÂÌÚ_81-2);}.cls-177{fill:#fff;}.cls-178{fill:url(#_ÂÁ_Ï_ÌÌ_È_ËÂÌÚ_120-4);}.cls-179{fill:url(#_ÂÁ_Ï_ÌÌ_È_ËÂÌÚ_90);}.cls-180{fill:url(#_ÂÁ_Ï_ÌÌ_È_ËÂÌÚ_154);}.cls-181{fill:url(#_ÂÁ_Ï_ÌÌ_È_ËÂÌÚ_154-2);}.cls-182{fill:url(#_ÂÁ_Ï_ÌÌ_È_ËÂÌÚ_154-3);}.cls-183{fill:url(#_ÂÁ_Ï_ÌÌ_È_ËÂÌÚ_154-4);}.cls-184{fill:url(#_ÂÁ_Ï_ÌÌ_È_ËÂÌÚ_154-5);}.cls-185{fill:url(#_ÂÁ_Ï_ÌÌ_È_ËÂÌÚ_120-5);}.cls-186{fill:url(#_ÂÁ_Ï_ÌÌ_È_ËÂÌÚ_86-2);}.cls-187{fill:url(#_ÂÁ_Ï_ÌÌ_È_ËÂÌÚ_86-3);}</style><radialGradient id="_ÂÁ_Ï_ÌÌ_È_ËÂÌÚ_14" cx="239.43" cy="-139.15" r="18.5" gradientTransform="translate(-159.53 288.56) rotate(0.03)" gradientUnits="userSpaceOnUse"><stop offset="0" stop-color="#bfbbe2"/><stop offset="1" stop-color="#7d75da"/></radialGradient><clipPath id="clip-path"><path class="cls-1" d="M114.81,63.66l-70.08,0h0C45.25,63.46,69.71,46.73,114.81,63.66Z"/></clipPath><radialGradient id="_ÂÁ_Ï_ÌÌ_È_ËÂÌÚ_22" cx="238.42" cy="-226.44" r="23.08" gradientTransform="translate(-159.53 288.56) rotate(0.03)" gradientUnits="userSpaceOnUse"><stop offset="0" stop-color="#7c42b8"/><stop offset="1" stop-color="#272a95"/></radialGradient><radialGradient id="_ÂÁ_Ï_ÌÌ_È_ËÂÌÚ_14-2" cx="55.26" cy="-229.18" r="61.58" gradientTransform="translate(-83.94 243.39) rotate(23.21)" xlink:href="#_ÂÁ_Ï_ÌÌ_È_ËÂÌÚ_14"/><radialGradient id="_ÂÁ_Ï_ÌÌ_È_ËÂÌÚ_166" cx="55.26" cy="-229.18" r="86.11" gradientTransform="translate(-83.94 243.39) rotate(23.21)" gradientUnits="userSpaceOnUse"><stop offset="0" stop-color="#bfbbe2"/><stop offset="0.69" stop-color="#7d75da"/><stop offset="0.76" stop-color="#757bda"/><stop offset="0.88" stop-color="#618dda"/><stop offset="0.97" stop-color="#4b9fda"/></radialGradient><linearGradient id="_ÂÁ_Ï_ÌÌ_È_ËÂÌÚ_120" x1="239.44" y1="-85.4" x2="239.44" y2="-168.38" gradientTransform="translate(-159.53 288.56) rotate(0.03)" gradientUnits="userSpaceOnUse"><stop offset="0"/><stop offset="0.3" stop-color="#372d41"/><stop offset="0.63" stop-color="#705b84"/><stop offset="0.88" stop-color="#9378ae"/><stop offset="1" stop-color="#a183be"/></linearGradient><clipPath id="clip-path-2"><path class="cls-1" d="M102.62,146.92c0,1.57-10.25,6.76-22.88,6.76s-22.88-5.21-22.88-6.78,10.24-2.83,22.88-2.83S102.62,145.35,102.62,146.92Z"/></clipPath><radialGradient id="_ÂÁ_Ï_ÌÌ_È_ËÂÌÚ_3" cx="250.48" cy="-136.29" r="6.87" gradientTransform="matrix(1.06, 0, 0, 1, -184.74, 288.24)" gradientUnits="userSpaceOnUse"><stop offset="0" stop-color="#5822b6"/><stop offset="0.63" stop-color="#593290"/><stop offset="0.98" stop-color="#31199a"/></radialGradient><linearGradient id="_ÂÁ_Ï_ÌÌ_È_ËÂÌÚ_2" x1="231.43" y1="-135.49" x2="246.98" y2="-135.49" gradientTransform="translate(-159.53 288.56) rotate(0.03)" gradientUnits="userSpaceOnUse"><stop offset="0" stop-color="#00fef4"/><stop offset="1" stop-color="#30a7fb"/></linearGradient><radialGradient id="_ÂÁ_Ï_ÌÌ_È_ËÂÌÚ_22-2" cx="240.35" cy="-180.46" r="21.23" xlink:href="#_ÂÁ_Ï_ÌÌ_È_ËÂÌÚ_22"/><linearGradient id="_ÂÁ_Ï_ÌÌ_È_ËÂÌÚ_108" x1="101.46" y1="-144.08" x2="101.46" y2="-227.07" gradientTransform="matrix(0.62, 0, 0, 1, 16.6, 288.13)" gradientUnits="userSpaceOnUse"><stop offset="0" stop-color="#2128a9"/><stop offset="1" stop-color="#e5dcf4"/></linearGradient><radialGradient id="_ÂÁ_Ï_ÌÌ_È_ËÂÌÚ_26" cx="239.51" cy="-212.11" r="27.53" gradientTransform="matrix(0.98, 0.22, -0.22, 0.98, -197.81, 230.79)" gradientUnits="userSpaceOnUse"><stop offset="0" stop-color="#a26d9f"/><stop offset="1" stop-color="#645ad3"/></radialGradient><linearGradient id="_ÂÁ_Ï_ÌÌ_È_ËÂÌÚ_167" x1="218.15" y1="-202.68" x2="253.69" y2="-202.68" gradientTransform="translate(-159.53 288.56) rotate(0.03)" gradientUnits="userSpaceOnUse"><stop offset="0" stop-color="#a183be"/><stop offset="0.12" stop-color="#9378ae"/><stop offset="0.37" stop-color="#705b84"/><stop offset="0.7" stop-color="#372d41"/><stop offset="1"/></linearGradient><radialGradient id="_ÂÁ_Ï_ÌÌ_È_ËÂÌÚ_31" cx="239.97" cy="-211.66" r="16.83" gradientTransform="translate(-159.53 288.56) rotate(0.03)" gradientUnits="userSpaceOnUse"><stop offset="0" stop-color="#368bb8"/><stop offset="1" stop-color="#272a95"/></radialGradient><linearGradient id="_ÂÁ_Ï_ÌÌ_È_ËÂÌÚ_2-2" x1="239.2" y1="-182.89" x2="239.2" y2="-214.43" xlink:href="#_ÂÁ_Ï_ÌÌ_È_ËÂÌÚ_2"/><radialGradient id="_ÂÁ_Ï_ÌÌ_È_ËÂÌÚ_22-3" cx="239.83" cy="-181.26" r="1.05" xlink:href="#_ÂÁ_Ï_ÌÌ_È_ËÂÌÚ_22"/><linearGradient id="_ÂÁ_Ï_ÌÌ_È_ËÂÌÚ_2-3" x1="239.83" y1="-180.51" x2="239.83" y2="-182.31" xlink:href="#_ÂÁ_Ï_ÌÌ_È_ËÂÌÚ_2"/><radialGradient id="_ÂÁ_Ï_ÌÌ_È_ËÂÌÚ_22-4" cx="239.83" cy="-218.66" r="1.05" xlink:href="#_ÂÁ_Ï_ÌÌ_È_ËÂÌÚ_22"/><linearGradient id="_ÂÁ_Ï_ÌÌ_È_ËÂÌÚ_2-4" x1="239.83" y1="-217.92" x2="239.83" y2="-219.71" xlink:href="#_ÂÁ_Ï_ÌÌ_È_ËÂÌÚ_2"/><radialGradient id="_ÂÁ_Ï_ÌÌ_È_ËÂÌÚ_22-5" cx="220.59" cy="-197.61" r="1.05" xlink:href="#_ÂÁ_Ï_ÌÌ_È_ËÂÌÚ_22"/><linearGradient id="_ÂÁ_Ï_ÌÌ_È_ËÂÌÚ_2-5" x1="220.59" y1="-196.87" x2="220.59" y2="-198.66" xlink:href="#_ÂÁ_Ï_ÌÌ_È_ËÂÌÚ_2"/><radialGradient id="_ÂÁ_Ï_ÌÌ_È_ËÂÌÚ_22-6" cx="253.14" cy="-212.77" r="1.05" xlink:href="#_ÂÁ_Ï_ÌÌ_È_ËÂÌÚ_22"/><linearGradient id="_ÂÁ_Ï_ÌÌ_È_ËÂÌÚ_2-6" x1="253.14" y1="-212.03" x2="253.14" y2="-213.82" xlink:href="#_ÂÁ_Ï_ÌÌ_È_ËÂÌÚ_2"/><radialGradient id="_ÂÁ_Ï_ÌÌ_È_ËÂÌÚ_22-7" cx="225.17" cy="-212.77" r="1.05" xlink:href="#_ÂÁ_Ï_ÌÌ_È_ËÂÌÚ_22"/><linearGradient id="_ÂÁ_Ï_ÌÌ_È_ËÂÌÚ_2-7" x1="225.17" y1="-212.03" x2="225.17" y2="-213.82" xlink:href="#_ÂÁ_Ï_ÌÌ_È_ËÂÌÚ_2"/><radialGradient id="_ÂÁ_Ï_ÌÌ_È_ËÂÌÚ_22-8" cx="253.14" cy="-187.91" r="1.05" xlink:href="#_ÂÁ_Ï_ÌÌ_È_ËÂÌÚ_22"/><linearGradient id="_ÂÁ_Ï_ÌÌ_È_ËÂÌÚ_2-8" x1="253.14" y1="-187.17" x2="253.14" y2="-188.96" xlink:href="#_ÂÁ_Ï_ÌÌ_È_ËÂÌÚ_2"/><radialGradient id="_ÂÁ_Ï_ÌÌ_È_ËÂÌÚ_22-9" cx="225.17" cy="-187.91" r="1.05" xlink:href="#_ÂÁ_Ï_ÌÌ_È_ËÂÌÚ_22"/><linearGradient id="_ÂÁ_Ï_ÌÌ_È_ËÂÌÚ_2-9" x1="225.17" y1="-187.17" x2="225.17" y2="-188.96" xlink:href="#_ÂÁ_Ï_ÌÌ_È_ËÂÌÚ_2"/><radialGradient id="_ÂÁ_Ï_ÌÌ_È_ËÂÌÚ_22-10" cx="257.89" cy="-198.31" r="1.05" xlink:href="#_ÂÁ_Ï_ÌÌ_È_ËÂÌÚ_22"/><linearGradient id="_ÂÁ_Ï_ÌÌ_È_ËÂÌÚ_2-10" x1="257.89" y1="-197.57" x2="257.89" y2="-199.36" xlink:href="#_ÂÁ_Ï_ÌÌ_È_ËÂÌÚ_2"/><radialGradient id="_ÂÁ_Ï_ÌÌ_È_ËÂÌÚ_96" cx="238.79" cy="-160.23" r="3.38" gradientTransform="translate(-159.53 288.56) rotate(0.03)" gradientUnits="userSpaceOnUse"><stop offset="0" stop-color="#888ee7"/><stop offset="1" stop-color="#b8adee"/></radialGradient><radialGradient id="_ÂÁ_Ï_ÌÌ_È_ËÂÌÚ_95" cx="238.85" cy="-157.87" r="3.38" gradientTransform="translate(-159.53 288.56) rotate(0.03)" gradientUnits="userSpaceOnUse"><stop offset="0" stop-color="#d67f86"/><stop offset="1" stop-color="#272a95"/></radialGradient><linearGradient id="_ÂÁ_Ï_ÌÌ_È_ËÂÌÚ_86" x1="238.79" y1="-157.92" x2="238.79" y2="-163.8" gradientTransform="translate(-159.53 288.56) rotate(0.03)" gradientUnits="userSpaceOnUse"><stop offset="0" stop-color="#ffff56"/><stop offset="1" stop-color="orange"/></linearGradient><linearGradient id="_ÂÁ_Ï_ÌÌ_È_ËÂÌÚ_79" x1="239.2" y1="-141.76" x2="239.2" y2="-213.2" gradientTransform="translate(-159.53 288.56) rotate(0.03)" gradientUnits="userSpaceOnUse"><stop offset="0" stop-color="#5d62c0"/><stop offset="1" stop-color="#e5dcf4"/></linearGradient><linearGradient id="_ÂÁ_Ï_ÌÌ_È_ËÂÌÚ_108-2" x1="202.84" y1="-161.94" x2="218.79" y2="-161.94" gradientTransform="translate(-159.53 288.56) rotate(0.03)" xlink:href="#_ÂÁ_Ï_ÌÌ_È_ËÂÌÚ_108"/><radialGradient id="_ÂÁ_Ï_ÌÌ_È_ËÂÌÚ_144" cx="207.64" cy="-184.61" r="54.16" gradientTransform="translate(-159.53 288.56) rotate(0.03)" gradientUnits="userSpaceOnUse"><stop offset="0" stop-color="#d0cdea"/><stop offset="1" stop-color="#7d75da"/></radialGradient><linearGradient id="_ÂÁ_Ï_ÌÌ_È_ËÂÌÚ_108-3" x1="195.9" y1="-147.05" x2="218.15" y2="-147.05" gradientTransform="translate(-159.53 288.56) rotate(0.03)" xlink:href="#_ÂÁ_Ï_ÌÌ_È_ËÂÌÚ_108"/><radialGradient id="_ÂÁ_Ï_ÌÌ_È_ËÂÌÚ_65" cx="202.59" cy="-184.61" r="53.79" gradientTransform="translate(-159.53 288.56) rotate(0.03)" gradientUnits="userSpaceOnUse"><stop offset="0" stop-color="#fafafd"/><stop offset="1" stop-color="#c3bfee"/></radialGradient><linearGradient id="_ÂÁ_Ï_ÌÌ_È_ËÂÌÚ_108-4" x1="879.85" y1="-161.13" x2="895.79" y2="-161.13" gradientTransform="matrix(-1, 0, 0, 1, 995.87, 288.26)" xlink:href="#_ÂÁ_Ï_ÌÌ_È_ËÂÌÚ_108"/><radialGradient id="_ÂÁ_Ï_ÌÌ_È_ËÂÌÚ_149" cx="884.65" cy="-183.8" r="54.16" gradientTransform="matrix(-1, 0, 0, 1, 995.87, 288.26)" gradientUnits="userSpaceOnUse"><stop offset="0" stop-color="#a7fafd"/><stop offset="1" stop-color="#c3bfee"/></radialGradient><linearGradient id="_ÂÁ_Ï_ÌÌ_È_ËÂÌÚ_108-5" x1="872.91" y1="-146.25" x2="895.16" y2="-146.25" gradientTransform="matrix(-1, 0, 0, 1, 995.87, 288.26)" xlink:href="#_ÂÁ_Ï_ÌÌ_È_ËÂÌÚ_108"/><radialGradient id="_ÂÁ_Ï_ÌÌ_È_ËÂÌÚ_144-2" cx="879.59" cy="-183.8" r="53.79" gradientTransform="matrix(-1, 0, 0, 1, 995.87, 288.26)" xlink:href="#_ÂÁ_Ï_ÌÌ_È_ËÂÌÚ_144"/><linearGradient id="_ÂÁ_Ï_ÌÌ_È_ËÂÌÚ_108-6" x1="224.27" y1="-251.6" x2="256.03" y2="-251.6" gradientTransform="translate(-159.53 288.56) rotate(0.03)" xlink:href="#_ÂÁ_Ï_ÌÌ_È_ËÂÌÚ_108"/><radialGradient id="_ÂÁ_Ï_ÌÌ_È_ËÂÌÚ_65-2" cx="240.15" cy="-254.2" r="11.7" xlink:href="#_ÂÁ_Ï_ÌÌ_È_ËÂÌÚ_65"/><linearGradient id="_ÂÁ_Ï_ÌÌ_È_ËÂÌÚ_167-2" x1="224.27" y1="-207.41" x2="254.21" y2="-207.41" xlink:href="#_ÂÁ_Ï_ÌÌ_È_ËÂÌÚ_167"/><linearGradient id="_ÂÁ_Ï_ÌÌ_È_ËÂÌÚ_81" x1="204.16" y1="-228.78" x2="274.24" y2="-228.78" gradientTransform="translate(-159.53 288.56) rotate(0.03)" gradientUnits="userSpaceOnUse"><stop offset="0" stop-color="#e5dcf4"/><stop offset="1" stop-color="#2128a9"/></linearGradient><linearGradient id="_ÂÁ_Ï_ÌÌ_È_ËÂÌÚ_120-2" x1="154.16" y1="-225.15" x2="224.25" y2="-225.15" xlink:href="#_ÂÁ_Ï_ÌÌ_È_ËÂÌÚ_120"/><radialGradient id="_ÂÁ_Ï_ÌÌ_È_ËÂÌÚ_344" cx="-587.73" cy="-295.65" r="2.44" gradientTransform="translate(-704.39 1229.82) rotate(97.19) scale(2.09)" gradientUnits="userSpaceOnUse"><stop offset="0" stop-color="#006bff"/><stop offset="0.06" stop-color="#0063ed"/><stop offset="0.33" stop-color="#00409a"/><stop offset="0.56" stop-color="#002558"/><stop offset="0.76" stop-color="#001128"/><stop offset="0.91" stop-color="#00050b"/><stop offset="1"/></radialGradient><radialGradient id="_ÂÁ_Ï_ÌÌ_È_ËÂÌÚ_344-2" cx="-598.63" cy="-303.57" r="1.73" xlink:href="#_ÂÁ_Ï_ÌÌ_È_ËÂÌÚ_344"/><radialGradient id="_ÂÁ_Ï_ÌÌ_È_ËÂÌÚ_344-3" cx="-584.73" cy="-311.74" r="1.73" xlink:href="#_ÂÁ_Ï_ÌÌ_È_ËÂÌÚ_344"/><linearGradient id="_ÂÁ_Ï_ÌÌ_È_ËÂÌÚ_120-3" x1="207.67" y1="-238.87" x2="233.71" y2="-238.87" xlink:href="#_ÂÁ_Ï_ÌÌ_È_ËÂÌÚ_120"/><linearGradient id="_ÂÁ_Ï_ÌÌ_È_ËÂÌÚ_81-2" x1="221.68" y1="-142.87" x2="221.68" y2="-181.01" xlink:href="#_ÂÁ_Ï_ÌÌ_È_ËÂÌÚ_81"/><linearGradient id="_ÂÁ_Ï_ÌÌ_È_ËÂÌÚ_120-4" x1="274.1" y1="-184.12" x2="274.1" y2="-221.76" xlink:href="#_ÂÁ_Ï_ÌÌ_È_ËÂÌÚ_120"/><radialGradient id="_ÂÁ_Ï_ÌÌ_È_ËÂÌÚ_90" cx="-571.15" cy="-306.7" r="5.09" gradientTransform="translate(-704.39 1229.82) rotate(97.19) scale(2.09)" gradientUnits="userSpaceOnUse"><stop offset="0" stop-color="#ff5115"/><stop offset="0.06" stop-color="#ed4b13"/><stop offset="0.33" stop-color="#9a310d"/><stop offset="0.56" stop-color="#581c07"/><stop offset="0.76" stop-color="#280d03"/><stop offset="0.91" stop-color="#0b0301"/><stop offset="1"/></radialGradient><linearGradient id="_ÂÁ_Ï_ÌÌ_È_ËÂÌÚ_154" x1="103.65" y1="-244.49" x2="103.65" y2="-246.11" gradientTransform="translate(-83.94 243.39) rotate(23.21)" gradientUnits="userSpaceOnUse"><stop offset="0" stop-color="#634bde"/><stop offset="1" stop-color="#ccc4ff"/></linearGradient><linearGradient id="_ÂÁ_Ï_ÌÌ_È_ËÂÌÚ_154-2" x1="50.97" y1="-222.11" x2="50.97" y2="-223.72" xlink:href="#_ÂÁ_Ï_ÌÌ_È_ËÂÌÚ_154"/><linearGradient id="_ÂÁ_Ï_ÌÌ_È_ËÂÌÚ_154-3" x1="53.97" y1="-214.32" x2="53.97" y2="-215.94" xlink:href="#_ÂÁ_Ï_ÌÌ_È_ËÂÌÚ_154"/><linearGradient id="_ÂÁ_Ï_ÌÌ_È_ËÂÌÚ_154-4" x1="107.05" y1="-237.62" x2="107.05" y2="-239.23" xlink:href="#_ÂÁ_Ï_ÌÌ_È_ËÂÌÚ_154"/><linearGradient id="_ÂÁ_Ï_ÌÌ_È_ËÂÌÚ_154-5" x1="102.46" y1="-180.8" x2="102.46" y2="-182.41" xlink:href="#_ÂÁ_Ï_ÌÌ_È_ËÂÌÚ_154"/><linearGradient id="_ÂÁ_Ï_ÌÌ_È_ËÂÌÚ_120-5" x1="212" y1="-171.32" x2="212" y2="-224.55" xlink:href="#_ÂÁ_Ï_ÌÌ_È_ËÂÌÚ_120"/><linearGradient id="_ÂÁ_Ï_ÌÌ_È_ËÂÌÚ_86-2" x1="89.81" y1="-255.9" x2="99.37" y2="-255.9" gradientTransform="translate(-83.94 243.39) rotate(23.21)" xlink:href="#_ÂÁ_Ï_ÌÌ_È_ËÂÌÚ_86"/><linearGradient id="_ÂÁ_Ï_ÌÌ_È_ËÂÌÚ_86-3" x1="49.29" y1="-239.9" x2="53.86" y2="-239.9" gradientTransform="translate(-83.94 243.39) rotate(23.21)" xlink:href="#_ÂÁ_Ï_ÌÌ_È_ËÂÌÚ_86"/></defs><g class="cls-2"><g id="planets"><polygon class="cls-3" points="75.73 150.75 78.95 173.92 80.99 173.92 83.75 150.75 75.73 150.75"/><g class="cls-4"><rect class="cls-5" x="53.13" y="40.88" width="53.28" height="45.53" transform="translate(-22.22 67.04) rotate(-40.49)"/><path class="cls-5" d="M121.89,55.91c1.2,8.66-16.59,18.27-39.72,21.46s-42.86-1.25-44.05-9.91S54.71,49.19,77.84,46c11.57-1.6,22.28-1.29,30.25.5l-3.24,2.77,10.46,12.25Z"/><path class="cls-6" d="M121.49,56c1.18,8.58-16.43,18.1-39.34,21.26S39.71,76,38.52,67.4,55,49.31,77.86,46.15c11.46-1.58,22.07-1.28,30,.5l-3,2.58,10.36,12.13Z"/><path class="cls-7" d="M121.09,56c1.17,8.49-16.27,17.92-39,21s-42-1.22-43.2-9.72,16.27-17.92,38.95-21c11.35-1.57,21.85-1.26,29.67.5l-2.78,2.38,10.26,12Z"/><ellipse class="cls-8" cx="80.01" cy="61.68" rx="41.06" ry="15.38" transform="translate(-7.68 11.51) rotate(-7.85)"/><path class="cls-9" d="M120.28,56.13c1.15,8.33-16,17.57-38.19,20.64s-41.21-1.2-42.36-9.53,16-17.57,38.2-20.64S119.13,47.8,120.28,56.13Z"/><ellipse class="cls-10" cx="80.01" cy="61.68" rx="40.25" ry="15.07" transform="translate(-7.68 11.51) rotate(-7.85)"/><ellipse class="cls-11" cx="80.01" cy="61.68" rx="39.84" ry="14.92" transform="translate(-7.68 11.51) rotate(-7.85)"/><ellipse class="cls-12" cx="80.01" cy="61.68" rx="39.43" ry="14.77" transform="translate(-7.68 11.51) rotate(-7.85)"/><path class="cls-13" d="M118.67,56.35c1.1,8-15.32,16.87-36.67,19.81S42.45,75,41.34,67,56.66,50.15,78,47.2,117.56,48.35,118.67,56.35Z"/><ellipse class="cls-14" cx="80.01" cy="61.68" rx="38.62" ry="14.46" transform="translate(-7.68 11.51) rotate(-7.85)"/><path class="cls-15" d="M117.86,56.46c1.08,7.83-15,16.52-35.9,19.4s-38.73-1.13-39.81-9,15-16.51,35.9-19.39S116.78,48.63,117.86,56.46Z"/><path class="cls-16" d="M117.46,56.52c1.07,7.74-14.84,16.34-35.52,19.19s-38.32-1.12-39.39-8.86S57.39,50.51,78.07,47.66,116.39,48.77,117.46,56.52Z"/><path class="cls-17" d="M117.05,56.57c1.06,7.67-14.67,16.17-35.13,19S44,74.46,43,66.79s14.67-16.16,35.13-19S116,48.91,117.05,56.57Z"/><path class="cls-18" d="M116.65,56.63c1,7.58-14.51,16-34.75,18.78s-37.49-1.09-38.54-8.67S57.87,50.75,78.11,48,115.61,49.05,116.65,56.63Z"/><ellipse class="cls-19" cx="80.01" cy="61.68" rx="36.59" ry="13.7" transform="matrix(0.99, -0.14, 0.14, 0.99, -7.68, 11.51)"/><path class="cls-20" d="M115.84,56.74c1,7.41-14.19,15.63-34,18.36S45.19,74,44.17,66.63,58.36,51,78.15,48.26,114.82,49.33,115.84,56.74Z"/><path class="cls-21" d="M115.44,56.79c1,7.33-14,15.46-33.6,18.16s-36.26-1-37.27-8.38,14-15.46,33.6-18.16S114.43,49.47,115.44,56.79Z"/><path class="cls-22" d="M115,56.85c1,7.25-13.88,15.28-33.22,17.95S46,73.76,45,66.51s13.88-15.28,33.23-18S114,49.6,115,56.85Z"/><ellipse class="cls-23" cx="80.01" cy="61.68" rx="34.96" ry="13.09" transform="translate(-7.68 11.51) rotate(-7.85)"/><path class="cls-24" d="M114.23,57c1,7.08-13.55,14.93-32.46,17.54s-35-1-36-8.1S59.33,51.47,78.24,48.86,113.26,49.88,114.23,57Z"/><ellipse class="cls-25" cx="80.01" cy="61.68" rx="34.14" ry="12.79" transform="translate(-7.68 11.51) rotate(-7.85)"/><ellipse class="cls-26" cx="80.01" cy="61.68" rx="33.74" ry="12.63" transform="translate(-7.68 11.51) rotate(-7.85)"/><ellipse class="cls-27" cx="80.01" cy="61.68" rx="33.33" ry="12.48" transform="matrix(0.99, -0.14, 0.14, 0.99, -7.68, 11.51)"/><ellipse class="cls-28" cx="80.01" cy="61.68" rx="32.92" ry="12.33" transform="translate(-7.68 11.51) rotate(-7.85)"/><path class="cls-29" d="M112.22,57.24c.91,6.66-12.76,14.05-30.55,16.51s-33-1-33.88-7.62S60.55,52.07,78.34,49.62,111.3,50.58,112.22,57.24Z"/><path class="cls-30" d="M111.81,57.3c.91,6.57-12.59,13.87-30.16,16.29s-32.54-.94-33.45-7.52,12.6-13.88,30.16-16.3S110.91,50.72,111.81,57.3Z"/><ellipse class="cls-31" cx="80.01" cy="61.68" rx="31.7" ry="11.87" transform="translate(-7.68 11.51) rotate(-7.85)"/><path class="cls-32" d="M111,57.41c.88,6.41-12.28,13.52-29.4,15.88S49.89,72.37,49,66,61.28,52.43,78.4,50.07,110.12,51,111,57.41Z"/><path class="cls-33" d="M110.6,57.46c.88,6.33-12.12,13.35-29,15.68s-31.31-.91-32.18-7.24,12.12-13.35,29-15.68S109.73,51.13,110.6,57.46Z"/><path class="cls-34" d="M110.2,57.52c.86,6.24-12,13.17-28.63,15.47s-30.9-.9-31.76-7.14,12-13.18,28.64-15.48S109.34,51.27,110.2,57.52Z"/><ellipse class="cls-35" cx="80.01" cy="61.68" rx="30.07" ry="11.26" transform="translate(-7.68 11.51) rotate(-7.85)"/><ellipse class="cls-36" cx="80.01" cy="61.68" rx="29.67" ry="11.11" transform="translate(-7.68 11.51) rotate(-7.85)"/><path class="cls-37" d="M109,57.68c.83,6-11.48,12.65-27.49,14.86S51.85,71.68,51,65.68,62.5,53,78.51,50.83,108.16,51.69,109,57.68Z"/><path class="cls-38" d="M108.59,57.74c.81,5.91-11.32,12.47-27.11,14.65s-29.24-.85-30.06-6.77S62.74,53.16,78.53,51,107.77,51.83,108.59,57.74Z"/><path class="cls-39" d="M108.18,57.8C109,63.62,97,70.09,81.46,72.24s-28.83-.84-29.63-6.67S63,53.28,78.55,51.13,107.38,52,108.18,57.8Z"/><path class="cls-40" d="M107.78,57.85c.79,5.75-11,12.12-26.34,14.23S53,71.26,52.23,65.51s11-12.11,26.34-14.23S107,52.11,107.78,57.85Z"/><ellipse class="cls-41" cx="80.01" cy="61.68" rx="27.63" ry="10.35" transform="translate(-7.68 11.51) rotate(-7.85)"/><ellipse class="cls-41" cx="80.01" cy="61.68" rx="27.23" ry="10.2" transform="matrix(0.99, -0.14, 0.14, 0.99, -7.68, 11.51)"/><ellipse class="cls-42" cx="80.01" cy="61.68" rx="26.9" ry="10.08" transform="matrix(0.99, -0.14, 0.14, 0.99, -7.68, 11.51)"/><path class="cls-43" d="M106.34,58.05c.75,5.45-10.43,11.49-25,13.5s-26.95-.79-27.7-6.24,10.43-11.48,25-13.49S105.59,52.6,106.34,58.05Z"/><path class="cls-44" d="M106,58.09c.75,5.39-10.3,11.35-24.67,13.34S54.73,70.65,54,65.27s10.3-11.35,24.67-13.33S105.28,52.71,106,58.09Z"/><path class="cls-45" d="M105.71,58.14c.73,5.31-10.18,11.21-24.38,13.17s-26.29-.77-27-6.08S64.48,54,78.68,52.06,105,52.82,105.71,58.14Z"/><path class="cls-46" d="M105.39,58.18c.72,5.25-10,11.08-24.07,13s-26-.76-26.7-6,10.06-11.07,24.07-13S104.66,52.93,105.39,58.18Z"/><ellipse class="cls-47" cx="80.01" cy="61.68" rx="25.3" ry="9.48" transform="matrix(0.99, -0.14, 0.14, 0.99, -7.68, 11.51)"/><path class="cls-48" d="M104.75,58.27c.71,5.12-9.8,10.8-23.47,12.68s-25.32-.73-26-5.85,9.8-10.8,23.47-12.69S104.05,53.15,104.75,58.27Z"/><path class="cls-49" d="M104.44,58.31c.69,5.06-9.68,10.66-23.17,12.52s-25-.72-25.7-5.78,9.68-10.66,23.17-12.52S103.74,53.26,104.44,58.31Z"/><path class="cls-50" d="M104.12,58.36c.69,5-9.55,10.52-22.87,12.35S56.58,70,55.89,65s9.55-10.52,22.87-12.36S103.43,53.37,104.12,58.36Z"/><path class="cls-51" d="M103.8,58.4c.68,4.92-9.42,10.38-22.57,12.19s-24.34-.7-25-5.63,9.42-10.38,22.57-12.19S103.12,53.48,103.8,58.4Z"/><path class="cls-52" d="M103.48,58.44c.67,4.86-9.29,10.25-22.26,12s-24-.7-24.69-5.56,9.3-10.24,22.26-12S102.81,53.59,103.48,58.44Z"/><path class="cls-53" d="M103.17,58.49c.66,4.79-9.18,10.1-22,11.87s-23.7-.69-24.36-5.48S66,54.77,78.81,53,102.51,53.7,103.17,58.49Z"/><ellipse class="cls-54" cx="80.01" cy="61.68" rx="23.06" ry="8.64" transform="matrix(0.99, -0.14, 0.14, 0.99, -7.68, 11.51)"/><path class="cls-55" d="M102.53,58.58c.65,4.65-8.92,9.82-21.36,11.54s-23.05-.67-23.69-5.33S66.4,55,78.84,53.25,101.89,53.92,102.53,58.58Z"/><path class="cls-56" d="M102.22,58.62c.63,4.59-8.8,9.69-21.07,11.38s-22.72-.66-23.35-5.25,8.79-9.69,21.06-11.39S101.58,54,102.22,58.62Z"/><path class="cls-57" d="M101.9,58.66c.62,4.53-8.67,9.55-20.76,11.22s-22.4-.65-23-5.18,8.67-9.55,20.76-11.22S101.27,54.13,101.9,58.66Z"/><path class="cls-58" d="M101.58,58.71c.62,4.46-8.54,9.41-20.46,11.05s-22.07-.64-22.69-5.1S67,55.25,78.89,53.6,101,54.24,101.58,58.71Z"/><ellipse class="cls-59" cx="80.01" cy="61.68" rx="21.46" ry="8.04" transform="translate(-7.68 11.51) rotate(-7.85)"/><path class="cls-60" d="M101,58.79c.59,4.34-8.3,9.14-19.86,10.74s-21.43-.63-22-5,8.3-9.13,19.86-10.73S100.35,54.46,101,58.79Z"/><path class="cls-61" d="M100.63,58.84c.59,4.26-8.17,9-19.56,10.57S60,68.79,59.38,64.53s8.17-9,19.56-10.57S100,54.57,100.63,58.84Z"/><path class="cls-62" d="M100.31,58.88c.58,4.2-8,8.86-19.26,10.41s-20.77-.61-21.35-4.81,8-8.86,19.26-10.4S99.73,54.68,100.31,58.88Z"/><ellipse class="cls-63" cx="80.01" cy="61.68" rx="20.18" ry="7.56" transform="translate(-7.68 11.51) rotate(-7.85)"/><path class="cls-64" d="M99.68,59C100.24,63,91.89,67.55,81,69.05s-20.13-.59-20.69-4.65S68.12,55.81,79,54.32,99.12,54.9,99.68,59Z"/><ellipse class="cls-65" cx="80.01" cy="61.68" rx="19.54" ry="7.32" transform="translate(-7.68 11.51) rotate(-7.85)"/><path class="cls-66" d="M99,59.06C99.59,63,91.5,67.36,81,68.81s-19.48-.56-20-4.5S68.51,56,79,54.55,98.5,55.12,99,59.06Z"/><path class="cls-67" d="M98.73,59.1C99.26,63,91.31,67.27,81,68.69s-19.15-.55-19.68-4.43S68.7,56.1,79,54.67,98.19,55.23,98.73,59.1Z"/><path class="cls-68" d="M98.41,59.14c.52,3.81-7.29,8-17.45,9.43S62.13,68,61.6,64.22s7.29-8,17.45-9.43S97.88,55.34,98.41,59.14Z"/><path class="cls-69" d="M98.09,59.19c.52,3.74-7.16,7.89-17.15,9.27s-18.5-.54-19-4.28,7.16-7.89,17.15-9.27S97.57,55.45,98.09,59.19Z"/><path class="cls-70" d="M97.77,59.23c.51,3.68-7,7.75-16.85,9.11s-18.18-.53-18.68-4.21,7-7.75,16.85-9.1S97.27,55.56,97.77,59.23Z"/><path class="cls-71" d="M97.46,59.28c.49,3.61-6.92,7.61-16.55,8.94s-17.86-.52-18.36-4.13,6.92-7.61,16.55-8.94S97,55.67,97.46,59.28Z"/><path class="cls-72" d="M97.14,59.32c.49,3.54-6.79,7.47-16.25,8.78s-17.53-.51-18-4,6.79-7.48,16.25-8.78S96.65,55.78,97.14,59.32Z"/><path class="cls-73" d="M96.82,59.36c.48,3.48-6.66,7.34-15.95,8.62s-17.2-.5-17.68-4,6.66-7.33,16-8.62S96.34,55.88,96.82,59.36Z"/><path class="cls-74" d="M96.5,59.41C97,62.82,90,66.6,80.86,67.86S64,67.37,63.51,64,70,56.76,79.15,55.5,96,56,96.5,59.41Z"/><path class="cls-75" d="M96.19,59.45c.46,3.35-6.41,7.06-15.35,8.29s-16.55-.48-17-3.83,6.41-7.06,15.35-8.29S95.73,56.1,96.19,59.45Z"/><path class="cls-76" d="M95.87,59.49c.45,3.29-6.28,6.93-15.05,8.13s-16.23-.47-16.68-3.75,6.28-6.92,15-8.13S95.42,56.21,95.87,59.49Z"/><path class="cls-77" d="M95.55,59.54c.45,3.21-6.16,6.78-14.74,8S64.9,67,64.46,63.83s6.16-6.79,14.74-8S95.11,56.32,95.55,59.54Z"/><path class="cls-78" d="M95.24,59.58c.43,3.15-6,6.65-14.45,7.81s-15.58-.46-16-3.61,6-6.64,14.44-7.8S94.8,56.43,95.24,59.58Z"/><path class="cls-79" d="M94.92,59.63c.42,3.08-5.91,6.5-14.14,7.64s-15.26-.45-15.69-3.53S71,57.23,79.24,56.1,94.49,56.54,94.92,59.63Z"/><path class="cls-80" d="M94.6,59.67c.42,3-5.78,6.37-13.84,7.48s-14.93-.44-15.35-3.45,5.78-6.37,13.84-7.48S94.18,56.65,94.6,59.67Z"/><path class="cls-81" d="M94.28,59.71c.41,3-5.65,6.23-13.54,7.32s-14.61-.42-15-3.38,5.65-6.23,13.54-7.31S93.88,56.76,94.28,59.71Z"/><path class="cls-82" d="M94,59.76c.39,2.88-5.53,6.09-13.24,7.15S66.44,66.5,66,63.61s5.53-6.09,13.24-7.16S93.57,56.87,94,59.76Z"/><path class="cls-83" d="M93.65,59.8c.39,2.82-5.4,6-12.94,7s-14-.4-14.35-3.23,5.41-6,12.94-7S93.26,57,93.65,59.8Z"/><path class="cls-84" d="M93.33,59.84c.38,2.76-5.28,5.82-12.64,6.83s-13.63-.39-14-3.15S72,57.71,79.32,56.69,93,57.09,93.33,59.84Z"/><path class="cls-85" d="M93,59.89c.38,2.69-5.15,5.67-12.33,6.66S67.37,66.17,67,63.48s5.15-5.68,12.33-6.67S92.64,57.2,93,59.89Z"/><path class="cls-86" d="M92.7,59.93c.36,2.63-5,5.54-12,6.51s-13-.38-13.35-3,5-5.53,12-6.5S92.33,57.31,92.7,59.93Z"/><path class="cls-87" d="M92.38,60c.35,2.56-4.9,5.39-11.74,6.34S68,66,67.63,63.39s4.9-5.4,11.74-6.34S92,57.42,92.38,60Z"/><path class="cls-88" d="M92.06,60c.35,2.49-4.77,5.26-11.43,6.18S68.29,65.84,68,63.35s4.77-5.26,11.43-6.18S91.72,57.53,92.06,60Z"/><path class="cls-89" d="M91.74,60.06c.34,2.43-4.64,5.12-11.13,6s-12-.35-12.34-2.78,4.65-5.12,11.13-6S91.41,57.64,91.74,60.06Z"/><path class="cls-90" d="M91.43,60.11c.32,2.36-4.53,5-10.83,5.85s-11.69-.34-12-2.7,4.53-5,10.84-5.86S91.1,57.74,91.43,60.11Z"/><path class="cls-91" d="M91.11,60.15c.32,2.3-4.4,4.85-10.53,5.69s-11.36-.33-11.68-2.63,4.4-4.84,10.53-5.69S90.79,57.85,91.11,60.15Z"/><path class="cls-92" d="M90.79,60.19c.31,2.24-4.27,4.71-10.23,5.53s-11-.32-11.34-2.55,4.27-4.71,10.23-5.53S90.49,58,90.79,60.19Z"/><path class="cls-93" d="M90.48,60.24c.29,2.16-4.15,4.57-9.93,5.36s-10.72-.31-11-2.47,4.15-4.57,9.93-5.37S90.18,58.07,90.48,60.24Z"/><path class="cls-94" d="M90.16,60.28c.29,2.1-4,4.43-9.63,5.21s-10.39-.31-10.68-2.41,4-4.43,9.63-5.2S89.87,58.18,90.16,60.28Z"/><path class="cls-95" d="M89.84,60.33c.28,2-3.89,4.29-9.33,5S70.45,65.07,70.17,63s3.9-4.29,9.33-5S89.56,58.29,89.84,60.33Z"/><path class="cls-96" d="M89.52,60.37c.28,2-3.77,4.15-9,4.88S70.76,65,70.49,63s3.77-4.16,9-4.88S89.25,58.4,89.52,60.37Z"/><path class="cls-97" d="M89.21,60.41c.26,1.91-3.65,4-8.73,4.72S71.07,64.85,70.8,63s3.65-4,8.73-4.71S88.94,58.51,89.21,60.41Z"/><path class="cls-98" d="M88.89,60.46c.25,1.83-3.52,3.87-8.43,4.55s-9.09-.26-9.34-2.1,3.52-3.88,8.43-4.55S88.64,58.62,88.89,60.46Z"/><path class="cls-99" d="M88.57,60.5c.25,1.77-3.39,3.74-8.12,4.39s-8.77-.25-9-2,3.39-3.73,8.12-4.39S88.33,58.73,88.57,60.5Z"/><path class="cls-100" d="M88.25,60.54c.24,1.71-3.26,3.6-7.82,4.23s-8.44-.24-8.67-1.95,3.26-3.6,7.82-4.23S88,58.84,88.25,60.54Z"/><ellipse class="cls-101" cx="80.01" cy="61.68" rx="8.01" ry="3" transform="translate(-7.68 11.51) rotate(-7.85)"/><path class="cls-102" d="M87.62,60.63c.22,1.58-3,3.32-7.22,3.9s-7.79-.22-8-1.8,3-3.32,7.22-3.9S87.4,59.06,87.62,60.63Z"/><path class="cls-103" d="M87.3,60.68c.21,1.51-2.89,3.18-6.92,3.74s-7.46-.22-7.67-1.73S75.6,59.51,79.63,59,87.09,59.17,87.3,60.68Z"/><path class="cls-104" d="M87,60.72c.19,1.44-2.77,3.05-6.62,3.58s-7.15-.21-7.34-1.65,2.76-3,6.61-3.58S86.79,59.28,87,60.72Z"/><path class="cls-105" d="M86.67,60.76c.19,1.38-2.64,2.91-6.32,3.42s-6.82-.2-7-1.58,2.64-2.91,6.32-3.41S86.48,59.39,86.67,60.76Z"/><path class="cls-106" d="M86.35,60.81c.18,1.31-2.51,2.77-6,3.25s-6.49-.19-6.67-1.5,2.51-2.77,6-3.25S86.17,59.49,86.35,60.81Z"/><path class="cls-107" d="M86,60.85c.18,1.25-2.38,2.63-5.71,3.09s-6.17-.18-6.34-1.43,2.38-2.63,5.71-3.09S85.86,59.6,86,60.85Z"/><path class="cls-108" d="M85.72,60.89c.16,1.19-2.27,2.5-5.42,2.93s-5.84-.17-6-1.35,2.27-2.49,5.42-2.93S85.55,59.71,85.72,60.89Z"/><path class="cls-109" d="M85.4,60.94c.15,1.11-2.14,2.35-5.12,2.76s-5.51-.16-5.67-1.27,2.14-2.36,5.12-2.77S85.25,59.82,85.4,60.94Z"/><path class="cls-110" d="M85.08,61c.15,1.05-2,2.22-4.81,2.6s-5.2-.15-5.34-1.2,2-2.21,4.81-2.6S84.94,59.93,85.08,61Z"/><path class="cls-111" d="M84.76,61c.14,1-1.88,2.07-4.51,2.44s-4.87-.15-5-1.13,1.88-2.08,4.51-2.44S84.63,60,84.76,61Z"/><path class="cls-112" d="M84.45,61.07c.12.92-1.76,1.94-4.22,2.28s-4.54-.14-4.67-1.05,1.76-1.94,4.22-2.28S84.32,60.15,84.45,61.07Z"/><path class="cls-113" d="M84.13,61.11c.12.86-1.63,1.8-3.91,2.12s-4.22-.13-4.34-1,1.63-1.8,3.91-2.11S84,60.26,84.13,61.11Z"/><path class="cls-114" d="M83.81,61.16c.11.78-1.51,1.66-3.61,2s-3.89-.11-4-.9,1.51-1.66,3.61-2S83.7,60.37,83.81,61.16Z"/><path class="cls-115" d="M83.5,61.2c.1.72-1.39,1.52-3.31,1.79s-3.58-.1-3.67-.83,1.38-1.52,3.3-1.78S83.4,60.48,83.5,61.2Z"/><path class="cls-116" d="M83.18,61.24c.09.66-1.26,1.39-3,1.63s-3.25-.09-3.34-.75,1.26-1.38,3-1.63S83.09,60.59,83.18,61.24Z"/><path class="cls-117" d="M82.86,61.29c.08.59-1.13,1.24-2.71,1.46s-2.92-.08-3-.67,1.13-1.25,2.71-1.47S82.78,60.7,82.86,61.29Z"/><path class="cls-118" d="M82.54,61.33c.08.53-1,1.11-2.4,1.3s-2.6-.07-2.67-.6,1-1.1,2.4-1.3S82.47,60.81,82.54,61.33Z"/><path class="cls-119" d="M82.23,61.38c.06.46-.88,1-2.11,1.13s-2.27-.06-2.34-.52.88-1,2.11-1.14S82.16,60.92,82.23,61.38Z"/><path class="cls-120" d="M81.91,61.42c0,.39-.75.83-1.81,1s-1.94-.06-2-.45.76-.84,1.81-1S81.85,61,81.91,61.42Z"/><path class="cls-121" d="M81.59,61.46c0,.33-.63.7-1.5.82s-1.63-.05-1.67-.38.63-.69,1.5-.81S81.55,61.14,81.59,61.46Z"/><path class="cls-122" d="M81.27,61.51c0,.26-.5.55-1.2.65s-1.3,0-1.33-.3.5-.56,1.2-.65S81.24,61.24,81.27,61.51Z"/><path class="cls-123" d="M81,61.55c0,.2-.38.42-.91.49s-1,0-1-.23.38-.41.91-.48S80.93,61.35,81,61.55Z"/><path class="cls-124" d="M80.64,61.59c0,.14-.25.28-.6.33s-.65,0-.67-.15.25-.28.6-.33S80.62,61.46,80.64,61.59Z"/><path class="cls-125" d="M80.32,61.64c0,.06-.12.14-.3.16s-.32,0-.33-.07.12-.14.3-.17S80.31,61.57,80.32,61.64Z"/></g><path class="cls-126" d="M46.52,65.54l.65-1.91s6.72-4.74,31.57-4.73,32.72,4.76,32.72,4.76v1.82Z"/><path class="cls-127" d="M114.81,63.66c-38.85-13.61-69.56-.2-70.07,0,9.36-25.85,35.05-33.8,35.05-33.8S105.46,37.8,114.81,63.66Z"/><path class="cls-128" d="M102.62,146.92l-45.76,0S36.48,109,42.23,75.45a1.09,1.09,0,0,0,0-.12,53.9,53.9,0,0,1,2.49-9.39h0c.52-.17,31.61-10.69,70.08,0a53.67,53.67,0,0,1,2.48,9.39c.25,1.43.45,2.86.6,4.31v0C121.36,112.13,102.62,146.92,102.62,146.92Z"/><path class="cls-129" d="M79.61,61.08s1.67,42.76.13,83Z"/><g class="cls-130"><rect class="cls-5" x="61.33" y="130.85" width="36.83" height="32.11" transform="translate(-76.3 86.97) rotate(-40.49)"/><path class="cls-5" d="M107.31,147.17c.88,6-10.68,12.68-25.83,14.9s-28.13-.87-29-6.88,10.68-12.68,25.83-14.9S106.43,141.16,107.31,147.17Z"/><ellipse class="cls-6" cx="79.89" cy="151.18" rx="27.45" ry="10.9" transform="translate(-21.03 13.15) rotate(-8.32)"/><ellipse class="cls-7" cx="79.89" cy="151.18" rx="27.18" ry="10.79" transform="translate(-21.03 13.15) rotate(-8.32)"/><path class="cls-8" d="M106.52,147.29c.85,5.83-10.38,12.31-25.08,14.46s-27.33-.84-28.18-6.68,10.38-12.31,25.08-14.46S105.67,141.45,106.52,147.29Z"/><path class="cls-9" d="M106.26,147.32c.84,5.79-10.28,12.2-24.84,14.33s-27.05-.83-27.9-6.61,10.28-12.2,24.84-14.33S105.41,141.54,106.26,147.32Z"/><ellipse class="cls-10" cx="79.89" cy="151.18" rx="26.38" ry="10.47" transform="translate(-21.03 13.15) rotate(-8.32)"/><ellipse class="cls-11" cx="79.89" cy="151.18" rx="26.11" ry="10.37" transform="translate(-21.03 13.15) rotate(-8.32)"/><path class="cls-12" d="M105.46,147.44c.82,5.61-10,11.83-24.09,13.89s-26.23-.8-27.05-6.41,10-11.83,24.08-13.89S104.64,141.83,105.46,147.44Z"/><ellipse class="cls-13" cx="79.89" cy="151.18" rx="25.58" ry="10.15" transform="matrix(0.99, -0.14, 0.14, 0.99, -21.03, 13.15)"/><path class="cls-14" d="M104.94,147.52c.8,5.49-9.76,11.58-23.6,13.6s-25.69-.79-26.5-6.28,9.76-11.58,23.6-13.6S104.13,142,104.94,147.52Z"/><path class="cls-15" d="M104.67,147.56C105.47,153,95,159,81.33,161s-25.43-.78-26.22-6.22,9.65-11.46,23.34-13.46S103.88,142.12,104.67,147.56Z"/><path class="cls-16" d="M104.41,147.59c.78,5.38-9.56,11.34-23.1,13.32s-25.15-.77-25.94-6.14,9.56-11.34,23.1-13.32S103.62,142.22,104.41,147.59Z"/><path class="cls-17" d="M104.14,147.63c.78,5.32-9.45,11.22-22.84,13.18s-24.89-.77-25.66-6.08,9.45-11.22,22.84-13.18S103.37,142.32,104.14,147.63Z"/><path class="cls-18" d="M103.88,147.67c.77,5.26-9.35,11.1-22.6,13s-24.61-.75-25.38-6,9.35-11.1,22.6-13S103.11,142.41,103.88,147.67Z"/><path class="cls-19" d="M103.62,147.71c.76,5.2-9.25,11-22.35,12.89s-24.35-.75-25.11-5.95,9.25-11,22.35-12.89S102.86,142.51,103.62,147.71Z"/><path class="cls-20" d="M103.35,147.75c.75,5.14-9.14,10.85-22.1,12.74s-24.07-.73-24.82-5.88,9.14-10.85,22.1-12.74S102.6,142.61,103.35,147.75Z"/><ellipse class="cls-21" cx="79.89" cy="151.18" rx="23.45" ry="9.31" transform="translate(-21.03 13.15) rotate(-8.32)"/><path class="cls-22" d="M102.82,147.83c.74,5-8.93,10.6-21.6,12.45s-23.53-.72-24.27-5.75,8.94-10.6,21.61-12.45S102.09,142.8,102.82,147.83Z"/><path class="cls-23" d="M102.56,147.86c.73,5-8.83,10.49-21.35,12.32s-23.26-.71-24-5.68S66.05,144,78.57,142.18,101.83,142.89,102.56,147.86Z"/><path class="cls-24" d="M102.3,147.9c.71,4.92-8.73,10.37-21.11,12.18s-23-.71-23.71-5.62,8.73-10.37,21.11-12.18S101.58,143,102.3,147.9Z"/><ellipse class="cls-25" cx="79.89" cy="151.18" rx="22.38" ry="8.88" transform="translate(-21.03 13.15) rotate(-8.32)"/><path class="cls-26" d="M101.77,148c.7,4.8-8.53,10.12-20.61,11.89s-22.45-.69-23.15-5.49,8.53-10.12,20.61-11.89S101.07,143.18,101.77,148Z"/><path class="cls-27" d="M101.5,148c.7,4.74-8.42,10-20.36,11.74s-22.17-.68-22.87-5.42,8.43-10,20.36-11.74S100.81,143.28,101.5,148Z"/><path class="cls-28" d="M101.24,148.06c.69,4.68-8.32,9.87-20.11,11.6S59.22,159,58.54,154.3s8.32-9.87,20.11-11.6S100.56,143.38,101.24,148.06Z"/><path class="cls-29" d="M101,148.1c.67,4.62-8.22,9.75-19.87,11.45s-21.63-.66-22.31-5.29,8.22-9.75,19.87-11.45S100.3,143.47,101,148.1Z"/><path class="cls-30" d="M100.71,148.14c.67,4.56-8.11,9.62-19.61,11.31s-21.37-.66-22-5.23,8.11-9.62,19.61-11.31S100.05,143.57,100.71,148.14Z"/><path class="cls-31" d="M100.45,148.17c.66,4.51-8,9.51-19.37,11.17s-21.09-.65-21.75-5.15,8-9.51,19.37-11.17S99.79,143.67,100.45,148.17Z"/><path class="cls-32" d="M100.18,148.21c.66,4.45-7.9,9.39-19.11,11s-20.83-.64-21.48-5.09,7.91-9.39,19.12-11S99.53,143.76,100.18,148.21Z"/><path class="cls-33" d="M99.92,148.25c.64,4.39-7.8,9.26-18.87,10.88s-20.55-.63-21.19-5,7.8-9.26,18.87-10.88S99.28,143.86,99.92,148.25Z"/><path class="cls-34" d="M99.66,148.29C100.29,152.62,92,157.43,81,159s-20.28-.63-20.92-5,7.7-9.14,18.62-10.74S99,144,99.66,148.29Z"/><path class="cls-35" d="M99.39,148.33c.63,4.27-7.6,9-18.37,10.59s-20-.61-20.63-4.89,7.6-9,18.37-10.59S98.77,144.05,99.39,148.33Z"/><path class="cls-36" d="M99.13,148.37c.62,4.21-7.5,8.89-18.12,10.45s-19.74-.61-20.36-4.83,7.5-8.89,18.12-10.45S98.51,144.15,99.13,148.37Z"/><path class="cls-37" d="M98.87,148.41c.6,4.16-7.4,8.77-17.88,10.3s-19.47-.59-20.08-4.76,7.4-8.77,17.88-10.3S98.26,144.24,98.87,148.41Z"/><path class="cls-38" d="M98.6,148.44c.6,4.11-7.29,8.66-17.62,10.17s-19.2-.59-19.8-4.69,7.29-8.66,17.62-10.17S98,144.34,98.6,148.44Z"/><path class="cls-39" d="M98.34,148.48c.59,4.05-7.19,8.53-17.38,10s-18.93-.58-19.52-4.62,7.19-8.53,17.38-10S97.75,144.44,98.34,148.48Z"/><path class="cls-40" d="M98.07,148.52c.59,4-7.08,8.41-17.12,9.88s-18.66-.57-19.24-4.56,7.08-8.41,17.12-9.88S97.49,144.53,98.07,148.52Z"/><path class="cls-41" d="M97.81,148.56c.57,3.93-7,8.29-16.88,9.73s-18.39-.56-19-4.49,7-8.29,16.88-9.73S97.23,144.63,97.81,148.56Z"/><path class="cls-41" d="M97.55,148.6c.56,3.87-6.88,8.16-16.64,9.59s-18.11-.56-18.68-4.43,6.88-8.16,16.63-9.59S97,144.73,97.55,148.6Z"/><path class="cls-42" d="M97.34,148.63c.56,3.82-6.8,8.07-16.44,9.48s-17.9-.55-18.46-4.38,6.8-8.07,16.44-9.48S96.78,144.8,97.34,148.63Z"/><path class="cls-43" d="M97.13,148.66c.55,3.78-6.72,8-16.24,9.36s-17.69-.54-18.24-4.32,6.72-8,16.24-9.36S96.58,144.88,97.13,148.66Z"/><path class="cls-44" d="M96.92,148.69c.55,3.73-6.63,7.88-16,9.25s-17.48-.53-18-4.27,6.63-7.88,16-9.25S96.38,145,96.92,148.69Z"/><path class="cls-45" d="M96.71,148.72c.54,3.69-6.55,7.78-15.84,9.14s-17.27-.53-17.81-4.22,6.56-7.78,15.85-9.14S96.18,145,96.71,148.72Z"/><path class="cls-46" d="M96.51,148.75c.53,3.64-6.48,7.68-15.66,9s-17-.53-17.58-4.17,6.48-7.68,15.65-9S96,145.11,96.51,148.75Z"/><path class="cls-47" d="M96.3,148.78c.53,3.6-6.4,7.59-15.46,8.91s-16.83-.51-17.36-4.11,6.39-7.59,15.46-8.91S95.77,145.18,96.3,148.78Z"/><path class="cls-48" d="M96.09,148.81c.52,3.55-6.31,7.49-15.26,8.8s-16.62-.51-17.14-4.06S70,146.06,79,144.75,95.57,145.26,96.09,148.81Z"/><path class="cls-49" d="M95.88,148.84c.52,3.51-6.23,7.4-15.06,8.69s-16.41-.5-16.92-4,6.23-7.4,15.06-8.69S95.37,145.33,95.88,148.84Z"/><path class="cls-50" d="M95.68,148.87c.5,3.46-6.16,7.3-14.87,8.58s-16.2-.5-16.71-4,6.15-7.3,14.87-8.58S95.17,145.41,95.68,148.87Z"/><path class="cls-51" d="M95.47,148.9c.5,3.42-6.07,7.21-14.68,8.46s-16-.49-16.48-3.9S70.38,146.25,79,145,95,145.49,95.47,148.9Z"/><path class="cls-52" d="M95.26,148.93c.49,3.37-6,7.11-14.48,8.35S65,156.8,64.52,153.43s6-7.11,14.48-8.35S94.77,145.56,95.26,148.93Z"/><path class="cls-53" d="M95.05,149c.49,3.33-5.91,7-14.28,8.24s-15.56-.48-16-3.8,5.9-7,14.28-8.24S94.57,145.64,95.05,149Z"/><path class="cls-54" d="M94.85,149c.47,3.28-5.83,6.92-14.09,8.13s-15.35-.47-15.83-3.75,5.83-6.92,14.09-8.13S94.37,145.71,94.85,149Z"/><path class="cls-55" d="M94.64,149c.47,3.24-5.75,6.82-13.89,8s-15.14-.46-15.61-3.69,5.75-6.82,13.89-8S94.16,145.79,94.64,149Z"/><path class="cls-56" d="M94.43,149.05c.47,3.19-5.67,6.73-13.7,7.9s-14.91-.46-15.38-3.64,5.67-6.73,13.7-7.9S94,145.87,94.43,149.05Z"/><path class="cls-57" d="M94.22,149.08c.46,3.15-5.58,6.63-13.5,7.79s-14.7-.45-15.16-3.59,5.58-6.63,13.5-7.79S93.76,145.94,94.22,149.08Z"/><path class="cls-58" d="M94,149.11c.46,3.1-5.5,6.54-13.3,7.68s-14.49-.45-14.95-3.54,5.51-6.54,13.31-7.68S93.56,146,94,149.11Z"/><path class="cls-59" d="M93.81,149.14c.44,3.06-5.43,6.44-13.11,7.56s-14.28-.43-14.73-3.48,5.43-6.44,13.11-7.56S93.36,146.09,93.81,149.14Z"/><path class="cls-60" d="M93.6,149.18c.44,3-5.34,6.34-12.91,7.44s-14.07-.43-14.51-3.44,5.34-6.34,12.91-7.44S93.16,146.17,93.6,149.18Z"/><path class="cls-61" d="M93.39,149.21c.43,3-5.26,6.24-12.72,7.33s-13.85-.43-14.28-3.39,5.26-6.24,12.72-7.33S93,146.25,93.39,149.21Z"/><path class="cls-62" d="M93.18,149.24c.43,2.91-5.18,6.14-12.52,7.22S67,156,66.6,153.12s5.18-6.14,12.52-7.22S92.76,146.32,93.18,149.24Z"/><path class="cls-63" d="M93,149.27c.42,2.87-5.1,6-12.33,7.1S67.22,156,66.8,153.09,71.9,147,79.13,146,92.56,146.4,93,149.27Z"/><path class="cls-64" d="M92.77,149.3c.41,2.82-5,5.95-12.13,7s-13.22-.4-13.63-3.23,5-5.95,12.13-7S92.36,146.47,92.77,149.3Z"/><path class="cls-65" d="M92.56,149.33c.41,2.78-4.94,5.86-11.94,6.88s-13-.4-13.4-3.18,4.94-5.86,11.93-6.88S92.15,146.55,92.56,149.33Z"/><path class="cls-66" d="M92.35,149.36c.4,2.73-4.85,5.76-11.74,6.77s-12.78-.4-13.18-3.13,4.85-5.76,11.74-6.77S92,146.63,92.35,149.36Z"/><path class="cls-67" d="M92.14,149.39c.4,2.68-4.77,5.67-11.54,6.66s-12.57-.39-13-3.08,4.78-5.67,11.55-6.66S91.75,146.7,92.14,149.39Z"/><path class="cls-68" d="M91.94,149.42c.38,2.64-4.7,5.57-11.35,6.54s-12.36-.38-12.75-3,4.7-5.57,11.35-6.54S91.55,146.78,91.94,149.42Z"/><path class="cls-69" d="M91.73,149.45c.38,2.59-4.61,5.47-11.15,6.43s-12.15-.37-12.53-3,4.61-5.47,11.15-6.43S91.35,146.85,91.73,149.45Z"/><path class="cls-70" d="M91.52,149.48c.37,2.55-4.53,5.38-11,6.32s-11.93-.37-12.3-2.92,4.53-5.38,10.95-6.32S91.15,146.93,91.52,149.48Z"/><path class="cls-71" d="M91.31,149.51c.37,2.5-4.45,5.28-10.76,6.21s-11.72-.36-12.09-2.87,4.46-5.28,10.77-6.21S91,147,91.31,149.51Z"/><path class="cls-72" d="M91.11,149.54c.36,2.46-4.37,5.19-10.57,6.09s-11.51-.35-11.87-2.81,4.37-5.19,10.57-6.09S90.75,147.08,91.11,149.54Z"/><path class="cls-73" d="M90.9,149.57c.35,2.41-4.29,5.09-10.37,6s-11.3-.35-11.65-2.76,4.29-5.09,10.37-6S90.55,147.16,90.9,149.57Z"/><path class="cls-74" d="M90.69,149.6c.35,2.37-4.21,5-10.17,5.87s-11.09-.34-11.43-2.71,4.21-5,10.17-5.87S90.34,147.23,90.69,149.6Z"/><path class="cls-75" d="M90.48,149.63c.34,2.32-4.12,4.9-10,5.76s-10.86-.34-11.2-2.66,4.12-4.9,10-5.76S90.14,147.31,90.48,149.63Z"/><path class="cls-76" d="M90.28,149.66c.33,2.28-4,4.8-9.79,5.64s-10.65-.32-11-2.6,4-4.8,9.79-5.64S89.94,147.38,90.28,149.66Z"/><path class="cls-77" d="M90.07,149.69c.32,2.23-4,4.71-9.59,5.53S70,154.9,69.71,152.67s4-4.71,9.59-5.53S89.74,147.46,90.07,149.69Z"/><path class="cls-78" d="M89.86,149.72c.32,2.19-3.89,4.61-9.39,5.42s-10.23-.32-10.55-2.5,3.88-4.61,9.39-5.42S89.54,147.54,89.86,149.72Z"/><path class="cls-79" d="M89.65,149.75c.32,2.14-3.8,4.52-9.19,5.31s-10-.31-10.33-2.45,3.8-4.52,9.19-5.31S89.34,147.61,89.65,149.75Z"/><path class="cls-80" d="M89.44,149.78c.31,2.1-3.72,4.42-9,5.19s-9.8-.3-10.11-2.39,3.73-4.42,9-5.19S89.14,147.69,89.44,149.78Z"/><path class="cls-81" d="M89.24,149.81c.3,2.05-3.65,4.33-8.81,5.08s-9.59-.29-9.89-2.34,3.64-4.33,8.81-5.08S88.94,147.76,89.24,149.81Z"/><path class="cls-82" d="M89,149.84c.29,2-3.56,4.23-8.61,5s-9.38-.29-9.67-2.29,3.56-4.23,8.61-5S88.74,147.84,89,149.84Z"/><path class="cls-83" d="M88.82,149.87c.29,2-3.48,4.13-8.41,4.86s-9.17-.29-9.45-2.24,3.48-4.13,8.41-4.86S88.54,147.92,88.82,149.87Z"/><path class="cls-84" d="M88.61,149.9c.28,1.92-3.4,4-8.21,4.74s-9-.27-9.23-2.18,3.39-4,8.21-4.74S88.33,148,88.61,149.9Z"/><path class="cls-85" d="M88.41,149.93c.27,1.87-3.32,3.94-8,4.63s-8.73-.27-9-2.13,3.32-3.94,8-4.63S88.13,148.07,88.41,149.93Z"/><path class="cls-86" d="M88.2,150c.26,1.82-3.24,3.84-7.83,4.51s-8.52-.26-8.79-2.09,3.24-3.84,7.83-4.51S87.93,148.14,88.2,150Z"/><path class="cls-87" d="M88,150c.26,1.77-3.16,3.74-7.63,4.4s-8.31-.26-8.57-2,3.16-3.74,7.63-4.4S87.73,148.22,88,150Z"/><path class="cls-88" d="M87.78,150c.26,1.73-3.07,3.65-7.43,4.28s-8.1-.25-8.35-2,3.07-3.65,7.43-4.28S87.53,148.3,87.78,150Z"/><path class="cls-89" d="M87.58,150.06c.24,1.68-3,3.55-7.24,4.17s-7.89-.24-8.14-1.93,3-3.55,7.24-4.17S87.33,148.37,87.58,150.06Z"/><path class="cls-90" d="M87.37,150.09c.24,1.64-2.92,3.45-7.05,4.06s-7.67-.24-7.91-1.88,2.92-3.45,7-4.06S87.13,148.45,87.37,150.09Z"/><path class="cls-91" d="M87.16,150.12c.23,1.59-2.83,3.36-6.85,3.95s-7.46-.23-7.69-1.83,2.83-3.36,6.85-4S86.93,148.52,87.16,150.12Z"/><path class="cls-92" d="M87,150.15c.23,1.55-2.75,3.26-6.65,3.83s-7.25-.22-7.47-1.77,2.75-3.26,6.65-3.83S86.73,148.6,87,150.15Z"/><path class="cls-93" d="M86.74,150.18c.22,1.5-2.67,3.17-6.45,3.72s-7-.21-7.26-1.72,2.68-3.17,6.46-3.72S86.52,148.67,86.74,150.18Z"/><path class="cls-94" d="M86.54,150.21c.21,1.46-2.59,3.07-6.26,3.61s-6.82-.21-7-1.67,2.59-3.07,6.26-3.61S86.32,148.75,86.54,150.21Z"/><path class="cls-95" d="M86.33,150.24c.21,1.41-2.51,3-6.07,3.5s-6.6-.21-6.81-1.62,2.51-3,6.07-3.5S86.12,148.83,86.33,150.24Z"/><path class="cls-96" d="M86.12,150.27c.2,1.37-2.43,2.88-5.87,3.38s-6.39-.19-6.59-1.56,2.43-2.88,5.87-3.38S85.92,148.9,86.12,150.27Z"/><path class="cls-97" d="M85.91,150.3c.2,1.32-2.34,2.78-5.67,3.27s-6.18-.19-6.37-1.51,2.34-2.78,5.67-3.27S85.72,149,85.91,150.3Z"/><path class="cls-98" d="M85.71,150.33c.18,1.27-2.27,2.69-5.48,3.16s-6-.18-6.16-1.46,2.27-2.69,5.48-3.16S85.52,149.05,85.71,150.33Z"/><path class="cls-99" d="M85.5,150.36c.18,1.23-2.19,2.59-5.29,3s-5.75-.18-5.93-1.41,2.19-2.59,5.28-3.05S85.32,149.13,85.5,150.36Z"/><path class="cls-100" d="M85.29,150.39c.17,1.18-2.1,2.5-5.09,2.93s-5.54-.17-5.71-1.35,2.1-2.5,5.09-2.93S85.12,149.21,85.29,150.39Z"/><path class="cls-101" d="M85.08,150.42c.17,1.14-2,2.4-4.89,2.82s-5.33-.16-5.49-1.3,2-2.4,4.89-2.82S84.92,149.28,85.08,150.42Z"/><path class="cls-102" d="M84.87,150.45c.16,1.09-1.94,2.31-4.69,2.71s-5.12-.16-5.28-1.25,1.95-2.31,4.7-2.71S84.71,149.36,84.87,150.45Z"/><path class="cls-103" d="M84.67,150.48c.15,1.05-1.86,2.21-4.5,2.6s-4.9-.15-5.06-1.2,1.86-2.21,4.5-2.6S84.51,149.43,84.67,150.48Z"/><path class="cls-104" d="M84.46,150.51c.15,1-1.78,2.12-4.31,2.48s-4.68-.14-4.83-1.14,1.78-2.12,4.3-2.48S84.31,149.51,84.46,150.51Z"/><path class="cls-105" d="M84.25,150.54c.14,1-1.7,2-4.11,2.37s-4.47-.14-4.61-1.09,1.7-2,4.11-2.37S84.11,149.59,84.25,150.54Z"/><path class="cls-106" d="M84,150.57c.14.91-1.61,1.92-3.91,2.26s-4.26-.13-4.39-1,1.61-1.92,3.91-2.26S83.91,149.66,84,150.57Z"/><path class="cls-107" d="M83.84,150.6c.12.87-1.54,1.83-3.72,2.15s-4.05-.13-4.18-1,1.54-1.83,3.72-2.15S83.71,149.74,83.84,150.6Z"/><path class="cls-108" d="M83.63,150.63c.12.82-1.46,1.73-3.52,2s-3.84-.11-4-.93,1.46-1.73,3.52-2S83.51,149.81,83.63,150.63Z"/><path class="cls-109" d="M83.42,150.66c.11.78-1.38,1.64-3.33,1.92s-3.62-.11-3.73-.88,1.37-1.64,3.32-1.92S83.31,149.89,83.42,150.66Z"/><path class="cls-110" d="M83.21,150.69c.11.73-1.29,1.54-3.13,1.81s-3.41-.11-3.51-.83,1.29-1.54,3.13-1.81S83.11,150,83.21,150.69Z"/><path class="cls-111" d="M83,150.72c.1.69-1.22,1.45-2.94,1.7s-3.2-.1-3.3-.78,1.22-1.45,2.94-1.7S82.91,150,83,150.72Z"/><path class="cls-112" d="M82.8,150.75c.09.64-1.14,1.35-2.74,1.58s-3-.09-3.08-.72,1.13-1.35,2.74-1.58S82.7,150.12,82.8,150.75Z"/><path class="cls-113" d="M82.59,150.79c.09.59-1,1.24-2.54,1.46s-2.77-.08-2.86-.68,1-1.24,2.54-1.46S82.5,150.19,82.59,150.79Z"/><path class="cls-114" d="M82.38,150.82c.08.54-1,1.15-2.35,1.35s-2.55-.08-2.63-.63,1-1.15,2.34-1.35S82.3,150.27,82.38,150.82Z"/><path class="cls-115" d="M82.17,150.85c.08.5-.89,1.05-2.15,1.24s-2.34-.07-2.42-.58.89-1,2.16-1.24S82.1,150.34,82.17,150.85Z"/><path class="cls-116" d="M82,150.88c.06.45-.81,1-2,1.12s-2.13-.06-2.2-.52.81-1,2-1.12S81.9,150.42,82,150.88Z"/><path class="cls-117" d="M81.76,150.91c.06.41-.73.86-1.76,1s-1.92-.06-2-.47.73-.86,1.76-1S81.7,150.5,81.76,150.91Z"/><path class="cls-118" d="M81.55,150.94c0,.36-.65.77-1.56.9s-1.71-.05-1.76-.42.65-.77,1.56-.9S81.5,150.57,81.55,150.94Z"/><path class="cls-119" d="M81.34,151c0,.32-.56.67-1.37.79s-1.49,0-1.53-.37.56-.67,1.37-.79S81.3,150.65,81.34,151Z"/><path class="cls-120" d="M81.14,151c0,.27-.49.57-1.18.67s-1.28,0-1.32-.31.49-.57,1.18-.67S81.1,150.72,81.14,151Z"/><path class="cls-121" d="M80.93,151c0,.23-.41.48-1,.56s-1.07,0-1.1-.26.41-.48,1-.56S80.89,150.8,80.93,151Z"/><path class="cls-122" d="M80.72,151.06c0,.18-.32.38-.78.45s-.85,0-.88-.21.32-.38.78-.45S80.69,150.88,80.72,151.06Z"/><path class="cls-123" d="M80.51,151.09c0,.14-.24.29-.58.34s-.64,0-.66-.16.24-.29.58-.34S80.49,151,80.51,151.09Z"/><path class="cls-124" d="M80.3,151.12c0,.09-.16.19-.39.22s-.42,0-.44-.1.17-.19.4-.22S80.29,151,80.3,151.12Z"/><path class="cls-125" d="M80.1,151.15s-.08.1-.2.11-.21,0-.22,0,.08-.1.2-.11S80.09,151.1,80.1,151.15Z"/></g><path class="cls-131" d="M89.88,152.06c0,.78-4.54,1.41-10.14,1.41s-10.15-.64-10.15-1.42,4.54-1.42,10.15-1.42S89.88,151.27,89.88,152.06Z"/><path class="cls-132" d="M87.52,152.05c0,.64-3.49,3.41-7.78,3.41S72,152.68,72,152.05s3.48-1.15,7.78-1.15S87.52,151.42,87.52,152.05Z"/><path class="cls-133" d="M100.81,90c0,11.63-9.43,21.74-21.06,21.74s-21-10.13-21-21.76a21.05,21.05,0,0,1,42.1,0Z"/><path class="cls-134" d="M79.13,61.08s-.68,58.06.45,83c0,0,.38-62.17,0-83Z"/><circle class="cls-135" cx="79.76" cy="88.45" r="21.05" transform="translate(-17.56 19.8) rotate(-12.76)"/><path class="cls-136" d="M59.05,89A21.45,21.45,0,0,1,80.4,67.77,22.27,22.27,0,0,1,94.26,73.2a21,21,0,1,0-28.05,31.36C62.18,100.73,59.05,95,59.05,89Z"/><circle class="cls-137" cx="79.76" cy="88.45" r="16.83"/><path class="cls-138" d="M96.12,89.42a16.36,16.36,0,1,1-32.72,0c0-9,7.33-15.18,16.37-15.18S96.13,80.39,96.12,89.42Z"/><path class="cls-139" d="M81.43,107.41a1.05,1.05,0,1,1-1.05-1A1,1,0,0,1,81.43,107.41Z"/><path class="cls-140" d="M81.28,107.26a.9.9,0,1,1-.9-.9A.89.89,0,0,1,81.28,107.26Z"/><path class="cls-141" d="M81.45,70a1,1,0,1,1-1-1.05A1,1,0,0,1,81.45,70Z"/><path class="cls-142" d="M81.29,69.86a.9.9,0,1,1-.89-.9A.89.89,0,0,1,81.29,69.86Z"/><path class="cls-143" d="M62.2,91.05a1,1,0,1,1-1.05-1A1,1,0,0,1,62.2,91.05Z"/><path class="cls-144" d="M62.05,90.9a.9.9,0,0,1-1.8,0,.91.91,0,0,1,.9-.9A.9.9,0,0,1,62.05,90.9Z"/><path class="cls-145" d="M94.75,75.9a1,1,0,1,1-1-1.05A1,1,0,0,1,94.75,75.9Z"/><path class="cls-146" d="M94.6,75.75a.9.9,0,1,1-.89-.9A.9.9,0,0,1,94.6,75.75Z"/><path class="cls-147" d="M66.78,75.89a1,1,0,1,1-1-1A1,1,0,0,1,66.78,75.89Z"/><path class="cls-148" d="M66.63,75.74a.9.9,0,1,1-.9-.9A.9.9,0,0,1,66.63,75.74Z"/><path class="cls-149" d="M94.74,100.76a1,1,0,1,1-1-1.05A1,1,0,0,1,94.74,100.76Z"/><path class="cls-150" d="M94.59,100.61a.9.9,0,1,1-.89-.9A.89.89,0,0,1,94.59,100.61Z"/><path class="cls-151" d="M66.77,100.75a1,1,0,1,1-1-1A1,1,0,0,1,66.77,100.75Z"/><path class="cls-152" d="M66.62,100.6a.9.9,0,1,1-.9-.9A.89.89,0,0,1,66.62,100.6Z"/><path class="cls-153" d="M99.5,90.37a1.05,1.05,0,1,1-1-1.05A1,1,0,0,1,99.5,90.37Z"/><path class="cls-154" d="M99.34,90.21a.9.9,0,1,1-.89-.89A.89.89,0,0,1,99.34,90.21Z"/><path class="cls-155" d="M82.71,128.44a3.38,3.38,0,1,1-3.38-3.38A3.38,3.38,0,0,1,82.71,128.44Z"/><path class="cls-156" d="M82.71,127.93a3.38,3.38,0,1,1-3.38-3.39A3.38,3.38,0,0,1,82.71,127.93Z"/><path class="cls-157" d="M82.27,127.81a2.94,2.94,0,1,1-2.94-2.94A2.94,2.94,0,0,1,82.27,127.81Z"/><path class="cls-158" d="M102.62,146.92l-45.76,0S36.48,109,42.23,75.45c-.28,1.93-3.64,27.24,9.12,45.36,13.29,18.85,42.58,17.22,53.57,3.06,10.39-13.39,12.94-34.1,13-44.18C121.36,112.13,102.62,146.92,102.62,146.92Z"/><path class="cls-159" d="M43.39,108.65l1.32-1s9.75,26.32,14.61,38l-.63.17S45.57,128.36,43.39,108.65Z"/><path class="cls-160" d="M58.69,145.79s-6.56,15.45-6.55,28.5l-3.86,1.26s-23-35.2-4.89-66.9l1.32-1h0s1,4,2.62,9.67a0,0,0,0,1,0,0C49.92,126.15,54.11,138.81,58.69,145.79Z"/><path class="cls-161" d="M58.69,145.79s-6.56,15.45-6.55,28.5l-3.86,1.26s-23-35.2-4.89-66.9l1.32-1c-.16.24-7.31,11.42-4.78,34,2.56,22.84,14.55,10.83,16,6.46s-5.93-13.46-8.6-30.72C49.92,126.15,54.11,138.81,58.69,145.79Z"/><path class="cls-162" d="M48.27,175.55l1.1-.05s-20.8-35.44-4.66-67.86l-1.32,1S24.16,136,48.27,175.55Z"/><path class="cls-163" d="M116.09,108.68l-1.32-1s-9.77,26.31-14.63,38l.63.17S113.9,128.39,116.09,108.68Z"/><path class="cls-164" d="M100.77,145.81s6.54,15.45,6.53,28.5l3.85,1.27s23-35.18,4.95-66.9l-1.32-1h0s-1,4-2.63,9.68v0C109.55,126.17,105.35,138.83,100.77,145.81Z"/><path class="cls-165" d="M100.77,145.81s6.54,15.45,6.53,28.5l3.85,1.27s23-35.18,4.95-66.9l-1.32-1c.15.24,6,9.86,3.49,32.4-2.58,22.83-13.3,12.37-14.76,8s5.94-13.45,8.63-30.71C109.55,126.17,105.35,138.83,100.77,145.81Z"/><path class="cls-166" d="M111.16,175.58l-1.1-.06s20.83-35.42,4.71-67.85l1.32,1S135.3,136.05,111.16,175.58Z"/><path class="cls-167" d="M64.85,37.68S81.9,34,96.62,39.11C96.62,39.11,80.74,31,64.85,37.68Z"/><path class="cls-168" d="M64.85,37.68s16.61-5.17,31.77,1.43c0,0-10.42-7.92-16.83-9.28A73.16,73.16,0,0,0,64.85,37.68Z"/><path class="cls-169" d="M64.84,86.34c.24,2.73,13.1-3.35,20-2.89s8.66,4.41,9.8,3.45S91,75.45,80.4,75.45,64.7,84.82,64.84,86.34Z"/><path class="cls-170" d="M44.74,63.63s39.83-16.9,70.07,0C114.81,63.66,79.36,50.36,44.74,63.63Z"/><path class="cls-171" d="M44.73,65.94s34.81-8,70.08,0C114.81,66,79.25,55,44.73,65.94Z"/><path class="cls-172" d="M60.51,95.41A5.1,5.1,0,1,1,66.21,91,5.1,5.1,0,0,1,60.51,95.41Z"/><path class="cls-173" d="M80,73.43a3.6,3.6,0,1,1,4-3.12A3.6,3.6,0,0,1,80,73.43Z"/><path class="cls-174" d="M93.24,104.34a3.61,3.61,0,1,1,4-3.13A3.61,3.61,0,0,1,93.24,104.34Z"/><path class="cls-175" d="M48.24,61.07s6.18-15.24,18.56-22c0,0,5.2-1.34,7.49,0,0,0-7.44,10.13-9.45,18.55Z"/><path class="cls-176" d="M44.71,107.64s16.42,24.49,35,36.43c0,0-14.88-.16-21,1.72A213.53,213.53,0,0,1,44.71,107.64Z"/><path class="cls-177" d="M65.22,40c-.28-1.78-7.29,5.87-6.95,6.71S65.6,42.36,65.22,40Z"/><path class="cls-177" d="M57.7,47.17c-.47-.41-1.49,1.83-1,2S58.08,47.5,57.7,47.17Z"/><path class="cls-177" d="M60,63.22c.1-1.26-4.77-.26-4.5.69S60,64.24,60,63.22Z"/><path class="cls-177" d="M71.31,69.36c-.15-.62-2.35.64-2.07,1.06S71.43,69.87,71.31,69.36Z"/><path class="cls-178" d="M111.92,68.52s3.85,18.72,1.86,36.05c0,0,2.94-4.85,3.58-16.1.47-8.16-2.39-21.56-3.15-21.55S111.92,68.52,111.92,68.52Z"/><path class="cls-179" d="M78.38,138.1a10.62,10.62,0,1,1,11.86-9.21A10.61,10.61,0,0,1,78.38,138.1Z"/><path class="cls-180" d="M108.73,59.12a.81.81,0,0,1-1.48-.64.79.79,0,0,1,1-.42A.82.82,0,0,1,108.73,59.12Z"/><path class="cls-181" d="M51.49,58.93a.82.82,0,0,1-1.06.43.81.81,0,1,1,1.06-.43Z"/><path class="cls-182" d="M51.18,67.27a.81.81,0,1,1-.42-1.06A.8.8,0,0,1,51.18,67.27Z"/><path class="cls-183" d="M109.15,66.78a.81.81,0,1,1-.43-1.06A.82.82,0,0,1,109.15,66.78Z"/><path class="cls-184" d="M82.53,117.18a.81.81,0,0,1-1.06.43.81.81,0,0,1,.64-1.48A.79.79,0,0,1,82.53,117.18Z"/><path class="cls-185" d="M47,67.68s-8.76,18.6,3.66,49.65l8.08-1.56s-5.17-30.18,2.46-51.66C61.16,64.11,52.72,64.49,47,67.68Z"/><path class="cls-186" d="M100.12,42s7.08-1,7.1,7.7Z"/><path class="cls-187" d="M54.69,46.83s-.12-7.43,7.22-6.91C61.91,39.92,56.06,45.21,54.69,46.83Z"/><path class="cls-177" d="M66.82,82.6c-.31.4-1.74,2.86-1.13,3.44.31.28.63-.39,2.15-1.77s2.7-2.57,2.15-3.09S67.54,81.69,66.82,82.6Z"/></g></g></svg>