<svg id="_ÎÓÈ_1" data-name="—ÎÓÈ_1" xmlns="http://www.w3.org/2000/svg" viewBox="0 0 550.75 550.75"><defs><style>.cls-1{fill:#d48014;}.cls-2{fill:#ff9a14;}.cls-3{fill:#ffc673;}.cls-4{fill:#fff;}</style></defs><path class="cls-1" d="M380,328.61a9.24,9.24,0,0,1,9.21-9.21h9.14a9.24,9.24,0,0,1,9.21,9.21v15.67a9.24,9.24,0,0,0,9.22,9.21h.43a9.23,9.23,0,0,0,9.21-9.21V289.44a9.23,9.23,0,0,0-9.21-9.21h-49a9.24,9.24,0,0,0-9.21,9.21v54.84a9.24,9.24,0,0,0,9.21,9.21h2.61a9.24,9.24,0,0,0,9.22-9.21Z"/><path class="cls-1" d="M277.48,317.23V238.57a39.28,39.28,0,0,0-39.17-39.16H159.65a39.27,39.27,0,0,0-39.16,39.16v78.66a39.28,39.28,0,0,0,39.16,39.17h78.66A39.29,39.29,0,0,0,277.48,317.23Zm-102.41,8.4a23.88,23.88,0,0,1-23.82-23.81V254a23.89,23.89,0,0,1,23.82-23.82H222.9A23.88,23.88,0,0,1,246.71,254v47.83a23.87,23.87,0,0,1-23.81,23.81Z"/><path class="cls-2" d="M277.48,317.23V238.57a39.28,39.28,0,0,0-39.17-39.16H159.65a38.7,38.7,0,0,0-13,2.28A39,39,0,0,0,136.4,228v78.65a39.28,39.28,0,0,0,39.17,39.17h78.65a38.76,38.76,0,0,0,13-2.28A39,39,0,0,0,277.48,317.23Zm-102.41,8.4a23.88,23.88,0,0,1-23.82-23.81V254c0-11.7,2-28,31-28.91h47.84a23.88,23.88,0,0,1,23.81,23.82v47.83c0,11.7-2.44,30.1-31,28.9Z"/><path class="cls-3" d="M162.37,339.71c-11.61-10.15-26.12-3.63-24.67-104.46l-1.3,6.11v65.26a39.28,39.28,0,0,0,39.17,39.17h78.65a38.29,38.29,0,0,0,8.13-.92,10.93,10.93,0,0,0,.85-.81S174,349.87,162.37,339.71Z"/><path class="cls-4" d="M170.34,325.16a23.91,23.91,0,0,1-19.09-23.34V289.4L136.4,304.19v2.43a39.24,39.24,0,0,0,20.36,34.31Z"/><path class="cls-4" d="M215.86,225.08h14.2a23.8,23.8,0,0,1,19.39,10.08l19.49-20.88a39.16,39.16,0,0,0-27.45-14.71Z"/><path class="cls-2" d="M292.92,290.08c-11.41,0-20.74-5.37-20.74-11.94s9.33-11.94,20.74-11.94H423.34c11.41,0,20.74,5.37,20.74,11.94s-9.33,11.94-20.74,11.94Z"/><path class="cls-3" d="M443.81,276.31a10.42,10.42,0,0,0-4-5.41H282.23v5.41Z"/><path class="cls-2" d="M277.35,309.86c-8.53,0-15.52-9.33-15.52-20.74v-23c0-11.4,7-20.73,15.52-20.73s15.52,9.33,15.52,20.73v23C292.87,300.53,285.89,309.86,277.35,309.86Z"/><path class="cls-3" d="M285.67,271.6c-2,0-3.67-2.68-3.67-6s1.65-6,3.67-6,3.67,2.68,3.67,6S287.7,271.6,285.67,271.6Z"/><path class="cls-2" d="M420.06,346c-1.62,0-2.94-2-2.94-4.52s1.32-4.52,2.94-4.52,2.94,2,2.94,4.52S421.68,346,420.06,346Z"/><path class="cls-2" d="M372.61,346.44a3,3,0,1,1,2.48-2.94A2.74,2.74,0,0,1,372.61,346.44Z"/></svg>