<svg id="_ÎÓÈ_1" data-name="—ÎÓÈ_1" xmlns="http://www.w3.org/2000/svg" viewBox="0 0 550.75 550.75"><defs><style>.cls-1{fill:#ff5e89;}.cls-2{fill:#d42680;}.cls-3{fill:#ced2c8;}.cls-4{fill:#a1146d;}.cls-5{fill:#ff94b7;}.cls-6{fill:#ff80a2;}.cls-7{fill:#7d0d44;}</style></defs><polygon class="cls-1" points="336.07 180.32 321.35 199.93 327.48 206.68 347.72 183.38 336.07 180.32"/><rect class="cls-2" x="242.08" y="144.26" width="24.18" height="38.13"/><circle class="cls-2" cx="255.28" cy="293.44" r="125.92" transform="translate(-132.72 266.46) rotate(-45)"/><path class="cls-1" d="M159.33,374.94a126.52,126.52,0,0,0,34.19,28.22L360.36,224.08a126.47,126.47,0,0,0-37.13-36.63Z"/><path class="cls-3" d="M133.7,260.65l54.92,11.13,33.73-43.84L207,177.12A126.17,126.17,0,0,0,133.7,260.65Z"/><path class="cls-4" d="M353.81,215.08,169.73,385.8A125.89,125.89,0,0,0,353.81,215.08Z"/><circle class="cls-4" cx="255.28" cy="293.44" r="90.94" transform="translate(-132.72 266.46) rotate(-45)"/><path class="cls-5" d="M277.16,222.34c-51.36-1.14-94.12,41.61-93,93a90.57,90.57,0,0,0,17.27,51.28,2.2,2.2,0,0,0,.51.5,90.51,90.51,0,0,0,51.27,17.27c51.36,1.14,94.11-41.61,93-93a90.42,90.42,0,0,0-17.27-51.27,2.37,2.37,0,0,0-.5-.5A90.54,90.54,0,0,0,277.16,222.34Z"/><path class="cls-6" d="M346.15,289.72c0-.49-.06-1-.09-1.47,0-.74-.07-1.48-.13-2.22s-.13-1.21-.19-1.82-.11-1.22-.18-1.82-.2-1.41-.3-2.12c-.07-.49-.13-1-.21-1.47-.12-.74-.27-1.47-.4-2.21-.09-.44-.16-.9-.25-1.34-.16-.77-.34-1.53-.51-2.3-.1-.4-.18-.8-.27-1.19-.2-.82-.43-1.63-.65-2.44-.09-.33-.17-.67-.27-1-.25-.86-.51-1.7-.78-2.55-.09-.28-.17-.56-.26-.84-.29-.86-.6-1.72-.91-2.58l-.27-.74c-.32-.88-.67-1.74-1-2.6-.09-.22-.17-.45-.26-.67-.37-.88-.76-1.75-1.16-2.62-.09-.19-.17-.39-.26-.58-.41-.88-.84-1.74-1.27-2.6-.09-.18-.17-.36-.27-.54-.44-.87-.91-1.72-1.38-2.57l-.27-.5c-.47-.84-1-1.68-1.47-2.51l-.29-.49c-.51-.83-1-1.64-1.57-2.45-.11-.16-.2-.32-.31-.47-.53-.79-1.07-1.57-1.63-2.35l-.31-.44c-31.25,27.62-97.1,88.1-131.75,120,1.37,2.28,2.84,4.5,4.4,6.64,1,.77,2.12,1.52,3.2,2.24l.48.31c.89.59,1.79,1.16,2.7,1.72l.94.55q1.16.69,2.34,1.35l1.12.61c.75.4,1.5.79,2.26,1.17l1.21.59c.76.37,1.53.72,2.3,1.07l1.2.54c.85.36,1.7.7,2.55,1l1,.4c2.39.91,4.83,1.73,7.32,2.44l1.16.31c.86.23,1.71.46,2.58.67l1.44.32c.79.18,1.58.35,2.38.5l1.54.29c.79.14,1.57.26,2.36.38.52.08,1,.16,1.57.22.8.11,1.62.2,2.43.29.51.05,1,.11,1.52.15.89.08,1.79.14,2.69.19l1.3.08c1.34.06,2.68.09,4,.09a90.94,90.94,0,0,0,91-90.94C346.23,292.19,346.2,291,346.15,289.72Z"/><circle class="cls-7" cx="256.23" cy="295.34" r="17.57"/><polygon class="cls-7" points="253.23 283.13 257.98 216.66 262.73 287.87 253.23 283.13"/><polygon class="cls-7" points="256.08 292.62 332.04 261.29 266.53 298.32 256.08 292.62"/><ellipse class="cls-2" cx="253.78" cy="133.57" rx="36.27" ry="30.22"/><ellipse class="cls-1" cx="244.01" cy="126.13" rx="12.55" ry="11.62"/><path class="cls-4" d="M287.87,123.33a52.66,52.66,0,0,1-60,31.37,40,40,0,0,0,25.91,9.09c20,0,36.27-13.53,36.27-30.22A25.76,25.76,0,0,0,287.87,123.33Z"/><ellipse class="cls-2" cx="346.35" cy="175.87" rx="16.12" ry="19.35" transform="translate(-1.12 349.52) rotate(-53.47)"/><ellipse class="cls-1" cx="344.53" cy="169.58" rx="6.2" ry="6.7" transform="translate(3.19 345.5) rotate(-53.47)"/><path class="cls-4" d="M364.22,182.31a28.09,28.09,0,0,1-35.68-5.6,21.31,21.31,0,0,0,8.22,12.12c8.58,6.36,19.84,5.71,25.14-1.44A13.93,13.93,0,0,0,364.22,182.31Z"/></svg>