<svg xmlns="http://www.w3.org/2000/svg" xmlns:xlink="http://www.w3.org/1999/xlink" viewBox="0 0 111 102"><defs><style>.cls-1,.cls-2{fill:none;}.cls-2{clip-rule:evenodd;}.cls-3{isolation:isolate;}.cls-4{clip-path:url(#clip-path);}.cls-5{clip-path:url(#clip-path-3);}.cls-6{fill:url(#Dégradé_sans_nom_3);}.cls-7{clip-path:url(#clip-path-5);}.cls-8{fill:url(#Dégradé_sans_nom_3-3);}.cls-55,.cls-9{mix-blend-mode:screen;}.cls-10{clip-path:url(#clip-path-7);}.cls-11{clip-path:url(#clip-path-8);}.cls-12{fill:url(#Dégradé_sans_nom_10);}.cls-13{clip-path:url(#clip-path-9);}.cls-14{clip-path:url(#clip-path-10);}.cls-15{fill:url(#Dégradé_sans_nom_10-2);}.cls-16{clip-path:url(#clip-path-11);}.cls-17{clip-path:url(#clip-path-12);}.cls-18{fill:url(#Dégradé_sans_nom_10-3);}.cls-19{clip-path:url(#clip-path-13);}.cls-20{clip-path:url(#clip-path-14);}.cls-21{fill:url(#Dégradé_sans_nom_10-4);}.cls-22{clip-path:url(#clip-path-15);}.cls-23{clip-path:url(#clip-path-16);}.cls-24{fill:url(#Dégradé_sans_nom_10-5);}.cls-25{clip-path:url(#clip-path-17);}.cls-26{clip-path:url(#clip-path-18);}.cls-27{fill:url(#Dégradé_sans_nom_10-6);}.cls-28,.cls-55{opacity:0.5;}.cls-28,.cls-31{mix-blend-mode:multiply;}.cls-29{clip-path:url(#clip-path-19);}.cls-30{fill:#7d72b3;}.cls-30,.cls-38,.cls-46,.cls-48,.cls-49,.cls-50,.cls-51,.cls-52,.cls-53,.cls-54,.cls-62,.cls-63{fill-rule:evenodd;}.cls-31{opacity:0.4;}.cls-32{clip-path:url(#clip-path-20);}.cls-33{clip-path:url(#clip-path-21);}.cls-34{clip-path:url(#clip-path-22);}.cls-35{clip-path:url(#clip-path-23);}.cls-36{clip-path:url(#clip-path-24);}.cls-37{fill:url(#Dégradé_sans_nom_10-7);}.cls-38{fill:#00c4ff;}.cls-39{clip-path:url(#clip-path-25);}.cls-40{clip-path:url(#clip-path-26);}.cls-41{fill:url(#Dégradé_sans_nom_11);}.cls-42{clip-path:url(#clip-path-27);}.cls-43{fill:url(#Dégradé_sans_nom_12);}.cls-44{clip-path:url(#clip-path-28);}.cls-45{fill:url(#Dégradé_sans_nom_13);}.cls-46{fill:#ff61c7;}.cls-47{clip-path:url(#clip-path-30);}.cls-48{fill:#54469b;}.cls-49{fill:#b04fe2;}.cls-50{fill:#8b40e0;}.cls-51{fill:#ff77f4;}.cls-52{fill:#ea9cf4;}.cls-53{fill:#d374f4;}.cls-54{fill:#f2c4f8;}.cls-56{clip-path:url(#clip-path-31);}.cls-57{clip-path:url(#clip-path-32);}.cls-58{fill:url(#Dégradé_sans_nom_15);}.cls-59{clip-path:url(#clip-path-33);}.cls-60{clip-path:url(#clip-path-34);}.cls-61{fill:url(#Dégradé_sans_nom_15-2);}.cls-62{fill:#fffff8;}.cls-63{fill:#f5cefa;}</style><clipPath id="clip-path"><rect class="cls-1" x="12" y="7" width="90.06" height="88"/></clipPath><clipPath id="clip-path-3"><path class="cls-1" d="M72.46,11.62c-.75.83-49.57,10.52-49.57,10.52s-1.83.79-4.69,2.31a41,41,0,0,0-2.47,4.63,40.07,40.07,0,0,0-1.92,5.11,38.71,38.71,0,0,0-1,3.85c-.19.91-.34,1.81-.47,2.75,0,.05,0,.1,0,.15q-.13,1-.21,2c-.07.67-.11,1.36-.12,2,0,.46,0,.93,0,1.4a41.53,41.53,0,0,0,.42,5.94c.13.92.29,1.83.47,2.72a0,0,0,0,0,0,0,38.37,38.37,0,0,0,1,3.76,41,41,0,0,0,1.88,4.95h0q.35.77.72,1.53s0,0,0,0c.24.47.49.94.74,1.39a41.18,41.18,0,0,0,3.68,5.5l7.11,3.83,2.83,2.25a5.94,5.94,0,0,0-3,.92c.49.39,1,.77,1.52,1.14a41.47,41.47,0,0,0,19,7.58c1.07.13,2.16.23,3.26.29h0c.73,0,1.49.06,2.23.06a42,42,0,0,0,37-22.17,41.35,41.35,0,0,0,3.26-8,1.31,1.31,0,0,0,0-.15l.29-1.08a9.68,9.68,0,0,0-2.77.51,50,50,0,0,0,.88-27.23v0c-.41-1-.85-1.93-1.33-2.86a41.27,41.27,0,0,0-4.37-6.83c-.46-.58-.94-1.15-1.42-1.7-.28-.33-.57-.66-.86-1-.45-.47-.89-.94-1.35-1.38a42,42,0,0,0-6.38-5.13,18.86,18.86,0,0,0-2.29-.16,3.45,3.45,0,0,0-2.16.46"/></clipPath><radialGradient id="Dégradé_sans_nom_3" cx="-1350.22" cy="-218.16" r="0.83" gradientTransform="matrix(77.42, 0, 0, -77.42, 104559.36, -16857.68)" gradientUnits="userSpaceOnUse"><stop offset="0" stop-color="#ff9aff"/><stop offset="0.01" stop-color="#ff9aff"/><stop offset="0.09" stop-color="#fb94ff"/><stop offset="0.21" stop-color="#f183ff"/><stop offset="0.34" stop-color="#df67ff"/><stop offset="0.49" stop-color="#c741ff"/><stop offset="0.64" stop-color="#a910ff"/><stop offset="0.68" stop-color="#9f00ff"/><stop offset="0.74" stop-color="#9900f8"/><stop offset="0.83" stop-color="#8700e5"/><stop offset="0.93" stop-color="#6b00c6"/><stop offset="1" stop-color="#5200ab"/></radialGradient><clipPath id="clip-path-5"><path class="cls-1" d="M53.93,7A39.25,39.25,0,0,0,26.47,18.15a39.82,39.82,0,0,0-3.58,4,35.85,35.85,0,0,0-2.21,3.12,38.71,38.71,0,0,0-2.63,4.87,38.79,38.79,0,0,0-2.72,8.42c-.18.85-.32,1.7-.44,2.58,0,0,0,.09,0,.14-.09.62-.15,1.25-.2,1.89s-.1,1.28-.12,1.93c0,.43,0,.87,0,1.31a38.32,38.32,0,0,0,.4,5.59c.11.85.26,1.7.44,2.54v0a34.52,34.52,0,0,0,.93,3.53,37.83,37.83,0,0,0,1.76,4.66h0c.21.48.44,1,.68,1.43a.05.05,0,0,1,0,0c.23.44.46.88.7,1.31a37.87,37.87,0,0,0,3.46,5.17,39.47,39.47,0,0,0,5.11,5.39l.59.5c.72.61,1.47,1.2,2.24,1.75a39.14,39.14,0,0,0,17.88,7.12c1,.12,2,.22,3.06.27h0c.69,0,1.4.06,2.1.06A39.47,39.47,0,0,0,88.69,65a39.82,39.82,0,0,0,3.06-7.51c0-.05,0-.09,0-.14a37.81,37.81,0,0,0,1.29-6.52,39.67,39.67,0,0,0,.25-4.39,36.19,36.19,0,0,0-.19-3.77,37.67,37.67,0,0,0-1-5.73,39.21,39.21,0,0,0-7.25-14.83c-.43-.54-.87-1.08-1.33-1.6-.27-.31-.54-.61-.82-.91s-.83-.88-1.26-1.29A39.35,39.35,0,0,0,71.21,11l-.3-.14c-.58-.27-1.15-.53-1.74-.78-.79-.33-1.59-.64-2.4-.91A37.73,37.73,0,0,0,63.1,8.08c-1-.23-2-.43-2.94-.58h0c-1.18-.19-2.4-.32-3.62-.41L55.17,7Z"/></clipPath><radialGradient id="Dégradé_sans_nom_3-3" cx="-1349.91" cy="-218.24" r="0.83" gradientTransform="matrix(76.1, 0, 0, -76.1, 102759.98, -16580.33)" xlink:href="#Dégradé_sans_nom_3"/><clipPath id="clip-path-7"><rect class="cls-1" x="34.17" y="18.3" width="17.93" height="18.33"/></clipPath><clipPath id="clip-path-8"><path class="cls-2" d="M34.69,30.7a6.83,6.83,0,0,0-.17,4.68c.87,2.36,3.31.79,6.23,0s5.9-3.86,7.8-5.75,3.7-4.5,3.54-7-2.82-4.17-2.82-4.17,1-1.24.16,3.7-1.92,6.7-3,7.49-4.27,2.66-6,3.7-3.71,2.14-4.87,1.89-1.78-2.87-.86-4.52"/></clipPath><radialGradient id="Dégradé_sans_nom_10" cx="-1287.21" cy="-233.04" r="0.83" gradientTransform="matrix(17.02, 0, 0, -17.02, 21941.85, -3944.21)" gradientUnits="userSpaceOnUse"><stop offset="0" stop-color="#fff"/><stop offset="1" stop-color="#623964"/></radialGradient><clipPath id="clip-path-9"><rect class="cls-1" x="38.87" y="25.33" width="6.03" height="6.56"/></clipPath><clipPath id="clip-path-10"><path class="cls-2" d="M40,29s-1.49,1.32-1.1,2.39,3.23.39,5-1.91a3.35,3.35,0,0,0,.38-4.15s-.67,3.83-2.43,4.5-2.34.4-2.34.4-.27-.31.44-1.23"/></clipPath><radialGradient id="Dégradé_sans_nom_10-2" cx="-1135.85" cy="-268.54" r="0.83" gradientTransform="matrix(5.92, 0, 0, -5.92, 6764.2, -1563.36)" xlink:href="#Dégradé_sans_nom_10"/><clipPath id="clip-path-11"><rect class="cls-1" x="35.51" y="25.02" width="7.62" height="5.63"/></clipPath><clipPath id="clip-path-12"><path class="cls-2" d="M35.51,30.65S37,29,38.62,27.46a11,11,0,0,1,4.52-2.13,4.08,4.08,0,0,0-3.82.36c-2.14,1.24-3.81,5-3.81,5"/></clipPath><radialGradient id="Dégradé_sans_nom_10-3" cx="-1147.59" cy="-265.78" r="0.83" gradientTransform="matrix(6.24, 0, 0, -6.24, 7195.72, -1631.98)" xlink:href="#Dégradé_sans_nom_10"/><clipPath id="clip-path-13"><rect class="cls-1" x="29.58" y="19.05" width="18.65" height="11.63"/></clipPath><clipPath id="clip-path-14"><path class="cls-2" d="M29.58,30.68A23.21,23.21,0,0,1,37,25.33c4.1-1.61,5.52-2.09,7.33-3.58a33.26,33.26,0,0,1,3.86-2.7s-4,.2-10.08,4.07-8.59,6.31-8.57,7.56"/></clipPath><radialGradient id="Dégradé_sans_nom_10-4" cx="-1272.53" cy="-236.49" r="0.83" gradientTransform="matrix(14.41, 0, 0, -14.41, 18369.92, -3386.69)" xlink:href="#Dégradé_sans_nom_10"/><clipPath id="clip-path-15"><rect class="cls-1" x="21.36" y="13.64" width="33.71" height="16.3"/></clipPath><clipPath id="clip-path-16"><path class="cls-2" d="M21.36,29.94s5.84-5.83,10.41-8.11S39.41,18,43.5,17s10.43-2.81,10.43-2.81l1.15-.57s-13,.26-21.58,5.41S21.36,29.94,21.36,29.94"/></clipPath><radialGradient id="Dégradé_sans_nom_10-5" cx="-1311.65" cy="-227.3" r="0.83" gradientTransform="matrix(24.43, 0, 0, -24.43, 32072.76, -5536.83)" xlink:href="#Dégradé_sans_nom_10"/><clipPath id="clip-path-17"><rect class="cls-1" x="27.6" y="14.21" width="40.01" height="32.57"/></clipPath><clipPath id="clip-path-18"><path class="cls-2" d="M28.36,36.66s1,8.05,2.37,8.41,6.42.32,13.88-3.49,9-2.94,13.15-7.19,5.88-9.07,7.17-12.25,1.68-6.8,1.27-7.93c0,0,1.41.84,1.41,4a35,35,0,0,1-2.28,11.51c-1.34,3.07-4.81,7.87-9,10.24s-12.53,6.9-20.72,6.83-6.9-.65-7.75-2.29.48-7.83.48-7.83"/></clipPath><radialGradient id="Dégradé_sans_nom_10-6" cx="-1327.6" cy="-223.53" r="0.83" gradientTransform="matrix(34.04, 0, 0, -34.04, 45228.89, -7589.59)" xlink:href="#Dégradé_sans_nom_10"/><clipPath id="clip-path-19"><rect class="cls-1" x="15.58" y="17.92" width="65.35" height="43.15"/></clipPath><clipPath id="clip-path-20"><rect class="cls-1" x="28.61" y="14.62" width="37.75" height="30.64"/></clipPath><clipPath id="clip-path-21"><rect class="cls-1" x="27.12" y="18.26" width="22.46" height="18.4"/></clipPath><clipPath id="clip-path-22"><rect class="cls-1" x="18.77" y="11.01" width="45.34" height="19.91"/></clipPath><clipPath id="clip-path-23"><rect class="cls-1" x="12.51" y="11.32" width="70.49" height="51.67"/></clipPath><clipPath id="clip-path-24"><path class="cls-2" d="M18.43,31.39s-6.49,7.84-3.34,12.66,4.55,11.78,5.46,13.4,11.37,4,13.54,3.55,7.38-1.87,10.79-.55c0,0,6-.52,7.76-.52s4.89-1.47,5.62-1.84,4.83-1.68,6.93-2.52S70.66,52.1,72,51.05a36.26,36.26,0,0,0,5.62-6.61A77.33,77.33,0,0,0,80.9,31.83c.53-3.62-1-10.61-2.21-13s-4.88-4.68-4.88-4.68L74,13l2.89-1.72s5,6.6,5.51,12.3c.28,3.34,1,10.48.17,13.54-.7,2.45-3.11,9.68-5.21,12.26S69,58.58,65.61,59.86,52.34,62.86,46.5,63c-4.31.09-13.79-.68-18.45-.83s-8-3.08-9.85-4.56-1.22-5.52-3.11-8.7-2.93-7.42-2.46-9.72,5.8-7.77,5.8-7.77"/></clipPath><radialGradient id="Dégradé_sans_nom_10-7" cx="-1344.06" cy="-219.64" r="0.83" gradientTransform="matrix(57.51, 0, 0, -57.51, 77325, -12611.88)" xlink:href="#Dégradé_sans_nom_10"/><clipPath id="clip-path-25"><rect class="cls-1" x="27.88" y="57.45" width="65.46" height="24.07"/></clipPath><clipPath id="clip-path-26"><path class="cls-2" d="M27.88,79.26s9.23,1.61,13.42,1.49c6.34-.18,13.64.61,19.31.76S76.2,77,78,76.17a34,34,0,0,0,10-7.58c3.82-4.24,5.33-11.14,5.33-11.14H91.75a19.26,19.26,0,0,1-2.91,6.34c-1.38,2-3.41,3.77-6.18,6.17a35.87,35.87,0,0,1-14.42,7.41c-7,1.73-13.16,1.25-17.44,1.89C44.62,80.18,30.88,78,30.88,78Z"/></clipPath><radialGradient id="Dégradé_sans_nom_11" cx="-1337.69" cy="-220.97" r="0.83" gradientTransform="matrix(45.33, 0, 0, -45.33, 60674.56, -9954.42)" gradientUnits="userSpaceOnUse"><stop offset="0" stop-color="#ffff4a"/><stop offset="1" stop-color="#360038"/></radialGradient><clipPath id="clip-path-27"><path class="cls-1" d="M27.88,79.26a4.38,4.38,0,0,0,3-.92l-2.83-2.25-2.6-1.4s1.47,3.82,2.43,4.57"/></clipPath><radialGradient id="Dégradé_sans_nom_12" cx="-1086.51" cy="-277.96" r="0.83" gradientTransform="matrix(4.89, 0, 0, -4.89, 5341.67, -1283.85)" gradientUnits="userSpaceOnUse"><stop offset="0" stop-color="#6d00c2"/><stop offset="0.39" stop-color="#6600bc"/><stop offset="0.95" stop-color="#5400ad"/><stop offset="1" stop-color="#5200ab"/></radialGradient><clipPath id="clip-path-28"><path class="cls-1" d="M91.75,57.45a3.7,3.7,0,0,0,2.77-.51,49.26,49.26,0,0,0-1.06-6.62c-.26,1.84-1.71,7.13-1.71,7.13"/></clipPath><radialGradient id="Dégradé_sans_nom_13" cx="-1101.1" cy="-276.17" r="0.83" gradientTransform="matrix(5.11, 0, 0, -5.11, 5718.5, -1358.87)" gradientUnits="userSpaceOnUse"><stop offset="0" stop-color="#1f0081"/><stop offset="0.72" stop-color="#260087"/><stop offset="1" stop-color="#2a008b"/></radialGradient><clipPath id="clip-path-30"><rect class="cls-1" x="20.94" y="50.32" width="72.52" height="29.3"/></clipPath><clipPath id="clip-path-31"><rect class="cls-1" x="29.6" y="27.84" width="5.5" height="12.98"/></clipPath><clipPath id="clip-path-32"><path class="cls-2" d="M30.16,31.52c-.44,2-.89,4.05-.21,6s1.74,3.2,2.73,3.3,2.47-2.26,2.42-2.94-1.63-2.47-1.73-4.25,1.84-4.42,1.73-5.41-4.21,0-4.94,3.31"/></clipPath><linearGradient id="Dégradé_sans_nom_15" x1="-1160.01" y1="-262.51" x2="-1159.18" y2="-262.51" gradientTransform="matrix(6.62, 0, 0, -6.62, 7706.34, -1703.18)" gradientUnits="userSpaceOnUse"><stop offset="0" stop-color="#bdffe8"/><stop offset="0.2" stop-color="#8bbcab"/><stop offset="0.41" stop-color="#5a7a6f"/><stop offset="0.61" stop-color="#33453f"/><stop offset="0.78" stop-color="#17201d"/><stop offset="0.91" stop-color="#060808"/><stop offset="1"/></linearGradient><clipPath id="clip-path-33"><rect class="cls-1" x="16.49" y="23.21" width="24.35" height="32.82"/></clipPath><clipPath id="clip-path-34"><path class="cls-2" d="M31.06,23.29c-.66-.7-5.09,3.44-8.17,6.65S16.77,37.35,16.51,40s1.94,6.73,5.93,10.3,14.39,6.83,16.88,5.36,1.58-6-.45-7.15-8.65,1.12-11.75-2.14-1.7-7.63-1.32-11.3c.48-4.5,1.9-8.3,3.21-9.46a11.78,11.78,0,0,0,2-2.34"/></clipPath><linearGradient id="Dégradé_sans_nom_15-2" x1="-1320.9" y1="-224.95" x2="-1320.07" y2="-224.95" gradientTransform="matrix(29.28, 0, 0, -29.28, 38690.6, -6546.22)" xlink:href="#Dégradé_sans_nom_15"/></defs><g class="cls-3"><g id="planets"><g id="Purple_Rock" data-name="Purple Rock"><g class="cls-4"><g class="cls-4"><g class="cls-5"><rect class="cls-6" x="12" y="11.16" width="84.4" height="77.17"/></g><g class="cls-5"><rect class="cls-6" x="12" y="11.16" width="84.4" height="77.17"/></g><g class="cls-7"><rect class="cls-8" x="14.54" y="7" width="78.79" height="78.79"/></g><g class="cls-4"><g class="cls-9"><g class="cls-10"><g class="cls-11"><rect class="cls-12" x="33.65" y="17.2" width="18.6" height="20.54"/></g></g></g><g class="cls-9"><g class="cls-13"><g class="cls-14"><rect class="cls-15" x="38.54" y="25.33" width="7.25" height="7.13"/></g></g></g><g class="cls-9"><g class="cls-16"><g class="cls-17"><rect class="cls-18" x="35.51" y="24.44" width="7.62" height="6.21"/></g></g></g><g class="cls-9"><g class="cls-19"><g class="cls-20"><rect class="cls-21" x="29.56" y="19.05" width="18.67" height="11.63"/></g></g></g><g class="cls-9"><g class="cls-22"><g class="cls-23"><rect class="cls-24" x="21.36" y="13.64" width="33.71" height="16.3"/></g></g></g><g class="cls-9"><g class="cls-25"><g class="cls-26"><rect class="cls-27" x="27.04" y="14.21" width="40.57" height="32.64"/></g></g></g><g class="cls-28"><g class="cls-29"><path class="cls-30" d="M15.58,43.53a50.48,50.48,0,0,1,2.29,6.21c.82,3,.66,8,4.05,8.8s8.11,3,9.92,2.44,8.51-1.75,12.22-1,10.47.32,12.84-.86,7.45-4.22,9.87-5.14,5.76-3.56,8.64-6.49,2.84-6.25,3.54-7.91a40,40,0,0,0,2-11.26c-.15-3-2-8.59-2-8.59l-1.68-1.78S79.35,25.61,78.4,31s-.08,7.64-3.86,12.84a31,31,0,0,1-15,11.27c-5.9,2-9.69,1.73-15.83,2.3-5.73.53-12.85.13-15.69-.61a14.33,14.33,0,0,1-8.57-6.52c-2.6-4.15-3.9-6.79-3.9-6.79"/></g></g><g class="cls-31"><g class="cls-32"><path class="cls-30" d="M28.61,35s.55,8.74,1.66,9.49a7,7,0,0,0,5.67.32c2.21-.75,9.77-3.23,11.07-4s9.26-4.76,10.83-6,3.67-5.38,4.37-6.25,2.64-6.08,3.19-8,.95-4.34.95-4.34a1.37,1.37,0,0,0-.79-1.46c-.94-.35-1.1,0-1.1,0s-.2,1.3-1,5.05-12,16.58-17.61,19.93A22.07,22.07,0,0,1,32.91,43c-1.93-.24-4.33-6.46-4.3-8"/></g></g><g class="cls-31"><g class="cls-33"><path class="cls-30" d="M28.36,36.66s.23-5.44,1.63-7.27a36.75,36.75,0,0,1,8.91-7C41.69,21,45.75,19,47.17,18.65a5.29,5.29,0,0,1,2.41,0s-1.7-.92-5.6.06-8.31,4.61-10.44,5.74-5.44,3.84-6.23,5.21,1.05,7,1.05,7"/></g></g><g class="cls-31"><g class="cls-34"><path class="cls-30" d="M18.77,30.92,30.86,20.33l7.49-3.39s7.4-2.51,10.79-3.3,11-1,11-1l4,.43s-6.93-3.78-17.18-1-17,6.2-20,9-7.51,8.49-8.11,9.87"/></g></g><g class="cls-9"><g class="cls-35"><g class="cls-36"><rect class="cls-37" x="11.94" y="11.32" width="71.53" height="51.75"/></g></g></g><path class="cls-38" d="M29.84,61.23c-1-.23-1.9-.78-2.89-1-.56-.13-1.1-.21-1.65-.37a7.45,7.45,0,0,0-1.74-.29,3.81,3.81,0,0,1-3.07-1.28,8.45,8.45,0,0,1-1.35-2.82c-.39-1.4-.76-2.8-1.19-4.19a15,15,0,0,0-1.67-3.58c-.28-.46-.52-.91-.83-1.35a10.68,10.68,0,0,1-.89-1.23h0a8.12,8.12,0,0,1-.7-3.72,9.77,9.77,0,0,1,.35-2A8.35,8.35,0,0,1,15.05,37c.4-.69.79-1.4,1.19-2.11a36.5,36.5,0,0,1,2.93-4.53,63.83,63.83,0,0,1,4.61-5.11,25.08,25.08,0,0,1,3.06-2.57c.89-.67,1.72-1.4,2.61-2.07a28.25,28.25,0,0,1,5-2.76c2.07-1,4.15-2,6.3-2.75a54.66,54.66,0,0,1,7.84-2.21,46.31,46.31,0,0,1,9.33-.73c1.7,0,3.51-.2,5.13.43a14,14,0,0,1,2.78,1.26c.18.13.27.15.38.32a1.11,1.11,0,0,1,.16.35,3.43,3.43,0,0,1,.27,1.08c0,.34-.15.64-.15,1s-.12,1-.14,1.46a12.08,12.08,0,0,1-.25,1.58,12.77,12.77,0,0,1-.71,3c-.58,1.41-1,2.89-1.61,4.28-.19.42-.53.75-.72,1.17s-.35.7-.57,1.07c-.4.68-.74,1.38-1.2,2A20.31,20.31,0,0,1,58.06,35a29.13,29.13,0,0,1-5,3.24c-1.15.61-2.35,1.1-3.51,1.68s-2.08,1-3.13,1.54a65.64,65.64,0,0,1-8.38,3.07,14.66,14.66,0,0,1-2.42.65,15.28,15.28,0,0,1-2.43.34,8.72,8.72,0,0,1-2.48-.48c-1.35-.45-1.48-1.91-1.58-3.13a26.93,26.93,0,0,0-.35-2.7c-.14-.72-.19-1.44-.36-2.17a10.74,10.74,0,0,1-.28-2.25A11.48,11.48,0,0,1,28.73,32a10.44,10.44,0,0,1,.46-1.81A6.64,6.64,0,0,1,30.9,28L33,26.16c.4-.38.89-.67,1.32-1a14,14,0,0,1,2.46-1.52,21.7,21.7,0,0,0,1.81-1.34,24.06,24.06,0,0,1,2.08-1.22c.61-.3,1.26-.51,1.9-.76s1-.49,1.51-.67,1-.22,1.46-.41a9.9,9.9,0,0,1,1.38-.5,9.23,9.23,0,0,1,1.7-.37,1.76,1.76,0,0,1,1.89,1.57,6.06,6.06,0,0,1-.58,4c-.41,1.06-.87,2.12-1.28,3.2-.54,1.44-1.82,2.2-2.9,3.18a15.59,15.59,0,0,1-3.94,2.58c-.44.2-.91.31-1.35.5s-.74.37-1.11.57a7.52,7.52,0,0,0-.64.47c-.2.14-.43.21-.64.34a9.8,9.8,0,0,1-1.57.9c-.54.24-1.59.38-1.94-.24a4.15,4.15,0,0,1-.24-1.11A5.25,5.25,0,0,1,34.16,33a6.68,6.68,0,0,1,.15-1.19,7.9,7.9,0,0,1,.38-1.13,11.34,11.34,0,0,1,1.87-2.9,18.24,18.24,0,0,1,1.32-1.72,5.74,5.74,0,0,1,2.86-1.47c.95-.23,2.36-.51,3.23,0s.23,1.46,0,2.07c-.14.35-.28.69-.39,1a4,4,0,0,1-.27.8,5.93,5.93,0,0,1-1.37,1.27,2.81,2.81,0,0,1-.79.51c-.32.1-.66.09-1,.17s-.25.23-.44.16-.17-.26-.14-.44.11-.34.14-.5,0-.09,0-.13a6.62,6.62,0,0,1,1-1.52c.45.18.14.45.06.65s-.05.32-.1.5-.25.4-.09.55.48-.09.59-.13A3.52,3.52,0,0,0,43.1,27.3c.19-.63.16-1.71-.53-2a5,5,0,0,0-1.68-.1c-2,0-3.11,2.05-4.15,3.4a11.2,11.2,0,0,0-1.65,3,23,23,0,0,0-.6,2.27c-.15.56-.33,1.42.53,1.3a8.91,8.91,0,0,0,1.51-.5,7.1,7.1,0,0,0,1.17-.5c.62-.33,1.31-.42,1.95-.7s1-.5,1.5-.74a11.53,11.53,0,0,0,3.45-3,28.54,28.54,0,0,1,2.13-2,10.21,10.21,0,0,0,1.59-2.45,9.67,9.67,0,0,0,1-2.7c.2-.87.71-1.85.45-2.75s-1.48-1-2.26-.81a10,10,0,0,0-1.95.45c-1.13.45-2.24.94-3.37,1.39a35.83,35.83,0,0,0-4.86,2.93,22.86,22.86,0,0,0-2.48,1.48c-.57.44-1.11,1-1.65,1.44a11,11,0,0,1-1.13,1,7.12,7.12,0,0,0-1.53,1.37,5.88,5.88,0,0,0-.92,1.49,3.15,3.15,0,0,0,0,1.26c0,.59-.14,1.14-.16,1.72s0,1.25,0,1.86c0,1.21-.19,2.38-.16,3.6a12.66,12.66,0,0,0,.33,2.28,12.48,12.48,0,0,1,.4,1.71,1.51,1.51,0,0,0,.42,1.15,2.07,2.07,0,0,0,.58.23,5,5,0,0,0,.5.18l.29.08c.07,0,.13.15.21.19a1.39,1.39,0,0,0,.7,0c.48-.09,1-.21,1.44-.29A19.43,19.43,0,0,0,37.74,44c1.32-.5,2.55-1.21,3.86-1.75a60.44,60.44,0,0,0,5.92-2.38c.84-.46,1.71-.88,2.57-1.27a29.65,29.65,0,0,0,6-3.06,15.84,15.84,0,0,0,1.8-1.77c.33-.36.69-.67,1-1.06a26.1,26.1,0,0,0,2.4-3.68c.29-.54.47-1.13.77-1.67.46-.84,1-1.58,1.46-2.44a16.23,16.23,0,0,0,1-2.6,4.5,4.5,0,0,0,.28-1.58,7.27,7.27,0,0,1,.58-3.23,3.56,3.56,0,0,0,.43-2.11c-.1-.32-.57-.4-.85-.5-.67-.22-1.36-.39-2-.67a6.7,6.7,0,0,0-1.66-.69,2.93,2.93,0,0,0-.72-.07c-.63,0-1.17.46-1.79.44a4.15,4.15,0,0,1-.57-.12,6.55,6.55,0,0,0-1,0c-.71,0-1.4-.15-2.12-.14s-1.68.08-2.53.13-1.59,0-2.38,0a3.08,3.08,0,0,0-1.27.45c-.41.18-.87.26-1.29.41a3.28,3.28,0,0,1-1.12.3,9.17,9.17,0,0,0-1.66,0,12,12,0,0,0-2,.69c-1.77.75-3.49,1.7-5.33,2.28-.89.28-1.81.4-2.67.75a5.21,5.21,0,0,0-.9.56c-.58.39-1.19.75-1.79,1.12-1.34.85-2.61,1.78-3.88,2.73a25.8,25.8,0,0,0-4.17,3.64,89.27,89.27,0,0,0-6.28,7.72,25.7,25.7,0,0,0-2.52,4.09l-.05.09a5,5,0,0,0-.41,2.58.09.09,0,0,0,0,.05,9.4,9.4,0,0,0,.7,2.26,18,18,0,0,0,.91,2,15.2,15.2,0,0,1,1.27,2c.36.92.68,1.91,1,2.87a35.71,35.71,0,0,1,.86,3.68,8.3,8.3,0,0,0,.63,2.24c.5,1,1.59,1.34,2.47,1.92a2.38,2.38,0,0,0,1.35.43,9.58,9.58,0,0,1,2.3.46,15.83,15.83,0,0,0,4.92.84,26.49,26.49,0,0,0,3-.41c.93-.12,1.85-.21,2.76-.36a16.37,16.37,0,0,1,2.5-.36,9.46,9.46,0,0,1,2.48.35,13.62,13.62,0,0,0,4.2.63c.88,0,1.74-.23,2.62-.29a17.86,17.86,0,0,1,2.42.14A11.25,11.25,0,0,0,55.36,59a12.17,12.17,0,0,0,2.51-1.23,7.25,7.25,0,0,1,2-.7,17.42,17.42,0,0,0,4.15-1.64c1.69-1,3.09-2.38,4.74-3.41.93-.59,2-1,2.88-1.59a14,14,0,0,0,2.09-1.74c.74-.75,1.44-1.53,2.18-2.28a6.56,6.56,0,0,0,1.12-2,12.07,12.07,0,0,0,.86-3.3,12.26,12.26,0,0,1,1.18-3.17,12.29,12.29,0,0,0,1.29-4.09c.1-1.13.25-2.26.25-3.39a17,17,0,0,0-.21-2.14c-.09-.67-.23-1.31-.37-2s-.16-1.63-.31-2.45-.34-1.44-.54-2.13a10.51,10.51,0,0,0-.51-1.46,9.88,9.88,0,0,0-1.44-2.37,4.32,4.32,0,0,0-.85-.59c-.21-.17-.26-.31-.51-.43s-.7-.35-1-.55c-.55-.31-1.18-.4-1.72-.7s-1-.66-1.5-1A8.77,8.77,0,0,1,70,13.61c-.48-.47-.8-1.06-1.27-1.52a16.17,16.17,0,0,0-1.69-1.22c-.94-.73-2-.79-3.1-1.23a7.65,7.65,0,0,0-1.62-.39c-.65-.13-1.08-.52-1.76-.6a10,10,0,0,1-1.8-.24,6.36,6.36,0,0,0-1-.2,10.43,10.43,0,0,0-2.09.1,16.5,16.5,0,0,1-1.86,0,9.18,9.18,0,0,1-1.57,0,21.61,21.61,0,0,0-4.55-.1,15.57,15.57,0,0,0-4.13.67c-1.14.39-2.26.72-3.37,1.18A18.3,18.3,0,0,0,38,11.19c-1.72,1-3.3,2.15-4.94,3.24-1.83,1.22-3.55,2.56-5.31,3.89-1.15.86-2.32,1.72-3.45,2.61-.49.39-1,.8-1.43,1.21a39.82,39.82,0,0,1,3.58-4A39.25,39.25,0,0,1,53.93,7l1.24,0,1.32.06c1.22.09,2.44.22,3.62.41h0c1.35.36,2.7.76,4,1.16,1.12.34,2.25.65,3.36,1,.73.25,1.44.58,2.15.87a17.78,17.78,0,0,1,1.94.85,28.19,28.19,0,0,1,2.78,1.94,18.49,18.49,0,0,1,1.7,1.49,13.88,13.88,0,0,1,2,2.45,20.6,20.6,0,0,1,2.93,6.87,26.52,26.52,0,0,1,.29,6.36A21.11,21.11,0,0,1,80.9,34a33.07,33.07,0,0,0-.79,3.58c-.06.6,0,1.23-.06,1.83s-.27,1-.37,1.45a11.39,11.39,0,0,1-1,3,17.79,17.79,0,0,1-2.47,3.51c-1,1.26-2.18,2.46-3.28,3.69a16.45,16.45,0,0,1-3.86,3.09A24.77,24.77,0,0,1,65.63,56,14.72,14.72,0,0,1,62,57.25a4.57,4.57,0,0,0-2.42,1c-.46.33-.8.78-1.23,1.14a3.76,3.76,0,0,1-1.29.58,10.08,10.08,0,0,1-3.29.28,45.91,45.91,0,0,0-4.83.33,15.33,15.33,0,0,1-2.44.1c-.73,0-1.45-.24-2.18-.33s-1.61-.12-2.41-.24a5.26,5.26,0,0,0-1.77,0c-.51,0-1,0-1.54,0s-1.06.16-1.59.24c-2.42.33-4.69,1.45-7.16.86"/><g class="cls-9"><g class="cls-39"><g class="cls-40"><rect class="cls-41" x="27.88" y="57.45" width="65.46" height="24.22"/></g></g></g></g><g class="cls-42"><rect class="cls-43" x="25.45" y="74.69" width="5.44" height="4.69"/></g><g class="cls-44"><rect class="cls-45" x="91.75" y="50.32" width="2.78" height="7.59"/></g><g class="cls-4"><path class="cls-46" d="M66.77,9.15S75,10,76.91,11.32A5.7,5.7,0,0,1,74,13s-6.66-3.7-7.25-3.89"/><path class="cls-46" d="M18.2,24.45l3.37-.54,1.32-1.77s-2.41,1.07-4.69,2.31"/><g class="cls-28"><g class="cls-47"><path class="cls-48" d="M20.94,72.26s16,4.63,28.39,4.87,17.13-2.54,22.51-4.62,14.22-6.85,16.88-10.37,4.74-11.82,4.74-11.82S90.9,62.76,88.69,65s-12.1,8.86-13.83,9.73-6.44,4.44-15,3.44a59.32,59.32,0,0,1-7.8.65c-2.07-.15-5.29,1.94-11.2,0,0,0-8.22-.41-10-.8s-9.95-5.74-9.95-5.74"/></g></g><path class="cls-49" d="M24.81,55.52s13.22,2.3,22.8,1.32,14.75-3.37,17.48-5.16,8.08-7.5,10.08-10.1,3-9.11,3-9.11.36,6.35-1.28,9.11-7.25,8-9.54,9.51-8.86,5.12-12.29,5.75-9.1,2.36-13.2,1.6-14-.62-17.07-2.92"/><path class="cls-50" d="M43.14,76.68s13.76-.94,18.48-2,10.95-3.61,15.29-5.21,7.63-4.75,10-6.5,5.47-9,5.47-9-2,7.22-5,9.57S76.73,70.2,68,74.06c-9.67,4.29-17.19,3.07-24.88,2.62"/><path class="cls-38" d="M91.08,59.41c.22-.66.45-1.31.67-2A39.82,39.82,0,0,1,88.69,65l0,0c-.36.36-.81.65-1.15,1s-.66.78-1,1.14a37.24,37.24,0,0,1-6,4.69,44.71,44.71,0,0,1-6.74,3.81,36.23,36.23,0,0,1-5.64,2,23.69,23.69,0,0,1-4.82.65c-.82,0-1.61.18-2.42.25-1,.11-2,.09-3,.27a41.39,41.39,0,0,1-5.21.63c-1.49.08-3,.29-4.46.29-1.91,0-3.81-.31-5.72-.3s-3.72-.07-5.57-.23c-1.11-.11-2.19-.32-3.28-.44-.92-.11-1.81-.31-2.72-.41-.78-.55-1.53-1.14-2.25-1.75l-.59-.5c1.05.33,2.09.69,3.14,1a27.61,27.61,0,0,0,4.69.93,11.66,11.66,0,0,0,4,0,5.11,5.11,0,0,1,3.44.57,13.55,13.55,0,0,0,1.68.5,5.08,5.08,0,0,0,2.23.08c.72-.09,1.48-.22,2.2-.38s1.21-.38,1.83-.46a11.14,11.14,0,0,1,3.31-.1,11.47,11.47,0,0,0,3.74.14A23.63,23.63,0,0,1,62.19,78a6.46,6.46,0,0,1,1.25.12,5.16,5.16,0,0,0,1.41-.1,13,13,0,0,0,2.46-.48c.76-.24,1.49-.58,2.24-.86a18.58,18.58,0,0,0,4.09-2c1.09-.74,2.29-1.25,3.4-2s2-1.54,3.07-2.19,2.18-1.53,3.27-2.31c.69-.49,1.31-1.07,2-1.57s1.25-.77,1.81-1.26a10.53,10.53,0,0,0,2.47-2.81,17.24,17.24,0,0,0,1.42-3.2"/><path class="cls-51" d="M48.87,37.51s9.5-7.78,13.5-15.37c0,0-11.08,11.38-13.5,15.37"/><path class="cls-52" d="M38.87,46.78a35.91,35.91,0,0,0,12.65-2.73,22.59,22.59,0,0,0,10-8.48,44.13,44.13,0,0,1-9.39,6.7c-4.89,2.4-8.6,3-13.23,4.51"/><path class="cls-52" d="M62.61,34.2s.67-1.71,1.93-4.72a36.85,36.85,0,0,1,2.25-4.62,19.23,19.23,0,0,1-4.18,9.34"/><path class="cls-53" d="M36.81,62.61a50.29,50.29,0,0,0,19.22,0c10.87-2,11.34-2.69,14.34-5s5.12-5.36,6.3-6.49S79.34,46,79.34,46a38,38,0,0,1-7.48,9.22c-4.41,3.7-8,5.51-15.44,6.62a107.18,107.18,0,0,1-19.61.76"/><path class="cls-53" d="M44.14,80.73s7.56.65,10.63,1.28,9,.61,12.37-.64,10.1-4.84,10.1-4.84a40.26,40.26,0,0,1-13.73,4.3c-7.46.79-12-.47-19.37-.1"/><path class="cls-53" d="M79.43,75.43a83,83,0,0,0,7.16-5.36,18.1,18.1,0,0,1-7.16,5.36"/><path class="cls-54" d="M43,34.39s5.48-4.12,7.22-7.1a13.2,13.2,0,0,0,1.91-4.68s.77,2.9-2.51,6.59A22.35,22.35,0,0,1,43,34.39"/><g class="cls-55"><g class="cls-56"><g class="cls-57"><rect class="cls-58" x="29.27" y="27.21" width="5.94" height="13.71"/></g></g></g><g class="cls-55"><g class="cls-59"><g class="cls-60"><rect class="cls-61" x="16.25" y="22.59" width="25.58" height="34.56"/></g></g></g><path class="cls-62" d="M17.48,37.16c-.86,2.9-1,6,.83,8.39s3.14.6,3.77-5.22a54.77,54.77,0,0,0,.27-9.8s-3.79,3-4.87,6.63"/><path class="cls-63" d="M20.4,47.25c-1.21,1.12,1.68,3.34,2.15,2.27s-1.37-3-2.15-2.27"/><path class="cls-63" d="M17.2,56c-.11,1.84.94,3.94,4.16,5.14a13.16,13.16,0,0,0,5.76.88,18.9,18.9,0,0,1-5.86-2.2A25.43,25.43,0,0,1,17.2,56"/><path class="cls-62" d="M30.43,31.8c-1.06-1.41.32-3.34,2.27-4.52s2.19-.83,1.77.21-1,3.22-2,4.31-1.44.84-2.07,0"/><path class="cls-62" d="M37.45,29.35c-.41-.69.41-2.71,1.53-2.52s.84.62.32,1.36c-.39.55-1.47,1.81-1.85,1.16"/><path class="cls-62" d="M45.52,32.8c-.38-.78,2.73-3.18,3.15-2.93s.15,1.52-.58,2-2.44,1.21-2.57.93"/></g></g></g></g></g></g></svg>