<svg id="_ÎÓÈ_1" data-name="—ÎÓÈ_1" xmlns="http://www.w3.org/2000/svg" viewBox="0 0 464.49 464.49"><defs><style>.cls-1{fill:#0553bd;}.cls-2{fill:#1585d7;}.cls-3{fill:#0a7cff;}.cls-4{fill:#2dd5ff;}.cls-5{fill:#fff;}.cls-6{fill:#0f7ed5;}.cls-7{fill:#57b5ff;}.cls-8{fill:#20a7d6;}.cls-9{fill:#70baff;}.cls-10{fill:#17a8ff;}.cls-11{fill:#1480d5;}.cls-12{fill:#0a6cff;}</style></defs><path class="cls-1" d="M362.42,275.36c2.61,11.86-5.4,26.8-16.87,33.19-32.81,17.94-66.24,34.86-98.47,53.84-10.69,6.39-26.1,6.13-36.89-.59-29.81-18.32-60.68-34.82-90.77-52.66-11.25-6.72-19-21.92-16.41-33.78,12.92-47.73,31.1-90.87,29.77-141-1.72-11.86,3.19-21.56,14-21.56h172c10.77,0,15.67,9.7,14,21.56C331.31,184.49,349.49,227.63,362.42,275.36Z"/><path class="cls-2" d="M357,254.68c3.53,11.86-2.33,26.79-12.85,33.19-31.41,18.95-63.92,35.92-95.92,53.84-11.3,6.39-28.55,6.13-39.79-.59-29.32-17.38-59.07-34.07-87.66-52.66-10.26-6.72-15.86-21.92-12.34-33.78,15.61-48.89,30.72-89.64,19.07-141-4.44-11.86-1.36-21.56,10.5-21.56H327.42c11.86,0,14.94,9.7,10.51,21.56C326.27,165,341.38,205.79,357,254.68Z"/><path class="cls-3" d="M357,254.68c-15.61-48.89-30.72-89.64-19.06-141,2-5.33,2.57-10.22,1.46-14-35.16,32.61-54.77,69.61-80.73,109-26.1,39.62-58.86,73.56-90.16,109,16,9.37,24.27,14.05,39.93,23.42,11.24,6.72,28.49,7,39.79.59,32-17.92,64.51-34.89,95.92-53.84C354.66,281.47,360.52,266.54,357,254.68Z"/><path class="cls-4" d="M335.85,242.17c2.8,10.16-1.67,23-10.18,28.44-25.75,16.46-52.47,31.25-79.17,46.11-9.86,5.48-25.67,5.25-35.34-.5-24.35-14.38-48.59-29-71.86-45.11-8.27-5.76-12.52-18.78-9.72-28.94,11.67-41.66,20.57-77.4,15.17-120.78-2.47-10.16,1.63-18.47,11.24-18.47H309.44c9.61,0,13.7,8.31,11.24,18.47C315.28,164.77,324.18,200.51,335.85,242.17Z"/><path class="cls-4" d="M293.86,263.56c-6.74,8.34-10.39,12.51-18,20.84,9.77,11.6,14.82,17.39,23.86,29,15.75-8.68,23.54-13,38.12-21.7C320.2,280.43,311.07,274.81,293.86,263.56Z"/><path class="cls-5" d="M127.5,113.68a83,83,0,0,1,2.95,9.28c10.13,6.24,14.68,9.37,23.43,15.62,6.61-12.08,9.2-18.11,14.22-30.18a168.18,168.18,0,0,0-17.81-16.28H138C126.14,92.12,123.06,101.82,127.5,113.68Z"/><path class="cls-6" d="M326.34,239.57c2.36,9.29-1.78,21-9.48,26-23.25,15-47.31,28.76-71.52,42.16-9,5-23.57,4.8-32.36-.46-22-13.09-43.83-26.55-64.83-41.24-7.48-5.26-11.42-17.16-9.06-26.45,9.25-36.14,19.95-72.71,14.66-110.42-1.44-9.29,3.05-16.89,11.5-16.89H300.18c8.44,0,12.94,7.6,11.49,16.89C306.39,166.86,317.08,203.43,326.34,239.57Z"/><path class="cls-7" d="M316.86,265.56c7.7-5,11.84-16.7,9.48-26-9.25-36.11-19.94-72.66-14.68-110.34H184c-8.05,0-13.63,7.6-13.43,16.88.35,37.41-9.06,74-16.29,110.42a26.1,26.1,0,0,0,2.35,15.37c18.39,12.39,37.26,24,56.32,35.36,8.79,5.26,23.37,5.47,32.36.46C269.55,294.32,293.61,280.6,316.86,265.56Z"/><path class="cls-8" d="M213,307.26c8.79,5.26,23.37,5.47,32.36.46,24.21-13.4,48.27-27.12,71.52-42.16,7.7-5,11.84-16.7,9.48-26-9.25-36.11-19.94-72.66-14.68-110.34-41,55.89-73.47,113.06-120.77,164.66C199.59,299.24,204.05,301.91,213,307.26Z"/><path class="cls-9" d="M311.66,129.23C266.21,182.75,228.12,237,176,285c5.86,3.55,8.85,5.33,14.9,8.88C238.19,242.29,270.65,185.12,311.66,129.23Z"/><polygon class="cls-4" points="305.34 207.8 237.63 271.85 169.92 207.8 237.63 143.75 305.34 207.8"/><polygon class="cls-10" points="305.34 207.8 169.92 207.8 237.63 271.85 305.34 207.8"/><polygon class="cls-11" points="237.63 143.75 204.18 207.77 169.92 207.8 237.63 143.75"/><polygon class="cls-12" points="237.63 271.9 204.18 207.77 169.92 207.85 237.63 271.9"/><polygon class="cls-11" points="237.61 143.75 271.06 207.77 305.32 207.8 237.61 143.75"/><polygon class="cls-12" points="237.61 271.9 271.06 207.77 305.32 207.85 237.61 271.9"/><polygon class="cls-5" points="237.61 143.75 212.86 203.69 237.61 271.9 204.18 207.77 237.61 143.75"/><polygon class="cls-5" points="271.06 207.77 204.18 207.77 210.43 202.17 271.06 207.77"/></svg>