<svg xmlns="http://www.w3.org/2000/svg" xmlns:xlink="http://www.w3.org/1999/xlink" viewBox="0 0 34.22 78.11"><defs><style>.cls-1{isolation:isolate;}.cls-10,.cls-2,.cls-26,.cls-7,.cls-8{fill:#ebebec;}.cls-3{fill:#818386;}.cls-12,.cls-4,.cls-5,.cls-6{fill:#d9d9db;}.cls-5{opacity:0.8;}.cls-10,.cls-12,.cls-13,.cls-14,.cls-17,.cls-19,.cls-22,.cls-5,.cls-6{mix-blend-mode:multiply;}.cls-7{opacity:0.7;}.cls-20,.cls-21,.cls-24,.cls-26,.cls-7,.cls-8{mix-blend-mode:screen;}.cls-9{fill:#b1b2b4;}.cls-11{fill:#d3d4d5;}.cls-12,.cls-17,.cls-26{opacity:0.5;}.cls-13,.cls-17{fill:#c9cacc;}.cls-14{fill:#c7c8ca;}.cls-15{fill:#2a416f;}.cls-16{fill:#fff;}.cls-18{fill:url(#radial-gradient);}.cls-19{fill:url(#radial-gradient-2);}.cls-20{fill:url(#radial-gradient-3);}.cls-21{fill:url(#radial-gradient-4);}.cls-22{fill:#c6c8d0;}.cls-23{fill:url(#linear-gradient);}.cls-24{fill:#6b6c6f;}.cls-25{fill:#bebfc1;}</style><radialGradient id="radial-gradient" cx="350.85" cy="-140.96" r="6.86" gradientTransform="matrix(1, 0.02, -0.02, 1, -339.72, 163.96)" gradientUnits="userSpaceOnUse"><stop offset="0.15" stop-color="#21687e"/><stop offset="0.49" stop-color="#023f5f"/><stop offset="0.98"/></radialGradient><radialGradient id="radial-gradient-2" cx="352.46" cy="-148.94" r="13.7" gradientTransform="matrix(1, 0.02, -0.02, 1, -339.72, 163.96)" gradientUnits="userSpaceOnUse"><stop offset="0.28" stop-color="#21687e"/><stop offset="0.42" stop-color="#0d3b59"/><stop offset="0.59" stop-color="#05294a"/><stop offset="0.71" stop-color="#031b31"/><stop offset="0.9" stop-color="#01070d"/><stop offset="1"/></radialGradient><radialGradient id="radial-gradient-3" cx="346.45" cy="-145.09" r="8.61" gradientTransform="matrix(1, 0.02, -0.02, 1, -339.72, 163.96)" gradientUnits="userSpaceOnUse"><stop offset="0.29" stop-color="#fff"/><stop offset="0.69" stop-color="#6c6c6c"/><stop offset="1"/></radialGradient><radialGradient id="radial-gradient-4" cx="346.45" cy="-145.09" r="8.61" xlink:href="#radial-gradient-3"/><linearGradient id="linear-gradient" x1="353.69" y1="-132.78" x2="353.69" y2="-129.25" gradientTransform="matrix(1, 0.02, -0.02, 1, -339.78, 163.93)" xlink:href="#radial-gradient"/></defs><g class="cls-1"><g id="Layer_1" data-name="Layer 1"><path class="cls-2" d="M6.62,37.39S3.57,41.74,3.14,46c0,0-.17,1.77.72,1.91a2.56,2.56,0,0,0,3-1.84,21.64,21.64,0,0,1,3.47-6.11Z"/><path class="cls-3" d="M5.33,44.64a2.24,2.24,0,0,0-1.5.43,3.39,3.39,0,0,0-.66.62l0,.26s-.17,1.77.72,1.91a2.56,2.56,0,0,0,3-1.84c0-.16.1-.33.17-.51A2.54,2.54,0,0,0,5.33,44.64Z"/><path class="cls-4" d="M5.7,42.29a9.74,9.74,0,0,1,.75-1.43,11.46,11.46,0,0,1-.76-2,20.51,20.51,0,0,0-2.44,6.27,8.24,8.24,0,0,1,1.86-.72A9.39,9.39,0,0,1,5.7,42.29Z"/><path class="cls-3" d="M8,43.3c0-.08.08-.16.13-.24a8.75,8.75,0,0,0-3.43-2.35l-.21.47A7.77,7.77,0,0,1,8,43.3Z"/><path class="cls-5" d="M6.62,37.39s-.27.39-.66,1a5,5,0,0,0,.62,2.08,3.3,3.3,0,0,1,.58,1.28c0,.42-1.48,3.41-1.58,4.66,0,.39,0,.78,0,1.17A2.58,2.58,0,0,0,6.82,46a21.64,21.64,0,0,1,3.47-6.11Z"/><path class="cls-4" d="M3.56,50.76a2.51,2.51,0,0,1,1.11-.7A2.23,2.23,0,0,1,6.09,50a1.9,1.9,0,0,1,.55.39c.14-1.48.15-4.15.15-4.15a1.67,1.67,0,0,0-2-1.11,2,2,0,0,0-1.59,1.55,14.26,14.26,0,0,0,.28,4.23C3.47,50.86,3.52,50.81,3.56,50.76Z"/><path class="cls-4" d="M3.56,50.76a2.51,2.51,0,0,1,1.11-.7A2.23,2.23,0,0,1,6.09,50a1.9,1.9,0,0,1,.55.39c.14-1.48.15-4.15.15-4.15a1.67,1.67,0,0,0-2-1.11,2,2,0,0,0-1.59,1.55,14.26,14.26,0,0,0,.28,4.23C3.47,50.86,3.52,50.81,3.56,50.76Z"/><path class="cls-6" d="M6.79,46.25A1.83,1.83,0,0,0,5.58,45.1l.09.07a1.75,1.75,0,0,1,.52,1.35c0,.84-.08,3.17-.06,3.5a2.33,2.33,0,0,1,.51.38C6.78,48.92,6.79,46.25,6.79,46.25Z"/><path class="cls-2" d="M4.67,50.06l.39-.1.18-4.35s-.22-.27-1,0a1.7,1.7,0,0,0-1.06,1.58,13.73,13.73,0,0,0,.37,3.57A2.4,2.4,0,0,1,4.67,50.06Z"/><path class="cls-2" d="M6.65,50.28c-.59-.38-1-.75-1.88-.41a4.31,4.31,0,0,0-1.15.68,2.8,2.8,0,0,0-.73,1.3,4.28,4.28,0,0,0-.29,1.66,3.24,3.24,0,0,0,.26,1c.09.2.22.62.49.65s.18-.07.22-.17l.15.22a.4.4,0,0,0,.61.1.24.24,0,0,0,.09-.15l.21.18c.33.19.54,0,.5-.35a3.49,3.49,0,0,0-.37-1,1.34,1.34,0,0,1-.1-.52.42.42,0,0,1,0,.1c.17.49.51,1.22,1,1.37s.47-.55.37-.83-.37-.71-.53-1.08a2.08,2.08,0,0,1-.2-1c0-.23.23-.78.52-.43a.81.81,0,0,1,.15.4c.05.31-.16,1.24.29,1.34.23.06.41-.2.5-.37A2.77,2.77,0,0,0,7,51.22,4.33,4.33,0,0,0,6.65,50.28Z"/><path class="cls-7" d="M3.76,51.58a3.3,3.3,0,0,1,1-.37c0-.22.07-.45.1-.63a2.38,2.38,0,0,1,.22-.7L4.81,50a4.31,4.31,0,0,0-1.15.68,2.73,2.73,0,0,0-.73,1.29c0,.12-.08.23-.11.35A3.9,3.9,0,0,1,3.76,51.58Z"/><path class="cls-2" d="M10.06,35.25a9.29,9.29,0,0,0-3.84,1.58C4.78,38,8.38,43.05,9.68,41.49S10.58,35.14,10.06,35.25Z"/><path class="cls-8" d="M7.47,36.27s-1.38.34-1.42,1.46,1,2.49,1.72,3.19c0,0-1.43-1.72-1.43-2.83A2.43,2.43,0,0,1,7.47,36.27Z"/><path class="cls-9" d="M4.52,51.86h0a3.25,3.25,0,0,0,.32,1.94h0A4.74,4.74,0,0,1,4.52,51.86Z"/><path class="cls-9" d="M4.5,55.15a4,4,0,0,1-.76-3h0a3.28,3.28,0,0,0,.74,3.07S4.51,55.17,4.5,55.15Z"/><path class="cls-10" d="M7,51.22a4.33,4.33,0,0,0-.36-.94c-.59-.38-1-.75-1.88-.41h0c.51-.09,1.21-.19,1.32.4,0,.22,0,.73-.31.77-.62.09-.75,1-.58,1.52a8.66,8.66,0,0,1,.34,1.15.25.25,0,0,1-.41.27,1.56,1.56,0,0,1-.49-.85A4.41,4.41,0,0,1,4.49,52a3,3,0,0,0,0,1.52c.06.22.26.75.05.95S4,54.21,3.92,54a3.69,3.69,0,0,1-.23-1.47,2.54,2.54,0,0,0,.08,1.54c0,.09.31.72,0,.69s-.57-.64-.65-.92a4.17,4.17,0,0,1-.17-1.16A2.91,2.91,0,0,0,3,54a2.11,2.11,0,0,1,.21.77.13.13,0,0,1-.14.13.44.44,0,0,0,.3.25c.12,0,.18-.07.22-.17l.15.22a.4.4,0,0,0,.61.1.24.24,0,0,0,.09-.15l.21.18c.33.19.54,0,.5-.35a3.49,3.49,0,0,0-.37-1,1.34,1.34,0,0,1-.1-.52.42.42,0,0,1,0,.1c.17.49.51,1.22,1,1.37s.47-.55.37-.83-.37-.71-.53-1.08a2.08,2.08,0,0,1-.2-1c0-.23.23-.78.52-.43a.81.81,0,0,1,.15.4c.05.31-.16,1.24.29,1.34.23.06.41-.2.5-.37A2.77,2.77,0,0,0,7,51.22Z"/><path class="cls-9" d="M3.12,53.9a4,4,0,0,1-.17-1,5.16,5.16,0,0,0,0,.71,1.1,1.1,0,0,0,0,.18A3.59,3.59,0,0,0,3.59,55s0,0,0,0A11.37,11.37,0,0,1,3.12,53.9Z"/><path class="cls-2" d="M25,37.79s2.86,4.47,3.11,8.69c0,0,.09,1.78-.8,1.88a2.56,2.56,0,0,1-2.88-2,21.65,21.65,0,0,0-3.2-6.25Z"/><path class="cls-3" d="M26,45.08a2.29,2.29,0,0,1,1.48.5,3.48,3.48,0,0,1,.63.64c0,.09,0,.18,0,.26s.09,1.78-.8,1.88a2.56,2.56,0,0,1-2.88-2c0-.17-.09-.34-.15-.52A2.59,2.59,0,0,1,26,45.08Z"/><path class="cls-4" d="M25.75,42.72a9.74,9.74,0,0,0-.69-1.46,11.15,11.15,0,0,0,.84-1.94,20.53,20.53,0,0,1,2.17,6.37,8.46,8.46,0,0,0-1.82-.8A9.5,9.5,0,0,0,25.75,42.72Z"/><path class="cls-3" d="M23.37,43.63l-.12-.25a8.55,8.55,0,0,1,3.53-2.19c.06.15.13.31.19.47A7.79,7.79,0,0,0,23.37,43.63Z"/><path class="cls-5" d="M25,37.79s.25.39.61,1.06a5,5,0,0,1-.71,2.06,3.39,3.39,0,0,0-.63,1.24c0,.43,1.33,3.48,1.38,4.73,0,.39,0,.78,0,1.17a2.55,2.55,0,0,1-1.21-1.65,21.65,21.65,0,0,0-3.2-6.25Z"/><path class="cls-4" d="M27.52,51.28a2.54,2.54,0,0,0-1.07-.76A2.24,2.24,0,0,0,25,50.41a2.15,2.15,0,0,0-.57.37c-.08-1.48,0-4.16,0-4.16a1.68,1.68,0,0,1,2.1-1,2,2,0,0,1,1.52,1.63,14.2,14.2,0,0,1-.46,4.21Z"/><path class="cls-4" d="M27.52,51.28a2.54,2.54,0,0,0-1.07-.76A2.24,2.24,0,0,0,25,50.41a2.15,2.15,0,0,0-.57.37c-.08-1.48,0-4.16,0-4.16a1.68,1.68,0,0,1,2.1-1,2,2,0,0,1,1.52,1.63,14.2,14.2,0,0,1-.46,4.21Z"/><path class="cls-6" d="M24.49,46.62a1.84,1.84,0,0,1,1.26-1.09l-.09.07a1.73,1.73,0,0,0-.58,1.33c0,.84-.06,3.17-.09,3.5a2.32,2.32,0,0,0-.53.35C24.38,49.3,24.49,46.62,24.49,46.62Z"/><path class="cls-2" d="M26.45,50.52l-.39-.11V46.06s.23-.26,1,0a1.7,1.7,0,0,1,1,1.62,14,14,0,0,1-.53,3.56A2.49,2.49,0,0,0,26.45,50.52Z"/><path class="cls-2" d="M24.46,50.67c.6-.37,1-.71,1.89-.33a4.56,4.56,0,0,1,1.12.72,2.64,2.64,0,0,1,.67,1.33,4,4,0,0,1,.22,1.67,3,3,0,0,1-.3,1c-.1.2-.25.61-.51.63a.23.23,0,0,1-.22-.18l-.16.21a.39.39,0,0,1-.61.08.37.37,0,0,1-.09-.16.68.68,0,0,1-.21.17c-.34.17-.54,0-.48-.37a3.27,3.27,0,0,1,.41-1,1.27,1.27,0,0,0,.12-.51,1,1,0,0,1,0,.1c-.19.48-.57,1.2-1.11,1.33s-.45-.57-.34-.85.41-.69.58-1a2.09,2.09,0,0,0,.24-1c0-.23-.19-.78-.5-.45a.84.84,0,0,0-.17.4c-.06.3.11,1.24-.34,1.32-.23,0-.41-.21-.49-.39a2.8,2.8,0,0,1-.08-1.74A4.07,4.07,0,0,1,24.46,50.67Z"/><path class="cls-7" d="M27.29,52.08a3.64,3.64,0,0,0-.95-.41c0-.22-.05-.45-.07-.63a2.13,2.13,0,0,0-.19-.71l.23.08a4.32,4.32,0,0,1,1.12.73,2.65,2.65,0,0,1,.67,1.32c0,.12.07.24.1.36A4.35,4.35,0,0,0,27.29,52.08Z"/><path class="cls-2" d="M21.69,35.5a9.24,9.24,0,0,1,3.77,1.74c1.39,1.27-2.42,6.12-3.66,4.51S21.17,35.37,21.69,35.5Z"/><path class="cls-8" d="M24.24,36.63s1.36.4,1.35,1.52-1.13,2.44-1.86,3.11c0,0,1.51-1.65,1.56-2.76A2.43,2.43,0,0,0,24.24,36.63Z"/><path class="cls-9" d="M26.51,52.33a0,0,0,0,1,0,0,3.36,3.36,0,0,1-.4,1.92s0,0,0,0A4.75,4.75,0,0,0,26.51,52.33Z"/><path class="cls-9" d="M26.4,55.62a4,4,0,0,0,.89-3h0a3.32,3.32,0,0,1-.87,3A0,0,0,0,1,26.4,55.62Z"/><path class="cls-10" d="M24.06,51.58a4.07,4.07,0,0,1,.4-.91c.6-.37,1-.71,1.89-.33h0c-.5-.11-1.2-.24-1.33.35-.05.21,0,.73.27.78.62.11.71,1,.51,1.54a9.84,9.84,0,0,0-.38,1.13.26.26,0,0,0,.4.3,1.56,1.56,0,0,0,.52-.83,4.47,4.47,0,0,0,.2-1.14A3,3,0,0,1,26.45,54c-.07.22-.29.73-.09.94s.58-.23.67-.41a3.92,3.92,0,0,0,.29-1.46,2.53,2.53,0,0,1-.15,1.53c0,.09-.34.71,0,.69s.58-.61.68-.89a3.84,3.84,0,0,0,.22-1.15,2.88,2.88,0,0,1-.1,1.27c-.07.25-.26.5-.24.76a.14.14,0,0,0,.14.14.49.49,0,0,1-.31.24.23.23,0,0,1-.22-.18l-.16.21a.39.39,0,0,1-.61.08.37.37,0,0,1-.09-.16.68.68,0,0,1-.21.17c-.34.17-.54,0-.48-.37a3.27,3.27,0,0,1,.41-1,1.27,1.27,0,0,0,.12-.51,1,1,0,0,1,0,.1c-.19.48-.57,1.2-1.11,1.33s-.45-.57-.34-.85.41-.69.58-1a2.09,2.09,0,0,0,.24-1c0-.23-.19-.78-.5-.45a.84.84,0,0,0-.17.4c-.06.3.11,1.24-.34,1.32-.23,0-.41-.21-.49-.39A2.8,2.8,0,0,1,24.06,51.58Z"/><path class="cls-9" d="M27.83,54.43a4.38,4.38,0,0,0,.21-1,5,5,0,0,1-.07.71l0,.17a3.91,3.91,0,0,1-.62,1.2s0,0,0,0A10.16,10.16,0,0,0,27.83,54.43Z"/><path class="cls-2" d="M8.9,47.67a3.1,3.1,0,0,0-.56,1.84c0,1.15,5.92,3.44,7.45,3.78s7-2.59,7-3.78-.18-1.7-.91-1.74S8.9,47.67,8.9,47.67Z"/><path class="cls-10" d="M9.46,50.16a18.82,18.82,0,0,1,0-2.49H8.9a3.1,3.1,0,0,0-.56,1.84c0,.32.47.74,1.19,1.18C9.5,50.51,9.48,50.34,9.46,50.16Z"/><path class="cls-10" d="M21.83,47.77h-.57a.07.07,0,0,1,0,.05,10,10,0,0,1,.06,1.45c0,.64-.1,1.27-.15,1.91.92-.62,1.57-1.25,1.56-1.66C22.72,48.31,22.56,47.81,21.83,47.77Z"/><path class="cls-11" d="M22.75,36.18c-.49-1.41-5.24-1.54-5.24-1.54H15.93l-1.57-.07s-4.76-.06-5.3,1.32S8.33,47.35,8.93,48.2c.41.58,2.61,1.32,5,1.69.54.09,1,.1,1.59.14s1.16,0,1.7-.06c2.44-.28,4.67-.92,5.1-1.48C23,47.66,23.24,37.59,22.75,36.18Z"/><path class="cls-2" d="M22.37,36.1c-.46-1.33-4.95-1.46-4.95-1.46H15.93l-1.48-.06s-4.49-.07-5,1.24-.69,10.82-.12,11.63c.38.55,2.46,1.25,4.75,1.6.51.08,1,.09,1.5.13s1.09,0,1.61-.06c2.3-.26,4.41-.87,4.82-1.4C22.59,46.94,22.84,37.43,22.37,36.1Z"/><path class="cls-12" d="M15.91,49.18a8.49,8.49,0,0,1-5.33-1.64,6.56,6.56,0,0,1-2-2.66,10.87,10.87,0,0,0,.36,3.32c.41.58,2.61,1.32,5,1.69.54.09,1,.1,1.59.14s1.16,0,1.7-.06c2.44-.28,4.67-.92,5.1-1.48a6.68,6.68,0,0,0,.41-2.25A8.85,8.85,0,0,1,15.91,49.18Z"/><path class="cls-13" d="M16,37.28a12.11,12.11,0,0,0,3.95-.69A5.32,5.32,0,0,0,22,35.49a14,14,0,0,0-4.52-.85H15.93l-1.57-.07a14.78,14.78,0,0,0-4.39.58A8.56,8.56,0,0,0,16,37.28Z"/><path class="cls-2" d="M11.52,32a1.83,1.83,0,0,1-1.87,1.79h0a1.83,1.83,0,0,1-1.8-1.87l0-1.29a1.84,1.84,0,0,1,1.87-1.8h0a1.84,1.84,0,0,1,1.8,1.88Z"/><path class="cls-14" d="M11.34,31.91a1.66,1.66,0,0,1-1.69,1.62h0A1.66,1.66,0,0,1,8,31.84l0-1.16a1.65,1.65,0,0,1,1.69-1.62h0a1.67,1.67,0,0,1,1.62,1.69Z"/><path class="cls-15" d="M9.22,30a.37.37,0,0,1-.38.37A.38.38,0,0,1,8.47,30a.39.39,0,0,1,.39-.37A.37.37,0,0,1,9.22,30Z"/><path class="cls-16" d="M8.88,29.87a.09.09,0,0,1-.1.1.1.1,0,1,1,.1-.1Z"/><path class="cls-16" d="M8.68,30.08a.05.05,0,0,1-.1,0,0,0,0,0,1,.1,0Z"/><path class="cls-15" d="M9.12,31.59a.38.38,0,1,1-.37-.38A.37.37,0,0,1,9.12,31.59Z"/><path class="cls-16" d="M8.78,31.45a.11.11,0,0,1-.1.1.1.1,0,0,1-.1-.11.09.09,0,0,1,.1-.1A.1.1,0,0,1,8.78,31.45Z"/><path class="cls-16" d="M8.57,31.65a0,0,0,0,1,0,.05,0,0,0,0,1,0-.05,0,0,0,0,1,0,0A0,0,0,0,1,8.57,31.65Z"/><path class="cls-13" d="M9.75,28.81a2.12,2.12,0,0,0-.57.08,6.87,6.87,0,0,0-.3,2.51c0,.5,0,1,.1,1.5,0,.25,0,.51.09.76a1.58,1.58,0,0,0,.58.11A1.83,1.83,0,0,0,11.52,32l0-1.29A1.84,1.84,0,0,0,9.75,28.81Z"/><path class="cls-2" d="M20.45,32.17A1.84,1.84,0,0,0,22.25,34h0a1.84,1.84,0,0,0,1.88-1.79l0-1.29a1.83,1.83,0,0,0-1.79-1.88h0a1.84,1.84,0,0,0-1.88,1.8Z"/><path class="cls-14" d="M20.64,32.11a1.66,1.66,0,0,0,1.61,1.69h0A1.67,1.67,0,0,0,24,32.18L24,31a1.66,1.66,0,0,0-1.62-1.69h0A1.65,1.65,0,0,0,20.66,31Z"/><path class="cls-15" d="M22.83,30.3a.39.39,0,0,0,.37.39.37.37,0,0,0,.38-.37.36.36,0,0,0-.36-.38A.38.38,0,0,0,22.83,30.3Z"/><path class="cls-16" d="M23.18,30.18a.1.1,0,1,0,.1-.1A.1.1,0,0,0,23.18,30.18Z"/><path class="cls-16" d="M23.38,30.4a0,0,0,0,0,0,0,0,0,0,1,0,0-.09A0,0,0,0,0,23.38,30.4Z"/><path class="cls-15" d="M22.87,31.88a.37.37,0,0,0,.37.38.38.38,0,0,0,.38-.36.39.39,0,0,0-.37-.39A.38.38,0,0,0,22.87,31.88Z"/><path class="cls-16" d="M23.21,31.76a.11.11,0,0,0,.1.1.11.11,0,0,0,0-.21A.11.11,0,0,0,23.21,31.76Z"/><path class="cls-16" d="M23.41,32a0,0,0,0,0,.05.05.05.05,0,0,0,.05-.05.05.05,0,0,0-.1,0Z"/><path class="cls-13" d="M22.36,29.08a1.74,1.74,0,0,1,.56.11,6.67,6.67,0,0,1,.19,2.52c0,.49-.08,1-.16,1.49a6.66,6.66,0,0,1-.12.76,1.6,1.6,0,0,1-.58.08,1.84,1.84,0,0,1-1.8-1.87l0-1.29A1.84,1.84,0,0,1,22.36,29.08Z"/><path class="cls-2" d="M17,23.53a8.06,8.06,0,0,0-.87-.07,8.53,8.53,0,0,0-.88,0,6.64,6.64,0,0,0-6,6.61c-.08,3.59.3,5.06,3.54,6.15a9.37,9.37,0,0,0,3.07.46,8.68,8.68,0,0,0,3-.33c3.28-1,3.72-2.41,3.8-6A6.63,6.63,0,0,0,17,23.53Z"/><path class="cls-4" d="M9.6,33.59c.42,1.25,1.33,2,3.23,2.66a9.37,9.37,0,0,0,3.07.46,8.68,8.68,0,0,0,3-.33c2.05-.59,3-1.39,3.43-2.77A19.24,19.24,0,0,0,9.6,33.59Z"/><path class="cls-17" d="M10.27,28.34c.25.08.31-.26.41-.44a8.77,8.77,0,0,1,.8-1.24,6.33,6.33,0,0,1,2-1.73,3.57,3.57,0,0,0-.54-.79A6.54,6.54,0,0,0,9.64,28,3.07,3.07,0,0,0,10.27,28.34Z"/><path class="cls-17" d="M20.76,27c.16.3.32.62.46.93h0c.26-.21.53-.4.8-.6A6.74,6.74,0,0,0,20.34,25c-.18.19-.37.38-.55.58A8.44,8.44,0,0,1,20.76,27Z"/><path class="cls-13" d="M21.59,30.73a5.47,5.47,0,0,1-5.73,5.21,5.34,5.34,0,1,1,.23-10.67A5.48,5.48,0,0,1,21.59,30.73Z"/><path class="cls-18" d="M21.26,30.4a5.15,5.15,0,0,1-5.38,4.9,5,5,0,1,1,.21-10A5.15,5.15,0,0,1,21.26,30.4Z"/><path class="cls-19" d="M20.74,28.11A4.23,4.23,0,0,1,21,30.27a4.49,4.49,0,0,1-3.37,3.62,6.35,6.35,0,0,1-4.87-.53c-2.12-1.32-2.25-3.92-1.15-5.89a4.8,4.8,0,0,0-.9,2.7,5.15,5.15,0,0,0,5.17,5.13,5.15,5.15,0,0,0,5.38-4.9A4.79,4.79,0,0,0,20.74,28.11Z"/><path class="cls-20" d="M11.41,31.19a5,5,0,0,0,.16.86,5.13,5.13,0,0,0,.25.69,8.23,8.23,0,0,0,.71.59,11.35,11.35,0,0,0,1.27.81,6.67,6.67,0,0,1-.82-2.3A15.27,15.27,0,0,1,11.41,31.19Z"/><path class="cls-21" d="M15.72,25.69A4.75,4.75,0,0,0,12,28a5.24,5.24,0,0,0-.63,2.53c.47.2,1,.36,1.45.52l.09,0a5.43,5.43,0,0,1,.1-1.34,4.87,4.87,0,0,1,1.83-3.11,5.9,5.9,0,0,1,1.88-.93A6.68,6.68,0,0,0,15.72,25.69Z"/><path class="cls-22" d="M19.53,38.64l-1,0-5.42-.11-1,0c-1,0-1.2.76-1.33,1.38l-.08,3.6-.06,2.82v.11h0c.11.61.3,1.31,1.25,1.33l1,0,5.42.12,1,0c1,0,1.17-.67,1.31-1.27h0v-.1l.06-2.83.08-3.6C20.69,39.45,20.54,38.67,19.53,38.64Z"/><path class="cls-2" d="M19.35,38.79l-1,0-5.09-.11-1,0c-1,0-1.13.71-1.25,1.29L11,43.32,11,46v.1h0c.11.57.28,1.23,1.18,1.25l1,0,5.1.11,1,0c.9,0,1.1-.63,1.23-1.2h0v-.09l.06-2.66.07-3.39C20.45,39.55,20.31,38.81,19.35,38.79Z"/><path class="cls-14" d="M19.52,44.52h-.23l-1.17,0h-.23c-.22,0-.26.16-.29.3v.78l0,.61v0h0c0,.14.06.29.27.3h.22l1.18,0h.22c.21,0,.26-.15.29-.28h0v-.63l0-.79C19.77,44.69,19.74,44.52,19.52,44.52Z"/><path class="cls-2" d="M19.4,44.62h-.19l-1,0H18c-.19,0-.22.14-.25.25v.68l0,.53v0h0c0,.12.05.25.23.25h.2l1,0h.2c.18,0,.22-.12.24-.24h0V44.88C19.62,44.77,19.59,44.62,19.4,44.62Z"/><path class="cls-8" d="M19.26,44.74H19.1l-.81,0h-.15c-.15,0-.18,0-.2.08v.35h0s0,.08.19.08h.15l.82,0h.15c.14,0,.17,0,.19-.06h0v-.35S19.41,44.74,19.26,44.74Z"/><path class="cls-8" d="M19.34,39.46h-.43l-2.29-.05H15.27l-2.3,0h-.43c-.43,0-.5.2-.56.37l0,1v.79h0c.05.16.13.35.54.36h.43l2.3,0h1.34l2.3,0h.43c.4,0,.49-.18.55-.35h0v-.8l0-1C19.84,39.68,19.77,39.46,19.34,39.46Z"/><path class="cls-14" d="M17.13,44.47h-.22l-1.18,0H15.5c-.22,0-.26.17-.29.3v.79l0,.61v0h0c0,.14.06.29.27.29h.22l1.18,0h.22c.21,0,.26-.15.29-.28h0v0l0-.62v-.78C17.38,44.64,17.35,44.47,17.13,44.47Z"/><path class="cls-2" d="M17,44.57h-.19l-1,0h-.19c-.19,0-.22.15-.25.26V46h0c0,.12.05.25.23.25h.2l1,0H17c.18,0,.22-.13.24-.24h0V44.83C17.23,44.72,17.21,44.57,17,44.57Z"/><path class="cls-8" d="M16.87,44.69h-.15l-.82,0h-.15c-.15,0-.18,0-.2.07v.35h0s0,.07.19.08h.15l.82,0h.15c.14,0,.17,0,.19-.06h0v-.35S17,44.69,16.87,44.69Z"/><path class="cls-4" d="M16.76,43.18a.5.5,0,0,1-.51.49h0a.49.49,0,0,1-.48-.51h0a.48.48,0,0,1,.5-.48h0a.49.49,0,0,1,.49.5Z"/><path class="cls-4" d="M18.13,43.21a.49.49,0,0,1-.5.49h0a.5.5,0,0,1-.49-.51h0a.49.49,0,0,1,.51-.48h0a.48.48,0,0,1,.48.5Z"/><path class="cls-4" d="M19.51,43.24a.5.5,0,0,1-.51.49h0a.51.51,0,0,1-.49-.51h0a.52.52,0,0,1,.51-.49h0a.51.51,0,0,1,.49.51Z"/><rect class="cls-4" x="11.28" y="43.01" width="4.12" height="2.86" transform="translate(-31.38 56.82) rotate(-88.77)"/><rect class="cls-2" x="12.16" y="42.72" width="0.75" height="0.75" transform="translate(-30.79 54.79) rotate(-88.89)"/><polygon class="cls-2" points="13.73 43.49 12.98 43.48 13 42.73 13.75 42.75 13.73 43.49"/><rect class="cls-2" x="13.82" y="42.75" width="0.75" height="0.75" transform="translate(-29.24 56.34) rotate(-88.7)"/><polygon class="cls-2" points="12.88 44.36 12.13 44.34 12.15 43.59 12.9 43.61 12.88 44.36"/><polygon class="cls-2" points="13.71 44.37 12.96 44.36 12.98 43.61 13.73 43.63 13.71 44.37"/><rect class="cls-2" x="13.8" y="43.63" width="0.75" height="0.75" transform="translate(-30.12 57.27) rotate(-88.81)"/><polygon class="cls-2" points="12.86 45.25 12.11 45.23 12.13 44.49 12.88 44.5 12.86 45.25"/><polygon class="cls-2" points="13.69 45.27 12.94 45.25 12.96 44.51 13.71 44.52 13.69 45.27"/><rect class="cls-2" x="13.78" y="44.53" width="0.75" height="0.75" transform="translate(-31.06 58.04) rotate(-88.7)"/><rect class="cls-2" x="12.1" y="45.38" width="0.75" height="0.75" transform="translate(-33.54 57.19) rotate(-88.7)"/><rect class="cls-2" x="12.93" y="45.39" width="0.75" height="0.75" transform="translate(-32.68 58.28) rotate(-89.01)"/><rect class="cls-2" x="13.76" y="45.41" width="0.75" height="0.75" transform="translate(-31.94 58.95) rotate(-88.78)"/><path class="cls-23" d="M19.27,39.76h-.33l-1.74,0h-1l-1.75,0h-.32c-.33,0-.39.15-.43.28v.75l0,.58v0h0c0,.13.1.28.4.28h.33l1.75,0h1l1.74,0h.33c.31,0,.37-.13.42-.26h0v-.6l0-.75A.36.36,0,0,0,19.27,39.76Z"/><path class="cls-24" d="M16.47,40.66a9.28,9.28,0,0,0,2.23-.22,4.76,4.76,0,0,0,.79-.24v-.1c0-.13-.08-.28-.39-.28l-4.83-.11c-.31,0-.36.15-.4.27v.13A4.26,4.26,0,0,0,16.47,40.66Z"/><path class="cls-25" d="M14.68,64.62a2.66,2.66,0,0,0-1.16-2c-1-.59-2.39.08-3.13.84a4,4,0,0,0-1,1.56,8.06,8.06,0,0,0-.24.84c-.08.2-.15.41-.23.61a13.2,13.2,0,0,0-.4,1.62,6.06,6.06,0,0,0-.12,2.71c.4,1.62,2.45,2,3.74,1.24a3.91,3.91,0,0,0,1.43-1.78A9.66,9.66,0,0,0,14,68.92c.13-.54.29-1.08.41-1.63A9.28,9.28,0,0,0,14.68,64.62Z"/><path class="cls-10" d="M12.88,66.13A3.47,3.47,0,0,0,14.47,64l0-.13a2.38,2.38,0,0,0-1-1.24c-1-.59-2.39.08-3.13.84a4,4,0,0,0-1,1.56c-.05.13-.09.27-.13.41A2.59,2.59,0,0,0,12.88,66.13Z"/><path class="cls-2" d="M10.87,67.88a5.24,5.24,0,0,0-2.33.2,6.16,6.16,0,0,0-.11,2.7c.4,1.62,2.45,2,3.74,1.24a3.91,3.91,0,0,0,1.43-1.78,7.91,7.91,0,0,0,.33-1A5.37,5.37,0,0,0,10.87,67.88Z"/><path class="cls-4" d="M14.68,64.62a2.66,2.66,0,0,0-1.16-2,1.58,1.58,0,0,0-.5-.18,2.48,2.48,0,0,1,1.17,1.49,6.9,6.9,0,0,1-.45,4.1,4.76,4.76,0,0,1-2.83,3.3,2.13,2.13,0,0,1-2.05-.2,1.94,1.94,0,0,1-.52-.91,2.91,2.91,0,0,0,.09.58c.4,1.62,2.45,2,3.74,1.24a3.91,3.91,0,0,0,1.43-1.78A9.66,9.66,0,0,0,14,68.92c.13-.54.29-1.08.41-1.63A9.28,9.28,0,0,0,14.68,64.62Z"/><path class="cls-4" d="M12.26,65.86a2.56,2.56,0,0,0,1.46-1.22,2.74,2.74,0,0,0,.2-.73.59.59,0,0,0,0-.13c-1-4.82-1.53-4.9-.74-6.57s2.16-4.16,1.76-4.76c-1.31-1.94-4.72-3.14-4.72-3.14s-1.31-.26-1.64.17S5.79,55.14,6.31,58c.41,2.32,2.39,6,3.16,7.34A2.47,2.47,0,0,0,12.26,65.86Z"/><path class="cls-2" d="M8.56,58.52A1.69,1.69,0,0,0,10.3,56.6c-.3-1.45-2.37-2.35-3.75-1.81A8.35,8.35,0,0,0,6.31,58v0A4.81,4.81,0,0,0,8.56,58.52Z"/><path class="cls-6" d="M7.85,57.91a1.17,1.17,0,0,0,1.21-1.33,2.07,2.07,0,0,0-2.6-1.25,5.7,5.7,0,0,0-.17,2.24h0A3.3,3.3,0,0,0,7.85,57.91Z"/><path class="cls-2" d="M10.14,53.83A7,7,0,0,1,13.73,56c.73-1.48,1.51-3.12,1.19-3.59-1.31-1.94-4.72-3.14-4.72-3.14s-1.31-.26-1.64.17a22.18,22.18,0,0,0-1.73,4.23A5.58,5.58,0,0,1,10.14,53.83Z"/><path class="cls-2" d="M9.79,61.19a4.38,4.38,0,0,0,2.18-.8,4.71,4.71,0,0,0,.94-.83,3.05,3.05,0,0,1-.07-1.51,7.94,7.94,0,0,1-3.57.78,5.15,5.15,0,0,1-2.93-.63,13.28,13.28,0,0,0,.6,1.95A3.38,3.38,0,0,0,9.79,61.19Z"/><path class="cls-16" d="M9.85,59.32a5.49,5.49,0,0,0,3-1.2s0,0,0-.07a7.94,7.94,0,0,1-3.57.78,5.15,5.15,0,0,1-2.93-.63c0,.22.11.46.18.7A5.88,5.88,0,0,0,9.85,59.32Z"/><path class="cls-12" d="M13.16,57.21c.8-1.67,2.16-4.16,1.76-4.76-1.31-1.94-4.72-3.14-4.72-3.14a4.7,4.7,0,0,0-1-.07,2.59,2.59,0,0,1,.52.12,5.67,5.67,0,0,1,1.66,1,3.07,3.07,0,0,1,1.06,1.36c.24.93-.43,2-.82,2.78a10.05,10.05,0,0,0-1.12,3.57,8.06,8.06,0,0,0,.81,3.47c.23.54.47,1.07.71,1.61a8.85,8.85,0,0,1,.55,1.31A1.26,1.26,0,0,1,11.9,66a2.53,2.53,0,0,0,.36-.12,2.56,2.56,0,0,0,1.46-1.22,2.74,2.74,0,0,0,.2-.73.59.59,0,0,0,0-.13C12.88,59,12.37,58.88,13.16,57.21Z"/><path class="cls-26" d="M9,49.72s-2.85,5.7-2.45,8.06,3.17,7.34,3.17,7.34S7,59.46,6.91,57.26s3.36-6.9,3.36-6.9Z"/><path class="cls-16" d="M12.53,67.43h-.08a4.14,4.14,0,0,0-3.14-.15.24.24,0,0,1-.23-.43,4.53,4.53,0,0,1,3.54.12.25.25,0,0,1,.15.31A.26.26,0,0,1,12.53,67.43Z"/><path class="cls-16" d="M12.38,68.51h-.09A4.21,4.21,0,0,0,9,68.23a.25.25,0,0,1-.33-.11.25.25,0,0,1,.11-.33,4.76,4.76,0,0,1,3.71.25.25.25,0,0,1,.13.32A.23.23,0,0,1,12.38,68.51Z"/><path class="cls-25" d="M16.13,67.33c.09.55.23,1.09.34,1.65a8.74,8.74,0,0,0,.37,1.33,3.74,3.74,0,0,0,1.35,1.83c1.25.83,3.32.53,3.79-1.07a6.2,6.2,0,0,0,0-2.71,13.26,13.26,0,0,0-.34-1.64c-.07-.2-.13-.41-.2-.62s-.12-.57-.2-.85a4.19,4.19,0,0,0-.91-1.6c-.7-.78-2-1.52-3.09-1a2.62,2.62,0,0,0-1.24,2A8.7,8.7,0,0,0,16.13,67.33Z"/><path class="cls-10" d="M17.73,66.23A3.51,3.51,0,0,1,16.23,64s0-.08,0-.13a2.34,2.34,0,0,1,1-1.18c1.05-.56,2.39.18,3.09,1a4.19,4.19,0,0,1,.91,1.6c0,.14.07.28.11.42A2.59,2.59,0,0,1,17.73,66.23Z"/><path class="cls-2" d="M19.67,68.07a5.33,5.33,0,0,1,2.31.3,6.15,6.15,0,0,1,0,2.7c-.47,1.6-2.54,1.9-3.79,1.07a3.74,3.74,0,0,1-1.35-1.83,6.63,6.63,0,0,1-.29-1A5.35,5.35,0,0,1,19.67,68.07Z"/><path class="cls-4" d="M16,64.64a2.62,2.62,0,0,1,1.24-2,1.34,1.34,0,0,1,.51-.17A2.48,2.48,0,0,0,16.51,64a6.9,6.9,0,0,0,.28,4.11,4.72,4.72,0,0,0,2.68,3.42,2.12,2.12,0,0,0,2.06-.11,1.86,1.86,0,0,0,.56-.89,3.71,3.71,0,0,1-.11.58c-.47,1.6-2.54,1.9-3.79,1.07a3.74,3.74,0,0,1-1.35-1.83A8.74,8.74,0,0,1,16.47,69c-.11-.56-.25-1.1-.34-1.65A8.7,8.7,0,0,1,16,64.64Z"/><path class="cls-4" d="M18.36,66A2.55,2.55,0,0,1,17,64.71a2.76,2.76,0,0,1-.18-.74l0-.13c1.22-4.77,1.74-4.83,1-6.53s-2-4.25-1.55-4.84c1.39-1.87,4.84-2.93,4.84-2.93s1.32-.2,1.64.25,2.52,5.77,1.88,8.63c-.51,2.29-2.65,5.87-3.47,7.2A2.5,2.5,0,0,1,18.36,66Z"/><path class="cls-2" d="M22.37,58.82a1.71,1.71,0,0,1-1.66-2c.37-1.44,2.48-2.24,3.83-1.65a8.41,8.41,0,0,1,.1,3.25h0A5,5,0,0,1,22.37,58.82Z"/><path class="cls-6" d="M23.1,58.24A1.17,1.17,0,0,1,22,56.86a2.07,2.07,0,0,1,2.65-1.15A6,6,0,0,1,24.68,58v0A3.47,3.47,0,0,1,23.1,58.24Z"/><path class="cls-2" d="M21,54.06a7,7,0,0,0-3.68,2.06c-.67-1.52-1.37-3.18-1-3.65,1.39-1.87,4.84-2.93,4.84-2.93s1.32-.2,1.64.25a21.23,21.23,0,0,1,1.54,4.3A5.58,5.58,0,0,0,21,54.06Z"/><path class="cls-2" d="M21,61.43a4.45,4.45,0,0,1-2.15-.89,4.84,4.84,0,0,1-.89-.87,3.23,3.23,0,0,0,.12-1.5,7.9,7.9,0,0,0,3.54.92,5.15,5.15,0,0,0,3-.5,13.56,13.56,0,0,1-.68,1.92A3.37,3.37,0,0,1,21,61.43Z"/><path class="cls-16" d="M21,59.56a5.41,5.41,0,0,1-2.92-1.33.13.13,0,0,0,0-.06,7.9,7.9,0,0,0,3.54.92,5.15,5.15,0,0,0,3-.5c-.05.22-.12.45-.2.69A5.86,5.86,0,0,1,21,59.56Z"/><path class="cls-12" d="M17.83,57.31c-.73-1.71-2-4.25-1.55-4.84,1.39-1.87,4.84-2.93,4.84-2.93a4.33,4.33,0,0,1,1,0,1.91,1.91,0,0,0-.52.1,5.43,5.43,0,0,0-1.71,1,3,3,0,0,0-1.11,1.3c-.28.93.34,2,.69,2.82a9.89,9.89,0,0,1,1,3.61,8,8,0,0,1-1,3.44c-.25.53-.52,1-.77,1.57a8,8,0,0,0-.61,1.29,1.24,1.24,0,0,0,.6,1.52,2.48,2.48,0,0,1-.35-.13A2.55,2.55,0,0,1,17,64.71a2.76,2.76,0,0,1-.18-.74l0-.13C18,59.07,18.55,59,17.83,57.31Z"/><path class="cls-26" d="M22.32,50s2.6,5.81,2.1,8.16-3.48,7.19-3.48,7.19,2.92-5.54,3.13-7.73-3.06-7-3.06-7Z"/><path class="cls-16" d="M18,67.55h.08a4.15,4.15,0,0,1,3.15,0,.25.25,0,0,0,.33-.09.25.25,0,0,0-.08-.34,4.62,4.62,0,0,0-3.54,0,.26.26,0,0,0-.17.31A.26.26,0,0,0,18,67.55Z"/><path class="cls-16" d="M18.13,68.64l.09,0a4.21,4.21,0,0,1,3.3-.12.27.27,0,0,0,.34-.09.26.26,0,0,0-.1-.34,4.69,4.69,0,0,0-3.71.09.27.27,0,0,0-.15.32A.26.26,0,0,0,18.13,68.64Z"/><path class="cls-8" d="M10,47.7s-.47-6.27,0-8.56c0,0,.2-1.19.89-1.39a21.15,21.15,0,0,1,4.11.33l-3.49.06s-.92,0-1.13,1.44S10.31,41,10,47.7Z"/><path class="cls-8" d="M21.15,47.94s.73-6.24.36-8.55c0,0-.15-1.2-.83-1.43a21.15,21.15,0,0,0-4.12.15l3.48.21s.92.08,1.07,1.49S21.14,41.22,21.15,47.94Z"/></g></g></svg>