<svg xmlns="http://www.w3.org/2000/svg" xmlns:xlink="http://www.w3.org/1999/xlink" viewBox="0 0 36.72 79.29"><defs><style>.cls-1{isolation:isolate;}.cls-10,.cls-11,.cls-2,.cls-6,.cls-8{fill:#ebebec;}.cls-13,.cls-3,.cls-4,.cls-7{fill:#d9d9db;}.cls-11,.cls-13,.cls-14,.cls-17,.cls-19,.cls-22,.cls-4,.cls-7,.cls-9{mix-blend-mode:multiply;}.cls-5{fill:#818386;}.cls-10,.cls-20,.cls-21,.cls-24,.cls-6{mix-blend-mode:screen;}.cls-7,.cls-8{opacity:0.6;}.cls-17,.cls-9{fill:#c9cacc;}.cls-10,.cls-13,.cls-17{opacity:0.5;}.cls-12{fill:#d3d4d5;}.cls-14{fill:#c7c8ca;}.cls-15{fill:#2a416f;}.cls-16{fill:#fff;}.cls-18{fill:url(#radial-gradient);}.cls-19{fill:url(#radial-gradient-2);}.cls-20{fill:url(#radial-gradient-3);}.cls-21{fill:url(#radial-gradient-4);}.cls-22{fill:#c6c8d0;}.cls-23{fill:url(#linear-gradient);}.cls-24{fill:#6b6c6f;}.cls-25{fill:#bebfc1;}</style><radialGradient id="radial-gradient" cx="457.02" cy="-22.99" r="7.06" gradientTransform="translate(-425.24 54.32) scale(0.96)" gradientUnits="userSpaceOnUse"><stop offset="0.15" stop-color="#21687e"/><stop offset="0.49" stop-color="#023f5f"/><stop offset="0.98"/></radialGradient><radialGradient id="radial-gradient-2" cx="458.68" cy="-31.19" r="14.1" gradientTransform="translate(-425.24 54.32) scale(0.96)" gradientUnits="userSpaceOnUse"><stop offset="0.28" stop-color="#21687e"/><stop offset="0.42" stop-color="#0d3b59"/><stop offset="0.59" stop-color="#05294a"/><stop offset="0.71" stop-color="#031b31"/><stop offset="0.9" stop-color="#01070d"/><stop offset="1"/></radialGradient><radialGradient id="radial-gradient-3" cx="452.49" cy="-27.24" r="8.86" gradientTransform="translate(-425.24 54.32) scale(0.96)" gradientUnits="userSpaceOnUse"><stop offset="0.29" stop-color="#fff"/><stop offset="0.69" stop-color="#6c6c6c"/><stop offset="1"/></radialGradient><radialGradient id="radial-gradient-4" cx="452.49" cy="-27.24" r="8.86" xlink:href="#radial-gradient-3"/><linearGradient id="linear-gradient" x1="294.45" y1="40.25" x2="294.45" y2="43.75" gradientTransform="translate(-276.36)" xlink:href="#radial-gradient"/></defs><g class="cls-1"><g id="Layer_1" data-name="Layer 1"><path class="cls-2" d="M6.36,33.9a3,3,0,0,0-.82-.75A5.33,5.33,0,0,0,4.39,34a3,3,0,0,0-1,2,22.54,22.54,0,0,0,5.77,6l2.55-3.61A21.51,21.51,0,0,1,6.36,33.9Z"/><path class="cls-3" d="M6.36,33.9a3,3,0,0,0-.82-.75A5.33,5.33,0,0,0,4.39,34a3.19,3.19,0,0,0-1,1.73,1.7,1.7,0,0,0,.5.79A2.65,2.65,0,0,0,5.47,37,5.22,5.22,0,0,1,8,39.79a7.8,7.8,0,0,0,.12,1.41c.62.5,1,.78,1,.78l2.55-3.61A21.51,21.51,0,0,1,6.36,33.9Z"/><path class="cls-4" d="M5.84,36.86a2.51,2.51,0,0,0,1.79-1.59A13.83,13.83,0,0,1,6.36,33.9a3,3,0,0,0-.82-.75A5.33,5.33,0,0,0,4.39,34a3.19,3.19,0,0,0-1,1.73,1.62,1.62,0,0,0,.44.73A2.33,2.33,0,0,0,5.84,36.86Z"/><path class="cls-5" d="M8.44,36l.2.18a8.69,8.69,0,0,1-2.37,3.37l-.36-.36A7.76,7.76,0,0,0,8.44,36Z"/><path class="cls-2" d="M13.11,42.79A9.1,9.1,0,0,1,9,42.64c-1.75-.62-.15-6.52,1.6-5.52S13.63,42.71,13.11,42.79Z"/><path class="cls-6" d="M10.35,42.74s-1.4.15-1.83-.87.1-2.67.5-3.57c0,0-.73,2.1-.36,3.13A2.44,2.44,0,0,0,10.35,42.74Z"/><path class="cls-3" d="M3.74,30.73a2.6,2.6,0,0,0,1.16.83,2.41,2.41,0,0,0,1.54.14,2.16,2.16,0,0,0,.62-.41c.08,1.62.12,3.54.12,3.54a2.43,2.43,0,0,1-2.47,2.08,2.13,2.13,0,0,1-1.64-1.78,15.23,15.23,0,0,1,.53-4.57Z"/><path class="cls-2" d="M5.32,32v-.26l-.42-.13a2.69,2.69,0,0,1-1.14-.8c0,.11-.07.23-.1.36A2.11,2.11,0,0,0,5.32,32Z"/><path class="cls-2" d="M3.57,31.47a14.12,14.12,0,0,0-.41,3.15,1.83,1.83,0,0,0,1.06,1.77c.81.31,1.06,0,1.06,0l0-4.19A2.51,2.51,0,0,1,3.57,31.47Z"/><path class="cls-3" d="M8.14,27.69a1,1,0,0,0-.89.34,4.84,4.84,0,0,0-.61.88,7.88,7.88,0,0,1-.4-2.12c0-.26,0-.52,0-.77a1,1,0,0,0-.14-.52c-.33-.26-.57-.22-.71.11h0a2.5,2.5,0,0,0-.11.49,1.93,1.93,0,0,0-.06.49,1.41,1.41,0,0,0,0,.18s0,0,0,.07a15,15,0,0,0-.27-1.63.37.37,0,0,0-.65-.09,1.92,1.92,0,0,0-.33,1.28c-.07-.2-.14-.4-.19-.6s-.35-.57-.66-.34a1,1,0,0,0-.34,1.06.43.43,0,0,0,0,.11.42.42,0,0,0-.33-.17c-.57,0-.53.62-.5,1a5.57,5.57,0,0,0,1,2.8A5.14,5.14,0,0,0,4,31.55a2.67,2.67,0,0,0,2.94.15c.63-.47.67-1.27.83-2A5,5,0,0,1,8,29a2.93,2.93,0,0,0,.36-1A.27.27,0,0,0,8.14,27.69Z"/><path class="cls-7" d="M8.28,27.76c-.72-.08-1.16.94-1.49,1.4a1.76,1.76,0,0,0-.28,2c.07.17-.17.31-.25.14A2,2,0,0,1,6,29.87a4.42,4.42,0,0,1,.6-1,7.76,7.76,0,0,1-.39-2.08c0-.26,0-.52,0-.77a1.15,1.15,0,0,0,0-.26,0,0,0,0,1,0,0c-.14-.38-.44,0-.5.17s-.2.35-.25.54-.14,1-.17.88-.07-.34-.1-.51v0c-.11-.51-.11-1-.24-1.54-.34-.31-.7.1-.75.42s-.13,1-.18.88a2.25,2.25,0,0,1-.08-.24v0c-.07-.2-.14-.4-.19-.6a.65.65,0,0,0-.25-.37c-.68.09-.5,1.47-.57,1.38s-.11-.13-.16-.19h0a.42.42,0,0,0-.33-.17l-.14,0c-.65.48.4,2.74.65,3.21a4.69,4.69,0,0,0,1.59,1.91,3,3,0,0,0,1.51.43,1.91,1.91,0,0,0,.87-.35c.63-.47.67-1.27.83-2A5,5,0,0,1,8,29a2.93,2.93,0,0,0,.36-1A.29.29,0,0,0,8.28,27.76Z"/><path class="cls-7" d="M6.1,27a6,6,0,0,0,.33,2.11l.2-.28a7.76,7.76,0,0,1-.39-2.08c0-.26,0-.52,0-.77a1,1,0,0,0,0-.24C6.23,26.2,6.1,26.64,6.1,27Z"/><path class="cls-8" d="M5.52,28.63c-.27-.24-.64-.11-.93-.05s-.41.18-.56.23a1.07,1.07,0,0,0-.71.58c-.06.16.09.32.25.36a2.19,2.19,0,0,0,.51,0,1.71,1.71,0,0,0,.82-.31,1.81,1.81,0,0,0,.63-.6C5.59,28.75,5.57,28.68,5.52,28.63Z"/><path class="cls-7" d="M7.92,28.7a8,8,0,0,0-.47,2,2.82,2.82,0,0,1-.33.82,3.71,3.71,0,0,0,.63-1.8A5,5,0,0,1,8,29a2.93,2.93,0,0,0,.36-1v-.06A3.69,3.69,0,0,1,7.92,28.7Z"/><path class="cls-9" d="M5.69,28.35h0a6.46,6.46,0,0,1-.47-1.49l0,.15a4.09,4.09,0,0,0,.44,1.33,2.55,2.55,0,0,0-1,.13,18.64,18.64,0,0,1-.71-2.19s0,.06,0,.09a2.42,2.42,0,0,0,.07.47c0,.14.07.27.1.4a8.68,8.68,0,0,0,.48,1.25h0a5.29,5.29,0,0,0-.9.35,7.76,7.76,0,0,1-.44-1.31,2.13,2.13,0,0,0-.36-.86l-.12-.07a2.44,2.44,0,0,1,.49,1.25,4.31,4.31,0,0,0,.37,1,1.14,1.14,0,0,0-.25.18A4.93,4.93,0,0,1,5.69,28.35Z"/><path class="cls-9" d="M6.69,28.79a3.74,3.74,0,0,0-.77,1.3,1.36,1.36,0,0,0,.28,1.18s0,0,0,0h0s0,0,0,0A5,5,0,0,1,6,30.21c0-.54.49-1,.74-1.41C6.74,28.78,6.7,28.78,6.69,28.79Z"/><path class="cls-10" d="M4.2,36.91a23.89,23.89,0,0,0,3.63,3.82,1,1,0,0,0-.2-.75c-.28-.41-2.31-2.57-2.31-2.57Z"/><path class="cls-2" d="M5.71,32a2.44,2.44,0,0,1-1.49-.63,5.59,5.59,0,0,1-1-1.2,5.22,5.22,0,0,1-1-3.46h0A4.89,4.89,0,0,0,3,30.12,3.31,3.31,0,0,0,5.7,32S5.74,32,5.71,32Z"/><path class="cls-2" d="M28,33.9a2.87,2.87,0,0,1,.83-.75A5.51,5.51,0,0,1,30,34a3,3,0,0,1,1,2,22.54,22.54,0,0,1-5.77,6l-2.54-3.61A21.64,21.64,0,0,0,28,33.9Z"/><path class="cls-3" d="M28,33.9a2.87,2.87,0,0,1,.83-.75A5.51,5.51,0,0,1,30,34a3.19,3.19,0,0,1,1,1.73,1.7,1.7,0,0,1-.5.79,2.65,2.65,0,0,1-1.56.49,5.22,5.22,0,0,0-2.54,2.76,7.8,7.8,0,0,1-.12,1.41c-.62.5-1,.78-1,.78l-2.54-3.61A21.64,21.64,0,0,0,28,33.9Z"/><path class="cls-4" d="M28.52,36.86a2.51,2.51,0,0,1-1.79-1.59A13.83,13.83,0,0,0,28,33.9a2.87,2.87,0,0,1,.83-.75A5.51,5.51,0,0,1,30,34a3.19,3.19,0,0,1,1,1.73,1.62,1.62,0,0,1-.44.73A2.33,2.33,0,0,1,28.52,36.86Z"/><path class="cls-5" d="M25.93,36l-.21.18a8.69,8.69,0,0,0,2.37,3.37l.36-.36A7.66,7.66,0,0,1,25.93,36Z"/><path class="cls-2" d="M21.25,42.79a9.1,9.1,0,0,0,4.12-.15c1.75-.62.15-6.52-1.6-5.52S20.73,42.71,21.25,42.79Z"/><path class="cls-6" d="M24,42.74s1.39.15,1.82-.87-.1-2.67-.5-3.57c0,0,.74,2.1.36,3.13A2.43,2.43,0,0,1,24,42.74Z"/><path class="cls-3" d="M30.62,30.73a2.6,2.6,0,0,1-1.16.83,2.41,2.41,0,0,1-1.54.14,2.16,2.16,0,0,1-.62-.41c-.08,1.62-.12,3.54-.12,3.54a2.43,2.43,0,0,0,2.47,2.08,2.13,2.13,0,0,0,1.64-1.78,15.23,15.23,0,0,0-.53-4.57Z"/><path class="cls-2" d="M29,32v-.26l.42-.13a2.69,2.69,0,0,0,1.14-.8,3.1,3.1,0,0,1,.1.36A2.11,2.11,0,0,1,29,32Z"/><path class="cls-2" d="M30.79,31.47a14.12,14.12,0,0,1,.41,3.15,1.83,1.83,0,0,1-1.06,1.77c-.8.31-1.06,0-1.06,0l0-4.19A2.51,2.51,0,0,0,30.79,31.47Z"/><path class="cls-3" d="M26.22,27.69a1,1,0,0,1,.89.34,4.84,4.84,0,0,1,.61.88,8.37,8.37,0,0,0,.41-2.12c0-.26,0-.52,0-.77a.94.94,0,0,1,.13-.52c.33-.26.57-.22.72.11h0a3.51,3.51,0,0,1,.12.49,3.65,3.65,0,0,1,.06.49c0,.07,0,.13,0,.18a.2.2,0,0,1,0,.07c.11-.54.11-1.1.27-1.63a.38.38,0,0,1,.66-.09,2,2,0,0,1,.32,1.28c.07-.2.14-.4.19-.6s.35-.57.66-.34a1,1,0,0,1,.35,1.06l0,.11a.42.42,0,0,1,.34-.17c.57,0,.53.62.5,1a5.59,5.59,0,0,1-1,2.8,5.14,5.14,0,0,1-1.07,1.25,2.67,2.67,0,0,1-2.94.15c-.63-.47-.67-1.27-.83-2a5,5,0,0,0-.25-.77A2.93,2.93,0,0,1,26,28,.27.27,0,0,1,26.22,27.69Z"/><path class="cls-7" d="M26.08,27.76c.72-.08,1.16.94,1.5,1.4a1.78,1.78,0,0,1,.27,2c-.07.17.18.31.25.14a2,2,0,0,0,.24-1.45,4.87,4.87,0,0,0-.61-1,8.27,8.27,0,0,0,.4-2.08c0-.26,0-.52,0-.77a.77.77,0,0,1,0-.26,0,0,0,0,1,0,0c.13-.38.43,0,.49.17s.2.35.25.54.14,1,.17.88.07-.34.1-.51v0c.11-.51.11-1,.24-1.54.34-.31.7.1.75.42s.13,1,.19.88a2.17,2.17,0,0,0,.07-.24v0c.07-.2.14-.4.19-.6a.65.65,0,0,1,.25-.37c.68.09.5,1.47.57,1.38s.11-.13.16-.19h0a.42.42,0,0,1,.34-.17l.13,0c.65.48-.4,2.74-.65,3.21a4.69,4.69,0,0,1-1.59,1.91,3,3,0,0,1-1.51.43,1.91,1.91,0,0,1-.87-.35c-.63-.47-.67-1.27-.83-2a5,5,0,0,0-.25-.77A2.93,2.93,0,0,1,26,28,.29.29,0,0,1,26.08,27.76Z"/><path class="cls-7" d="M28.26,27a6,6,0,0,1-.33,2.11l-.2-.28a8.27,8.27,0,0,0,.4-2.08c0-.26,0-.52,0-.77a1,1,0,0,1,0-.24C28.13,26.2,28.26,26.64,28.26,27Z"/><path class="cls-8" d="M28.85,28.63c.27-.24.63-.11.92-.05s.41.18.56.23a1,1,0,0,1,.71.58c.06.16-.09.32-.25.36a2.19,2.19,0,0,1-.51,0,1.75,1.75,0,0,1-.82-.31,1.81,1.81,0,0,1-.63-.6C28.77,28.75,28.79,28.68,28.85,28.63Z"/><path class="cls-7" d="M26.44,28.7a7.57,7.57,0,0,1,.47,2,2.82,2.82,0,0,0,.33.82,3.71,3.71,0,0,1-.63-1.8,5,5,0,0,0-.25-.77A2.93,2.93,0,0,1,26,28a.13.13,0,0,1,0-.06A3.23,3.23,0,0,0,26.44,28.7Z"/><path class="cls-9" d="M28.67,28.35h0a6.46,6.46,0,0,0,.47-1.49l0,.15a4.09,4.09,0,0,1-.44,1.33,2.55,2.55,0,0,1,1,.13,18.64,18.64,0,0,0,.71-2.19s0,.06,0,.09a2.42,2.42,0,0,1-.07.47c0,.14-.07.27-.1.4a8.68,8.68,0,0,1-.48,1.25h0a5.7,5.7,0,0,1,.91.35,8.72,8.72,0,0,0,.43-1.31,2.13,2.13,0,0,1,.36-.86l.12-.07a2.44,2.44,0,0,0-.49,1.25,4.31,4.31,0,0,1-.37,1,1.14,1.14,0,0,1,.25.18A4.93,4.93,0,0,0,28.67,28.35Z"/><path class="cls-9" d="M27.67,28.79a3.74,3.74,0,0,1,.77,1.3,1.36,1.36,0,0,1-.28,1.18s0,0,0,0h0s0,0,0,0a5,5,0,0,0,.22-1.05c0-.54-.49-1-.74-1.41C27.63,28.78,27.66,28.78,27.67,28.79Z"/><path class="cls-10" d="M30.16,36.91a23.89,23.89,0,0,1-3.63,3.82,1,1,0,0,1,.2-.75C27,39.57,29,37.41,29,37.41Z"/><path class="cls-2" d="M28.65,32a2.44,2.44,0,0,0,1.49-.63,5.32,5.32,0,0,0,1-1.2,5.22,5.22,0,0,0,1-3.46h0a4.84,4.84,0,0,1-.83,3.44A3.3,3.3,0,0,1,28.66,32S28.63,32,28.65,32Z"/><path class="cls-2" d="M10.54,49.27A3.11,3.11,0,0,0,10,51.11c0,1.14,6,3.29,7.48,3.59s6.85-2.71,6.81-3.89-.22-1.69-.94-1.71S10.54,49.27,10.54,49.27Z"/><path class="cls-11" d="M11.15,51.74a18.58,18.58,0,0,1-.07-2.47h-.54A3.11,3.11,0,0,0,10,51.11c0,.32.49.73,1.21,1.15C11.2,52.08,11.17,51.91,11.15,51.74Z"/><path class="cls-11" d="M23.37,49.1H22.8a.09.09,0,0,1,0,0,9.86,9.86,0,0,1,.09,1.44c0,.63-.07,1.26-.11,1.9.9-.64,1.53-1.28,1.52-1.68C24.26,49.62,24.09,49.12,23.37,49.1Z"/><path class="cls-12" d="M24,37.59c-.51-1.39-5.23-1.42-5.23-1.42l-1.56,0-1.56,0s-4.72,0-5.24,1.42S10,49,10.58,49.8c.41.57,2.61,1.25,5,1.57.54.08,1,.08,1.59.11s1.14,0,1.68-.11c2.41-.32,4.61-1,5-1.57C24.51,49,24.55,39,24,37.59Z"/><path class="cls-2" d="M23.66,37.51c-.49-1.31-4.95-1.34-4.95-1.34l-1.47,0-1.48,0s-4.46,0-4.94,1.34-.45,10.75.12,11.53c.4.55,2.48,1.19,4.75,1.49.51.07,1,.07,1.5.1s1.08,0,1.59-.1c2.28-.3,4.35-.94,4.75-1.49C24.1,48.26,24.14,38.82,23.66,37.51Z"/><path class="cls-13" d="M17.53,50.63a8.54,8.54,0,0,1-5.33-1.51,6.61,6.61,0,0,1-2-2.61,10.7,10.7,0,0,0,.43,3.29c.41.57,2.61,1.25,5,1.57.54.08,1,.08,1.59.11s1.14,0,1.68-.11c2.41-.32,4.61-1,5-1.57a6.88,6.88,0,0,0,.36-2.24A8.82,8.82,0,0,1,17.53,50.63Z"/><path class="cls-9" d="M17.32,38.82a12.07,12.07,0,0,0,3.9-.77,5.18,5.18,0,0,0,2.08-1.14,13.81,13.81,0,0,0-4.5-.74l-1.56,0-1.56,0a14.54,14.54,0,0,0-4.34.67A8.5,8.5,0,0,0,17.32,38.82Z"/><path class="cls-2" d="M12.81,33.65A1.82,1.82,0,0,1,11,35.47h0a1.82,1.82,0,0,1-1.82-1.82V32.37A1.83,1.83,0,0,1,11,30.55h0a1.83,1.83,0,0,1,1.83,1.82Z"/><path class="cls-14" d="M12.62,33.59A1.63,1.63,0,0,1,11,35.23h0a1.64,1.64,0,0,1-1.64-1.64V32.44A1.64,1.64,0,0,1,11,30.8h0a1.63,1.63,0,0,1,1.64,1.64Z"/><path class="cls-15" d="M10.48,31.75a.37.37,0,0,1-.37.38.38.38,0,0,1,0-.75A.37.37,0,0,1,10.48,31.75Z"/><path class="cls-16" d="M10.14,31.62a.09.09,0,0,1-.1.1.1.1,0,0,1,0-.2A.09.09,0,0,1,10.14,31.62Z"/><circle class="cls-16" cx="9.9" cy="31.83" r="0.05"/><path class="cls-15" d="M10.41,33.32a.37.37,0,0,1-.37.37.38.38,0,0,1-.37-.37A.37.37,0,0,1,10,33,.36.36,0,0,1,10.41,33.32Z"/><path class="cls-16" d="M10.07,33.18a.1.1,0,0,1-.1.11.11.11,0,0,1-.1-.11.11.11,0,0,1,.1-.1A.1.1,0,0,1,10.07,33.18Z"/><circle class="cls-16" cx="9.83" cy="33.4" r="0.05"/><path class="cls-9" d="M11,30.55a1.77,1.77,0,0,0-.56.09,6.77,6.77,0,0,0-.24,2.5c0,.49.06,1,.12,1.49,0,.24.06.5.11.75a1.79,1.79,0,0,0,.57.09,1.82,1.82,0,0,0,1.83-1.82V32.37A1.83,1.83,0,0,0,11,30.55Z"/><path class="cls-2" d="M21.67,33.65a1.82,1.82,0,0,0,1.82,1.82h0a1.81,1.81,0,0,0,1.82-1.82V32.37a1.82,1.82,0,0,0-1.82-1.82h0a1.83,1.83,0,0,0-1.82,1.82Z"/><path class="cls-14" d="M21.85,33.59a1.64,1.64,0,0,0,1.64,1.64h0a1.63,1.63,0,0,0,1.64-1.64V32.44a1.63,1.63,0,0,0-1.64-1.64h0a1.64,1.64,0,0,0-1.64,1.64Z"/><path class="cls-15" d="M24,31.75a.38.38,0,0,0,.37.38.38.38,0,0,0,0-.75A.38.38,0,0,0,24,31.75Z"/><circle class="cls-16" cx="24.43" cy="31.62" r="0.1"/><path class="cls-16" d="M24.53,31.83a0,0,0,0,0,0,.05,0,0,0,0,0,0-.05,0,0,0,0,0,0,0A0,0,0,0,0,24.53,31.83Z"/><path class="cls-15" d="M24.06,33.32a.38.38,0,0,0,.37.37.37.37,0,0,0,.37-.37.36.36,0,0,0-.37-.37A.37.37,0,0,0,24.06,33.32Z"/><path class="cls-16" d="M24.4,33.18a.1.1,0,1,0,.2,0,.1.1,0,1,0-.2,0Z"/><path class="cls-16" d="M24.6,33.4a0,0,0,0,0,0,0,0,0,0,0,0,0,0,0,0,0,0,0,0,0A0,0,0,0,0,24.6,33.4Z"/><path class="cls-9" d="M23.49,30.55a1.69,1.69,0,0,1,.56.09,6.57,6.57,0,0,1,.25,2.5c0,.49-.07,1-.13,1.49,0,.24-.05.5-.1.75a1.85,1.85,0,0,1-.58.09,1.82,1.82,0,0,1-1.82-1.82V32.37A1.83,1.83,0,0,1,23.49,30.55Z"/><path class="cls-2" d="M18.06,25.16c-.28,0-.57-.05-.86-.06s-.59,0-.87.06a6.57,6.57,0,0,0-5.78,6.68c0,3.56.41,5,3.64,6a9.57,9.57,0,0,0,3.06.39,8.8,8.8,0,0,0,2.95-.39c3.23-1,3.64-2.47,3.64-6A6.57,6.57,0,0,0,18.06,25.16Z"/><path class="cls-3" d="M10.93,35.29c.44,1.23,1.37,2,3.26,2.58a9.57,9.57,0,0,0,3.06.39,8.8,8.8,0,0,0,2.95-.39c2-.64,2.93-1.44,3.34-2.82A19.08,19.08,0,0,0,10.93,35.29Z"/><path class="cls-17" d="M11.49,30.07c.25.08.3-.26.39-.45a9.87,9.87,0,0,1,.77-1.24,6.15,6.15,0,0,1,2-1.76,3.85,3.85,0,0,0-.55-.77,6.49,6.49,0,0,0-3.21,3.92A3,3,0,0,0,11.49,30.07Z"/><path class="cls-17" d="M21.86,28.48c.17.3.33.6.48.91h0l.78-.61a6.58,6.58,0,0,0-1.74-2.22c-.17.2-.35.39-.53.59A7.74,7.74,0,0,1,21.86,28.48Z"/><path class="cls-9" d="M22.77,32.2a5.44,5.44,0,0,1-5.57,5.3,5.31,5.31,0,1,1,0-10.6A5.44,5.44,0,0,1,22.77,32.2Z"/><path class="cls-18" d="M22.43,31.88a5.11,5.11,0,0,1-5.23,5,5,5,0,1,1,0-10A5.11,5.11,0,0,1,22.43,31.88Z"/><path class="cls-19" d="M21.86,29.63a4.2,4.2,0,0,1,.31,2.13,4.45,4.45,0,0,1-3.26,3.66A6.34,6.34,0,0,1,14.06,35c-2.13-1.27-2.31-3.84-1.26-5.82a4.77,4.77,0,0,0-.84,2.7,5.11,5.11,0,0,0,5.24,5,5.11,5.11,0,0,0,5.23-5A4.64,4.64,0,0,0,21.86,29.63Z"/><path class="cls-20" d="M12.68,32.87a5.06,5.06,0,0,0,.18.86,4.86,4.86,0,0,0,.25.67,8.36,8.36,0,0,0,.73.57,8.75,8.75,0,0,0,1.28.78,6.55,6.55,0,0,1-.87-2.26A14.23,14.23,0,0,1,12.68,32.87Z"/><path class="cls-21" d="M16.84,27.33a4.74,4.74,0,0,0-3.65,2.34,5.3,5.3,0,0,0-.57,2.52c.47.19,1,.34,1.45.48l.09,0a6.56,6.56,0,0,1,.07-1.33A4.9,4.9,0,0,1,16,28.24a5.85,5.85,0,0,1,1.84-.95A6.56,6.56,0,0,0,16.84,27.33Z"/><path class="cls-22" d="M20.89,40.1h-7.4c-1,0-1.17.77-1.29,1.39V48h0c.12.6.32,1.29,1.27,1.29h7.4c.95,0,1.15-.69,1.27-1.29h0V41.49C22.06,40.87,21.89,40.1,20.89,40.1Z"/><path class="cls-2" d="M20.72,40.24h-7c-.94,0-1.09.73-1.21,1.31v6.1h0c.12.56.3,1.21,1.19,1.21h7c.89,0,1.08-.65,1.19-1.21h0v-6.1C21.82,41,21.66,40.24,20.72,40.24Z"/><path class="cls-14" d="M21,45.92H19.39c-.22,0-.25.17-.28.31v1.41h0c0,.13.07.28.28.28H21c.21,0,.25-.15.28-.28h0V46.23C21.26,46.09,21.22,45.92,21,45.92Z"/><path class="cls-2" d="M20.89,46H19.5c-.19,0-.22.15-.24.26V47.5h0c0,.11.06.24.24.24h1.39c.18,0,.22-.13.24-.24h0V46.28C21.11,46.17,21.08,46,20.89,46Z"/><path class="cls-6" d="M20.75,46.15H19.64c-.15,0-.17,0-.19.07v.35h0s.05.07.19.07h1.11c.14,0,.17,0,.19-.07h0v-.35S20.9,46.15,20.75,46.15Z"/><path class="cls-6" d="M20.72,40.91H14c-.42,0-.49.21-.54.37v1.78h0c.05.16.13.35.53.35h6.75c.41,0,.49-.19.54-.35h0V41.28C21.22,41.12,21.15,40.91,20.72,40.91Z"/><path class="cls-14" d="M18.63,45.92H17c-.22,0-.26.17-.28.31v1.41h0c0,.13.07.28.28.28h1.61c.21,0,.25-.15.28-.28h0V46.23C18.89,46.09,18.85,45.92,18.63,45.92Z"/><path class="cls-2" d="M18.52,46H17.13c-.19,0-.22.15-.24.26V47.5h0c0,.11.06.24.24.24h1.39c.18,0,.22-.13.24-.24h0V46.28C18.74,46.17,18.71,46,18.52,46Z"/><path class="cls-6" d="M18.38,46.15H17.27c-.15,0-.18,0-.19.07v.35h0s.05.07.19.07h1.11c.14,0,.17,0,.19-.07h0v-.35S18.53,46.15,18.38,46.15Z"/><path class="cls-3" d="M18.24,44.66a.49.49,0,0,1-.49.49h0a.49.49,0,0,1-.5-.49h0a.49.49,0,0,1,.5-.49h0a.48.48,0,0,1,.49.49Z"/><path class="cls-3" d="M19.6,44.66a.49.49,0,0,1-.49.49h0a.49.49,0,0,1-.49-.49h0a.48.48,0,0,1,.49-.49h0a.48.48,0,0,1,.49.49Z"/><path class="cls-3" d="M21,44.66a.5.5,0,0,1-.5.49h0a.49.49,0,0,1-.49-.49h0a.48.48,0,0,1,.49-.49h0a.49.49,0,0,1,.5.49Z"/><rect class="cls-3" x="13.45" y="43.93" width="2.84" height="4.09"/><rect class="cls-2" x="13.67" y="44.29" width="0.74" height="0.74"/><rect class="cls-2" x="14.5" y="44.29" width="0.74" height="0.74"/><rect class="cls-2" x="15.32" y="44.29" width="0.74" height="0.74"/><rect class="cls-2" x="13.67" y="45.16" width="0.74" height="0.74"/><rect class="cls-2" x="14.5" y="45.16" width="0.74" height="0.74"/><rect class="cls-2" x="15.32" y="45.16" width="0.74" height="0.74"/><rect class="cls-2" x="13.67" y="46.05" width="0.74" height="0.74"/><rect class="cls-2" x="14.5" y="46.05" width="0.74" height="0.74"/><rect class="cls-2" x="15.32" y="46.05" width="0.74" height="0.74"/><rect class="cls-2" x="13.67" y="46.92" width="0.74" height="0.75"/><rect class="cls-2" x="14.5" y="46.92" width="0.74" height="0.75"/><rect class="cls-2" x="15.32" y="46.92" width="0.74" height="0.75"/><path class="cls-23" d="M20.66,41.21H15.53c-.32,0-.38.16-.41.29v1.34h0c0,.12.1.27.41.27h5.13c.3,0,.36-.15.4-.27h0V41.5C21,41.37,21,41.21,20.66,41.21Z"/><path class="cls-24" d="M17.9,42.16a9.67,9.67,0,0,0,2.21-.26,5.82,5.82,0,0,0,.77-.26v-.1c0-.12-.09-.27-.39-.27h-4.8c-.3,0-.35.15-.38.27v.13A4.26,4.26,0,0,0,17.9,42.16Z"/><path class="cls-25" d="M16.63,66a2.62,2.62,0,0,0-1.19-2c-1-.57-2.38.13-3.09.89a4.25,4.25,0,0,0-.93,1.57c-.09.28-.15.56-.22.84L11,67.9a13.07,13.07,0,0,0-.37,1.62,6.11,6.11,0,0,0-.06,2.69c.43,1.6,2.48,1.94,3.74,1.14a3.77,3.77,0,0,0,1.38-1.79,8.53,8.53,0,0,0,.38-1.31c.13-.54.28-1.08.38-1.63A9.14,9.14,0,0,0,16.63,66Z"/><path class="cls-11" d="M14.88,67.5a3.45,3.45,0,0,0,1.53-2.18.51.51,0,0,0,0-.13,2.39,2.39,0,0,0-1-1.2c-1-.57-2.38.13-3.09.89a4.25,4.25,0,0,0-.93,1.57c-.05.14-.08.28-.12.41A2.56,2.56,0,0,0,14.88,67.5Z"/><path class="cls-2" d="M12.92,69.28a5.24,5.24,0,0,0-2.3.25,6.06,6.06,0,0,0-.06,2.68c.43,1.6,2.48,1.94,3.74,1.14a3.77,3.77,0,0,0,1.38-1.79,6.41,6.41,0,0,0,.3-1A5.3,5.3,0,0,0,12.92,69.28Z"/><path class="cls-3" d="M16.63,66a2.62,2.62,0,0,0-1.19-2,1.88,1.88,0,0,0-.5-.18,2.51,2.51,0,0,1,1.19,1.46,6.9,6.9,0,0,1-.36,4.08A4.7,4.7,0,0,1,13,72.68a2.11,2.11,0,0,1-2-.15,2,2,0,0,1-.53-.9,3.7,3.7,0,0,0,.1.58c.43,1.6,2.48,1.94,3.74,1.14a3.77,3.77,0,0,0,1.38-1.79,8.53,8.53,0,0,0,.38-1.31c.13-.54.28-1.08.38-1.63A9.14,9.14,0,0,0,16.63,66Z"/><path class="cls-3" d="M14.26,67.25A2.52,2.52,0,0,0,15.67,66a2.67,2.67,0,0,0,.2-.72l0-.13c-1.11-4.76-1.62-4.83-.87-6.5s2-4.17,1.64-4.76c-1.34-1.9-4.74-3-4.74-3s-1.31-.22-1.63.21S7.61,56.75,8.18,59.6c.47,2.29,2.51,5.89,3.3,7.21A2.47,2.47,0,0,0,14.26,67.25Z"/><path class="cls-2" d="M10.43,60a1.68,1.68,0,0,0,1.69-1.94,3,3,0,0,0-3.76-1.71,8.33,8.33,0,0,0-.18,3.21v0A4.74,4.74,0,0,0,10.43,60Z"/><path class="cls-4" d="M9.71,59.46a1.17,1.17,0,0,0,1.18-1.35,2.07,2.07,0,0,0-2.61-1.19,5.76,5.76,0,0,0-.12,2.23h0A3.38,3.38,0,0,0,9.71,59.46Z"/><path class="cls-2" d="M11.9,55.36a7,7,0,0,1,3.61,2.12c.69-1.49,1.42-3.13,1.1-3.59-1.34-1.9-4.74-3-4.74-3s-1.31-.22-1.63.21a21.42,21.42,0,0,0-1.62,4.23A5.56,5.56,0,0,1,11.9,55.36Z"/><path class="cls-2" d="M11.7,62.66a4.27,4.27,0,0,0,2.16-.84,4.37,4.37,0,0,0,.9-.84,3.13,3.13,0,0,1-.09-1.49,7.93,7.93,0,0,1-3.53.84,5.1,5.1,0,0,1-2.92-.56,13.17,13.17,0,0,0,.64,1.93A3.31,3.31,0,0,0,11.7,62.66Z"/><path class="cls-16" d="M11.73,60.81a5.44,5.44,0,0,0,2.93-1.25s0-.05,0-.07a7.93,7.93,0,0,1-3.53.84,5.1,5.1,0,0,1-2.92-.56c0,.23.12.46.19.7A5.91,5.91,0,0,0,11.73,60.81Z"/><path class="cls-13" d="M15,58.65c.76-1.68,2-4.17,1.64-4.76-1.34-1.9-4.74-3-4.74-3a4.28,4.28,0,0,0-1,0,1.87,1.87,0,0,1,.51.11,5.54,5.54,0,0,1,1.68,1,3.05,3.05,0,0,1,1.07,1.32c.26.93-.38,2-.75,2.78a10,10,0,0,0-1,3.57A7.83,7.83,0,0,0,13.23,63c.23.53.48,1.05.73,1.57a8.72,8.72,0,0,1,.57,1.29,1.24,1.24,0,0,1-.62,1.5l.35-.12A2.52,2.52,0,0,0,15.67,66a2.67,2.67,0,0,0,.2-.72l0-.13C14.73,60.39,14.22,60.32,15,58.65Z"/><path class="cls-10" d="M10.67,51.31S8,57,8.41,59.36s3.3,7.2,3.3,7.2S8.93,61,8.77,58.83,12,51.91,12,51.91Z"/><path class="cls-16" d="M14.56,68.8h-.08a4.11,4.11,0,0,0-3.12-.08.25.25,0,0,1-.33-.09.24.24,0,0,1,.09-.33,4.51,4.51,0,0,1,3.51,0,.24.24,0,0,1,.16.3A.26.26,0,0,1,14.56,68.8Z"/><path class="cls-16" d="M14.43,69.88l-.09,0a4.2,4.2,0,0,0-3.28-.19.24.24,0,0,1-.22-.43,4.62,4.62,0,0,1,3.68.17.25.25,0,0,1,.14.31A.25.25,0,0,1,14.43,69.88Z"/><path class="cls-25" d="M18.13,68.62c.1.55.25,1.09.37,1.63a9.86,9.86,0,0,0,.39,1.31,3.77,3.77,0,0,0,1.38,1.79c1.26.8,3.3.46,3.74-1.14A6.11,6.11,0,0,0,24,69.52a13.07,13.07,0,0,0-.37-1.62l-.21-.61c-.07-.28-.13-.56-.22-.84a4.25,4.25,0,0,0-.93-1.57c-.72-.76-2.06-1.46-3.09-.89a2.59,2.59,0,0,0-1.19,2A8.5,8.5,0,0,0,18.13,68.62Z"/><path class="cls-11" d="M19.69,67.5a3.5,3.5,0,0,1-1.54-2.18.69.69,0,0,0,0-.13,2.41,2.41,0,0,1,1-1.2c1-.57,2.37.13,3.09.89a4.25,4.25,0,0,1,.93,1.57l.12.41A2.56,2.56,0,0,1,19.69,67.5Z"/><path class="cls-2" d="M21.65,69.28a5.24,5.24,0,0,1,2.3.25A6.06,6.06,0,0,1,24,72.21c-.44,1.6-2.48,1.94-3.74,1.14a3.77,3.77,0,0,1-1.38-1.79,6.41,6.41,0,0,1-.3-1A5.3,5.3,0,0,1,21.65,69.28Z"/><path class="cls-3" d="M17.94,66a2.59,2.59,0,0,1,1.19-2,1.88,1.88,0,0,1,.5-.18,2.48,2.48,0,0,0-1.19,1.46,6.89,6.89,0,0,0,.35,4.08,4.75,4.75,0,0,0,2.74,3.33,2.13,2.13,0,0,0,2-.15,2,2,0,0,0,.53-.9,3.7,3.7,0,0,1-.1.58c-.44,1.6-2.48,1.94-3.74,1.14a3.77,3.77,0,0,1-1.38-1.79,9.86,9.86,0,0,1-.39-1.31c-.12-.54-.27-1.08-.37-1.63A8.5,8.5,0,0,1,17.94,66Z"/><path class="cls-3" d="M20.31,67.25A2.57,2.57,0,0,1,18.89,66a2.64,2.64,0,0,1-.19-.72l0-.13c1.11-4.76,1.62-4.83.87-6.5S17.54,54.48,18,53.89c1.34-1.9,4.74-3,4.74-3s1.31-.22,1.63.21S27,56.75,26.38,59.6c-.46,2.29-2.5,5.89-3.29,7.21A2.47,2.47,0,0,1,20.31,67.25Z"/><path class="cls-2" d="M24.13,60a1.67,1.67,0,0,1-1.68-1.94,3,3,0,0,1,3.76-1.71,8.12,8.12,0,0,1,.17,3.21v0A4.75,4.75,0,0,1,24.13,60Z"/><path class="cls-4" d="M24.85,59.46a1.17,1.17,0,0,1-1.17-1.35,2.06,2.06,0,0,1,2.61-1.19,5.76,5.76,0,0,1,.12,2.23h0A3.4,3.4,0,0,1,24.85,59.46Z"/><path class="cls-2" d="M22.67,55.36a7,7,0,0,0-3.61,2.12c-.7-1.49-1.43-3.13-1.1-3.59,1.34-1.9,4.74-3,4.74-3s1.31-.22,1.63.21A21.42,21.42,0,0,1,26,55.31,5.56,5.56,0,0,0,22.67,55.36Z"/><path class="cls-2" d="M22.86,62.66a4.24,4.24,0,0,1-2.15-.84,4.37,4.37,0,0,1-.9-.84,3.13,3.13,0,0,0,.09-1.49,7.92,7.92,0,0,0,3.52.84,5.12,5.12,0,0,0,2.93-.56,14.48,14.48,0,0,1-.64,1.93A3.32,3.32,0,0,1,22.86,62.66Z"/><path class="cls-16" d="M22.84,60.81a5.44,5.44,0,0,1-2.93-1.25s0-.05,0-.07a7.92,7.92,0,0,0,3.52.84,5.12,5.12,0,0,0,2.93-.56c-.06.23-.12.46-.19.7A5.91,5.91,0,0,1,22.84,60.81Z"/><path class="cls-13" d="M19.6,58.65C18.84,57,17.54,54.48,18,53.89c1.34-1.9,4.74-3,4.74-3a4.28,4.28,0,0,1,1,0,1.87,1.87,0,0,0-.51.11,5.42,5.42,0,0,0-1.68,1,3.05,3.05,0,0,0-1.07,1.32c-.26.93.38,2,.75,2.78a10,10,0,0,1,1,3.57A7.83,7.83,0,0,1,21.34,63c-.24.53-.49,1.05-.73,1.57A7.79,7.79,0,0,0,20,65.87a1.23,1.23,0,0,0,.62,1.5,2.42,2.42,0,0,1-.35-.12A2.57,2.57,0,0,1,18.89,66a2.64,2.64,0,0,1-.19-.72l0-.13C19.84,60.39,20.35,60.32,19.6,58.65Z"/><path class="cls-10" d="M23.9,51.31s2.71,5.71,2.26,8-3.3,7.2-3.3,7.2S25.64,61,25.8,58.83s-3.19-6.92-3.19-6.92Z"/><path class="cls-16" d="M20,68.8h.08a4.11,4.11,0,0,1,3.12-.08.26.26,0,0,0,.33-.09.25.25,0,0,0-.09-.33,4.54,4.54,0,0,0-3.52,0,.24.24,0,0,0-.15.3A.25.25,0,0,0,20,68.8Z"/><path class="cls-16" d="M20.14,69.88l.08,0a4.19,4.19,0,0,1,3.28-.19.24.24,0,1,0,.23-.43,4.62,4.62,0,0,0-3.68.17.24.24,0,0,0,.09.47Z"/><path class="cls-6" d="M11.65,49.28s-.6-6.21-.18-8.48c0,0,.17-1.19.85-1.41a21.29,21.29,0,0,1,4.09.24l-3.47.13s-.91.06-1.08,1.46S11.79,42.62,11.65,49.28Z"/><path class="cls-6" d="M22.69,49.28s.6-6.21.18-8.48c0,0-.17-1.19-.85-1.41a21.24,21.24,0,0,0-4.09.24l3.46.13s.91.06,1.09,1.46S22.55,42.62,22.69,49.28Z"/></g></g></svg>