<svg xmlns="http://www.w3.org/2000/svg" xmlns:xlink="http://www.w3.org/1999/xlink" viewBox="0 0 39.86 79.29"><defs><style>.cls-1{isolation:isolate;}.cls-11,.cls-12,.cls-18,.cls-2,.cls-30{fill:#d9d9db;}.cls-13,.cls-14,.cls-16,.cls-3,.cls-31,.cls-6{fill:#ebebec;}.cls-4{fill:#fff;}.cls-5,.cls-9{fill:#bebfc1;}.cls-16,.cls-18,.cls-22,.cls-5{opacity:0.5;}.cls-11,.cls-12,.cls-18,.cls-19,.cls-20,.cls-22,.cls-24,.cls-27,.cls-30,.cls-5,.cls-6,.cls-8{mix-blend-mode:multiply;}.cls-7,.cls-8{fill:#cdced0;}.cls-8{opacity:0.4;}.cls-10{fill:#e35744;}.cls-11{opacity:0.8;}.cls-13{opacity:0.7;}.cls-13,.cls-14,.cls-16,.cls-25,.cls-26,.cls-29{mix-blend-mode:screen;}.cls-15{fill:#b1b2b4;}.cls-17{fill:#d3d4d5;}.cls-19,.cls-22{fill:#c9cacc;}.cls-20{fill:#c7c8ca;}.cls-21{fill:#2a416f;}.cls-23{fill:url(#radial-gradient);}.cls-24{fill:url(#radial-gradient-2);}.cls-25{fill:url(#radial-gradient-3);}.cls-26{fill:url(#radial-gradient-4);}.cls-27{fill:#c6c8d0;}.cls-28{fill:url(#linear-gradient);}.cls-29{fill:#6b6c6f;}.cls-30,.cls-31{opacity:0.6;}</style><radialGradient id="radial-gradient" cx="-25.53" cy="-58.72" r="6.6" gradientTransform="translate(46.19 88.96) rotate(-0.54)" gradientUnits="userSpaceOnUse"><stop offset="0.15" stop-color="#21687e"/><stop offset="0.49" stop-color="#023f5f"/><stop offset="0.98"/></radialGradient><radialGradient id="radial-gradient-2" cx="-23.98" cy="-66.4" r="13.18" gradientTransform="translate(46.19 88.96) rotate(-0.54)" gradientUnits="userSpaceOnUse"><stop offset="0.28" stop-color="#21687e"/><stop offset="0.42" stop-color="#0d3b59"/><stop offset="0.59" stop-color="#05294a"/><stop offset="0.71" stop-color="#031b31"/><stop offset="0.9" stop-color="#01070d"/><stop offset="1"/></radialGradient><radialGradient id="radial-gradient-3" cx="-29.76" cy="-62.7" r="8.29" gradientTransform="translate(46.19 88.96) rotate(-0.54)" gradientUnits="userSpaceOnUse"><stop offset="0.29" stop-color="#fff"/><stop offset="0.69" stop-color="#6c6c6c"/><stop offset="1"/></radialGradient><radialGradient id="radial-gradient-4" cx="-29.76" cy="-62.7" r="8.29" xlink:href="#radial-gradient-3"/><linearGradient id="linear-gradient" x1="-22.85" y1="-50.87" x2="-22.85" y2="-47.48" gradientTransform="translate(46.19 88.96) rotate(-0.54)" xlink:href="#radial-gradient"/></defs><g class="cls-1"><g id="Layer_1" data-name="Layer 1"><path class="cls-2" d="M23.06,67c.16.57.37,1.13.55,1.69A8,8,0,0,0,24.15,70a3.94,3.94,0,0,0,1.63,1.77c1.41.73,3.55.17,3.86-1.57a6.6,6.6,0,0,0-.32-2.85,12.55,12.55,0,0,0-.55-1.67c-.08-.21-.18-.42-.27-.63s-.2-.59-.32-.87a4.25,4.25,0,0,0-1.13-1.58c-.83-.74-2.33-1.36-3.37-.66a2.83,2.83,0,0,0-1.08,2.21A9.54,9.54,0,0,0,23.06,67Z"/><path class="cls-3" d="M26.86,67.33a5.57,5.57,0,0,1,2.47,0,6.65,6.65,0,0,1,.31,2.83c-.31,1.74-2.45,2.3-3.86,1.57A3.94,3.94,0,0,1,24.15,70a7.29,7.29,0,0,1-.42-1A5.66,5.66,0,0,1,26.86,67.33Z"/><path class="cls-2" d="M22.6,64.16A2.83,2.83,0,0,1,23.68,62a1.84,1.84,0,0,1,.52-.23,2.6,2.6,0,0,0-1.13,1.66,7.31,7.31,0,0,0,.76,4.29A5,5,0,0,0,27.06,71a2.26,2.26,0,0,0,2.15-.35,2.06,2.06,0,0,0,.48-1,4.21,4.21,0,0,1-.05.62c-.31,1.74-2.45,2.3-3.86,1.57A3.94,3.94,0,0,1,24.15,70a8,8,0,0,1-.54-1.36c-.18-.56-.39-1.12-.55-1.69A9.54,9.54,0,0,1,22.6,64.16Z"/><path class="cls-4" d="M25.07,67l.08,0a4.48,4.48,0,0,1,3.31-.38.26.26,0,0,0,.21-.47,4.85,4.85,0,0,0-3.72.38.27.27,0,0,0-.14.34A.3.3,0,0,0,25.07,67Z"/><path class="cls-4" d="M25.31,68.11l.09,0c2.16-1,3.45-.52,3.46-.51a.27.27,0,0,0,.34-.14.25.25,0,0,0-.14-.34c-.06,0-1.52-.62-3.88.53a.24.24,0,0,0-.12.34A.26.26,0,0,0,25.31,68.11Z"/><path class="cls-5" d="M29.32,67.36a12.55,12.55,0,0,0-.55-1.67c-.08-.21-.18-.42-.27-.63s-.2-.59-.32-.87a4.25,4.25,0,0,0-1.13-1.58c-.83-.74-2.33-1.36-3.37-.66a2.54,2.54,0,0,0-1,1.54,3.52,3.52,0,0,0,2.17,2.83,2.82,2.82,0,0,0,1.6-.12c.24-.08.61-.36.87-.33s.32.27.38.45c.11.34.2.68.3,1A5.61,5.61,0,0,1,28.37,70a1.55,1.55,0,0,1-1.49,1.2,2.66,2.66,0,0,1-2.15-.62,4.5,4.5,0,0,1-.78-1c.06.14.13.29.2.42a3.94,3.94,0,0,0,1.63,1.77c1.41.73,3.55.17,3.86-1.57A6.6,6.6,0,0,0,29.32,67.36Z"/><path class="cls-6" d="M24.66,64.72a3.32,3.32,0,0,1-1.5-2.1l0-.12a2.25,2.25,0,0,1,1-1.18c1-.56,2.3.1,3,.84A3.92,3.92,0,0,1,28,63.67l.12.4A2.5,2.5,0,0,1,24.66,64.72Z"/><path class="cls-7" d="M24,61.32a1.83,1.83,0,0,0-1,2.3,3.16,3.16,0,0,0,3.95,2c1.74-.45,1.87-1.75,1.25-2.65S24,61.32,24,61.32Z"/><path class="cls-8" d="M28.12,63C27.5,62.1,24,61.32,24,61.32l-.2.1a1.64,1.64,0,0,1-.16.29,1.68,1.68,0,0,0-.3.85,1.92,1.92,0,0,0,.53,1.53,3,3,0,0,0,2.7.91c.2,0,1.11-.17.83.35a.86.86,0,0,1-.16.18A1.59,1.59,0,0,0,28.12,63Z"/><path class="cls-9" d="M21.22,66l-4.79.44c-.07.52-.71,1-2.23,2.58a3.84,3.84,0,0,0-.88,3.52,1.71,1.71,0,0,0,.13.38c.51,1,4.6.59,4.73.53h0c2-.65,3-3.15,3.17-4.33A16.82,16.82,0,0,0,21.22,66Z"/><path class="cls-3" d="M20.07,71.56a3.58,3.58,0,0,0-.6-1.28,4.1,4.1,0,0,0-2.69-1.52,3.76,3.76,0,0,0-2.62.52,5.19,5.19,0,0,0-.46.36,4,4,0,0,0-.38,2.88,1.71,1.71,0,0,0,.13.38c.51,1,4.6.59,4.73.53h0a4.4,4.4,0,0,0,2-1.62C20.15,71.67,20.11,71.72,20.07,71.56Z"/><path class="cls-2" d="M14.8,68.62a3.52,3.52,0,0,1,4.13.35s.62.47.21.91a.37.37,0,0,1-.45.18c-.33-.09-1.2-1.4-2.7-1.2s-1.66.5-1.66.5S14,69.16,14.8,68.62Z"/><path class="cls-2" d="M16,67.52a2.9,2.9,0,0,1,3.42.29s.52.39.18.75a.31.31,0,0,1-.38.15A3.25,3.25,0,0,0,17,67.79c-1.25,0-1.44.34-1.44.34S15.32,68,16,67.52Z"/><path class="cls-9" d="M20.63,69.34a7.79,7.79,0,0,1-1.08,1.48,4.31,4.31,0,0,1-3.18,1.12,5.38,5.38,0,0,1-2.29-.2,1.33,1.33,0,0,1-.66-.57,1.2,1.2,0,0,1-.16-.32,4.06,4.06,0,0,0,.06,1.67,1.71,1.71,0,0,0,.13.38c.51,1,4.6.59,4.73.53h0c2-.65,3-3.15,3.17-4.33a7.53,7.53,0,0,0,0-1.08A6.41,6.41,0,0,1,20.63,69.34Z"/><path class="cls-5" d="M21.22,66l-4.79.44c0,.29-.27.59-.74,1.08a3.09,3.09,0,0,0,1.22.38,7.48,7.48,0,0,0,1.15.12c.27,0,.53-.06.8-.09.94-.11.59.82.27,1.31a.54.54,0,0,1-.72.27,11,11,0,0,0-1.33-.66,2.94,2.94,0,0,0-2.73.5,3.38,3.38,0,0,1,3.59.39c.37.38,1,2.49-.29,3.07a4.94,4.94,0,0,1-2.27.2,2.7,2.7,0,0,1-1.8-.65,1.89,1.89,0,0,1-.36-.47,3.67,3.67,0,0,0,.1.65,1.71,1.71,0,0,0,.13.38c.51,1,4.6.59,4.73.53h0c2-.65,3-3.15,3.17-4.33A16.82,16.82,0,0,0,21.22,66Z"/><path class="cls-7" d="M16.18,65.64s-1.36.93-.44,1.81a6.1,6.1,0,0,0,5.18-.22,1.3,1.3,0,0,0,.54-1.48c-.27-1-1.24-.18-1.24-.18Z"/><path class="cls-8" d="M21.46,65.75c-.27-1-1.24-.18-1.24-.18l-4,.07a2.42,2.42,0,0,0-.47.45c-.13.78.82,1.2,1.52,1.33a5.17,5.17,0,0,0,1.92,0c.54-.11,1-.31,1.57-.43a.07.07,0,0,1,.09.07.45.45,0,0,1,0,.22l.15-.06A1.3,1.3,0,0,0,21.46,65.75Z"/><path class="cls-3" d="M30.72,37s3,4.17,3.39,8.21c0,0,.17,1.71-.68,1.85a2.47,2.47,0,0,1-2.86-1.76,20.84,20.84,0,0,0-3.37-5.85Z"/><path class="cls-10" d="M34.08,45a3.41,3.41,0,0,0-.64-.59,2.26,2.26,0,0,0-.83-.36,2.4,2.4,0,0,0-2.12,1.05c0,.09.06.17.08.24a2.47,2.47,0,0,0,2.86,1.76c.85-.14.68-1.85.68-1.85Z"/><path class="cls-2" d="M31.63,41.75a10,10,0,0,0-.73-1.37,11.51,11.51,0,0,0,.71-1.91,19.73,19.73,0,0,1,2.39,6,7,7,0,0,0-1.79-.68A9.22,9.22,0,0,0,31.63,41.75Z"/><path class="cls-10" d="M29.39,42.73a1.71,1.71,0,0,1-.13-.23,8.4,8.4,0,0,1,3.28-2.27l.21.44A7.53,7.53,0,0,0,29.39,42.73Z"/><path class="cls-11" d="M30.72,37s.26.37.63,1a4.86,4.86,0,0,1-.58,2,3.09,3.09,0,0,0-.55,1.23c0,.41,1.44,3.28,1.54,4.48,0,.38,0,.75.06,1.12a2.42,2.42,0,0,1-1.25-1.53,20.84,20.84,0,0,0-3.37-5.85Z"/><path class="cls-2" d="M33.74,49.89a2.37,2.37,0,0,0-1.07-.67,2.08,2.08,0,0,0-1.37,0,1.66,1.66,0,0,0-.53.38c-.14-1.42-.16-4-.16-4a1.6,1.6,0,0,1,2-1.08A1.89,1.89,0,0,1,34.11,46,13.41,13.41,0,0,1,33.86,50,1,1,0,0,0,33.74,49.89Z"/><path class="cls-2" d="M33.74,49.89a2.37,2.37,0,0,0-1.07-.67,2.08,2.08,0,0,0-1.37,0,1.66,1.66,0,0,0-.53.38c-.14-1.42-.16-4-.16-4a1.6,1.6,0,0,1,2-1.08A1.89,1.89,0,0,1,34.11,46,13.41,13.41,0,0,1,33.86,50,1,1,0,0,0,33.74,49.89Z"/><path class="cls-12" d="M30.61,45.56a1.73,1.73,0,0,1,1.15-1.11l-.08.07a1.69,1.69,0,0,0-.5,1.3c0,.81.1,3.06.08,3.37a2,2,0,0,0-.49.37C30.63,48.14,30.61,45.56,30.61,45.56Z"/><path class="cls-3" d="M32.67,49.22a2.34,2.34,0,0,0-.38-.09l-.2-4.19s.21-.26.94,0a1.62,1.62,0,0,1,1,1.51,13.23,13.23,0,0,1-.33,3.44A2.45,2.45,0,0,0,32.67,49.22Z"/><path class="cls-3" d="M30.76,49.45c.56-.38,1-.73,1.8-.41a4,4,0,0,1,1.12.65,2.58,2.58,0,0,1,.71,1.24,4,4,0,0,1,.29,1.6,3,3,0,0,1-.25.93c-.08.2-.21.6-.46.63a.21.21,0,0,1-.22-.16,1.53,1.53,0,0,1-.14.21.38.38,0,0,1-.58.11.44.44,0,0,1-.1-.15.75.75,0,0,1-.19.17c-.32.18-.53,0-.49-.33a3.56,3.56,0,0,1,.35-1,1.23,1.23,0,0,0,.09-.5l0,.1c-.16.47-.49,1.18-1,1.33s-.46-.53-.37-.8.36-.68.5-1a2,2,0,0,0,.2-.92c0-.22-.23-.75-.51-.41a.77.77,0,0,0-.14.39c-.05.3.16,1.19-.27,1.29-.22.05-.4-.19-.49-.36a2.69,2.69,0,0,1-.16-1.66A4.27,4.27,0,0,1,30.76,49.45Z"/><path class="cls-13" d="M33.55,50.68a3.08,3.08,0,0,0-.93-.35c0-.22-.07-.44-.1-.61a2.18,2.18,0,0,0-.21-.67l.22.07a4.11,4.11,0,0,1,1.11.64A2.58,2.58,0,0,1,34.35,51a3.38,3.38,0,0,1,.11.34A3.62,3.62,0,0,0,33.55,50.68Z"/><path class="cls-3" d="M27.39,35a8.88,8.88,0,0,1,3.7,1.5c1.39,1.15-2,6-3.3,4.5S26.88,34.9,27.39,35Z"/><path class="cls-2" d="M28.9,41.16c.06-.24.11-.47.15-.65a9.17,9.17,0,0,0,.28-1.95,6.57,6.57,0,0,0-.47-3.2A10.89,10.89,0,0,0,27.39,35c-.51-.1-.86,4.51.4,6A.87.87,0,0,0,28.9,41.16Z"/><path class="cls-14" d="M29.89,36s1.32.32,1.37,1.4-1,2.4-1.64,3.08c0,0,1.37-1.66,1.37-2.73A2.36,2.36,0,0,0,29.89,36Z"/><path class="cls-15" d="M32.82,51s0,0,0,0a3.13,3.13,0,0,1-.29,1.86h0A4.59,4.59,0,0,0,32.82,51Z"/><path class="cls-15" d="M32.86,54.12a3.77,3.77,0,0,0,.71-2.94h0a3.2,3.2,0,0,1-.7,3S32.85,54.14,32.86,54.12Z"/><path class="cls-6" d="M30.42,50.35a4.27,4.27,0,0,1,.34-.9c.56-.38,1-.73,1.8-.41h0c-.49-.09-1.17-.18-1.27.39,0,.21,0,.71.3.74.6.08.74,1,.57,1.46a7.05,7.05,0,0,0-.31,1.11.24.24,0,0,0,.39.26,1.46,1.46,0,0,0,.46-.83,4,4,0,0,0,.14-1.1,3,3,0,0,1,0,1.47c-.06.21-.24.72,0,.91s.55-.25.63-.43a3.63,3.63,0,0,0,.2-1.42,2.53,2.53,0,0,1-.06,1.49c0,.08-.3.69,0,.66s.54-.62.62-.89a3.88,3.88,0,0,0,.15-1.12,2.56,2.56,0,0,1,0,1.23,2.19,2.19,0,0,0-.19.74.14.14,0,0,0,.14.13.45.45,0,0,1-.29.24.21.21,0,0,1-.22-.16,1.53,1.53,0,0,1-.14.21.38.38,0,0,1-.58.11.44.44,0,0,1-.1-.15.75.75,0,0,1-.19.17c-.32.18-.53,0-.49-.33a3.56,3.56,0,0,1,.35-1,1.23,1.23,0,0,0,.09-.5l0,.1c-.16.47-.49,1.18-1,1.33s-.46-.53-.37-.8.36-.68.5-1a2,2,0,0,0,.2-.92c0-.22-.23-.75-.51-.41a.77.77,0,0,0-.14.39c-.05.3.16,1.19-.27,1.29-.22.05-.4-.19-.49-.36A2.69,2.69,0,0,1,30.42,50.35Z"/><path class="cls-15" d="M34.18,52.9a4,4,0,0,0,.16-1c0,.24,0,.48,0,.68s0,.11,0,.17a3.84,3.84,0,0,1-.54,1.18h0A10.71,10.71,0,0,0,34.18,52.9Z"/><path class="cls-3" d="M11.43,32.25a2.68,2.68,0,0,0-.81-.72,5.19,5.19,0,0,0-1.1.86,2.94,2.94,0,0,0-1,1.92,22.14,22.14,0,0,0,5.66,5.76l2.43-3.53A21,21,0,0,1,11.43,32.25Z"/><path class="cls-3" d="M12.52,33.43a2.35,2.35,0,0,1-1,1.77,2.5,2.5,0,0,1-2.08.42,23.58,23.58,0,0,0,4.75,4.45l2.43-3.53A22.68,22.68,0,0,1,12.52,33.43Z"/><path class="cls-2" d="M11.43,32.25a2.68,2.68,0,0,0-.81-.72,5.19,5.19,0,0,0-1.1.86,3.15,3.15,0,0,0-.94,1.68,1.72,1.72,0,0,0,.5.77,2.47,2.47,0,0,0,1.52.45A5.07,5.07,0,0,1,13.08,38a8.28,8.28,0,0,0,.13,1.37c.61.48,1,.75,1,.75l2.43-3.53A21,21,0,0,1,11.43,32.25Z"/><path class="cls-12" d="M11,35.12a2.45,2.45,0,0,0,1.73-1.55,12.34,12.34,0,0,1-1.25-1.32,2.68,2.68,0,0,0-.81-.72,5.19,5.19,0,0,0-1.1.86,3.15,3.15,0,0,0-.94,1.68,1.7,1.7,0,0,0,.44.71A2.22,2.22,0,0,0,11,35.12Z"/><path class="cls-10" d="M13.46,34.27l.21.17a8.38,8.38,0,0,1-2.28,3.29L11,37.39A7.49,7.49,0,0,0,13.46,34.27Z"/><path class="cls-3" d="M18.05,40.81a8.82,8.82,0,0,1-4-.1c-1.71-.59-.2-6.33,1.5-5.38S18.56,40.73,18.05,40.81Z"/><path class="cls-14" d="M15.37,40.78S14,41,13.6,40s.07-2.59.45-3.46c0,0-.69,2-.32,3A2.34,2.34,0,0,0,15.37,40.78Z"/><path class="cls-16" d="M9.36,35.19a23.69,23.69,0,0,0,3.56,3.67,1,1,0,0,0-.2-.72c-.28-.4-2.26-2.48-2.26-2.48Z"/><path class="cls-3" d="M15.62,47.12a3,3,0,0,0-.49,1.79c0,1.11,5.8,3.14,7.29,3.42S29,49.63,29,48.48s-.23-1.62-.93-1.64S15.62,47.12,15.62,47.12Z"/><path class="cls-6" d="M16.24,49.51a17.57,17.57,0,0,1-.09-2.4h-.53a3,3,0,0,0-.49,1.79c0,.31.48.7,1.19,1.1A4.71,4.71,0,0,1,16.24,49.51Z"/><path class="cls-6" d="M28.06,46.84h-.54v0a9.32,9.32,0,0,1,.1,1.4c0,.61-.05,1.22-.08,1.84C28.4,49.5,29,48.88,29,48.48,28.94,47.33,28.76,46.86,28.06,46.84Z"/><path class="cls-17" d="M28.6,35.66c-.51-1.33-5.09-1.32-5.09-1.32l-1.51,0-1.51,0s-4.58.07-5.07,1.42-.35,11,.24,11.84c.41.55,2.55,1.2,4.89,1.48.53.07,1,.07,1.54.09s1.11,0,1.63-.11c2.34-.34,4.46-1,4.86-1.58C29.17,46.7,29.12,37,28.6,35.66Z"/><path class="cls-3" d="M28.24,35.59c-.49-1.26-4.81-1.25-4.81-1.25l-1.43,0-1.43,0s-4.33.07-4.79,1.35S15.45,46.14,16,46.9c.39.52,2.41,1.13,4.62,1.4.5.06.95.06,1.46.08s1,0,1.54-.11c2.2-.31,4.21-1,4.59-1.49C28.77,46,28.72,36.86,28.24,35.59Z"/><path class="cls-18" d="M22.41,48.37A8.11,8.11,0,0,1,17.24,47a6.22,6.22,0,0,1-2-2.5,10.57,10.57,0,0,0,.44,3.18c.41.55,2.55,1.2,4.89,1.48.53.07,1,.07,1.54.09s1.11,0,1.63-.11c2.34-.34,4.46-1,4.86-1.58a6.19,6.19,0,0,0,.33-2.17A8.52,8.52,0,0,1,22.41,48.37Z"/><path class="cls-19" d="M22.1,36.93a11.92,11.92,0,0,0,3.78-.79,5.18,5.18,0,0,0,2-1.12,13.36,13.36,0,0,0-4.38-.68l-1.51,0-1.51,0a14,14,0,0,0-4.21.69A8.31,8.31,0,0,0,22.1,36.93Z"/><path class="cls-3" d="M17.68,32a1.76,1.76,0,0,1-1.76,1.78h0A1.76,1.76,0,0,1,14.14,32V30.74A1.77,1.77,0,0,1,15.88,29h0a1.77,1.77,0,0,1,1.79,1.75Z"/><path class="cls-20" d="M17.5,31.89a1.6,1.6,0,0,1-1.58,1.61h0a1.59,1.59,0,0,1-1.6-1.58V30.81a1.59,1.59,0,0,1,1.57-1.61h0a1.59,1.59,0,0,1,1.61,1.57Z"/><path class="cls-21" d="M15.41,30.13a.36.36,0,0,1-.36.36.34.34,0,0,1-.36-.35.36.36,0,1,1,.72,0Z"/><path class="cls-4" d="M15.08,30a.1.1,0,1,1-.2,0,.09.09,0,0,1,.1-.1A.1.1,0,0,1,15.08,30Z"/><path class="cls-4" d="M14.88,30.21a0,0,0,0,1,0,.05,0,0,0,0,1-.05-.05,0,0,0,0,1,.05,0A0,0,0,0,1,14.88,30.21Z"/><path class="cls-21" d="M15.36,31.65A.36.36,0,0,1,15,32a.37.37,0,0,1-.37-.35.36.36,0,0,1,.36-.37A.37.37,0,0,1,15.36,31.65Z"/><path class="cls-4" d="M15,31.52a.09.09,0,0,1-.09.1.09.09,0,0,1-.1-.09.09.09,0,0,1,.1-.1C15,31.42,15,31.47,15,31.52Z"/><path class="cls-4" d="M14.83,31.73a0,0,0,0,1,0,.05,0,0,0,0,1,0-.05,0,0,0,0,1,0-.05A0,0,0,0,1,14.83,31.73Z"/><path class="cls-19" d="M15.88,29a1.91,1.91,0,0,0-.54.09,6.64,6.64,0,0,0-.22,2.43c0,.48.08,1,.14,1.44,0,.24.06.48.11.73a1.44,1.44,0,0,0,.55.08A1.76,1.76,0,0,0,17.68,32V30.71A1.77,1.77,0,0,0,15.88,29Z"/><path class="cls-3" d="M26.28,31.87a1.75,1.75,0,0,0,1.78,1.75h0a1.77,1.77,0,0,0,1.75-1.78V30.6A1.77,1.77,0,0,0,28,28.85h0a1.76,1.76,0,0,0-1.75,1.78Z"/><path class="cls-20" d="M26.45,31.81a1.59,1.59,0,0,0,1.61,1.57h0a1.57,1.57,0,0,0,1.57-1.6V30.66A1.59,1.59,0,0,0,28,29.08h0a1.6,1.6,0,0,0-1.58,1.61Z"/><path class="cls-21" d="M28.51,30a.36.36,0,0,0,.36.36.37.37,0,0,0,.36-.37.36.36,0,0,0-.36-.36A.37.37,0,0,0,28.51,30Z"/><path class="cls-4" d="M28.84,29.88a.1.1,0,1,0,.19,0,.09.09,0,0,0-.09-.09A.09.09,0,0,0,28.84,29.88Z"/><path class="cls-4" d="M29,30.08s0,0,0,0,0,0,0,0,0,0,0,0A0,0,0,0,0,29,30.08Z"/><path class="cls-21" d="M28.59,31.52a.36.36,0,0,0,.36.36.36.36,0,1,0-.36-.36Z"/><path class="cls-4" d="M28.92,31.39a.09.09,0,0,0,.1.1.1.1,0,0,0,.09-.1.1.1,0,0,0-.1-.1A.1.1,0,0,0,28.92,31.39Z"/><path class="cls-4" d="M29.12,31.6a0,0,0,0,0,0,0,0,0,0,0,0,.05-.05s0,0-.05,0A0,0,0,0,0,29.12,31.6Z"/><path class="cls-19" d="M28,28.85a1.63,1.63,0,0,1,.55.08,6.58,6.58,0,0,1,.26,2.42c0,.48-.06,1-.11,1.44,0,.24-.05.49-.09.73a1.78,1.78,0,0,1-.56.1,1.75,1.75,0,0,1-1.78-1.75l0-1.24A1.76,1.76,0,0,1,28,28.85Z"/><path class="cls-3" d="M22.7,23.67a6.44,6.44,0,0,0-1.68,0,6.38,6.38,0,0,0-5.55,6.53c0,3.45.45,4.86,3.59,5.82a9.46,9.46,0,0,0,3,.35A8.5,8.5,0,0,0,24.89,36c3.12-1,3.51-2.43,3.47-5.88A6.37,6.37,0,0,0,22.7,23.67Z"/><path class="cls-2" d="M15.88,33.56c.43,1.19,1.34,1.91,3.18,2.47a9.46,9.46,0,0,0,3,.35A8.5,8.5,0,0,0,24.89,36c1.95-.63,2.83-1.42,3.21-2.77A18.5,18.5,0,0,0,15.88,33.56Z"/><path class="cls-22" d="M16.37,28.49c.24.08.28-.26.38-.44a8.27,8.27,0,0,1,.73-1.21,6.13,6.13,0,0,1,1.89-1.73,4.38,4.38,0,0,0-.54-.74,6.29,6.29,0,0,0-3.08,3.84A2.88,2.88,0,0,0,16.37,28.49Z"/><path class="cls-22" d="M26.41,26.85c.17.29.33.58.48.88h0l.75-.6A6.24,6.24,0,0,0,26,25l-.51.57A7.77,7.77,0,0,1,26.41,26.85Z"/><path class="cls-19" d="M27.33,30.45A5.29,5.29,0,0,1,22,35.64a5.15,5.15,0,1,1-.1-10.28A5.29,5.29,0,0,1,27.33,30.45Z"/><path class="cls-23" d="M27,30.15A5,5,0,0,1,22,35a4.84,4.84,0,1,1-.09-9.66A5,5,0,0,1,27,30.15Z"/><path class="cls-24" d="M26.43,28A4.12,4.12,0,0,1,26.75,30a4.32,4.32,0,0,1-3.14,3.58,6.16,6.16,0,0,1-4.71-.36c-2.07-1.21-2.27-3.71-1.27-5.64a4.63,4.63,0,0,0-.79,2.63A5,5,0,0,0,22,35a5,5,0,0,0,5-4.87A4.79,4.79,0,0,0,26.43,28Z"/><path class="cls-25" d="M17.55,31.19a5.69,5.69,0,0,0,.18.84c.07.22.16.44.25.65s.46.37.71.54a8.74,8.74,0,0,0,1.25.74,6.33,6.33,0,0,1-.86-2.18A11.79,11.79,0,0,1,17.55,31.19Z"/><path class="cls-26" d="M21.53,25.78A4.63,4.63,0,0,0,18,28.08a5.18,5.18,0,0,0-.52,2.45c.46.18.94.32,1.41.46L19,31A6.14,6.14,0,0,1,19,29.73a4.71,4.71,0,0,1,1.67-3.05,5.74,5.74,0,0,1,1.78-.94A6.17,6.17,0,0,0,21.53,25.78Z"/><path class="cls-27" d="M25.58,38.13h-1l-5.21,0h-1c-1,0-1.13.76-1.24,1.36l0,3.46,0,2.72v.1h0c.12.58.32,1.24,1.24,1.24h1l5.21,0h1c.92,0,1.11-.68,1.22-1.26h0v-.1l0-2.72,0-3.46C26.72,38.87,26.55,38.12,25.58,38.13Z"/><path class="cls-3" d="M25.41,38.27h-.92l-4.91,0h-.92c-.92,0-1.06.71-1.16,1.28l0,3.25,0,2.56v.1h0c.12.54.3,1.17,1.17,1.16h.92l4.91,0h.92c.87,0,1-.65,1.15-1.19h0v-.09l0-2.56,0-3.26C26.49,39,26.33,38.26,25.41,38.27Z"/><path class="cls-20" d="M25.74,43.78H24.18c-.22,0-.25.16-.27.29v1.37h0c0,.12.07.27.27.27h1.56c.2,0,.24-.15.26-.28h0V44.07C26,43.94,26,43.78,25.74,43.78Z"/><path class="cls-3" d="M25.63,43.87H24.28c-.18,0-.21.14-.23.25v1.19h0c0,.11.07.23.24.23h1.35c.17,0,.21-.13.23-.24h0V44.13C25.85,44,25.82,43.87,25.63,43.87Z"/><path class="cls-14" d="M25.5,44H24.42c-.14,0-.17,0-.19.07v.34h0s.05.07.19.06H25.5c.14,0,.17,0,.19-.07h0v-.34S25.64,44,25.5,44Z"/><path class="cls-14" d="M25.42,38.91H25l-2.21,0H21.5l-2.21,0h-.41c-.42,0-.48.21-.53.37v1.72h0a.46.46,0,0,0,.53.33h.42l2.21,0h1.29l2.21,0h.42c.39,0,.47-.19.51-.35h0V39.28C25.91,39.11,25.84,38.91,25.42,38.91Z"/><path class="cls-20" d="M23.44,43.8h-.21l-1.14,0h-.21c-.21,0-.25.16-.27.29v1.37h0c0,.13.06.27.27.27h1.56c.2,0,.24-.15.26-.28h0V44.09C23.69,44,23.65,43.8,23.44,43.8Z"/><path class="cls-3" d="M23.34,43.9H22c-.18,0-.21.14-.23.26v1.18h0c0,.11.05.23.23.23h1.35c.18,0,.21-.13.23-.24h0V44.15C23.55,44,23.52,43.9,23.34,43.9Z"/><path class="cls-14" d="M23.2,44H22.12c-.15,0-.17,0-.18.08v.33h0s0,.07.18.07H23.2c.14,0,.17,0,.19-.06h0v-.34S23.34,44,23.2,44Z"/><path class="cls-2" d="M23.05,42.58a.48.48,0,0,1-.47.48h0a.48.48,0,0,1-.49-.47h0a.49.49,0,0,1,.48-.49h0a.48.48,0,0,1,.48.48Z"/><path class="cls-2" d="M24.37,42.57a.48.48,0,0,1-.47.48h0a.49.49,0,0,1-.49-.48h0a.48.48,0,0,1,.48-.48h0a.48.48,0,0,1,.48.48Z"/><path class="cls-2" d="M25.69,42.55a.49.49,0,0,1-.47.49h0a.47.47,0,0,1-.48-.48h0a.47.47,0,0,1,.47-.48h0a.47.47,0,0,1,.48.47Z"/><rect class="cls-2" x="18.42" y="41.9" width="2.75" height="3.97" transform="translate(-0.4 0.18) rotate(-0.53)"/><rect class="cls-3" x="18.62" y="42.26" width="0.72" height="0.72" transform="translate(-0.35 0.16) rotate(-0.47)"/><rect class="cls-3" x="19.42" y="42.25" width="0.72" height="0.72" transform="translate(-0.29 0.14) rotate(-0.39)"/><rect class="cls-3" x="20.22" y="42.24" width="0.72" height="0.72" transform="translate(-0.34 0.17) rotate(-0.46)"/><rect class="cls-3" x="18.63" y="43.1" width="0.72" height="0.72" transform="translate(-0.52 0.23) rotate(-0.69)"/><polygon class="cls-3" points="20.15 43.81 19.43 43.82 19.42 43.1 20.15 43.09 20.15 43.81"/><polygon class="cls-3" points="20.95 43.8 20.23 43.81 20.22 43.09 20.95 43.08 20.95 43.8"/><rect class="cls-3" x="18.64" y="43.96" width="0.72" height="0.72" transform="translate(-0.53 0.23) rotate(-0.69)"/><polygon class="cls-3" points="20.16 44.67 19.44 44.68 19.43 43.96 20.15 43.95 20.16 44.67"/><rect class="cls-3" x="20.23" y="43.95" width="0.72" height="0.72" transform="translate(-0.54 0.25) rotate(-0.7)"/><rect class="cls-3" x="18.64" y="44.81" width="0.72" height="0.72" transform="translate(-0.37 0.16) rotate(-0.47)"/><rect class="cls-3" x="19.44" y="44.8" width="0.72" height="0.72" transform="translate(-0.36 0.16) rotate(-0.46)"/><rect class="cls-3" x="20.24" y="44.8" width="0.72" height="0.72" transform="translate(-0.36 0.17) rotate(-0.46)"/><path class="cls-28" d="M25.36,39.21H25l-1.67,0h-1l-1.68,0h-.32c-.31,0-.36.16-.4.29v1.3h0c0,.12.1.26.4.26h.31l1.68,0h1l1.68,0h.32c.29,0,.35-.14.39-.26h0V39.48C25.73,39.36,25.67,39.2,25.36,39.21Z"/><path class="cls-29" d="M22.7,40.16a9.74,9.74,0,0,0,2.14-.28,5.37,5.37,0,0,0,.74-.25v-.1c0-.12-.08-.26-.38-.26l-4.65,0a.33.33,0,0,0-.38.27v.12A4.09,4.09,0,0,0,22.7,40.16Z"/><path class="cls-2" d="M25.27,64.47a2.21,2.21,0,0,1-1.58-1.9.69.69,0,0,1,0-.13c1-4.62,1.53-4.69.78-6.31s-2-4-1.63-4.6c1.28-1.85,4.58-3,4.58-3s1.26-.23,1.57.19,2.6,5.47,2.07,8.25c-.42,2.22-2.38,5.73-3.13,7A2.38,2.38,0,0,1,25.27,64.47Z"/><path class="cls-3" d="M28.91,57.45a1.64,1.64,0,0,1-1.66-1.88,2.88,2.88,0,0,1,3.64-1.69A8.08,8.08,0,0,1,31.08,57h0A4.72,4.72,0,0,1,28.91,57.45Z"/><path class="cls-12" d="M29.6,56.87a1.13,1.13,0,0,1-1.15-1.3A2,2,0,0,1,31,54.4a5.64,5.64,0,0,1,.14,2.16h0A3.15,3.15,0,0,1,29.6,56.87Z"/><path class="cls-3" d="M27.44,52.92A6.71,6.71,0,0,0,24,55c-.69-1.44-1.41-3-1.1-3.48,1.28-1.85,4.58-3,4.58-3s1.26-.23,1.57.19a19.62,19.62,0,0,1,1.61,4.09A5.31,5.31,0,0,0,27.44,52.92Z"/><path class="cls-3" d="M27.7,60a4.23,4.23,0,0,1-2.1-.8,4.28,4.28,0,0,1-.88-.8A2.93,2.93,0,0,0,24.79,57a7.78,7.78,0,0,0,3.43.78,4.88,4.88,0,0,0,2.83-.57,12.14,12.14,0,0,1-.6,1.87A3.23,3.23,0,0,1,27.7,60Z"/><path class="cls-10" d="M26.37,58.71a6.81,6.81,0,0,0,1.9.37,4.6,4.6,0,0,0,2.43-.71c.07-.2.13-.4.19-.6a5.23,5.23,0,0,1-2.86.6,8.35,8.35,0,0,1-3.18-.77c0,.11,0,.23-.05.37A5.15,5.15,0,0,0,26.37,58.71Z"/><path class="cls-10" d="M27.35,53.24A9,9,0,0,0,24,55l.25.52a7.17,7.17,0,0,1,3.3-1.77,11.36,11.36,0,0,1,1.9-.36,4.55,4.55,0,0,1,1.38.08c0-.06-.09-.36-.11-.41A6.61,6.61,0,0,0,27.35,53.24Z"/><path class="cls-14" d="M16.7,47.12s-.64-6-.25-8.23c0,0,.15-1.15.81-1.37a20.56,20.56,0,0,1,4,.2l-3.36.16s-.88.06-1,1.42S16.78,40.66,16.7,47.12Z"/><path class="cls-14" d="M27.41,47s.52-6,.09-8.23c0,0-.18-1.15-.84-1.36a21.08,21.08,0,0,0-4,.28l3.36.09s.89.05,1.07,1.4S27.21,40.56,27.41,47Z"/><path class="cls-3" d="M15.5,48.48a25,25,0,0,0-.66,2.7,37.48,37.48,0,0,0,1.29,15.39,2.72,2.72,0,0,0,1.35.5c.76,0,3.3,0,3.56-1.12s-.65-6.1-.16-9.88,1-4,.35-4.73S16.56,48.14,15.5,48.48Z"/><path class="cls-10" d="M20.8,56.92c0-.29.05-.57.08-.85a2.7,2.7,0,0,0,0-.28A17.47,17.47,0,0,0,18.08,55a7.92,7.92,0,0,0-2.22-.19c-.44.05-.88.14-1.32.19v.89C16.71,55.26,18.79,56.08,20.8,56.92Z"/><path class="cls-10" d="M18.27,61.17a8.07,8.07,0,0,1-2.14-.08,4.4,4.4,0,0,1-.86-.24l-.39-.15c0,.37.1.74.15,1.12a8.13,8.13,0,0,0,3,.12,11.5,11.5,0,0,0,2.4-.42l.38-.1c0-.25,0-.5,0-.75A11,11,0,0,1,18.27,61.17Z"/><path class="cls-7" d="M20.8,56.91a8.14,8.14,0,0,0-3.86-1.41,11.82,11.82,0,0,0-1.78-.11c-.19,0-.41,0-.62,0,0,.31,0,.62,0,1A3.28,3.28,0,0,1,16,56a5.33,5.33,0,0,1,2.36.5c1.11.56,2.05,1.82,1.39,3.08a3.22,3.22,0,0,1-3.16,1.28,3.8,3.8,0,0,1-1.82-.65c0,.27.07.55.11.82a9.62,9.62,0,0,0,2.71.32,9.56,9.56,0,0,0,3.18-.41A31.4,31.4,0,0,1,20.8,56.91Z"/><path class="cls-12" d="M18.18,59.34c.93-1-.2-2.13-1.24-2.39A2.68,2.68,0,0,0,15,57l-.45.24c0,.66.08,1.36.14,2.07A2.54,2.54,0,0,0,18.18,59.34Z"/><path class="cls-16" d="M15.37,50.69A29,29,0,0,0,15,58.56c.45,3.86,1.3,7.71,1.3,7.71s-.28-3.82-.6-7.22a31.57,31.57,0,0,1,.93-8.36,1,1,0,0,0,0-.82C16.46,49.48,15.58,49.4,15.37,50.69Z"/><path class="cls-16" d="M28.59,49s2.69,5.51,2.27,7.78-3.13,7-3.13,7,2.64-5.41,2.78-7.53-3.16-6.68-3.16-6.68Z"/><path class="cls-18" d="M24.49,56.13c-.74-1.61-2-4-1.63-4.6,1.28-1.85,4.58-3,4.58-3a4.29,4.29,0,0,1,1-.05,2.37,2.37,0,0,0-.5.11,5.38,5.38,0,0,0-1.61,1,3,3,0,0,0-1,1.29c-.23.9.4,1.91.76,2.69a9.78,9.78,0,0,1,1,3.45,7.59,7.59,0,0,1-.83,3.33c-.22.52-.46,1-.69,1.54A8.24,8.24,0,0,0,25,63.14a1.19,1.19,0,0,0,.62,1.45,3.4,3.4,0,0,1-.34-.12,2.21,2.21,0,0,1-1.58-1.9.69.69,0,0,1,0-.13C24.74,57.82,25.24,57.75,24.49,56.13Z"/><path class="cls-18" d="M20.88,56.07c.5-3.78,1-4,.35-4.73s-4.67-3.2-5.73-2.86c0,0-.18.56-.48,1.86a2.65,2.65,0,0,1,.29-.52c.91-1.31,2.59.15,3.2,1.06,1.1,1.64.45,3.81.29,5.62a32.4,32.4,0,0,0,.43,7,4.94,4.94,0,0,1,0,2.67,1.8,1.8,0,0,1-1.33.91,2.86,2.86,0,0,1-.43,0c.77,0,3.29,0,3.55-1.12S20.39,59.85,20.88,56.07Z"/><path class="cls-10" d="M11.69,34.9a2.45,2.45,0,0,0,.71-1.6,11.14,11.14,0,0,1-1-1,2.68,2.68,0,0,0-.81-.72,5.19,5.19,0,0,0-1.1.86,2.94,2.94,0,0,0-1,1.92,12.36,12.36,0,0,0,.72,1.06A2.21,2.21,0,0,0,11.69,34.9Z"/><path class="cls-2" d="M8.86,29.2A2.6,2.6,0,0,0,10,30a2.42,2.42,0,0,0,1.5.11,2.14,2.14,0,0,0,.6-.39c.08,1.57.14,3.42.14,3.42a2.37,2.37,0,0,1-2.37,2,2.07,2.07,0,0,1-1.61-1.71A15.08,15.08,0,0,1,8.72,29Z"/><path class="cls-3" d="M10.4,30.37v-.25L10,30a2.69,2.69,0,0,1-1.11-.77c0,.11-.07.22-.1.35A2.07,2.07,0,0,0,10.4,30.37Z"/><path class="cls-3" d="M8.7,29.92a13.73,13.73,0,0,0-.37,3,1.8,1.8,0,0,0,1.05,1.72c.78.29,1,0,1,0V30.64A2.39,2.39,0,0,1,8.7,29.92Z"/><path class="cls-2" d="M13.1,26.21a1,1,0,0,0-.86.34,4.06,4.06,0,0,0-.58.86,8,8,0,0,1-.42-2.06c0-.24,0-.5,0-.74a1.07,1.07,0,0,0-.14-.5c-.33-.25-.56-.21-.69.11h0a2.46,2.46,0,0,0-.1.47,3.93,3.93,0,0,0-.06.48,1.21,1.21,0,0,0,0,.18.15.15,0,0,0,0,.07c-.11-.52-.11-1.07-.27-1.59a.38.38,0,0,0-.64-.08A1.89,1.89,0,0,0,9,25a4.1,4.1,0,0,1-.2-.59c-.07-.28-.34-.54-.64-.32a1,1,0,0,0-.33,1l0,.1a.42.42,0,0,0-.33-.16c-.55,0-.5.6-.47,1a5.52,5.52,0,0,0,1,2.71A5,5,0,0,0,9.1,30a2.57,2.57,0,0,0,2.85.12c.61-.46.64-1.24.79-1.93a4.35,4.35,0,0,1,.24-.75,2.93,2.93,0,0,0,.33-.94A.25.25,0,0,0,13.1,26.21Z"/><path class="cls-30" d="M13.23,26.28c-.7-.07-1.12.92-1.43,1.37a1.7,1.7,0,0,0-.25,2c.07.16-.17.3-.24.14a1.93,1.93,0,0,1-.24-1.4,4.18,4.18,0,0,1,.57-1,8.18,8.18,0,0,1-.4-2c0-.24,0-.5,0-.74a1.9,1.9,0,0,0,0-.25s0,0,0,0c-.13-.36-.42,0-.48.17s-.19.35-.23.53-.13,1-.16.86-.07-.33-.1-.5v0c-.11-.5-.11-1-.25-1.5-.33-.3-.68.11-.72.41s-.12,1-.17.87A2.25,2.25,0,0,1,9,25s0,0,0,0a4.1,4.1,0,0,1-.2-.59.59.59,0,0,0-.24-.35c-.66.1-.47,1.43-.55,1.34s-.1-.12-.15-.18h0a.42.42,0,0,0-.33-.16l-.13,0c-.62.48.42,2.66.66,3.11a4.67,4.67,0,0,0,1.57,1.84,2.9,2.9,0,0,0,1.46.4,1.8,1.8,0,0,0,.84-.35c.61-.46.64-1.24.79-1.93a4.35,4.35,0,0,1,.24-.75,2.93,2.93,0,0,0,.33-.94A.27.27,0,0,0,13.23,26.28Z"/><path class="cls-30" d="M11.11,25.6a6.07,6.07,0,0,0,.34,2l.19-.27a8.18,8.18,0,0,1-.4-2c0-.24,0-.5,0-.74a.85.85,0,0,0,0-.23C11.23,24.78,11.11,25.21,11.11,25.6Z"/><path class="cls-31" d="M10.56,27.14c-.26-.22-.62-.09-.9,0s-.39.18-.54.23a1,1,0,0,0-.68.56c-.06.16.09.31.24.35a1.69,1.69,0,0,0,.5,0A1.61,1.61,0,0,0,10,28a1.7,1.7,0,0,0,.61-.58C10.63,27.27,10.62,27.19,10.56,27.14Z"/><path class="cls-30" d="M12.89,27.19a8.11,8.11,0,0,0-.44,1.95,2.75,2.75,0,0,1-.3.8,3.69,3.69,0,0,0,.59-1.76,4.35,4.35,0,0,1,.24-.75,2.93,2.93,0,0,0,.33-.94v0A3,3,0,0,1,12.89,27.19Z"/><path class="cls-19" d="M10.73,26.87h0a6.07,6.07,0,0,1-.47-1.44l0,.15a4,4,0,0,0,.44,1.28,2.6,2.6,0,0,0-1,.14A17.58,17.58,0,0,1,9,24.88.28.28,0,0,1,9,25a1.85,1.85,0,0,0,.08.46c0,.13.06.25.1.38A7.25,7.25,0,0,0,9.65,27H9.6a7.29,7.29,0,0,0-.87.34,6.93,6.93,0,0,1-.43-1.26,2.14,2.14,0,0,0-.36-.83l-.12-.06a2.33,2.33,0,0,1,.49,1.21,4,4,0,0,0,.37,1,1.66,1.66,0,0,0-.24.18A4.93,4.93,0,0,1,10.73,26.87Z"/><path class="cls-19" d="M11.7,27.29A3.66,3.66,0,0,0,11,28.56a1.27,1.27,0,0,0,.28,1.14s0,0,0,0h0a0,0,0,0,0,0,0,5.25,5.25,0,0,1-.23-1c0-.52.47-.94.71-1.37C11.75,27.28,11.71,27.28,11.7,27.29Z"/><path class="cls-3" d="M10.78,30.37a2.42,2.42,0,0,1-1.46-.59,5.25,5.25,0,0,1-1-1.16,5.07,5.07,0,0,1-1-3.34s0,0,0,0a4.78,4.78,0,0,0,.83,3.34,3.22,3.22,0,0,0,2.64,1.79S10.8,30.38,10.78,30.37Z"/></g></g></svg>