<svg xmlns="http://www.w3.org/2000/svg" viewBox="0 0 87.3 25.3"><defs><style>.cls-1{isolation:isolate;}.cls-2{fill:#aaacae;}.cls-3{fill:#535557;}.cls-4,.cls-5{fill:#717375;}.cls-4{mix-blend-mode:multiply;}.cls-5{mix-blend-mode:screen;}</style></defs><g class="cls-1"><g id="Layer_1" data-name="Layer 1"><path class="cls-2" d="M4.3,17.22l.76-.73c.5-.48,1.24-1.16,2.22-2A37.37,37.37,0,0,1,11,11.77c.76-.47,1.58-.95,2.47-1.39a24.58,24.58,0,0,1,2.89-1.21,18.76,18.76,0,0,1,6.91-1,20.92,20.92,0,0,1,7.57,1.91,40.73,40.73,0,0,1,7.25,4.37c1.17.85,2.33,1.75,3.49,2.66s2.33,1.83,3.54,2.7c.61.44,1.23.86,1.88,1.25.33.19.66.38,1,.56s.69.31,1,.47c.18.08.36.13.54.2s.35.14.53.19c.36.11.72.23,1.1.31a12.14,12.14,0,0,0,4.49.24l.56-.1.27-.05.27-.07.54-.14.53-.18a11.4,11.4,0,0,0,2-.93c.32-.18.62-.39.92-.6.15-.1.29-.21.43-.32s.29-.22.42-.34a15.25,15.25,0,0,0,2.79-3.13,20,20,0,0,0,1.88-3.52,24.59,24.59,0,0,0,1.17-3.59c.07-.29.13-.59.2-.88s.11-.58.17-.87.1-.56.16-.83,0-.28.08-.41.07-.26.1-.39A9.15,9.15,0,0,1,69.37,3.9a4.83,4.83,0,0,1,2-1.71,5,5,0,0,1,2.28-.4,8.58,8.58,0,0,1,2,.35A13.51,13.51,0,0,1,78.3,3.29c.3.17.52.3.66.4l.21.13.5-.7-.07,0L79.42,3l-.7-.42a14.41,14.41,0,0,0-2.85-1.22A9.3,9.3,0,0,0,73.66.93,6.19,6.19,0,0,0,71,1.4a5.61,5.61,0,0,0-2.32,2,9.49,9.49,0,0,0-1.31,3.05c0,.14-.08.28-.11.42l-.09.42c0,.29-.11.57-.17.86s-.1.56-.16.85-.13.56-.19.85a24.91,24.91,0,0,1-1.13,3.46,19.24,19.24,0,0,1-1.8,3.37,14.74,14.74,0,0,1-2.63,3c-.12.11-.26.21-.39.31l-.41.31c-.28.18-.55.38-.85.55a10.37,10.37,0,0,1-1.85.86l-.49.17-.5.13-.25.06-.26.05c-.17,0-.34.07-.51.09a12.15,12.15,0,0,1-2.09.09A12.58,12.58,0,0,1,51.39,22a9.67,9.67,0,0,1-1-.28l-.51-.18-.5-.19a18.07,18.07,0,0,1-3.74-2.18c-1.19-.86-2.35-1.77-3.51-2.68s-2.33-1.82-3.52-2.68a40.88,40.88,0,0,0-7.4-4.46,24.17,24.17,0,0,0-3.93-1.38,20.21,20.21,0,0,0-4-.6,19.47,19.47,0,0,0-7.22,1,25,25,0,0,0-3,1.25c-.93.46-1.76,1-2.54,1.44a36,36,0,0,0-3.82,2.8c-1,.84-1.75,1.54-2.26,2l-.77.75Z"/><path class="cls-3" d="M4.31,17.24l.76-.73c.5-.48,1.24-1.17,2.22-2A35,35,0,0,1,11,11.79a25.66,25.66,0,0,1,2.46-1.39,23.88,23.88,0,0,1,2.89-1.21,18.67,18.67,0,0,1,6.9-1,21.13,21.13,0,0,1,7.56,1.91,40.09,40.09,0,0,1,7.25,4.36c1.17.86,2.32,1.76,3.49,2.67s2.32,1.83,3.54,2.7c.61.44,1.23.86,1.88,1.25.33.19.66.38,1,.55s.69.32,1,.47a4.87,4.87,0,0,0,.53.21c.18.06.35.14.53.19.37.1.73.23,1.1.31a12.22,12.22,0,0,0,2.25.33,12.07,12.07,0,0,0,2.25-.09l.56-.1.28-.05.27-.07.54-.14.53-.18a11.07,11.07,0,0,0,2-.94c.32-.17.62-.39.92-.59s.29-.22.43-.32.29-.22.42-.34a15.35,15.35,0,0,0,2.8-3.14,20.37,20.37,0,0,0,1.88-3.53,24.48,24.48,0,0,0,1.17-3.58c.07-.3.13-.59.2-.89s.11-.58.17-.87.11-.56.16-.83,0-.27.08-.4.07-.27.1-.4a9.09,9.09,0,0,1,1.19-2.78,4.75,4.75,0,0,1,2-1.71,5.24,5.24,0,0,1,2.27-.39,8.5,8.5,0,0,1,2,.35,13.51,13.51,0,0,1,2.67,1.15c.3.16.52.3.66.39l.21.14.14-.19-.22-.14c-.15-.1-.37-.24-.67-.4a13.19,13.19,0,0,0-2.72-1.17,8.9,8.9,0,0,0-2.06-.37A5.36,5.36,0,0,0,71.25,2a5,5,0,0,0-2,1.79A8.94,8.94,0,0,0,68,6.63c0,.14-.08.27-.11.4l-.08.41c-.06.28-.11.55-.17.84s-.1.58-.16.87-.13.58-.2.87a24.89,24.89,0,0,1-1.16,3.55,19.27,19.27,0,0,1-1.86,3.49,15.1,15.1,0,0,1-2.75,3.09c-.13.12-.27.22-.41.33s-.28.22-.43.32a9.22,9.22,0,0,1-.9.58,11.32,11.32,0,0,1-2,.92l-.52.17-.53.14-.27.07-.27.05c-.18,0-.35.07-.54.09a11.45,11.45,0,0,1-4.41-.23c-.37-.08-.72-.2-1.08-.3l-.53-.19c-.18-.07-.35-.12-.52-.2a18.19,18.19,0,0,1-3.87-2.25c-1.21-.87-2.38-1.79-3.54-2.7s-2.32-1.81-3.49-2.67A40.74,40.74,0,0,0,30.93,9.9,21.15,21.15,0,0,0,23.28,8a18.74,18.74,0,0,0-7,1,22.69,22.69,0,0,0-2.91,1.22c-.91.44-1.72.93-2.49,1.4a36.44,36.44,0,0,0-3.75,2.75c-1,.83-1.73,1.52-2.23,2l-.76.73Z"/><polygon class="cls-4" points="78.54 3.37 78.61 3.41 79 2.76 78.92 2.72 78.54 3.37"/><polygon class="cls-4" points="77.58 2.86 77.65 2.89 77.99 2.22 77.91 2.18 77.58 2.86"/><polygon class="cls-4" points="76.58 2.42 76.66 2.45 76.94 1.75 76.86 1.72 76.58 2.42"/><polygon class="cls-4" points="75.56 2.07 75.64 2.09 75.85 1.37 75.76 1.34 75.56 2.07"/><polygon class="cls-4" points="74.51 1.83 74.59 1.84 74.72 1.1 74.63 1.09 74.51 1.83"/><polygon class="cls-4" points="73.45 1.74 73.53 1.73 73.55 0.98 73.46 0.98 73.45 1.74"/><polygon class="cls-4" points="72.4 1.81 72.48 1.8 72.36 1.06 72.28 1.07 72.4 1.81"/><polygon class="cls-4" points="71.41 2.1 71.48 2.07 71.2 1.37 71.12 1.41 71.41 2.1"/><polygon class="cls-4" points="70.52 2.61 70.58 2.56 70.15 1.95 70.07 2.01 70.52 2.61"/><polygon class="cls-4" points="69.76 3.32 69.81 3.26 69.25 2.75 69.19 2.82 69.76 3.32"/><polygon class="cls-4" points="69.14 4.17 69.18 4.1 68.54 3.7 68.5 3.78 69.14 4.17"/><polygon class="cls-4" points="68.66 5.12 68.69 5.05 68 4.74 67.97 4.82 68.66 5.12"/><polygon class="cls-4" points="68.28 6.13 68.31 6.05 67.59 5.83 67.56 5.91 68.28 6.13"/><polygon class="cls-4" points="68.01 7.19 68.02 7.11 67.29 6.93 67.27 7.02 68.01 7.19"/><polygon class="cls-4" points="67.79 8.27 67.81 8.18 67.07 8.05 67.05 8.14 67.79 8.27"/><polygon class="cls-4" points="67.58 9.38 67.59 9.3 66.86 9.14 66.84 9.22 67.58 9.38"/><rect class="cls-4" x="66.91" y="9.97" width="0.09" height="0.75" transform="matrix(0.25, -0.97, 0.97, 0.25, 40.08, 72.54)"/><rect class="cls-4" x="66.61" y="11.04" width="0.09" height="0.75" transform="translate(36.46 71.93) rotate(-73.21)"/><polygon class="cls-4" points="66.64 12.65 66.67 12.57 65.96 12.31 65.93 12.39 66.64 12.65"/><polygon class="cls-4" points="66.22 13.71 66.26 13.63 65.56 13.34 65.53 13.42 66.22 13.71"/><polygon class="cls-4" points="65.76 14.75 65.79 14.67 65.11 14.34 65.08 14.42 65.76 14.75"/><polygon class="cls-4" points="65.23 15.76 65.28 15.68 64.62 15.32 64.58 15.39 65.23 15.76"/><polygon class="cls-4" points="64.65 16.74 64.7 16.66 64.06 16.26 64.01 16.33 64.65 16.74"/><polygon class="cls-4" points="64 17.68 64.05 17.61 63.44 17.17 63.39 17.23 64 17.68"/><polygon class="cls-4" points="63.29 18.58 63.35 18.51 62.77 18.03 62.72 18.09 63.29 18.58"/><polygon class="cls-4" points="62.52 19.42 62.58 19.36 62.04 18.83 61.98 18.89 62.52 19.42"/><polygon class="cls-4" points="61.68 20.2 61.74 20.15 61.25 19.58 61.19 19.63 61.68 20.2"/><path class="cls-4" d="M60.77,20.92l0,0,0,0-.44-.62a.07.07,0,0,1,0,0l0,0Z"/><polygon class="cls-4" points="59.8 21.54 59.88 21.49 59.49 20.85 59.42 20.89 59.8 21.54"/><polygon class="cls-4" points="58.78 22.08 58.86 22.04 58.54 21.36 58.47 21.39 58.78 22.08"/><polygon class="cls-4" points="57.71 22.5 57.79 22.47 57.54 21.76 57.46 21.79 57.71 22.5"/><polygon class="cls-4" points="56.59 22.82 56.68 22.8 56.51 22.06 56.43 22.08 56.59 22.82"/><polygon class="cls-4" points="55.45 23.01 55.54 23 55.45 22.25 55.37 22.26 55.45 23.01"/><rect class="cls-4" x="54.3" y="22.34" width="0.08" height="0.75" transform="translate(-0.43 1.06) rotate(-1.11)"/><polygon class="cls-4" points="53.15 23.06 53.24 23.07 53.29 22.32 53.21 22.31 53.15 23.06"/><polygon class="cls-4" points="52.01 22.91 52.09 22.93 52.22 22.18 52.13 22.17 52.01 22.91"/><polygon class="cls-4" points="50.88 22.67 50.97 22.69 51.15 21.96 51.08 21.95 50.88 22.67"/><polygon class="cls-4" points="49.79 22.33 49.87 22.36 50.12 21.64 50.04 21.62 49.79 22.33"/><polygon class="cls-4" points="48.72 21.91 48.8 21.94 49.1 21.25 49.02 21.21 48.72 21.91"/><polygon class="cls-4" points="47.69 21.41 47.76 21.45 48.12 20.78 48.05 20.74 47.69 21.41"/><polygon class="cls-4" points="46.7 20.83 46.78 20.88 47.17 20.23 47.1 20.19 46.7 20.83"/><polygon class="cls-4" points="45.75 20.21 45.83 20.25 46.25 19.63 46.18 19.58 45.75 20.21"/><polygon class="cls-4" points="44.83 19.55 44.9 19.6 45.34 18.99 45.28 18.94 44.83 19.55"/><polygon class="cls-4" points="43.93 18.88 44 18.93 44.45 18.33 44.38 18.28 43.93 18.88"/><polygon class="cls-4" points="43.04 18.2 43.11 18.25 43.57 17.65 43.5 17.6 43.04 18.2"/><polygon class="cls-4" points="42.15 17.51 42.22 17.56 42.69 16.97 42.62 16.91 42.15 17.51"/><polygon class="cls-4" points="41.27 16.82 41.34 16.87 41.8 16.28 41.74 16.23 41.27 16.82"/><polygon class="cls-4" points="40.39 16.13 40.46 16.18 40.92 15.59 40.85 15.54 40.39 16.13"/><polygon class="cls-4" points="39.51 15.45 39.58 15.5 40.03 14.9 39.97 14.85 39.51 15.45"/><polygon class="cls-4" points="38.62 14.78 38.68 14.83 39.13 14.23 39.07 14.18 38.62 14.78"/><rect class="cls-4" x="37.6" y="13.8" width="0.75" height="0.09" transform="matrix(0.6, -0.8, 0.8, 0.6, 4.21, 36.06)"/><polygon class="cls-4" points="36.81 13.48 36.88 13.53 37.31 12.91 37.24 12.87 36.81 13.48"/><rect class="cls-4" x="35.76" y="12.53" width="0.75" height="0.08" transform="translate(5.72 35.77) rotate(-56.52)"/><rect class="cls-4" x="34.82" y="11.92" width="0.75" height="0.09" transform="translate(6.41 35.48) rotate(-58.02)"/><polygon class="cls-4" points="34.01 11.68 34.08 11.72 34.47 11.08 34.39 11.03 34.01 11.68"/><polygon class="cls-4" points="33.05 11.14 33.12 11.18 33.48 10.52 33.41 10.47 33.05 11.14"/><polygon class="cls-4" points="32.07 10.62 32.14 10.66 32.48 9.99 32.41 9.95 32.07 10.62"/><polygon class="cls-4" points="31.07 10.14 31.15 10.18 31.46 9.49 31.39 9.46 31.07 10.14"/><polygon class="cls-4" points="30.06 9.7 30.14 9.73 30.42 9.04 30.34 9 30.06 9.7"/><polygon class="cls-4" points="29.03 9.31 29.11 9.34 29.36 8.63 29.28 8.6 29.03 9.31"/><rect class="cls-4" x="27.76" y="8.57" width="0.75" height="0.09" transform="translate(10.97 32.51) rotate(-71.33)"/><rect class="cls-4" x="26.68" y="8.28" width="0.75" height="0.08" transform="translate(12.4 32.54) rotate(-75.92)"/><rect class="cls-4" x="25.59" y="8.03" width="0.75" height="0.09" transform="translate(13.14 32.05) rotate(-79.14)"/><rect class="cls-4" x="24.48" y="7.86" width="0.75" height="0.09" transform="translate(13.68 31.47) rotate(-82.26)"/><polygon class="cls-4" points="23.56 8.15 23.65 8.15 23.7 7.4 23.61 7.39 23.56 8.15"/><polygon class="cls-4" points="22.47 8.11 22.55 8.11 22.56 7.36 22.47 7.36 22.47 8.11"/><polygon class="cls-4" points="21.37 8.14 21.45 8.13 21.42 7.38 21.33 7.38 21.37 8.14"/><polygon class="cls-4" points="20.28 8.23 20.36 8.22 20.28 7.47 20.19 7.49 20.28 8.23"/><polygon class="cls-4" points="19.2 8.39 19.27 8.38 19.15 7.64 19.06 7.65 19.2 8.39"/><rect class="cls-4" x="18.03" y="7.86" width="0.09" height="0.75" transform="translate(-1.42 4.41) rotate(-13.38)"/><path class="cls-4" d="M17.06,8.9l0,0h0l-.21-.72h-.05l0,0Z"/><polygon class="cls-4" points="16.01 9.24 16.09 9.21 15.84 8.5 15.76 8.53 16.01 9.24"/><rect class="cls-4" x="14.84" y="8.89" width="0.08" height="0.75" transform="translate(-2.4 6.3) rotate(-22.17)"/><polygon class="cls-4" points="13.98 10.08 14.05 10.04 13.74 9.36 13.66 9.4 13.98 10.08"/><rect class="cls-4" x="12.81" y="9.84" width="0.09" height="0.75" transform="translate(-3.26 7.04) rotate(-27.34)"/><rect class="cls-4" x="11.83" y="10.37" width="0.09" height="0.75" transform="translate(-3.73 7.12) rotate(-29.07)"/><polygon class="cls-4" points="11.07 11.67 11.15 11.62 10.75 10.98 10.68 11.03 11.07 11.67"/><polygon class="cls-4" points="10.15 12.27 10.22 12.22 9.8 11.6 9.73 11.65 10.15 12.27"/><polygon class="cls-4" points="9.24 12.91 9.31 12.86 8.87 12.25 8.8 12.3 9.24 12.91"/><polygon class="cls-4" points="8.36 13.57 8.42 13.52 7.96 12.93 7.9 12.98 8.36 13.57"/><polygon class="cls-4" points="7.49 14.26 7.56 14.21 7.08 13.63 7.01 13.68 7.49 14.26"/><polygon class="cls-4" points="6.64 14.98 6.71 14.93 6.22 14.36 6.15 14.41 6.64 14.98"/><rect class="cls-4" x="5.55" y="15.03" width="0.09" height="0.76" transform="translate(-8.91 7.77) rotate(-42.27)"/><polygon class="cls-4" points="5 16.47 5.06 16.42 4.54 15.87 4.48 15.93 5 16.47"/><path class="cls-5" d="M4,16.88l.76-.74C5.23,15.65,6,15,7,14.13a37.19,37.19,0,0,1,3.77-2.77c.77-.48,1.6-1,2.51-1.42A25.6,25.6,0,0,1,16.2,8.71a19.28,19.28,0,0,1,7.09-1,20.26,20.26,0,0,1,3.88.59A23.82,23.82,0,0,1,31,9.65a40.6,40.6,0,0,1,7.34,4.41c1.18.86,2.34,1.77,3.5,2.68s2.33,1.83,3.53,2.69a18.4,18.4,0,0,0,3.81,2.22l.51.19.52.19c.35.1.7.22,1.06.29a12.15,12.15,0,0,0,2.15.33,11.94,11.94,0,0,0,2.16-.1c.18,0,.36-.06.53-.09l.27-.05.26-.06.51-.14L57.7,22a10.11,10.11,0,0,0,1.91-.9,10.23,10.23,0,0,0,.89-.56l.41-.32a4.12,4.12,0,0,0,.41-.32,15.44,15.44,0,0,0,2.7-3,20.38,20.38,0,0,0,1.83-3.44A24.36,24.36,0,0,0,67,10c.06-.3.13-.58.19-.87s.11-.57.17-.86.11-.56.16-.84.06-.28.08-.42.08-.27.11-.41A9.22,9.22,0,0,1,69,3.63a5.22,5.22,0,0,1,2.17-1.89,5.64,5.64,0,0,1,2.5-.44,8.91,8.91,0,0,1,2.13.37,13.68,13.68,0,0,1,2.77,1.2c.61.34.92.56.92.56l.13-.2a2.41,2.41,0,0,0-.24-.15l-.69-.42a14.15,14.15,0,0,0-2.83-1.21,9,9,0,0,0-2.18-.39A5.94,5.94,0,0,0,71,1.53a5.38,5.38,0,0,0-2.26,2,9.65,9.65,0,0,0-1.3,3c0,.14-.07.28-.1.42l-.09.42c-.05.28-.11.56-.17.85S67,8.76,67,9s-.13.57-.19.86a25.22,25.22,0,0,1-1.14,3.48,18.89,18.89,0,0,1-1.81,3.4,14.4,14.4,0,0,1-2.66,3,3.89,3.89,0,0,1-.39.32l-.41.31c-.29.19-.56.39-.86.55a10.73,10.73,0,0,1-1.88.88l-.49.17-.51.13-.25.06-.26.05-.52.09a11.43,11.43,0,0,1-2.11.09,11,11,0,0,1-2.12-.32c-.35-.07-.69-.19-1-.29-.17-.05-.34-.12-.5-.18a5.27,5.27,0,0,1-.51-.19,18.79,18.79,0,0,1-3.77-2.19c-1.19-.86-2.35-1.78-3.52-2.69s-2.32-1.81-3.51-2.68a41.55,41.55,0,0,0-7.38-4.44,23.81,23.81,0,0,0-3.9-1.37,19.9,19.9,0,0,0-3.93-.6,19.23,19.23,0,0,0-7.17,1,24.69,24.69,0,0,0-3,1.24c-.92.45-1.75.95-2.53,1.43A35.63,35.63,0,0,0,6.82,14c-1,.84-1.75,1.53-2.26,2l-.77.74Z"/></g></g></svg>