<?xml version="1.0" encoding="utf-8"?>
<!-- Generator: Adobe Illustrator 24.1.2, SVG Export Plug-In . SVG Version: 6.00 Build 0)  -->
<svg version="1.1" id="Calque_1" xmlns="http://www.w3.org/2000/svg" xmlns:xlink="http://www.w3.org/1999/xlink" x="0px" y="0px"
	 viewBox="0 0 841.9 595.3" style="enable-background:new 0 0 841.9 595.3;" xml:space="preserve">
<style type="text/css">
	.st0{opacity:0.2;fill:#757EBC;enable-background:new    ;}
	.st1{fill:#FFFFFF;}
</style>
<path id="Tracé_76684" class="st0" d="M-8.2,484.3c4.9-53.8,39.6-127.6,89.6-157.7c21-16.5,46.9-28.5,74.4-25.9
	c29.2,2.7,56.6,21.4,77.9,44.1c21.3,22.8,37.9,49.7,56.2,75.2c59.5,83,138.6,151.4,227.2,196.4c35.8,18.2,73.7,32.7,112.2,37.1
	c92.3,10.5,181.5-42.9,220-126.4c19.9-43.1,27.1-94.5,14.3-143.5c-7.6-29-23.7-58.4-49.8-72.2c-39.3-20.8-84.3,2.1-110.7,34.2
	s-42.6,73.2-71.9,102.5c-52.3,52.5-139.5,56.7-211.9,25.4s-131.6-92.7-178.3-159.7c-30.8-44.1-57.8-92.8-66.3-145
	c-3.7-22.9-3.5-46.9,6-66.5c9.5-19.7,29.9-33.9,51.8-30.5c27.9,4.3,48.4,34.5,54.4,63.5s2,58.1,3.2,87.3
	c2.1,48.9,20.5,99.3,54.4,136.4s83.4,59.2,129.3,53.3s85.5-41.6,93.1-89c4-25.1-0.5-51.8-9.3-76.8c-15.8-45.2-45.6-86.1-83.4-114.7
	c-30.6-23.1-65.7-38-97.1-60S317,17.5,312.7-20.3c-3.9-34.4,14.9-67.4,43.4-81.9c28.5-14.6,64.8-11.8,95.4,3.9
	c13.6,7,26.5,16.7,35,29.8c18.1,27.9,12.5,62.9,11.4,95c-1.5,43.2,8.4,91.1,39.9,122.6c31.7,31.7,83,45.5,98,87.7
	c4.4,12.4,4.8,25.6,7.8,38.3c3.1,12.7,10,26.1,21.8,31.1c17.6,7.4,34.5-7.9,42.3-24.5c24.5-52.6,2.1-120.9-33-172.6
	c-35.1-51.7-82.1-94.3-116.3-146.6c-19.5-29.8-36.5-64.3-66.8-81.2c-32.3-17.9-69.8-10.1-102.4,0.9C218.5-60.4,43.9,13.2-28.1,183.4
	"/>
<g>
	<path id="Tracé_76685" class="st1" d="M335.8,272.3c-2.6-0.2-4.6-2.5-4.4-5.1c0.2-2.6,2.5-4.6,5.1-4.4c2.5,0.2,4.4,2.3,4.4,4.7
		C340.8,270.2,338.5,272.3,335.8,272.3z"/>
	<path id="Tracé_76686" class="st1" d="M97.2,175.4c-2.6-0.2-4.6-2.5-4.4-5.1c0.2-2.6,2.5-4.6,5.1-4.4c2.5,0.2,4.4,2.3,4.4,4.7
		C102.2,173.4,99.9,175.5,97.2,175.4z"/>
	<path id="Tracé_76687" class="st1" d="M793.4,326.2c-2.6-0.2-4.6-2.5-4.4-5.1c0.2-2.6,2.5-4.6,5.1-4.4c2.5,0.2,4.4,2.3,4.4,4.7
		C798.4,324.2,796.1,326.3,793.4,326.2z"/>
	<path id="Tracé_76688" class="st1" d="M611.6,100.6c-2.6-0.2-4.6-2.5-4.4-5.1c0.2-2.6,2.5-4.6,5.1-4.4c2.5,0.2,4.4,2.3,4.4,4.7
		C616.6,98.5,614.3,100.7,611.6,100.6z"/>
	<path id="Tracé_76689" class="st1" d="M469.6,343.1c-2.6-0.2-4.6-2.5-4.4-5.1c0.2-2.6,2.5-4.6,5.1-4.4c2.5,0.2,4.4,2.3,4.4,4.7
		C474.6,341.1,472.3,343.2,469.6,343.1z"/>
	<path id="Tracé_76690" class="st1" d="M685.1,567.6c-2.6-0.2-4.6-2.5-4.4-5.1c0.2-2.6,2.5-4.6,5.1-4.4c2.5,0.2,4.4,2.3,4.4,4.7
		C690.1,565.6,687.8,567.7,685.1,567.6z"/>
	<path id="Tracé_76691" class="st1" d="M178.8,21.8c-2.6-0.2-4.6-2.5-4.4-5.1c0.2-2.6,2.5-4.6,5.1-4.4c2.5,0.2,4.4,2.3,4.4,4.7
		C183.8,19.8,181.5,21.9,178.8,21.8z"/>
	<path id="Tracé_76692" class="st1" d="M236,49.4c-0.6,0-1-0.5-0.9-1c0-0.6,0.5-1,1-0.9c0.5,0,0.9,0.5,1,1
		C237,49,236.6,49.4,236,49.4C236,49.4,236,49.4,236,49.4z"/>
	<path id="Tracé_76693" class="st1" d="M494.6,57.7c-0.6,0-1-0.5-0.9-1c0-0.6,0.5-1,1-0.9c0.5,0,0.9,0.5,1,1
		C495.7,57.2,495.2,57.7,494.6,57.7C494.7,57.7,494.6,57.7,494.6,57.7z"/>
	<path id="Tracé_76694" class="st1" d="M678.4,253.3c-0.6,0-1-0.5-0.9-1c0-0.6,0.5-1,1-0.9c0.5,0,0.9,0.5,1,1
		C679.5,252.8,679,253.3,678.4,253.3C678.5,253.3,678.5,253.3,678.4,253.3z"/>
	<path id="Tracé_76695" class="st1" d="M458.6,309c-0.5,0.1-1.1-0.2-1.2-0.8c-0.1-0.5,0.2-1.1,0.8-1.2c0.1,0,0.3,0,0.4,0
		c0.5-0.1,1.1,0.2,1.2,0.8c0.1,0.5-0.2,1.1-0.8,1.2C458.9,309,458.7,309,458.6,309z"/>
	<ellipse id="Ellipse_246" class="st1" cx="131.6" cy="232.3" rx="1" ry="1"/>
	<path id="Tracé_76697" class="st1" d="M302.9,86.5c-0.6,0-1-0.5-0.9-1s0.5-1,1-0.9c0.5,0,0.9,0.5,1,1l0,0
		C303.9,86.1,303.5,86.5,302.9,86.5C302.9,86.5,302.9,86.5,302.9,86.5z"/>
	<path id="Tracé_76698" class="st1" d="M407.3,377.2c-0.5,0.1-1.1-0.2-1.2-0.7c-0.1-0.5,0.2-1.1,0.7-1.2c0.2,0,0.3,0,0.5,0
		c0.6,0,1,0.4,1.1,0.9c0,0,0,0,0,0.1l0,0C408.4,376.8,407.9,377.3,407.3,377.2C407.3,377.2,407.3,377.2,407.3,377.2z"/>
	<path id="Tracé_76699" class="st1" d="M810.6,358.6c-0.6,0-1-0.5-0.9-1.1s0.5-1,1.1-0.9c0.5,0,0.9,0.5,0.9,1l0,0
		C811.7,358.1,811.3,358.6,810.6,358.6C810.7,358.6,810.7,358.6,810.6,358.6z"/>
	<path id="Tracé_76700" class="st1" d="M598.9,68.3c-0.6,0-1-0.4-1-1s0.4-1,1-1c0.6,0,1,0.4,1,1S599.4,68.3,598.9,68.3z"/>
	<path id="Tracé_76701" class="st1" d="M447.9,49.4c-0.6,0-1-0.5-0.9-1.1s0.5-1,1.1-0.9c0.5,0,0.9,0.5,0.9,1
		C448.9,49,448.5,49.4,447.9,49.4C447.9,49.4,447.9,49.4,447.9,49.4z"/>
	<ellipse id="Ellipse_247" class="st1" cx="783.8" cy="368.4" rx="1" ry="1"/>
	<path id="Tracé_76702" class="st1" d="M431.6,336.6c-0.6,0-1-0.5-0.9-1.1s0.5-1,1.1-0.9c0.5,0,0.9,0.5,0.9,1
		C432.7,336.1,432.2,336.6,431.6,336.6C431.7,336.6,431.6,336.6,431.6,336.6z"/>
	<path id="Tracé_76703" class="st1" d="M135.8,50.4c-0.6,0-1-0.4-1-1s0.4-1,1-1s1,0.4,1,1S136.3,50.4,135.8,50.4z"/>
	<path id="Tracé_76704" class="st1" d="M101.6,105.4c-0.6,0-1-0.5-0.9-1c0-0.6,0.5-1,1-0.9c0.5,0,0.9,0.5,1,1
		C102.7,104.9,102.2,105.4,101.6,105.4C101.7,105.4,101.6,105.4,101.6,105.4z"/>
	<path id="Tracé_76705" class="st1" d="M441.3,320c-0.5,0.1-1.1-0.2-1.2-0.8c-0.1-0.5,0.2-1.1,0.8-1.2c0.1,0,0.3,0,0.4,0
		c0.6,0,1,0.4,1,0.9c0,0,0,0,0,0.1l0,0C442.3,319.6,441.8,320,441.3,320C441.3,320,441.3,320,441.3,320z"/>
	<path id="Tracé_76706" class="st1" d="M635.7,112.9c-0.6,0-1-0.5-0.9-1.1c0-0.6,0.5-1,1.1-0.9c0.5,0,0.9,0.5,0.9,1
		C636.7,112.5,636.3,112.9,635.7,112.9C635.7,112.9,635.7,112.9,635.7,112.9z"/>
	<path id="Tracé_76707" class="st1" d="M133.7,249.4c-0.6,0-1-0.4-1-1s0.4-1,1-1s1,0.4,1,1S134.2,249.4,133.7,249.4z"/>
	<path id="Tracé_76708" class="st1" d="M335.9,465.1c-0.6,0-1-0.4-1-1s0.4-1,1-1s1,0.4,1,1S336.4,465.1,335.9,465.1z"/>
	<path id="Tracé_76709" class="st1" d="M11.7,394.7c-0.5,0.1-1.1-0.2-1.2-0.8c-0.1-0.5,0.2-1.1,0.8-1.2c0.1,0,0.3,0,0.4,0
		c0.5-0.1,1.1,0.2,1.2,0.8c0.1,0.5-0.2,1.1-0.8,1.2C12,394.8,11.9,394.8,11.7,394.7z"/>
	<path id="Tracé_76710" class="st1" d="M110.8,246.6c-0.6,0-1-0.5-0.9-1.1c0-0.6,0.5-1,1.1-0.9c0.5,0,0.9,0.5,0.9,1
		C111.9,246.1,111.5,246.6,110.8,246.6C110.9,246.6,110.9,246.6,110.8,246.6z"/>
	<path id="Tracé_76711" class="st1" d="M275.6,38c-0.5,0.2-1.1-0.1-1.3-0.6c-0.1-0.5,0.1-1,0.6-1.2c0,0,0,0,0.1,0
		c0.5-0.2,1.1,0.1,1.3,0.6C276.5,37.3,276.2,37.8,275.6,38C275.7,38,275.7,38,275.6,38z"/>
	<path id="Tracé_76712" class="st1" d="M449.2,516.2c-0.5,0.2-1.1-0.1-1.3-0.6c-0.1-0.5,0.1-1,0.6-1.2c0,0,0,0,0.1,0
		c0.5-0.2,1.1,0.1,1.3,0.6C450,515.5,449.8,516,449.2,516.2C449.3,516.2,449.2,516.2,449.2,516.2z"/>
	<path id="Tracé_76713" class="st1" d="M798.3,395.6c-0.5,0.2-1.1-0.1-1.3-0.6c-0.1-0.5,0.1-1,0.6-1.2l0,0c0.5-0.2,1.1,0.1,1.3,0.6
		C799.1,394.9,798.8,395.5,798.3,395.6C798.3,395.6,798.3,395.6,798.3,395.6z"/>
	<path id="Tracé_76714" class="st1" d="M284.6,84.6c-1.2-0.1-2.1-1.2-2-2.4s1.2-2.1,2.4-2c1.1,0.1,2,1,2,2.2
		C286.9,83.6,285.8,84.6,284.6,84.6C284.6,84.6,284.6,84.6,284.6,84.6z"/>
	<path id="Tracé_76715" class="st1" d="M746.9,525.1c-1.2-0.1-2.1-1.2-2-2.4c0.1-1.2,1.2-2.1,2.4-2c1.1,0.1,2,1,2,2.2
		C749.2,524.1,748.1,525.1,746.9,525.1C746.9,525.1,746.9,525.1,746.9,525.1z"/>
	<path id="Tracé_76716" class="st1" d="M91.2,79.8c-1.2-0.1-2.1-1.2-2-2.4c0.1-1.2,1.2-2.1,2.4-2c1.1,0.1,2,1,2,2.2
		C93.5,78.9,92.4,79.9,91.2,79.8z"/>
	<path id="Tracé_76717" class="st1" d="M409.3,320.2c-1.2-0.1-2.1-1.2-2-2.4c0.1-1.2,1.2-2.1,2.4-2c1.1,0.1,2,1,2,2.2
		C411.6,319.3,410.5,320.3,409.3,320.2C409.3,320.2,409.3,320.2,409.3,320.2z"/>
	<path id="Tracé_76718" class="st1" d="M532.7,98c-1.2-0.1-2.1-1.2-2-2.4c0.1-1.2,1.2-2.1,2.4-2c1.1,0.1,2,1,2,2.2
		C535,97.1,533.9,98.1,532.7,98z"/>
	<path id="Tracé_76719" class="st1" d="M568.9,56.2c-1.2-0.1-2.1-1.2-2-2.4c0.1-1.2,1.2-2.1,2.4-2c1.1,0.1,2,1,2,2.2
		C571.2,55.2,570.1,56.2,568.9,56.2z"/>
	<path id="Tracé_76720" class="st1" d="M386.5,508.2c-1.2-0.1-2.1-1.2-2-2.4c0.1-1.2,1.2-2.1,2.4-2c1.1,0.1,2,1,2,2.2
		C388.8,507.2,387.8,508.2,386.5,508.2z"/>
	<path id="Tracé_76721" class="st1" d="M286.9,233.5c-1.2-0.1-2.1-1.2-2-2.4c0.1-1.2,1.2-2.1,2.4-2c1.1,0.1,2,1,2,2.2
		C289.3,232.5,288.2,233.5,286.9,233.5z"/>
	<path id="Tracé_76722" class="st1" d="M457,235.7c-1.2-0.1-2.1-1.2-2-2.4c0.1-1.2,1.2-2.1,2.4-2c1.1,0.1,2,1,2,2.2
		C459.4,234.7,458.3,235.7,457,235.7C457,235.7,457,235.7,457,235.7z"/>
	<path id="Tracé_76723" class="st1" d="M491.2,310.2c-1.2-0.1-2.1-1.2-2-2.4c0.1-1.2,1.2-2.1,2.4-2c1.1,0.1,2,1,2,2.2
		C493.5,309.3,492.5,310.2,491.2,310.2z"/>
	<path id="Tracé_76724" class="st1" d="M431.6,197.9c-1.2-0.1-2.1-1.2-2-2.4c0.1-1.2,1.2-2.1,2.4-2c1.1,0.1,2,1,2,2.2
		C433.9,197,432.9,198,431.6,197.9C431.6,197.9,431.6,197.9,431.6,197.9z"/>
	<path id="Tracé_76725" class="st1" d="M190.3,237.9c-1.2-0.1-2.1-1.2-2-2.4c0.1-1.2,1.2-2.1,2.4-2c1.1,0.1,2,1,2,2.2
		C192.6,236.9,191.5,237.9,190.3,237.9C190.3,237.9,190.3,237.9,190.3,237.9z"/>
	<path id="Tracé_76726" class="st1" d="M300.4,48.5c-1.2-0.1-2.1-1.2-2-2.4c0.1-1.2,1.2-2.1,2.4-2c1.1,0.1,2,1,2,2.2
		C302.8,47.5,301.7,48.5,300.4,48.5z"/>
	<path id="Tracé_76727" class="st1" d="M800.1,416.2c-1.2-0.1-2.1-1.1-2.1-2.3c0.1-1.2,1.1-2.1,2.3-2.1c1.2,0.1,2.1,1,2.1,2.2
		C802.3,415.3,801.3,416.2,800.1,416.2z"/>
	<path id="Tracé_76728" class="st1" d="M652.4,136.3c-1.2-0.1-2.1-1.2-2-2.4c0.1-1.2,1.2-2.1,2.4-2c1.1,0.1,2,1,2,2.2
		C654.7,135.3,653.6,136.3,652.4,136.3z"/>
	<path id="Tracé_76729" class="st1" d="M577.8,16c-1.2-0.1-2.1-1.2-2-2.4s1.2-2.1,2.4-2c1.1,0.1,2,1,2,2.2
		C580.1,15,579,16,577.8,16z"/>
	<path id="Tracé_76730" class="st1" d="M443.7,82.3c-1.2-0.1-2.1-1.2-2-2.4c0.1-1.2,1.2-2.1,2.4-2c1.1,0.1,2,1,2,2.2
		C446,81.4,444.9,82.4,443.7,82.3C443.7,82.3,443.7,82.3,443.7,82.3z"/>
	<path id="Tracé_76731" class="st1" d="M628.3,200.1c-1.2-0.1-2.1-1.2-2-2.4c0.1-1.2,1.2-2.1,2.4-2c1.1,0.1,2,1,2,2.2
		C630.7,199.2,629.6,200.2,628.3,200.1z"/>
	<path id="Tracé_76732" class="st1" d="M440.2,298.5c-1.2-0.1-2.1-1.2-2-2.4c0.1-1.2,1.2-2.1,2.4-2c1.2,0.1,2,1.1,2,2.2
		C442.6,297.6,441.5,298.5,440.2,298.5z"/>
	<path id="Tracé_76702_1_" class="st1" d="M761.6,547.8c0.4-0.4,1-0.3,1.4,0.1c0.4,0.4,0.3,1-0.1,1.4c-0.4,0.4-1,0.3-1.4,0
		C761.1,548.9,761.1,548.3,761.6,547.8C761.5,547.9,761.6,547.9,761.6,547.8z"/>
	<path id="Tracé_76705_2_" class="st1" d="M766.5,566.4c0.3-0.5,0.9-0.6,1.4-0.3s0.6,0.9,0.3,1.4c-0.1,0.1-0.2,0.2-0.3,0.3
		c-0.4,0.4-1,0.4-1.4,0.1c0,0,0,0,0,0l0,0C766,567.4,766,566.8,766.5,566.4C766.5,566.4,766.5,566.4,766.5,566.4z"/>
	<path id="Tracé_76717_2_" class="st1" d="M788.9,543.6c0.9-0.8,2.3-0.7,3.1,0.3c0.8,0.9,0.7,2.3-0.3,3.1c-0.9,0.7-2.2,0.7-3-0.1
		C787.9,545.9,788,544.5,788.9,543.6C788.9,543.6,788.9,543.6,788.9,543.6z"/>
	<path id="Tracé_76732_2_" class="st1" d="M782.4,580.9c0.9-0.8,2.3-0.7,3.1,0.2c0.8,0.9,0.7,2.3-0.2,3.1c-0.9,0.8-2.2,0.7-3-0.1
		C781.4,583.2,781.5,581.7,782.4,580.9z"/>
	<path id="Tracé_76695_1_" class="st1" d="M72.6,300.3c-0.5,0.1-1.1-0.2-1.2-0.8c-0.1-0.5,0.2-1.1,0.8-1.2c0.1,0,0.3,0,0.4,0
		c0.5-0.1,1.1,0.2,1.2,0.8c0.1,0.5-0.2,1.1-0.8,1.2C72.9,300.3,72.7,300.3,72.6,300.3z"/>
	<path id="Tracé_76705_1_" class="st1" d="M55.3,311.3c-0.5,0.1-1.1-0.2-1.2-0.8c-0.1-0.5,0.2-1.1,0.8-1.2c0.1,0,0.3,0,0.4,0
		c0.6,0,1,0.4,1,0.9c0,0,0,0,0,0.1l0,0C56.3,310.9,55.8,311.3,55.3,311.3C55.3,311.3,55.3,311.3,55.3,311.3z"/>
	<path id="Tracé_76717_1_" class="st1" d="M23.2,311.6c-1.2-0.1-2.1-1.2-2-2.4c0.1-1.2,1.2-2.1,2.4-2c1.1,0.1,2,1,2,2.2
		C25.6,310.6,24.5,311.6,23.2,311.6C23.2,311.6,23.2,311.6,23.2,311.6z"/>
	<path id="Tracé_76732_1_" class="st1" d="M54.2,289.9c-1.2-0.1-2.1-1.2-2-2.4c0.1-1.2,1.2-2.1,2.4-2c1.2,0.1,2,1.1,2,2.2
		C56.5,288.9,55.5,289.9,54.2,289.9z"/>
	<path id="Tracé_76733" class="st1" d="M315.8,117.7L315.8,117.7c5.6,0,10.2-4.2,10.2-9.4l0,0c0,5.2,4.6,9.4,10.2,9.4l0,0
		c-5.6,0-10.2,4.2-10.2,9.4l0,0C326,121.9,321.4,117.7,315.8,117.7z"/>
	<path id="Tracé_76734" class="st1" d="M520.4,286.9L520.4,286.9c5.6,0,10.2-4.2,10.2-9.4l0,0c0,5.2,4.6,9.4,10.2,9.4l0,0
		c-5.6,0-10.2,4.2-10.2,9.4l0,0C530.6,291.1,526.1,286.9,520.4,286.9z"/>
	<path id="Tracé_76734_1_" class="st1" d="M520.4,36.1L520.4,36.1c5.6,0,10.2-4.2,10.2-9.4l0,0c0,5.2,4.6,9.4,10.2,9.4l0,0
		c-5.6,0-10.2,4.2-10.2,9.4l0,0C530.6,40.3,526.1,36.1,520.4,36.1z"/>
	<path id="Tracé_76735" class="st1" d="M21.2,242.9L21.2,242.9c5.6,0,10.2-4.2,10.2-9.4l0,0c0,5.2,4.6,9.4,10.2,9.4l0,0
		c-5.6,0-10.2,4.2-10.2,9.4l0,0C31.4,247.1,26.8,242.9,21.2,242.9z"/>
	<path id="Tracé_76736" class="st1" d="M747,399.1L747,399.1c5.6,0,10.2-4.2,10.2-9.4l0,0c0,5.2,4.6,9.4,10.2,9.4l0,0
		c-5.6,0-10.2,4.2-10.2,9.4l0,0C757.2,403.3,752.6,399.1,747,399.1z"/>
</g>
</svg>
