<svg xmlns="http://www.w3.org/2000/svg" xmlns:xlink="http://www.w3.org/1999/xlink" viewBox="0 0 234.85 141.56"><defs><style>.cls-1{mask:url(#mask);filter:url(#luminosity-noclip-8);}.cls-10,.cls-12,.cls-14,.cls-2,.cls-4,.cls-6,.cls-8{mix-blend-mode:multiply;}.cls-2{fill:url(#_ÂÁ_Ï_ÌÌ_È_ËÂÌÚ_27);}.cls-3{mask:url(#mask-2);filter:url(#luminosity-noclip-13);}.cls-4{fill:url(#_ÂÁ_Ï_ÌÌ_È_ËÂÌÚ_27-2);}.cls-5{mask:url(#mask-3);filter:url(#luminosity-noclip-14);}.cls-6{fill:url(#_ÂÁ_Ï_ÌÌ_È_ËÂÌÚ_27-3);}.cls-7{mask:url(#mask-4);filter:url(#luminosity-noclip-9);}.cls-8{fill:url(#_ÂÁ_Ï_ÌÌ_È_ËÂÌÚ_27-4);}.cls-9{mask:url(#mask-5);filter:url(#luminosity-noclip-10);}.cls-10{fill:url(#_ÂÁ_Ï_ÌÌ_È_ËÂÌÚ_27-5);}.cls-11{mask:url(#mask-6);filter:url(#luminosity-noclip-11);}.cls-12{fill:url(#_ÂÁ_Ï_ÌÌ_È_ËÂÌÚ_27-6);}.cls-13{mask:url(#mask-7);filter:url(#luminosity-noclip-12);}.cls-14{fill:url(#_ÂÁ_Ï_ÌÌ_È_ËÂÌÚ_27-7);}.cls-15{fill:url(#_ÂÁ_Ï_ÌÌ_È_ËÂÌÚ_284);}.cls-16{fill:url(#_ÂÁ_Ï_ÌÌ_È_ËÂÌÚ_254);}.cls-17,.cls-18,.cls-20,.cls-29,.cls-30{fill:#155027;}.cls-18{opacity:0.69;}.cls-19{fill:url(#_ÂÁ_Ï_ÌÌ_È_ËÂÌÚ_284-2);}.cls-20{opacity:0.68;}.cls-21{fill:url(#_ÂÁ_Ï_ÌÌ_È_ËÂÌÚ_272);}.cls-22{fill:url(#_ÂÁ_Ï_ÌÌ_È_ËÂÌÚ_283);}.cls-23{fill:url(#_ÂÁ_Ï_ÌÌ_È_ËÂÌÚ_254-2);}.cls-24{fill:url(#_ÂÁ_Ï_ÌÌ_È_ËÂÌÚ_260);}.cls-25{mask:url(#mask-8);}.cls-26{opacity:0.79;fill:url(#_ÂÁ_Ï_ÌÌ_È_ËÂÌÚ_37);}.cls-27{fill:url(#_ÂÁ_Ï_ÌÌ_È_ËÂÌÚ_271);}.cls-28{fill:url(#_ÂÁ_Ï_ÌÌ_È_ËÂÌÚ_267);}.cls-29{opacity:0.39;}.cls-30{opacity:0.49;}.cls-31{fill:url(#_ÂÁ_Ï_ÌÌ_È_ËÂÌÚ_254-3);}.cls-32{fill:url(#_ÂÁ_Ï_ÌÌ_È_ËÂÌÚ_272-2);}.cls-33{mask:url(#mask-9);}.cls-34{opacity:0.54;fill:url(#_ÂÁ_Ï_ÌÌ_È_ËÂÌÚ_37-2);}.cls-35{fill:url(#_ÂÁ_Ï_ÌÌ_È_ËÂÌÚ_284-3);}.cls-36{fill:url(#_ÂÁ_Ï_ÌÌ_È_ËÂÌÚ_73);}.cls-37{fill:url(#_ÂÁ_Ï_ÌÌ_È_ËÂÌÚ_284-4);}.cls-38{fill:#570100;}.cls-39{mask:url(#mask-10);}.cls-40{fill:url(#_ÂÁ_Ï_ÌÌ_È_ËÂÌÚ_37-3);}.cls-41{mask:url(#mask-11);}.cls-42{fill:url(#_ÂÁ_Ï_ÌÌ_È_ËÂÌÚ_37-4);}.cls-43{fill:url(#_ÂÁ_Ï_ÌÌ_È_ËÂÌÚ_254-4);}.cls-44{mask:url(#mask-12);}.cls-45{opacity:0.52;fill:url(#_ÂÁ_Ï_ÌÌ_È_ËÂÌÚ_37-5);}.cls-46{mask:url(#mask-13);}.cls-47{fill:url(#_ÂÁ_Ï_ÌÌ_È_ËÂÌÚ_37-6);}.cls-48{fill:url(#_ÂÁ_Ï_ÌÌ_È_ËÂÌÚ_271-2);}.cls-49{mask:url(#mask-14);}.cls-50{fill:url(#_ÂÁ_Ï_ÌÌ_È_ËÂÌÚ_37-7);}.cls-51{fill:url(#_ÂÁ_Ï_ÌÌ_È_ËÂÌÚ_271-3);}.cls-52{filter:url(#luminosity-noclip-7);}.cls-53{filter:url(#luminosity-noclip-6);}.cls-54{filter:url(#luminosity-noclip-5);}.cls-55{filter:url(#luminosity-noclip-4);}.cls-56{filter:url(#luminosity-noclip-3);}.cls-57{filter:url(#luminosity-noclip-2);}.cls-58{filter:url(#luminosity-noclip);}</style><filter id="luminosity-noclip" x="63.78" y="-8213.56" width="64.59" height="32766" filterUnits="userSpaceOnUse" color-interpolation-filters="sRGB"><feFlood flood-color="#fff" result="bg"/><feBlend in="SourceGraphic" in2="bg"/></filter><mask id="mask" x="63.78" y="-8213.56" width="64.59" height="32766" maskUnits="userSpaceOnUse"><g class="cls-58"/></mask><linearGradient id="_ÂÁ_Ï_ÌÌ_È_ËÂÌÚ_27" x1="-868.6" y1="615.83" x2="-836.65" y2="615.83" gradientTransform="translate(-862.54 -318.09) rotate(-120.2)" gradientUnits="userSpaceOnUse"><stop offset="0"/><stop offset="1" stop-color="#fff"/></linearGradient><filter id="luminosity-noclip-2" x="111.89" y="-8213.56" width="18.65" height="32766" filterUnits="userSpaceOnUse" color-interpolation-filters="sRGB"><feFlood flood-color="#fff" result="bg"/><feBlend in="SourceGraphic" in2="bg"/></filter><mask id="mask-2" x="111.89" y="-8213.56" width="18.65" height="32766" maskUnits="userSpaceOnUse"><g class="cls-57"/></mask><linearGradient id="_ÂÁ_Ï_ÌÌ_È_ËÂÌÚ_27-2" x1="-868.33" y1="630.26" x2="-847.63" y2="646.44" xlink:href="#_ÂÁ_Ï_ÌÌ_È_ËÂÌÚ_27"/><filter id="luminosity-noclip-3" x="81.8" y="-8213.56" width="27.79" height="32766" filterUnits="userSpaceOnUse" color-interpolation-filters="sRGB"><feFlood flood-color="#fff" result="bg"/><feBlend in="SourceGraphic" in2="bg"/></filter><mask id="mask-3" x="81.8" y="-8213.56" width="27.79" height="32766" maskUnits="userSpaceOnUse"><g class="cls-56"/></mask><linearGradient id="_ÂÁ_Ï_ÌÌ_È_ËÂÌÚ_27-3" x1="-812.34" y1="634.45" x2="-803.36" y2="641.47" xlink:href="#_ÂÁ_Ï_ÌÌ_È_ËÂÌÚ_27"/><filter id="luminosity-noclip-4" x="97.2" y="-8213.56" width="34.18" height="32766" filterUnits="userSpaceOnUse" color-interpolation-filters="sRGB"><feFlood flood-color="#fff" result="bg"/><feBlend in="SourceGraphic" in2="bg"/></filter><mask id="mask-4" x="97.2" y="-8213.56" width="34.18" height="32766" maskUnits="userSpaceOnUse"><g class="cls-55"/></mask><linearGradient id="_ÂÁ_Ï_ÌÌ_È_ËÂÌÚ_27-4" x1="-843.94" y1="637.25" x2="-828.42" y2="649.38" xlink:href="#_ÂÁ_Ï_ÌÌ_È_ËÂÌÚ_27"/><filter id="luminosity-noclip-5" x="72.21" y="-8213.56" width="28.86" height="32766" filterUnits="userSpaceOnUse" color-interpolation-filters="sRGB"><feFlood flood-color="#fff" result="bg"/><feBlend in="SourceGraphic" in2="bg"/></filter><mask id="mask-5" x="72.21" y="-8213.56" width="28.86" height="32766" maskUnits="userSpaceOnUse"><g class="cls-54"/></mask><linearGradient id="_ÂÁ_Ï_ÌÌ_È_ËÂÌÚ_27-5" x1="-851.8" y1="601.1" x2="-843.8" y2="608.3" xlink:href="#_ÂÁ_Ï_ÌÌ_È_ËÂÌÚ_27"/><filter id="luminosity-noclip-6" x="66.8" y="-8213.56" width="20.74" height="32766" filterUnits="userSpaceOnUse" color-interpolation-filters="sRGB"><feFlood flood-color="#fff" result="bg"/><feBlend in="SourceGraphic" in2="bg"/></filter><mask id="mask-6" x="66.8" y="-8213.56" width="20.74" height="32766" maskUnits="userSpaceOnUse"><g class="cls-53"/></mask><linearGradient id="_ÂÁ_Ï_ÌÌ_È_ËÂÌÚ_27-6" x1="-843.99" y1="594.67" x2="-835.6" y2="602.23" xlink:href="#_ÂÁ_Ï_ÌÌ_È_ËÂÌÚ_27"/><filter id="luminosity-noclip-7" x="133.72" y="-8213.56" width="38.84" height="32766" filterUnits="userSpaceOnUse" color-interpolation-filters="sRGB"><feFlood flood-color="#fff" result="bg"/><feBlend in="SourceGraphic" in2="bg"/></filter><mask id="mask-7" x="133.72" y="-8213.56" width="38.84" height="32766" maskUnits="userSpaceOnUse"><g class="cls-52"/></mask><linearGradient id="_ÂÁ_Ï_ÌÌ_È_ËÂÌÚ_27-7" x1="-885.84" y1="665.05" x2="-866.11" y2="665.05" xlink:href="#_ÂÁ_Ï_ÌÌ_È_ËÂÌÚ_27"/><linearGradient id="_ÂÁ_Ï_ÌÌ_È_ËÂÌÚ_284" x1="-832.44" y1="663.06" x2="-778.19" y2="663.06" gradientTransform="translate(-862.54 -318.09) rotate(-120.2)" gradientUnits="userSpaceOnUse"><stop offset="0" stop-color="#22a112"/><stop offset="1" stop-color="#156b27"/></linearGradient><linearGradient id="_ÂÁ_Ï_ÌÌ_È_ËÂÌÚ_254" x1="-803.09" y1="664.24" x2="-778.19" y2="664.24" gradientTransform="translate(-862.54 -318.09) rotate(-120.2)" gradientUnits="userSpaceOnUse"><stop offset="0" stop-color="#15b827"/><stop offset="1" stop-color="#83ff3f"/></linearGradient><linearGradient id="_ÂÁ_Ï_ÌÌ_È_ËÂÌÚ_284-2" x1="-886.57" y1="663.06" x2="-832.31" y2="663.06" xlink:href="#_ÂÁ_Ï_ÌÌ_È_ËÂÌÚ_284"/><linearGradient id="_ÂÁ_Ï_ÌÌ_È_ËÂÌÚ_272" x1="-868.6" y1="620.39" x2="-832.65" y2="620.39" gradientTransform="translate(-862.54 -318.09) rotate(-120.2)" gradientUnits="userSpaceOnUse"><stop offset="0" stop-color="#83ff3f"/><stop offset="1" stop-color="#15b827"/></linearGradient><linearGradient id="_ÂÁ_Ï_ÌÌ_È_ËÂÌÚ_283" x1="-832.65" y1="620.39" x2="-796.71" y2="620.39" gradientTransform="translate(-862.54 -318.09) rotate(-120.2)" gradientUnits="userSpaceOnUse"><stop offset="0" stop-color="#61cc12"/><stop offset="1" stop-color="#15b827"/></linearGradient><linearGradient id="_ÂÁ_Ï_ÌÌ_È_ËÂÌÚ_254-2" x1="-868.6" y1="622.17" x2="-832.65" y2="622.17" xlink:href="#_ÂÁ_Ï_ÌÌ_È_ËÂÌÚ_254"/><linearGradient id="_ÂÁ_Ï_ÌÌ_È_ËÂÌÚ_260" x1="-832.65" y1="622.17" x2="-796.71" y2="622.17" gradientTransform="translate(-862.54 -318.09) rotate(-120.2)" gradientUnits="userSpaceOnUse"><stop offset="0" stop-color="#15b827"/><stop offset="1" stop-color="#61cc12"/></linearGradient><filter id="luminosity-noclip-8" x="63.78" y="98.27" width="64.59" height="22.35" filterUnits="userSpaceOnUse" color-interpolation-filters="sRGB"><feFlood flood-color="#fff" result="bg"/><feBlend in="SourceGraphic" in2="bg"/></filter><mask id="mask-8" x="63.78" y="98.27" width="64.59" height="22.35" maskUnits="userSpaceOnUse"><g class="cls-1"><path class="cls-2" d="M93.17,100.73c13.68-2,27.08-3,35.2-2.13a62.34,62.34,0,0,1-9.84,17.34s-21,8.29-39.29,2.79c-8.21-2.47-12.91-5.58-15.46-7.86C70,107,80.69,102.55,93.17,100.73Z"/></g></mask><linearGradient id="_ÂÁ_Ï_ÌÌ_È_ËÂÌÚ_37" x1="-868.6" y1="615.83" x2="-836.65" y2="615.83" gradientTransform="translate(-862.54 -318.09) rotate(-120.2)" gradientUnits="userSpaceOnUse"><stop offset="0" stop-color="#fff"/><stop offset="1" stop-color="#fff"/></linearGradient><linearGradient id="_ÂÁ_Ï_ÌÌ_È_ËÂÌÚ_271" x1="-848.3" y1="628.47" x2="-814.96" y2="655.46" gradientTransform="translate(-862.54 -318.09) rotate(-120.2)" gradientUnits="userSpaceOnUse"><stop offset="0" stop-color="#22c212"/><stop offset="1" stop-color="#156b27"/></linearGradient><linearGradient id="_ÂÁ_Ï_ÌÌ_È_ËÂÌÚ_267" x1="-850.8" y1="639.25" x2="-813.82" y2="639.25" gradientTransform="translate(-862.54 -318.09) rotate(-120.2)" gradientUnits="userSpaceOnUse"><stop offset="0" stop-color="#156b27"/><stop offset="1" stop-color="#22a112"/></linearGradient><linearGradient id="_ÂÁ_Ï_ÌÌ_È_ËÂÌÚ_254-3" x1="-843.2" y1="646.03" x2="-822.1" y2="646.03" xlink:href="#_ÂÁ_Ï_ÌÌ_È_ËÂÌÚ_254"/><linearGradient id="_ÂÁ_Ï_ÌÌ_È_ËÂÌÚ_272-2" x1="-842.42" y1="646.03" x2="-822.88" y2="646.03" xlink:href="#_ÂÁ_Ï_ÌÌ_È_ËÂÌÚ_272"/><filter id="luminosity-noclip-9" x="97.2" y="70.57" width="34.18" height="19.12" filterUnits="userSpaceOnUse" color-interpolation-filters="sRGB"><feFlood flood-color="#fff" result="bg"/><feBlend in="SourceGraphic" in2="bg"/></filter><mask id="mask-9" x="97.2" y="70.57" width="34.18" height="19.12" maskUnits="userSpaceOnUse"><g class="cls-7"><path class="cls-8" d="M105.17,70.72a30.47,30.47,0,0,1,7,.11C121.3,72.05,131.38,77,131.38,77a10.53,10.53,0,0,1-4.09,4.45c-9.62,5.75-24.36,12.66-29.11,4.5C95.23,80.88,99.3,75.41,105.17,70.72Z"/></g></mask><linearGradient id="_ÂÁ_Ï_ÌÌ_È_ËÂÌÚ_37-2" x1="-843.94" y1="637.25" x2="-828.42" y2="649.38" xlink:href="#_ÂÁ_Ï_ÌÌ_È_ËÂÌÚ_37"/><linearGradient id="_ÂÁ_Ï_ÌÌ_È_ËÂÌÚ_284-3" x1="-852.78" y1="608.04" x2="-842.05" y2="616.73" xlink:href="#_ÂÁ_Ï_ÌÌ_È_ËÂÌÚ_284"/><linearGradient id="_ÂÁ_Ï_ÌÌ_È_ËÂÌÚ_73" x1="-859.03" y1="605.93" x2="-832.65" y2="605.93" gradientTransform="translate(-862.54 -318.09) rotate(-120.2)" gradientUnits="userSpaceOnUse"><stop offset="0" stop-color="#b70400"/><stop offset="1" stop-color="#85001c"/></linearGradient><linearGradient id="_ÂÁ_Ï_ÌÌ_È_ËÂÌÚ_284-4" x1="712.53" y1="607.28" x2="723.25" y2="615.96" gradientTransform="matrix(0.5, 0.86, 0.86, -0.5, -811.58, -232.05)" xlink:href="#_ÂÁ_Ï_ÌÌ_È_ËÂÌÚ_284"/><filter id="luminosity-noclip-10" x="72.21" y="105.8" width="28.86" height="10.29" filterUnits="userSpaceOnUse" color-interpolation-filters="sRGB"><feFlood flood-color="#fff" result="bg"/><feBlend in="SourceGraphic" in2="bg"/></filter><mask id="mask-10" x="72.21" y="105.8" width="28.86" height="10.29" maskUnits="userSpaceOnUse"><g class="cls-9"><path class="cls-10" d="M79.35,114.31a39.38,39.38,0,0,1-7.14-2.85L90.4,105.8c.61.24,1.24.46,1.9.69a55.93,55.93,0,0,0,8.77,2.12l-13.68,7.48A72.56,72.56,0,0,1,79.35,114.31Z"/></g></mask><linearGradient id="_ÂÁ_Ï_ÌÌ_È_ËÂÌÚ_37-3" x1="-851.8" y1="601.1" x2="-843.8" y2="608.3" xlink:href="#_ÂÁ_Ï_ÌÌ_È_ËÂÌÚ_37"/><filter id="luminosity-noclip-11" x="66.8" y="102.21" width="20.74" height="9.26" filterUnits="userSpaceOnUse" color-interpolation-filters="sRGB"><feFlood flood-color="#fff" result="bg"/><feBlend in="SourceGraphic" in2="bg"/></filter><mask id="mask-11" x="66.8" y="102.21" width="20.74" height="9.26" maskUnits="userSpaceOnUse"><g class="cls-11"><path class="cls-12" d="M66.8,108.31l16.34-6.1h0a38.51,38.51,0,0,0,4.39,2.38l-15.33,6.87h0A56.9,56.9,0,0,1,66.8,108.31Z"/></g></mask><linearGradient id="_ÂÁ_Ï_ÌÌ_È_ËÂÌÚ_37-4" x1="-843.99" y1="594.67" x2="-835.6" y2="602.23" xlink:href="#_ÂÁ_Ï_ÌÌ_È_ËÂÌÚ_37"/><linearGradient id="_ÂÁ_Ï_ÌÌ_È_ËÂÌÚ_254-4" x1="-886.57" y1="664.24" x2="-861.66" y2="664.24" xlink:href="#_ÂÁ_Ï_ÌÌ_È_ËÂÌÚ_254"/><filter id="luminosity-noclip-12" x="133.72" y="97.81" width="38.84" height="10.66" filterUnits="userSpaceOnUse" color-interpolation-filters="sRGB"><feFlood flood-color="#fff" result="bg"/><feBlend in="SourceGraphic" in2="bg"/></filter><mask id="mask-12" x="133.72" y="97.81" width="38.84" height="10.66" maskUnits="userSpaceOnUse"><g class="cls-13"><path class="cls-14" d="M172.57,104.44,171.19,103s-10.11-5.9-20.66-5.08-16,6.41-16,6.41l-.84,1.16,28.68,3Z"/></g></mask><linearGradient id="_ÂÁ_Ï_ÌÌ_È_ËÂÌÚ_37-5" x1="-885.84" y1="665.05" x2="-866.11" y2="665.05" xlink:href="#_ÂÁ_Ï_ÌÌ_È_ËÂÌÚ_37"/><filter id="luminosity-noclip-13" x="111.89" y="90.45" width="18.65" height="24.92" filterUnits="userSpaceOnUse" color-interpolation-filters="sRGB"><feFlood flood-color="#fff" result="bg"/><feBlend in="SourceGraphic" in2="bg"/></filter><mask id="mask-13" x="111.89" y="90.45" width="18.65" height="24.92" maskUnits="userSpaceOnUse"><g class="cls-3"><path class="cls-4" d="M119.21,114.89s-6.33-2.84-6-7.54c.46-5.69,17.15-16.11,17.15-16.11l.13-.79s-18.31,9.84-18.64,17.14c-.26,6,7,7.78,7,7.78Z"/></g></mask><linearGradient id="_ÂÁ_Ï_ÌÌ_È_ËÂÌÚ_37-6" x1="-868.33" y1="630.26" x2="-847.63" y2="646.44" xlink:href="#_ÂÁ_Ï_ÌÌ_È_ËÂÌÚ_37"/><linearGradient id="_ÂÁ_Ï_ÌÌ_È_ËÂÌÚ_271-2" x1="-868.57" y1="629.57" x2="-846.57" y2="647.39" xlink:href="#_ÂÁ_Ï_ÌÌ_È_ËÂÌÚ_271"/><filter id="luminosity-noclip-14" x="81.8" y="53.5" width="27.79" height="10.48" filterUnits="userSpaceOnUse" color-interpolation-filters="sRGB"><feFlood flood-color="#fff" result="bg"/><feBlend in="SourceGraphic" in2="bg"/></filter><mask id="mask-14" x="81.8" y="53.5" width="27.79" height="10.48" maskUnits="userSpaceOnUse"><g class="cls-5"><path class="cls-6" d="M82.08,54.05l.29-.24.34-.07c-.06,1.44,0,6.83,3.64,8.55,5,2.34,21.31-6.32,22.42-6.91l.06,0,.76.27,0,0c-.85.53-17.73,10.94-24.08,7.71-4.34-2.22-3.8-7.4-3.44-9.27,0-.27.1-.48.13-.59C82.14,53.6,82.11,53.79,82.08,54.05Z"/></g></mask><linearGradient id="_ÂÁ_Ï_ÌÌ_È_ËÂÌÚ_37-7" x1="-812.34" y1="634.45" x2="-803.36" y2="641.47" xlink:href="#_ÂÁ_Ï_ÌÌ_È_ËÂÌÚ_37"/><linearGradient id="_ÂÁ_Ï_ÌÌ_È_ËÂÌÚ_271-3" x1="-812.71" y1="634.37" x2="-803.54" y2="641.8" xlink:href="#_ÂÁ_Ï_ÌÌ_È_ËÂÌÚ_271"/></defs><g id="planets"><polygon class="cls-15" points="122.6 8.97 126.22 25.04 131.64 49.06 135.11 64.46 113.73 76.21 113.36 76.42 112.92 76.66 112.54 76.22 94.34 55.31 95.51 52.63 98.33 46.2 102.73 36.13 106.03 28.58 110.27 18.88 122.6 8.97"/><polygon class="cls-16" points="122.6 8.97 121.49 12.46 110.71 20.11 103.57 37 96.94 52.72 95.51 52.63 98.33 46.2 102.73 36.13 106.03 28.58 110.27 18.88 122.6 8.97"/><polygon class="cls-17" points="121.49 12.46 134.19 64.97 135.11 64.46 122.6 8.97 121.49 12.46"/><path class="cls-18" d="M102.73,36.13h0q.38.42.84.87a40.26,40.26,0,0,0,16.52,9.82c6.07,1.91,9.69,1.84,11.55,2.24l3.47,15.4L114.2,76.63l-.84-.21-.82-.2L94.34,55.31l1.17-2.69,2.81-6.42Z"/><polygon class="cls-19" points="135.04 64.35 146.72 74.98 164.93 91.55 177.11 102.64 162.4 108.47 151.88 107.36 132.75 105.36 132.75 105.36 122.86 104.32 113.67 78.17 113.48 77.61 114.27 77.13 135.04 64.35"/><path class="cls-20" d="M135,64.35,146.72,75c-.57,1.82-1.66,5.13-3.75,11.15a66.68,66.68,0,0,1-10.22,19.23h0l-9.89-1-9.19-26.15.36-2Z"/><path class="cls-21" d="M59.54,108.68l65.9-38.35a30.18,30.18,0,0,1,3.94,17.8c0,.32,0,.64-.08,1s-.07.66-.12,1a43.74,43.74,0,0,1-2.34,9.42,72.27,72.27,0,0,1-8.31,16.44S96,125.13,77.7,119.62c-8.2-2.47-12.9-5.58-15.46-7.85A12.68,12.68,0,0,1,59.54,108.68Z"/><path class="cls-22" d="M82.37,53.81s.41.52,3.51.29c5.54-.42,14.8-.41,23.46,2.91l.92.37.44.19.45.19.28.13.45.21c.73.34,1.46.71,2.17,1.11l.47.27c.55.31,1.08.65,1.62,1l.51.35a29.33,29.33,0,0,1,2.83,2.22l.41.37q.72.64,1.41,1.38l.29.31.78.88.35.42.4.5.21.27c.1.12.19.25.28.37l0,0a29.91,29.91,0,0,1,1.79,2.73l-65.9,38.35s-3.95-6.2-.54-21.2C63.23,68.9,82.37,53.81,82.37,53.81Z"/><path class="cls-23" d="M61.07,107.79,127,69.44a30.08,30.08,0,0,1,3.93,17.8c0,.32,0,.64-.08,1s-.07.65-.11,1a44.25,44.25,0,0,1-2.35,9.41,62.34,62.34,0,0,1-9.84,17.34s-21,8.29-39.29,2.79c-8.21-2.47-12.91-5.58-15.46-7.86A12.79,12.79,0,0,1,61.07,107.79Z"/><path class="cls-24" d="M82.37,53.81l.34-.07c.69-.11,2.37-.36,4.71-.54a57.77,57.77,0,0,1,21.35,2.18l.78.26h0l.87.3.45.17.93.37.44.19.44.19L113,57l.45.21c.74.35,1.46.72,2.18,1.12.15.09.31.17.46.27.55.31,1.09.65,1.62,1l.51.35A29.21,29.21,0,0,1,121,62.15l.41.37q.72.66,1.41,1.38l.29.32c.27.28.53.58.78.87s.24.28.35.43.28.33.41.5l.21.27.27.37a.1.1,0,0,1,0,0,32.23,32.23,0,0,1,1.8,2.73L61.07,107.79s-4-6.2-.54-21.2c3.63-15.9,17-28.59,20.83-31.93l.67-.57,0,0Z"/><g class="cls-25"><path class="cls-26" d="M93.17,100.73c13.68-2,27.08-3,35.2-2.13a62.34,62.34,0,0,1-9.84,17.34s-21,8.29-39.29,2.79c-8.21-2.47-12.91-5.58-15.46-7.86C70,107,80.69,102.55,93.17,100.73Z"/></g><path class="cls-27" d="M88.62,79.65A13.9,13.9,0,0,0,89.91,91a13.66,13.66,0,0,0,9.18,6.66c9.8,2.19,23.15-3.79,31.62-8.47,0-.34.08-.66.12-1s.06-.64.08-1a30,30,0,0,0-18.23-30.37l-.89-.38-.93-.37C102.73,61.36,91.44,70.1,88.62,79.65Zm1.51.45a12.37,12.37,0,0,0,1.15,10.1,12.11,12.11,0,0,0,8.16,5.91c9.57,2.14,23.25-4.26,31.47-8.88a30,30,0,0,0-18.23-30.37C104.7,61.93,92.89,70.76,90.13,80.1Z"/><path class="cls-28" d="M111.8,56.49l.44.19.44.19L113,57l.45.21c.74.35,1.46.72,2.18,1.12.15.09.31.17.46.27.55.31,1.09.65,1.62,1l.51.35A29.21,29.21,0,0,1,121,62.15l.41.37q.72.66,1.41,1.38l.29.32c.27.28.53.58.78.87s.24.28.35.43.28.33.41.5l.21.27.28.37,0,0a32.23,32.23,0,0,1,1.8,2.73c.44.76.84,1.53,1.2,2.3a30.53,30.53,0,0,1,2.65,16.46c-11.42,6.36-32.53,15.63-40.23,2.41a14,14,0,0,1-1.09-2.33c-3.14-8.76,4.13-17.73,12.35-24.58A98.33,98.33,0,0,1,111.8,56.49Z"/><path class="cls-29" d="M128.18,71.74a30.53,30.53,0,0,1,2.65,16.46c-11.42,6.36-32.53,15.63-40.23,2.41a14,14,0,0,1-1.09-2.33c1.63.35,9.59,1.65,19.83-2.89C117.16,81.93,124.37,75.5,128.18,71.74Z"/><path class="cls-30" d="M87.42,53.2c5.54-.41,14.8-.4,23.45,2.92l.93.37.44.19.44.19L113,57l.45.21c.74.35,1.46.72,2.18,1.12.15.09.31.17.46.27.55.31,1.09.65,1.62,1l.51.35A29.21,29.21,0,0,1,121,62.15l.41.37q.72.66,1.41,1.38l.29.32c.27.28.53.58.78.87s.24.28.35.43.28.33.41.5l.21.27.28.37h0L97.22,82l4.64-18.27.34-1.35a37.92,37.92,0,0,0-6.66-5.88A21.66,21.66,0,0,0,87.42,53.2Z"/><path class="cls-31" d="M116.92,63.14a10.52,10.52,0,0,1,10.37,18.31c-9.62,5.75-24.36,12.66-29.11,4.5-3-5.07,1.12-10.54,7-15.23A82.29,82.29,0,0,1,116.92,63.14Z"/><path class="cls-32" d="M129.81,67.81a9.77,9.77,0,0,1-3.45,13.29c-8.91,5.32-22.57,11.72-27,4.16s8.23-16.18,17.37-21.12a9.74,9.74,0,0,1,13,3.67Z"/><g class="cls-33"><path class="cls-34" d="M105.17,70.72a30.47,30.47,0,0,1,7,.11C121.3,72.05,131.38,77,131.38,77a10.53,10.53,0,0,1-4.09,4.45c-9.62,5.75-24.36,12.66-29.11,4.5C95.23,80.88,99.3,75.41,105.17,70.72Z"/></g><path class="cls-35" d="M108.9,109.33l-.92-1.59a51.28,51.28,0,0,1-14.64-2c-7.38-2.24-14-8.54-14-8.54L77.9,98l10,11.85,6.37,3.63,6-.11Z"/><path class="cls-36" d="M63.84,106.18,77.9,98a24,24,0,0,0,5.24,4.21h0a38.51,38.51,0,0,0,4.39,2.38h0c.89.41,1.84.82,2.86,1.21.61.24,1.24.46,1.9.69a55.93,55.93,0,0,0,8.77,2.12h0a55.85,55.85,0,0,0,7.83.74l-11,7.53a53.11,53.11,0,0,1-10.53-.78,72.56,72.56,0,0,1-8-1.78,39.38,39.38,0,0,1-7.14-2.85h0a56.9,56.9,0,0,1-5.41-3.16C65,107.08,63.84,106.18,63.84,106.18Z"/><path class="cls-37" d="M83.36,65.44,84.29,67a51.25,51.25,0,0,0-5.48,13.72c-1.7,7.53.48,16.44.48,16.44L77.9,98,72.56,83.4V76.07l3.07-5.17Z"/><path class="cls-38" d="M71.39,71.27a61.14,61.14,0,0,0-7,17.41,49.83,49.83,0,0,0-.59,17.5L77.9,98s-2.3-6.23-.26-16.72a58.56,58.56,0,0,1,5.72-15.84Z"/><g class="cls-39"><path class="cls-40" d="M79.35,114.31a39.38,39.38,0,0,1-7.14-2.85L90.4,105.8c.61.24,1.24.46,1.9.69a55.93,55.93,0,0,0,8.77,2.12l-13.68,7.48A72.56,72.56,0,0,1,79.35,114.31Z"/></g><g class="cls-41"><path class="cls-42" d="M66.8,108.31l16.34-6.1h0a38.51,38.51,0,0,0,4.39,2.38l-15.33,6.87h0A56.9,56.9,0,0,1,66.8,108.31Z"/></g><polygon class="cls-43" points="177.11 102.64 173.52 101.88 161.55 107.48 126.39 103.34 125.77 104.63 162.4 108.47 177.11 102.64"/><polygon class="cls-17" points="173.52 101.88 134.15 64.9 135.04 64.35 177.11 102.64 173.52 101.88"/><g class="cls-44"><path class="cls-45" d="M172.57,104.44,171.19,103s-10.11-5.9-20.66-5.08-16,6.41-16,6.41l-.84,1.16,28.68,3Z"/></g><g class="cls-46"><path class="cls-47" d="M119.21,114.89s-6.33-2.84-6-7.54c.46-5.69,17.15-16.11,17.15-16.11l.13-.79s-18.31,9.84-18.64,17.14c-.26,6,7,7.78,7,7.78Z"/></g><path class="cls-48" d="M118.53,115.94s-6.89-2.38-6.77-8.59c.12-6.72,19-18.17,19-18.17l-.18,1.27s-18.67,10.91-18.43,17c.23,5.84,6.82,7.9,6.82,7.9Z"/><g class="cls-49"><path class="cls-50" d="M82.08,54.05l.29-.24.34-.07c-.06,1.44,0,6.83,3.64,8.55,5,2.34,21.31-6.32,22.42-6.91l.06,0,.76.27,0,0c-.85.53-17.73,10.94-24.08,7.71-4.34-2.22-3.8-7.4-3.44-9.27,0-.27.1-.48.13-.59C82.14,53.6,82.11,53.79,82.08,54.05Z"/></g><path class="cls-51" d="M82.16,53.5c0,.1,0,.29-.08.55-.23,1.75-.44,6.68,3.6,9.19,5.06,3.15,23-7.07,23.87-7.6h0l0,0,.83.33.36.15S91.52,66.82,85.62,63.6c-4.08-2.22-4.37-6.77-4.26-8.94l.67-.57C82.08,53.82,82.13,53.61,82.16,53.5Z"/></g></svg>