<svg xmlns="http://www.w3.org/2000/svg" xmlns:xlink="http://www.w3.org/1999/xlink" viewBox="0 0 234.85 146.09"><defs><style>.cls-1{mask:url(#mask);filter:url(#luminosity-noclip-6);}.cls-10,.cls-2,.cls-4,.cls-6,.cls-8{mix-blend-mode:multiply;}.cls-2{fill:url(#_ÂÁ_Ï_ÌÌ_È_ËÂÌÚ_27);}.cls-3{mask:url(#mask-2);}.cls-4{fill:url(#_ÂÁ_Ï_ÌÌ_È_ËÂÌÚ_76);}.cls-5{mask:url(#mask-3);filter:url(#luminosity-noclip-7);}.cls-6{fill:url(#_ÂÁ_Ï_ÌÌ_È_ËÂÌÚ_27-2);}.cls-7{mask:url(#mask-4);filter:url(#luminosity-noclip-8);}.cls-8{fill:url(#_ÂÁ_Ï_ÌÌ_È_ËÂÌÚ_27-3);}.cls-9{mask:url(#mask-5);filter:url(#luminosity-noclip-9);}.cls-10{fill:url(#_ÂÁ_Ï_ÌÌ_È_ËÂÌÚ_27-4);}.cls-11{isolation:isolate;}.cls-12{fill:url(#_ÂÁ_Ï_ÌÌ_È_ËÂÌÚ_73);}.cls-13{fill:url(#_ÂÁ_Ï_ÌÌ_È_ËÂÌÚ_73-2);}.cls-14{fill:#570100;}.cls-15{fill:url(#_ÂÁ_Ï_ÌÌ_È_ËÂÌÚ_74);}.cls-16{fill:url(#_ÂÁ_Ï_ÌÌ_È_ËÂÌÚ_73-3);}.cls-17{opacity:0.27;fill:url(#_ÂÁ_Ï_ÌÌ_È_ËÂÌÚ_83);}.cls-18{fill:url(#_ÂÁ_Ï_ÌÌ_È_ËÂÌÚ_57);}.cls-19{fill:url(#_ÂÁ_Ï_ÌÌ_È_ËÂÌÚ_73-4);}.cls-20{fill:#750100;}.cls-21{fill:url(#_ÂÁ_Ï_ÌÌ_È_ËÂÌÚ_32);}.cls-22{fill:url(#_ÂÁ_Ï_ÌÌ_È_ËÂÌÚ_8);}.cls-23{fill:url(#_ÂÁ_Ï_ÌÌ_È_ËÂÌÚ_49);}.cls-24{mask:url(#mask-6);}.cls-25,.cls-48{opacity:0.32;}.cls-25{fill:url(#_ÂÁ_Ï_ÌÌ_È_ËÂÌÚ_37);}.cls-26{fill:#2acac4;}.cls-27{fill:#198cae;}.cls-28{fill:#d8fff2;}.cls-29{mask:url(#mask-7);}.cls-30{opacity:0.34;mix-blend-mode:color-dodge;fill:url(#_ÂÁ_Ï_ÌÌ_È_ËÂÌÚ_67);}.cls-31{opacity:0.49;fill:url(#_ÂÁ_Ï_ÌÌ_È_ËÂÌÚ_70);}.cls-32{fill:url(#_ÂÁ_Ï_ÌÌ_È_ËÂÌÚ_57-2);}.cls-33{mask:url(#mask-8);}.cls-34,.cls-39{opacity:0.3;}.cls-34{fill:url(#_ÂÁ_Ï_ÌÌ_È_ËÂÌÚ_37-2);}.cls-35{fill:url(#_ÂÁ_Ï_ÌÌ_È_ËÂÌÚ_54);}.cls-36{fill:url(#_ÂÁ_Ï_ÌÌ_È_ËÂÌÚ_49-2);}.cls-37{fill:url(#_ÂÁ_Ï_ÌÌ_È_ËÂÌÚ_57-3);}.cls-38{mask:url(#mask-9);}.cls-39{fill:url(#_ÂÁ_Ï_ÌÌ_È_ËÂÌÚ_37-3);}.cls-40{fill:url(#_ÂÁ_Ï_ÌÌ_È_ËÂÌÚ_49-3);}.cls-41{fill:url(#_ÂÁ_Ï_ÌÌ_È_ËÂÌÚ_54-2);}.cls-42{fill:url(#_ÂÁ_Ï_ÌÌ_È_ËÂÌÚ_92);}.cls-43{fill:url(#_ÂÁ_Ï_ÌÌ_È_ËÂÌÚ_93);}.cls-44{fill:url(#_ÂÁ_Ï_ÌÌ_È_ËÂÌÚ_73-5);}.cls-45{fill:url(#_ÂÁ_Ï_ÌÌ_È_ËÂÌÚ_92-2);}.cls-46{fill:url(#_ÂÁ_Ï_ÌÌ_È_ËÂÌÚ_92-3);}.cls-47{mask:url(#mask-10);}.cls-48{fill:url(#_ÂÁ_Ï_ÌÌ_È_ËÂÌÚ_37-4);}.cls-49{filter:url(#luminosity-noclip-5);}.cls-50{filter:url(#luminosity-noclip-4);}.cls-51{filter:url(#luminosity-noclip-3);}.cls-52{filter:url(#luminosity-noclip-2);}.cls-53{filter:url(#luminosity-noclip);}</style><filter id="luminosity-noclip" x="88.82" y="-8039.87" width="68.82" height="32766" filterUnits="userSpaceOnUse" color-interpolation-filters="sRGB"><feFlood flood-color="#fff" result="bg"/><feBlend in="SourceGraphic" in2="bg"/></filter><mask id="mask" x="88.82" y="-8039.87" width="68.82" height="32766" maskUnits="userSpaceOnUse"><g class="cls-53"/></mask><linearGradient id="_ÂÁ_Ï_ÌÌ_È_ËÂÌÚ_27" x1="-58.9" y1="-891.94" x2="-31.5" y2="-891.94" gradientTransform="translate(-575.66 588.77) rotate(54.37)" gradientUnits="userSpaceOnUse"><stop offset="0"/><stop offset="1" stop-color="#fff"/></linearGradient><filter id="luminosity-noclip-2" x="96.19" y="-8039.87" width="43.47" height="32766" filterUnits="userSpaceOnUse" color-interpolation-filters="sRGB"><feFlood flood-color="#fff" result="bg"/><feBlend in="SourceGraphic" in2="bg"/></filter><mask id="mask-2" x="96.19" y="-8039.87" width="43.47" height="32766" maskUnits="userSpaceOnUse"><g class="cls-52"/></mask><radialGradient id="_ÂÁ_Ï_ÌÌ_È_ËÂÌÚ_76" cx="-899.93" cy="-718.74" r="18.09" gradientTransform="matrix(-0.77, -1.08, -1.01, 0.72, -1304.49, -392.42)" gradientUnits="userSpaceOnUse"><stop offset="0" stop-color="#fff"/><stop offset="0.78"/></radialGradient><filter id="luminosity-noclip-3" x="116" y="-8039.87" width="16.08" height="32766" filterUnits="userSpaceOnUse" color-interpolation-filters="sRGB"><feFlood flood-color="#fff" result="bg"/><feBlend in="SourceGraphic" in2="bg"/></filter><mask id="mask-3" x="116" y="-8039.87" width="16.08" height="32766" maskUnits="userSpaceOnUse"><g class="cls-51"/></mask><linearGradient id="_ÂÁ_Ï_ÌÌ_È_ËÂÌÚ_27-2" x1="-6.66" y1="-864.74" x2="-0.89" y2="-864.74" xlink:href="#_ÂÁ_Ï_ÌÌ_È_ËÂÌÚ_27"/><filter id="luminosity-noclip-4" x="90.8" y="-8039.87" width="16.75" height="32766" filterUnits="userSpaceOnUse" color-interpolation-filters="sRGB"><feFlood flood-color="#fff" result="bg"/><feBlend in="SourceGraphic" in2="bg"/></filter><mask id="mask-4" x="90.8" y="-8039.87" width="16.75" height="32766" maskUnits="userSpaceOnUse"><g class="cls-50"/></mask><linearGradient id="_ÂÁ_Ï_ÌÌ_È_ËÂÌÚ_27-3" x1="-53.71" y1="-866.05" x2="-45.68" y2="-866.05" xlink:href="#_ÂÁ_Ï_ÌÌ_È_ËÂÌÚ_27"/><filter id="luminosity-noclip-5" x="30.82" y="-8039.87" width="49.64" height="32766" filterUnits="userSpaceOnUse" color-interpolation-filters="sRGB"><feFlood flood-color="#fff" result="bg"/><feBlend in="SourceGraphic" in2="bg"/></filter><mask id="mask-5" x="30.82" y="-8039.87" width="49.64" height="32766" maskUnits="userSpaceOnUse"><g class="cls-49"/></mask><linearGradient id="_ÂÁ_Ï_ÌÌ_È_ËÂÌÚ_27-4" x1="-53.71" y1="-805.75" x2="-27.93" y2="-805.75" xlink:href="#_ÂÁ_Ï_ÌÌ_È_ËÂÌÚ_27"/><linearGradient id="_ÂÁ_Ï_ÌÌ_È_ËÂÌÚ_73" x1="-39.52" y1="-794.61" x2="-39.52" y2="-787.23" gradientTransform="translate(-575.66 588.77) rotate(54.37)" gradientUnits="userSpaceOnUse"><stop offset="0" stop-color="#b70400"/><stop offset="1" stop-color="#85001c"/></linearGradient><linearGradient id="_ÂÁ_Ï_ÌÌ_È_ËÂÌÚ_73-2" x1="-384.98" y1="-795.32" x2="-384.98" y2="-787.94" gradientTransform="matrix(-0.58, -0.81, -0.81, 0.58, -806.93, 267.28)" xlink:href="#_ÂÁ_Ï_ÌÌ_È_ËÂÌÚ_73"/><linearGradient id="_ÂÁ_Ï_ÌÌ_È_ËÂÌÚ_74" x1="-25.32" y1="-858.83" x2="-25.32" y2="-829.38" gradientTransform="translate(-575.66 588.77) rotate(54.37)" gradientUnits="userSpaceOnUse"><stop offset="0" stop-color="#85001c"/><stop offset="1" stop-color="#b70400"/></linearGradient><linearGradient id="_ÂÁ_Ï_ÌÌ_È_ËÂÌÚ_73-3" x1="-8.99" y1="-858.83" x2="-8.99" y2="-829.38" xlink:href="#_ÂÁ_Ï_ÌÌ_È_ËÂÌÚ_73"/><linearGradient id="_ÂÁ_Ï_ÌÌ_È_ËÂÌÚ_83" x1="-56.96" y1="-850.29" x2="7.35" y2="-850.29" gradientTransform="translate(-575.66 588.77) rotate(54.37)" gradientUnits="userSpaceOnUse"><stop offset="0" stop-color="#960400"/><stop offset="1" stop-color="#5e1100"/></linearGradient><linearGradient id="_ÂÁ_Ï_ÌÌ_È_ËÂÌÚ_57" x1="-42.11" y1="-939.03" x2="-42.11" y2="-846.92" gradientTransform="translate(-575.66 588.77) rotate(54.37)" gradientUnits="userSpaceOnUse"><stop offset="0" stop-color="#f96b31"/><stop offset="1" stop-color="#b70400"/></linearGradient><linearGradient id="_ÂÁ_Ï_ÌÌ_È_ËÂÌÚ_73-4" x1="-8.55" y1="-939.03" x2="-8.55" y2="-846.92" xlink:href="#_ÂÁ_Ï_ÌÌ_È_ËÂÌÚ_73"/><linearGradient id="_ÂÁ_Ï_ÌÌ_È_ËÂÌÚ_32" x1="-35.59" y1="-882.79" x2="-13.32" y2="-880.06" gradientTransform="translate(-575.66 588.77) rotate(54.37)" gradientUnits="userSpaceOnUse"><stop offset="0" stop-color="#b70400"/><stop offset="0.54" stop-color="#ec9500"/><stop offset="0.98" stop-color="#f10"/></linearGradient><linearGradient id="_ÂÁ_Ï_ÌÌ_È_ËÂÌÚ_8" x1="-25.33" y1="-906.63" x2="-25.33" y2="-846.92" gradientTransform="translate(-575.66 588.77) rotate(54.37)" gradientUnits="userSpaceOnUse"><stop offset="0" stop-color="#f93d31"/><stop offset="1" stop-color="#b70400"/></linearGradient><linearGradient id="_ÂÁ_Ï_ÌÌ_È_ËÂÌÚ_49" x1="-40.02" y1="-896.35" x2="-12.93" y2="-857.67" gradientTransform="translate(-575.66 588.77) rotate(54.37)" gradientUnits="userSpaceOnUse"><stop offset="0.16" stop-color="#ec9500"/><stop offset="0.98" stop-color="#f10"/></linearGradient><filter id="luminosity-noclip-6" x="88.82" y="20.54" width="68.82" height="24.83" filterUnits="userSpaceOnUse" color-interpolation-filters="sRGB"><feFlood flood-color="#fff" result="bg"/><feBlend in="SourceGraphic" in2="bg"/></filter><mask id="mask-6" x="88.82" y="20.54" width="68.82" height="24.83" maskUnits="userSpaceOnUse"><g class="cls-1"><path class="cls-2" d="M151.09,29.19a159.75,159.75,0,0,1-28.44,12.29C107.8,46,90.2,45.33,90.2,45.33l-1.38-5.22S127.54,22,152.5,20.62l1.55-.08h0l2.7,1.71.89,0L151,28.12Z"/></g></mask><linearGradient id="_ÂÁ_Ï_ÌÌ_È_ËÂÌÚ_37" x1="-58.9" y1="-891.94" x2="-31.5" y2="-891.94" gradientTransform="translate(-575.66 588.77) rotate(54.37)" gradientUnits="userSpaceOnUse"><stop offset="0" stop-color="#fff"/><stop offset="1" stop-color="#fff"/></linearGradient><mask id="mask-7" x="96.19" y="34.02" width="43.47" height="45.24" maskUnits="userSpaceOnUse"><g class="cls-3"><path class="cls-4" d="M104.72,38.21C95.19,45,93.37,58.83,100.66,69s20.93,12.88,30.47,6,11.35-20.62,4.05-30.79S114.25,31.38,104.72,38.21Z"/></g></mask><radialGradient id="_ÂÁ_Ï_ÌÌ_È_ËÂÌÚ_67" cx="-899.76" cy="-719.34" r="17.91" gradientTransform="matrix(-0.77, -1.08, -1.01, 0.72, -1304.49, -392.42)" gradientUnits="userSpaceOnUse"><stop offset="0" stop-color="#fff"/><stop offset="1"/></radialGradient><linearGradient id="_ÂÁ_Ï_ÌÌ_È_ËÂÌÚ_70" x1="-17.16" y1="-880.6" x2="8.23" y2="-880.6" gradientTransform="translate(-575.66 588.77) rotate(54.37)" gradientUnits="userSpaceOnUse"><stop offset="0" stop-color="#660400"/><stop offset="1" stop-color="#8a113a"/></linearGradient><linearGradient id="_ÂÁ_Ï_ÌÌ_È_ËÂÌÚ_57-2" x1="-1.55" y1="-873.75" x2="-1.55" y2="-852.45" xlink:href="#_ÂÁ_Ï_ÌÌ_È_ËÂÌÚ_57"/><filter id="luminosity-noclip-7" x="116" y="76.39" width="16.08" height="9.08" filterUnits="userSpaceOnUse" color-interpolation-filters="sRGB"><feFlood flood-color="#fff" result="bg"/><feBlend in="SourceGraphic" in2="bg"/></filter><mask id="mask-8" x="116" y="76.39" width="16.08" height="9.08" maskUnits="userSpaceOnUse"><g class="cls-5"><path class="cls-6" d="M116,84.9l1.64.43a23.65,23.65,0,0,0,6.11-.12,11.11,11.11,0,0,0,4.85-2.28l3.48-6.54Z"/></g></mask><linearGradient id="_ÂÁ_Ï_ÌÌ_È_ËÂÌÚ_37-2" x1="-6.66" y1="-864.74" x2="-0.89" y2="-864.74" xlink:href="#_ÂÁ_Ï_ÌÌ_È_ËÂÌÚ_37"/><linearGradient id="_ÂÁ_Ï_ÌÌ_È_ËÂÌÚ_54" x1="-7.1" y1="-863.1" x2="4" y2="-863.1" gradientTransform="translate(-575.66 588.77) rotate(54.37)" gradientUnits="userSpaceOnUse"><stop offset="0" stop-color="#b70400"/><stop offset="1" stop-color="#850000"/></linearGradient><linearGradient id="_ÂÁ_Ï_ÌÌ_È_ËÂÌÚ_49-2" x1="-5.56" y1="-873.75" x2="-5.56" y2="-852.45" xlink:href="#_ÂÁ_Ï_ÌÌ_È_ËÂÌÚ_49"/><linearGradient id="_ÂÁ_Ï_ÌÌ_È_ËÂÌÚ_57-3" x1="-48.84" y1="-873.65" x2="-48.84" y2="-852.35" xlink:href="#_ÂÁ_Ï_ÌÌ_È_ËÂÌÚ_57"/><filter id="luminosity-noclip-8" x="90.8" y="42.34" width="16.75" height="5.17" filterUnits="userSpaceOnUse" color-interpolation-filters="sRGB"><feFlood flood-color="#fff" result="bg"/><feBlend in="SourceGraphic" in2="bg"/></filter><mask id="mask-9" x="90.8" y="42.34" width="16.75" height="5.17" maskUnits="userSpaceOnUse"><g class="cls-7"><path class="cls-8" d="M101.83,47.05a11.1,11.1,0,0,1-5.35.25,23.88,23.88,0,0,1-5.68-2.23l16.59-2.71.14,0h0l-.14.11Z"/></g></mask><linearGradient id="_ÂÁ_Ï_ÌÌ_È_ËÂÌÚ_37-3" x1="-53.71" y1="-866.05" x2="-45.68" y2="-866.05" xlink:href="#_ÂÁ_Ï_ÌÌ_È_ËÂÌÚ_37"/><linearGradient id="_ÂÁ_Ï_ÌÌ_È_ËÂÌÚ_49-3" x1="-484.68" y1="-863.71" x2="-473.59" y2="-863.71" gradientTransform="matrix(-0.58, -0.81, -0.81, 0.58, -883.78, 160.05)" xlink:href="#_ÂÁ_Ï_ÌÌ_È_ËÂÌÚ_49"/><linearGradient id="_ÂÁ_Ï_ÌÌ_È_ËÂÌÚ_54-2" x1="-483.15" y1="-874.36" x2="-483.15" y2="-853.06" gradientTransform="matrix(-0.58, -0.81, -0.81, 0.58, -883.78, 160.05)" xlink:href="#_ÂÁ_Ï_ÌÌ_È_ËÂÌÚ_54"/><linearGradient id="_ÂÁ_Ï_ÌÌ_È_ËÂÌÚ_92" x1="7.35" y1="-840.87" x2="-57.99" y2="-840.87" gradientTransform="translate(-575.66 588.77) rotate(54.37)" gradientUnits="userSpaceOnUse"><stop offset="0.02" stop-color="#f10"/><stop offset="0.84" stop-color="#ec9500"/></linearGradient><linearGradient id="_ÂÁ_Ï_ÌÌ_È_ËÂÌÚ_93" x1="-40.15" y1="-828.04" x2="-40.15" y2="-784.21" gradientTransform="translate(-575.66 588.77) rotate(54.37)" gradientUnits="userSpaceOnUse"><stop offset="0" stop-color="#b70400"/><stop offset="1" stop-color="#f96b31"/></linearGradient><linearGradient id="_ÂÁ_Ï_ÌÌ_È_ËÂÌÚ_73-5" x1="-338.46" y1="-828.75" x2="-338.46" y2="-784.92" gradientTransform="matrix(-0.58, -0.81, -0.81, 0.58, -779.57, 305.47)" xlink:href="#_ÂÁ_Ï_ÌÌ_È_ËÂÌÚ_73"/><linearGradient id="_ÂÁ_Ï_ÌÌ_È_ËÂÌÚ_92-2" x1="-27.29" y1="-806.13" x2="-53.71" y2="-806.13" xlink:href="#_ÂÁ_Ï_ÌÌ_È_ËÂÌÚ_92"/><linearGradient id="_ÂÁ_Ï_ÌÌ_È_ËÂÌÚ_92-3" x1="2.34" y1="-806.13" x2="-24.16" y2="-806.13" xlink:href="#_ÂÁ_Ï_ÌÌ_È_ËÂÌÚ_92"/><filter id="luminosity-noclip-9" x="30.82" y="79.77" width="49.64" height="11.89" filterUnits="userSpaceOnUse" color-interpolation-filters="sRGB"><feFlood flood-color="#fff" result="bg"/><feBlend in="SourceGraphic" in2="bg"/></filter><mask id="mask-10" x="30.82" y="79.77" width="49.64" height="11.89" maskUnits="userSpaceOnUse"><g class="cls-9"><path class="cls-10" d="M62.3,90.54a104.78,104.78,0,0,1-26.5.53l-5-2.26,11.55-9,38.09,4.37h0S76,88.36,62.3,90.54Z"/></g></mask><linearGradient id="_ÂÁ_Ï_ÌÌ_È_ËÂÌÚ_37-4" x1="-53.71" y1="-805.75" x2="-27.93" y2="-805.75" xlink:href="#_ÂÁ_Ï_ÌÌ_È_ËÂÌÚ_37"/></defs><g class="cls-11"><g id="planets"><polygon class="cls-12" points="37.19 92.53 44.52 99.19 51.16 99.34 37.19 92.53"/><polygon class="cls-13" points="61.74 126.78 57.78 117.69 59.77 111.36 61.74 126.78"/><polygon class="cls-14" points="83.45 72.99 58.65 101.47 59.4 102.5 60.07 103.45 95 89.1 83.45 72.99"/><polygon class="cls-15" points="89.46 42.54 82.89 45.48 83.7 85.06 121.15 98.45 125.84 93.3 89.46 42.54"/><polygon class="cls-16" points="83.7 85.06 97.96 74.85 125.84 93.3 121.15 98.45 83.7 85.06"/><polygon class="cls-17" points="87.56 43.39 93.77 77.87 121.15 98.45 125.84 93.3 89.46 42.54 87.56 43.39"/><path class="cls-18" d="M172.83,21.2,98,74.85l-1.87-7.11-.4-1.51-5.5-20.89-1.38-5.23S127.53,22,152.49,20.63l1.55-.08h0C169.67,19.77,172.83,21.2,172.83,21.2Z"/><path class="cls-19" d="M127.91,94.68,105.39,79.77l-.14-.1-1.16-.76L98,74.85,172.83,21.2s.36,3.67-6,19.45a89.4,89.4,0,0,1-5.94,11.74C148.66,73,127.91,94.68,127.91,94.68Z"/><path class="cls-20" d="M145.18,50.33c5.19-4.92,7.5-14.69,7.5-14.69s-10-1-16.33,2.37S95.89,67,95.89,67L98,74.85l6.76,4.48S140,55.26,145.18,50.33Z"/><path class="cls-21" d="M144.9,51.42c5.28-5,7.6-14.64,7.7-15.05l.19-.81-.83-.08c-.42,0-10.29-.94-16.73,2.45-5.77,3-33.72,23.93-39.54,28.3l.4,1.51c4.4-3.3,34-25.49,39.82-28.52,5-2.64,12.54-2.49,15.05-2.35a46.44,46.44,0,0,1-2.24,6.2,23.79,23.79,0,0,1-4.82,7.3c-4.73,4.49-35.29,25.45-39.81,28.54l1.3.86C111.4,75.66,140.17,55.91,144.9,51.42Z"/><path class="cls-22" d="M140.49,48.68c3.58-2.87,6-8.61,6-8.61s-6.21.45-10.08,2.92-39.15,29.1-39.15,29.1l.7,2.76,2.39,1.55S136.9,51.55,140.49,48.68Z"/><path class="cls-23" d="M135.3,44.77c3.87-2.48,10.09-2.93,10.09-2.93a30.58,30.58,0,0,1-1.48,2.91,31.57,31.57,0,0,0,2.58-4.69s-6.22.45-10.09,2.92-39.15,29.1-39.15,29.1l.2.8C103.86,68.05,131.88,47,135.3,44.77Z"/><g class="cls-24"><path class="cls-25" d="M151.09,29.19a159.75,159.75,0,0,1-28.44,12.29C107.8,46,90.2,45.33,90.2,45.33l-1.38-5.22S127.54,22,152.5,20.62l1.55-.08h0l2.7,1.71.89,0L151,28.12Z"/></g><path class="cls-20" d="M139.12,28.14l.06.6a64.3,64.3,0,0,1,12.83.59c6.24,1,7,1.75,7,1.75l1.68-1.2A34,34,0,0,0,150,27.28,39.29,39.29,0,0,0,139.12,28.14Z"/><path class="cls-20" d="M155.43,50.88l-.55-.25a64.49,64.49,0,0,0,3.56-12.34c1-6.24.6-7.21.6-7.21l1.68-1.21a34.29,34.29,0,0,1-1,11A39.32,39.32,0,0,1,155.43,50.88Z"/><path class="cls-26" d="M170.39,23l-9.67,6.92a44.31,44.31,0,0,0-8.53-1.71c-.39-.05-.8-.09-1.21-.12a65.18,65.18,0,0,0-8.07-.14h0l-1.66.08h0c-.93.05-1.62.11-1.92.13l-.15,0h0l-.31-2.3a59.21,59.21,0,0,1,10.54-2.77c1.46-.26,3-.47,4.66-.62q1.14-.11,2.31-.15a79.06,79.06,0,0,1,10,.22h0C168.81,22.71,170.39,23,170.39,23Z"/><path class="cls-27" d="M157.51,51.92a60.81,60.81,0,0,0,9-15.44,80.45,80.45,0,0,0,3.89-13.54l-9.67,6.92a46.2,46.2,0,0,1-1.38,9.82,80.59,80.59,0,0,1-3.9,11.2Z"/><path class="cls-28" d="M166.31,22.5l-14.12,5.66-9.28-.26h0l13.44-5.62a79.06,79.06,0,0,1,10,.22Z"/><path class="cls-28" d="M154,22.43,141.22,28h0l-2.07.15h0l10.23-5.07C150.81,22.79,152.38,22.58,154,22.43Z"/><g class="cls-29"><path class="cls-30" d="M120.9,34.08C91.66,32.3,86.75,69.56,115,79.2,144.19,81,149.1,43.72,120.9,34.08Z"/></g><path class="cls-31" d="M127.91,94.68,105.39,79.77l-.14-.1L122.9,67.73a141.38,141.38,0,0,0,19.48-5.47c12.35-4.25,18.51-9.87,18.51-9.87C148.66,73,127.91,94.68,127.91,94.68Z"/><polygon class="cls-14" points="111.67 83.93 133.17 72.73 122.84 91.32 111.67 83.93"/><polygon class="cls-32" points="113.08 86.45 132.08 76.39 123.4 92.7 113.08 86.45"/><g class="cls-33"><path class="cls-34" d="M116,84.9l1.64.43a23.65,23.65,0,0,0,6.11-.12,11.11,11.11,0,0,0,4.85-2.28l3.48-6.54Z"/></g><polygon class="cls-35" points="132.08 76.39 131.28 77.18 123.26 91.95 115.37 86.69 113.08 86.45 123.4 92.7 132.08 76.39"/><polygon class="cls-36" points="131.28 77.18 132.08 76.39 113.08 86.45 115.37 86.69 131.28 77.18"/><polygon class="cls-14" points="93.85 59.23 111.36 42.47 90.44 46.28 93.85 59.23"/><path class="cls-37" d="M91.92,57.09,89.31,45.31l1.48-.24h0l16.59-2.71.15,0h0l-.12.11Z"/><g class="cls-38"><path class="cls-39" d="M101.83,47.05a11.1,11.1,0,0,1-5.35.25,23.88,23.88,0,0,1-5.68-2.23l16.59-2.71.14,0h0l-.14.11Z"/></g><polygon class="cls-40" points="107.54 42.33 106.54 42.84 89.97 45.68 92.42 54.84 91.92 57.09 89.31 45.31 107.54 42.33"/><polygon class="cls-41" points="106.54 42.84 107.54 42.33 91.92 57.09 92.42 54.84 106.54 42.84"/><polygon class="cls-42" points="83.42 45.24 84.95 84.19 121.37 98.2 121.15 98.45 83.7 85.06 82.89 45.48 83.42 45.24"/><polygon class="cls-43" points="58.65 101.47 35.8 91.07 30.82 88.81 42.37 79.77 80.46 84.14 80.47 84.14 81.47 84.25 58.65 101.47"/><polygon class="cls-44" points="83.71 87.37 75.38 125.84 63.11 133.87 60.07 103.45 83.71 87.37"/><polygon class="cls-45" points="30.82 88.81 31.71 89.22 43.71 80.62 81.47 84.25 42.37 79.77 30.82 88.81"/><polygon class="cls-46" points="83.71 87.37 60.07 103.45 63.11 133.87 60.97 103.6 83.6 87.89 83.71 87.37"/><g class="cls-47"><path class="cls-48" d="M62.3,90.54a104.78,104.78,0,0,1-26.5.53l-5-2.26,11.55-9,38.09,4.37h0S76,88.36,62.3,90.54Z"/></g><polygon class="cls-14" points="30.82 88.81 31.49 89.75 58.62 102.98 62.5 133.44 63.11 133.87 60.07 103.45 58.65 101.47 30.82 88.81"/></g></g></svg>