<svg xmlns="http://www.w3.org/2000/svg" xmlns:xlink="http://www.w3.org/1999/xlink" viewBox="0 0 147.87 192.1"><defs><style>.cls-1{isolation:isolate;}.cls-10,.cls-11,.cls-12,.cls-13,.cls-14,.cls-15,.cls-16,.cls-17,.cls-2,.cls-20,.cls-21,.cls-22,.cls-23,.cls-24,.cls-25,.cls-26,.cls-27,.cls-28,.cls-29,.cls-3,.cls-30,.cls-31,.cls-32,.cls-33,.cls-4,.cls-5,.cls-6,.cls-7,.cls-8,.cls-9{fill-rule:evenodd;}.cls-2{fill:url(#_ÂÁ_Ï_ÌÌ_È_ËÂÌÚ_40);}.cls-28,.cls-29,.cls-3,.cls-32{opacity:0.71;mix-blend-mode:multiply;}.cls-3{fill:url(#_ÂÁ_Ï_ÌÌ_È_ËÂÌÚ_110);}.cls-4{fill:url(#_ÂÁ_Ï_ÌÌ_È_ËÂÌÚ_230);}.cls-5{fill:url(#_ÂÁ_Ï_ÌÌ_È_ËÂÌÚ_78);}.cls-6{fill:url(#_ÂÁ_Ï_ÌÌ_È_ËÂÌÚ_43);}.cls-7{fill:url(#_ÂÁ_Ï_ÌÌ_È_ËÂÌÚ_40-2);}.cls-8{fill:url(#_ÂÁ_Ï_ÌÌ_È_ËÂÌÚ_40-3);}.cls-9{fill:url(#_ÂÁ_Ï_ÌÌ_È_ËÂÌÚ_78-2);}.cls-10{fill:url(#_ÂÁ_Ï_ÌÌ_È_ËÂÌÚ_62);}.cls-11{fill:url(#_ÂÁ_Ï_ÌÌ_È_ËÂÌÚ_23);}.cls-12{fill:url(#_ÂÁ_Ï_ÌÌ_È_ËÂÌÚ_23-2);}.cls-13{fill:url(#_ÂÁ_Ï_ÌÌ_È_ËÂÌÚ_162);}.cls-14,.cls-18,.cls-30{opacity:0.5;}.cls-14,.cls-18,.cls-21,.cls-23,.cls-24,.cls-25,.cls-26,.cls-30,.cls-31,.cls-33{mix-blend-mode:screen;}.cls-14{fill:url(#_ÂÁ_Ï_ÌÌ_È_ËÂÌÚ_61);}.cls-15{fill:url(#_ÂÁ_Ï_ÌÌ_È_ËÂÌÚ_472);}.cls-16{fill:url(#_ÂÁ_Ï_ÌÌ_È_ËÂÌÚ_472-2);}.cls-17{fill:url(#_ÂÁ_Ï_ÌÌ_È_ËÂÌÚ_43-2);}.cls-18{fill:url(#_ÂÁ_Ï_ÌÌ_È_ËÂÌÚ_61-2);}.cls-19{fill:url(#_ÂÁ_Ï_ÌÌ_È_ËÂÌÚ_51);}.cls-20{fill:url(#_ÂÁ_Ï_ÌÌ_È_ËÂÌÚ_472-3);}.cls-21{fill:url(#_ÂÁ_Ï_ÌÌ_È_ËÂÌÚ_158);}.cls-22,.cls-30{fill:#fff;}.cls-23,.cls-24,.cls-25,.cls-26{opacity:0.2;}.cls-23{fill:url(#_ÂÁ_Ï_ÌÌ_È_ËÂÌÚ_80);}.cls-24{fill:url(#_ÂÁ_Ï_ÌÌ_È_ËÂÌÚ_89);}.cls-25{fill:url(#_ÂÁ_Ï_ÌÌ_È_ËÂÌÚ_80-2);}.cls-26{fill:url(#_ÂÁ_Ï_ÌÌ_È_ËÂÌÚ_89-2);}.cls-27{fill:url(#_ÂÁ_Ï_ÌÌ_È_ËÂÌÚ_72);}.cls-28{fill:url(#_ÂÁ_Ï_ÌÌ_È_ËÂÌÚ_110-2);}.cls-29{fill:url(#_ÂÁ_Ï_ÌÌ_È_ËÂÌÚ_110-3);}.cls-31,.cls-33{opacity:0.64;}.cls-31{fill:url(#_ÂÁ_Ï_ÌÌ_È_ËÂÌÚ_89-3);}.cls-32{fill:url(#_ÂÁ_Ï_ÌÌ_È_ËÂÌÚ_110-4);}.cls-33{fill:url(#_ÂÁ_Ï_ÌÌ_È_ËÂÌÚ_89-4);}</style><linearGradient id="_ÂÁ_Ï_ÌÌ_È_ËÂÌÚ_40" x1="74.49" y1="165.04" x2="74.49" y2="94.49" gradientUnits="userSpaceOnUse"><stop offset="0.01" stop-color="#dd7500"/><stop offset="0.28" stop-color="#dd7403"/><stop offset="0.51" stop-color="#df700e"/><stop offset="0.73" stop-color="#e16a1f"/><stop offset="0.93" stop-color="#e46138"/><stop offset="1" stop-color="#e55e42"/></linearGradient><linearGradient id="_ÂÁ_Ï_ÌÌ_È_ËÂÌÚ_110" x1="74.03" y1="141.3" x2="74.03" y2="137.44" gradientUnits="userSpaceOnUse"><stop offset="0" stop-color="#cc87cf"/><stop offset="0.09" stop-color="#c781cb"/><stop offset="0.69" stop-color="#a65aaf"/><stop offset="1" stop-color="#9a4ba4"/></linearGradient><linearGradient id="_ÂÁ_Ï_ÌÌ_È_ËÂÌÚ_230" x1="73.69" y1="126.69" x2="73.69" y2="35.15" gradientUnits="userSpaceOnUse"><stop offset="0" stop-color="#860057"/><stop offset="0.03" stop-color="#8c0555"/><stop offset="0.19" stop-color="#a9224b"/><stop offset="0.36" stop-color="#c13842"/><stop offset="0.54" stop-color="#d1483d"/><stop offset="0.74" stop-color="#db5139"/><stop offset="0.99" stop-color="#de5438"/></linearGradient><linearGradient id="_ÂÁ_Ï_ÌÌ_È_ËÂÌÚ_78" x1="61.46" y1="126.69" x2="61.46" y2="91.5" gradientUnits="userSpaceOnUse"><stop offset="0" stop-color="#892243"/><stop offset="0.42" stop-color="#921e46"/><stop offset="0.99" stop-color="#951d47"/></linearGradient><linearGradient id="_ÂÁ_Ï_ÌÌ_È_ËÂÌÚ_43" x1="60.77" y1="126.69" x2="60.77" y2="91.5" gradientUnits="userSpaceOnUse"><stop offset="0" stop-color="#590043"/><stop offset="0.06" stop-color="#5b0044"/><stop offset="0.47" stop-color="#650046"/><stop offset="0.99" stop-color="#680047"/></linearGradient><linearGradient id="_ÂÁ_Ï_ÌÌ_È_ËÂÌÚ_40-2" x1="109.73" y1="165.04" x2="109.73" y2="85.7" xlink:href="#_ÂÁ_Ï_ÌÌ_È_ËÂÌÚ_40"/><linearGradient id="_ÂÁ_Ï_ÌÌ_È_ËÂÌÚ_40-3" x1="-1357.98" y1="165.04" x2="-1357.98" y2="85.7" gradientTransform="matrix(-1, 0, 0, 1, -1319.82, 0)" xlink:href="#_ÂÁ_Ï_ÌÌ_È_ËÂÌÚ_40"/><linearGradient id="_ÂÁ_Ï_ÌÌ_È_ËÂÌÚ_78-2" x1="85.78" y1="126.64" x2="85.78" y2="90.2" xlink:href="#_ÂÁ_Ï_ÌÌ_È_ËÂÌÚ_78"/><linearGradient id="_ÂÁ_Ï_ÌÌ_È_ËÂÌÚ_62" x1="86.59" y1="126.64" x2="86.59" y2="91.2" xlink:href="#_ÂÁ_Ï_ÌÌ_È_ËÂÌÚ_43"/><linearGradient id="_ÂÁ_Ï_ÌÌ_È_ËÂÌÚ_23" x1="96.84" y1="165.04" x2="96.84" y2="85.71" gradientUnits="userSpaceOnUse"><stop offset="0.01" stop-color="#fc0"/><stop offset="0.22" stop-color="#fec902"/><stop offset="0.41" stop-color="#fcbe08"/><stop offset="0.58" stop-color="#f8ad13"/><stop offset="0.75" stop-color="#f29422"/><stop offset="0.91" stop-color="#ea7435"/><stop offset="1" stop-color="#e55e42"/></linearGradient><linearGradient id="_ÂÁ_Ï_ÌÌ_È_ËÂÌÚ_23-2" x1="50.79" y1="165.04" x2="50.79" y2="85.71" xlink:href="#_ÂÁ_Ï_ÌÌ_È_ËÂÌÚ_23"/><radialGradient id="_ÂÁ_Ï_ÌÌ_È_ËÂÌÚ_162" cx="70.48" cy="39.48" r="29.73" gradientUnits="userSpaceOnUse"><stop offset="0" stop-color="#ffd5bd"/><stop offset="0.1" stop-color="#f8d0bf"/><stop offset="0.25" stop-color="#e5c2c6"/><stop offset="0.43" stop-color="#c5abd2"/><stop offset="0.63" stop-color="#9a8ce1"/><stop offset="0.75" stop-color="#7a75ed"/><stop offset="0.97" stop-color="#7a82ed"/></radialGradient><linearGradient id="_ÂÁ_Ï_ÌÌ_È_ËÂÌÚ_61" x1="59.46" y1="57.39" x2="89.3" y2="57.39" gradientUnits="userSpaceOnUse"><stop offset="0" stop-color="#fff"/><stop offset="1"/></linearGradient><radialGradient id="_ÂÁ_Ï_ÌÌ_È_ËÂÌÚ_472" cx="90.12" cy="56.75" r="2.48" gradientUnits="userSpaceOnUse"><stop offset="0.01" stop-color="#60dbff"/><stop offset="0.18" stop-color="#56d5ff"/><stop offset="0.48" stop-color="#3cc4ff"/><stop offset="0.86" stop-color="#12a9ff"/><stop offset="1" stop-color="#009dff"/></radialGradient><radialGradient id="_ÂÁ_Ï_ÌÌ_È_ËÂÌÚ_472-2" cx="-1305.07" cy="56.71" r="2.5" gradientTransform="matrix(-1, 0, 0, 1, -1246.22, 0)" xlink:href="#_ÂÁ_Ï_ÌÌ_È_ËÂÌÚ_472"/><linearGradient id="_ÂÁ_Ï_ÌÌ_È_ËÂÌÚ_43-2" x1="74.38" y1="57.33" x2="74.38" y2="56.7" xlink:href="#_ÂÁ_Ï_ÌÌ_È_ËÂÌÚ_43"/><linearGradient id="_ÂÁ_Ï_ÌÌ_È_ËÂÌÚ_61-2" x1="75.05" y1="61.95" x2="75.05" y2="52.08" xlink:href="#_ÂÁ_Ï_ÌÌ_È_ËÂÌÚ_61"/><linearGradient id="_ÂÁ_Ï_ÌÌ_È_ËÂÌÚ_51" x1="75.05" y1="61.24" x2="75.05" y2="52.78" gradientUnits="userSpaceOnUse"><stop offset="0" stop-color="#597ee7"/><stop offset="0.11" stop-color="#5d5ebe"/><stop offset="0.23" stop-color="#60419a"/><stop offset="0.36" stop-color="#632a7c"/><stop offset="0.49" stop-color="#651764"/><stop offset="0.63" stop-color="#670a54"/><stop offset="0.79" stop-color="#68024a"/><stop offset="0.99" stop-color="#680047"/></linearGradient><radialGradient id="_ÂÁ_Ï_ÌÌ_È_ËÂÌÚ_472-3" cx="187.74" cy="57.01" r="3.4" gradientTransform="translate(-85.71) scale(0.86 1)" xlink:href="#_ÂÁ_Ï_ÌÌ_È_ËÂÌÚ_472"/><radialGradient id="_ÂÁ_Ï_ÌÌ_È_ËÂÌÚ_158" cx="38.87" cy="-182.66" r="7.86" gradientTransform="matrix(0.73, 0.38, -0.61, 1.17, -68.41, 241.74)" gradientUnits="userSpaceOnUse"><stop offset="0.01" stop-color="#f4ff09"/><stop offset="0.07" stop-color="#dfe908"/><stop offset="0.27" stop-color="#9ca306"/><stop offset="0.46" stop-color="#646904"/><stop offset="0.63" stop-color="#393c02"/><stop offset="0.78" stop-color="#1a1b01"/><stop offset="0.91" stop-color="#070700"/><stop offset="1"/></radialGradient><linearGradient id="_ÂÁ_Ï_ÌÌ_È_ËÂÌÚ_80" x1="61.51" y1="126.69" x2="61.51" y2="59.86" gradientUnits="userSpaceOnUse"><stop offset="0" stop-color="#623964"/><stop offset="1" stop-color="#fff"/></linearGradient><linearGradient id="_ÂÁ_Ï_ÌÌ_È_ËÂÌÚ_89" x1="89.91" y1="95.3" x2="89.91" y2="59.12" gradientUnits="userSpaceOnUse"><stop offset="0" stop-color="#623964"/><stop offset="1" stop-color="#ffc209"/></linearGradient><linearGradient id="_ÂÁ_Ï_ÌÌ_È_ËÂÌÚ_80-2" x1="91.2" y1="90.2" x2="91.2" y2="61.24" xlink:href="#_ÂÁ_Ï_ÌÌ_È_ËÂÌÚ_80"/><linearGradient id="_ÂÁ_Ï_ÌÌ_È_ËÂÌÚ_89-2" x1="83.17" y1="119.99" x2="83.17" y2="96.17" xlink:href="#_ÂÁ_Ï_ÌÌ_È_ËÂÌÚ_89"/><radialGradient id="_ÂÁ_Ï_ÌÌ_È_ËÂÌÚ_72" cx="61.25" cy="132.39" r="26.51" gradientUnits="userSpaceOnUse"><stop offset="0" stop-color="#b1b5bd"/><stop offset="0.14" stop-color="#abaebd"/><stop offset="0.34" stop-color="#9b9bbf"/><stop offset="0.57" stop-color="#817cc0"/><stop offset="0.75" stop-color="#685ec2"/><stop offset="0.97" stop-color="#7a75d8"/></radialGradient><linearGradient id="_ÂÁ_Ï_ÌÌ_È_ËÂÌÚ_110-2" x1="86.24" y1="122.52" x2="86.24" y2="97.69" xlink:href="#_ÂÁ_Ï_ÌÌ_È_ËÂÌÚ_110"/><linearGradient id="_ÂÁ_Ï_ÌÌ_È_ËÂÌÚ_110-3" x1="61.46" y1="122.5" x2="61.46" y2="97.68" xlink:href="#_ÂÁ_Ï_ÌÌ_È_ËÂÌÚ_110"/><linearGradient id="_ÂÁ_Ï_ÌÌ_È_ËÂÌÚ_89-3" x1="79.28" y1="44.22" x2="88.68" y2="44.22" xlink:href="#_ÂÁ_Ï_ÌÌ_È_ËÂÌÚ_89"/><linearGradient id="_ÂÁ_Ï_ÌÌ_È_ËÂÌÚ_110-4" x1="104.53" y1="154.43" x2="111.8" y2="154.43" xlink:href="#_ÂÁ_Ï_ÌÌ_È_ËÂÌÚ_110"/><linearGradient id="_ÂÁ_Ï_ÌÌ_È_ËÂÌÚ_89-4" x1="71.22" y1="137.45" x2="71.22" y2="128.15" xlink:href="#_ÂÁ_Ï_ÌÌ_È_ËÂÌÚ_89"/></defs><g class="cls-1"><g id="planets"><polygon class="cls-2" points="72.27 95.19 72.1 165.04 75.28 165.04 76.87 94.49 72.27 95.19"/><polygon class="cls-3" points="72.16 141.3 75.83 140.73 75.9 137.52 72.17 137.44 72.16 141.3"/><path class="cls-4" d="M92.88,91.21A213.72,213.72,0,0,1,90,126.64v0H55.62a280.56,280.56,0,0,1-.93-35.1c.67-17.79,3.42-38.18,11.53-50.49,0,0,8.66-13.82,18.57.67C84.79,41.77,92.75,59.37,92.88,91.21Z"/><path class="cls-5" d="M68.34,126.69H56.92a179.53,179.53,0,0,1-2.23-35.1,6.61,6.61,0,0,1,2.78.13C65.14,95.21,68.34,126.69,68.34,126.69Z"/><path class="cls-6" d="M67,126.69H55.62a280.56,280.56,0,0,1-.93-35.1,2,2,0,0,1,1.48.13C63.84,95.21,67,126.69,67,126.69Z"/><path class="cls-7" d="M111.7,85.7h2.59s4,45.83-7.87,79.34h-1.89Z"/><path class="cls-8" d="M36.19,85.7H33.6s-4,45.83,7.86,79.34h1.89Z"/><path class="cls-9" d="M92.87,90.2c0,10.35-2.36,23.2-4.52,36.44l-9.68-.11S83.6,90.2,92.87,90.2C92.91,90.2,92.84,90.19,92.87,90.2Z"/><path class="cls-10" d="M92.88,91.21A213.72,213.72,0,0,1,90,126.64l-9.68-.11s5-35.33,12.46-35.33Z"/><path class="cls-11" d="M104.53,165h-1.61s2.85-38.6-1.88-45.47c-2.45-3.58-7.8-2.63-12.36-.91a46.91,46.91,0,0,0-7.75,3.86s2-15.83,5.61-23.12a34.19,34.19,0,0,0,5-1.71h0A37.15,37.15,0,0,0,107,86l4.66-.31S116.79,127.33,104.53,165Z"/><path class="cls-12" d="M58.82,118.57h0c-4.34-1.66-9.37-2.5-11.77,1C42.32,126.44,45.16,165,45.16,165H43c-12.25-37.71-6.57-79.33-6.57-79.33L41,86a37,37,0,0,0,15.4,11.66,33.06,33.06,0,0,0,5,1.72c2.44,6.3,5.1,23.1,5.1,23.1A43.84,43.84,0,0,0,58.82,118.57Z"/><path class="cls-13" d="M59.46,56.8H89.3S85.06,30.32,75.63,30.32,59.46,56.8,59.46,56.8Z"/><path class="cls-14" d="M59.46,56.8a92.13,92.13,0,0,0,29.84,0Z"/><path class="cls-15" d="M88.68,53.56s2.37.89,2.81,2.66S90,60,90,60Z"/><path class="cls-16" d="M60.45,53.56s-2.7.89-3.14,2.66,1.34,3.64,1.34,3.64Z"/><path class="cls-17" d="M59.46,56.8S75.84,58,89.3,56.8C89.3,56.8,71.61,56.57,59.46,56.8Z"/><ellipse class="cls-18" cx="75.05" cy="57.01" rx="4.23" ry="4.94"/><ellipse class="cls-19" cx="75.05" cy="57.01" rx="3.62" ry="4.23"/><path class="cls-20" d="M78,57a2.95,2.95,0,1,1-2.91-3.4A3.18,3.18,0,0,1,78,57Z"/><path class="cls-21" d="M76.59,45.46c-2.63,5.09-7.34,7.87-10.53,6.22s-3.63-7.1-1-12.19,7.34-7.87,10.53-6.22S79.22,40.37,76.59,45.46Z"/><path class="cls-22" d="M69.38,39.08c-2-1.35-3.89,6.15-2.38,6.89S71.76,40.71,69.38,39.08Z"/><path class="cls-23" d="M54.81,88.87s3.42-29.09,8.39-29,5.14,66.83,5.14,66.83-.68-15.65-5-25.59S57.24,91,57.24,91l-2.55.56Z"/><path class="cls-22" d="M58.84,69.62c-.89-.44-1.38,8.25-.55,8.51S60.82,70.61,58.84,69.62Z"/><path class="cls-24" d="M92.87,90.2s-1.82-28.5-4.19-31S87.05,95.3,87.05,95.3,89.13,90.54,92.87,90.2Z"/><path class="cls-25" d="M89.53,61.24s2.42,20.43,2,29h1.31S92.51,70.82,89.53,61.24Z"/><path class="cls-26" d="M79.74,120s3.05-17.16,6.85-23.82C86.59,96.17,80.93,104.06,79.74,120Z"/><path class="cls-27" d="M55.62,126.69s5.77,11,18.07,11,16.29-11,16.29-11Z"/><path class="cls-28" d="M88.68,118.66a46.91,46.91,0,0,0-7.75,3.86s2-15.83,5.61-23.12a34.19,34.19,0,0,0,5-1.71h0S86.31,105.9,88.68,118.66Z"/><path class="cls-29" d="M58.82,118.56c1.23-7.14-2.4-20.87-2.4-20.87h0a33.06,33.06,0,0,0,5,1.72c2.44,6.3,5.1,23.1,5.1,23.1a43.84,43.84,0,0,0-7.68-3.93Z"/><path class="cls-30" d="M33,103.68h2.12s.09,17.19.69,23.45H33.94S32.78,113.26,33,103.68Z"/><polygon class="cls-30" points="34.14 129.29 35.95 129.29 36.27 132.5 34.35 132.5 34.14 129.29"/><path class="cls-31" d="M79.28,32.74s7,7.34,9.4,22.95A62.69,62.69,0,0,1,79.28,32.74Z"/><path class="cls-32" d="M109.73,143.81h2.07s-2.18,12.79-5.38,21.23h-1.89S108.52,151.76,109.73,143.81Z"/><path class="cls-33" d="M57.08,128.15s5.5,8.87,15.72,9.29a16.51,16.51,0,0,0,12.57-5.3s-2.88,2.53-13.27,1.34S57.08,128.15,57.08,128.15Z"/></g></g></svg>