<svg xmlns="http://www.w3.org/2000/svg" xmlns:xlink="http://www.w3.org/1999/xlink" viewBox="0 0 234.85 148.87"><defs><style>.cls-1{fill:none;clip-rule:evenodd;}.cls-2{isolation:isolate;}.cls-103,.cls-11,.cls-116,.cls-118,.cls-12,.cls-122,.cls-125,.cls-126,.cls-128,.cls-129,.cls-13,.cls-130,.cls-133,.cls-134,.cls-135,.cls-136,.cls-138,.cls-139,.cls-14,.cls-140,.cls-141,.cls-142,.cls-143,.cls-144,.cls-145,.cls-146,.cls-147,.cls-148,.cls-149,.cls-15,.cls-150,.cls-151,.cls-152,.cls-153,.cls-154,.cls-155,.cls-156,.cls-16,.cls-160,.cls-161,.cls-162,.cls-163,.cls-164,.cls-165,.cls-166,.cls-167,.cls-168,.cls-169,.cls-17,.cls-170,.cls-171,.cls-172,.cls-173,.cls-174,.cls-175,.cls-176,.cls-177,.cls-178,.cls-179,.cls-18,.cls-180,.cls-181,.cls-182,.cls-183,.cls-184,.cls-185,.cls-186,.cls-187,.cls-188,.cls-189,.cls-19,.cls-190,.cls-191,.cls-192,.cls-193,.cls-194,.cls-195,.cls-196,.cls-197,.cls-20,.cls-205,.cls-21,.cls-22,.cls-222,.cls-224,.cls-226,.cls-229,.cls-23,.cls-233,.cls-234,.cls-236,.cls-238,.cls-239,.cls-24,.cls-242,.cls-244,.cls-246,.cls-25,.cls-255,.cls-256,.cls-257,.cls-26,.cls-262,.cls-263,.cls-264,.cls-266,.cls-267,.cls-268,.cls-269,.cls-27,.cls-270,.cls-273,.cls-274,.cls-275,.cls-278,.cls-279,.cls-28,.cls-280,.cls-281,.cls-282,.cls-283,.cls-284,.cls-285,.cls-287,.cls-288,.cls-289,.cls-29,.cls-291,.cls-292,.cls-293,.cls-294,.cls-295,.cls-296,.cls-297,.cls-299,.cls-3,.cls-30,.cls-300,.cls-301,.cls-302,.cls-303,.cls-304,.cls-305,.cls-306,.cls-307,.cls-31,.cls-310,.cls-311,.cls-313,.cls-314,.cls-315,.cls-316,.cls-317,.cls-318,.cls-319,.cls-32,.cls-320,.cls-321,.cls-322,.cls-323,.cls-324,.cls-325,.cls-326,.cls-327,.cls-328,.cls-329,.cls-33,.cls-330,.cls-332,.cls-333,.cls-334,.cls-335,.cls-336,.cls-337,.cls-338,.cls-339,.cls-34,.cls-340,.cls-341,.cls-342,.cls-343,.cls-344,.cls-345,.cls-346,.cls-347,.cls-348,.cls-349,.cls-35,.cls-350,.cls-351,.cls-352,.cls-353,.cls-354,.cls-355,.cls-356,.cls-357,.cls-358,.cls-359,.cls-36,.cls-360,.cls-361,.cls-362,.cls-363,.cls-364,.cls-37,.cls-38,.cls-39,.cls-4,.cls-40,.cls-41,.cls-42,.cls-43,.cls-44,.cls-45,.cls-46,.cls-47,.cls-48,.cls-49,.cls-5,.cls-50,.cls-51,.cls-52,.cls-53,.cls-54,.cls-55,.cls-56,.cls-57,.cls-58,.cls-59,.cls-6,.cls-60,.cls-61,.cls-62,.cls-63,.cls-64,.cls-65,.cls-66,.cls-67,.cls-68,.cls-69,.cls-7,.cls-70,.cls-71,.cls-72,.cls-73,.cls-74,.cls-75,.cls-76,.cls-77,.cls-78,.cls-79,.cls-8,.cls-80,.cls-81,.cls-82,.cls-83,.cls-84,.cls-85,.cls-86,.cls-87,.cls-88,.cls-89,.cls-90,.cls-91,.cls-92,.cls-93,.cls-94,.cls-95,.cls-96,.cls-97{fill-rule:evenodd;}.cls-149,.cls-152,.cls-156,.cls-157,.cls-3,.cls-358,.cls-361,.cls-363,.cls-364,.cls-4{mix-blend-mode:screen;}.cls-3{fill:url(#Dégradé_sans_nom_34);}.cls-4{fill:url(#Dégradé_sans_nom_34-2);}.cls-5{fill:url(#_ÂÁ_Ï_ÌÌ_È_ËÂÌÚ_475);}.cls-6{fill:url(#_ÂÁ_Ï_ÌÌ_È_ËÂÌÚ_475-2);}.cls-153,.cls-154,.cls-362,.cls-7,.cls-8{mix-blend-mode:multiply;}.cls-7{fill:url(#_ÂÁ_Ï_ÌÌ_È_ËÂÌÚ_210);}.cls-8{fill:url(#_ÂÁ_Ï_ÌÌ_È_ËÂÌÚ_210-2);}.cls-9{clip-path:url(#clip-path);}.cls-10,.cls-11{fill:#7a82ed;}.cls-12{fill:#7a81ed;}.cls-13{fill:#7a80ed;}.cls-14{fill:#7a7fed;}.cls-15{fill:#7a7eed;}.cls-16{fill:#7a7ded;}.cls-17{fill:#7a7ced;}.cls-18{fill:#7a7aed;}.cls-19{fill:#7a79ed;}.cls-20{fill:#7a78ed;}.cls-21{fill:#7a77ed;}.cls-22{fill:#7a76ed;}.cls-23{fill:#7a75ed;}.cls-24{fill:#7b76ec;}.cls-25{fill:#7d77ec;}.cls-26{fill:#7e78eb;}.cls-27{fill:#8079eb;}.cls-28{fill:#817aea;}.cls-29{fill:#837bea;}.cls-30{fill:#847ce9;}.cls-31{fill:#867ee9;}.cls-32{fill:#877fe8;}.cls-33{fill:#8980e8;}.cls-34{fill:#8a81e7;}.cls-35{fill:#8c82e7;}.cls-36{fill:#8d83e6;}.cls-37{fill:#8e84e6;}.cls-38{fill:#9085e5;}.cls-39{fill:#9186e5;}.cls-40{fill:#9387e4;}.cls-41{fill:#9488e4;}.cls-42{fill:#9589e3;}.cls-43{fill:#978ae3;}.cls-44{fill:#988be2;}.cls-45{fill:#9a8ce2;}.cls-46{fill:#9b8de1;}.cls-47{fill:#9c8ee1;}.cls-48{fill:#9e8fe0;}.cls-49{fill:#9f90e0;}.cls-50{fill:#a091df;}.cls-51{fill:#a292df;}.cls-52{fill:#a393de;}.cls-53{fill:#a494de;}.cls-54{fill:#a695dd;}.cls-55{fill:#a795dd;}.cls-56{fill:#a896dc;}.cls-57{fill:#aa97dc;}.cls-58{fill:#ab98db;}.cls-59{fill:#ac99db;}.cls-60{fill:#ad9ada;}.cls-61{fill:#af9bda;}.cls-62{fill:#b09cda;}.cls-63{fill:#b19dd9;}.cls-64{fill:#b39ed9;}.cls-65{fill:#b49fd8;}.cls-66{fill:#b5a0d8;}.cls-67{fill:#b6a0d7;}.cls-68{fill:#b7a1d7;}.cls-69{fill:#b9a2d6;}.cls-70{fill:#baa3d6;}.cls-71{fill:#bba4d6;}.cls-72{fill:#bca5d5;}.cls-73{fill:#bda6d5;}.cls-74{fill:#bfa7d4;}.cls-75{fill:#c0a7d4;}.cls-76{fill:#c1a8d3;}.cls-77{fill:#c2a9d3;}.cls-78{fill:#c3aad3;}.cls-79{fill:#c4abd2;}.cls-80{fill:#c6acd2;}.cls-81{fill:#c7acd1;}.cls-82{fill:#c8add1;}.cls-83{fill:#c9aed0;}.cls-84{fill:#caafd0;}.cls-85{fill:#cbb0d0;}.cls-86{fill:#ccb0cf;}.cls-87{fill:#cdb1cf;}.cls-88{fill:#ceb2cf;}.cls-89{fill:#d0b3ce;}.cls-90{fill:#d1b4ce;}.cls-91{fill:#d2b4cd;}.cls-92{fill:#d3b5cd;}.cls-93{fill:#d4b6cd;}.cls-94{fill:#d5b7cc;}.cls-95{fill:#d6b7cc;}.cls-96{fill:#d7b8cb;}.cls-97{fill:#d8b9cb;}.cls-98{fill:#d9b9cb;}.cls-99{fill:#dabaca;}.cls-100{fill:#dbbbca;}.cls-101{fill:#dcbcca;}.cls-102{fill:#ddbcc9;}.cls-103{fill:#debdc9;}.cls-104{fill:#dfbec9;}.cls-105{fill:#e0bec8;}.cls-106{fill:#e1bfc8;}.cls-107{fill:#e1c0c8;}.cls-108{fill:#e2c0c7;}.cls-109{fill:#e3c1c7;}.cls-110{fill:#e4c2c7;}.cls-111{fill:#e5c2c6;}.cls-112{fill:#e6c3c6;}.cls-113{fill:#e7c4c6;}.cls-114{fill:#e8c4c5;}.cls-115{fill:#e8c5c5;}.cls-116{fill:#e9c5c5;}.cls-117{fill:#eac6c5;}.cls-118{fill:#ebc7c4;}.cls-119{fill:#ecc7c4;}.cls-120{fill:#edc8c4;}.cls-121{fill:#edc8c3;}.cls-122{fill:#eec9c3;}.cls-123{fill:#efc9c3;}.cls-124{fill:#f0cac3;}.cls-125{fill:#f0cac2;}.cls-126{fill:#f1cbc2;}.cls-127{fill:#f2cbc2;}.cls-128{fill:#f2ccc2;}.cls-129{fill:#f3ccc1;}.cls-130{fill:#f4cdc1;}.cls-131{fill:#f5cec1;}.cls-132{fill:#f6cec0;}.cls-133{fill:#f6cfc0;}.cls-134{fill:#f7cfc0;}.cls-135{fill:#f8d0c0;}.cls-136{fill:#f8d0bf;}.cls-137{fill:#f9d0bf;}.cls-138{fill:#f9d1bf;}.cls-139{fill:#fad1bf;}.cls-140{fill:#fad2bf;}.cls-141{fill:#fbd2bf;}.cls-142{fill:#fbd2be;}.cls-143{fill:#fcd3be;}.cls-144{fill:#fdd3be;}.cls-145{fill:#fdd4be;}.cls-146{fill:#fed4bd;}.cls-147{fill:#ffd5bd;}.cls-148{fill:url(#_ÂÁ_Ï_ÌÌ_È_ËÂÌÚ_460);}.cls-149,.cls-152,.cls-156,.cls-157,.cls-358,.cls-361,.cls-362,.cls-364{opacity:0.5;}.cls-149{fill:url(#_ÂÁ_Ï_ÌÌ_È_ËÂÌÚ_494);}.cls-150{fill:url(#_ÂÁ_Ï_ÌÌ_È_ËÂÌÚ_472);}.cls-151{fill:url(#_ÂÁ_Ï_ÌÌ_È_ËÂÌÚ_495);}.cls-152{fill:url(#_ÂÁ_Ï_ÌÌ_È_ËÂÌÚ_497);}.cls-153,.cls-154{opacity:0.71;}.cls-153{fill:url(#_ÂÁ_Ï_ÌÌ_È_ËÂÌÚ_501);}.cls-154{fill:url(#_ÂÁ_Ï_ÌÌ_È_ËÂÌÚ_501-2);}.cls-155{fill:url(#_ÂÁ_Ï_ÌÌ_È_ËÂÌÚ_501-3);}.cls-156{fill:url(#_ÂÁ_Ï_ÌÌ_È_ËÂÌÚ_497-2);}.cls-158{clip-path:url(#clip-path-2);}.cls-159,.cls-160{fill:#623964;}.cls-161{fill:#633a65;}.cls-162{fill:#643b66;}.cls-163{fill:#643c66;}.cls-164{fill:#653d67;}.cls-165{fill:#663e68;}.cls-166{fill:#673f69;}.cls-167{fill:#68406a;}.cls-168{fill:#68416a;}.cls-169{fill:#69426b;}.cls-170{fill:#6a436c;}.cls-171{fill:#6b446d;}.cls-172{fill:#6c456d;}.cls-173{fill:#6c466e;}.cls-174{fill:#6d476f;}.cls-175{fill:#6e4870;}.cls-176{fill:#6f4971;}.cls-177{fill:#704a71;}.cls-178{fill:#704b72;}.cls-179{fill:#714c73;}.cls-180{fill:#724d74;}.cls-181{fill:#734e75;}.cls-182{fill:#744f75;}.cls-183{fill:#745076;}.cls-184{fill:#755177;}.cls-185{fill:#765278;}.cls-186{fill:#775378;}.cls-187{fill:#785479;}.cls-188{fill:#78557a;}.cls-189{fill:#79567b;}.cls-190{fill:#7a577c;}.cls-191{fill:#7b587c;}.cls-192{fill:#7c597d;}.cls-193{fill:#7c5a7e;}.cls-194{fill:#7d5b7f;}.cls-195{fill:#7e5c80;}.cls-196{fill:#7f5d80;}.cls-197{fill:#7f5e81;}.cls-198{fill:#805f82;}.cls-199{fill:#816083;}.cls-200{fill:#826183;}.cls-201{fill:#836284;}.cls-202{fill:#836385;}.cls-203{fill:#846486;}.cls-204{fill:#856587;}.cls-205{fill:#866687;}.cls-206{fill:#876788;}.cls-207{fill:#876889;}.cls-208{fill:#88698a;}.cls-209{fill:#896a8b;}.cls-210{fill:#8a6b8b;}.cls-211{fill:#8b6c8c;}.cls-212{fill:#8b6d8d;}.cls-213{fill:#8c6e8e;}.cls-214{fill:#8d6f8e;}.cls-215{fill:#8e708f;}.cls-216{fill:#8f7190;}.cls-217{fill:#8f7291;}.cls-218{fill:#907392;}.cls-219{fill:#917492;}.cls-220{fill:#927593;}.cls-221{fill:#937694;}.cls-222{fill:#937795;}.cls-223{fill:#947896;}.cls-224{fill:#957996;}.cls-225{fill:#967a97;}.cls-226{fill:#977b98;}.cls-227{fill:#977c99;}.cls-228{fill:#987d9a;}.cls-229{fill:#997e9a;}.cls-230{fill:#9a7f9b;}.cls-231{fill:#9b809c;}.cls-232{fill:#9b819d;}.cls-233{fill:#9c829d;}.cls-234{fill:#9d839e;}.cls-235{fill:#9e849f;}.cls-236{fill:#9f85a0;}.cls-237{fill:#9f86a1;}.cls-238{fill:#a087a1;}.cls-239{fill:#a188a2;}.cls-240{fill:#a289a3;}.cls-241{fill:#a38aa4;}.cls-242{fill:#a38ba5;}.cls-243{fill:#a48ca5;}.cls-244{fill:#a58da6;}.cls-245{fill:#a68ea7;}.cls-246{fill:#a78fa8;}.cls-247{fill:#a790a8;}.cls-248{fill:#a891a9;}.cls-249{fill:#a992aa;}.cls-250{fill:#aa93ab;}.cls-251{fill:#ab94ac;}.cls-252{fill:#ab95ac;}.cls-253{fill:#ac96ad;}.cls-254{fill:#ad97ae;}.cls-255{fill:#ae98af;}.cls-256{fill:#af99b0;}.cls-257{fill:#af9ab0;}.cls-258{fill:#b09bb1;}.cls-259{fill:#b19db2;}.cls-260{fill:#b29eb3;}.cls-261{fill:#b29fb3;}.cls-262{fill:#b3a0b4;}.cls-263{fill:#b4a1b5;}.cls-264{fill:#b5a2b6;}.cls-265{fill:#b6a3b7;}.cls-266{fill:#b6a4b7;}.cls-267{fill:#b7a5b8;}.cls-268{fill:#b8a6b9;}.cls-269{fill:#b9a7ba;}.cls-270{fill:#baa8bb;}.cls-271{fill:#baa9bb;}.cls-272{fill:#bbaabc;}.cls-273{fill:#bcabbd;}.cls-274{fill:#bdacbe;}.cls-275{fill:#beadbe;}.cls-276{fill:#beaebf;}.cls-277{fill:#bfafc0;}.cls-278{fill:#c0b0c1;}.cls-279{fill:#c1b1c2;}.cls-280{fill:#c2b2c2;}.cls-281{fill:#c2b3c3;}.cls-282{fill:#c3b4c4;}.cls-283{fill:#c4b5c5;}.cls-284{fill:#c5b6c6;}.cls-285{fill:#c6b7c6;}.cls-286{fill:#c6b8c7;}.cls-287{fill:#c7b9c8;}.cls-288{fill:#c8bac9;}.cls-289{fill:#c9bbc9;}.cls-290{fill:#cabcca;}.cls-291{fill:#cabdcb;}.cls-292{fill:#cbbecc;}.cls-293{fill:#ccbfcd;}.cls-294{fill:#cdc0cd;}.cls-295{fill:#cec1ce;}.cls-296{fill:#cec2cf;}.cls-297{fill:#cfc3d0;}.cls-298{fill:#d0c4d1;}.cls-299{fill:#d1c5d1;}.cls-300{fill:#d2c6d2;}.cls-301{fill:#d2c7d3;}.cls-302{fill:#d3c8d4;}.cls-303{fill:#d4c9d5;}.cls-304{fill:#d5cad5;}.cls-305{fill:#d6cbd6;}.cls-306{fill:#d6ccd7;}.cls-307{fill:#d7cdd8;}.cls-308{fill:#d8ced8;}.cls-309{fill:#d9cfd9;}.cls-310{fill:#dad0da;}.cls-311{fill:#dad1db;}.cls-312{fill:#dbd2dc;}.cls-313{fill:#dcd3dc;}.cls-314{fill:#ddd4dd;}.cls-315{fill:#ded5de;}.cls-316{fill:#ded6df;}.cls-317{fill:#dfd7e0;}.cls-318{fill:#e0d8e0;}.cls-319{fill:#e1d9e1;}.cls-320{fill:#e2dae2;}.cls-321{fill:#e2dbe3;}.cls-322{fill:#e3dce3;}.cls-323{fill:#e4dde4;}.cls-324{fill:#e5dee5;}.cls-325{fill:#e5dfe6;}.cls-326{fill:#e6e0e7;}.cls-327{fill:#e7e1e7;}.cls-328{fill:#e8e2e8;}.cls-329{fill:#e9e3e9;}.cls-330{fill:#e9e4ea;}.cls-331{fill:#eae5eb;}.cls-332{fill:#ebe6eb;}.cls-333{fill:#ece7ec;}.cls-334{fill:#ede8ed;}.cls-335{fill:#ede9ee;}.cls-336{fill:#eeeaee;}.cls-337{fill:#efebef;}.cls-338{fill:#f0ecf0;}.cls-339{fill:#f1edf1;}.cls-340{fill:#f1eef2;}.cls-341{fill:#f2eff2;}.cls-342{fill:#f3f0f3;}.cls-343{fill:#f4f1f4;}.cls-344{fill:#f5f2f5;}.cls-345{fill:#f5f3f6;}.cls-346{fill:#f6f4f6;}.cls-347{fill:#f7f5f7;}.cls-348{fill:#f8f6f8;}.cls-349{fill:#f9f7f9;}.cls-350{fill:#f9f8f9;}.cls-351{fill:#faf9fa;}.cls-352{fill:#fbfafb;}.cls-353{fill:#fcfbfc;}.cls-354{fill:#fdfcfd;}.cls-355{fill:#fdfdfd;}.cls-356{fill:#fefefe;}.cls-357{fill:#fff;}.cls-358{fill:url(#_ÂÁ_Ï_ÌÌ_È_ËÂÌÚ_494-2);}.cls-359{fill:url(#_ÂÁ_Ï_ÌÌ_È_ËÂÌÚ_471);}.cls-360{fill:url(#_ÂÁ_Ï_ÌÌ_È_ËÂÌÚ_472-2);}.cls-361{fill:url(#_ÂÁ_Ï_ÌÌ_È_ËÂÌÚ_494-3);}.cls-362{fill:url(#_ÂÁ_Ï_ÌÌ_È_ËÂÌÚ_210-3);}.cls-363{fill:url(#_ÂÁ_Ï_ÌÌ_È_ËÂÌÚ_11);}.cls-364{fill:url(#_ÂÁ_Ï_ÌÌ_È_ËÂÌÚ_13);}</style><linearGradient id="Dégradé_sans_nom_34" x1="69.04" y1="114.79" x2="69.04" y2="96.11" gradientUnits="userSpaceOnUse"><stop offset="0" stop-color="#fff" stop-opacity="0"/><stop offset="0.08" stop-color="#f6fbff" stop-opacity="0.03"/><stop offset="0.22" stop-color="#dfeeff" stop-opacity="0.13"/><stop offset="0.4" stop-color="#b8daff" stop-opacity="0.29"/><stop offset="0.6" stop-color="#82bfff" stop-opacity="0.5"/><stop offset="0.83" stop-color="#3f9cff" stop-opacity="0.77"/><stop offset="1" stop-color="#067fff"/></linearGradient><linearGradient id="Dégradé_sans_nom_34-2" x1="58.31" y1="729.34" x2="64.83" y2="712.28" gradientTransform="translate(-515.89 -133.02) rotate(-65.92)" xlink:href="#Dégradé_sans_nom_34"/><radialGradient id="_ÂÁ_Ï_ÌÌ_È_ËÂÌÚ_475" cx="149.12" cy="95.41" r="16.47" gradientUnits="userSpaceOnUse"><stop offset="0" stop-color="#9f00ff"/><stop offset="0.19" stop-color="#9900f8"/><stop offset="0.46" stop-color="#8700e5"/><stop offset="0.77" stop-color="#6a00c6"/><stop offset="1" stop-color="#5200ab"/></radialGradient><radialGradient id="_ÂÁ_Ï_ÌÌ_È_ËÂÌÚ_475-2" cx="-1060.9" cy="92.68" r="16.47" gradientTransform="matrix(-1, 0, 0, 1, -994.4, 0)" xlink:href="#_ÂÁ_Ï_ÌÌ_È_ËÂÌÚ_475"/><linearGradient id="_ÂÁ_Ï_ÌÌ_È_ËÂÌÚ_210" x1="147.46" y1="99.83" x2="168.93" y2="99.83" gradientUnits="userSpaceOnUse"><stop offset="0" stop-color="#b3a6db"/><stop offset="0.41" stop-color="#a685be"/><stop offset="0.77" stop-color="#9d71ab"/><stop offset="1" stop-color="#9a69a4"/></linearGradient><linearGradient id="_ÂÁ_Ï_ÌÌ_È_ËÂÌÚ_210-2" x1="63.6" y1="98.69" x2="85.21" y2="98.69" xlink:href="#_ÂÁ_Ï_ÌÌ_È_ËÂÌÚ_210"/><clipPath id="clip-path"><path class="cls-1" d="M41,74.91s15.94,29.6,74.28,29.82c60.77.23,78.63-28.84,78.63-28.84Z"/></clipPath><radialGradient id="_ÂÁ_Ï_ÌÌ_È_ËÂÌÚ_460" cx="70.07" cy="68.62" r="92.17" gradientUnits="userSpaceOnUse"><stop offset="0.01" stop-color="#ff9aff"/><stop offset="0.09" stop-color="#fb94ff"/><stop offset="0.21" stop-color="#f183ff"/><stop offset="0.34" stop-color="#e068ff"/><stop offset="0.49" stop-color="#c841ff"/><stop offset="0.64" stop-color="#a910ff"/><stop offset="0.68" stop-color="#9f00ff"/><stop offset="0.74" stop-color="#9900f8"/><stop offset="0.83" stop-color="#8700e5"/><stop offset="0.93" stop-color="#6a00c6"/><stop offset="1" stop-color="#5200ab"/></radialGradient><radialGradient id="_ÂÁ_Ï_ÌÌ_È_ËÂÌÚ_494" cx="112.52" cy="8464.7" r="72.53" gradientTransform="translate(0 -4068.28) scale(1 0.49)" gradientUnits="userSpaceOnUse"><stop offset="0" stop-color="#fff"/><stop offset="1" stop-color="#623964"/></radialGradient><radialGradient id="_ÂÁ_Ï_ÌÌ_È_ËÂÌÚ_472" cx="113.1" cy="8471.45" r="15.98" gradientTransform="translate(0 -4068.28) scale(1 0.49)" gradientUnits="userSpaceOnUse"><stop offset="0.01" stop-color="#60dbff"/><stop offset="0.18" stop-color="#56d5ff"/><stop offset="0.48" stop-color="#3cc4ff"/><stop offset="0.86" stop-color="#12a9ff"/><stop offset="1" stop-color="#009dff"/></radialGradient><radialGradient id="_ÂÁ_Ï_ÌÌ_È_ËÂÌÚ_495" cx="112.57" cy="8472.18" r="14.43" gradientTransform="translate(0 -4068.28) scale(1 0.49)" gradientUnits="userSpaceOnUse"><stop offset="0.01" stop-color="#4db6ff"/><stop offset="0.21" stop-color="#4db0ff"/><stop offset="0.47" stop-color="#4f9fff"/><stop offset="0.78" stop-color="#5084ff"/><stop offset="1" stop-color="#526bff"/></radialGradient><radialGradient id="_ÂÁ_Ï_ÌÌ_È_ËÂÌÚ_497" cx="78.04" cy="8466.82" r="31.98" xlink:href="#_ÂÁ_Ï_ÌÌ_È_ËÂÌÚ_494"/><linearGradient id="_ÂÁ_Ï_ÌÌ_È_ËÂÌÚ_501" x1="70.6" y1="94.8" x2="97.33" y2="94.8" gradientUnits="userSpaceOnUse"><stop offset="0" stop-color="#9a69a4"/><stop offset="0.11" stop-color="#a075af"/><stop offset="0.71" stop-color="#c1b1e9"/><stop offset="1" stop-color="#cec9ff"/></linearGradient><linearGradient id="_ÂÁ_Ï_ÌÌ_È_ËÂÌÚ_501-2" x1="-987" y1="94.8" x2="-960.28" y2="94.8" gradientTransform="matrix(-1, 0, 0, 1, -825.11, 0)" xlink:href="#_ÂÁ_Ï_ÌÌ_È_ËÂÌÚ_501"/><linearGradient id="_ÂÁ_Ï_ÌÌ_È_ËÂÌÚ_501-3" x1="138.7" y1="94.08" x2="161.9" y2="94.08" xlink:href="#_ÂÁ_Ï_ÌÌ_È_ËÂÌÚ_501"/><radialGradient id="_ÂÁ_Ï_ÌÌ_È_ËÂÌÚ_497-2" cx="83.97" cy="94.8" r="11.33" gradientTransform="matrix(1, 0, 0, 1, 0, 0)" xlink:href="#_ÂÁ_Ï_ÌÌ_È_ËÂÌÚ_494"/><clipPath id="clip-path-2"><path class="cls-1" d="M193.87,75.89c-.1,1.33-2.08,3-6.23,4.59.2-.24,3.3-4.31-10.38-9.82-13.22-5.33-28.65-7.61-30.53-7.87A175.49,175.49,0,0,1,179,68.85a.05.05,0,0,1,0,0C189.11,71.89,194,74.9,193.87,75.89Z"/></clipPath><radialGradient id="_ÂÁ_Ï_ÌÌ_È_ËÂÌÚ_494-2" cx="92.68" cy="8444.89" r="27.83" xlink:href="#_ÂÁ_Ï_ÌÌ_È_ËÂÌÚ_494"/><radialGradient id="_ÂÁ_Ï_ÌÌ_È_ËÂÌÚ_471" cx="21.21" cy="65.36" r="50.63" gradientTransform="translate(63.1) scale(1.14 1)" gradientUnits="userSpaceOnUse"><stop offset="0" stop-color="#9f00ff"/><stop offset="0.14" stop-color="#9900f8"/><stop offset="0.35" stop-color="#8a00e5"/><stop offset="0.59" stop-color="#7100c5"/><stop offset="0.86" stop-color="#4e009a"/><stop offset="1" stop-color="#3a0081"/></radialGradient><radialGradient id="_ÂÁ_Ï_ÌÌ_È_ËÂÌÚ_472-2" cx="113.24" cy="8439.88" r="39.75" xlink:href="#_ÂÁ_Ï_ÌÌ_È_ËÂÌÚ_472"/><radialGradient id="_ÂÁ_Ï_ÌÌ_È_ËÂÌÚ_494-3" cx="64.24" cy="68.75" r="17.02" gradientTransform="matrix(1, 0, 0, 1, 0, 0)" xlink:href="#_ÂÁ_Ï_ÌÌ_È_ËÂÌÚ_494"/><linearGradient id="_ÂÁ_Ï_ÌÌ_È_ËÂÌÚ_210-3" x1="74.04" y1="70.92" x2="157.8" y2="70.92" xlink:href="#_ÂÁ_Ï_ÌÌ_È_ËÂÌÚ_210"/><radialGradient id="_ÂÁ_Ï_ÌÌ_È_ËÂÌÚ_11" cx="-487.84" cy="-101.43" r="8.81" gradientTransform="matrix(0.21, 0.8, -1.69, 0.45, 30.68, 501.28)" gradientUnits="userSpaceOnUse"><stop offset="0.01" stop-color="#98fffc"/><stop offset="0.07" stop-color="#8be9e6"/><stop offset="0.27" stop-color="#61a3a1"/><stop offset="0.46" stop-color="#3f6968"/><stop offset="0.63" stop-color="#243c3b"/><stop offset="0.78" stop-color="#101b1b"/><stop offset="0.91" stop-color="#040707"/><stop offset="1"/></radialGradient><linearGradient id="_ÂÁ_Ï_ÌÌ_È_ËÂÌÚ_13" x1="132.2" y1="75.12" x2="132.2" y2="57.42" gradientUnits="userSpaceOnUse"><stop offset="0" stop-color="#623964"/><stop offset="1" stop-color="#fff"/></linearGradient></defs><g class="cls-2"><g id="planets"><path class="cls-3" d="M65.49,96.11s-6.92,17.08-2.62,18.54C67.94,116.38,76.63,101,76.63,101Z"/><path class="cls-4" d="M156.59,102.69s12.77,13.29,15.86,10c3.64-3.94-6.89-18.15-6.89-18.15Z"/><path class="cls-5" d="M167.85,92l1.64,6.14s0,7-11.69,6.56l-13.47-4Z"/><path class="cls-6" d="M64.44,92l-1.65,6.14s0,7,11.69,6.56l13.47-4Z"/><path class="cls-7" d="M168.93,96.06s-9.74,2.5-11.13,8.67l-10.34-3.06,21.16-6.74Z"/><path class="cls-8" d="M63.6,95.14s10.1,2.4,15.69,8.17l5.92-1.75L63.78,94.08Z"/><g class="cls-9"><rect class="cls-10" x="40.97" y="74.91" width="152.91" height="30.05"/><path class="cls-11" d="M161.31,101.39a27.56,27.56,0,0,1-2,8.54v-4.11H40.11V74.05h103V69.59C155.14,78.25,162.16,89.54,161.31,101.39Z"/><path class="cls-12" d="M160.09,101.3a26.81,26.81,0,0,1-2,8.39v-3.87h-118V74.05H142.2v-4C154,78.57,160.93,89.66,160.09,101.3Z"/><path class="cls-13" d="M158.88,101.21a26.25,26.25,0,0,1-2,8.25v-3.64H40.11V74.05h101.2V70.52C152.93,78.89,159.7,89.78,158.88,101.21Z"/><path class="cls-14" d="M157.67,101.12a25.86,25.86,0,0,1-1.93,8.1v-3.4H40.11V74.05h100.3V71C151.82,79.2,158.48,89.9,157.67,101.12Z"/><path class="cls-15" d="M156.46,101a25.6,25.6,0,0,1-1.9,7.95v-3.17H40.11V74.05h99.41v-2.6C150.72,79.52,157.25,90,156.46,101Z"/><path class="cls-16" d="M155.24,101a24.9,24.9,0,0,1-1.85,7.8v-2.93H40.11V76.94H34.24a38.61,38.61,0,0,1,6.33-6.24v3.35h98.05V71.92C149.61,79.83,156,90.14,155.24,101Z"/><path class="cls-17" d="M154,100.86a24.57,24.57,0,0,1-1.82,7.66v-2.7H40.11V77.31H35.33a38,38,0,0,1,6.22-6.12v2.86h96.18V72.39C148.51,80.15,154.79,90.25,154,100.86Z"/><path class="cls-18" d="M152.82,100.78a24.12,24.12,0,0,1-1.79,7.5v-2.46H40.11V77.68H36.43a37.66,37.66,0,0,1,6.09-6v2.37h94.31v-1.2C147.4,80.46,153.57,90.37,152.82,100.78Z"/><path class="cls-19" d="M151.61,100.69a23.44,23.44,0,0,1-1.75,7.35v-2.22H40.11V78.05H37.52a36.65,36.65,0,0,1,6-5.88v1.88h92.44v-.73C146.3,80.78,152.34,90.49,151.61,100.69Z"/><path class="cls-20" d="M150.4,100.6a23.17,23.17,0,0,1-1.72,7.21v-2H40.11V78.42H38.62a36.31,36.31,0,0,1,5.85-5.76v1.39H135v-.26C145.19,81.1,151.11,90.61,150.4,100.6Z"/><path class="cls-21" d="M149.18,100.52a22.23,22.23,0,0,1-1.68,7v-1.75H40.11V92.26h-5.9c.7-9.79,7.77-18.18,18.63-23.85v5.64H126V69.32a60.56,60.56,0,0,1,8.2,4.93C144.09,81.41,149.89,90.73,149.18,100.52Z"/><path class="cls-22" d="M148,100.43a22.22,22.22,0,0,1-1.64,6.91v-1.52H40.11V92.35H35.42C36.11,82.77,43,74.55,53.66,69v5h71.57V69.89a59.58,59.58,0,0,1,8,4.83C143,81.73,148.66,90.85,148,100.43Z"/><path class="cls-23" d="M146.76,100.34a21.83,21.83,0,0,1-1.61,6.76v-1.28h-105V92.43H36.63C37.3,83.06,44.08,75,54.48,69.59v4.46h70V70.46a57.83,57.83,0,0,1,7.86,4.73C141.88,82,147.43,91,146.76,100.34Z"/><path class="cls-23" d="M145.55,100.25a21,21,0,0,1-1.58,6.61v-1H45.71v5.92a32.81,32.81,0,0,1-4.56-6,22.72,22.72,0,0,1-3.31-13.22c.66-9.17,7.29-17,17.46-22.34v3.87h68.48V71a57.85,57.85,0,0,1,7.68,4.62C140.77,82.36,146.21,91.09,145.55,100.25Z"/><path class="cls-24" d="M145.14,100.23a20.9,20.9,0,0,1-1.56,6.56v-1H46.05v5.8a32.7,32.7,0,0,1-4.52-6,22.53,22.53,0,0,1-3.28-13.12c.65-9.1,7.23-16.9,17.33-22.17v3.67h68V71.22a56,56,0,0,1,7.62,4.59C140.41,82.46,145.8,91.13,145.14,100.23Z"/><path class="cls-25" d="M144.74,100.2a20.86,20.86,0,0,1-1.55,6.51v-.89H46.4v5.69a32.61,32.61,0,0,1-4.49-5.91,22.36,22.36,0,0,1-3.26-13c.65-9,7.18-16.78,17.2-22v3.47H123.3V71.41A56.07,56.07,0,0,1,130.86,76C140,82.57,145.39,91.17,144.74,100.2Z"/><path class="cls-26" d="M144.33,100.17a20.48,20.48,0,0,1-1.54,6.46v-.81h-96v5.57a31.78,31.78,0,0,1-4.46-5.86,22.17,22.17,0,0,1-3.23-12.92c.64-9,7.12-16.65,17.06-21.84v3.28h66.94V71.6a55.83,55.83,0,0,1,7.5,4.52C139.67,82.68,145,91.21,144.33,100.17Z"/><path class="cls-27" d="M143.93,100.14a20.5,20.5,0,0,1-1.53,6.41v-.73H47.09v5.45a31.67,31.67,0,0,1-4.42-5.81,22,22,0,0,1-3.21-12.82C40.1,83.75,46.53,76.12,56.4,71v3.08h57.76V68.19a60.68,60.68,0,0,1,16.1,8.09C139.3,82.78,144.57,91.25,143.93,100.14Z"/><path class="cls-28" d="M143.52,100.11a20.18,20.18,0,0,1-1.51,6.36v-.65H47.44v5.34a31.23,31.23,0,0,1-4.39-5.77,21.85,21.85,0,0,1-3.18-12.73c.63-8.82,7-16.38,16.8-21.49v2.88H114V68.4a61.37,61.37,0,0,1,16,8C138.93,82.89,144.16,91.29,143.52,100.11Z"/><path class="cls-29" d="M143.12,100.08a20.35,20.35,0,0,1-1.5,6.31v-.57H47.78V111a31.12,31.12,0,0,1-4.35-5.72,21.75,21.75,0,0,1-3.16-12.63c.63-8.75,7-16.26,16.67-21.32v2.68h56.87V68.62a60.54,60.54,0,0,1,15.86,8C138.56,83,143.75,91.33,143.12,100.08Z"/><path class="cls-30" d="M142.71,100.05a19.76,19.76,0,0,1-1.49,6.26v-.49H48.13v5.11a31.37,31.37,0,0,1-4.32-5.68,21.58,21.58,0,0,1-3.13-12.53c.62-8.68,6.9-16.13,16.54-21.16v2.49h56.42V68.84a60.17,60.17,0,0,1,15.73,7.9C138.19,83.1,143.34,91.37,142.71,100.05Z"/><path class="cls-31" d="M142.31,100a20,20,0,0,1-1.48,6.21v-.41H48.47v5a30.92,30.92,0,0,1-4.28-5.63,21.4,21.4,0,0,1-3.11-12.43c.62-8.61,6.85-16,16.41-21v2.29h56v-5a59.41,59.41,0,0,1,15.61,7.84C137.82,83.2,142.93,91.41,142.31,100Z"/><path class="cls-32" d="M141.9,100a21.12,21.12,0,0,1-4.81,11.76v-5.93H48.82v4.88a30.83,30.83,0,0,1-4.25-5.59,21.15,21.15,0,0,1-3.08-12.33C42.1,84.24,48.28,76.9,57.76,72v2.09h55.53V69.28a58.89,58.89,0,0,1,15.48,7.78C137.45,83.31,142.52,91.45,141.9,100Z"/><path class="cls-33" d="M141.5,100a21.09,21.09,0,0,1-4.77,11.67v-5.81H49.17v4.76A30,30,0,0,1,45,105a21,21,0,0,1-3.06-12.23C42.5,84.33,48.63,77.06,58,72.15v1.9h55.07V69.5a58.43,58.43,0,0,1,15.36,7.71C137.08,83.41,142.11,91.49,141.5,100Z"/><path class="cls-34" d="M141.09,99.93a20.87,20.87,0,0,1-4.73,11.58v-5.69H49.51v4.65a30.28,30.28,0,0,1-4.18-5.5,20.86,20.86,0,0,1-3-12.13c.6-8.41,6.68-15.62,16-20.49v1.7h54.63V69.72a57.61,57.61,0,0,1,15.23,7.65C136.72,83.52,141.7,91.53,141.09,99.93Z"/><path class="cls-35" d="M140.69,99.91A20.74,20.74,0,0,1,136,111.38v-5.56H49.86v4.53a29.79,29.79,0,0,1-4.15-5.45,20.68,20.68,0,0,1-3-12c.6-8.34,6.63-15.49,15.89-20.32v1.5h54.17V69.93a57.31,57.31,0,0,1,15.11,7.59C136.35,83.62,141.29,91.57,140.69,99.91Z"/><path class="cls-36" d="M140.28,99.88a20.44,20.44,0,0,1-4.65,11.38v-5.44H50.2v4.42a29.74,29.74,0,0,1-4.11-5.41,20.51,20.51,0,0,1-3-11.93c.59-8.27,6.57-15.37,15.75-20.16v1.31h53.73v-3.9a57.1,57.1,0,0,1,15,7.53C136,83.73,140.88,91.61,140.28,99.88Z"/><path class="cls-37" d="M139.88,99.85a20.22,20.22,0,0,1-4.62,11.28v-5.31H50.55v4.3a29.25,29.25,0,0,1-4.08-5.36,20.4,20.4,0,0,1-3-11.83c.59-8.2,6.52-15.24,15.62-20v1.11h53.29V70.37a56.81,56.81,0,0,1,14.86,7.47C135.61,83.84,140.47,91.65,139.88,99.85Z"/><path class="cls-38" d="M139.47,99.82A20.16,20.16,0,0,1,134.9,111v-5.19h-84V110a29.2,29.2,0,0,1-4-5.32A20.16,20.16,0,0,1,43.92,93c.58-8.14,6.46-15.11,15.49-19.82v.91h52.83V70.59A56.34,56.34,0,0,1,127,78C135.24,83.94,140.06,91.69,139.47,99.82Z"/><path class="cls-39" d="M139.07,99.79a20,20,0,0,1-4.54,11.1v-5.07H51.24v4.07a29,29,0,0,1-4-5.27A20,20,0,0,1,44.32,93c.58-8.06,6.41-15,15.36-19.64v.71h52.39V70.81a55.52,55.52,0,0,1,14.61,7.34C134.87,84.05,139.65,91.73,139.07,99.79Z"/><path class="cls-40" d="M138.67,99.76a19.81,19.81,0,0,1-4.51,11v-4.94H51.59v4a28.55,28.55,0,0,1-4-5.22A19.82,19.82,0,0,1,44.73,93C45.3,85,51.08,78.16,60,73.53v.52h51.94V71a55.2,55.2,0,0,1,14.49,7.27C134.5,84.15,139.24,91.77,138.67,99.76Z"/><path class="cls-41" d="M138.26,99.73a19.67,19.67,0,0,1-4.46,10.91v-4.82H51.93v3.84A28.5,28.5,0,0,1,48,104.48,19.71,19.71,0,0,1,45.13,93c.57-7.92,6.3-14.72,15.1-19.31v.32h51.49v-2.8a54.54,54.54,0,0,1,14.36,7.21C134.13,84.26,138.83,91.81,138.26,99.73Z"/><path class="cls-42" d="M137.86,99.7a19.52,19.52,0,0,1-4.43,10.81v-4.69H52.28v3.72a28,28,0,0,1-3.91-5.13,19.47,19.47,0,0,1-2.83-11.34c.56-7.85,6.24-14.6,15-19.14v.12h51.05V71.46a54.48,54.48,0,0,1,14.23,7.15C133.76,84.36,138.42,91.85,137.86,99.7Z"/><path class="cls-43" d="M137.45,99.67a19.36,19.36,0,0,1-4.38,10.72v-4.57H52.62v3.61a28.42,28.42,0,0,1-3.87-5.09A19.36,19.36,0,0,1,45.94,93.1c.56-7.79,6.19-14.47,14.83-19a54.18,54.18,0,0,1,15-5v4.93h18V68.19C119,70,138.57,84.1,137.45,99.67Z"/><path class="cls-44" d="M137.05,99.64a19.16,19.16,0,0,1-4.35,10.63v-4.45H53v3.49a27.63,27.63,0,0,1-3.84-5,19,19,0,0,1-2.78-11.13c.55-7.72,6.13-14.34,14.7-18.81a53.18,53.18,0,0,1,14.84-4.95v4.68H93.7V68.44C118.75,70.24,138.15,84.21,137.05,99.64Z"/><path class="cls-45" d="M136.64,99.61a18.88,18.88,0,0,1-4.31,10.53v-4.32h-79v3.38a27.54,27.54,0,0,1-3.81-5,19,19,0,0,1-2.76-11C47.3,85.51,52.83,79,61.32,74.52A52.47,52.47,0,0,1,76,69.61v4.44H93.69V68.69C118.51,70.47,137.74,84.32,136.64,99.61Z"/><path class="cls-46" d="M136.24,99.59A18.84,18.84,0,0,1,132,110v-4.2H53.66v3.26a27.09,27.09,0,0,1-3.77-5,18.7,18.7,0,0,1-2.73-10.93c.54-7.58,6-14.09,14.44-18.48s19.77-6.66,32.07-5.77C118.27,70.7,137.32,84.43,136.24,99.59Z"/><path class="cls-47" d="M135.83,99.56a18.65,18.65,0,0,1-4.23,10.34v-4.08H54V109a26.55,26.55,0,0,1-3.74-4.92,18.61,18.61,0,0,1-2.71-10.83c.54-7.51,6-14,14.31-18.31s19.59-6.6,31.78-5.72C118,70.94,136.91,84.53,135.83,99.56Z"/><path class="cls-48" d="M135.43,99.53a18.49,18.49,0,0,1-4.19,10.24v-4H54.35v3a26.44,26.44,0,0,1-3.7-4.87A18.42,18.42,0,0,1,48,93.25c.53-7.45,5.91-13.83,14.17-18.14s19.42-6.54,31.49-5.67C117.78,71.17,136.49,84.64,135.43,99.53Z"/><path class="cls-49" d="M135,99.5a18.3,18.3,0,0,1-4.15,10.15v-3.83H54.7v2.92A26.35,26.35,0,0,1,51,103.91a18.33,18.33,0,0,1-2.66-10.63c.53-7.38,5.86-13.71,14.05-18s19.23-6.48,31.19-5.62C117.54,71.4,136.08,84.75,135,99.5Z"/><path class="cls-50" d="M134.62,99.47a18.18,18.18,0,0,1-4.12,10v-3.7H55v2.8a26.24,26.24,0,0,1-3.63-4.78A18.08,18.08,0,0,1,48.78,93.3c1-14.6,21.11-25.07,44.82-23.37S135.67,84.86,134.62,99.47Z"/><path class="cls-51" d="M134.21,99.44a18,18,0,0,1-4.07,10v-3.58H55.39v2.68a25.41,25.41,0,0,1-3.6-4.73,17.92,17.92,0,0,1-2.61-10.44c1-14.47,20.92-24.83,44.4-23.15S135.25,85,134.21,99.44Z"/><path class="cls-52" d="M133.81,99.41a17.81,17.81,0,0,1-4,9.87v-3.46h-74v2.57a25.32,25.32,0,0,1-3.57-4.69,17.73,17.73,0,0,1-2.58-10.34c1-14.33,20.71-24.6,44-22.93S134.84,85.08,133.81,99.41Z"/><path class="cls-53" d="M133.4,99.38a17.56,17.56,0,0,1-4,9.77v-3.33H56.08v2.45a24.87,24.87,0,0,1-3.53-4.64A17.62,17.62,0,0,1,50,93.39C51,79.2,70.51,69,93.54,70.68S134.42,85.19,133.4,99.38Z"/><path class="cls-54" d="M133,99.35a17.5,17.5,0,0,1-4,9.68v-3.21H56.43v2.34a25.22,25.22,0,0,1-3.5-4.6A17.36,17.36,0,0,1,50.4,93.42c1-14.06,20.31-24.13,43.12-22.49S134,85.3,133,99.35Z"/><path class="cls-55" d="M132.59,99.32a17.22,17.22,0,0,1-3.92,9.58v-3.08H56.77V108a25.11,25.11,0,0,1-3.46-4.55,17.27,17.27,0,0,1-2.51-10c1-13.92,20.12-23.89,42.71-22.27S133.59,85.4,132.59,99.32Z"/><path class="cls-56" d="M132.19,99.29a17.14,17.14,0,0,1-3.88,9.49v-3H57.12v2.11a24.67,24.67,0,0,1-3.43-4.51,17.1,17.1,0,0,1-2.48-9.94c1-13.78,19.92-23.65,42.28-22S133.18,85.51,132.19,99.29Z"/><path class="cls-57" d="M131.78,99.27a16.89,16.89,0,0,1-3.84,9.39v-2.84H62.1v6c-6.94-5-11-11.49-10.49-18.31,1-13.65,19.72-23.42,41.86-21.83S132.76,85.62,131.78,99.27Z"/><path class="cls-58" d="M131.38,99.24a16.8,16.8,0,0,1-3.81,9.29v-2.71H62.4v5.84C55.53,106.72,51.53,100.29,52,93.54,53,80,71.54,70.36,93.45,71.93S132.35,85.73,131.38,99.24Z"/><path class="cls-59" d="M131,99.21a16.64,16.64,0,0,1-3.76,9.2v-2.59H62.69v5.69c-6.79-4.89-10.75-11.26-10.27-17.94,1-13.37,19.32-22.95,41-21.39S131.93,85.84,131,99.21Z"/><path class="cls-60" d="M130.57,99.18a16.35,16.35,0,0,1-3.73,9.1v-2.46H63v5.53c-6.72-4.84-10.64-11.14-10.16-17.75,1-13.24,19.12-22.71,40.59-21.17S131.52,86,130.57,99.18Z"/><path class="cls-61" d="M130.16,99.15a16.21,16.21,0,0,1-3.68,9v-2.34H63.29v5.38c-6.65-4.79-10.53-11-10.06-17.58.94-13.09,18.92-22.47,40.17-20.94S131.1,86.06,130.16,99.15Z"/><path class="cls-62" d="M129.76,99.12a16.12,16.12,0,0,1-3.65,8.92v-2.22H63.59V111c-6.58-4.74-10.42-10.91-10-17.39.93-13,18.72-22.23,39.74-20.72S130.69,86.17,129.76,99.12Z"/><path class="cls-63" d="M129.35,99.09a15.84,15.84,0,0,1-3.61,8.82v-2.09H63.89v5.06c-6.51-4.68-10.31-10.79-9.85-17.2.92-12.81,18.53-22,39.32-20.5S130.27,86.27,129.35,99.09Z"/><path class="cls-64" d="M129,99.06a15.77,15.77,0,0,1-3.57,8.73v-2H64.19v4.91c-6.44-4.64-10.2-10.68-9.75-17C55.36,81,72.77,72,93.34,73.43S129.86,86.38,129,99.06Z"/><path class="cls-65" d="M128.54,99a15.49,15.49,0,0,1-3.53,8.63v-1.84H64.49v4.75C58.12,106,54.4,100,54.85,93.74,55.75,81.2,73,72.22,93.33,73.68S129.44,86.49,128.54,99Z"/><path class="cls-66" d="M128.14,99a15.49,15.49,0,0,1-3.49,8.54v-1.72H64.79v4.6c-6.31-4.54-10-10.45-9.54-16.65.9-12.4,17.93-21.29,38.06-19.84S129,86.6,128.14,99Z"/><path class="cls-67" d="M127.73,99a15.26,15.26,0,0,1-3.45,8.45v-1.6H65.09v4.44c-6.24-4.49-9.87-10.33-9.43-16.46.88-12.27,17.73-21,37.63-19.62S128.61,86.71,127.73,99Z"/><path class="cls-68" d="M127.33,99a15,15,0,0,1-3.42,8.34v-1.47H65.39v4.29c-6.17-4.44-9.76-10.22-9.33-16.28C56.94,81.7,73.59,73,93.27,74.43S128.2,86.82,127.33,99Z"/><path class="cls-69" d="M126.92,98.92a14.84,14.84,0,0,1-3.37,8.25v-1.35H65.68V110c-6.09-4.39-9.64-10.1-9.21-16.09.86-12,17.33-20.58,36.79-19.18S127.78,86.93,126.92,98.92Z"/><path class="cls-70" d="M126.52,98.89a14.64,14.64,0,0,1-3.34,8.15v-1.22H66v4c-6-4.33-9.53-10-9.11-15.9C57.73,82,74,73.54,93.24,74.93S127.37,87,126.52,98.89Z"/><path class="cls-71" d="M126.11,98.86a14.53,14.53,0,0,1-3.29,8.06v-1.1H66.28v3.82c-6-4.29-9.42-9.87-9-15.72.84-11.72,16.93-20.11,35.94-18.74S127,87.14,126.11,98.86Z"/><path class="cls-72" d="M125.71,98.83a14.42,14.42,0,0,1-3.26,8v-1H66.58v3.66c-5.88-4.23-9.31-9.75-8.9-15.54.84-11.57,16.74-19.86,35.52-18.52S126.54,87.25,125.71,98.83Z"/><path class="cls-73" d="M125.3,98.8a14.11,14.11,0,0,1-3.22,7.87v-.85H66.88v3.51c-5.81-4.19-9.2-9.64-8.79-15.36.82-11.44,16.53-19.63,35.09-18.3S126.12,87.36,125.3,98.8Z"/><path class="cls-74" d="M124.9,98.77a14,14,0,0,1-3.18,7.78v-.73H67.18v3.35C61.44,105,58.09,99.65,58.49,94c.82-11.3,16.34-19.39,34.68-18.08S125.71,87.47,124.9,98.77Z"/><path class="cls-75" d="M124.49,98.74a13.83,13.83,0,0,1-3.14,7.68v-.6H67.48V109c-5.67-4.08-9-9.4-8.58-15C59.7,82.87,75,74.87,93.15,76.17S125.3,87.58,124.49,98.74Z"/><path class="cls-76" d="M124.09,98.71A13.62,13.62,0,0,1,121,106.3v-.48H67.78v3c-5.61-4-8.87-9.29-8.48-14.8.8-11,15.94-18.92,33.83-17.64S124.88,87.69,124.09,98.71Z"/><path class="cls-77" d="M123.68,98.68a13.46,13.46,0,0,1-3.06,7.5v-.36H68.08v2.88c-5.54-4-8.76-9.17-8.37-14.61.78-10.89,15.74-18.69,33.4-17.42S124.47,87.8,123.68,98.68Z"/><path class="cls-78" d="M123.28,98.65c-.39,5.38-4.27,10-10.24,13.1v-5.93H68.38v2.73c-5.47-3.94-8.65-9.06-8.27-14.43.78-10.75,15.54-18.45,33-17.2S124.05,87.9,123.28,98.65Z"/><path class="cls-79" d="M122.87,98.63c-.38,5.3-4.21,9.86-10.1,12.93v-5.74H68.67v2.57c-5.39-3.88-8.53-8.94-8.15-14.24.76-10.61,15.34-18.21,32.56-17S123.64,88,122.87,98.63Z"/><path class="cls-80" d="M122.47,98.6c-.38,5.23-4.16,9.73-10,12.76v-5.54H69v2.41c-5.32-3.83-8.42-8.82-8-14,.76-10.48,15.14-18,32.14-16.76S123.22,88.12,122.47,98.6Z"/><path class="cls-81" d="M122.06,98.57c-.37,5.17-4.1,9.6-9.84,12.59v-5.34H69.27v2.26C64,104.3,61,99.37,61.33,94.21,62.07,83.87,76.27,76.47,93,77.67S122.81,88.23,122.06,98.57Z"/><path class="cls-82" d="M121.66,98.54c-.37,5.1-4,9.47-9.71,12.43v-5.15H69.57v2.1c-5.18-3.73-8.2-8.59-7.84-13.69C62.47,84,76.47,76.73,93,77.92S122.39,88.34,121.66,98.54Z"/><path class="cls-83" d="M121.25,98.51c-.36,5-4,9.35-9.58,12.26v-5H69.87v2c-5.11-3.68-8.09-8.48-7.73-13.51C62.86,84.2,76.68,77,93,78.17S122,88.45,121.25,98.51Z"/><path class="cls-84" d="M120.85,98.48c-.36,5-3.94,9.22-9.45,12.09v-4.75H70.17v1.79c-5-3.63-8-8.36-7.63-13.32.72-9.92,14.35-17,30.45-15.87S121.56,88.56,120.85,98.48Z"/><path class="cls-85" d="M120.44,98.45c-.35,4.89-3.88,9.09-9.32,11.93v-4.56H70.47v1.64c-5-3.58-7.87-8.25-7.52-13.14.7-9.78,14.14-16.79,30-15.65S121.15,88.67,120.44,98.45Z"/><path class="cls-86" d="M120,98.42c-.35,4.83-3.83,9-9.19,11.76v-4.36H70.77v1.48c-4.9-3.53-7.76-8.13-7.42-13C64.05,84.7,77.3,77.79,93,78.92S120.73,88.77,120,98.42Z"/><path class="cls-87" d="M119.63,98.39c-.34,4.76-3.77,8.84-9,11.59v-4.16H71.07v1.32c-4.84-3.48-7.65-8-7.31-12.76.68-9.51,13.74-16.32,29.17-15.21S120.32,88.88,119.63,98.39Z"/><path class="cls-88" d="M119.23,98.36c-.34,4.69-3.72,8.71-8.93,11.42v-4H71.37V107c-4.77-3.43-7.54-7.89-7.21-12.58.68-9.37,13.55-16.08,28.75-15S119.9,89,119.23,98.36Z"/><path class="cls-89" d="M118.82,98.34c-.33,4.61-3.66,8.57-8.79,11.25v-3.77H71.66v1c-4.69-3.38-7.42-7.77-7.09-12.39.66-9.24,13.34-15.85,28.33-14.77S119.49,89.1,118.82,98.34Z"/><path class="cls-90" d="M118.42,98.31c-.33,4.54-3.61,8.45-8.66,11.08v-3.57H72v.86c-4.62-3.33-7.31-7.66-7-12.21.66-9.1,13.15-15.61,27.91-14.55S119.07,89.21,118.42,98.31Z"/><path class="cls-91" d="M118,98.28c-.32,4.48-3.55,8.32-8.53,10.91v-3.37H72.26v.7c-4.55-3.28-7.2-7.54-6.88-12,.64-9,13-15.38,27.48-14.33S118.66,89.32,118,98.28Z"/><path class="cls-92" d="M117.61,98.25c-.32,4.41-3.5,8.19-8.4,10.75v-3.18H72.56v.54c-4.48-3.22-7.09-7.42-6.78-11.83.64-8.82,12.75-15.14,27.06-14.11S118.24,89.43,117.61,98.25Z"/><path class="cls-93" d="M117.21,98.22c-.32,4.34-3.45,8.07-8.27,10.58v-3H72.86v.39c-4.41-3.18-7-7.31-6.67-11.66.62-8.68,12.55-14.9,26.64-13.88S117.83,89.54,117.21,98.22Z"/><path class="cls-94" d="M116.8,98.19c-.31,4.27-3.39,7.94-8.14,10.41v-2.78H73.16v.23c-4.34-3.12-6.87-7.19-6.57-11.47C67.21,86,78.94,79.92,92.81,80.91S117.41,89.64,116.8,98.19Z"/><path class="cls-95" d="M116.4,98.16c-.31,4.2-3.34,7.81-8,10.24v-2.58H90.6v5.79c-13.64-1-24.21-8.59-23.6-17S79.15,80.18,92.79,81.16,117,89.75,116.4,98.16Z"/><path class="cls-96" d="M116,98.13c-.3,4.14-3.28,7.68-7.88,10.08v-2.39H90.62v5.54c-13.42-1-23.81-8.45-23.22-16.72S79.35,80.45,92.77,81.41,116.58,89.86,116,98.13Z"/><path class="cls-97" d="M115.59,98.1c-.3,4.07-3.23,7.56-7.75,9.91v-2.19H90.64v5.29c-13.19-1-23.42-8.31-22.83-16.44s11.75-14,24.94-13S116.17,90,115.59,98.1Z"/><ellipse class="cls-98" cx="91.7" cy="96.39" rx="14.51" ry="23.54" transform="translate(-11.01 180.94) rotate(-85.89)"/><ellipse class="cls-99" cx="91.7" cy="96.39" rx="14.26" ry="23.14" transform="translate(-11.01 180.94) rotate(-85.89)"/><ellipse class="cls-100" cx="91.7" cy="96.39" rx="14.01" ry="22.73" transform="translate(-11.01 180.94) rotate(-85.89)"/><ellipse class="cls-101" cx="91.7" cy="96.39" rx="13.76" ry="22.33" transform="translate(-11.01 180.94) rotate(-85.89)"/><ellipse class="cls-102" cx="91.7" cy="96.39" rx="13.51" ry="21.92" transform="matrix(0.07, -1, 1, 0.07, -11.01, 180.94)"/><path class="cls-103" d="M113.16,97.93c-.53,7.3-10.56,12.53-22.41,11.68s-21-7.46-20.51-14.76S80.79,82.31,92.65,83.16,113.68,90.62,113.16,97.93Z"/><ellipse class="cls-104" cx="91.7" cy="96.39" rx="13.01" ry="21.11" transform="translate(-11.01 180.94) rotate(-85.89)"/><ellipse class="cls-105" cx="91.7" cy="96.39" rx="12.76" ry="20.7" transform="translate(-11.01 180.94) rotate(-85.89)"/><ellipse class="cls-106" cx="91.7" cy="96.39" rx="12.51" ry="20.3" transform="translate(-11.01 180.94) rotate(-85.89)"/><ellipse class="cls-107" cx="91.7" cy="96.39" rx="12.26" ry="19.89" transform="matrix(0.07, -1, 1, 0.07, -11.01, 180.94)"/><ellipse class="cls-108" cx="91.7" cy="96.39" rx="12.01" ry="19.49" transform="translate(-11.01 180.94) rotate(-85.89)"/><ellipse class="cls-109" cx="91.7" cy="96.39" rx="11.76" ry="19.08" transform="translate(-11.01 180.94) rotate(-85.89)"/><ellipse class="cls-110" cx="91.7" cy="96.39" rx="11.51" ry="18.67" transform="translate(-11.01 180.94) rotate(-85.89)"/><ellipse class="cls-111" cx="91.7" cy="96.39" rx="11.26" ry="18.27" transform="translate(-11.01 180.94) rotate(-85.89)"/><ellipse class="cls-112" cx="91.7" cy="96.39" rx="11.01" ry="17.86" transform="translate(-11.01 180.94) rotate(-85.89)"/><ellipse class="cls-113" cx="91.7" cy="96.39" rx="10.76" ry="17.46" transform="translate(-11.01 180.94) rotate(-85.89)"/><ellipse class="cls-114" cx="91.7" cy="96.39" rx="10.51" ry="17.05" transform="translate(-11.01 180.94) rotate(-85.89)"/><ellipse class="cls-115" cx="91.7" cy="96.39" rx="10.26" ry="16.64" transform="translate(-11.01 180.94) rotate(-85.89)"/><path class="cls-116" d="M107.89,97.55c-.39,5.51-8,9.46-16.91,8.82S75.1,100.74,75.5,95.22s8-9.46,16.91-8.82S108.29,92,107.89,97.55Z"/><ellipse class="cls-117" cx="91.7" cy="96.39" rx="9.76" ry="15.83" transform="translate(-11.01 180.94) rotate(-85.89)"/><path class="cls-118" d="M107.08,97.49c-.37,5.24-7.57,9-16.06,8.38s-15.09-5.35-14.71-10.59,7.57-9,16.07-8.38S107.46,92.25,107.08,97.49Z"/><ellipse class="cls-119" cx="91.7" cy="96.39" rx="9.26" ry="15.02" transform="translate(-11.01 180.94) rotate(-85.89)"/><ellipse class="cls-120" cx="91.7" cy="96.39" rx="9.01" ry="14.61" transform="translate(-11.01 180.94) rotate(-85.89)"/><ellipse class="cls-121" cx="91.7" cy="96.39" rx="8.76" ry="14.21" transform="translate(-11.01 180.94) rotate(-85.89)"/><path class="cls-122" d="M105.46,97.38c-.33,4.68-6.77,8-14.37,7.49s-13.5-4.79-13.16-9.47,6.77-8,14.38-7.5S105.8,92.69,105.46,97.38Z"/><ellipse class="cls-123" cx="91.7" cy="96.39" rx="8.26" ry="13.4" transform="translate(-11.01 180.94) rotate(-85.89)"/><ellipse class="cls-124" cx="91.7" cy="96.39" rx="8.01" ry="12.99" transform="translate(-11.01 180.94) rotate(-85.89)"/><path class="cls-125" d="M104.25,97.29c-.31,4.27-6.18,7.33-13.11,6.83s-12.3-4.36-12-8.63,6.18-7.34,13.11-6.84S104.55,93,104.25,97.29Z"/><path class="cls-126" d="M103.84,97.26c-.29,4.13-6,7.09-12.68,6.61s-11.91-4.22-11.61-8.36,6-7.09,12.68-6.61S104.14,93.12,103.84,97.26Z"/><ellipse class="cls-127" cx="91.7" cy="96.39" rx="7.26" ry="11.77" transform="translate(-11.01 180.94) rotate(-85.89)"/><path class="cls-128" d="M103,97.2c-.27,3.86-5.57,6.62-11.84,6.17s-11.11-3.94-10.83-7.8S85.94,89,92.2,89.4,103.31,93.34,103,97.2Z"/><path class="cls-129" d="M102.63,97.17c-.27,3.72-5.38,6.39-11.42,6S80.5,99.32,80.76,95.6s5.38-6.38,11.42-5.95S102.9,93.45,102.63,97.17Z"/><path class="cls-130" d="M102.22,97.14c-.25,3.59-5.18,6.15-11,5.73s-10.32-3.66-10.06-7.24,5.18-6.15,11-5.73S102.48,93.56,102.22,97.14Z"/><path class="cls-130" d="M101.82,97.11c-.25,3.45-5,5.92-10.57,5.52s-9.92-3.52-9.68-7,5-5.91,10.57-5.51S102.07,93.67,101.82,97.11Z"/><ellipse class="cls-131" cx="91.7" cy="96.39" rx="6" ry="9.74" transform="translate(-11.01 180.94) rotate(-85.89)"/><ellipse class="cls-132" cx="91.7" cy="96.39" rx="5.75" ry="9.34" transform="translate(-11.01 180.94) rotate(-85.89)"/><path class="cls-133" d="M100.6,97c-.21,3-4.38,5.2-9.3,4.85s-8.73-3.1-8.51-6.13,4.38-5.21,9.3-4.85S100.82,94,100.6,97Z"/><path class="cls-134" d="M100.2,97c-.21,2.89-4.18,5-8.88,4.63s-8.33-3-8.13-5.85,4.19-5,8.88-4.63S100.41,94.1,100.2,97Z"/><path class="cls-135" d="M99.79,97c-.19,2.75-4,4.73-8.45,4.41s-7.94-2.82-7.74-5.57,4-4.74,8.45-4.41S100,94.21,99.79,97Z"/><path class="cls-136" d="M99.39,96.94c-.19,2.62-3.79,4.49-8,4.19s-7.55-2.68-7.36-5.3,3.79-4.49,8-4.18S99.58,94.32,99.39,96.94Z"/><ellipse class="cls-137" cx="91.7" cy="96.39" rx="4.5" ry="7.31" transform="translate(-11.01 180.94) rotate(-85.89)"/><path class="cls-138" d="M98.58,96.88c-.17,2.34-3.39,4-7.19,3.75s-6.75-2.39-6.58-4.74,3.39-4,7.19-3.75S98.75,94.54,98.58,96.88Z"/><path class="cls-139" d="M98.17,96.85c-.15,2.21-3.18,3.79-6.76,3.53s-6.35-2.25-6.19-4.46S88.4,92.14,92,92.39,98.33,94.65,98.17,96.85Z"/><path class="cls-140" d="M97.77,96.82c-.15,2.07-3,3.55-6.34,3.31S85.47,98,85.62,96s3-3.55,6.34-3.31S97.92,94.76,97.77,96.82Z"/><path class="cls-141" d="M97.36,96.79c-.13,1.93-2.78,3.32-5.91,3.09s-5.56-2-5.42-3.9,2.79-3.31,5.92-3.09S97.5,94.86,97.36,96.79Z"/><path class="cls-142" d="M97,96.76c-.13,1.8-2.59,3.08-5.5,2.87s-5.16-1.83-5-3.62,2.59-3.08,5.5-2.87S97.09,95,97,96.76Z"/><path class="cls-143" d="M96.55,96.74c-.11,1.65-2.39,2.83-5.07,2.64S86.72,97.69,86.84,96s2.39-2.84,5.07-2.65S96.67,95.08,96.55,96.74Z"/><path class="cls-143" d="M96.15,96.71C96,98.22,94,99.31,91.5,99.13s-4.37-1.55-4.26-3.06,2.19-2.6,4.65-2.43S96.26,95.19,96.15,96.71Z"/><path class="cls-144" d="M95.75,96.68c-.1,1.38-2,2.36-4.23,2.2s-4-1.41-3.87-2.78,2-2.37,4.23-2.21S95.84,95.3,95.75,96.68Z"/><path class="cls-145" d="M95.34,96.65c-.09,1.24-1.79,2.13-3.81,2s-3.57-1.26-3.48-2.5,1.79-2.13,3.81-2S95.43,95.41,95.34,96.65Z"/><path class="cls-145" d="M94.94,96.62c-.08,1.1-1.6,1.89-3.39,1.76s-3.17-1.12-3.09-2.23,1.59-1.89,3.38-1.76S95,95.52,94.94,96.62Z"/><path class="cls-146" d="M94.53,96.59c-.07,1-1.39,1.66-3,1.54s-2.78-1-2.71-1.95,1.4-1.65,3-1.54S94.6,95.63,94.53,96.59Z"/><path class="cls-146" d="M94.13,96.56c-.06.83-1.2,1.42-2.54,1.32s-2.38-.84-2.32-1.67,1.19-1.42,2.53-1.32S94.18,95.73,94.13,96.56Z"/><path class="cls-146" d="M93.72,96.53c0,.69-1,1.18-2.11,1.1s-2-.7-1.94-1.39,1-1.18,2.12-1.1S93.77,95.84,93.72,96.53Z"/><path class="cls-147" d="M93.32,96.5c0,.55-.8,1-1.7.88s-1.58-.56-1.54-1.11.79-1,1.69-.88S93.36,96,93.32,96.5Z"/><path class="cls-147" d="M92.91,96.47c0,.42-.6.71-1.27.67s-1.19-.43-1.16-.84.6-.71,1.27-.66S92.94,96.06,92.91,96.47Z"/><path class="cls-147" d="M92.51,96.44c0,.28-.4.48-.85.45s-.79-.29-.77-.56.39-.47.84-.44S92.53,96.17,92.51,96.44Z"/><path class="cls-147" d="M92.1,96.42c0,.13-.2.23-.42.22s-.4-.14-.39-.28.2-.24.42-.22S92.11,96.28,92.1,96.42Z"/></g><path class="cls-148" d="M193.87,75.89c-.1,1.33-2.08,3-6.23,4.59h0c-10.11,4-33.1,8.11-73,8.11-56.2,0-73.77-10-73.69-13.69,0-.78.81-1.73,2.43-2.75.26-.17.55-.34.85-.51C50.09,68.4,64,64.52,87.5,62.58c7.37-.61,15.68-1,25-1.17a290.71,290.71,0,0,1,34,1.36h.05l.14,0A175.49,175.49,0,0,1,179,68.85a.05.05,0,0,1,0,0C189.11,71.89,194,74.9,193.87,75.89Z"/><path class="cls-149" d="M193.87,75.89c-.35,4.57-23,12.71-79.21,12.71S40.89,78.61,41,74.91c0-.78.81-1.73,2.43-2.75-.85.66-1.78,2,.14,4.18,2.9,3.26,21.11,11.12,73.32,11.12s72.22-8.92,74.49-11.12-11.48-7.18-12.27-7.47C189.11,71.89,194,74.9,193.87,75.89Z"/><path class="cls-150" d="M97.33,87l1,2.79s10,1.45,30.42.34L131,87.27S116.86,87.46,97.33,87Z"/><path class="cls-151" d="M98.34,89.82l.71-.42a243.71,243.71,0,0,0,29.1.21l.61.55A156.45,156.45,0,0,1,98.34,89.82Z"/><path class="cls-152" d="M70.94,70.66s4.16,2.27,4.84,2.73S64.93,83.1,62.32,83.25,52,81.79,52,81.79a167.29,167.29,0,0,0,45.29,6.46s-5.36-.57-6-2,7-9.09,7-9.09,40.15,1.73,60.64-4.74Z"/><path class="cls-153" d="M70.6,86a76.73,76.73,0,0,0,26.73,17.7S81.11,96.25,70.6,86Z"/><path class="cls-154" d="M161.9,86a76.73,76.73,0,0,1-26.73,17.7S151.39,96.25,161.9,86Z"/><path class="cls-155" d="M138.7,102.2S155.33,95.94,161.9,86C161.9,86,156,93.77,138.7,102.2Z"/><path class="cls-156" d="M70.6,86a100.18,100.18,0,0,0,26.73,17.7S78.74,93.32,70.6,86Z"/><g class="cls-157"><g class="cls-158"><rect class="cls-159" x="146.73" y="62.79" width="47.22" height="17.7"/><path class="cls-160" d="M184.58,77.13c-.27,3.78-3,7-7.2,9.21v-5H146v2.75c-3.84-2.77-6.08-6.37-5.81-10.15.54-7.56,10.93-13,23.19-12.09S185.13,69.57,184.58,77.13Z"/><path class="cls-161" d="M184.47,77.12c-.27,3.76-3,7-7.16,9.17v-5H146.05V84c-3.82-2.75-6.05-6.33-5.78-10.09.54-7.52,10.87-12.91,23.08-12S185,69.6,184.47,77.12Z"/><path class="cls-162" d="M184.36,77.11c-.27,3.75-3,7-7.13,9.12V81.34H146.14V84c-3.81-2.74-6-6.3-5.76-10,.54-7.49,10.82-12.85,23-12S184.9,69.63,184.36,77.11Z"/><path class="cls-163" d="M184.25,77.11c-.27,3.72-3,6.91-7.1,9.07V81.34H146.22V84c-3.78-2.73-6-6.27-5.72-10,.53-7.44,10.76-12.77,22.84-11.91S184.78,69.66,184.25,77.11Z"/><path class="cls-164" d="M184.13,77.1c-.26,3.7-2.94,6.88-7,9V81.34H146.3v2.57c-3.76-2.71-6-6.24-5.69-9.94.53-7.41,10.71-12.71,22.72-11.85S184.67,69.69,184.13,77.1Z"/><path class="cls-165" d="M184,77.09c-.26,3.68-2.93,6.85-7,9V81.34H146.38v2.53c-3.74-2.7-5.92-6.21-5.66-9.89.53-7.37,10.65-12.65,22.61-11.79S184.55,69.72,184,77.09Z"/><path class="cls-166" d="M183.91,77.08c-.26,3.67-2.91,6.81-7,8.93V81.34H146.47v2.49c-3.73-2.69-5.9-6.18-5.64-9.84.53-7.33,10.6-12.58,22.49-11.73S184.44,69.75,183.91,77.08Z"/><path class="cls-167" d="M183.8,77.07c-.27,3.65-2.9,6.78-7,8.89V81.34h-30.3v2.44c-3.71-2.66-5.87-6.14-5.6-9.78.52-7.3,10.54-12.52,22.37-11.67S184.32,69.78,183.8,77.07Z"/><path class="cls-168" d="M183.68,77.06c-.26,3.63-2.88,6.74-6.9,8.84V81.34H146.63v2.4c-3.68-2.65-5.83-6.11-5.57-9.74.52-7.25,10.48-12.45,22.25-11.6S184.21,69.81,183.68,77.06Z"/><path class="cls-169" d="M183.57,77.06c-.26,3.61-2.86,6.7-6.87,8.79V81.34h-30V83.7c-3.67-2.64-5.81-6.08-5.55-9.69.52-7.21,10.43-12.38,22.14-11.54S184.09,69.84,183.57,77.06Z"/><path class="cls-170" d="M183.46,77.05c-.26,3.59-2.85,6.67-6.84,8.75V81.34H146.8v2.31c-3.65-2.62-5.78-6-5.52-9.63.52-7.18,10.38-12.32,22-11.48S184,69.87,183.46,77.05Z"/><path class="cls-171" d="M183.35,77c-.26,3.57-2.84,6.63-6.8,8.7v-4.4H146.88v2.27c-3.63-2.61-5.74-6-5.49-9.58.52-7.14,10.32-12.26,21.91-11.42S183.86,69.9,183.35,77Z"/><path class="cls-172" d="M183.24,77c-.26,3.55-2.83,6.6-6.77,8.66V81.34H147v2.23c-3.6-2.6-5.71-6-5.45-9.53.51-7.11,10.26-12.19,21.78-11.36S183.75,69.93,183.24,77Z"/><path class="cls-173" d="M183.12,77c-.25,3.54-2.8,6.57-6.72,8.61V81.34H147.05v2.18c-3.59-2.58-5.68-5.94-5.43-9.48.51-7.06,10.21-12.12,21.67-11.3S183.63,70,183.12,77Z"/><path class="cls-174" d="M183,77c-.25,3.51-2.79,6.52-6.69,8.56V81.34H147.13v2.14c-3.57-2.57-5.65-5.92-5.4-9.43.51-7,10.16-12.06,21.55-11.24S183.52,70,183,77Z"/><path class="cls-175" d="M182.9,77c-.25,3.49-2.78,6.49-6.66,8.51V81.34h-29v2.1c-3.55-2.56-5.62-5.89-5.37-9.38.5-7,10.1-12,21.44-11.18S183.4,70,182.9,77Z"/><path class="cls-176" d="M182.79,77c-.25,3.47-2.76,6.46-6.62,8.47V81.34H147.3v2c-3.54-2.54-5.59-5.85-5.34-9.32.49-6.95,10-11.93,21.31-11.12S183.29,70.05,182.79,77Z"/><path class="cls-177" d="M182.68,77c-.25,3.46-2.75,6.42-6.59,8.42V81.34H147.38v2c-3.51-2.53-5.56-5.82-5.31-9.27.49-6.92,10-11.86,21.2-11.06S183.17,70.08,182.68,77Z"/><path class="cls-178" d="M182.56,77c-.24,3.44-2.73,6.39-6.54,8.38v-4H147.46v2c-3.49-2.52-5.53-5.79-5.28-9.23.49-6.87,9.93-11.79,21.08-11S183.06,70.11,182.56,77Z"/><path class="cls-179" d="M182.45,77c-.24,3.41-2.71,6.35-6.51,8.32v-4h-28.4v1.93c-3.47-2.51-5.49-5.76-5.25-9.18.49-6.83,9.88-11.73,21-10.93S182.94,70.14,182.45,77Z"/><path class="cls-180" d="M182.34,77c-.25,3.4-2.7,6.31-6.47,8.28V81.34H147.63v1.88c-3.46-2.48-5.47-5.72-5.23-9.12.49-6.8,9.83-11.66,20.86-10.87S182.83,70.17,182.34,77Z"/><path class="cls-181" d="M182.23,77c-.25,3.38-2.69,6.28-6.44,8.24V81.34H147.71v1.84c-3.43-2.47-5.44-5.69-5.19-9.07.48-6.76,9.76-11.6,20.73-10.81S182.71,70.2,182.23,77Z"/><path class="cls-182" d="M182.11,77c-.24,3.36-2.67,6.25-6.4,8.19v-3.8H147.79v1.8c-3.41-2.46-5.4-5.66-5.16-9,.48-6.72,9.71-11.54,20.62-10.75S182.6,70.23,182.11,77Z"/><path class="cls-183" d="M182,76.94c-.24,3.34-2.65,6.21-6.36,8.15V81.34H147.88v1.75c-3.4-2.44-5.38-5.62-5.14-9,.48-6.68,9.66-11.46,20.5-10.68S182.48,70.26,182,76.94Z"/><path class="cls-184" d="M181.89,76.94c-.24,3.32-2.64,6.17-6.33,8.09V81.34H148v1.71c-3.38-2.43-5.35-5.6-5.11-8.92.48-6.64,9.61-11.4,20.39-10.63S182.37,70.29,181.89,76.94Z"/><path class="cls-185" d="M181.78,76.93c-.24,3.3-2.63,6.13-6.29,8V81.34H148V83c-3.35-2.42-5.31-5.57-5.08-8.87.48-6.61,9.55-11.34,20.27-10.57S182.25,70.32,181.78,76.93Z"/><path class="cls-186" d="M181.67,76.92c-.24,3.28-2.61,6.1-6.26,8V81.34H148.12V83c-3.33-2.4-5.28-5.53-5-8.81.47-6.57,9.49-11.27,20.15-10.51S182.14,70.35,181.67,76.92Z"/><path class="cls-187" d="M181.55,76.91c-.23,3.27-2.59,6.07-6.22,8V81.34H161.52v6c-10.59-.76-18.8-6.67-18.33-13.2s9.44-11.21,20-10.45S182,70.38,181.55,76.91Z"/><path class="cls-188" d="M181.44,76.9c-.23,3.25-2.58,6-6.18,7.91V81.34H161.53v6c-10.53-.76-18.69-6.63-18.23-13.13S152.68,63,163.22,63.78,181.91,70.41,181.44,76.9Z"/><path class="cls-189" d="M181.33,76.9c-.23,3.22-2.56,6-6.15,7.86V81.34H161.53v5.88c-10.47-.75-18.58-6.59-18.12-13s9.33-11.07,19.8-10.32S181.79,70.44,181.33,76.9Z"/><path class="cls-190" d="M181.22,76.89c-.23,3.2-2.55,6-6.11,7.81V81.34H161.54v5.81c-10.41-.75-18.47-6.55-18-13s9.27-11,19.68-10.26S181.68,70.47,181.22,76.89Z"/><path class="cls-191" d="M181.1,76.88c-.22,3.19-2.53,5.92-6.07,7.77V81.34H161.54v5.74c-10.34-.74-18.36-6.51-17.9-12.89S152.85,63.25,163.2,64,181.56,70.5,181.1,76.88Z"/><path class="cls-192" d="M181,76.87c-.23,3.17-2.52,5.89-6,7.72V81.34H161.55V87c-10.29-.74-18.26-6.47-17.8-12.81s9.16-10.88,19.45-10.14S181.45,70.53,181,76.87Z"/><path class="cls-193" d="M180.88,76.86c-.23,3.15-2.5,5.86-6,7.68v-3.2H161.55v5.6c-10.22-.73-18.14-6.44-17.69-12.74S153,63.39,163.19,64.13,181.33,70.56,180.88,76.86Z"/><path class="cls-194" d="M180.77,76.86c-.23,3.13-2.49,5.81-6,7.63V81.34H161.56v5.53c-10.16-.73-18-6.4-17.59-12.66s9.06-10.74,19.22-10S181.22,70.59,180.77,76.86Z"/><path class="cls-195" d="M180.66,76.85c-.23,3.11-2.48,5.78-5.93,7.58V81.34H161.56V86.8c-10.1-.72-17.92-6.36-17.47-12.58s9-10.68,19.09-10S181.1,70.62,180.66,76.85Z"/><path class="cls-196" d="M180.54,76.84c-.22,3.09-2.45,5.75-5.89,7.54v-3H161.57v5.39c-10-.72-17.82-6.32-17.37-12.5s8.94-10.62,19-9.9S181,70.65,180.54,76.84Z"/><path class="cls-197" d="M180.43,76.83c-.22,3.07-2.44,5.71-5.85,7.49v-3h-13v5.32c-10-.71-17.7-6.28-17.26-12.42s8.89-10.55,18.86-9.84S180.87,70.68,180.43,76.83Z"/><ellipse class="cls-198" cx="162.37" cy="75.53" rx="11.09" ry="17.99" transform="translate(75.4 232.08) rotate(-85.89)"/><ellipse class="cls-199" cx="162.37" cy="75.53" rx="11.02" ry="17.88" transform="translate(75.4 232.08) rotate(-85.89)"/><ellipse class="cls-200" cx="162.37" cy="75.53" rx="10.95" ry="17.77" transform="translate(75.4 232.08) rotate(-85.89)"/><ellipse class="cls-201" cx="162.37" cy="75.53" rx="10.88" ry="17.66" transform="translate(75.4 232.08) rotate(-85.89)"/><ellipse class="cls-202" cx="162.37" cy="75.53" rx="10.81" ry="17.54" transform="matrix(0.07, -1, 1, 0.07, 75.4, 232.08)"/><ellipse class="cls-203" cx="162.37" cy="75.53" rx="10.74" ry="17.43" transform="translate(75.4 232.08) rotate(-85.89)"/><ellipse class="cls-204" cx="162.37" cy="75.53" rx="10.67" ry="17.32" transform="translate(75.4 232.08) rotate(-85.89)"/><path class="cls-205" d="M179.53,76.77c-.42,5.84-8.44,10-17.92,9.34s-16.82-6-16.4-11.81,8.44-10,17.92-9.34S180,70.92,179.53,76.77Z"/><ellipse class="cls-206" cx="162.37" cy="75.53" rx="10.54" ry="17.09" transform="translate(75.4 232.08) rotate(-85.89)"/><ellipse class="cls-207" cx="162.37" cy="75.53" rx="10.47" ry="16.98" transform="matrix(0.07, -1, 1, 0.07, 75.4, 232.08)"/><ellipse class="cls-208" cx="162.37" cy="75.53" rx="10.4" ry="16.87" transform="translate(75.4 232.08) rotate(-85.89)"/><ellipse class="cls-209" cx="162.37" cy="75.53" rx="10.33" ry="16.76" transform="translate(75.4 232.08) rotate(-85.89)"/><ellipse class="cls-210" cx="162.37" cy="75.53" rx="10.26" ry="16.64" transform="translate(75.4 232.08) rotate(-85.89)"/><ellipse class="cls-211" cx="162.37" cy="75.53" rx="10.19" ry="16.53" transform="translate(75.4 232.08) rotate(-85.89)"/><ellipse class="cls-212" cx="162.37" cy="75.53" rx="10.12" ry="16.42" transform="translate(75.4 232.08) rotate(-85.89)"/><ellipse class="cls-213" cx="162.37" cy="75.53" rx="10.05" ry="16.31" transform="matrix(0.07, -1, 1, 0.07, 75.4, 232.08)"/><ellipse class="cls-214" cx="162.37" cy="75.53" rx="9.98" ry="16.19" transform="translate(75.4 232.08) rotate(-85.89)"/><ellipse class="cls-215" cx="162.37" cy="75.53" rx="9.91" ry="16.08" transform="matrix(0.07, -1, 1, 0.07, 75.4, 232.08)"/><ellipse class="cls-216" cx="162.37" cy="75.53" rx="9.84" ry="15.97" transform="translate(75.4 232.08) rotate(-85.89)"/><ellipse class="cls-217" cx="162.37" cy="75.53" rx="9.77" ry="15.86" transform="translate(75.4 232.08) rotate(-85.89)"/><ellipse class="cls-218" cx="162.37" cy="75.53" rx="9.7" ry="15.75" transform="translate(75.4 232.08) rotate(-85.89)"/><ellipse class="cls-219" cx="162.37" cy="75.53" rx="9.63" ry="15.63" transform="translate(75.4 232.08) rotate(-85.89)"/><ellipse class="cls-220" cx="162.37" cy="75.53" rx="9.57" ry="15.52" transform="translate(75.4 232.08) rotate(-85.89)"/><ellipse class="cls-221" cx="162.37" cy="75.53" rx="9.5" ry="15.41" transform="translate(75.4 232.08) rotate(-85.89)"/><path class="cls-222" d="M177.63,76.63c-.38,5.19-7.51,8.91-15.93,8.31s-15-5.31-14.58-10.5,7.5-8.91,15.93-8.31S178,71.44,177.63,76.63Z"/><ellipse class="cls-223" cx="162.37" cy="75.53" rx="9.36" ry="15.18" transform="translate(75.4 232.08) rotate(-85.89)"/><path class="cls-224" d="M177.4,76.61c-.36,5.12-7.39,8.78-15.69,8.19S147,79.57,147.34,74.45s7.39-8.78,15.7-8.18S177.77,71.5,177.4,76.61Z"/><ellipse class="cls-225" cx="162.37" cy="75.53" rx="9.22" ry="14.96" transform="translate(75.4 232.08) rotate(-85.89)"/><path class="cls-226" d="M177.18,76.6c-.36,5-7.29,8.65-15.46,8.06s-14.52-5.15-14.16-10.19,7.29-8.65,15.47-8.06S177.54,71.56,177.18,76.6Z"/><ellipse class="cls-227" cx="162.37" cy="75.53" rx="9.08" ry="14.73" transform="translate(75.4 232.08) rotate(-85.89)"/><ellipse class="cls-228" cx="162.37" cy="75.53" rx="9.01" ry="14.62" transform="matrix(0.07, -1, 1, 0.07, 75.4, 232.08)"/><path class="cls-229" d="M176.84,76.57c-.35,4.93-7.12,8.46-15.11,7.88s-14.18-5-13.83-10S155,66,163,66.62,177.2,71.65,176.84,76.57Z"/><ellipse class="cls-230" cx="162.37" cy="75.53" rx="8.87" ry="14.4" transform="translate(75.4 232.08) rotate(-85.89)"/><ellipse class="cls-231" cx="162.37" cy="75.53" rx="8.8" ry="14.28" transform="translate(75.4 232.08) rotate(-85.89)"/><ellipse class="cls-232" cx="162.37" cy="75.53" rx="8.73" ry="14.17" transform="matrix(0.07, -1, 1, 0.07, 75.4, 232.08)"/><path class="cls-233" d="M176.39,76.54c-.34,4.77-6.9,8.19-14.64,7.64S148,79.3,148.35,74.53s6.9-8.19,14.64-7.64S176.74,71.77,176.39,76.54Z"/><path class="cls-234" d="M176.28,76.53c-.34,4.74-6.84,8.13-14.52,7.58s-13.64-4.84-13.3-9.57S155.3,66.41,163,67,176.62,71.8,176.28,76.53Z"/><ellipse class="cls-235" cx="162.37" cy="75.53" rx="8.53" ry="13.83" transform="translate(75.4 232.08) rotate(-85.89)"/><path class="cls-236" d="M176.06,76.52c-.34,4.66-6.74,8-14.29,7.45s-13.42-4.76-13.08-9.42,6.73-8,14.29-7.45S176.39,71.86,176.06,76.52Z"/><ellipse class="cls-237" cx="162.37" cy="75.53" rx="8.39" ry="13.61" transform="matrix(0.07, -1, 1, 0.07, 75.4, 232.08)"/><path class="cls-238" d="M175.83,76.5c-.33,4.58-6.62,7.86-14.05,7.33s-13.2-4.68-12.87-9.26,6.62-7.87,14.06-7.33S176.16,71.92,175.83,76.5Z"/><path class="cls-239" d="M175.72,76.49c-.33,4.55-6.57,7.8-13.94,7.27S148.7,79.12,149,74.58s6.57-7.8,13.94-7.27S176.05,72,175.72,76.49Z"/><ellipse class="cls-240" cx="162.37" cy="75.53" rx="8.18" ry="13.27" transform="translate(75.4 232.08) rotate(-85.89)"/><ellipse class="cls-241" cx="162.37" cy="75.53" rx="8.11" ry="13.16" transform="translate(75.4 232.08) rotate(-85.89)"/><path class="cls-242" d="M175.38,76.47c-.31,4.43-6.4,7.6-13.58,7.08S149,79,149.36,74.6s6.4-7.6,13.59-7.09S175.7,72,175.38,76.47Z"/><ellipse class="cls-243" cx="162.37" cy="75.53" rx="7.97" ry="12.93" transform="translate(75.4 232.08) rotate(-85.89)"/><path class="cls-244" d="M175.16,76.45c-.31,4.36-6.29,7.47-13.35,7s-12.54-4.45-12.23-8.8,6.29-7.47,13.36-7S175.47,72.1,175.16,76.45Z"/><ellipse class="cls-245" cx="162.37" cy="75.53" rx="7.83" ry="12.71" transform="translate(75.4 232.08) rotate(-85.89)"/><path class="cls-246" d="M174.94,76.44c-.31,4.27-6.19,7.34-13.12,6.84s-12.32-4.37-12-8.65,6.18-7.34,13.12-6.84S175.24,72.16,174.94,76.44Z"/><ellipse class="cls-247" cx="162.37" cy="75.53" rx="7.69" ry="12.48" transform="matrix(0.07, -1, 1, 0.07, 75.4, 232.08)"/><ellipse class="cls-248" cx="162.37" cy="75.53" rx="7.62" ry="12.37" transform="translate(75.4 232.08) rotate(-85.89)"/><ellipse class="cls-249" cx="162.37" cy="75.53" rx="7.56" ry="12.26" transform="translate(75.4 232.08) rotate(-85.89)"/><ellipse class="cls-250" cx="162.37" cy="75.53" rx="7.49" ry="12.15" transform="translate(75.4 232.08) rotate(-85.89)"/><ellipse class="cls-251" cx="162.37" cy="75.53" rx="7.42" ry="12.03" transform="translate(75.4 232.08) rotate(-85.89)"/><ellipse class="cls-252" cx="162.37" cy="75.53" rx="7.35" ry="11.92" transform="translate(75.4 232.08) rotate(-85.89)"/><ellipse class="cls-253" cx="162.37" cy="75.53" rx="7.28" ry="11.81" transform="translate(75.4 232.08) rotate(-85.89)"/><ellipse class="cls-254" cx="162.37" cy="75.53" rx="7.21" ry="11.7" transform="translate(75.4 232.08) rotate(-85.89)"/><path class="cls-255" d="M173.93,76.36c-.29,3.94-5.69,6.75-12.07,6.3s-11.33-4-11-8,5.68-6.75,12.06-6.29S174.21,72.43,173.93,76.36Z"/><path class="cls-256" d="M173.81,76.36c-.28,3.89-5.63,6.68-11.95,6.23s-11.21-4-10.93-7.88,5.63-6.68,11.95-6.23S174.09,72.46,173.81,76.36Z"/><path class="cls-257" d="M173.7,76.35c-.28,3.85-5.57,6.62-11.83,6.17s-11.11-3.94-10.83-7.8,5.58-6.62,11.83-6.17S174,72.49,173.7,76.35Z"/><ellipse class="cls-258" cx="162.37" cy="75.53" rx="6.93" ry="11.25" transform="translate(75.4 232.08) rotate(-85.89)"/><ellipse class="cls-259" cx="162.37" cy="75.53" rx="6.86" ry="11.13" transform="translate(75.4 232.08) rotate(-85.89)"/><ellipse class="cls-260" cx="162.37" cy="75.53" rx="6.79" ry="11.02" transform="translate(75.4 232.08) rotate(-85.89)"/><ellipse class="cls-261" cx="162.37" cy="75.53" rx="6.72" ry="10.91" transform="translate(75.4 232.08) rotate(-85.89)"/><path class="cls-262" d="M173.14,76.31c-.26,3.66-5.3,6.29-11.25,5.86s-10.55-3.74-10.29-7.41,5.3-6.29,11.25-5.86S173.4,72.64,173.14,76.31Z"/><path class="cls-263" d="M173,76.3c-.26,3.63-5.24,6.22-11.13,5.8s-10.45-3.7-10.19-7.33S157,68.54,162.84,69,173.29,72.67,173,76.3Z"/><path class="cls-264" d="M172.92,76.29c-.26,3.59-5.19,6.16-11,5.74s-10.33-3.66-10.07-7.25,5.18-6.16,11-5.74S173.17,72.7,172.92,76.29Z"/><ellipse class="cls-265" cx="162.37" cy="75.53" rx="6.45" ry="10.46" transform="matrix(0.07, -1, 1, 0.07, 75.4, 232.08)"/><path class="cls-266" d="M172.69,76.28c-.25,3.51-5.08,6-10.78,5.61s-10.11-3.58-9.86-7.1,5.08-6,10.78-5.62S172.94,72.76,172.69,76.28Z"/><path class="cls-267" d="M172.58,76.27c-.25,3.47-5,6-10.66,5.56s-10-3.55-9.76-7,5-6,10.66-5.56S172.83,72.79,172.58,76.27Z"/><path class="cls-268" d="M172.47,76.26c-.25,3.44-5,5.9-10.55,5.5s-9.89-3.51-9.64-7,5-5.9,10.54-5.5S172.71,72.82,172.47,76.26Z"/><path class="cls-269" d="M172.35,76.25c-.24,3.4-4.91,5.83-10.42,5.44s-9.79-3.47-9.54-6.87,4.91-5.83,10.42-5.44S172.6,72.85,172.35,76.25Z"/><path class="cls-270" d="M172.24,76.24c-.24,3.36-4.85,5.77-10.31,5.38s-9.67-3.43-9.43-6.79,4.86-5.77,10.31-5.38S172.48,72.88,172.24,76.24Z"/><ellipse class="cls-271" cx="162.37" cy="75.53" rx="6.03" ry="9.78" transform="translate(75.4 232.08) rotate(-85.89)"/><ellipse class="cls-272" cx="162.37" cy="75.53" rx="5.96" ry="9.67" transform="translate(75.4 232.08) rotate(-85.89)"/><path class="cls-273" d="M171.91,76.22c-.24,3.24-4.69,5.57-10,5.19s-9.35-3.32-9.11-6.56,4.69-5.57,9.95-5.19S172.14,73,171.91,76.22Z"/><path class="cls-274" d="M171.79,76.21c-.23,3.21-4.63,5.51-9.84,5.13s-9.23-3.28-9-6.48,4.63-5.51,9.84-5.13S172,73,171.79,76.21Z"/><path class="cls-275" d="M171.68,76.2c-.23,3.17-4.58,5.44-9.72,5.07s-9.13-3.24-8.9-6.4,4.58-5.44,9.72-5.07S171.91,73,171.68,76.2Z"/><ellipse class="cls-276" cx="162.37" cy="75.53" rx="5.68" ry="9.22" transform="translate(75.4 232.08) rotate(-85.89)"/><ellipse class="cls-277" cx="162.37" cy="75.53" rx="5.61" ry="9.11" transform="translate(75.4 232.08) rotate(-85.89)"/><path class="cls-278" d="M171.35,76.18c-.22,3-4.42,5.24-9.38,4.89s-8.79-3.13-8.57-6.18,4.41-5.24,9.37-4.89S171.56,73.12,171.35,76.18Z"/><path class="cls-279" d="M171.23,76.17c-.21,3-4.36,5.18-9.25,4.83s-8.69-3.09-8.47-6.1,4.36-5.18,9.25-4.83S171.45,73.15,171.23,76.17Z"/><path class="cls-280" d="M171.12,76.16c-.21,3-4.3,5.11-9.14,4.77s-8.57-3.05-8.36-6,4.31-5.12,9.14-4.77S171.33,73.18,171.12,76.16Z"/><path class="cls-281" d="M171,76.15c-.21,2.94-4.25,5-9,4.71s-8.47-3-8.26-6,4.25-5,9-4.7S171.22,73.21,171,76.15Z"/><path class="cls-282" d="M170.9,76.15c-.21,2.9-4.2,5-8.91,4.64s-8.35-3-8.14-5.87,4.19-5,8.9-4.64S171.11,73.24,170.9,76.15Z"/><path class="cls-283" d="M170.78,76.14c-.2,2.86-4.13,4.91-8.78,4.58s-8.25-2.93-8-5.79,4.14-4.91,8.78-4.58S171,73.27,170.78,76.14Z"/><path class="cls-284" d="M170.67,76.13c-.2,2.83-4.08,4.85-8.67,4.52s-8.13-2.89-7.93-5.71,4.08-4.85,8.67-4.52S170.88,73.3,170.67,76.13Z"/><path class="cls-285" d="M170.56,76.12c-.2,2.79-4,4.79-8.55,4.46s-8-2.85-7.83-5.63,4-4.79,8.55-4.46S170.76,73.34,170.56,76.12Z"/><ellipse class="cls-286" cx="162.37" cy="75.53" rx="4.99" ry="8.1" transform="translate(75.4 232.08) rotate(-85.89)"/><path class="cls-287" d="M170.34,76.11c-.2,2.71-3.92,4.65-8.32,4.33s-7.81-2.77-7.61-5.48,3.92-4.65,8.31-4.33S170.53,73.4,170.34,76.11Z"/><path class="cls-288" d="M170.22,76.1c-.19,2.67-3.86,4.59-8.2,4.27s-7.69-2.73-7.5-5.4,3.86-4.59,8.2-4.28S170.42,73.43,170.22,76.1Z"/><path class="cls-289" d="M170.11,76.09c-.19,2.63-3.81,4.52-8.08,4.21s-7.59-2.69-7.4-5.32,3.81-4.52,8.08-4.22S170.3,73.46,170.11,76.09Z"/><ellipse class="cls-290" cx="162.37" cy="75.53" rx="4.71" ry="7.65" transform="translate(75.4 232.08) rotate(-85.89)"/><path class="cls-291" d="M169.89,76.07c-.19,2.56-3.7,4.39-7.85,4.1s-7.37-2.62-7.18-5.18,3.69-4.39,7.84-4.09S170.07,73.52,169.89,76.07Z"/><path class="cls-292" d="M169.77,76.07c-.18,2.52-3.64,4.32-7.73,4S154.79,77.52,155,75s3.64-4.32,7.73-4S170,73.55,169.77,76.07Z"/><path class="cls-293" d="M169.66,76.06c-.18,2.48-3.58,4.26-7.61,4s-7.15-2.54-7-5,3.59-4.26,7.61-4S169.84,73.58,169.66,76.06Z"/><path class="cls-294" d="M169.55,76.05c-.17,2.44-3.53,4.19-7.5,3.91s-7-2.5-6.86-4.94,3.53-4.2,7.5-3.91S169.73,73.61,169.55,76.05Z"/><path class="cls-295" d="M169.44,76c-.17,2.41-3.48,4.13-7.38,3.85s-6.93-2.46-6.76-4.86,3.48-4.13,7.38-3.85S169.61,73.64,169.44,76Z"/><path class="cls-296" d="M169.33,76c-.17,2.37-3.43,4.07-7.27,3.79s-6.81-2.42-6.64-4.79,3.42-4.06,7.26-3.78S169.5,73.67,169.33,76Z"/><path class="cls-297" d="M169.21,76c-.16,2.32-3.36,4-7.14,3.72s-6.71-2.38-6.54-4.71,3.36-4,7.14-3.72S169.38,73.7,169.21,76Z"/><ellipse class="cls-298" cx="162.37" cy="75.53" rx="4.16" ry="6.75" transform="translate(75.4 232.08) rotate(-85.89)"/><path class="cls-299" d="M169,76c-.16,2.25-3.26,3.87-6.91,3.6s-6.49-2.3-6.33-4.55,3.26-3.87,6.91-3.6S169.15,73.76,169,76Z"/><path class="cls-300" d="M168.88,76c-.16,2.22-3.2,3.8-6.8,3.54s-6.37-2.26-6.21-4.47,3.2-3.8,6.79-3.55S169,73.79,168.88,76Z"/><path class="cls-301" d="M168.77,76c-.16,2.18-3.15,3.74-6.68,3.48s-6.27-2.22-6.11-4.4,3.14-3.73,6.67-3.48S168.92,73.82,168.77,76Z"/><path class="cls-302" d="M168.65,76c-.15,2.13-3.09,3.66-6.56,3.42s-6.15-2.19-6-4.33,3.09-3.67,6.56-3.42S168.81,73.85,168.65,76Z"/><path class="cls-303" d="M168.54,76c-.15,2.1-3,3.6-6.44,3.36s-6-2.15-5.9-4.25,3-3.6,6.44-3.36S168.69,73.88,168.54,76Z"/><path class="cls-304" d="M168.43,76c-.15,2.06-3,3.54-6.33,3.3s-5.93-2.11-5.79-4.17,3-3.54,6.33-3.3S168.58,73.91,168.43,76Z"/><path class="cls-305" d="M168.32,76c-.15,2-2.93,3.47-6.21,3.24s-5.83-2.07-5.68-4.09,2.92-3.48,6.2-3.24S168.46,73.94,168.32,76Z"/><path class="cls-306" d="M168.2,76c-.14,2-2.87,3.41-6.09,3.18s-5.71-2-5.57-4,2.87-3.41,6.09-3.18S168.35,74,168.2,76Z"/><path class="cls-307" d="M168.09,76c-.14,1.94-2.81,3.34-6,3.11s-5.61-2-5.47-3.94,2.81-3.34,6-3.11S168.23,74,168.09,76Z"/><ellipse class="cls-308" cx="162.37" cy="75.53" rx="3.47" ry="5.62" transform="translate(75.4 232.08) rotate(-85.89)"/><ellipse class="cls-309" cx="162.37" cy="75.53" rx="3.4" ry="5.51" transform="translate(75.4 232.08) rotate(-85.89)"/><path class="cls-310" d="M167.76,75.92c-.14,1.83-2.65,3.15-5.63,2.93S156.86,77,157,75.15s2.65-3.15,5.62-2.93S167.89,74.09,167.76,75.92Z"/><path class="cls-311" d="M167.64,75.91c-.13,1.8-2.59,3.08-5.5,2.87s-5.17-1.83-5-3.62,2.59-3.08,5.5-2.88S167.77,74.12,167.64,75.91Z"/><ellipse class="cls-312" cx="162.37" cy="75.53" rx="3.19" ry="5.17" transform="translate(75.4 232.08) rotate(-85.89)"/><path class="cls-313" d="M167.42,75.9c-.12,1.71-2.48,2.95-5.27,2.75s-5-1.76-4.83-3.48,2.49-3,5.27-2.75S167.54,74.18,167.42,75.9Z"/><path class="cls-314" d="M167.31,75.89c-.12,1.68-2.43,2.88-5.16,2.69s-4.84-1.72-4.71-3.4,2.42-2.88,5.15-2.69S167.43,74.21,167.31,75.89Z"/><path class="cls-315" d="M167.19,75.88c-.11,1.64-2.37,2.82-5,2.63s-4.73-1.68-4.61-3.32,2.37-2.82,5-2.63S167.31,74.24,167.19,75.88Z"/><path class="cls-316" d="M167.08,75.87c-.11,1.61-2.32,2.75-4.92,2.57s-4.62-1.64-4.5-3.24,2.32-2.76,4.92-2.57S167.2,74.27,167.08,75.87Z"/><path class="cls-317" d="M167,75.86c-.11,1.57-2.26,2.69-4.8,2.51s-4.51-1.6-4.4-3.17,2.26-2.68,4.8-2.5S167.08,74.3,167,75.86Z"/><path class="cls-318" d="M166.86,75.86c-.11,1.52-2.21,2.62-4.69,2.44s-4.4-1.56-4.29-3.09,2.21-2.62,4.69-2.44S167,74.33,166.86,75.86Z"/><path class="cls-319" d="M166.75,75.85c-.11,1.49-2.16,2.55-4.57,2.38s-4.29-1.52-4.18-3,2.15-2.56,4.56-2.38S166.85,74.36,166.75,75.85Z"/><path class="cls-320" d="M166.63,75.84c-.1,1.45-2.09,2.49-4.45,2.32s-4.18-1.48-4.07-2.93,2.1-2.49,4.45-2.32S166.74,74.39,166.63,75.84Z"/><path class="cls-321" d="M166.52,75.83c-.1,1.42-2,2.43-4.33,2.26s-4.07-1.44-4-2.85,2-2.43,4.33-2.26S166.62,74.42,166.52,75.83Z"/><path class="cls-322" d="M166.41,75.82c-.1,1.38-2,2.36-4.22,2.2s-4-1.4-3.86-2.78,2-2.35,4.22-2.19S166.51,74.45,166.41,75.82Z"/><path class="cls-323" d="M166.3,75.82c-.1,1.33-1.93,2.29-4.1,2.13s-3.85-1.36-3.75-2.7,1.93-2.29,4.1-2.14S166.39,74.48,166.3,75.82Z"/><path class="cls-324" d="M166.19,75.81c-.1,1.3-1.88,2.23-4,2.07s-3.74-1.32-3.64-2.62,1.87-2.23,4-2.08S166.28,74.51,166.19,75.81Z"/><path class="cls-325" d="M166.07,75.8c-.09,1.26-1.82,2.16-3.86,2s-3.63-1.29-3.54-2.55,1.82-2.16,3.87-2S166.16,74.54,166.07,75.8Z"/><path class="cls-326" d="M166,75.79c-.09,1.22-1.77,2.1-3.75,2s-3.52-1.25-3.43-2.47,1.77-2.1,3.75-2S166.05,74.57,166,75.79Z"/><path class="cls-327" d="M165.85,75.78c-.09,1.19-1.71,2-3.63,1.9s-3.41-1.21-3.33-2.4,1.71-2,3.64-1.89S165.93,74.6,165.85,75.78Z"/><path class="cls-328" d="M165.74,75.78c-.09,1.14-1.66,2-3.52,1.83s-3.3-1.17-3.21-2.32,1.65-2,3.51-1.83S165.82,74.63,165.74,75.78Z"/><path class="cls-329" d="M165.62,75.77c-.08,1.11-1.6,1.9-3.39,1.77s-3.19-1.13-3.11-2.24,1.6-1.9,3.4-1.77S165.7,74.66,165.62,75.77Z"/><path class="cls-330" d="M165.51,75.76c-.07,1.07-1.54,1.83-3.28,1.71s-3.08-1.09-3-2.16,1.55-1.84,3.28-1.71S165.59,74.69,165.51,75.76Z"/><ellipse class="cls-331" cx="162.37" cy="75.53" rx="1.87" ry="3.04" transform="translate(75.4 232.08) rotate(-85.89)"/><path class="cls-332" d="M165.29,75.74c-.07,1-1.44,1.71-3,1.59s-2.86-1-2.79-2,1.44-1.7,3.05-1.58S165.36,74.75,165.29,75.74Z"/><path class="cls-333" d="M165.18,75.74c-.07,1-1.38,1.63-2.93,1.52s-2.75-1-2.68-1.93,1.38-1.64,2.93-1.52S165.24,74.78,165.18,75.74Z"/><path class="cls-334" d="M165.06,75.73c-.06.91-1.32,1.57-2.81,1.46s-2.64-.93-2.57-1.85,1.32-1.57,2.81-1.47S165.13,74.81,165.06,75.73Z"/><path class="cls-335" d="M165,75.72c-.06.88-1.27,1.51-2.69,1.4s-2.53-.89-2.47-1.77,1.27-1.51,2.7-1.41S165,74.84,165,75.72Z"/><path class="cls-336" d="M164.84,75.71c-.06.84-1.22,1.44-2.58,1.35s-2.42-.86-2.36-1.7,1.22-1.44,2.58-1.35S164.9,74.87,164.84,75.71Z"/><path class="cls-337" d="M164.73,75.7c-.06.81-1.16,1.38-2.46,1.29S160,76.17,160,75.36s1.15-1.37,2.46-1.28S164.78,74.9,164.73,75.7Z"/><path class="cls-338" d="M164.61,75.7c-.05.76-1.1,1.31-2.34,1.22s-2.2-.78-2.14-1.55,1.1-1.31,2.34-1.22S164.67,74.93,164.61,75.7Z"/><path class="cls-339" d="M164.5,75.69c-.05.72-1.05,1.24-2.22,1.16s-2.09-.74-2-1.47,1-1.24,2.23-1.16S164.55,75,164.5,75.69Z"/><path class="cls-340" d="M164.39,75.68c0,.69-1,1.18-2.11,1.1s-2-.7-1.93-1.39,1-1.18,2.11-1.1S164.44,75,164.39,75.68Z"/><path class="cls-341" d="M164.28,75.67c-.05.65-.94,1.12-2,1s-1.87-.66-1.83-1.31.94-1.12,2-1S164.32,75,164.28,75.67Z"/><path class="cls-342" d="M164.17,75.66c0,.61-.89,1-1.88,1s-1.76-.62-1.71-1.23.88-1,1.87-1S164.21,75.05,164.17,75.66Z"/><path class="cls-343" d="M164.05,75.66c0,.57-.82,1-1.75.91s-1.65-.58-1.61-1.16.83-1,1.76-.91S164.1,75.08,164.05,75.66Z"/><path class="cls-344" d="M163.94,75.65c0,.53-.77.91-1.64.85s-1.54-.54-1.5-1.08.77-.92,1.64-.85S164,75.11,163.94,75.65Z"/><path class="cls-345" d="M163.83,75.64c0,.5-.72.85-1.52.79s-1.43-.5-1.4-1,.72-.85,1.53-.79S163.87,75.14,163.83,75.64Z"/><path class="cls-346" d="M163.72,75.63c0,.46-.66.79-1.41.73S161,75.9,161,75.44s.66-.79,1.4-.74S163.75,75.17,163.72,75.63Z"/><path class="cls-347" d="M163.61,75.62c0,.42-.61.72-1.29.67s-1.21-.42-1.18-.84.6-.73,1.29-.68S163.64,75.2,163.61,75.62Z"/><path class="cls-348" d="M163.49,75.61c0,.39-.55.66-1.17.62s-1.1-.39-1.07-.78.55-.65,1.17-.61S163.52,75.23,163.49,75.61Z"/><path class="cls-349" d="M163.38,75.61c0,.34-.5.59-1,.55s-1-.35-1-.7.5-.59,1.06-.55S163.41,75.26,163.38,75.61Z"/><path class="cls-350" d="M163.27,75.6c0,.3-.44.52-.94.49s-.88-.31-.86-.62.45-.52.94-.49S163.29,75.29,163.27,75.6Z"/><path class="cls-351" d="M163.16,75.59c0,.27-.39.46-.82.43s-.77-.27-.75-.54.38-.46.82-.43S163.18,75.32,163.16,75.59Z"/><path class="cls-352" d="M163,75.58c0,.23-.33.4-.7.37s-.66-.24-.64-.46.33-.4.7-.37S163.06,75.35,163,75.58Z"/><path class="cls-353" d="M162.93,75.57c0,.2-.27.33-.58.31s-.55-.2-.54-.39.28-.32.59-.3S163,75.38,162.93,75.57Z"/><path class="cls-354" d="M162.82,75.57c0,.15-.22.26-.47.24s-.44-.16-.43-.31.22-.26.47-.24S162.83,75.41,162.82,75.57Z"/><path class="cls-355" d="M162.71,75.56c0,.11-.17.19-.35.18s-.33-.12-.33-.23.17-.2.36-.18S162.72,75.44,162.71,75.56Z"/><path class="cls-356" d="M162.6,75.55c0,.08-.11.13-.24.12s-.22-.08-.21-.15.11-.13.23-.12S162.6,75.47,162.6,75.55Z"/><path class="cls-357" d="M162.48,75.54s0,.07-.11.06-.11,0-.11-.07.05-.07.12-.06S162.49,75.5,162.48,75.54Z"/></g></g><path class="cls-358" d="M70.05,70.11s9.45,7.71,47.37,7.21c41.56-.55,45.72-6.46,45.72-6.46Z"/><path class="cls-359" d="M69,68.81c-.05,2,10.94,7.52,46.09,7.52s49.33-4.47,49.55-7c.11-1.25-16.13-8.42-50.9-7.95C82.35,61.83,69.1,66.57,69,68.81Z"/><path class="cls-360" d="M157.8,72.69l-.08,0c-1.17.33-15,4-43.36,3.6C102,76.13,89,76.33,74,72.09c0,0,2.26-3.2,7.82-6.6l0,0c6.34-3.86,17-8,33.45-8,17.21,0,28.41,4.7,35,8.87h0v0a34.46,34.46,0,0,1,6.6,5.32l.32.34.34.39A2.47,2.47,0,0,1,157.8,72.69Z"/><path class="cls-357" d="M93.84,100.27c.34-2.36,8.2,1.57,8,2.52S93.55,102.29,93.84,100.27Z"/><path class="cls-357" d="M66,92.64c.17-1.21,4.18.8,4.07,1.28S65.83,93.67,66,92.64Z"/><path class="cls-361" d="M87.5,62.58l-1.67.76C55,67.85,41,74.91,41,74.91c0-.78.81-1.73,2.43-2.75.26-.17.55-.34.85-.51C50.09,68.4,64,64.52,87.5,62.58Z"/><path class="cls-362" d="M157.8,72.69l-.08,0c-1.17.33-15,4-43.36,3.6C102,76.13,89,76.33,74,72.09c0,0,2.26-3.2,7.82-6.6-.32.29-3,2.68-2.82,4.62s15.73,6.21,38.38,6.21,34.69-4.75,35.69-6c.86-1.08-1.85-3.26-2.62-3.84a52.83,52.83,0,0,1,6.44,5.2l.32.34.34.39A2.47,2.47,0,0,1,157.8,72.69Z"/><path class="cls-363" d="M99.71,73.26c-8.2,2.18-15.69.8-16.73-3.09s4.78-8.81,13-11,15.69-.81,16.73,3.08S107.91,71.07,99.71,73.26Z"/><path class="cls-357" d="M101.4,64.5c-1.21-1.42-5.88.85-6.22,2.06S102.53,65.81,101.4,64.5Z"/><path class="cls-364" d="M106.61,57.89s22.15-1.33,33.36,6.16c10.89,7.27,3.48,11.07,3.48,11.07s11.41-1.63,14.35-2.43c0,0-2.79-6.6-19.67-11.81A78.34,78.34,0,0,0,106.61,57.89Z"/></g></g></svg>