<svg xmlns="http://www.w3.org/2000/svg" xmlns:xlink="http://www.w3.org/1999/xlink" viewBox="0 0 159.46 213.51"><defs><style>.cls-1{mask:url(#mask);filter:url(#luminosity-noclip-10);}.cls-10,.cls-12,.cls-14,.cls-16,.cls-18,.cls-2,.cls-4,.cls-6,.cls-8{mix-blend-mode:multiply;}.cls-2{fill:url(#ÅÂÁ_Ï_ÌÌ_È_ËÂÌÚ_12);}.cls-3{mask:url(#mask-2);filter:url(#luminosity-noclip-15);}.cls-4{fill:url(#ÅÂÁ_Ï_ÌÌ_È_ËÂÌÚ_12-2);}.cls-5{mask:url(#mask-3);filter:url(#luminosity-noclip-16);}.cls-6{fill:url(#ÅÂÁ_Ï_ÌÌ_È_ËÂÌÚ_12-3);}.cls-7{mask:url(#mask-4);filter:url(#luminosity-noclip-17);}.cls-8{fill:url(#ÅÂÁ_Ï_ÌÌ_È_ËÂÌÚ_12-4);}.cls-9{mask:url(#mask-5);filter:url(#luminosity-noclip-18);}.cls-10{fill:url(#ÅÂÁ_Ï_ÌÌ_È_ËÂÌÚ_12-5);}.cls-11{mask:url(#mask-6);filter:url(#luminosity-noclip-11);}.cls-12{fill:url(#ÅÂÁ_Ï_ÌÌ_È_ËÂÌÚ_12-6);}.cls-13{mask:url(#mask-7);filter:url(#luminosity-noclip-12);}.cls-14{fill:url(#ÅÂÁ_Ï_ÌÌ_È_ËÂÌÚ_12-7);}.cls-15{mask:url(#mask-8);filter:url(#luminosity-noclip-13);}.cls-16{fill:url(#ÅÂÁ_Ï_ÌÌ_È_ËÂÌÚ_12-8);}.cls-17{mask:url(#mask-9);filter:url(#luminosity-noclip-14);}.cls-18{fill:url(#ÅÂÁ_Ï_ÌÌ_È_ËÂÌÚ_12-9);}.cls-19{fill:#8b011b;}.cls-20,.cls-21{fill:#5e0120;}.cls-21{opacity:0.6;}.cls-22{fill:url(#ÅÂÁ_Ï_ÌÌ_È_ËÂÌÚ_231);}.cls-23{fill:url(#ÅÂÁ_Ï_ÌÌ_È_ËÂÌÚ_239);}.cls-24{mask:url(#mask-10);}.cls-25{opacity:0.72;fill:url(#ÅÂÁ_Ï_ÌÌ_È_ËÂÌÚ_37);}.cls-26{mask:url(#mask-11);}.cls-27{fill:url(#ÅÂÁ_Ï_ÌÌ_È_ËÂÌÚ_37-2);}.cls-28{fill:#340100;}.cls-29{mask:url(#mask-12);}.cls-30{opacity:0.62;fill:url(#ÅÂÁ_Ï_ÌÌ_È_ËÂÌÚ_37-3);}.cls-31{fill:#d8fff2;}.cls-32{mask:url(#mask-13);}.cls-33{fill:url(#ÅÂÁ_Ï_ÌÌ_È_ËÂÌÚ_37-4);}.cls-34{mask:url(#mask-14);}.cls-35{fill:url(#ÅÂÁ_Ï_ÌÌ_È_ËÂÌÚ_37-5);}.cls-36,.cls-41{opacity:0.39;}.cls-36{fill:url(#ÅÂÁ_Ï_ÌÌ_È_ËÂÌÚ_70);}.cls-37{fill:url(#ÅÂÁ_Ï_ÌÌ_È_ËÂÌÚ_247);}.cls-38{fill:url(#ÅÂÁ_Ï_ÌÌ_È_ËÂÌÚ_231-2);}.cls-39{mask:url(#mask-15);}.cls-40{opacity:0.43;fill:url(#ÅÂÁ_Ï_ÌÌ_È_ËÂÌÚ_37-6);}.cls-41{fill:url(#ÅÂÁ_Ï_ÌÌ_È_ËÂÌÚ_70-2);}.cls-42{mask:url(#mask-16);}.cls-43{fill:url(#ÅÂÁ_Ï_ÌÌ_È_ËÂÌÚ_37-7);}.cls-44{mask:url(#mask-17);}.cls-45{fill:url(#ÅÂÁ_Ï_ÌÌ_È_ËÂÌÚ_37-8);}.cls-46{fill:url(#ÅÂÁ_Ï_ÌÌ_È_ËÂÌÚ_242);}.cls-47{fill:url(#ÅÂÁ_Ï_ÌÌ_È_ËÂÌÚ_231-3);}.cls-48{mask:url(#mask-18);}.cls-49{fill:url(#ÅÂÁ_Ï_ÌÌ_È_ËÂÌÚ_37-9);}.cls-50{fill:url(#ÅÂÁ_Ï_ÌÌ_È_ËÂÌÚ_243);}.cls-51{fill:url(#ÅÂÁ_Ï_ÌÌ_È_ËÂÌÚ_239-2);}.cls-52{opacity:0.2;fill:url(#ÅÂÁ_Ï_ÌÌ_È_ËÂÌÚ_70-3);}.cls-53{filter:url(#luminosity-noclip-9);}.cls-54{filter:url(#luminosity-noclip-8);}.cls-55{filter:url(#luminosity-noclip-7);}.cls-56{filter:url(#luminosity-noclip-6);}.cls-57{filter:url(#luminosity-noclip-5);}.cls-58{filter:url(#luminosity-noclip-4);}.cls-59{filter:url(#luminosity-noclip-3);}.cls-60{filter:url(#luminosity-noclip-2);}.cls-61{filter:url(#luminosity-noclip);}</style><filter id="luminosity-noclip" x="37.11" y="-8159.48" width="31.06" height="32766" filterUnits="userSpaceOnUse" color-interpolation-filters="sRGB"><feFlood flood-color="#fff" result="bg"/><feBlend in="SourceGraphic" in2="bg"/></filter><mask id="mask" x="37.11" y="-8159.48" width="31.06" height="32766" maskUnits="userSpaceOnUse"><g class="cls-61"/></mask><linearGradient id="ÅÂÁ_Ï_ÌÌ_È_ËÂÌÚ_12" x1="37.11" y1="85.1" x2="68.17" y2="85.1" gradientUnits="userSpaceOnUse"><stop offset="0"/><stop offset="1" stop-color="#fff"/></linearGradient><filter id="luminosity-noclip-2" x="62.24" y="-8159.48" width="23.35" height="32766" filterUnits="userSpaceOnUse" color-interpolation-filters="sRGB"><feFlood flood-color="#fff" result="bg"/><feBlend in="SourceGraphic" in2="bg"/></filter><mask id="mask-2" x="62.24" y="-8159.48" width="23.35" height="32766" maskUnits="userSpaceOnUse"><g class="cls-60"/></mask><linearGradient id="ÅÂÁ_Ï_ÌÌ_È_ËÂÌÚ_12-2" x1="62.24" y1="119.49" x2="85.59" y2="119.49" xlink:href="#ÅÂÁ_Ï_ÌÌ_È_ËÂÌÚ_12"/><filter id="luminosity-noclip-3" x="54.08" y="-8159.48" width="17.77" height="32766" filterUnits="userSpaceOnUse" color-interpolation-filters="sRGB"><feFlood flood-color="#fff" result="bg"/><feBlend in="SourceGraphic" in2="bg"/></filter><mask id="mask-3" x="54.08" y="-8159.48" width="17.77" height="32766" maskUnits="userSpaceOnUse"><g class="cls-59"/></mask><linearGradient id="ÅÂÁ_Ï_ÌÌ_È_ËÂÌÚ_12-3" x1="45.81" y1="139.52" x2="85.66" y2="107.25" xlink:href="#ÅÂÁ_Ï_ÌÌ_È_ËÂÌÚ_12"/><filter id="luminosity-noclip-4" x="76.8" y="-8159.48" width="17.77" height="32766" filterUnits="userSpaceOnUse" color-interpolation-filters="sRGB"><feFlood flood-color="#fff" result="bg"/><feBlend in="SourceGraphic" in2="bg"/></filter><mask id="mask-4" x="76.8" y="-8159.48" width="17.77" height="32766" maskUnits="userSpaceOnUse"><g class="cls-58"/></mask><linearGradient id="ÅÂÁ_Ï_ÌÌ_È_ËÂÌÚ_12-4" x1="-158.18" y1="123.24" x2="-177.05" y2="123.9" gradientTransform="matrix(-1, 0, 0, 1, -82.54, 0)" xlink:href="#ÅÂÁ_Ï_ÌÌ_È_ËÂÌÚ_12"/><filter id="luminosity-noclip-5" x="30.29" y="-8159.48" width="8.51" height="32766" filterUnits="userSpaceOnUse" color-interpolation-filters="sRGB"><feFlood flood-color="#fff" result="bg"/><feBlend in="SourceGraphic" in2="bg"/></filter><mask id="mask-5" x="30.29" y="-8159.48" width="8.51" height="32766" maskUnits="userSpaceOnUse"><g class="cls-57"/></mask><linearGradient id="ÅÂÁ_Ï_ÌÌ_È_ËÂÌÚ_12-5" x1="30.29" y1="116.28" x2="38.8" y2="116.28" xlink:href="#ÅÂÁ_Ï_ÌÌ_È_ËÂÌÚ_12"/><filter id="luminosity-noclip-6" x="82.03" y="-8159.48" width="26.64" height="32766" filterUnits="userSpaceOnUse" color-interpolation-filters="sRGB"><feFlood flood-color="#fff" result="bg"/><feBlend in="SourceGraphic" in2="bg"/></filter><mask id="mask-6" x="82.03" y="-8159.48" width="26.64" height="32766" maskUnits="userSpaceOnUse"><g class="cls-56"/></mask><linearGradient id="ÅÂÁ_Ï_ÌÌ_È_ËÂÌÚ_12-6" x1="2.74" y1="130.53" x2="20.57" y2="130.53" gradientTransform="matrix(0.69, 0, 0, 1, 87.3, -60.88)" xlink:href="#ÅÂÁ_Ï_ÌÌ_È_ËÂÌÚ_12"/><filter id="luminosity-noclip-7" x="88.44" y="-8159.48" width="20.86" height="32766" filterUnits="userSpaceOnUse" color-interpolation-filters="sRGB"><feFlood flood-color="#fff" result="bg"/><feBlend in="SourceGraphic" in2="bg"/></filter><mask id="mask-7" x="88.44" y="-8159.48" width="20.86" height="32766" maskUnits="userSpaceOnUse"><g class="cls-55"/></mask><linearGradient id="ÅÂÁ_Ï_ÌÌ_È_ËÂÌÚ_12-7" x1="88.44" y1="68.2" x2="109.3" y2="68.2" xlink:href="#ÅÂÁ_Ï_ÌÌ_È_ËÂÌÚ_12"/><filter id="luminosity-noclip-8" x="39.71" y="-8159.48" width="26.64" height="32766" filterUnits="userSpaceOnUse" color-interpolation-filters="sRGB"><feFlood flood-color="#fff" result="bg"/><feBlend in="SourceGraphic" in2="bg"/></filter><mask id="mask-8" x="39.71" y="-8159.48" width="26.64" height="32766" maskUnits="userSpaceOnUse"><g class="cls-54"/></mask><linearGradient id="ÅÂÁ_Ï_ÌÌ_È_ËÂÌÚ_12-8" x1="-401.1" y1="-68.92" x2="-383.27" y2="-68.92" gradientTransform="matrix(-0.56, -0.4, -0.58, 0.81, -207.27, -31.73)" xlink:href="#ÅÂÁ_Ï_ÌÌ_È_ËÂÌÚ_12"/><filter id="luminosity-noclip-9" x="40.77" y="-8159.48" width="18.89" height="32766" filterUnits="userSpaceOnUse" color-interpolation-filters="sRGB"><feFlood flood-color="#fff" result="bg"/><feBlend in="SourceGraphic" in2="bg"/></filter><mask id="mask-9" x="40.77" y="-8159.48" width="18.89" height="32766" maskUnits="userSpaceOnUse"><g class="cls-53"/></mask><linearGradient id="ÅÂÁ_Ï_ÌÌ_È_ËÂÌÚ_12-9" x1="40.77" y1="64.74" x2="59.66" y2="64.74" xlink:href="#ÅÂÁ_Ï_ÌÌ_È_ËÂÌÚ_12"/><linearGradient id="ÅÂÁ_Ï_ÌÌ_È_ËÂÌÚ_231" x1="54.48" y1="159.43" x2="54.48" y2="47.05" gradientUnits="userSpaceOnUse"><stop offset="0" stop-color="#e99300"/><stop offset="1" stop-color="#e8db3f"/></linearGradient><linearGradient id="ÅÂÁ_Ï_ÌÌ_È_ËÂÌÚ_239" x1="76.8" y1="103.24" x2="111.53" y2="103.24" gradientUnits="userSpaceOnUse"><stop offset="0" stop-color="#e88703"/><stop offset="1" stop-color="#e9b400"/></linearGradient><filter id="luminosity-noclip-10" x="37.11" y="49.4" width="31.06" height="71.4" filterUnits="userSpaceOnUse" color-interpolation-filters="sRGB"><feFlood flood-color="#fff" result="bg"/><feBlend in="SourceGraphic" in2="bg"/></filter><mask id="mask-10" x="37.11" y="49.4" width="31.06" height="71.4" maskUnits="userSpaceOnUse"><g class="cls-1"><path class="cls-2" d="M63.43,89.91c-4.69,12.82-12.44,25-19,30.88L37.11,94.17s2.11-14.76,10-26.63c6.1-9.21,14.85-15.14,20.16-18.14C69.18,59.24,68.2,76.88,63.43,89.91Z"/></g></mask><linearGradient id="ÅÂÁ_Ï_ÌÌ_È_ËÂÌÚ_37" x1="37.11" y1="85.1" x2="68.17" y2="85.1" gradientUnits="userSpaceOnUse"><stop offset="0" stop-color="#fff"/><stop offset="1" stop-color="#fff"/></linearGradient><filter id="luminosity-noclip-11" x="82.03" y="52.07" width="26.64" height="35.16" filterUnits="userSpaceOnUse" color-interpolation-filters="sRGB"><feFlood flood-color="#fff" result="bg"/><feBlend in="SourceGraphic" in2="bg"/></filter><mask id="mask-11" x="82.03" y="52.07" width="26.64" height="35.16" maskUnits="userSpaceOnUse"><g class="cls-11"><ellipse class="cls-12" cx="95.35" cy="69.65" rx="6.16" ry="21.17" transform="translate(-22.72 68.63) rotate(-35.65)"/></g></mask><linearGradient id="ÅÂÁ_Ï_ÌÌ_È_ËÂÌÚ_37-2" x1="2.74" y1="130.53" x2="20.57" y2="130.53" gradientTransform="matrix(0.69, 0, 0, 1, 87.3, -60.88)" xlink:href="#ÅÂÁ_Ï_ÌÌ_È_ËÂÌÚ_37"/><filter id="luminosity-noclip-12" x="88.44" y="53.62" width="20.86" height="29.15" filterUnits="userSpaceOnUse" color-interpolation-filters="sRGB"><feFlood flood-color="#fff" result="bg"/><feBlend in="SourceGraphic" in2="bg"/></filter><mask id="mask-12" x="88.44" y="53.62" width="20.86" height="29.15" maskUnits="userSpaceOnUse"><g class="cls-13"><path class="cls-14" d="M109.17,82a2,2,0,0,1-.46.81s-5.55-2.18-11.95-11.3A55.29,55.29,0,0,1,88.44,54a2.35,2.35,0,0,1,1.79-.28,4.45,4.45,0,0,1,.64.18,7.47,7.47,0,0,1,1,.46c.22.12.45.26.68.41s.24.16.36.25l.38.26C100.42,60.53,110.58,77.15,109.17,82Z"/></g></mask><linearGradient id="ÅÂÁ_Ï_ÌÌ_È_ËÂÌÚ_37-3" x1="88.44" y1="68.2" x2="109.3" y2="68.2" xlink:href="#ÅÂÁ_Ï_ÌÌ_È_ËÂÌÚ_37"/><filter id="luminosity-noclip-13" x="39.71" y="52.57" width="26.64" height="35.16" filterUnits="userSpaceOnUse" color-interpolation-filters="sRGB"><feFlood flood-color="#fff" result="bg"/><feBlend in="SourceGraphic" in2="bg"/></filter><mask id="mask-13" x="39.71" y="52.57" width="26.64" height="35.16" maskUnits="userSpaceOnUse"><g class="cls-15"><path class="cls-16" d="M48,66.56c-6.82,9.51-10.11,18.82-7.34,20.8S51.22,83.25,58,73.74,68.13,54.93,65.37,53,54.84,57.06,48,66.56Z"/></g></mask><linearGradient id="ÅÂÁ_Ï_ÌÌ_È_ËÂÌÚ_37-4" x1="-401.1" y1="-68.92" x2="-383.27" y2="-68.92" gradientTransform="matrix(-0.56, -0.4, -0.58, 0.81, -207.27, -31.73)" xlink:href="#ÅÂÁ_Ï_ÌÌ_È_ËÂÌÚ_37"/><filter id="luminosity-noclip-14" x="40.77" y="54.14" width="18.89" height="21.22" filterUnits="userSpaceOnUse" color-interpolation-filters="sRGB"><feFlood flood-color="#fff" result="bg"/><feBlend in="SourceGraphic" in2="bg"/></filter><mask id="mask-14" x="40.77" y="54.14" width="18.89" height="21.22" maskUnits="userSpaceOnUse"><g class="cls-17"><path class="cls-18" d="M59.66,54.32C59.19,57.13,57,67.58,50,71.69a34.12,34.12,0,0,1-9.18,3.66c3-6.84,9.38-15.93,14.29-19.6l.37-.26.37-.25c.23-.15.45-.29.68-.41a7,7,0,0,1,1-.46,5.63,5.63,0,0,1,.64-.18A2.53,2.53,0,0,1,59.66,54.32Z"/></g></mask><linearGradient id="ÅÂÁ_Ï_ÌÌ_È_ËÂÌÚ_37-5" x1="40.77" y1="64.74" x2="59.66" y2="64.74" xlink:href="#ÅÂÁ_Ï_ÌÌ_È_ËÂÌÚ_37"/><linearGradient id="ÅÂÁ_Ï_ÌÌ_È_ËÂÌÚ_70" x1="73.96" y1="127.02" x2="102.21" y2="127.02" gradientUnits="userSpaceOnUse"><stop offset="0" stop-color="#660400"/><stop offset="1" stop-color="#8a113a"/></linearGradient><linearGradient id="ÅÂÁ_Ï_ÌÌ_È_ËÂÌÚ_247" x1="73.96" y1="180.74" x2="73.96" y2="94.93" gradientUnits="userSpaceOnUse"><stop offset="0" stop-color="#e8db3f"/><stop offset="1" stop-color="#e94600"/></linearGradient><linearGradient id="ÅÂÁ_Ï_ÌÌ_È_ËÂÌÚ_231-2" x1="73.96" y1="180.74" x2="73.96" y2="98.3" xlink:href="#ÅÂÁ_Ï_ÌÌ_È_ËÂÌÚ_231"/><filter id="luminosity-noclip-15" x="62.24" y="94.93" width="23.35" height="49.13" filterUnits="userSpaceOnUse" color-interpolation-filters="sRGB"><feFlood flood-color="#fff" result="bg"/><feBlend in="SourceGraphic" in2="bg"/></filter><mask id="mask-15" x="62.24" y="94.93" width="23.35" height="49.13" maskUnits="userSpaceOnUse"><g class="cls-3"><path class="cls-4" d="M85.59,119.13a40.55,40.55,0,0,1-6.72,12,68.5,68.5,0,0,1-14.53,12.94c-1.23-10.08-2.19-19.4-2.09-23.6C62.49,109.07,74,94.93,74,94.93S84.57,108,85.59,119.13Z"/></g></mask><linearGradient id="ÅÂÁ_Ï_ÌÌ_È_ËÂÌÚ_37-6" x1="62.24" y1="119.49" x2="85.59" y2="119.49" xlink:href="#ÅÂÁ_Ï_ÌÌ_È_ËÂÌÚ_37"/><linearGradient id="ÅÂÁ_Ï_ÌÌ_È_ËÂÌÚ_70-2" x1="39.77" y1="130.25" x2="59.67" y2="130.25" xlink:href="#ÅÂÁ_Ï_ÌÌ_È_ËÂÌÚ_70"/><filter id="luminosity-noclip-16" x="54.08" y="90.19" width="17.77" height="66.59" filterUnits="userSpaceOnUse" color-interpolation-filters="sRGB"><feFlood flood-color="#fff" result="bg"/><feBlend in="SourceGraphic" in2="bg"/></filter><mask id="mask-16" x="54.08" y="90.19" width="17.77" height="66.59" maskUnits="userSpaceOnUse"><g class="cls-5"><path class="cls-6" d="M59.67,156.65s-7.35-25.54-5.19-42.2S71.85,90.19,71.85,90.19v1.56s-15.32,9-16.76,23.48c-1.28,13,5.17,41.55,5.17,41.55Z"/></g></mask><linearGradient id="ÅÂÁ_Ï_ÌÌ_È_ËÂÌÚ_37-7" x1="45.81" y1="139.52" x2="85.66" y2="107.25" xlink:href="#ÅÂÁ_Ï_ÌÌ_È_ËÂÌÚ_37"/><filter id="luminosity-noclip-17" x="76.8" y="90.19" width="17.77" height="66.59" filterUnits="userSpaceOnUse" color-interpolation-filters="sRGB"><feFlood flood-color="#fff" result="bg"/><feBlend in="SourceGraphic" in2="bg"/></filter><mask id="mask-17" x="76.8" y="90.19" width="17.77" height="66.59" maskUnits="userSpaceOnUse"><g class="cls-7"><path class="cls-8" d="M89,156.65s7.35-25.54,5.2-42.2S76.8,90.19,76.8,90.19v1.56s15.34,9.9,16.76,23.48c1.36,13-5.16,41.55-5.16,41.55Z"/></g></mask><linearGradient id="ÅÂÁ_Ï_ÌÌ_È_ËÂÌÚ_37-8" x1="-158.18" y1="123.24" x2="-177.05" y2="123.9" gradientTransform="matrix(-1, 0, 0, 1, -82.54, 0)" xlink:href="#ÅÂÁ_Ï_ÌÌ_È_ËÂÌÚ_37"/><linearGradient id="ÅÂÁ_Ï_ÌÌ_È_ËÂÌÚ_242" x1="39.6" y1="173.84" x2="39.6" y2="101.31" gradientUnits="userSpaceOnUse"><stop offset="0" stop-color="#e8db3f"/><stop offset="1" stop-color="#e99300"/></linearGradient><linearGradient id="ÅÂÁ_Ï_ÌÌ_È_ËÂÌÚ_231-3" x1="-244.66" y1="173.55" x2="-244.66" y2="103.34" gradientTransform="matrix(-1, 0, 0, 1, -205.77, 0)" xlink:href="#ÅÂÁ_Ï_ÌÌ_È_ËÂÌÚ_231"/><filter id="luminosity-noclip-18" x="30.29" y="101.31" width="8.51" height="29.94" filterUnits="userSpaceOnUse" color-interpolation-filters="sRGB"><feFlood flood-color="#fff" result="bg"/><feBlend in="SourceGraphic" in2="bg"/></filter><mask id="mask-18" x="30.29" y="101.31" width="8.51" height="29.94" maskUnits="userSpaceOnUse"><g class="cls-9"><path class="cls-10" d="M38.8,117.87c-.3,2.37-1.42,6.92-5.34,13.38-.94-3.42-1.66-6.23-2.05-8-1.56-7.1-1.13-16-.83-20,.1-1.27.19-2,.19-2A89.45,89.45,0,0,1,38.8,117.87Z"/></g></mask><linearGradient id="ÅÂÁ_Ï_ÌÌ_È_ËÂÌÚ_37-9" x1="30.29" y1="116.28" x2="38.8" y2="116.28" xlink:href="#ÅÂÁ_Ï_ÌÌ_È_ËÂÌÚ_37"/><linearGradient id="ÅÂÁ_Ï_ÌÌ_È_ËÂÌÚ_243" x1="109.14" y1="173.84" x2="109.14" y2="101.31" gradientUnits="userSpaceOnUse"><stop offset="0" stop-color="#e9b400"/><stop offset="1" stop-color="#e88703"/></linearGradient><linearGradient id="ÅÂÁ_Ï_ÌÌ_È_ËÂÌÚ_239-2" x1="109.84" y1="173.55" x2="109.84" y2="103.34" xlink:href="#ÅÂÁ_Ï_ÌÌ_È_ËÂÌÚ_239"/><linearGradient id="ÅÂÁ_Ï_ÌÌ_È_ËÂÌÚ_70-3" x1="99.82" y1="157.98" x2="107.63" y2="157.98" xlink:href="#ÅÂÁ_Ï_ÌÌ_È_ËÂÌÚ_70"/></defs><g id="planets"><polygon class="cls-19" points="98.11 142.99 103.73 149.58 108.31 124.13 102.9 125.56 98.11 142.99"/><polygon class="cls-20" points="99.01 144.05 104.63 130.25 105.34 134.36 106.67 124.57 102.9 125.56 98.11 142.99 99.01 144.05"/><polygon class="cls-19" points="50.63 142.99 45.01 149.58 40.42 124.13 45.84 125.56 50.63 142.99"/><polygon class="cls-20" points="41.83 124.13 43.86 135.43 50.63 142.69 45.84 125.56 41.83 124.13"/><polygon class="cls-19" points="55.66 155.73 61.4 168.46 73.92 171.02 88.9 167.54 92.42 155.73 55.66 155.73"/><polygon class="cls-21" points="57.33 159.43 73.56 165.26 89.58 165.26 92.42 155.73 55.66 155.73 57.33 159.43"/><polygon class="cls-19" points="71.85 49.5 76.8 49.5 76.8 157.12 71.13 157.12 71.85 49.5"/><path class="cls-22" d="M71.84,47.05V159.43l-17.92-4.1-9.49-34.54L37.11,94.17s2.11-14.76,10-26.63c6.1-9.21,14.85-15.14,20.16-18.14A49.09,49.09,0,0,1,71.84,47.05Z"/><path class="cls-23" d="M111.53,94.17l-8.63,31.39-.69,2.52-7.49,27.25L78.53,159l-.37.08-1.36.31V47.05s15.48,6.44,24.78,20.5C109.42,79.42,111.53,94.17,111.53,94.17Z"/><polygon class="cls-20" points="71.85 47.06 73.96 49.5 73.12 157.12 71.85 159.43 71.85 47.06"/><polygon class="cls-20" points="76.8 47.06 75.28 49.5 75.28 157.12 76.8 159.43 76.8 47.06"/><g class="cls-24"><path class="cls-25" d="M63.43,89.91c-4.69,12.82-12.44,25-19,30.88L37.11,94.17s2.11-14.76,10-26.63c6.1-9.21,14.85-15.14,20.16-18.14C69.18,59.24,68.2,76.88,63.43,89.91Z"/></g><g class="cls-26"><ellipse class="cls-27" cx="95.35" cy="69.65" rx="6.16" ry="21.17" transform="translate(-22.72 68.63) rotate(-35.65)"/></g><path class="cls-28" d="M109.17,82a2,2,0,0,1-.46.81C102.9,88.63,83.17,57.42,88.44,54a2.35,2.35,0,0,1,1.79-.28,4.45,4.45,0,0,1,.64.18,7.47,7.47,0,0,1,1,.46c.22.12.45.26.68.41s.24.16.36.25l.38.26C100.42,60.53,110.58,77.15,109.17,82Z"/><g class="cls-29"><path class="cls-30" d="M109.17,82a2,2,0,0,1-.46.81s-5.55-2.18-11.95-11.3A55.29,55.29,0,0,1,88.44,54a2.35,2.35,0,0,1,1.79-.28,4.45,4.45,0,0,1,.64.18,7.47,7.47,0,0,1,1,.46c.22.12.45.26.68.41s.24.16.36.25l.38.26C100.42,60.53,110.58,77.15,109.17,82Z"/></g><path class="cls-31" d="M91.14,57.89c-1.65-.47,3.07,9.36,4.19,8.68C96,66.18,92.91,58.39,91.14,57.89Z"/><path class="cls-31" d="M95.55,66.78c-.46.32.89,2.71,1.21,2.49S95.93,66.52,95.55,66.78Z"/><g class="cls-32"><path class="cls-33" d="M48,66.56c-6.82,9.51-10.11,18.82-7.34,20.8S51.22,83.25,58,73.74,68.13,54.93,65.37,53,54.84,57.06,48,66.56Z"/></g><path class="cls-28" d="M39.66,83.28a1.88,1.88,0,0,1-.45-.81c-.43-1.48.23-4.07,1.56-7.12,3-6.84,9.38-15.93,14.29-19.6l.37-.26.37-.25c.23-.15.45-.29.68-.41a7,7,0,0,1,1-.46,5.63,5.63,0,0,1,.64-.18,2.53,2.53,0,0,1,1.51.13,1.91,1.91,0,0,1,.28.15C65.21,57.93,45.48,89.14,39.66,83.28Z"/><path class="cls-31" d="M57.24,58.39c1.65-.46-3.08,9.37-4.2,8.69C52.4,66.68,55.46,58.9,57.24,58.39Z"/><path class="cls-31" d="M52.83,67.29c.46.32-.89,2.7-1.21,2.49S52.44,67,52.83,67.29Z"/><g class="cls-34"><path class="cls-35" d="M59.66,54.32C59.19,57.13,57,67.58,50,71.69a34.12,34.12,0,0,1-9.18,3.66c3-6.84,9.38-15.93,14.29-19.6l.37-.26.37-.25c.23-.15.45-.29.68-.41a7,7,0,0,1,1-.46,5.63,5.63,0,0,1,.64-.18A2.53,2.53,0,0,1,59.66,54.32Z"/></g><path class="cls-36" d="M102.21,128.08l-7.49,27.25L78.53,159l-.37.08-1.36-20.9L74,94.92l2.84,1.44s13,7.76,20.93,20.63A39.14,39.14,0,0,1,102.21,128.08Z"/><path class="cls-37" d="M78.53,180.74H69.39s-2.94-19.47-5-36.69c-1.23-10.08-2.19-19.4-2.09-23.6C62.49,109.07,74,94.93,74,94.93S84.57,108,85.59,119.13c0,.44.07.88.08,1.32C85.92,131.82,78.53,180.74,78.53,180.74Z"/><path class="cls-38" d="M84.29,122.3C84.07,111.59,74,98.3,74,98.3s-10.1,13.29-10.32,24,6.61,58.44,6.61,58.44h7.58S84.5,133,84.29,122.3Z"/><g class="cls-39"><path class="cls-40" d="M85.59,119.13a40.55,40.55,0,0,1-6.72,12,68.5,68.5,0,0,1-14.53,12.94c-1.23-10.08-2.19-19.4-2.09-23.6C62.49,109.07,74,94.93,74,94.93S84.57,108,85.59,119.13Z"/></g><path class="cls-41" d="M39.77,103.85s8.37,14.41,12.87,26.69a177.58,177.58,0,0,1,7,26.11l-5.75-1.32Z"/><g class="cls-42"><path class="cls-43" d="M59.67,156.65s-7.35-25.54-5.19-42.2S71.85,90.19,71.85,90.19v1.56s-15.32,9-16.76,23.48c-1.28,13,5.17,41.55,5.17,41.55Z"/></g><path class="cls-20" d="M59.67,156.65s-6-25.9-5.19-40.84S71.85,90.19,71.85,90.19V88.55S55.65,97.45,53.5,115C51.81,128.74,59,156.49,59,156.49Z"/><g class="cls-44"><path class="cls-45" d="M89,156.65s7.35-25.54,5.2-42.2S76.8,90.19,76.8,90.19v1.56s15.34,9.9,16.76,23.48c1.36,13-5.16,41.55-5.16,41.55Z"/></g><path class="cls-20" d="M89,156.65s6-25.9,5.2-40.84S76.8,90.19,76.8,90.19V88.55S94.23,98,95.36,116.28c.8,13-5.68,40.21-5.68,40.21Z"/><path class="cls-19" d="M30.77,101.31h1.17s5.3,6,8.48,16.9,9.3,54.91,9.3,54.91l-3.89.72Z"/><path class="cls-46" d="M48.92,173.13l-1.52.36-1.57.35-.09-.29c-.42-1.42-2.33-7.79-4.63-15.61-2.56-8.69-5.6-19.18-7.65-26.69-.94-3.42-1.66-6.23-2.05-8-1.56-7.1-1.13-16-.83-20,.1-1.27.19-2,.19-2a89.45,89.45,0,0,1,8,16.56c.39,1.17.74,2.34,1,3.49.85,3.54,2.36,11.82,3.91,20.75C46.27,156.76,48.92,173.13,48.92,173.13Z"/><path class="cls-47" d="M31.41,123.3c2,8.92,13.22,46.53,14.33,50.25l.25-.06,1.51-.36s-6.85-42.42-9.09-51.77c-1.66-6.87-5.76-14.47-7.83-18C30.28,107.29,29.84,116.2,31.41,123.3Z"/><g class="cls-48"><path class="cls-49" d="M38.8,117.87c-.3,2.37-1.42,6.92-5.34,13.38-.94-3.42-1.66-6.23-2.05-8-1.56-7.1-1.13-16-.83-20,.1-1.27.19-2,.19-2A89.45,89.45,0,0,1,38.8,117.87Z"/></g><path class="cls-19" d="M118,101.31l-1.32-.32s-5.94,6.63-9,19.3c-3.54,14.58-9,52.57-9,52.57l4.33,1,4-42.59Z"/><path class="cls-50" d="M117.33,123.3c-1.22,5.51-6,22-9.7,34.64-2.3,7.82-4.21,14.19-4.63,15.61l-.09.29-1.57-.35-1.52-.36s2.64-16.37,5.19-31c1.55-8.93,3.06-17.21,3.91-20.75,2.25-9.35,9-20,9-20s.09.76.19,2C118.46,107.29,118.89,116.2,117.33,123.3Z"/><path class="cls-51" d="M117.33,123.3c-2,8.92-13.22,46.53-14.33,50.25l-.26-.06-1.5-.36s6.85-42.42,9.09-51.77c1.65-6.87,5.76-14.47,7.83-18C118.46,107.29,118.89,116.2,117.33,123.3Z"/><path class="cls-52" d="M107.63,157.94c-2.3,7.82-4.21,14.19-4.63,15.61l-.09.29-1.57-.35-1.52-.36s2.64-16.37,5.19-31Z"/></g></svg>