<svg id="Calque_1" data-name="Calque 1" xmlns="http://www.w3.org/2000/svg" xmlns:xlink="http://www.w3.org/1999/xlink" viewBox="0 0 750.84 715.87"><defs><style>.cls-1{opacity:0.87;isolation:isolate;fill:url(#Dégradé_sans_nom_2);}.cls-2{fill:#198080;}.cls-3{fill:#74c264;}.cls-4{fill:#d3d782;}.cls-5{fill:#fff;}.cls-6{fill:#4bb337;}.cls-7{fill:#cc86d7;}.cls-8{fill:#bb5ed7;}.cls-9{fill:#8051d6;}.cls-10{fill:#8036a4;}.cls-11{fill:#ff2031;}.cls-12{fill:#ff4f60;}.cls-13{fill:#d5394c;}.cls-14{fill:#d68196;}.cls-15{fill:#ba123b;}.cls-16{fill:#ff9a14;}.cls-17{fill:#ffc673;}.cls-18{fill:#d48014;}.cls-19{fill:#ffbc26;}.cls-20{fill:#d42680;}.cls-21{fill:#ff5e89;}.cls-22{fill:#a1146d;}.cls-23{fill:#ff80a6;}</style><radialGradient id="Dégradé_sans_nom_2" cx="-1.6" cy="-436.28" r="5.03" gradientTransform="matrix(60.1, 0, 0, -60.1, 479.9, -25841.98)" gradientUnits="userSpaceOnUse"><stop offset="0" stop-color="#46bcf1" stop-opacity="0.76"/><stop offset="1" stop-color="#fff" stop-opacity="0"/></radialGradient></defs><path id="Tracé_185777" data-name="Tracé 185777" class="cls-1" d="M383.64,75.55c-166.82,0-302,135.25-302,302.07s135.26,302,302.08,302,302-135.24,302-302.06-135.24-302-302.06-302Z"/><polygon class="cls-2" points="428.7 142.48 286.72 167.58 208.74 278 402.61 409 539.81 219.47 428.7 142.48"/><polygon class="cls-2" points="428.64 142.49 392.75 148.83 455.99 234.19 539.76 219.47 428.64 142.49"/><polygon class="cls-3" points="539.81 219.47 208.74 278 402.61 409 539.81 219.47"/><polygon class="cls-2" points="286.72 167.58 208.74 278 292.47 263.1 322.62 161.23 286.72 167.58"/><polygon class="cls-2" points="402.64 409.21 292.47 263.1 208.77 278.21 402.64 409.21"/><polygon class="cls-2" points="402.59 409.22 455.99 234.19 539.8 219.68 402.59 409.22"/><polygon class="cls-4" points="455.99 234.19 357.66 154.99 292.47 263.1 455.99 234.19"/><polygon class="cls-5" points="455.99 234.19 292.47 263.1 307.24 240.1 455.99 234.19"/><polygon class="cls-6" points="428.64 142.49 455.99 234.19 539.8 219.68 428.64 142.49 428.64 142.49"/><polygon class="cls-6" points="286.72 167.58 292.47 263.1 208.77 278.21 286.72 167.58"/><polygon class="cls-5" points="357.66 154.99 357.66 154.99 292.47 263.1 402.59 409.22 311.04 244.32 357.66 154.99"/><path class="cls-5" d="M208.77,278.21c2.4-.9,101.75-37.64,101.75-37.64l-18,22.53Z"/><polygon class="cls-5" points="526.18 210.88 539.8 219.68 455.99 234.19 526.18 210.88"/><polygon class="cls-7" points="675.33 364.42 527.68 454.07 459.25 295.46 593.52 247.72 675.33 364.42"/><polygon class="cls-8" points="675.33 364.42 459.25 295.46 527.68 454.07 675.33 364.42"/><polygon class="cls-9" points="593.52 247.72 503.32 309.48 459.25 295.46 593.52 247.72"/><polygon class="cls-10" points="527.64 454.19 503.32 309.48 459.21 295.58 527.64 454.19"/><polygon class="cls-9" points="593.5 247.72 631.26 350.3 675.3 364.41 593.5 247.72"/><polygon class="cls-10" points="527.62 454.18 631.26 350.3 675.26 364.52 527.62 454.18"/><polygon class="cls-5" points="593.5 247.72 516 313.37 527.62 454.18 503.32 309.48 593.5 247.72"/><polygon class="cls-5" points="631.26 350.3 507.45 309.52 520.28 304.31 631.26 350.3"/><rect class="cls-11" x="140.71" y="321.1" width="154.33" height="154.33" transform="translate(-220.76 281.29) rotate(-46.39)"/><rect class="cls-12" x="140.71" y="355.22" width="154.33" height="86.09" transform="translate(-220.76 281.29) rotate(-46.39)"/><polygon class="cls-13" points="215.24 289.17 310.17 303.53 326.98 395.63 215.24 289.17"/><polygon class="cls-14" points="310.17 303.53 239.94 312.71 302.27 372.09 310.17 303.53"/><polygon class="cls-15" points="108.78 400.91 127.72 495.04 220.52 507.37 108.78 400.91"/><polygon class="cls-11" points="127.72 495.04 133.48 424.45 195.81 483.83 127.72 495.04"/><polygon class="cls-5" points="310.17 303.53 245.03 318.94 136.9 428.92 127.72 495.04 133.48 424.45 239.94 312.71 310.17 303.53"/><polygon class="cls-5" points="251.06 315.95 302.27 372.09 245.03 318.94 251.06 315.95"/><polygon class="cls-5" points="142.34 421.66 195.81 483.83 136.9 428.92 142.34 421.66"/><path class="cls-16" d="M532.53,383.35c9.43-7.81,17.53-4.19,18,8l1.07,28.34c.46,12.24,9.31,27.62,19.65,34.18l24,15.18c10.35,6.56,9.41,15.38-2.09,19.6l-26.62,9.78c-11.5,4.23-23.4,17.39-26.43,29.26l-7,27.48c-3,11.86-11.72,13.69-19.29,4.06L496.21,537c-7.57-9.63-23.77-16.87-36-16.09l-28.31,1.79c-12.22.78-16.64-6.91-9.82-17.08L437.88,482c6.82-10.17,8.7-27.81,4.18-39.2l-10.45-26.36c-4.52-11.39,1.43-18,13.21-14.63l27.29,7.74c11.78,3.34,29.14-.32,38.58-8.14Z"/><path class="cls-17" d="M427.29,499.21l21.06-3.5c9-1.51,18.43-3,27.27-.56,15.22,4.2,26.94,19.53,42.73,19.06,14.09-.42,24.12-13.11,35.41-21.55a66.11,66.11,0,0,1,40-13.07L570,490.83c-10.49,5-21.31,10.18-28.84,19s-12.88,21.57-24.26,22.77c-8.53.9-15.81-5.53-22.91-10.35a71.31,71.31,0,0,0-42.52-12.13c-4.94.2-9.94.91-14.81,0s-9.75-3.89-11.17-8.63Z"/><path class="cls-18" d="M598,471.17a35.62,35.62,0,0,1-14.71,11.46c-10.87,4.62-23.43,6.42-32,14.53-5.15,4.87-8.22,11.47-12.23,17.31s-9.7,11.33-16.76,11.86c-10,.75-17.58-8.25-25.41-14.54a55.45,55.45,0,0,0-35.74-12.09c-7.31.18-14.6,1.81-21.87,1a23.81,23.81,0,0,1-11.14-4.15l-6,9c-6.82,10.17-2.4,17.86,9.82,17.08l28.31-1.79c12.22-.78,28.42,6.46,36,16.09l17.53,22.3c7.57,9.63,16.25,7.8,19.29-4.06l7-27.48c3-11.87,14.93-25,26.43-29.26l26.62-9.78C603.45,484.91,605.23,477.41,598,471.17Z"/><path class="cls-19" d="M434.12,416.16c20.24-.46,40.5,17.91,58.66,9,9-4.42,13.5-13.91,17.51-23.39-9.51,7.6-26.55,11.13-38.18,7.84l-27.29-7.74c-11.77-3.34-17.71,3.22-13.23,14.58A14.78,14.78,0,0,1,434.12,416.16Z"/><path class="cls-19" d="M562.87,446.34c-6.35-7.58-10.94-17.88-11.27-26.6l-1.07-28.34c-.17-4.43-1.35-7.71-3.22-9.75q0,.62,0,1.23c-.09,11.36-5.53,21.95-7.7,33.11s.5,25.05,10.94,29.52A20.75,20.75,0,0,0,562.87,446.34Z"/><ellipse class="cls-5" cx="505.25" cy="428.62" rx="12.45" ry="10.53" transform="translate(-92.3 714.85) rotate(-65.9)"/><ellipse class="cls-5" cx="518.96" cy="508.2" rx="5.75" ry="4.79" transform="translate(-156.82 774.46) rotate(-65.9)"/><path class="cls-20" d="M256,405c-1.53-16,8.9-23.05,23.18-15.72l29.09,14.93c14.28,7.33,39,12.07,55,10.53l32.56-3.12c16-1.54,23.05,8.89,15.72,23.17l-14.93,29.1c-7.32,14.28-12.06,39-10.53,55l3.13,32.55c1.53,16-8.9,23.05-23.18,15.73L337,552.2c-14.28-7.33-39-12.07-55-10.54l-32.56,3.13c-16,1.53-23-8.89-15.72-23.17l14.93-29.1c7.33-14.28,12.06-39,10.53-55Z"/><path class="cls-21" d="M239.1,543.19c9.79-11.51,25.22-17.23,40.32-17.6s30,4.11,43.78,10.23c8.3,3.68,17,8.08,26,6.78,16.19-2.34,24.09-21.53,24.27-37.89s-4.06-33.27,1.18-48.77c4.51-13.32,17.23-25.59,19-39.55,1.31-2.17,3.32-.38,5,1.54s1.88,4.66,1.9,7.2c.36,35.82-24.86,69.21-20.29,104.74.78,6.09,2.35,12.67-.6,18a16.25,16.25,0,0,1-7.54,6.56c-14.91,7-31.85-2-47.22-7.87a128.34,128.34,0,0,0-79-4Z"/><path class="cls-22" d="M395.84,411.57l-2.46.23c.12.77.22,1.54.28,2.31.75,10.33-3.14,20.41-7.47,29.81s-9.24,18.77-10.78,29c-2.06,13.71,2.13,27.56,2.35,41.43s-5.65,29.9-19,33.62c-8,2.21-16.35-.58-24.15-3.32-18.05-6.34-36.49-12.62-55.62-13.28-14.85-.51-30.36,2.89-42.48,11.15,3.15,1.9,7.5,2.77,12.89,2.25L282,541.66c16-1.53,40.73,3.21,55,10.54l29.09,14.93c14.28,7.32,24.71.25,23.18-15.73l-3.13-32.55c-1.53-16,3.21-40.73,10.53-55l14.93-29.1C418.89,420.46,411.81,410,395.84,411.57Z"/><path class="cls-23" d="M341.26,413.77c-12-1.73-24.39-5.2-33-9.61l-29.09-14.93a28,28,0,0,0-6.26-2.34c5.48,3.48,10.49,8.94,15,13.64,9.12,9.47,20.79,17.38,33.9,18.31A32.08,32.08,0,0,0,341.26,413.77Z"/><path class="cls-23" d="M248.6,492.52l-14.93,29.1c-2.73,5.32-3.46,10.1-2.48,13.93a235,235,0,0,1,25.49-39c9.1-11.26,19.89-23.48,18.78-37.92-.76-9.78-7-18.19-13.22-25.74-1.34-1.61-2.69-3.23-4-4.86l.91,9.46C260.66,453.49,255.93,478.24,248.6,492.52Z"/><circle class="cls-5" cx="284.7" cy="452.89" r="14.93" transform="translate(-215.45 642.66) rotate(-78.62)"/><path class="cls-5" d="M374.55,505a4.23,4.23,0,1,1-6.14-1.58A4.5,4.5,0,0,1,374.55,505Z"/></svg>