<svg xmlns="http://www.w3.org/2000/svg" xmlns:xlink="http://www.w3.org/1999/xlink" viewBox="0 0 759.62 724.24"><defs><style>.cls-1{fill:none;}.cls-2,.cls-3{isolation:isolate;}.cls-3{opacity:0.87;fill:url(#Dégradé_sans_nom_3);}.cls-4{clip-path:url(#clip-path);}.cls-5{clip-path:url(#clip-path-3);}.cls-6{fill:url(#Dégradé_sans_nom_22);}.cls-7{clip-path:url(#clip-path-4);}.cls-8{fill:url(#Dégradé_sans_nom_33);}.cls-9{clip-path:url(#clip-path-5);}.cls-10,.cls-43{mix-blend-mode:screen;}.cls-11{clip-path:url(#clip-path-6);}.cls-12{clip-path:url(#clip-path-7);}.cls-13{fill:url(#Dégradé_sans_nom_20);}.cls-14{clip-path:url(#clip-path-8);}.cls-15{fill:url(#Dégradé_sans_nom_22-2);}.cls-16{clip-path:url(#clip-path-9);}.cls-17{fill:url(#Dégradé_sans_nom_4);}.cls-18{clip-path:url(#clip-path-10);}.cls-19{fill:url(#Dégradé_sans_nom_22-3);}.cls-20{clip-path:url(#clip-path-11);}.cls-21{fill:url(#Dégradé_sans_nom_29);}.cls-22{clip-path:url(#clip-path-12);}.cls-23{fill:url(#Dégradé_sans_nom_22-4);}.cls-24{clip-path:url(#clip-path-13);}.cls-25{fill:url(#Dégradé_sans_nom_29-2);}.cls-26{clip-path:url(#clip-path-14);}.cls-27{fill:url(#Dégradé_sans_nom_22-5);}.cls-28{clip-path:url(#clip-path-15);}.cls-29{fill:url(#Dégradé_sans_nom_29-3);}.cls-30{clip-path:url(#clip-path-16);}.cls-31{fill:url(#Dégradé_sans_nom_22-6);}.cls-32{clip-path:url(#clip-path-17);}.cls-33{fill:url(#Dégradé_sans_nom_29-4);}.cls-34{clip-path:url(#clip-path-19);}.cls-35{clip-path:url(#clip-path-20);}.cls-36{fill:url(#Dégradé_sans_nom_20-2);}.cls-37{fill:#fff;}.cls-38{clip-path:url(#clip-path-21);}.cls-39{clip-path:url(#clip-path-22);}.cls-40{clip-path:url(#clip-path-23);}.cls-41{fill:url(#Dégradé_sans_nom_32);}.cls-42{clip-path:url(#clip-path-24);}.cls-100,.cls-104,.cls-43,.cls-76,.cls-77,.cls-79,.cls-83,.cls-84,.cls-85,.cls-97{opacity:0.5;}.cls-44{clip-path:url(#clip-path-25);}.cls-45{clip-path:url(#clip-path-26);}.cls-46{fill:url(#Dégradé_sans_nom_31);}.cls-47{fill:#d6ffff;}.cls-100,.cls-102,.cls-104,.cls-48,.cls-57,.cls-58,.cls-59,.cls-61,.cls-62,.cls-65,.cls-76,.cls-77,.cls-78,.cls-79,.cls-80,.cls-83,.cls-84,.cls-85,.cls-86,.cls-91,.cls-92,.cls-97{mix-blend-mode:multiply;}.cls-49{clip-path:url(#clip-path-28);}.cls-50{clip-path:url(#clip-path-29);}.cls-51{fill:url(#Dégradé_sans_nom_30);}.cls-52{clip-path:url(#clip-path-30);}.cls-53{clip-path:url(#clip-path-31);}.cls-54{fill:url(#Dégradé_sans_nom_6);}.cls-100,.cls-101,.cls-102,.cls-103,.cls-104,.cls-105,.cls-106,.cls-107,.cls-108,.cls-109,.cls-110,.cls-111,.cls-112,.cls-113,.cls-55,.cls-56,.cls-57,.cls-58,.cls-60,.cls-61,.cls-62,.cls-63,.cls-64,.cls-65,.cls-66,.cls-67,.cls-68,.cls-69,.cls-70,.cls-71,.cls-72,.cls-73,.cls-74,.cls-75,.cls-76,.cls-77,.cls-78,.cls-79,.cls-80,.cls-81,.cls-82,.cls-83,.cls-84,.cls-85,.cls-86,.cls-88,.cls-89,.cls-90,.cls-91,.cls-92,.cls-93,.cls-94,.cls-95,.cls-96,.cls-97,.cls-98,.cls-99{fill-rule:evenodd;}.cls-55{fill:url(#_ÂÁ_Ï_ÌÌ_È_ËÂÌÚ_85);}.cls-56{fill:url(#_ÂÁ_Ï_ÌÌ_È_ËÂÌÚ_32);}.cls-102,.cls-57,.cls-58,.cls-61,.cls-62,.cls-65,.cls-78,.cls-80,.cls-91,.cls-92{opacity:0.71;}.cls-57{fill:url(#_ÂÁ_Ï_ÌÌ_È_ËÂÌÚ_141);}.cls-58{fill:url(#_ÂÁ_Ï_ÌÌ_È_ËÂÌÚ_141-2);}.cls-59{opacity:0.3;}.cls-60{fill:#7d72b3;}.cls-61{fill:url(#_ÂÁ_Ï_ÌÌ_È_ËÂÌÚ_141-3);}.cls-62{fill:url(#_ÂÁ_Ï_ÌÌ_È_ËÂÌÚ_141-4);}.cls-63{fill:url(#_ÂÁ_Ï_ÌÌ_È_ËÂÌÚ_46);}.cls-64{fill:url(#_ÂÁ_Ï_ÌÌ_È_ËÂÌÚ_52);}.cls-65{fill:url(#_ÂÁ_Ï_ÌÌ_È_ËÂÌÚ_141-5);}.cls-66{fill:url(#_ÂÁ_Ï_ÌÌ_È_ËÂÌÚ_60);}.cls-67{fill:url(#_ÂÁ_Ï_ÌÌ_È_ËÂÌÚ_60-2);}.cls-68{fill:url(#_ÂÁ_Ï_ÌÌ_È_ËÂÌÚ_100);}.cls-69{fill:url(#_ÂÁ_Ï_ÌÌ_È_ËÂÌÚ_103);}.cls-70{fill:url(#_ÂÁ_Ï_ÌÌ_È_ËÂÌÚ_100-2);}.cls-71{fill:url(#_ÂÁ_Ï_ÌÌ_È_ËÂÌÚ_118);}.cls-72{fill:url(#_ÂÁ_Ï_ÌÌ_È_ËÂÌÚ_100-3);}.cls-73{fill:url(#_ÂÁ_Ï_ÌÌ_È_ËÂÌÚ_100-4);}.cls-74{fill:url(#_ÂÁ_Ï_ÌÌ_È_ËÂÌÚ_60-3);}.cls-75{fill:url(#_ÂÁ_Ï_ÌÌ_È_ËÂÌÚ_122);}.cls-76{fill:url(#_ÂÁ_Ï_ÌÌ_È_ËÂÌÚ_141-6);}.cls-77{fill:url(#_ÂÁ_Ï_ÌÌ_È_ËÂÌÚ_141-7);}.cls-78{fill:url(#_ÂÁ_Ï_ÌÌ_È_ËÂÌÚ_141-8);}.cls-79{fill:url(#_ÂÁ_Ï_ÌÌ_È_ËÂÌÚ_141-9);}.cls-80{fill:url(#_ÂÁ_Ï_ÌÌ_È_ËÂÌÚ_141-10);}.cls-81{fill:url(#_ÂÁ_Ï_ÌÌ_È_ËÂÌÚ_103-2);}.cls-82{fill:url(#_ÂÁ_Ï_ÌÌ_È_ËÂÌÚ_103-3);}.cls-83{fill:url(#_ÂÁ_Ï_ÌÌ_È_ËÂÌÚ_141-11);}.cls-84{fill:url(#_ÂÁ_Ï_ÌÌ_È_ËÂÌÚ_141-12);}.cls-85{fill:url(#_ÂÁ_Ï_ÌÌ_È_ËÂÌÚ_141-13);}.cls-86{opacity:0.2;fill:url(#_ÂÁ_Ï_ÌÌ_È_ËÂÌÚ_141-14);}.cls-87{mix-blend-mode:soft-light;}.cls-88{fill:#ffa989;}.cls-89{fill:#ffbd4a;}.cls-90{fill:#ffab4a;}.cls-91{fill:url(#_ÂÁ_Ï_ÌÌ_È_ËÂÌÚ_141-15);}.cls-92{fill:url(#_ÂÁ_Ï_ÌÌ_È_ËÂÌÚ_141-16);}.cls-93{fill:#ff864a;}.cls-94{fill:#ffb14a;}.cls-95{fill:url(#_ÂÁ_Ï_ÌÌ_È_ËÂÌÚ_148);}.cls-96{fill:url(#_ÂÁ_Ï_ÌÌ_È_ËÂÌÚ_148-2);}.cls-97{fill:url(#_ÂÁ_Ï_ÌÌ_È_ËÂÌÚ_141-17);}.cls-98{fill:url(#_ÂÁ_Ï_ÌÌ_È_ËÂÌÚ_148-3);}.cls-99{fill:url(#_ÂÁ_Ï_ÌÌ_È_ËÂÌÚ_100-5);}.cls-100{fill:url(#_ÂÁ_Ï_ÌÌ_È_ËÂÌÚ_141-18);}.cls-101{fill:url(#_ÂÁ_Ï_ÌÌ_È_ËÂÌÚ_103-4);}.cls-102{fill:url(#_ÂÁ_Ï_ÌÌ_È_ËÂÌÚ_141-19);}.cls-103{fill:url(#_ÂÁ_Ï_ÌÌ_È_ËÂÌÚ_148-4);}.cls-104{fill:url(#_ÂÁ_Ï_ÌÌ_È_ËÂÌÚ_141-20);}.cls-105{fill:url(#_ÂÁ_Ï_ÌÌ_È_ËÂÌÚ_103-5);}.cls-106{fill:url(#_ÂÁ_Ï_ÌÌ_È_ËÂÌÚ_153);}.cls-107{fill:url(#_ÂÁ_Ï_ÌÌ_È_ËÂÌÚ_100-6);}.cls-108{fill:url(#_ÂÁ_Ï_ÌÌ_È_ËÂÌÚ_60-4);}.cls-109{fill:url(#_ÂÁ_Ï_ÌÌ_È_ËÂÌÚ_100-7);}.cls-110{fill:url(#_ÂÁ_Ï_ÌÌ_È_ËÂÌÚ_60-5);}.cls-111{fill:url(#_ÂÁ_Ï_ÌÌ_È_ËÂÌÚ_100-8);}.cls-112{fill:url(#_ÂÁ_Ï_ÌÌ_È_ËÂÌÚ_153-2);}.cls-113{fill:url(#_ÂÁ_Ï_ÌÌ_È_ËÂÌÚ_118-2);}.cls-114{fill:#8035a9;}.cls-115{fill:#803fd6;}.cls-116{fill:#ba5ed7;}.cls-117{fill:#c680d6;}</style><radialGradient id="Dégradé_sans_nom_3" cx="-843.25" cy="1085.03" r="2.06" gradientTransform="matrix(135.89, 0, 0, -135.89, 114983.16, 147827.21)" gradientUnits="userSpaceOnUse"><stop offset="0" stop-color="#f14646" stop-opacity="0.76"/><stop offset="1" stop-color="#fff" stop-opacity="0"/></radialGradient><clipPath id="clip-path"><rect class="cls-1" x="463.33" y="177.33" width="167.61" height="181.54" transform="translate(-60.3 220.56) rotate(-21.63)"/></clipPath><clipPath id="clip-path-3"><path class="cls-1" d="M482,204.21c-1.57,1.59-13.21,17.74-14.57,19.56-21.63,29-6.67,76.76,33.4,106.62,29.52,22,64.43,28.15,89.41,18.27l.11,0a50.54,50.54,0,0,0,22.21-16.74c1.66-2.23,11.62-14.82,12.86-17.25,14.84-29.26-9.26-61.81-46.26-89.38-31.22-23.26-61.44-38.78-84.22-29.74a37.64,37.64,0,0,0-12.94,8.7"/></clipPath><radialGradient id="Dégradé_sans_nom_22" cx="-225.95" cy="308.12" r="6.89" gradientTransform="matrix(11.48, 0, 0, -11.48, 3130.4, 3811.17)" gradientUnits="userSpaceOnUse"><stop offset="0" stop-color="#ffbd00"/><stop offset="1" stop-color="#ff772c"/></radialGradient><clipPath id="clip-path-4"><path class="cls-1" d="M504,187.57a50.62,50.62,0,0,0-22,16.64c-21.63,29-6.67,76.78,33.41,106.63s90.09,30.52,111.72,1.49,6.67-76.77-33.4-106.63c-29.41-21.91-64.18-28.1-89.15-18.37Z"/></clipPath><linearGradient id="Dégradé_sans_nom_33" x1="-308.48" y1="316.58" x2="-301.59" y2="316.58" gradientTransform="matrix(0, -26.26, -26.26, 0, 8871.21, -7752.49)" gradientUnits="userSpaceOnUse"><stop offset="0" stop-color="#fc0"/><stop offset="1" stop-color="#ffbd00"/></linearGradient><clipPath id="clip-path-5"><rect class="cls-1" x="463.33" y="177.33" width="167.61" height="181.54" transform="translate(-60.3 220.56) rotate(-21.63)"/></clipPath><clipPath id="clip-path-6"><rect class="cls-1" x="477.97" y="197.9" width="146.17" height="102.81" transform="translate(-53.09 220.68) rotate(-21.63)"/></clipPath><clipPath id="clip-path-7"><path class="cls-1" d="M483.51,275.82l152.72-5-6.85-22.26L473.05,224.93s-5.12,20.12,10.46,50.89"/></clipPath><linearGradient id="Dégradé_sans_nom_20" x1="-245.09" y1="318.74" x2="-238.2" y2="318.74" gradientTransform="matrix(15.82, 0, 0, -15.82, 4366.29, 5291.81)" gradientUnits="userSpaceOnUse"><stop offset="0" stop-color="#ff9840"/><stop offset="0.1" stop-color="#ef8e3c"/><stop offset="0.29" stop-color="#c57631"/><stop offset="0.55" stop-color="#824d21"/><stop offset="0.87" stop-color="#261609"/><stop offset="1"/></linearGradient><clipPath id="clip-path-8"><path class="cls-1" d="M503.36,220.16c-.59.79-1.14,1.61-1.65,2.45-12.72,20.63-2,52.53,25.21,72.77s61,21.45,77.06,3.17a24.74,24.74,0,0,0,1.76-2.12c15.27-20.5,4.72-54.16-23.56-75.23-20.84-15.52-45.47-19.86-63.11-12.87a35.65,35.65,0,0,0-15.71,11.83"/></clipPath><radialGradient id="Dégradé_sans_nom_22-2" cx="-196.77" cy="292.66" r="6.89" gradientTransform="matrix(8.09, 0, 0, -8.09, 2149.5, 2625.69)" xlink:href="#Dégradé_sans_nom_22"/><clipPath id="clip-path-9"><path class="cls-1" d="M501.71,222.61c-12.72,20.63-2,52.53,25.21,72.77s61,21.45,77.06,3.17c12.58-20.6,1.74-52.38-25.36-72.57-20.85-15.53-45.48-19.86-63.1-12.86a36.25,36.25,0,0,0-13.81,9.49"/></clipPath><linearGradient id="Dégradé_sans_nom_4" x1="-315.26" y1="304.7" x2="-308.37" y2="304.7" gradientTransform="matrix(0, -18.48, -18.48, 0, 6186.41, -5502.92)" gradientUnits="userSpaceOnUse"><stop offset="0" stop-color="#fc0"/><stop offset="1" stop-color="#ff9700"/></linearGradient><clipPath id="clip-path-10"><path class="cls-1" d="M584.5,209.52c-2.15,2.7-1.34,6.92,1.82,9.43s7.45,2.37,9.59-.33,1.33-6.92-1.81-9.43a7.53,7.53,0,0,0-7.32-1.35,5.46,5.46,0,0,0-2.28,1.68"/></clipPath><radialGradient id="Dégradé_sans_nom_22-3" cx="-666.11" cy="-551.05" r="6.89" gradientTransform="matrix(0, -1.06, -0.91, 0, 91.67, -491.62)" xlink:href="#Dégradé_sans_nom_22"/><clipPath id="clip-path-11"><path class="cls-1" d="M584.77,210.89c-1.85,2.31-1.14,5.92,1.55,8.06s6.36,2,8.2-.28,1.14-5.91-1.56-8.06a6.4,6.4,0,0,0-6.25-1.16,4.58,4.58,0,0,0-1.94,1.44"/></clipPath><linearGradient id="Dégradé_sans_nom_29" x1="-532.47" y1="-169.89" x2="-525.58" y2="-169.89" gradientTransform="matrix(-1.45, -1.08, -0.91, 1.25, -333.15, -144.42)" gradientUnits="userSpaceOnUse"><stop offset="0" stop-color="#00fff4"/><stop offset="1" stop-color="#30a7fb"/></linearGradient><clipPath id="clip-path-12"><path class="cls-1" d="M491.35,206.85c-2.15,2.69-1.33,6.92,1.82,9.42s7.45,2.38,9.6-.33,1.33-6.91-1.83-9.42a7.5,7.5,0,0,0-7.31-1.35,5.46,5.46,0,0,0-2.28,1.68"/></clipPath><radialGradient id="Dégradé_sans_nom_22-4" cx="-605.98" cy="-498.24" r="6.89" gradientTransform="matrix(0, -1.06, -0.91, 0, 46.35, -430.58)" xlink:href="#Dégradé_sans_nom_22"/><clipPath id="clip-path-13"><path class="cls-1" d="M491.61,208.22c-1.83,2.3-1.13,5.91,1.56,8.05s6.37,2,8.21-.27,1.13-5.92-1.57-8.06a6.4,6.4,0,0,0-6.25-1.16,4.74,4.74,0,0,0-1.95,1.44"/></clipPath><linearGradient id="Dégradé_sans_nom_29-2" x1="-496.14" y1="-140.33" x2="-489.25" y2="-140.33" gradientTransform="matrix(-1.45, -1.08, -0.91, 1.25, -346.67, -144.83)" xlink:href="#Dégradé_sans_nom_29"/><clipPath id="clip-path-14"><path class="cls-1" d="M612.45,297.06c-2.15,2.7-1.33,6.92,1.82,9.44s7.46,2.35,9.6-.33,1.34-6.92-1.82-9.44a7.48,7.48,0,0,0-7.31-1.34,5.4,5.4,0,0,0-2.29,1.67"/></clipPath><radialGradient id="Dégradé_sans_nom_22-5" cx="-727.76" cy="-502.85" r="6.89" gradientTransform="matrix(0, -1.06, -0.91, 0, 163.27, -469.4)" xlink:href="#Dégradé_sans_nom_22"/><clipPath id="clip-path-15"><path class="cls-1" d="M612.71,298.43c-1.83,2.31-1.13,5.92,1.56,8.07s6.37,2,8.21-.28,1.13-5.92-1.57-8.06a6.38,6.38,0,0,0-6.24-1.16,4.77,4.77,0,0,0-2,1.43"/></clipPath><linearGradient id="Dégradé_sans_nom_29-3" x1="-567.44" y1="-140.33" x2="-560.55" y2="-140.33" gradientTransform="matrix(-1.45, -1.08, -0.91, 1.25, -329.1, -131.73)" xlink:href="#Dégradé_sans_nom_29"/><clipPath id="clip-path-16"><path class="cls-1" d="M517.37,299.63c-2.15,2.69-1.34,6.91,1.83,9.42s7.44,2.37,9.59-.32,1.33-6.92-1.83-9.43a7.49,7.49,0,0,0-7.3-1.36,5.51,5.51,0,0,0-2.29,1.69"/></clipPath><radialGradient id="Dégradé_sans_nom_22-6" cx="-669.04" cy="-445.03" r="6.89" gradientTransform="matrix(0, -1.06, -0.91, 0, 120.55, -404.62)" xlink:href="#Dégradé_sans_nom_22"/><clipPath id="clip-path-17"><path class="cls-1" d="M517.63,301c-1.83,2.3-1.12,5.91,1.57,8.05s6.36,2,8.19-.28,1.14-5.91-1.55-8.06a6.42,6.42,0,0,0-6.25-1.15,4.77,4.77,0,0,0-2,1.44"/></clipPath><linearGradient id="Dégradé_sans_nom_29-4" x1="-531.83" y1="-107.83" x2="-524.94" y2="-107.83" gradientTransform="matrix(-1.45, -1.08, -0.91, 1.25, -342.89, -131.36)" xlink:href="#Dégradé_sans_nom_29"/><clipPath id="clip-path-19"><rect class="cls-1" x="455.35" y="229.98" width="28.79" height="62.5" transform="translate(-63.22 191.55) rotate(-21.63)"/></clipPath><clipPath id="clip-path-20"><path class="cls-1" d="M469.15,295.09l14.36-19.27s-12.57-17.32-11.9-48.94l-13.47,19.75s-2.26,30,11,48.46"/></clipPath><linearGradient id="Dégradé_sans_nom_20-2" x1="-205.93" y1="300.16" x2="-199.04" y2="300.16" gradientTransform="matrix(8.15, 0, 0, -8.15, 2120.87, 2709)" xlink:href="#Dégradé_sans_nom_20"/><clipPath id="clip-path-21"><polygon class="cls-1" points="264.54 145.41 401.18 116.89 436.38 280.24 299.74 308.75 264.54 145.41"/></clipPath><clipPath id="clip-path-22"><rect class="cls-1" x="280.37" y="129.36" width="139.58" height="169.37" transform="translate(-36.34 76.03) rotate(-11.79)"/></clipPath><clipPath id="clip-path-23"><polygon class="cls-1" points="274.79 194.51 334.03 300.94 373.41 294.55 419.33 203.88 388.94 135.53 300.03 138 274.79 194.51"/></clipPath><radialGradient id="Dégradé_sans_nom_32" cx="-250.85" cy="352" r="4.75" gradientTransform="matrix(16.26, 0, 0, -16.26, 4428.81, 5937.01)" gradientUnits="userSpaceOnUse"><stop offset="0" stop-color="#0025ae"/><stop offset="1" stop-color="#008cca"/></radialGradient><clipPath id="clip-path-24"><rect class="cls-1" x="280.37" y="129.36" width="139.58" height="169.37" transform="translate(-36.34 76.03) rotate(-11.79)"/></clipPath><clipPath id="clip-path-25"><rect class="cls-1" x="309.15" y="126.39" width="103.32" height="99.9" transform="translate(-28.41 77.41) rotate(-11.79)"/></clipPath><clipPath id="clip-path-26"><polygon class="cls-1" points="300.03 138 310.46 187.07 366.18 226.25 419.33 203.88 388.94 135.53 300.03 138"/></clipPath><linearGradient id="Dégradé_sans_nom_31" x1="-284.59" y1="314.48" x2="-279.84" y2="314.48" gradientTransform="matrix(0, -21.02, -21.02, 0, 6970.43, -5755.03)" gradientUnits="userSpaceOnUse"><stop offset="0" stop-color="#23786e"/><stop offset="0.18" stop-color="#1e685f"/><stop offset="0.54" stop-color="#123e38"/><stop offset="1"/></linearGradient><clipPath id="clip-path-28"><rect class="cls-1" x="338.43" y="212.23" width="90.07" height="80.51" transform="translate(-43.49 83.65) rotate(-11.79)"/></clipPath><clipPath id="clip-path-29"><polygon class="cls-1" points="347.6 301.09 366.18 226.25 419.33 203.88 373.41 294.55 347.6 301.09"/></clipPath><linearGradient id="Dégradé_sans_nom_30" x1="-286.67" y1="306.82" x2="-281.91" y2="306.82" gradientTransform="matrix(0, -16.94, -16.94, 0, 5580.32, -4562.69)" gradientUnits="userSpaceOnUse"><stop offset="0" stop-color="#005ba4"/><stop offset="0.12" stop-color="#2472b1"/><stop offset="0.45" stop-color="#80aed2"/><stop offset="0.71" stop-color="#c5d9ea"/><stop offset="0.9" stop-color="#eff5f9"/><stop offset="1" stop-color="#fff"/></linearGradient><clipPath id="clip-path-30"><rect class="cls-1" x="314.46" y="176.01" width="103.14" height="49.73" transform="translate(-33.31 79) rotate(-11.79)"/></clipPath><clipPath id="clip-path-31"><path class="cls-1" d="M310.46,187.07l55.72,39.18,53.15-22.37s-34.52,7.88-55.87,6.67-53-23.48-53-23.48"/></clipPath><linearGradient id="Dégradé_sans_nom_6" x1="-261.73" y1="350.58" x2="-256.97" y2="350.58" gradientTransform="matrix(21.7, 0, 0, -21.7, 5993.53, 7807.85)" gradientUnits="userSpaceOnUse"><stop offset="0"/><stop offset="0.29" stop-color="#372c40"/><stop offset="0.63" stop-color="#705b84"/><stop offset="0.88" stop-color="#9378ae"/><stop offset="1" stop-color="#a183be"/></linearGradient><linearGradient id="_ÂÁ_Ï_ÌÌ_È_ËÂÌÚ_85" x1="525.36" y1="629.44" x2="525.36" y2="542.19" gradientTransform="matrix(0.95, -0.31, 0.31, 0.95, -187.49, 96.73)" gradientUnits="userSpaceOnUse"><stop offset="0" stop-color="#5b006f"/><stop offset="0.02" stop-color="#5c0270"/><stop offset="0.23" stop-color="#6a1a7c"/><stop offset="0.46" stop-color="#732c84"/><stop offset="0.7" stop-color="#793689"/><stop offset="0.99" stop-color="#7b398b"/></linearGradient><radialGradient id="_ÂÁ_Ï_ÌÌ_È_ËÂÌÚ_32" cx="352.07" cy="415.94" r="189.9" gradientUnits="userSpaceOnUse"><stop offset="0.01" stop-color="#9d4863"/><stop offset="0.24" stop-color="#9a4563"/><stop offset="0.42" stop-color="#903d61"/><stop offset="0.58" stop-color="#802e5f"/><stop offset="0.73" stop-color="#68195b"/><stop offset="0.87" stop-color="#4c0057"/><stop offset="0.98" stop-color="#4c0086"/></radialGradient><linearGradient id="_ÂÁ_Ï_ÌÌ_È_ËÂÌÚ_141" x1="344.23" y1="516.39" x2="393.52" y2="516.39" gradientUnits="userSpaceOnUse"><stop offset="0" stop-color="#ca528d"/><stop offset="1" stop-color="#8e7090"/></linearGradient><linearGradient id="_ÂÁ_Ï_ÌÌ_È_ËÂÌÚ_141-2" x1="467.65" y1="492.96" x2="514.6" y2="492.96" xlink:href="#_ÂÁ_Ï_ÌÌ_È_ËÂÌÚ_141"/><linearGradient id="_ÂÁ_Ï_ÌÌ_È_ËÂÌÚ_141-3" x1="513.63" y1="450.16" x2="530.94" y2="450.16" xlink:href="#_ÂÁ_Ï_ÌÌ_È_ËÂÌÚ_141"/><linearGradient id="_ÂÁ_Ï_ÌÌ_È_ËÂÌÚ_141-4" x1="307.93" y1="411.09" x2="514.55" y2="411.09" xlink:href="#_ÂÁ_Ï_ÌÌ_È_ËÂÌÚ_141"/><linearGradient id="_ÂÁ_Ï_ÌÌ_È_ËÂÌÚ_46" x1="307.93" y1="379.71" x2="501.67" y2="379.71" gradientUnits="userSpaceOnUse"><stop offset="0.01" stop-color="#de6863"/><stop offset="0.25" stop-color="#db6563"/><stop offset="0.43" stop-color="#d35b62"/><stop offset="0.6" stop-color="#c54b60"/><stop offset="0.76" stop-color="#b1335d"/><stop offset="0.91" stop-color="#981659"/><stop offset="1" stop-color="#860057"/></linearGradient><linearGradient id="_ÂÁ_Ï_ÌÌ_È_ËÂÌÚ_52" x1="329.6" y1="569.18" x2="329.6" y2="450.4" gradientUnits="userSpaceOnUse"><stop offset="0" stop-color="#860057"/><stop offset="0.03" stop-color="#8c0757"/><stop offset="0.19" stop-color="#aa2456"/><stop offset="0.36" stop-color="#c13c55"/><stop offset="0.54" stop-color="#d14c54"/><stop offset="0.74" stop-color="#db5654"/><stop offset="0.99" stop-color="#de5954"/></linearGradient><linearGradient id="_ÂÁ_Ï_ÌÌ_È_ËÂÌÚ_141-5" x1="411.24" y1="556.86" x2="445.59" y2="556.86" xlink:href="#_ÂÁ_Ï_ÌÌ_È_ËÂÌÚ_141"/><linearGradient id="_ÂÁ_Ï_ÌÌ_È_ËÂÌÚ_60" x1="525.39" y1="443.22" x2="525.39" y2="397.8" gradientUnits="userSpaceOnUse"><stop offset="0" stop-color="#860057"/><stop offset="0.03" stop-color="#880557"/><stop offset="0.23" stop-color="#951c56"/><stop offset="0.45" stop-color="#9e2c55"/><stop offset="0.69" stop-color="#a33654"/><stop offset="0.99" stop-color="#a53954"/></linearGradient><linearGradient id="_ÂÁ_Ï_ÌÌ_È_ËÂÌÚ_60-2" x1="493.08" y1="494.31" x2="493.08" y2="440.11" xlink:href="#_ÂÁ_Ï_ÌÌ_È_ËÂÌÚ_60"/><linearGradient id="_ÂÁ_Ï_ÌÌ_È_ËÂÌÚ_100" x1="388.9" y1="386.6" x2="388.9" y2="331.52" gradientUnits="userSpaceOnUse"><stop offset="0" stop-color="#f49f57"/><stop offset="0.1" stop-color="#f79656"/><stop offset="0.35" stop-color="#fb8655"/><stop offset="0.63" stop-color="#fe7c54"/><stop offset="0.99" stop-color="#ff7954"/></linearGradient><linearGradient id="_ÂÁ_Ï_ÌÌ_È_ËÂÌÚ_103" x1="441.49" y1="410.37" x2="441.49" y2="356.47" gradientUnits="userSpaceOnUse"><stop offset="0" stop-color="#f47d57"/><stop offset="0.4" stop-color="#fc7a55"/><stop offset="0.99" stop-color="#ff7954"/></linearGradient><linearGradient id="_ÂÁ_Ï_ÌÌ_È_ËÂÌÚ_100-2" x1="307.93" y1="398.1" x2="358.36" y2="398.1" xlink:href="#_ÂÁ_Ï_ÌÌ_È_ËÂÌÚ_100"/><linearGradient id="_ÂÁ_Ï_ÌÌ_È_ËÂÌÚ_118" x1="475.28" y1="448.33" x2="516.39" y2="448.33" gradientUnits="userSpaceOnUse"><stop offset="0.01" stop-color="#c75357"/><stop offset="0.13" stop-color="#d35856"/><stop offset="0.37" stop-color="#e35f55"/><stop offset="0.65" stop-color="#ed6454"/><stop offset="0.99" stop-color="#f06554"/></linearGradient><linearGradient id="_ÂÁ_Ï_ÌÌ_È_ËÂÌÚ_100-3" x1="279.13" y1="472.17" x2="344.22" y2="472.17" xlink:href="#_ÂÁ_Ï_ÌÌ_È_ËÂÌÚ_100"/><linearGradient id="_ÂÁ_Ï_ÌÌ_È_ËÂÌÚ_100-4" x1="285.85" y1="506.74" x2="339.94" y2="506.74" xlink:href="#_ÂÁ_Ï_ÌÌ_È_ËÂÌÚ_100"/><linearGradient id="_ÂÁ_Ï_ÌÌ_È_ËÂÌÚ_60-3" x1="425.77" y1="564.19" x2="425.77" y2="537.85" xlink:href="#_ÂÁ_Ï_ÌÌ_È_ËÂÌÚ_60"/><linearGradient id="_ÂÁ_Ï_ÌÌ_È_ËÂÌÚ_122" x1="410.05" y1="545.12" x2="435.58" y2="545.12" gradientUnits="userSpaceOnUse"><stop offset="0.01" stop-color="#c75357"/><stop offset="0.26" stop-color="#d15149"/><stop offset="0.58" stop-color="#d94f3f"/><stop offset="0.99" stop-color="#db4f3c"/></linearGradient><linearGradient id="_ÂÁ_Ï_ÌÌ_È_ËÂÌÚ_141-6" x1="322.87" y1="511.85" x2="379.79" y2="511.85" xlink:href="#_ÂÁ_Ï_ÌÌ_È_ËÂÌÚ_141"/><linearGradient id="_ÂÁ_Ï_ÌÌ_È_ËÂÌÚ_141-7" x1="426.55" y1="552.24" x2="441.49" y2="552.24" xlink:href="#_ÂÁ_Ï_ÌÌ_È_ËÂÌÚ_141"/><linearGradient id="_ÂÁ_Ï_ÌÌ_È_ËÂÌÚ_141-8" x1="493.08" y1="471.03" x2="518.63" y2="471.03" xlink:href="#_ÂÁ_Ï_ÌÌ_È_ËÂÌÚ_141"/><linearGradient id="_ÂÁ_Ï_ÌÌ_È_ËÂÌÚ_141-9" x1="515.64" y1="405.9" x2="525.43" y2="405.9" xlink:href="#_ÂÁ_Ï_ÌÌ_È_ËÂÌÚ_141"/><linearGradient id="_ÂÁ_Ï_ÌÌ_È_ËÂÌÚ_141-10" x1="513.63" y1="422.79" x2="544.53" y2="422.79" xlink:href="#_ÂÁ_Ï_ÌÌ_È_ËÂÌÚ_141"/><linearGradient id="_ÂÁ_Ï_ÌÌ_È_ËÂÌÚ_103-2" x1="538.38" y1="459.82" x2="556.44" y2="459.82" gradientTransform="translate(-105.91 51.02) rotate(-10.3)" xlink:href="#_ÂÁ_Ï_ÌÌ_È_ËÂÌÚ_103"/><linearGradient id="_ÂÁ_Ï_ÌÌ_È_ËÂÌÚ_103-3" x1="547.41" y1="462.16" x2="576.24" y2="462.16" gradientTransform="translate(-105.91 51.02) rotate(-10.3)" xlink:href="#_ÂÁ_Ï_ÌÌ_È_ËÂÌÚ_103"/><linearGradient id="_ÂÁ_Ï_ÌÌ_È_ËÂÌÚ_141-11" x1="388.9" y1="368.7" x2="473.88" y2="368.7" xlink:href="#_ÂÁ_Ï_ÌÌ_È_ËÂÌÚ_141"/><linearGradient id="_ÂÁ_Ï_ÌÌ_È_ËÂÌÚ_141-12" x1="415.09" y1="412.82" x2="436.58" y2="412.82" xlink:href="#_ÂÁ_Ï_ÌÌ_È_ËÂÌÚ_141"/><linearGradient id="_ÂÁ_Ï_ÌÌ_È_ËÂÌÚ_141-13" x1="452.6" y1="394.84" x2="501.67" y2="394.84" xlink:href="#_ÂÁ_Ï_ÌÌ_È_ËÂÌÚ_141"/><linearGradient id="_ÂÁ_Ï_ÌÌ_È_ËÂÌÚ_141-14" x1="317.03" y1="413.29" x2="353.4" y2="413.29" xlink:href="#_ÂÁ_Ï_ÌÌ_È_ËÂÌÚ_141"/><linearGradient id="_ÂÁ_Ï_ÌÌ_È_ËÂÌÚ_141-15" x1="360.09" y1="456.17" x2="387.75" y2="456.17" xlink:href="#_ÂÁ_Ï_ÌÌ_È_ËÂÌÚ_141"/><linearGradient id="_ÂÁ_Ï_ÌÌ_È_ËÂÌÚ_141-16" x1="371.37" y1="476.92" x2="386.53" y2="476.92" xlink:href="#_ÂÁ_Ï_ÌÌ_È_ËÂÌÚ_141"/><linearGradient id="_ÂÁ_Ï_ÌÌ_È_ËÂÌÚ_148" x1="371.89" y1="460.92" x2="371.89" y2="436.52" gradientUnits="userSpaceOnUse"><stop offset="0" stop-color="#a20057"/><stop offset="0.28" stop-color="#ba2456"/><stop offset="0.57" stop-color="#ce4155"/><stop offset="0.82" stop-color="#da5354"/><stop offset="0.99" stop-color="#de5954"/></linearGradient><linearGradient id="_ÂÁ_Ï_ÌÌ_È_ËÂÌÚ_148-2" x1="377.34" y1="480.69" x2="377.34" y2="468.78" xlink:href="#_ÂÁ_Ï_ÌÌ_È_ËÂÌÚ_148"/><linearGradient id="_ÂÁ_Ï_ÌÌ_È_ËÂÌÚ_141-17" x1="374.66" y1="452.48" x2="387.63" y2="452.48" xlink:href="#_ÂÁ_Ï_ÌÌ_È_ËÂÌÚ_141"/><linearGradient id="_ÂÁ_Ï_ÌÌ_È_ËÂÌÚ_148-3" x1="295.96" y1="441.02" x2="295.96" y2="418.13" xlink:href="#_ÂÁ_Ï_ÌÌ_È_ËÂÌÚ_148"/><linearGradient id="_ÂÁ_Ï_ÌÌ_È_ËÂÌÚ_100-5" x1="371.89" y1="450.56" x2="371.89" y2="435.18" xlink:href="#_ÂÁ_Ï_ÌÌ_È_ËÂÌÚ_100"/><linearGradient id="_ÂÁ_Ï_ÌÌ_È_ËÂÌÚ_141-18" x1="372.82" y1="477.71" x2="383.43" y2="477.71" xlink:href="#_ÂÁ_Ï_ÌÌ_È_ËÂÌÚ_141"/><linearGradient id="_ÂÁ_Ï_ÌÌ_È_ËÂÌÚ_103-4" x1="377.03" y1="476.61" x2="377.03" y2="468.65" xlink:href="#_ÂÁ_Ï_ÌÌ_È_ËÂÌÚ_103"/><linearGradient id="_ÂÁ_Ï_ÌÌ_È_ËÂÌÚ_141-19" x1="16.56" y1="433.25" x2="34" y2="433.25" gradientTransform="translate(908.09 640.1) rotate(105.5)" xlink:href="#_ÂÁ_Ï_ÌÌ_È_ËÂÌÚ_141"/><linearGradient id="_ÂÁ_Ï_ÌÌ_È_ËÂÌÚ_148-4" x1="22.52" y1="438.13" x2="22.52" y2="426.21" gradientTransform="translate(908.09 640.1) rotate(105.5)" xlink:href="#_ÂÁ_Ï_ÌÌ_È_ËÂÌÚ_148"/><linearGradient id="_ÂÁ_Ï_ÌÌ_È_ËÂÌÚ_141-20" x1="18.01" y1="435.14" x2="28.61" y2="435.14" gradientTransform="translate(908.09 640.1) rotate(105.5)" xlink:href="#_ÂÁ_Ï_ÌÌ_È_ËÂÌÚ_141"/><linearGradient id="_ÂÁ_Ï_ÌÌ_È_ËÂÌÚ_103-5" x1="22.21" y1="434.04" x2="22.21" y2="426.08" gradientTransform="translate(908.09 640.1) rotate(105.5)" xlink:href="#_ÂÁ_Ï_ÌÌ_È_ËÂÌÚ_103"/><linearGradient id="_ÂÁ_Ï_ÌÌ_È_ËÂÌÚ_153" x1="329.6" y1="535.83" x2="367.22" y2="535.83" gradientUnits="userSpaceOnUse"><stop offset="0" stop-color="#860057"/><stop offset="0.21" stop-color="#8a0a4d"/><stop offset="0.55" stop-color="#8e1343"/><stop offset="0.99" stop-color="#8f1640"/></linearGradient><linearGradient id="_ÂÁ_Ï_ÌÌ_È_ËÂÌÚ_100-6" x1="329.6" y1="535.83" x2="360.6" y2="535.83" xlink:href="#_ÂÁ_Ï_ÌÌ_È_ËÂÌÚ_100"/><linearGradient id="_ÂÁ_Ï_ÌÌ_È_ËÂÌÚ_60-4" x1="370.77" y1="390.02" x2="370.77" y2="376.96" xlink:href="#_ÂÁ_Ï_ÌÌ_È_ËÂÌÚ_60"/><linearGradient id="_ÂÁ_Ï_ÌÌ_È_ËÂÌÚ_100-7" x1="353.4" y1="384.11" x2="388.14" y2="384.11" xlink:href="#_ÂÁ_Ï_ÌÌ_È_ËÂÌÚ_100"/><linearGradient id="_ÂÁ_Ï_ÌÌ_È_ËÂÌÚ_60-5" x1="296.32" y1="528.85" x2="296.32" y2="520.72" xlink:href="#_ÂÁ_Ï_ÌÌ_È_ËÂÌÚ_60"/><linearGradient id="_ÂÁ_Ï_ÌÌ_È_ËÂÌÚ_100-8" x1="291.2" y1="525.32" x2="301.44" y2="525.32" xlink:href="#_ÂÁ_Ï_ÌÌ_È_ËÂÌÚ_100"/><linearGradient id="_ÂÁ_Ï_ÌÌ_È_ËÂÌÚ_153-2" x1="501.13" y1="452.71" x2="511.13" y2="452.71" xlink:href="#_ÂÁ_Ï_ÌÌ_È_ËÂÌÚ_153"/><linearGradient id="_ÂÁ_Ï_ÌÌ_È_ËÂÌÚ_118-2" x1="501.13" y1="452.71" x2="511.13" y2="452.71" xlink:href="#_ÂÁ_Ï_ÌÌ_È_ËÂÌÚ_118"/></defs><g class="cls-2"><g id="Calque_1" data-name="Calque 1"><path id="Tracé_185776" data-name="Tracé 185776" class="cls-3" d="M392.89,99.61c-154.79,0-280.27,125.48-280.27,280.27S238.1,660.15,392.89,660.15,673.16,534.67,673.16,379.88,547.68,99.61,392.89,99.61Z"/><g id="Classic_Coin" data-name="Classic Coin"><g class="cls-4"><g class="cls-4"><g class="cls-5"><rect class="cls-6" x="422.28" y="151.39" width="239.98" height="241.63" transform="translate(0.04 544.49) rotate(-53.32)"/></g><g class="cls-7"><rect class="cls-8" x="439.52" y="143.85" width="234.36" height="239.67" transform="translate(12.68 552.63) rotate(-53.32)"/></g><g class="cls-9"><g class="cls-10"><g class="cls-11"><g class="cls-12"><rect class="cls-13" x="459.53" y="166.96" width="180.61" height="165.64" transform="translate(21.06 541.53) rotate(-53.32)"/></g></g></g></g><g class="cls-14"><rect class="cls-15" x="474.12" y="177.58" width="164.21" height="167.86" transform="translate(14.23 551.37) rotate(-53.32)"/></g><g class="cls-16"><rect class="cls-17" x="475.29" y="182.98" width="157.58" height="162.12" transform="translate(11.34 550.67) rotate(-53.32)"/></g><g class="cls-18"><rect class="cls-19" x="580.2" y="204.29" width="20.38" height="20.48" transform="translate(54.73 542.64) rotate(-51.46)"/></g><g class="cls-20"><polygon class="cls-21" points="591.73 227.56 577.54 216.99 587.87 202.78 602.05 213.35 591.73 227.56"/></g><g class="cls-22"><rect class="cls-23" x="487.05" y="201.62" width="20.38" height="20.48" transform="translate(21.71 468.78) rotate(-51.46)"/></g><g class="cls-24"><polygon class="cls-25" points="498.58 224.89 484.4 214.32 494.72 200.11 508.91 210.68 498.58 224.89"/></g><g class="cls-26"><rect class="cls-27" x="608.16" y="291.84" width="20.38" height="20.48" transform="translate(-3.2 597.51) rotate(-51.46)"/></g><g class="cls-28"><polygon class="cls-29" points="619.68 315.11 605.5 304.54 615.82 290.33 630.01 300.89 619.68 315.11"/></g><g class="cls-30"><rect class="cls-31" x="513.07" y="294.4" width="20.38" height="20.48" transform="translate(-41.05 524.1) rotate(-51.46)"/></g><g class="cls-32"><polygon class="cls-33" points="524.61 317.67 510.42 307.11 520.75 292.89 534.93 303.46 524.61 317.67"/></g><g class="cls-9"><g class="cls-10"><g class="cls-34"><g class="cls-35"><rect class="cls-36" x="437.36" y="226.75" width="60.88" height="70.5" transform="translate(-21.76 480.66) rotate(-53.32)"/></g></g></g><path class="cls-37" d="M479.71,267.94c1.06,1.93,3.82-17.75.38-25s-6-12-7.81-11.21.73,24,7.43,36.18"/><path class="cls-37" d="M634.39,271.56c-2.42,6.08-6.06-15.79-4.53-16.69s6.71,11.17,4.53,16.69"/></g></g></g></g><g id="Meteor"><g class="cls-38"><g class="cls-39"><g class="cls-40"><rect class="cls-41" x="280.25" y="129.38" width="139.58" height="168.23" transform="translate(-36.23 76) rotate(-11.79)"/></g><g class="cls-42"><g class="cls-43"><g class="cls-44"><g class="cls-45"><rect class="cls-46" x="309.15" y="126.4" width="103.33" height="99.9" transform="translate(-28.41 77.41) rotate(-11.79)"/></g></g></g></g><polygon class="cls-47" points="274.79 194.51 310.46 187.07 300.04 138 274.79 194.51"/><g class="cls-42"><g class="cls-48"><g class="cls-49"><g class="cls-50"><rect class="cls-51" x="338.43" y="212.23" width="90.07" height="80.51" transform="translate(-43.49 83.65) rotate(-11.79)"/></g></g></g><g class="cls-43"><g class="cls-52"><g class="cls-53"><rect class="cls-54" x="314.45" y="176.01" width="103.14" height="49.73" transform="translate(-33.31 79) rotate(-11.79)"/></g></g></g></g></g></g></g><path class="cls-55" d="M451,539.34l36.43,2.09s30.17-9.09,45.21-28.25l7.08-39.89L528.06,436.8l-63.53,40.63S450.12,526.17,451,539.34Z"/><path class="cls-56" d="M530.89,463.68a118.09,118.09,0,0,1-118.23,118.2c-2.09,0-4.21,0-6.28-.18h0c-3.09-.15-6.16-.45-9.18-.82a117.47,117.47,0,0,1-60.39-26.6,120.14,120.14,0,0,1-27.47-33.19c-.72-1.29-1.42-2.62-2.12-3.94,0,0,0-.07-.05-.12-.73-1.43-1.4-2.85-2.05-4.3h0a111.2,111.2,0,0,1-5.29-14A105.94,105.94,0,0,1,297,488.18s0-.07,0-.1c-.52-2.52-1-5.07-1.32-7.64a115.91,115.91,0,0,1-1.2-16.76c0-3.27.13-6.54.43-9.74.15-2,.37-4.06.65-6.08a115.91,115.91,0,0,1,9.45-33,118.34,118.34,0,0,1,107.67-69.39c1.25,0,2.5,0,3.72.05s2.65.1,4,.2a118.65,118.65,0,0,1,19.84,3c3.74.9,7.41,1.95,11,3.2,2.45.82,4.84,1.74,7.21,2.74,1.77.75,3.5,1.52,5.22,2.35l.9.42a118.44,118.44,0,0,1,30.91,21.86c1.3,1.25,2.55,2.55,3.8,3.87.82.9,1.64,1.82,2.44,2.74,1.37,1.55,2.7,3.17,4,4.79a117.87,117.87,0,0,1,21.76,44.52A117.89,117.89,0,0,1,530.89,463.68Z"/><path class="cls-57" d="M344.23,454.52s20.9,18.69,26.11,26.39S393,541.17,393.5,552.24s-10,26-10,26-17.75-5-27.67-10.92l6-41.3Z"/><path class="cls-58" d="M467.65,489.27l32.7,16.21s6.49,4.37,14.2-3.81a54.18,54.18,0,0,0-3.95-22.4Z"/><g class="cls-59"><path class="cls-60" d="M347.64,460.71c-2.67,11.37-1,23.3,3.14,34.13.89,2.34,1.84,5.35,3.29,7.45,1.14,1.66,3.08,2.66,4.65,3.86,2.09,1.58,4,3.38,6,5a24.65,24.65,0,0,0,7.48,4c5.32,1.89,10.66,3.31,16.27,1.64a24.38,24.38,0,0,0,12.72-9.35c1.34-2,2.9-3.77,4.32-5.69a29,29,0,0,0,3.14-6.48,34.75,34.75,0,0,0,2-14.41,37.52,37.52,0,0,0-.95-6.59c-.57-2.25-1.59-4.32-2-6.61-.71-3.74-2.38-7.06-3.88-10.56-3.71-8.69-13.37-13.88-22.28-15.17-4.18-.61-8.32.36-12.43,1-4.34.67-7.5,2.69-11.36,4.58a17.69,17.69,0,0,0-6.14,4.34C347.74,456.5,347.18,463.09,347.64,460.71Z"/><path class="cls-60" d="M383.31,523.64a23.9,23.9,0,0,1,7.32-4.77c1.77-.63,3.42,0,4.87,1.08,2.91,2.08,2.35,6.93.05,9.39-4.21,4.49-12.12.91-12.1-4.82Z"/><path class="cls-60" d="M424.09,485.92c-1.16-1.58-2-2.1-1.9-3.67,0-1.17,1.37-3.42,2-4.55a14.57,14.57,0,0,1,8.49-7,25.43,25.43,0,0,1,7.69-1.21,20.46,20.46,0,0,1,6.71,1.43c4.13,1.33,8.7,3.54,11.74,6.77,2.86,3,2.45,8.53-.06,11.63-1.92,2.37-4.71,3.8-7.24,5.43-2.77,1.77-5.81,4-9,4.93a9.26,9.26,0,0,1-5.62.26,29.1,29.1,0,0,1-5.38-2.08c-1.66-.84-2.91-1.18-4.26-2.5a17.14,17.14,0,0,1-3-3.82A6.18,6.18,0,0,1,424.09,485.92Z"/><path class="cls-60" d="M415.09,464.49c-.47,1.54-1.52,4.63,1.25,4.46a6.91,6.91,0,0,0,3.81-1.92c2.77-3.22-3.84-5.4-4.43-2.54Z"/><path class="cls-60" d="M456.33,541.78c-1.32-2.77-1.62-3.84-.72-6.8a65.66,65.66,0,0,1,5.9-13.28c1.49-2.55,3.32-6,6.12-7.22a22.29,22.29,0,0,1,7.32-1.72c5.32-.33,9.44,2.18,13.22,5.7,2.34,2.16,4.29,4,5.64,6.93a18.18,18.18,0,0,1,1.6,8.77c-.78,8-7.76,13.69-12.92,19.16-4.07,4.32-10.88,9.74-17.22,7.43-4.39-1.59-7-6.25-8.81-10.3C455.27,547.77,455.7,544.65,456.33,541.78Z"/><path class="cls-60" d="M449.4,520.81c-1.55,1.26-2.07,2.81-2.45,4.8-.27,1.45-.87,4.66.55,5.83,1.24,1,3.53-.7,4.52-1.35a8.88,8.88,0,0,0,2.14-1.92,5.29,5.29,0,0,0,1-1.27,7.39,7.39,0,0,0,.17-2.78A3.94,3.94,0,0,0,454,521.5a3.51,3.51,0,0,0-2-.93C451,520.38,449.9,520,449.4,520.81Z"/><path class="cls-60" d="M404.38,572.76c-.17.47-.34.76-.1,1.21a7.92,7.92,0,0,0,1.37,1.4,7.75,7.75,0,0,0,4.07,1.78,11.51,11.51,0,0,0,4.71.21,4.78,4.78,0,0,0,2.92-1.27c1.22-1.58.21-4-.6-5.45-.62-1.16-1.49-2.19-2.2-3.3a14.5,14.5,0,0,0-2.94-3.07c-1.33-1.12-3.4-2.64-5.12-1.4a8.7,8.7,0,0,0-2.95,5.15,6.18,6.18,0,0,0,.18,3.33C404,572.09,404.51,572.58,404.38,572.76Z"/><path class="cls-60" d="M500.28,526.9c-.93-.78-1.29-.82-1.19-1.89a11.62,11.62,0,0,1,.63-3.31,16.56,16.56,0,0,1,4.68-5.87,10.35,10.35,0,0,1,3.66-2,4.16,4.16,0,0,1,2-.41,2.87,2.87,0,0,1,2.42,2.08c.59,1.82-.3,3.84-1.29,5.33-1.26,1.9-2.25,4-4.25,5.3-.92.58-1.89,1.15-2.87,1.64a3.58,3.58,0,0,1-1.94.52C501.63,528.28,500.15,527.9,500.28,526.9Z"/><path class="cls-60" d="M307.3,445c.24,1.05.29,2.13.63,3.15a14.16,14.16,0,0,0,3.75,5.4c2.94,2.88,7.14,4.06,11.07,4.86a33.72,33.72,0,0,0,6.33.79c1.7,0,3.5.39,5.18.25a18.31,18.31,0,0,0,8-2.46c3.6-2.14,6.55-5.46,5.36-9.84a14.09,14.09,0,0,0-4-6.17c-1.9-1.86-3.42-3.8-5.9-4.94-1.09-.49-2.2-1-3.31-1.44a21,21,0,0,0-4-1.51,30.33,30.33,0,0,0-3.61-.72,27,27,0,0,0-3.6,0,19.39,19.39,0,0,0-11.6,5.87c-1.17,1.2-2.17,2.54-3.34,3.73A3.83,3.83,0,0,0,307.3,445Z"/><path class="cls-60" d="M394.87,415.22c-1.18,1.85-1.61,2.27-1.78,4.42a24,24,0,0,0,.65,8c1.54,6.11,6.34,11,10.42,15.65,6.72,7.55,14.28,14.43,23.5,18.77,3.64,1.7,7.48,3.64,11.63,3.1s7.69-2,11.52-3.26a63.28,63.28,0,0,1,10.5-2.55c1.64-.23,3.28-.45,4.93-.63,2.39-.26,4.41-1.22,6.7-1.89,3.3-1,6.75-1.56,10-2.62a27.09,27.09,0,0,0,4.34-1.82c2.29-1.18,4.75-1.89,7-3.14A29.06,29.06,0,0,0,509,425.62c.23-4.94-1.57-10.1-4.05-14.29-1.41-2.38-3.19-4.52-4.75-6.81a50.7,50.7,0,0,0-7-8.08,40.2,40.2,0,0,0-16.49-9.5,33.66,33.66,0,0,0-10.33-1.52,87.25,87.25,0,0,0-16.73,1.89c-5.47,1.11-11,2.28-16.39,3.79a113.53,113.53,0,0,0-16.69,6.5c-5.49,2.57-10.28,6-13.79,11-.8,1.12-1.71,2.19-2.46,3.33a7.59,7.59,0,0,1-1.78,2.23C396.93,415.29,395.46,415.55,394.87,415.22Z"/></g><path class="cls-61" d="M513.63,436.65l17.26,27s.55-18.07-2-21.71S513.63,436.65,513.63,436.65Z"/><path class="cls-62" d="M307.93,416.26S341.69,438.05,434,433.94l37.18,2.86s35.33-12,43.35-33.14c0,0-10.43-15-12.88-17.79s-45.92,6.64-45.92,6.64Z"/><path class="cls-63" d="M312.9,393.42v-6.86s18.67-24.13,49.4-50.64c0,0,79.9-7.06,102.59,0l9,20.55,26.47,10,1.32,19.35s-17.39,27.64-49.07,37.3l-16-3.8s-17.55,7.26-63.88,7.26c-47.34,0-64.77-10.37-64.77-10.37V400.38Z"/><path class="cls-64" d="M379.79,543.23,372,563.49l-23.93,5.69-24.21-1.1s-25.68-16.3-38-42.05l2.67-23.43-9.08-8.38s-2.2-21.89,16-41.87c0,0,20.09-5.59,48.71,2.17l17.64,19.56S376.32,501.63,379.79,543.23Z"/><path class="cls-65" d="M411.24,557.07s5.43,7.18,8.74,8.6,21.75,5.68,23.87,5.44,2.13-19.71.95-22.86a21.5,21.5,0,0,0-3.31-5.64Z"/><path class="cls-66" d="M544.53,410.45l-.93,7.71-13.45,25c-7.53.2-15.57-5.81-16.52-6.56l-.1-.07c-5.39-8.79-7.28-28.1-7.28-28.1l6.29-7.76,10.3-1.87,2.6,1.52,9.13-2.57,7.16,4.57,2.12,1.37Z"/><path class="cls-67" d="M516.39,448.06s-15-8.22-22.36-7.94L475.28,453s-7.62,20.66-7.63,36.31c0,0,18.07,6.52,30.78,4.73,0,0,14.52-6.46,19.54-17.07C518,476.93,519.94,458.73,516.39,448.06Z"/><path class="cls-68" d="M312.9,386.56a290.76,290.76,0,0,0,73-8.69s38.77-13.6,46.33-18.81,32.62-23.14,32.62-23.14-39.71-9.9-102.59,0C362.3,335.92,329.23,360.63,312.9,386.56Z"/><path class="cls-69" d="M473.88,356.47s-24.12,27.8-26.95,30.09-42.13,18.11-42.13,18.11l-22.17,5.7s27.74-.23,32.46,0l8.83-8.6L454.49,403s28.05-16.93,45.86-36.51Z"/><path class="cls-70" d="M307.93,400.38l24.58,2.34s16.39.71,25.85-2.49c0,0-32.92-1.6-45.46-6.81Z"/><path class="cls-71" d="M475.28,453s10.74,4,17.8,3.55,23.31-8.45,23.31-8.45-7.45-6.51-22.36-7.94Z"/><path class="cls-72" d="M279.49,494.23s32.46-7.1,41.38-10.68,23.35-29,23.35-29-17.83-8.28-48.7-2.18C295.52,452.35,276.29,470.24,279.49,494.23Z"/><path class="cls-73" d="M288.59,502.61s22.73-3,30.76-5.19,20.59-10,20.59-10-9.63,21.92-13.11,26.88c0,0-27,10.18-40.92,11.72C285.91,526,285.19,513.83,288.59,502.61Z"/><path class="cls-74" d="M410.05,551.67s5.2-11.39,11.35-13.82c0,0,14.65.13,20.09,4.76l-3.55,21.58-20.33-1.39S410.05,558.94,410.05,551.67Z"/><path class="cls-75" d="M410.05,551.67s6.38,1.83,12.29,0,13.24-11.38,13.24-11.38-4.73-3.09-14.18-2.44C421.4,537.85,411.7,541.92,410.05,551.67Z"/><path class="cls-76" d="M379.79,543.23,372,563.49l-23.93,5.69-24.21-1.1s24-1.47,24.7-5,2.35-13.7,2.35-13.7c-5.89-17.71-24.1-35-24.1-35,7.61-10.73,13.1-26.9,13.1-26.9l-10.33,5.77-6.74-10.76c11.18-10,21.36-27.92,21.36-27.92l17.64,19.56S376.32,501.63,379.79,543.23Z"/><polygon class="cls-77" points="426.55 549.37 437.94 564.19 441.49 542.61 435.58 540.29 426.55 549.37"/><path class="cls-78" d="M493.08,456.51s4,13.66,4.44,19.33.91,18.16.91,18.16,10.91-3.69,19.54-17.07c0,0,2.27-15.58-1.58-28.87C516.39,448.06,502.12,455.38,493.08,456.51Z"/><path class="cls-79" d="M515.64,410.7l2.87,2.25s6.28-2.55,6.49-5.79.43-6.79.43-6.79l-2.58-1.52Z"/><path class="cls-80" d="M544.53,410.45l-.93,7.71-13.45,25c-7.53.2-15.57-5.81-16.52-6.56a25.69,25.69,0,0,0,13.9,4.07,105.66,105.66,0,0,0,0-12.88c-.47-5-4-14.89-4-14.89l18.24-10.58,2.12,1.37Z"/><path class="cls-81" d="M522.85,398.85l-7.21,11.85s-4.34,1.13-9.39-2.21l6.28-7.77Z"/><path class="cls-82" d="M525.43,400.37l-.43,6.79s-3.69,4.79-8.57,6.87c0,0,9.36-1,13.69-2.91,0,0,11.25-4.49,13.74-7.39l-9.28-5.94Z"/><path class="cls-83" d="M388.9,376.46l23.78,25,34.25-14.91s25.06-27.48,26.95-30.09l-9-20.55s-24.58,17-32.62,23.14S388.9,376.46,388.9,376.46Z"/><path class="cls-84" d="M423.92,401.77l12.66,17.6a115,115,0,0,1-19.91,4.49l-1.58-13.49Z"/><path class="cls-85" d="M454.49,403l-1.89,20.14s33.21-11.9,49.07-37.3l-1.32-19.35S475,390.35,454.49,403Z"/><path class="cls-86" d="M317,401.24l22.91,24.1h11.39l2.07-23.87S327.7,403.87,317,401.24Z"/><g class="cls-87"><path class="cls-88" d="M322.11,378.76c-.48-1.32-.16-1.8.57-3a48,48,0,0,1,4.08-5.26,41,41,0,0,1,9.14-8.93c3.73-2.51,7.39-5.22,11.33-7.39a60.05,60.05,0,0,1,8.3-4.05c2-.74,4.15-1.33,6.22-2,4.06-1.23,9.6-1.77,13.52.31,2.39,1.26,3.32,3.61,4.22,6a6.36,6.36,0,0,1,.59,3.51,13.19,13.19,0,0,1-1.28,3.33c-1.64,3.35-4.69,6.42-7.54,8.76a61.81,61.81,0,0,1-19.53,10.64c-1.9.64-3.81,1.36-5.77,1.83-1.27.3-2.57.44-3.83.75a68.27,68.27,0,0,1-8.95,1.72,23.39,23.39,0,0,1-2.57.37,13.25,13.25,0,0,1-2.2-.59c-1.22-.21-3-.16-4-.76C321.47,382.46,321.13,379.3,322.11,378.76Z"/><path class="cls-88" d="M370.65,375.29c.26-1.22.19-1.28,1-2a10.24,10.24,0,0,1,1.49-1.73,12.56,12.56,0,0,1,2.32-1.59c2.38-1.33,5.3-2.81,8.09-2,1.89.56,3,1.47,2.51,3.52a5.91,5.91,0,0,1-2.12,3.05,22.49,22.49,0,0,1-5.39,2.87,9.52,9.52,0,0,1-5.12.62C372,377.75,370.45,376.2,370.65,375.29Z"/><path class="cls-88" d="M411.94,341.25a16.48,16.48,0,0,0-5.14,2.34,88.77,88.77,0,0,0-8,5.81,20.32,20.32,0,0,0-4.14,4.77,10.83,10.83,0,0,0-1.23,4.69c-.12,1.66.4,4.63,2.2,5.37a8.6,8.6,0,0,0,2.63,0,17.11,17.11,0,0,0,4.5-.65c1.53-.38,3.06-.48,4.58-.93s3.08-.88,4.63-1.26a50.5,50.5,0,0,0,9.76-3.14c3-1.41,6.05-2.59,9-4.12,2.1-1.11,4.15-2.24,6.32-3.22,3-1.35,6-2.68,8.87-4.25a12.54,12.54,0,0,0,3-2.45,16.83,16.83,0,0,0,2.77-2.95,5.31,5.31,0,0,0,1-2.17c0-.83-1.22-1.86-1.84-2.24a10.26,10.26,0,0,0-3.86-1.26,33.68,33.68,0,0,0-5.75-.33,59.64,59.64,0,0,0-6.91.9,23.92,23.92,0,0,1-4.29.66,54.84,54.84,0,0,0-8,.67,40.68,40.68,0,0,0-4.49,1.2,27.42,27.42,0,0,0-4.07,1.27C412.84,340.3,410.51,340.82,411.94,341.25Z"/><path class="cls-88" d="M405.64,336.84c-1.45.68-3.6,1.43-4.48,2.94-.57,1,.23,1.18,1.11,1.19,1.54,0,3.13-.73,4.61-1.14a10.53,10.53,0,0,0,3.31-1.58c.46-.33,1.37-.67,1.06-1.35-.18-.4-1.12-.82-1.51-.94a4.84,4.84,0,0,0-4.42.88Z"/><path class="cls-88" d="M457.33,382.54c-1.31.43-2.62.66-3.9,1.06a13.3,13.3,0,0,0-3.61,2,17.17,17.17,0,0,0-5.13,5.16c-1,1.73-2,4.88,0,6.3,2.79,1.95,7.15,0,9.94-1,4.38-1.45,9.19-3.14,12.9-6a59.68,59.68,0,0,0,4.54-4,35,35,0,0,0,3.46-3.84,4.89,4.89,0,0,0,.72-3.49,3.42,3.42,0,0,0-2.28-2.45c-2.06-.82-3.83.15-5.86.48a20.63,20.63,0,0,0-6.49,2C458.76,380.46,455.71,381.87,457.33,382.54Z"/><path class="cls-88" d="M464.58,370.88a3.27,3.27,0,0,1-.65-1.55c.64-.17,1-.9,1.44-1.31a5.43,5.43,0,0,1,1.29-.82c.76-.37,2.12-1,3-.68,1.62.62,2,2.21,1.18,3.74A5.53,5.53,0,0,1,466.7,373c-1.25.16-4-1.61-2.44-3.08Z"/><path class="cls-88" d="M483.18,366.47a14,14,0,0,0-3.58.72,8.86,8.86,0,0,0-.71.59,32.46,32.46,0,0,0-3.3,2.18c-1.08.94-2.27,2.64-1.71,4.11,1.95,5.1,9.06,2.26,12.3.45a28.63,28.63,0,0,0,2.8-2.21,6.93,6.93,0,0,0,1.9-1.72,2.77,2.77,0,0,0,.41-3.19,3.42,3.42,0,0,0-2.43-1.81,10.82,10.82,0,0,0-2.7-.4c-2.16.1-4,1.5-5.82,2.54Z"/><path class="cls-88" d="M297.21,458.19a27.42,27.42,0,0,0-12,10.72,39.42,39.42,0,0,0-3.08,6.54c-.43,1.19-.61,2.44-1.07,3.62a16,16,0,0,0-1,3.09c-.43,2.5-1.62,7.59,2.41,7.92a20.87,20.87,0,0,0,5.66-.66,46.79,46.79,0,0,0,10.27-3.62,50.59,50.59,0,0,0,10.22-6c2.89-2.32,6.12-4.21,8.74-6.86,3.13-3.17,7.65-8.37,4.12-12.88-3.33-4.26-10.53-3.28-15.19-2.73a40.88,40.88,0,0,0-6.81.94,8.15,8.15,0,0,0-1.55.64C297.58,459.08,297.29,459.45,297.21,458.19Z"/><path class="cls-88" d="M314.55,479.31a4.19,4.19,0,0,1,1.2-2.32c.81-.78,1.54-1.63,2.33-2.43a10.5,10.5,0,0,1,5.62-2.84,3.2,3.2,0,0,1,2.53.64c.63.69.33,2.06,0,2.83a4.84,4.84,0,0,1-1.34,1.91,15.15,15.15,0,0,1-2.45,2,20.2,20.2,0,0,1-3.74,1.39c-1,.29-2.53.8-3.48,0C314.68,480,314.15,478.92,314.55,479.31Z"/><path class="cls-88" d="M301,505.15a10.5,10.5,0,0,0-3.52,1,10.12,10.12,0,0,0-2.1,2.23c-1.23,1.62-2.3,3.38-3.53,5a43.29,43.29,0,0,0-2.82,4.28,2.84,2.84,0,0,0-.34,3c1.39,2.67,5.7,2,8,1.47a41.94,41.94,0,0,0,7.07-2.84c2.11-.92,4.3-1.71,6.32-2.81,3.49-1.88,7.73-3.79,9.61-7.5a4.43,4.43,0,0,0,.38-4.14,6.5,6.5,0,0,0-3-3.21c-1.41-.77-2.94-.6-4.48-.61a23.09,23.09,0,0,0-6.6.94,40.11,40.11,0,0,0-4,1.57C300,504.37,299,506,301,505.15Z"/><path class="cls-88" d="M288.7,507.36a4.41,4.41,0,0,1,.05-1.58c.93-.28,1.33-1.31,2.49-1a1.47,1.47,0,0,1,.77,1.91c-.42,1.34-3.69,4.11-3.63,1.26Z"/><path class="cls-88" d="M495.15,444.32c-1.57.07-3.14.19-4.7.37a7.63,7.63,0,0,1-1.36.86,22,22,0,0,0-4.5,2.68c-1.14,1-3.82,2.71-3.66,4.53s2.58,2,3.86,2,2.65-.28,4-.35c1.83-.1,3.64-.33,5.46-.55a18.26,18.26,0,0,0,6.86-1.88,9.56,9.56,0,0,0,2.93-2.55c.41-.51,1-1,.89-1.73a5.13,5.13,0,0,0-1.28-1.73,6.65,6.65,0,0,0-1.84-1C498.78,443.6,495.34,444.65,495.15,444.32Z"/><path class="cls-88" d="M417.93,545.18c-1.27.56-2.06.69-2.63,1.88-.21.43-.89,1.36-.87,1.94,0,.79.82.75,1.48.57a10.07,10.07,0,0,0,2.45-1.48,6.1,6.1,0,0,0,1.48-1.34,1.91,1.91,0,0,0,.6-.94c.08-.4-.14-.77.27-1-.26-1.82-3.71.69-4.36.72Z"/><path class="cls-88" d="M426.76,541.72c-2,.87-3.29,1.54-4.29,3.49a2,2,0,0,0-.3,1.87c1,2,3.21.22,4.34-.64a14.82,14.82,0,0,0,2.3-1.72c.3-.32.5-.7.78-1s.74-.64.9-1c.31-.73-.19-1.29-.88-1.51-1.29-.41-2.27.45-3.49.57Z"/><path class="cls-88" d="M323.69,498.53c-.58,1.26-2.69,6,.1,6,2.43,0,6.4-2.65,6.53-5.32.09-1.79-1.34-2.66-3-2.85-2.12-.25-3.35,1.44-4.25,3.16Z"/><path class="cls-88" d="M330.94,457.87c-.55.75-1.32,1.38-.55,2.15a2.2,2.2,0,0,0,1.32.68c1.06.15,2.65-.81,2.7-1.88a2.19,2.19,0,0,0-1-1.9c-.87-.62-1.46-.23-2.21.32Z"/></g><path class="cls-89" d="M360.09,383.42s14.08-4.34,17.19-5.56,18.81-3.78,18.81-3.78,13.49-5.78,17.27-7.56,13.4-6.51,13.4-6.51L438,354.88s-7.57,7.76-14.19,10.31-23.48,9.32-23.48,9.32-5,1.4-12.14,3.69S360.09,383.42,360.09,383.42Z"/><path class="cls-90" d="M447.76,402.78l6.46,3.12s6.69-4,7.74-7.8C462,398.1,449.29,401.59,447.76,402.78Z"/><polygon class="cls-90" points="412.06 410.37 415.31 412.24 417.66 407.87 412.06 410.37"/><path class="cls-91" d="M360.09,452.48s7.64,7.63,24.43,12.78c0,0,1.18-1.23,2.6-8.44s0-9.74,0-9.74S366.51,449.68,360.09,452.48Z"/><path class="cls-92" d="M371.37,475.3a13.32,13.32,0,0,0,1.17,4.3c.95,1.76,11.54,4.4,12.95,3.81,2.6-1.09-.34-7.41-1.44-9.3a23.9,23.9,0,0,0-2.91-3.76Z"/><path class="cls-90" d="M305.57,521.48s14.33-6.41,18.83-9.63S335.63,497,335.63,497l-7.22,17.94-4.8,1.81-5.12,1.1Z"/><path class="cls-90" d="M314.41,485.67l12.19-6.87s-1.15,3.92-2.9,5S314.41,485.67,314.41,485.67Z"/><path class="cls-93" d="M488.84,456.36l5.41,4.36s1.32-3.57,1.59-4.7S488.84,456.36,488.84,456.36Z"/><path class="cls-90" d="M519.79,413.59l7.75-2.5,6.8-1.78s-7.59,4-8.91,4.72S519.79,413.59,519.79,413.59Z"/><polygon class="cls-90" points="513.63 410.88 516.43 408.7 516.43 411.32 513.63 410.88"/><polygon class="cls-93" points="420.25 552.16 429.52 546.9 428.42 551.79 420.25 552.16"/><path class="cls-94" d="M316.36,401.24s7.07-.57,11.22-.57,12.34.8,12.34.8l7.94.78s-4.55.38-14.17.53A83.21,83.21,0,0,1,316.36,401.24Z"/><path class="cls-95" d="M356.15,445.87s7.25-8.06,10.4-9.22,17.94,5.6,20.55,6.56-5,15.94-7,17.51S356.47,454.35,356.15,445.87Z"/><path class="cls-96" d="M383.3,479.6c-.67,1.92-7.28.92-9.65,0l-.18-.1-.5-.35a.3.3,0,0,1-.12-.13c-1.7-1.74-2.1-6.51-1-9,0,0,5.77-1.77,7.89-1,1.37.47,2.74,4,3.34,7v0A8.9,8.9,0,0,1,383.3,479.6Z"/><path class="cls-97" d="M374.66,450.4l5.49,10.32s7-7.66,7.48-16.48Z"/><path class="cls-98" d="M303.56,418.13l-13.32,3.23s-2.17,7.71-1.86,10.92l8.26,8.74S299.19,425.35,303.56,418.13Z"/><path class="cls-99" d="M356.15,445.87a58.57,58.57,0,0,0,14.48,4.53c8,1.33,17-6.16,17-6.16a41.45,41.45,0,0,0-20.84-9.06S358.75,439.77,356.15,445.87Z"/><path class="cls-100" d="M383.3,479.6c-.67,1.92-7.28.92-9.65,0l-.18-.1-.5-.35-.15-.1,0,0,1.8-2.49,7.38-1.8,1.1,1.2v0A8.9,8.9,0,0,1,383.3,479.6Z"/><path class="cls-101" d="M371.89,470s-.14,5.28,2.11,6.34,7.36-1.07,8-1.58-1.57-5.34-3.5-6S371.89,470,371.89,470Z"/><path class="cls-102" d="M486.69,540.39a13.19,13.19,0,0,0-4.46,0c-2,.45-5.09,10.6-5.09,12.12,0,6,7,4.29,9.08,3.74s2.63-5.1,2.63-5.1Z"/><path class="cls-103" d="M479.36,550.74c-1.67-1.17,1.06-7.27,2.58-9.31l.14-.14.47-.39a.42.42,0,0,1,.16-.09c2.13-1.16,6.83-.27,9,1.5,0,0,.17,6-1.12,7.88-.82,1.19-4.6,1.57-7.6,1.36h0A9,9,0,0,1,479.36,550.74Z"/><path class="cls-104" d="M479.36,550.74c-1.67-1.17,1.06-7.27,2.58-9.31l.14-.14.47-.39.14-.12,0,0,1.92,2.4-.24,7.6-1.45.74h0A9,9,0,0,1,479.36,550.74Z"/><path class="cls-105" d="M491.68,542.31s-5.06-1.55-6.68.34-.93,7.38-.62,8.16,5.56-.08,6.67-1.78S491.68,542.31,491.68,542.31Z"/><polygon class="cls-106" points="329.6 531.37 341.95 532.23 361.05 531.37 367.22 533.52 360.6 532.58 347.86 538.57 346.93 540.29 339.94 538.41 329.6 531.37"/><polygon class="cls-107" points="329.6 531.37 339.94 537.76 343.62 537.19 349.18 536.71 360.6 532.58 347.86 538.57 346.93 540.29 339.01 538.84 329.6 531.37"/><polygon class="cls-108" points="353.4 384.06 363.44 390.02 374.66 389.14 388.14 378.2 370.77 376.96 360.09 379.71 353.4 384.06"/><path class="cls-109" d="M353.4,384.06h3.34l6.15,1.36h6.62l7.21-2.84,7.91-4.38h3.51s-7.15,7.33-13.48,10.94l-11.22.88Z"/><path class="cls-110" d="M291.2,525.18l4.76-4.46,5.18.76a15.58,15.58,0,0,1,0,5.9c-.66,2.6-5.18,1-5.18,1Z"/><path class="cls-111" d="M291.2,525.18a51.88,51.88,0,0,0,5.58,1.57c.79,0,2.68-.08,3.46-.71s.9-4.56.9-4.56.67,3.69,0,5.9c0,0-.11,1.89-3.46,1.77l-2.2-.67Z"/><path class="cls-112" d="M501.13,454.52a11.57,11.57,0,0,1,2.89-4c1.65-1.2,6.5-1.06,6.5-1.06l.61,1.06s-1.67,4.28-3,5-4,0-4,0Z"/><path class="cls-113" d="M510.52,449.5s-1.71,2.88-2.9,3.65a17.12,17.12,0,0,1-2.7,1.36,13.15,13.15,0,0,1-3.79,0,15.22,15.22,0,0,0,5,1.4s2.48,0,2.84-.33a51.3,51.3,0,0,0,2.16-5Z"/><path class="cls-114" d="M207.72,197.09,188.11,243l-72.42,75.33c-5.35,5.57-6.89,15.77-3.42,22.67l22.88,45.42-2.3,6.62,12.21,11.53c4.37,5.15,11.33,9.35,17.42,10.08l30.92,3.68c7.67.91,16.25,7.54,19.06,14.74l8.79,22.51c.88,6.86,2.95,27.7,2.95,27.7l-.63.07,15.36,15.06,0-.14c2.4,2.07,5,.51,6.74-4.68l45.15-137.66c1.66-5.06.11-9.57-3.54-11.95L272.52,329.8l-17,7.61-12.51.88a16.08,16.08,0,0,1-6.63-11.3l-10-108.43a9.92,9.92,0,0,0-2-5.63l0-.07Z"/><polygon class="cls-115" points="243.64 354.78 237.75 414.95 264.01 437.75 278.82 392.58 243.64 354.78"/><polygon class="cls-115" points="206.14 225.71 209.76 263.64 232.05 280.34 228.21 238.7 206.14 225.71"/><path class="cls-116" d="M95.54,325.21c-3.48-6.9-1.94-17.11,3.42-22.68L198.59,198.9c5.36-5.57,10.32-3.83,11,3.86l10,108.43A16.3,16.3,0,0,0,235,325.57l29.49.82c7.72.22,12.07,6.4,9.66,13.74L229,477.79c-2.41,7.34-6.68,7.46-9.49.27l-23.75-60.78c-2.81-7.2-11.38-13.83-19.06-14.75l-30.91-3.68c-7.67-.91-16.79-7.3-20.27-14.2Z"/><path class="cls-117" d="M209.62,202.76c-.71-7.69-5.67-9.43-11-3.86l-8.85,9.21a21.09,21.09,0,0,1,2.32,3.27c3.45,6.12,4.29,13.33,5.06,20.32l8.52,77c1.29,11.69,2.78,23.92,9.46,33.6,4,5.85,9.76,10.41,13.56,16.41,6.56,10.35,6.57,23.43,5.72,35.64a348.74,348.74,0,0,1-15.69,81.71l.78,2c2.81,7.19,7.08,7.07,9.49-.27l45.15-137.66c2.41-7.34-1.94-13.52-9.66-13.74L235,325.57a16.3,16.3,0,0,1-15.34-14.38Z"/><path class="cls-117" d="M110.64,355.18a67.86,67.86,0,0,1-2.37-39.92c6.73-27,29-46.59,45.22-69.45L99,302.53c-5.36,5.57-6.9,15.78-3.42,22.68Z"/><path class="cls-117" d="M176.66,402.53A23.36,23.36,0,0,1,187,406.87a35.61,35.61,0,0,0-19.16-17.62c-13.18-4.85-28.45-1.56-41.33-7.18a34.71,34.71,0,0,1-3.16-1.61l2.11,4.19c3.48,6.9,12.6,13.29,20.27,14.2Z"/><ellipse class="cls-37" cx="120.27" cy="315.69" rx="16.72" ry="14.93" transform="matrix(0.69, -0.73, 0.73, 0.69, -191.82, 186.38)"/><ellipse class="cls-37" cx="257.51" cy="352.27" rx="7.77" ry="7.17" transform="translate(-175.41 297.61) rotate(-46.64)"/></g></g></svg>