<svg id="Calque_1" data-name="Calque 1" xmlns="http://www.w3.org/2000/svg" xmlns:xlink="http://www.w3.org/1999/xlink" viewBox="0 0 759.62 724.24"><defs><style>.cls-1,.cls-2{opacity:0.87;isolation:isolate;}.cls-1{fill:url(#Dégradé_sans_nom_5);}.cls-2{fill:url(#Dégradé_sans_nom_5-2);}.cls-3{fill:#845707;}.cls-4{fill:#804e04;}.cls-5{fill:#ff9a14;}.cls-6{fill:#d48014;}.cls-7{fill:#ffbc26;}.cls-8{fill:#fff;}.cls-9{fill:#f90;}.cls-10{fill:#a66300;}.cls-11{fill:#ffc673;}.cls-12{fill:#ced2c8;}</style><radialGradient id="Dégradé_sans_nom_5" cx="-1685.74" cy="1085.3" r="1.66" gradientTransform="matrix(109, 0, 0, -109, 184226.94, 118622.5)" gradientUnits="userSpaceOnUse"><stop offset="0" stop-color="#f1b446" stop-opacity="0.76"/><stop offset="1" stop-color="#fff" stop-opacity="0"/></radialGradient><radialGradient id="Dégradé_sans_nom_5-2" cx="-1687.52" cy="1084.62" r="1.72" xlink:href="#Dégradé_sans_nom_5"/></defs><path id="Tracé_185775" data-name="Tracé 185775" class="cls-1" d="M481.62,143.81A181.11,181.11,0,1,0,662.74,324.92,181.11,181.11,0,0,0,481.62,143.81Z"/><path id="Tracé_185775-2" data-name="Tracé 185775" class="cls-2" d="M287.42,211.57c-103.55,0-187.5,83.94-187.5,187.5s84,187.5,187.5,187.5,187.5-84,187.5-187.5S391,211.57,287.42,211.57Z"/><path class="cls-3" d="M320.52,312l9.86-6.53L315,345.28l-19-10.55,20.56-1.48,4-21.3-29.9,19.81L254.9,311.93l-20.48,55.62-47.93-22.93-27.11-23.15,9.49,24.21,72.27,118.06,125.45-49.21L340.92,278.19,331.43,254Zm-94.64,62.71,7.83-5.19-2.85,7.72Z"/><polygon class="cls-4" points="268.82 413.81 251.68 424.4 264.23 454.68 283.23 447.23 268.82 413.81"/><polygon class="cls-4" points="319.99 393.74 302.85 404.33 315.41 434.61 334.4 427.16 319.99 393.74"/><polygon class="cls-5" points="357.1 390.33 231.65 439.54 159.38 321.48 221.37 352.99 245.4 287.73 305.45 321.07 331.43 253.99 357.1 390.33"/><path class="cls-6" d="M218.47,418l13.18,21.53L357.1,390.33l-17.4-92.42a139.51,139.51,0,0,1-37.18,75.3C280.11,396.45,250.19,411.57,218.47,418Z"/><polygon class="cls-7" points="283.04 308.63 245.4 287.73 221.37 352.99 159.38 321.48 206.28 398.09 283.04 308.63"/><ellipse class="cls-8" cx="249.15" cy="324.92" rx="10.2" ry="13" transform="translate(-101.45 113.42) rotate(-21.42)"/><polygon class="cls-7" points="231.65 439.54 241.14 463.74 236.8 440.05 354.34 394.29 367.02 415.39 357.1 390.33 231.65 439.54"/><circle class="cls-8" cx="349.69" cy="389.46" r="4.12" transform="translate(-118.07 154.59) rotate(-21.42)"/><circle class="cls-8" cx="200.84" cy="359.76" r="4.71"/><path class="cls-9" d="M436.16,205.68c-24-8.94-50.05,1.41-58.13,23.12s4.82,46.57,28.84,55.52,50-1.41,58.13-23.12S460.17,214.63,436.16,205.68Zm-24.63,66.13c-16.38-6.1-25.18-23.05-19.67-37.85s23.26-21.87,39.64-15.77,25.18,23.05,19.66,37.85S427.9,277.91,411.53,271.81Z"/><path class="cls-9" d="M570.79,255.83c-24-9-50,1.4-58.13,23.12s4.82,46.56,28.84,55.51,50-1.41,58.13-23.12S594.8,264.77,570.79,255.83ZM546.16,322c-16.38-6.1-25.18-23-19.67-37.85s23.26-21.86,39.64-15.76,25.18,23,19.66,37.85S562.53,328.05,546.16,322Z"/><path class="cls-10" d="M497.87,393.58c-4.66-10.54-21.37-23-43.33-31.18s-42.74-9.69-53.16-4.76l-3.56-1.33L395,363.87c-4.27,11.47,15.46,29.41,44.07,40.07s55.27,10,59.54-1.48l2.82-7.56Z"/><ellipse class="cls-11" cx="449.62" cy="375.61" rx="22.16" ry="55.28" transform="translate(-59.29 665.85) rotate(-69.57)"/><ellipse class="cls-9" cx="449.62" cy="375.61" rx="15.79" ry="44.23" transform="translate(-59.3 665.85) rotate(-69.57)"/><rect class="cls-9" x="427.45" y="338.68" width="60.16" height="29.02" transform="translate(-33.14 658.66) rotate(-69.57)"/><path class="cls-9" d="M426.63,178.56c-15.59,61.15-11.35,127-11.35,127,.66,10.8,15.92,28.37,44.69,39.08s50.87,7.06,60.24.15c20-12.76,73.73-103.9,73.73-103.9Z"/><path class="cls-12" d="M557.26,254.3S522.42,259.59,455,229.62c0,0-15.34,10.12-21.13,78,0,0,4.59-69.53,4.08-86.15S427.17,190,427.17,190Z"/><path class="cls-6" d="M572.44,232.87l-.92,1.09c-23,28.39-46.75,57-77.07,77.42-16.46,11.08-35.29,19.51-54.7,23.38A110.72,110.72,0,0,0,460,344.63c28.76,10.72,50.87,7.06,60.24.15,20-12.76,73.73-103.9,73.73-103.9Z"/><ellipse class="cls-11" cx="510.28" cy="209.72" rx="35.79" ry="89.27" transform="translate(135.64 614.71) rotate(-69.57)"/><ellipse class="cls-12" cx="510.95" cy="207.94" rx="27.4" ry="71.43" transform="translate(137.75 614.17) rotate(-69.57)"/><ellipse class="cls-10" cx="509.56" cy="211.67" rx="23.42" ry="71.43" transform="translate(133.35 615.3) rotate(-69.57)"/><polygon class="cls-6" points="495.76 251.43 498 273.3 517.28 283.86 497.18 292.74 493.09 314.35 478.43 297.97 456.62 300.76 467.67 281.75 458.27 261.88 479.76 266.51 495.76 251.43"/><polygon class="cls-10" points="458.27 261.88 469.93 281.99 459.5 298.51 479.2 295.98 490.97 311.22 495.65 291.57 517.28 283.86 497.18 292.74 493.09 314.35 478.43 297.97 456.62 300.76 467.67 281.75 458.27 261.88"/><path class="cls-10" d="M498,273.3l-2.24-21.87-16,15.08-21.49-4.63,3.39,7.17c6.74,1.4,18.73,1.49,18.73,1.49l12.9-12.48Z"/><path class="cls-12" d="M398.61,215.44a3.18,3.18,0,1,1-1.87-4.09A3.19,3.19,0,0,1,398.61,215.44Z"/><path class="cls-12" d="M597.57,289.55a3.18,3.18,0,1,1-1.87-4.09A3.18,3.18,0,0,1,597.57,289.55Z"/></svg>